<svg xmlns="http://www.w3.org/2000/svg" viewBox="0 0 18 18">
    <circle cx="9" cy="9" r="9" fill="inherit"/>
    <path fill="currentColor" d="M13.77 4.4H5.5c-.1 0-.2.1-.2.2V9c0 .1.1.2.2.2h8.27c.12 0 .22-.1.22-.2V4.6c0-.1-.1-.2-.23-.2zm-.2 2h-.87v.8h.87V8h-.87v.8h-.9V8h-.84v.8h-.9V8h-.84v.8h-.9V8H7.5v.8H6.6V8h-.87v-.8h.88v-.8h-.87v-.8h.88v-.8h.88v.8h.87v-.8h.87v.8h.87v-.8h.86v.8h.87v-.8h.87v.8h.87v.8zM4.64 4c-.12 0-.22.1-.2.2v9.2c-.02.1.08.2.2.2.12 0 .22-.1.22-.2V4.2c0-.1-.1-.2-.22-.2z M6.6 5.6h.87v.8H6.6M8.35 5.6h.86v.8h-.85M10.1 5.6h.85v.8h-.86M11.83 5.6h.85v.8h-.85M7.48 6.4h.87v.8h-.87M9.22 6.4h.87v.8H9.2M10.96 6.4h.87v.8h-.87M6.6 7.2h.87V8H6.6M8.35 7.2h.86V8h-.85M10.1 7.2h.85V8h-.86M11.83 7.2h.86V8h-.87"/>
</svg>
