<?xml version="1.0" encoding="utf-8"?>
<!-- Generator: Adobe Illustrator 19.1.0, SVG Export Plug-In . SVG Version: 6.00 Build 0)  -->
<svg version="1.1" id="Layer_1" xmlns="http://www.w3.org/2000/svg" xmlns:xlink="http://www.w3.org/1999/xlink" x="0px" y="0px"
	 viewBox="-213.3 518.7 59.6 42.2" style="enable-background:new -213.3 518.7 59.6 42.2;" xml:space="preserve">
<g id="icomoon-ignore">
</g>
<path d="M-183.5,518.7c11,0,18,0.3,21,0.8c3.7,0.7,6.1,2.2,7.2,4.4c1,1.9,1.5,5.9,1.6,11.9v4c0,7.2-0.3,11.9-0.8,13.9
	c-0.7,2.8-2.4,4.6-5,5.6c-2.7,1-8.3,1.5-17,1.6h-7c-11,0-18-0.3-21-0.8c-3.7-0.7-6.1-2.2-7.2-4.4c-1-1.9-1.5-5.9-1.6-11.9v-4
	c0-7.2,0.3-11.9,0.8-13.9c0.7-2.8,2.4-4.6,5-5.6c2.7-1,8.3-1.5,17-1.6H-183.5L-183.5,518.7z M-191,551l18.6-11.2l-18.6-11.2V551
	L-191,551z"/>
</svg>
