<svg width="35px" height="50px" viewBox="0 0 35 50" version="1.1" xmlns="http://www.w3.org/2000/svg" xmlns:xlink="http://www.w3.org/1999/xlink" xmlns:sketch="http://www.bohemiancoding.com/sketch/ns">
    <g id="-Blog" stroke="none" stroke-width="1" fill="none" fill-rule="evenodd" sketch:type="MSPage">
        <g id="Taxonomy-view" sketch:type="MSArtboardGroup" transform="translate(-104.000000, -1511.000000)" stroke="#89D1F9" stroke-width="1.5" stroke-linecap="round" stroke-linejoin="round">
            <g id="Group" sketch:type="MSLayerGroup" transform="translate(105.000000, 1512.000000)">
                <path d="M7.84615385,2.48275862 C7.84615385,1.65517241 8.71794872,0 11.3333333,0 C13.9487179,0 14.8205128,1.65517241 14.8205128,2.48275862 L14.8205128,18.2068966" id="Stroke-1" sketch:type="MSShapeGroup"></path>
                <path d="M14.8205128,18.2068966 C14.8205128,20.4918621 12.8676923,22.3448276 10.4615385,22.3448276 C8.05364103,22.3448276 6.1025641,20.4918621 6.1025641,18.2068966 L6.1025641,10.7586207" id="Stroke-3" sketch:type="MSShapeGroup"></path>
                <path d="M33.1639487,36.4137931 L33.1639487,4.13793103 C33.1639487,3.31034483 32.7245641,3.31034483 32.2293846,3.31034483 L0.866564103,3.31034483 C0.387948718,3.31034483 0,3.67862069 0,4.13296552 L0,47.1773793 C0,47.6317241 0.387948718,48 0.866564103,48 L20.9230769,48" id="Stroke-5" sketch:type="MSShapeGroup"></path>
                <path d="M33.1282051,36.4137931 L20.9230769,36.4137931 L20.9230769,48 L33.1282051,36.4137931 L33.1282051,36.4137931 Z" id="Stroke-7" sketch:type="MSShapeGroup"></path>
            </g>
        </g>
    </g>
</svg>
