<svg width="12px" height="13px" viewBox="0 0 12 13" version="1.1" xmlns="http://www.w3.org/2000/svg" xmlns:xlink="http://www.w3.org/1999/xlink" xmlns:sketch="http://www.bohemiancoding.com/sketch/ns" class="icon">
    <title>icon-linkedin</title>
    <path d="M0.16,4.513 L2.559,4.513 L2.559,12.22 L0.16,12.22 L0.16,4.513 Z M1.36,0.681 C2.127,0.681 2.749,1.304 2.749,2.07 C2.749,2.836 2.127,3.459 1.36,3.459 C0.591,3.459 -0.03,2.836 -0.03,2.07 C-0.03,1.304 0.591,0.681 1.36,0.681 L1.36,0.681 Z"></path>
    <path d="M4.063,4.513 L6.36,4.513 L6.36,5.566 L6.393,5.566 C6.712,4.96 7.495,4.321 8.661,4.321 C11.086,4.321 11.535,5.917 11.535,7.992 L11.535,12.22 L9.14,12.22 L9.14,8.473 C9.14,7.578 9.122,6.428 7.894,6.428 C6.647,6.428 6.457,7.402 6.457,8.406 L6.457,12.22 L4.063,12.22 L4.063,4.513"></path>
</svg>
