<?xml version="1.0" encoding="utf-8"?>
<!-- Generator: Adobe Illustrator 19.1.0, SVG Export Plug-In . SVG Version: 6.00 Build 0)  -->
<svg version="1.1" id="Layer_1" xmlns="http://www.w3.org/2000/svg" xmlns:xlink="http://www.w3.org/1999/xlink" x="0px" y="0px"
	 viewBox="-468 267.9 23.3 20.1" style="enable-background:new -468 267.9 23.3 20.1;" xml:space="preserve">
<path d="M-444.7,271.8v1h-3.9v3.9h-1v-3.9h-3.9v-1h3.9v-3.9h1v3.9H-444.7z M-457.9,279.7c0.8,0.6,1.3,1.2,1.7,1.8
	c0.3,0.6,0.5,1.3,0.5,2.2c0,1.2-0.5,2.2-1.6,3.1c-1.1,0.9-2.5,1.3-4.4,1.3c-1.7,0-3.2-0.3-4.4-1s-1.8-1.5-1.8-2.6
	c0-1.1,0.6-2.2,1.8-3.1s2.6-1.3,4.2-1.3h1c-0.5-0.5-0.8-1.1-0.8-1.7c0-0.4,0.1-0.8,0.3-1.2c-0.1,0-0.3,0-0.6,0
	c-1.4,0-2.5-0.4-3.3-1.3s-1.3-1.9-1.3-3.2c0-1.2,0.5-2.2,1.6-3.1s2.3-1.3,3.7-1.3h6.1l-1.4,1h-1.9c0.6,0.2,1.1,0.7,1.5,1.3
	c0.3,0.6,0.5,1.4,0.5,2.2c0,1.2-0.6,2.3-1.7,3.2c-0.5,0.4-0.8,0.7-0.9,0.9c-0.1,0.2-0.2,0.5-0.2,0.8c0,0.3,0.2,0.6,0.5,1
	C-458.6,279.2-458.3,279.5-457.9,279.7L-457.9,279.7z M-461.2,276.7c0.8,0,1.4-0.3,1.9-1c0.5-0.7,0.6-1.6,0.5-2.6
	c-0.1-1-0.5-1.9-1.2-2.6s-1.4-1.1-2.2-1.1c-0.8,0-1.4,0.3-1.9,1c-0.4,0.7-0.6,1.6-0.5,2.6c0.1,1,0.5,1.9,1.2,2.7
	C-462.7,276.2-461.9,276.6-461.2,276.7L-461.2,276.7z M-461.8,287.1c2.9,0,4.4-1.1,4.4-3.2c0-0.1,0-0.3-0.1-0.6
	c0-0.1-0.1-0.3-0.1-0.4c-0.1-0.1-0.1-0.2-0.2-0.4s-0.2-0.2-0.3-0.3c-0.1-0.1-0.2-0.2-0.4-0.3c-0.2-0.1-0.3-0.2-0.4-0.3
	c-0.1-0.1-0.3-0.2-0.5-0.4c-0.2-0.2-0.4-0.3-0.5-0.3c-0.4-0.1-1-0.2-1.5-0.2c-1.2,0-2.2,0.3-3.1,0.9s-1.3,1.4-1.3,2.2
	c0,0.9,0.4,1.7,1.1,2.3S-462.9,287.1-461.8,287.1L-461.8,287.1z"/>
</svg>
