<?xml version="1.0" encoding="UTF-8" standalone="no"?>
<svg width="60px" height="60px" viewBox="0 0 60 60" version="1.1" xmlns="http://www.w3.org/2000/svg" xmlns:xlink="http://www.w3.org/1999/xlink" xmlns:sketch="http://www.bohemiancoding.com/sketch/ns">
    <!-- Generator: Sketch 3.5.2 (25235) - http://www.bohemiancoding.com/sketch -->
    <title>Group</title>
    <desc>Created with Sketch.</desc>
    <defs></defs>
    <g id="-Blog" stroke="none" stroke-width="1" fill="none" fill-rule="evenodd" sketch:type="MSPage">
        <g id="Taxonomy-view" sketch:type="MSArtboardGroup" transform="translate(-89.000000, -1361.000000)" stroke="#EC68FA" stroke-width="1.5" stroke-linecap="round" stroke-linejoin="round">
            <g id="Group" sketch:type="MSLayerGroup" transform="translate(90.000000, 1362.000000)">
                <path d="M48,19 C48,8.508 39.495,0 29,0 C18.509,0 10,8.508 10,19 C10,29.493 18.509,38 29,38 C39.495,38 48,29.493 48,19 L48,19 Z" id="Stroke-1" sketch:type="MSShapeGroup"></path>
                <path d="M46.2715,28.0146 L58.0005,47.9996 L45.7615,45.9996 L41.2565,57.9996 L30.0805,38.6446" id="Stroke-3" sketch:type="MSShapeGroup"></path>
                <path d="M11.7246,28.0234 L-0.000400000001,48.0004 L11.9996,46.0004 L16.7476,58.0004 L27.9236,38.6364" id="Stroke-5" sketch:type="MSShapeGroup"></path>
                <path d="M29.7204863,25.1487163 C29.3439734,24.8896831 28.7286492,24.8896831 28.3521362,25.1487163 L21.3351291,29.9490156 C20.9586161,30.2061229 20.753508,30.0587917 20.8777284,29.6196871 L22.9962156,22.1289092 C23.1213989,21.6907675 22.9615494,21.0648509 22.6408875,20.7393742 L17.1838572,15.187012 C16.8631953,14.8615354 16.9729715,14.5610954 17.4274832,14.5196886 L24.6495985,13.8446616 C25.1031473,13.8013289 25.6231396,13.423853 25.8051369,13.0068962 L28.7065013,6.3134398 C28.8884986,5.89552007 29.1850868,5.89552007 29.3651582,6.3134398 L32.2694115,13.0068962 C32.4494829,13.423853 32.9714011,13.8013289 33.42495,13.8446616 L40.6470652,14.5177627 C41.101577,14.5610954 41.2113531,14.8615354 40.8906912,15.187012 L35.4336609,20.7393742 C35.112999,21.0648509 34.9531495,21.6907675 35.0783329,22.1289092 L37.19682,29.6196871 C37.3210404,30.0587917 37.1159323,30.2061229 36.7394194,29.9490156 L29.7204863,25.1487163 L29.7204863,25.1487163 Z" id="Page-1" sketch:type="MSShapeGroup"></path>
            </g>
        </g>
    </g>
</svg>