<svg width="13px" height="13px" viewBox="0 0 13 13" version="1.1" xmlns="http://www.w3.org/2000/svg" xmlns:xlink="http://www.w3.org/1999/xlink" xmlns:sketch="http://www.bohemiancoding.com/sketch/ns">
    <g id="-Homepage" stroke="none" stroke-width="1" fill="none" fill-rule="evenodd" sketch:type="MSPage">
        <g id="Homepage" sketch:type="MSArtboardGroup" transform="translate(-466.000000, -2639.000000)" fill="#FFFFFF">
            <g id="Grid-Widget" sketch:type="MSLayerGroup" transform="translate(0.000000, 1922.000000)">
                <g id="Post-#3" transform="translate(51.000000, 444.000000)" sketch:type="MSShapeGroup">
                    <g id="Comment-Icon" transform="translate(415.000000, 273.000000)">
                        <path d="M10.1664891,3.81616012 L10.1664891,2.53416883 L2.53416883,2.53416883 L2.53416883,3.81616012 L10.1664891,3.81616012 Z M10.1664891,5.72424018 L10.1664891,4.44224889 L2.53416883,4.44224889 L2.53416883,5.72424018 L10.1664891,5.72424018 Z M10.1664891,7.63232024 L10.1664891,6.35032895 L2.53416883,6.35032895 L2.53416883,7.63232024 L10.1664891,7.63232024 Z M12.7006579,1.25217754 L12.7006579,12.7006579 L10.1664891,10.1664891 L1.25217754,10.1664891 C0.914286708,10.1664891 0.621121083,10.0372968 0.372671887,9.7789103 C0.124222728,9.52052383 0,9.22238823 0,8.88449778 L0,1.25217754 C0,0.91428709 0.124222728,0.621120129 0.372671887,0.372670933 C0.621121083,0.124223644 0.914286708,0 1.25217754,0 L11.4484804,0 C11.7863708,0 12.0795378,0.124223644 12.327987,0.372670933 C12.5764343,0.621120129 12.7006579,0.91428709 12.7006579,1.25217754 L12.7006579,1.25217754 Z" id="Page-1"></path>
                    </g>
                </g>
            </g>
        </g>
    </g>
</svg>
