<?xml version="1.0" encoding="UTF-8" standalone="no"?>
<svg width="21px" height="21px" viewBox="0 0 21 21" version="1.1" xmlns="http://www.w3.org/2000/svg" xmlns:xlink="http://www.w3.org/1999/xlink" xmlns:sketch="http://www.bohemiancoding.com/sketch/ns">
    <!-- Generator: Sketch 3.5.1 (25234) - http://www.bohemiancoding.com/sketch -->
    <title>icon-world</title>
    <desc>Created with Sketch.</desc>
    <defs></defs>
    <g id="Homepage" stroke="none" stroke-width="1" fill="none" fill-rule="evenodd" sketch:type="MSPage">
        <g sketch:type="MSArtboardGroup" transform="translate(-1134.000000, -110.000000)" id="Header" fill="#FFFFFF">
            <g sketch:type="MSLayerGroup" transform="translate(-1.000000, 0.000000)">
                <g id="Worldwide-label" transform="translate(1135.000000, 109.000000)" sketch:type="MSShapeGroup">
                    <path d="M10.5,1 C13.3942458,1 15.8677777,2.02643154 17.9206731,4.07932692 C19.9735685,6.13222231 21,8.60575415 21,11.5 C21,14.3942458 19.9735685,16.8677777 17.9206731,18.9206731 C15.8677777,20.9735678 13.3942458,22 10.5,22 C7.60575415,22 5.13222231,20.9735678 3.07932692,18.9206731 C1.02643218,16.8677777 0,14.3942458 0,11.5 C0,8.60575415 1.02643218,6.13222231 3.07932692,4.07932692 C5.13222231,2.02643154 7.60575415,1 10.5,1 L10.5,1 Z M10.9038462,7.25961538 L10.9038462,11.0961538 L14.6899038,11.0961538 C14.6562489,9.54806938 14.4711549,8.13462077 14.1346154,6.85576923 C13.25961,7.05769231 12.1826977,7.19230877 10.9038462,7.25961538 L10.9038462,7.25961538 Z M10.9038462,6.45192308 C12.149046,6.38461646 13.1586485,6.25 13.9326923,6.04807692 C13.5961528,4.90384185 13.150242,3.96995569 12.5949535,3.24639262 C12.0396618,2.52283277 11.4759637,2.07692523 10.9038462,1.90865385 L10.9038462,6.45192308 Z M10.0961538,1.90865385 C8.88460892,2.21153846 7.87500323,3.59133538 7.06730769,6.04807692 C7.87500323,6.25 8.88460892,6.38461646 10.0961538,6.45192308 L10.0961538,1.90865385 Z M10.0961538,7.25961538 C8.78364738,7.19230877 7.68990923,7.05769231 6.81490385,6.85576923 C6.47836431,8.13462077 6.29327031,9.54806938 6.25961538,11.0961538 L10.0961538,11.0961538 L10.0961538,7.25961538 Z M5.45192308,11.0961538 C5.51922969,9.31249138 5.70432692,7.83173615 6.00721154,6.65384615 C5.03124462,6.38461323 4.038468,5.96394446 3.02884615,5.39182692 C1.68268542,7.007218 0.959135262,8.908642 0.858173077,11.0961538 L5.45192308,11.0961538 Z M5.45192308,11.9038462 L0.858173077,11.9038462 C0.959135262,14.091358 1.68268542,15.9927788 3.02884615,17.6081731 C4.17308123,17.0024006 5.16586108,16.5817318 6.00721154,16.3461538 C5.70432692,15.1682638 5.51922969,13.6875086 5.45192308,11.9038462 L5.45192308,11.9038462 Z M6.25961538,11.9038462 C6.29327031,13.4519306 6.47836431,14.8653792 6.81490385,16.1442308 C7.85817738,15.9086528 8.95191877,15.7572105 10.0961538,15.6899038 L10.0961538,11.9038462 L6.25961538,11.9038462 Z M10.0961538,16.5480769 C8.88460892,16.6153835 7.87500323,16.75 7.06730769,16.9519231 C7.87500323,19.4086662 8.88460892,20.7884599 10.0961538,21.0913462 L10.0961538,16.5480769 Z M10.9038462,21.0913462 C11.4759637,20.9230761 12.0396618,20.4771672 12.5949535,19.7536058 C13.150242,19.0300443 13.5961528,18.0961582 13.9326923,16.9519231 C13.1586485,16.75 12.149046,16.6153835 10.9038462,16.5480769 L10.9038462,21.0913462 Z M10.9038462,15.6899038 C11.9807746,15.7235588 13.0576869,15.8749978 14.1346154,16.1442308 C14.4711549,14.8653792 14.6562489,13.4519306 14.6899038,11.9038462 L10.9038462,11.9038462 L10.9038462,15.6899038 Z M15.5480769,11.9038462 C15.4807703,13.5528922 15.2788472,15.0336474 14.9423077,16.3461538 C15.8509648,16.6153868 16.8605705,17.0360555 17.9711538,17.6081731 C19.3173152,15.9927788 20.0408654,14.091358 20.1418269,11.9038462 L15.5480769,11.9038462 Z M15.5480769,11.0961538 L20.1418269,11.0961538 C20.0408654,8.908642 19.3173152,7.007218 17.9711538,5.39182692 C16.8269188,5.99759938 15.8341389,6.41826815 14.9927885,6.65384615 C15.2956731,7.83173615 15.4807703,9.31249138 15.5480769,11.0961538 L15.5480769,11.0961538 Z M17.3653846,4.73557692 C16.0192232,3.38941554 14.4879905,2.51442631 12.7716346,2.11057692 C13.5456785,2.91827246 14.201922,4.16345292 14.7403846,5.84615385 C15.6826966,5.54326923 16.5576891,5.173078 17.3653846,4.73557692 L17.3653846,4.73557692 Z M8.22836538,2.11057692 C6.44470292,2.51442631 4.91346692,3.38941554 3.63461538,4.73557692 C4.173078,5.03846154 5.04807046,5.39182369 6.25961538,5.79567308 C6.76442631,4.18027877 7.42066985,2.95192738 8.22836538,2.11057692 L8.22836538,2.11057692 Z M3.63461538,18.2644231 C4.98077677,19.6105838 6.51200954,20.485575 8.22836538,20.8894231 C7.38701492,20.0144187 6.71394554,18.7692388 6.20913462,17.1538462 C5.23316769,17.4903857 4.37500431,17.8605737 3.63461538,18.2644231 L3.63461538,18.2644231 Z M12.7716346,20.8894231 C14.4879905,20.485575 16.0192232,19.6105838 17.3653846,18.2644231 C16.5576891,17.826922 15.6826966,17.4567308 14.7403846,17.1538462 C14.201922,18.8365468 13.5456785,20.0817266 12.7716346,20.8894231 L12.7716346,20.8894231 Z" id="icon-world"></path>
                </g>
            </g>
        </g>
    </g>
</svg>