<svg xmlns:svg="http://www.w3.org/2000/svg" xmlns="http://www.w3.org/2000/svg" version="1.1" viewBox="0 0 100.00001 125" xml:space="preserve" x="0px" y="0px">
	<path d="m 27.0625,11.21875 c -0.433821,0 -0.874571,0.265271 -1.0625,0.65625 -0.187929,0.390979 -0.114123,0.879614 0.15625,1.21875 L 30,17.96875 72.75,17.90625 c 4.301487,-0.0036 6.276205,1.719953 3.6875,4.96875 -8.177252,10.262292 -24.53125,30.78125 -24.53125,30.78125 l 0,14.125 c 0,0.361817 0.177316,0.722929 0.46875,0.9375 l 14.40625,10.5625 c 0.343457,0.253812 0.837312,0.285999 1.21875,0.09375 0.381259,-0.192429 0.625,-0.604089 0.625,-1.03125 l 0,-32.78125 26.125,-32.46875 c 0.273073,-0.338236 0.343099,-0.826151 0.15625,-1.21875 -0.187029,-0.392418 -0.627779,-0.65499 -1.0625,-0.65625 l -66.78125,0 z M 6.03125,20.5 A 1.160861,1.160861 0 0 0 5.25,22.375 L 31,54.84375 31,77.0625 A 1.160861,1.160861 0 0 0 31.46875,78 l 14.4375,10.5625 A 1.160861,1.160861 0 0 0 47.75,87.625 l 0,-32.78125 L 73.84375,22.375 A 1.160861,1.160861 0 0 0 72.9375,20.5 l -66.78125,0 a 1.160861,1.160861 0 0 0 -0.125,0 z" transform="translate(0,-5e-6)" style="text-indent:0;text-transform:none;direction:ltr;block-progression:tb;baseline-shift:baseline;color:#000000;enable-background:accumulate;" fill="#000000" fill-opacity="1" stroke="none" marker="none" visibility="visible" display="inline" overflow="visible"/>
</svg>
