<svg width="50px" height="46px" viewBox="0 0 50 46" version="1.1" xmlns="http://www.w3.org/2000/svg" xmlns:xlink="http://www.w3.org/1999/xlink" xmlns:sketch="http://www.bohemiancoding.com/sketch/ns">
    <g id="-Blog" stroke="none" stroke-width="1" fill="none" fill-rule="evenodd" sketch:type="MSPage">
        <g id="Taxonomy-view" sketch:type="MSArtboardGroup" transform="translate(-95.000000, -633.000000)" stroke="#FB6045" stroke-width="1.5" stroke-linecap="round" stroke-linejoin="round">
            <g id="Group" sketch:type="MSLayerGroup" transform="translate(96.000000, 634.000000)">
                <path d="M9.93103448,33.8461538 L1.65517241,33.8461538 C0.744827586,33.8461538 0,33.0846154 0,32.1538462 L0,1.69230769 C0,0.761538462 0.744827586,0 1.65517241,0 L46.3448276,0 C47.2551724,0 48,0.761538462 48,1.69230769 L48,32.1538462 C48,33.0846154 47.2551724,33.8461538 46.3448276,33.8461538 L18.2068966,33.8461538" id="Stroke-1" sketch:type="MSShapeGroup"></path>
                <path d="M9.10344828,10 L38.8965517,10" id="Stroke-3" sketch:type="MSShapeGroup"></path>
                <path d="M9.10344828,16 L38.8965517,16" id="Stroke-5" sketch:type="MSShapeGroup"></path>
                <path d="M9.10344828,23 L28.9655172,23" id="Stroke-7" sketch:type="MSShapeGroup"></path>
                <path d="M18.2068966,33.8461538 L9.93103448,44 L9.93103448,33.8461538" id="Stroke-9" sketch:type="MSShapeGroup"></path>
            </g>
        </g>
    </g>
</svg>
