<svg width="32px" height="36px" viewBox="0 0 32 36" version="1.1" xmlns="http://www.w3.org/2000/svg" xmlns:xlink="http://www.w3.org/1999/xlink" xmlns:sketch="http://www.bohemiancoding.com/sketch/ns">
    <g id="-Resources" stroke="none" stroke-width="1" fill="none" fill-rule="evenodd" sketch:type="MSPage">
        <g id="Resources-Overview" sketch:type="MSArtboardGroup" transform="translate(-440.000000, -1412.000000)" fill="#FFFFFF">
            <g id="Group" sketch:type="MSLayerGroup" transform="translate(50.000000, 1376.000000)">
                <path d="M418.952381,72 C418.934095,72 418.918857,71.991 418.901333,71.99025 C418.88381,71.991 418.868571,72 418.850286,72 L393.149714,72 C393.137524,72 393.127619,71.994 393.115429,71.99325 C393.092571,71.994 393.070476,72 393.047619,72 C391.366857,72 390,70.6545 390,69 C390,68.991 390.004571,68.98425 390.005333,68.97525 C390.004571,68.96625 390,68.9595 390,68.9505 L390,45.95025 C390,45.91425 390.015238,45.88425 390.020571,45.8505 C390.015238,45.816 390,45.786 390,45.75075 C390,45.33525 390.341333,45 390.761905,45 L394.571429,45 L394.571429,36.75 C394.571429,36.33525 394.912762,36 395.333333,36 L421.238095,36 C421.658667,36 422,36.33525 422,36.75 L422,69 C422,70.6545 420.632381,72 418.952381,72 L418.952381,72 Z M394.571429,46.5 L391.52381,46.5 L391.52381,68.9505 C391.52381,68.9595 391.519238,68.96625 391.518476,68.97525 C391.519238,68.98425 391.52381,68.991 391.52381,69 C391.52381,69.8265 392.207238,70.5 393.047619,70.5 C393.888,70.5 394.571429,69.8265 394.571429,69 L394.571429,46.5 L394.571429,46.5 Z M420.47619,37.5 L396.095238,37.5 L396.095238,69 C396.095238,69.549 395.933714,70.05675 395.671619,70.5 L418.850286,70.5 C418.868571,70.5 418.88381,70.509 418.901333,70.50975 C418.918857,70.509 418.934095,70.5 418.952381,70.5 C419.792762,70.5 420.47619,69.8265 420.47619,69 L420.47619,37.5 L420.47619,37.5 Z M416.666667,61.5 L399.904762,61.5 C399.48419,61.5 399.142857,61.16475 399.142857,60.75 C399.142857,60.33525 399.48419,60 399.904762,60 L416.666667,60 C417.087238,60 417.428571,60.33525 417.428571,60.75 C417.428571,61.16475 417.087238,61.5 416.666667,61.5 L416.666667,61.5 Z M416.666667,57 L399.904762,57 C399.48419,57 399.142857,56.66475 399.142857,56.24925 C399.142857,55.83525 399.48419,55.5 399.904762,55.5 L416.666667,55.5 C417.087238,55.5 417.428571,55.83525 417.428571,56.24925 C417.428571,56.66475 417.087238,57 416.666667,57 L416.666667,57 Z M416.666667,52.5 L399.904762,52.5 C399.48419,52.5 399.142857,52.16475 399.142857,51.75 C399.142857,51.33525 399.48419,51.00075 399.904762,51.00075 L416.666667,51.00075 C417.087238,51.00075 417.428571,51.33525 417.428571,51.75 C417.428571,52.16475 417.087238,52.5 416.666667,52.5 L416.666667,52.5 Z M409.047619,46.5 L399.904762,46.5 C399.48419,46.5 399.142857,46.16475 399.142857,45.75075 C399.142857,45.33525 399.48419,45 399.904762,45 L409.047619,45 C409.46819,45 409.809524,45.33525 409.809524,45.75075 C409.809524,46.16475 409.46819,46.5 409.047619,46.5 L409.047619,46.5 Z" id="Shape" sketch:type="MSShapeGroup"></path>
            </g>
        </g>
    </g>
</svg>
