<?xml version="1.0" encoding="UTF-8" standalone="no"?>
<svg width="48px" height="47px" viewBox="0 0 48 47" version="1.1" xmlns="http://www.w3.org/2000/svg" xmlns:xlink="http://www.w3.org/1999/xlink" xmlns:sketch="http://www.bohemiancoding.com/sketch/ns">
    <!-- Generator: Sketch 3.5.1 (25234) - http://www.bohemiancoding.com/sketch -->
    <title>Shape</title>
    <desc>Created with Sketch.</desc>
    <defs></defs>
    <g id="-Resources" stroke="none" stroke-width="1" fill="none" fill-rule="evenodd" sketch:type="MSPage">
        <g id="02---Resources-Open-Filter" sketch:type="MSArtboardGroup" transform="translate(-910.000000, -1106.000000)" fill-opacity="0.4" fill="#FFFFFF">
            <g id="Resource-Card-2" sketch:type="MSLayerGroup" transform="translate(521.000000, 1032.000000)">
                <g id="book-3" transform="translate(389.000000, 74.000000)" sketch:type="MSShapeGroup">
                    <path d="M45.692,43.5290941 L24.154,46.8930941 C24.103,46.9010941 24.053,46.9050941 24.004,46.9050941 L24.001,46.9050941 C24.001,46.9050941 24.001,46.9050941 24,46.9050941 L24,46.9050941 L24,46.9050941 L23.998,46.9050941 L23.997,46.9050941 C23.947,46.9050941 23.897,46.9010941 23.846,46.8930941 L2.349,43.5360941 C1.014,43.2710941 0,42.0310941 0,40.7060941 L0,2.26809407 C0,1.56309407 0.294,0.917094066 0.808,0.496094066 C1.321,0.0730940664 2.013,-0.0889059336 2.7,0.0500940664 L24,3.77209407 L45.325,0.0450940664 C45.989,-0.0869059336 46.679,0.0730940664 47.192,0.496094066 C47.706,0.917094066 48,1.56309407 48,2.26809407 L48,40.7060941 C48,42.0310941 46.986,43.2710941 45.692,43.5290941 L45.692,43.5290941 Z M23,5.63309407 L2.331,2.02109407 C2.207,1.99709407 2.124,2.00709407 2.075,2.04609407 C2.027,2.08709407 2,2.16609407 2,2.26809407 L2,40.7060941 C2,41.0740941 2.339,41.4900941 2.698,41.5620941 L23,44.7310941 L23,5.63309407 L23,5.63309407 Z M46,2.26809407 C46,2.16609407 45.973,2.08709407 45.925,2.04609407 C45.876,2.00809407 45.796,1.99509407 45.694,2.01609407 L25,5.63309407 L25,44.7310941 L45.343,41.5540941 C45.661,41.4900941 46,41.0740941 46,40.7060941 L46,2.26809407 L46,2.26809407 Z M40.196,33.8500941 L30.196,35.8550941 C30.13,35.8690941 30.064,35.8740941 29.999,35.8740941 C29.532,35.8740941 29.114,35.5460941 29.019,35.0690941 C28.911,34.5260941 29.262,33.9970941 29.804,33.8890941 L39.804,31.8830941 C40.348,31.7720941 40.873,32.1260941 40.98,32.6690941 C41.089,33.2130941 40.738,33.7410941 40.196,33.8500941 L40.196,33.8500941 Z M40.196,23.8230941 L30.196,25.8280941 C30.13,25.8420941 30.064,25.8470941 29.999,25.8470941 C29.532,25.8470941 29.114,25.5180941 29.019,25.0410941 C28.911,24.4970941 29.262,23.9700941 29.804,23.8610941 L39.804,21.8560941 C40.348,21.7410941 40.873,22.0990941 40.98,22.6420941 C41.089,23.1860941 40.738,23.7140941 40.196,23.8230941 L40.196,23.8230941 Z M40.196,12.7920941 L30.196,14.7980941 C30.13,14.8110941 30.064,14.8170941 29.999,14.8170941 C29.532,14.8170941 29.114,14.4880941 29.019,14.0110941 C28.911,13.4680941 29.262,12.9400941 29.804,12.8310941 L39.804,10.8260941 C40.348,10.7160941 40.873,11.0690941 40.98,11.6130941 C41.089,12.1560941 40.738,12.6840941 40.196,12.7920941 L40.196,12.7920941 Z M8.196,10.8260941 L18.196,12.8310941 C18.738,12.9400941 19.089,13.4680941 18.98,14.0110941 C18.886,14.4880941 18.468,14.8170941 18.001,14.8170941 C17.936,14.8170941 17.87,14.8110941 17.804,14.7980941 L7.804,12.7920941 C7.262,12.6840941 6.911,12.1560941 7.019,11.6130941 C7.127,11.0690941 7.652,10.7160941 8.196,10.8260941 L8.196,10.8260941 Z M8.196,21.8560941 L18.196,23.8610941 C18.738,23.9700941 19.089,24.4970941 18.98,25.0410941 C18.886,25.5180941 18.468,25.8470941 18.001,25.8470941 C17.936,25.8470941 17.87,25.8420941 17.804,25.8280941 L7.804,23.8230941 C7.262,23.7140941 6.911,23.1860941 7.019,22.6420941 C7.127,22.0990941 7.652,21.7410941 8.196,21.8560941 L8.196,21.8560941 Z M8.196,31.8830941 L18.196,33.8890941 C18.738,33.9970941 19.089,34.5260941 18.98,35.0690941 C18.886,35.5460941 18.468,35.8740941 18.001,35.8740941 C17.936,35.8740941 17.87,35.8690941 17.804,35.8550941 L7.804,33.8500941 C7.262,33.7410941 6.911,33.2130941 7.019,32.6690941 C7.127,32.1260941 7.652,31.7720941 8.196,31.8830941 L8.196,31.8830941 Z" id="Shape"></path>
                </g>
            </g>
        </g>
    </g>
</svg>