<svg width="22px" height="19px" viewBox="0 0 22 19" version="1.1" xmlns="http://www.w3.org/2000/svg" xmlns:xlink="http://www.w3.org/1999/xlink" xmlns:sketch="http://www.bohemiancoding.com/sketch/ns">
    <g id="-Resources" stroke="none" stroke-width="1" fill="none" fill-rule="evenodd" sketch:type="MSPage">
        <g id="Slide-out-menu---Resources-Overview" sketch:type="MSArtboardGroup" transform="translate(-1307.000000, -641.000000)" stroke-linecap="round" stroke="#4D4D53" stroke-linejoin="round">
            <g id="Page-1" sketch:type="MSLayerGroup" transform="translate(1308.000000, 642.000000)">
                <path d="M15.362069,14.6637931 C18.024944,14.3338578 20.25,12.0494483 20.25,9.33140948 C20.25,6.38538362 17.8332672,3.99867672 14.8498836,3.99867672 C14.7353664,3.99867672 14.6201509,4.00565948 14.5063319,4.01787931 C13.6757328,1.67900431 11.4272845,0 8.77488362,0 C5.42106466,0 2.70023276,2.68521983 2.70023276,5.99818966 C2.70023276,6.29809914 2.72746552,6.58439224 2.77459914,6.87173276 C1.16123276,7.39753448 0,8.89743103 0,10.6637198 C0,12.8695733 1.81656466,14.6637931 4.05,14.6637931 L4.88793103,14.6637931" id="Stroke-1" sketch:type="MSShapeGroup"></path>
                <path d="M10.125,9.77586207 L10.125,17.4568966" id="Stroke-3" sketch:type="MSShapeGroup"></path>
                <path d="M12.9181034,14.6637931 L10.125,17.4568966 L7.33189655,14.6637931" id="Stroke-5" sketch:type="MSShapeGroup"></path>
            </g>
        </g>
    </g>
</svg>
