<?xml version="1.0" encoding="UTF-8" standalone="no"?>
<svg width="48px" height="47px" viewBox="0 0 48 47" version="1.1" xmlns="http://www.w3.org/2000/svg" xmlns:xlink="http://www.w3.org/1999/xlink" xmlns:sketch="http://www.bohemiancoding.com/sketch/ns">
    <!-- Generator: Sketch 3.4.4 (17248) - http://www.bohemiancoding.com/sketch -->
    <title>Shape Copy</title>
    <desc>Created with Sketch.</desc>
    <defs></defs>
    <g id="-Resources" stroke="none" stroke-width="1" fill="none" fill-rule="evenodd" sketch:type="MSPage">
        <g id="Resources-Single" sketch:type="MSArtboardGroup" transform="translate(-1027.000000, -103.000000)" fill="#23b2a7">
            <g id="Overlay" sketch:type="MSLayerGroup" transform="translate(980.000000, 0.000000)">
                <path d="M92.692,146.624 L71.154,149.988 C71.103,149.996 71.053,150 71.004,150 L71.001,150 C71.001,150 71.001,150 71,150 L71,150 L71,150 L70.998,150 L70.997,150 C70.947,150 70.897,149.996 70.846,149.988 L49.349,146.631 C48.014,146.366 47,145.126 47,143.801 L47,105.363 C47,104.658 47.294,104.012 47.808,103.591 C48.321,103.168 49.013,103.006 49.7,103.145 L71,106.867 L92.325,103.14 C92.989,103.008 93.679,103.168 94.192,103.591 C94.706,104.012 95,104.658 95,105.363 L95,143.801 C95,145.126 93.986,146.366 92.692,146.624 L92.692,146.624 Z M70,108.728 L49.331,105.116 C49.207,105.092 49.124,105.102 49.075,105.141 C49.027,105.182 49,105.261 49,105.363 L49,143.801 C49,144.169 49.339,144.585 49.698,144.657 L70,147.826 L70,108.728 L70,108.728 Z M93,105.363 C93,105.261 92.973,105.182 92.925,105.141 C92.876,105.103 92.796,105.09 92.694,105.111 L72,108.728 L72,147.826 L92.343,144.649 C92.661,144.585 93,144.169 93,143.801 L93,105.363 L93,105.363 Z M87.196,136.945 L77.196,138.95 C77.13,138.964 77.064,138.969 76.999,138.969 C76.532,138.969 76.114,138.641 76.019,138.164 C75.911,137.621 76.262,137.092 76.804,136.984 L86.804,134.978 C87.348,134.867 87.873,135.221 87.98,135.764 C88.089,136.308 87.738,136.836 87.196,136.945 L87.196,136.945 Z M87.196,126.918 L77.196,128.923 C77.13,128.937 77.064,128.942 76.999,128.942 C76.532,128.942 76.114,128.613 76.019,128.136 C75.911,127.592 76.262,127.065 76.804,126.956 L86.804,124.951 C87.348,124.836 87.873,125.194 87.98,125.737 C88.089,126.281 87.738,126.809 87.196,126.918 L87.196,126.918 Z M87.196,115.887 L77.196,117.893 C77.13,117.906 77.064,117.912 76.999,117.912 C76.532,117.912 76.114,117.583 76.019,117.106 C75.911,116.563 76.262,116.035 76.804,115.926 L86.804,113.921 C87.348,113.811 87.873,114.164 87.98,114.708 C88.089,115.251 87.738,115.779 87.196,115.887 L87.196,115.887 Z M55.196,113.921 L65.196,115.926 C65.738,116.035 66.089,116.563 65.98,117.106 C65.886,117.583 65.468,117.912 65.001,117.912 C64.936,117.912 64.87,117.906 64.804,117.893 L54.804,115.887 C54.262,115.779 53.911,115.251 54.019,114.708 C54.127,114.164 54.652,113.811 55.196,113.921 L55.196,113.921 Z M55.196,124.951 L65.196,126.956 C65.738,127.065 66.089,127.592 65.98,128.136 C65.886,128.613 65.468,128.942 65.001,128.942 C64.936,128.942 64.87,128.937 64.804,128.923 L54.804,126.918 C54.262,126.809 53.911,126.281 54.019,125.737 C54.127,125.194 54.652,124.836 55.196,124.951 L55.196,124.951 Z M55.196,134.978 L65.196,136.984 C65.738,137.092 66.089,137.621 65.98,138.164 C65.886,138.641 65.468,138.969 65.001,138.969 C64.936,138.969 64.87,138.964 64.804,138.95 L54.804,136.945 C54.262,136.836 53.911,136.308 54.019,135.764 C54.127,135.221 54.652,134.867 55.196,134.978 L55.196,134.978 Z" id="Shape-Copy" sketch:type="MSShapeGroup"></path>
            </g>
        </g>
    </g>
</svg>
