<?xml version="1.0" encoding="UTF-8" standalone="no"?>
<svg width="18px" height="21px" viewBox="0 0 18 21" version="1.1" xmlns="http://www.w3.org/2000/svg" xmlns:xlink="http://www.w3.org/1999/xlink" xmlns:sketch="http://www.bohemiancoding.com/sketch/ns">
    <!-- Generator: Sketch 3.5.1 (25234) - http://www.bohemiancoding.com/sketch -->
    <title>icon-data</title>
    <desc>Created with Sketch.</desc>
    <defs></defs>
    <g id="Page-1" stroke="none" stroke-width="1" fill="none" fill-rule="evenodd" sketch:type="MSPage">
        <path d="M8.99999869,8.99999869 C10.8515713,8.99999869 12.5820237,8.83203282 14.191406,8.4960932 C15.8007882,8.16015358 17.0703064,7.66406534 18,7.00781273 L18,8.99999869 C18,9.53906605 17.597661,10.0390603 16.7929673,10.4999998 C15.9882762,10.9609393 14.8945384,11.3261713 13.5117173,11.5957036 C12.1288989,11.865236 10.6250075,12.0000009 8.99999869,12.0000009 C7.37499247,12.0000009 5.87110113,11.865236 4.48828003,11.5957036 C3.10546156,11.3261713 2.01172278,10.9609393 1.20703115,10.4999998 C0.402339779,10.0390603 0,9.53906605 0,8.99999869 L0,7.00781273 C0.929692031,7.66406534 2.19921078,8.16015358 3.80859405,8.4960932 C5.41797626,8.83203282 7.14842873,8.99999869 8.99999869,8.99999869 L8.99999869,8.99999869 Z M8.99999869,18 C10.8515713,18 12.5820237,17.8320315 14.191406,17.4960945 C15.8007882,17.1601549 17.0703064,16.6640667 18,16.0078114 L18,18 C18,18.5390647 17.597661,19.0390598 16.7929673,19.4999995 C15.9882762,19.9609393 14.8945384,20.3261702 13.5117173,20.5957026 C12.1288989,20.8652353 10.6250075,20.9999996 8.99999869,20.9999996 C7.37499247,20.9999996 5.87110113,20.8652353 4.48828003,20.5957026 C3.10546156,20.3261702 2.01172278,19.9609393 1.20703115,19.4999995 C0.402339779,19.0390598 0,18.5390647 0,18 L0,16.0078114 C0.929692031,16.6640667 2.19921078,17.1601549 3.80859405,17.4960945 C5.41797626,17.8320315 7.14842873,18 8.99999869,18 L8.99999869,18 Z M8.99999869,13.4999993 C10.8515713,13.4999993 12.5820237,13.3320335 14.191406,12.9960939 C15.8007882,12.6601542 17.0703064,12.164066 18,11.5078134 L18,13.4999993 C18,14.0390641 17.597661,14.5390609 16.7929673,15.0000004 C15.9882762,15.4609399 14.8945384,15.8261693 13.5117173,16.0957017 C12.1288989,16.3652367 10.6250075,16.4999989 8.99999869,16.4999989 C7.37499247,16.4999989 5.87110113,16.3652367 4.48828003,16.0957017 C3.10546156,15.8261693 2.01172278,15.4609399 1.20703115,15.0000004 C0.402339779,14.5390609 0,14.0390641 0,13.4999993 L0,11.5078134 C0.929692031,12.164066 2.19921078,12.6601542 3.80859405,12.9960939 C5.41797626,13.3320335 7.14842873,13.4999993 8.99999869,13.4999993 L8.99999869,13.4999993 Z M8.99999869,0 C10.6250075,0 12.1288989,0.134764872 13.5117173,0.404297242 C14.8945384,0.673829611 15.9882762,1.03905898 16.7929673,1.50000109 C17.597661,1.96094058 18,2.46093482 18,2.99999956 L18,4.50000066 C18,5.0390654 17.597661,5.53905963 16.7929673,5.99999913 C15.9882762,6.46093862 14.8945384,6.82617061 13.5117173,7.09570298 C12.1288989,7.36523535 10.6250075,7.50000022 8.99999869,7.50000022 C7.37499247,7.50000022 5.87110113,7.36523535 4.48828003,7.09570298 C3.10546156,6.82617061 2.01172278,6.46093862 1.20703115,5.99999913 C0.402339779,5.53905963 0,5.0390654 0,4.50000066 L0,2.99999956 C0,2.46093482 0.402339779,1.96094058 1.20703115,1.50000109 C2.01172278,1.03905898 3.10546156,0.673829611 4.48828003,0.404297242 C5.87110113,0.134764872 7.37499247,0 8.99999869,0 L8.99999869,0 Z" id="Data-Standard-Icon" fill="#FFFFFF" sketch:type="MSShapeGroup"></path>
    </g>
</svg>