<svg width="482" height="38" viewBox="0 0 482 38" xmlns="http://www.w3.org/2000/svg"><g fill="none" fill-rule="evenodd"><path d="M33.5676745 4.2268759L25.2159956.13868614 7.952346 7.07271533l7.9383941 5.81094887-15.8906569 7.780292 16.919708 17.3357664 16.6478833-12.1821898 16.6478832 12.1821898 16.9194306-17.3357664-15.8903795-7.780292 7.9383941-5.81094887L41.9165796.13868613 33.5676745 4.2268759z" fill="#D9E021"/><path d="M25.2158847.13835328L7.95223504 7.07265986l7.93867156 5.81094895 17.6766569-8.65678836L25.2158847.13835328z" fill="#B9C504"/><path d="M33.5676745 25.8175606l16.6478832 12.1821898 16.9194306-17.3357665-15.8903795-7.7802919-17.6769343 12.9338686z" fill="#D9E021"/><path d="M51.2445255 12.8837197L33.5675912 25.8175883V4.2269314l17.6769343 8.6567883z" fill="#B9C504"/><path d="M33.5675912 4.2269314v21.5906569L15.8906569 12.8837197l17.6769343-8.6567883z" fill="#9DAD01"/><path d="M0 20.6638453l16.919708 17.3360438 16.6478832-12.1821898L15.8906569 12.884108 0 20.6638453zM41.9164686.13835328l-8.3489051 4.08846716 17.6769343 8.65678836 7.9383942-5.81094895L41.9164686.1383533z" fill="#D9E021"/><path d="M90.5964934 23.9963898c4.1281314 0 6.7934015-3.3154307 6.7934015-7.4271971 0-4.1769489-2.6652701-7.49237956-6.7934015-7.49237956-4.0956788 0-6.7773138 3.31543066-6.7773138 7.49237956 0 4.1117664 2.681635 7.4271971 6.7773138 7.4271971m0-17.11359126c6.0134307 0 9.6863946 4.29067156 9.6863946 9.68639416 0 5.3793577-3.6729639 9.6536642-9.6863946 9.6536642-6.0134306 0-9.6539416-4.2579416-9.6539416-9.6536642 0-5.4284526 3.6568759-9.68639416 9.6539416-9.68639416M115.421588 19.3319869c0-2.6491825-1.625124-4.6970219-4.323124-4.6970219-2.437825 0-4.306759 1.641489-4.355576 3.819416-.016365.0324526-.016365 1.9177518-.016365 1.9502044.130087 2.177927 1.852846 3.721781 4.258219 3.721781 2.82781 0 4.436846-1.9665693 4.436846-4.7943795zm-13.538262 10.547635h2.486642V14.7814175h-2.291372v-1.9502044h4.745562s.064905 1.7224818.08127 1.7224818c1.202686-1.2836788 2.795357-1.9502044 4.550569-1.9502044 4.046861 0 6.484686 3.0391679 6.484686 6.8097664 0 3.7217811-2.567912 6.8097665-6.517138 6.8097665-1.755212 0-3.429154-.6013431-4.648205-1.7227592 0 .3736205.016365 5.3793577.016365 5.3793577l2.649183.016365v1.9990219h-7.557562v-2.0153869zM127.195958 18.3243489h4.258219c-.341446-2.063927-1.755489-3.8518686-4.128132-3.8518686-2.61673 0-4.128131 1.641489-4.502029 3.8518686h4.371942zm1.121416 1.6903066l-5.558263-.0324526c.341168 2.5190949 1.868934 4.2091241 4.664292 4.2091241 1.690306 0 3.299343-.6174306 4.290671-1.8040292l2.080292.9103358c-1.251503 1.8525693-3.55924 2.9254452-6.435868 2.9254452-4.502029 0-7.264657-3.0555328-7.264657-6.8422189 0-3.9655913 3.104073-6.7773139 7.199752-6.7773139 4.306759 0 6.500773 3.3154306 6.500773 7.1021168v.2765401l-5.476992.0324526zM136.077556 23.9151197h2.324102v-9.1338686h-2.421737v-1.9502044h4.810745s.032452 1.4140438.065182 1.6903066c1.673942-1.3003212 2.990351-1.9177518 4.599387-1.9177518 2.389007 0 3.851591 1.6090365 3.851591 4.1766715 0 .2438102-.04854 7.1348467-.04854 7.1348467l2.356555.0324526v1.9665693h-6.533504v-1.9502044h1.787664v-6.2896934c0-1.9177518-.48762-2.9903504-2.031474-2.9903504-1.478949 0-2.82781.9749635-3.981679 2.2913723v6.956219h2.356555v1.9826569h-7.134847v-1.9990219z" fill="#B9C504"/><path d="M162.415994 16.5690818c0-5.7371679 3.380613-9.6863942 9.280044-9.6863942 2.632817 0 4.843197 1.00769342 6.289693 2.42173722v-2.1291095h2.112745v5.67198538h-2.031475c-1.251503-2.5027299-3.543153-3.7705985-6.240875-3.7705985-4.095679 0-6.533504 3.1856204-6.533504 7.4111095 0 4.1769489 2.551547 7.4760146 6.630861 7.4760146 2.714365 0 5.899708-1.1214161 6.484686-4.8431971l2.194015 1.1538686c-.796336 3.5919708-4.062949 5.9485256-8.857329 5.9485256-5.737167 0-9.328861-3.9331387-9.328861-9.6539416M194.115816 19.3807489c0-2.6491825-1.673942-4.6970219-4.355577-4.6970219-2.649182 0-4.323124 2.0478394-4.323124 4.6970219s1.673942 4.6157518 4.323124 4.6157518c2.681635 0 4.355577-1.9665693 4.355577-4.6157518m-11.262701 0c0-3.7542336 2.681635-6.7773139 6.939577-6.7773139 4.225489 0 6.923489 3.0230803 6.923489 6.7773139s-2.714088 6.842219-6.955942 6.842219c-4.225489 0-6.907124-3.0879854-6.907124-6.842219M198.982812 23.9151197h2.324102v-9.1338686h-2.421737v-1.9502044h4.810744s.032453 1.4140438.065183 1.6903066c1.673941-1.3003212 2.99035-1.9177518 4.599387-1.9177518 2.389007 0 3.851591 1.6090365 3.851591 4.1766715 0 .2438102-.04854 7.1348467-.04854 7.1348467l2.356554.0324526v1.9665693h-6.533503v-1.9502044h1.787664v-6.2896934c0-1.9177518-.487621-2.9903504-2.031475-2.9903504-1.478948 0-2.82781.9749635-3.981678 2.2913723v6.956219h2.356554v1.9826569h-7.134846v-1.9990219zM215.616771 12.8310745h2.063927v-2.7304526l2.405372-1.98265694v4.71310954h2.649183v1.9826569h-2.649183v3.4618832c0 .6662482 0 4.2906715.065183 4.5181168.04854.8939708.552525 1.2026861 1.316408 1.2026861.373621 0 .812424-.0812701 1.267592-.2274452v2.063927c-.568891.1461752-1.202687.2601752-1.755212.2601752-1.868934 0-3.185343-.8127008-3.266613-3.120438 0 0-.08127-3.9331387-.08127-4.5669343v-3.5919708h-2.015387v-1.9826569zM225.002188 23.9151197h2.61673v-9.1338686h-2.714365v-1.9502044h4.599387s.08127 2.5515475.114 2.8441752c.877606-2.080292 2.50273-3.0716204 4.339212-3.0716204.24381 0 1.934117.0649051 1.934117.0649051l-.08127 2.2752846c-.048818-.0324525-1.430132-.0488175-1.592672-.0488175-3.201708 0-4.160584 1.8852993-4.160584 4.8431971v4.1933139h2.860263v1.9826569h-7.914818v-1.9990219zM246.333031 20.1933664c-.698978-.0163649-1.80403-.2598978-2.974263-.2598978-1.706394 0-3.510423.3411679-3.510423 2.4702774 0 1.1375036.877605 2.063927 2.470277 2.063927 1.430409 0 3.02308-.5525256 4.014409-1.4464964v-2.8278102zm-8.776336 2.2103796c0-3.2341606 2.551825-4.1281314 5.639533-4.1281314 1.007693 0 2.080292.1137226 3.136803.3250803v-1.576584c0-1.8201167-1.462584-2.5027299-3.185343-2.5027299-1.332774 0-2.389285.4712555-3.006716 1.3652263l-2.275284-.6337956c.991328-1.7066716 2.925445-2.6491825 5.606803-2.6491825 4.095678 0 5.282 2.080292 5.282 4.3067591V23.9476h2.340467v1.9665693h-4.50203s-.016087-1.3488613-.032452-1.3488613c-1.722759 1.2512263-2.957898 1.7063942-4.583022 1.7063942-2.74654 0-4.420759-1.8689343-4.420759-3.8679562zM252.370482 19.2832248c0-3.5104233 2.600365-6.6796788 6.549591-6.6796788 1.414044 0 2.925445.3250803 3.672963 1.3976788l.016365-1.1702336h2.161563v4.680657h-2.096657c-.341168-1.8852993-1.364949-2.8114453-3.575329-2.8114453-2.681635 0-4.144496 1.9177518-4.144496 4.5505694 0 2.8602627 1.527766 4.8756496 4.209401 4.8756496 1.739124 0 3.169256-.7314307 3.981956-2.161562l1.96657.8939708c-.991606 2.1776496-3.136803 3.3642481-6.013431 3.3642481-4.761927 0-6.728496-3.7545109-6.728496-6.939854M266.956352 12.8310745h2.063927v-2.7304526l2.405372-1.98265694v4.71310954h2.649183v1.9826569h-2.649183v3.4618832c0 .6662482 0 4.2906715.065183 4.5181168.04854.8939708.552525 1.2026861 1.316408 1.2026861.373621 0 .812424-.0812701 1.267592-.2274452v2.063927c-.568891.1461752-1.202687.2601752-1.755212.2601752-1.868934 0-3.185343-.8127008-3.266613-3.120438 0 0-.08127-3.9331387-.08127-4.5669343v-3.5919708h-2.015387v-1.9826569zM279.641001 7.1752876c.828789 0 1.495314.61770802 1.495314 1.4140438 0 .79633575-.666525 1.4137664-1.495314 1.4137664-.828788 0-1.478948-.61743065-1.478948-1.4137664 0-.79633578.65016-1.4140438 1.478948-1.4140438zm-3.380613 16.7236058h2.194292v-9.1175036h-2.194292v-1.9502044h4.615752V23.931346h2.21038v1.9829343h-6.826132v-2.0153869zM284.930823 23.9151197h2.324103v-9.1338686h-2.421738v-1.9502044h4.810745s.032452 1.4140438.065182 1.6903066c1.673942-1.3003212 2.990351-1.9177518 4.599387-1.9177518 2.389007 0 3.851591 1.6090365 3.851591 4.1766715 0 .2438102-.04854 7.1348467-.04854 7.1348467l2.356555.0324526v1.9665693h-6.533504v-1.9502044h1.787665v-6.2896934c0-1.9177518-.487621-2.9903504-2.031475-2.9903504-1.478949 0-2.82781.9749635-3.981679 2.2913723v6.956219h2.356555v1.9826569h-7.134847v-1.9990219zM313.217663 20.4046409v-2.0314745c-.08127-2.0642044-1.917752-3.6244233-4.290672-3.6244233-2.730175 0-4.404394 2.1291095-4.404394 4.7294744 0 2.4378248 1.576584 4.4043942 4.355577 4.4043942 2.324102 0 4.339489-1.543854 4.339489-3.4779708m-9.718847 9.8489343l1.527766-1.6903066c1.105052.7963358 2.42146 1.1863212 3.737869 1.1863212 1.934117 0 4.388307-.9749635 4.436847-3.8843212 0-.0649051-.04854-1.3976788-.04854-1.4625839-.910336.8451533-2.941811 1.5114014-4.713387 1.5114014-4.030497 0-6.500774-2.8927153-6.500774-6.3706861 0-3.7545109 2.584-6.939854 6.598409-6.939854 1.739124 0 3.250525.5849781 4.599387 1.7876642.016365 0 .048817-1.560219.048817-1.560219h4.859285v1.9504818l-2.453913.0485401s.016088 9.6703066.016088 10.1576497c0 5.1521898-3.624146 6.7773138-7.053299 6.7773138-2.015387 0-3.526789-.4388029-5.054555-1.5114014" fill="#FFF"/><path d="M333.932794 16.5366015h2.892993c3.526788 0 4.469299-1.6090365 4.469299-3.738146 0-2.3238248-1.365226-3.5753285-3.672963-3.5753285h-3.689329v7.3134745zm-5.054555 7.3134744h2.45419V9.19067445h-2.45419V7.1752876h8.662614c5.184365 0 6.435868 3.1204379 6.435868 5.6558978 0 4.5993869-3.201708 5.7368905-7.638555 5.7368905h-2.372919v5.298365h2.567912v2.0478394h-7.65492v-2.0642044zM354.597305 20.1933664c-.698978-.0163649-1.804029-.2598978-2.974263-.2598978-1.706394 0-3.510423.3411679-3.510423 2.4702774 0 1.1375036.877606 2.063927 2.470277 2.063927 1.430409 0 3.023081-.5525256 4.014409-1.4464964v-2.8278102zm-8.776336 2.2103796c0-3.2341606 2.551825-4.1281314 5.639533-4.1281314 1.007694 0 2.080292.1137226 3.136803.3250803v-1.576584c0-1.8201167-1.462584-2.5027299-3.185343-2.5027299-1.332774 0-2.389285.4712555-3.006715 1.3652263l-2.275285-.6337956c.991329-1.7066716 2.925445-2.6491825 5.606803-2.6491825 4.095679 0 5.282 2.080292 5.282 4.3067591V23.9476h2.340467v1.9665693h-4.502029s-.016088-1.3488613-.032453-1.3488613c-1.722759 1.2512263-2.957897 1.7063942-4.583022 1.7063942-2.74654 0-4.420759-1.8689343-4.420759-3.8679562zM360.748257 23.9151197h2.61673v-9.1338686h-2.714365v-1.9502044h4.599387s.08127 2.5515475.114 2.8441752c.877606-2.080292 2.50273-3.0716204 4.339211-3.0716204.243811 0 1.934117.0649051 1.934117.0649051l-.08127 2.2752846c-.048817-.0324525-1.430131-.0488175-1.592671-.0488175-3.201708 0-4.160584 1.8852993-4.160584 4.8431971v4.1933139h2.860262v1.9826569h-7.914817v-1.9990219zM372.977822 12.8310745h2.063927v-2.7304526l2.405372-1.98265694v4.71310954h2.649183v1.9826569h-2.649183v3.4618832c0 .6662482 0 4.2906715.065183 4.5181168.04854.8939708.552525 1.2026861 1.316408 1.2026861.373621 0 .812424-.0812701 1.267592-.2274452v2.063927c-.568891.1461752-1.202686.2601752-1.755212.2601752-1.868934 0-3.185343-.8127008-3.266613-3.120438 0 0-.08127-3.9331387-.08127-4.5669343v-3.5919708h-2.015387v-1.9826569zM382.346985 23.9151197h2.324103v-9.1338686h-2.421738v-1.9502044h4.810745s.032452 1.4140438.065182 1.6903066c1.673942-1.3003212 2.990351-1.9177518 4.599387-1.9177518 2.389008 0 3.851591 1.6090365 3.851591 4.1766715 0 .2438102-.04854 7.1348467-.04854 7.1348467l2.356555.0324526v1.9665693h-6.533504v-1.9502044h1.787665v-6.2896934c0-1.9177518-.487621-2.9903504-2.031475-2.9903504-1.478949 0-2.82781.9749635-3.981679 2.2913723v6.956219h2.356555v1.9826569h-7.134847v-1.9990219zM406.408225 18.3243489h4.258219c-.341445-2.063927-1.755489-3.8518686-4.128132-3.8518686-2.61673 0-4.128131 1.641489-4.502029 3.8518686h4.371942zm1.121416 1.6903066l-5.558263-.0324526c.341168 2.5190949 1.868934 4.2091241 4.664292 4.2091241 1.690307 0 3.299343-.6174306 4.290672-1.8040292l2.080292.9103358c-1.251504 1.8525693-3.559241 2.9254452-6.435869 2.9254452-4.502029 0-7.264657-3.0555328-7.264657-6.8422189 0-3.9655913 3.104073-6.7773139 7.199752-6.7773139 4.306759 0 6.500774 3.3154306 6.500774 7.1021168v.2765401l-5.476993.0324526zM415.306077 23.9151197h2.61673v-9.1338686h-2.714365v-1.9502044h4.599387s.08127 2.5515475.114 2.8441752c.877606-2.080292 2.50273-3.0716204 4.339212-3.0716204.24381 0 1.934117.0649051 1.934117.0649051l-.08127 2.2752846c-.048818-.0324525-1.430132-.0488175-1.592672-.0488175-3.201708 0-4.160584 1.8852993-4.160584 4.8431971v4.1933139h2.860263v1.9826569h-7.914818v-1.9990219zM428.217978 21.6398073h2.096657c-.016365.0649051-.016365.1300876-.016365.2113577 0 1.5114014 1.414044 2.4378248 3.429153 2.4378248 1.869212 0 2.974263-.6989781 2.974263-1.9016643 0-1.3488613-1.170233-1.625124-2.892993-1.8525693-2.340189-.3089927-5.623167-1.0240584-5.623167-4.1444963 0-2.1615621 1.901386-3.7866862 4.826832-3.7866862 1.267591 0 2.454189.2762628 3.299343.6826132.016087.0160876.08127-.4551679.08127-.4551679h2.047562v4.1605839h-2.047562s-.048818-.9100584-.048818-1.0889635c-.763883-.926146-1.820394-1.3976788-3.23416-1.3976788-1.592672 0-2.632818.6826131-2.632818 1.7879416 0 1.446219 1.982657 1.6087591 4.274307 1.9826569 2.405372.4063504 4.436846 1.2839562 4.436846 3.9331387 0 2.3890073-2.015386 4.0141314-5.184642 4.0141314-1.495036 0-2.648905-.2923504-3.624146-.9588759l-.032452.6501606h-2.12911v-4.2743066zM440.78885 23.9151197h2.470277V9.14171825h-2.437825V7.1751489h4.87565s-.016088 6.4522336-.016088 6.939854c1.430132-1.023781 2.876628-1.5114014 4.452935-1.5114014 2.584277 0 3.998043 1.4789489 3.998043 4.2743065 0 .2113577-.016087 7.0372117-.016087 7.0372117l2.34019.0324526v1.9665693h-6.403417v-1.9665693h1.657854v-6.6144964c0-1.4953139-.422437-2.8280876-2.112744-2.8280876-1.170234 0-2.632818.536438-3.916774 1.4789489v7.9475475h2.356555v1.9826569h-7.248569v-1.9990219zM461.323328 7.1752876c.828789 0 1.495314.61770802 1.495314 1.4140438 0 .79633575-.666525 1.4137664-1.495314 1.4137664-.828788 0-1.478948-.61743065-1.478948-1.4137664 0-.79633578.65016-1.4140438 1.478948-1.4140438zm-3.380613 16.7236058h2.194292v-9.1175036h-2.194292v-1.9502044h4.615752V23.931346h2.21038v1.9829343h-6.826132v-2.0153869z" fill="#B9C504"/><path d="M479.338712 19.3319869c0-2.6491825-1.625124-4.6970219-4.323124-4.6970219-2.437824 0-4.306759 1.641489-4.355576 3.819416-.016365.0324526-.016365 1.9177518-.016365 1.9502044.130087 2.177927 1.852846 3.721781 4.258219 3.721781 2.82781 0 4.436846-1.9665693 4.436846-4.7943795zm-13.538262 10.547635h2.486642V14.7814175h-2.291372v-1.9502044h4.745562s.064905 1.7224818.08127 1.7224818c1.202686-1.2836788 2.795357-1.9502044 4.550569-1.9502044 4.046861 0 6.484686 3.0391679 6.484686 6.8097664 0 3.7217811-2.567912 6.8097665-6.517138 6.8097665-1.755212 0-3.429154-.6013431-4.648205-1.7227592 0 .3736205.016365 5.3793577.016365 5.3793577l2.649183.016365v1.9990219h-7.557562v-2.0153869z" fill="#B9C504" mask="url(#mask-2)"/></g></svg>
