<svg width="188px" height="51px" viewBox="0 0 188 51" version="1.1" xmlns="http://www.w3.org/2000/svg" xmlns:xlink="http://www.w3.org/1999/xlink" xmlns:sketch="http://www.bohemiancoding.com/sketch/ns">
    <g id="-Homepage" stroke="none" stroke-width="1" fill="none" fill-rule="evenodd" sketch:type="MSPage">
        <g id="Homepage" sketch:type="MSArtboardGroup" transform="translate(-1263.000000, -3975.000000)">
            <g id="Footer" sketch:type="MSLayerGroup" transform="translate(0.000000, 3305.000000)">
                <g id="Logo" transform="translate(1263.000000, 670.000000)" sketch:type="MSShapeGroup">
                    <path d="M40.411752,6.09794503 L30.3572583,1.11987219 L9.57374139,9.56324305 L19.1306863,16.6390709 L0.00010017762,26.1129119 L20.3695496,47.2221834 L40.411752,32.3882762 L60.4539545,47.2221834 L80.82307,26.1129119 L61.6928178,16.6390709 L71.2497627,9.56324305 L50.4629066,1.11987219 L40.411752,6.09794503 Z" id="Fill-1" fill="#D9E021"></path>
                    <path d="M40.4116519,6.09801258 L19.1305861,16.6391384 L9.57364121,9.5633106 L30.3571581,1.11960199 L40.4116519,6.09801258 Z" id="Fill-2" fill="#B9C504"></path>
                    <path d="M80.8233037,26.1129795 L60.4538544,47.222251 L40.4116519,32.3883437 L61.6927176,16.6391384 L80.8233037,26.1129795 Z" id="Fill-3" fill="#D9E021"></path>
                    <path d="M61.6927176,16.6391384 L40.4116519,32.3883437 L40.4116519,6.09801258 L61.6927176,16.6391384 Z" id="Fill-4" fill="#B9C504"></path>
                    <path d="M40.4116519,6.09801258 L40.4116519,32.3883437 L19.1305861,16.6391384 L40.4116519,6.09801258 Z" id="Fill-5" fill="#9DAD01"></path>
                    <path d="M0,26.1127768 L20.3694494,47.2223861 L40.4116519,32.3884788 L19.1305861,16.6392735 L0,26.1127768 Z" id="Fill-6" fill="#D9E021"></path>
                    <path d="M71.2496625,9.5633106 L61.6927176,16.6391384 L40.4116519,6.09801258 L50.4628064,1.11960199 L71.2496625,9.5633106 Z" id="Fill-7" fill="#D9E021"></path>
                    <g id="Group-60" transform="translate(90.827709, 0.000000)">
                        <path d="M6.34464938,10.9048808 C8.91220178,10.9048808 10.5701414,8.81894702 10.5701414,6.23213245 C10.5701414,3.60445033 8.91220178,1.51851656 6.34464938,1.51851656 C3.7971325,1.51851656 2.12917513,3.60445033 2.12917513,6.23213245 C2.12917513,8.81894702 3.7971325,10.9048808 6.34464938,10.9048808 M6.34464938,0.138139073 C10.0849478,0.138139073 12.3696654,2.83742384 12.3696654,6.23213245 C12.3696654,9.61670861 10.0849478,12.3055232 6.34464938,12.3055232 C2.60435098,12.3055232 0.340002842,9.62684106 0.340002842,6.23213245 C0.340002842,2.81715894 2.61436874,0.138139073 6.34464938,0.138139073" id="Fill-8" fill="#B9C504"></path>
                        <path d="M21.7862615,7.9703543 C21.7862615,6.30356623 20.7754693,5.01539404 19.0971602,5.01539404 C17.580805,5.01539404 16.4184107,6.04822848 16.3880234,7.41813576 C16.3780057,7.43873841 16.3780057,8.62457285 16.3780057,8.6451755 C16.4588156,10.0154205 17.5303822,10.9867848 19.026368,10.9867848 C20.785487,10.9867848 21.7862615,9.74961258 21.7862615,7.9703543 L21.7862615,7.9703543 Z M13.3653307,14.606096 L14.9120732,14.606096 L14.9120732,9.83134768 L14.9120732,5.10726159 L13.4868796,5.10726159 L13.4868796,3.8805596 L16.4384462,3.8805596 C16.4384462,3.8805596 16.4788512,4.96439404 16.4892028,4.96439404 C17.2371957,4.1565 18.2279524,3.7373543 19.3195545,3.7373543 C21.8366842,3.7373543 23.3530394,5.64934768 23.3530394,8.0213543 C23.3530394,10.3629636 21.7558742,12.3056921 19.299519,12.3056921 C18.2075829,12.3056921 17.1664036,11.9274139 16.4083929,11.2218576 C16.4083929,11.4569305 16.4184107,14.606096 16.4184107,14.606096 L18.0659986,14.6165662 L18.0659986,15.8740033 L13.3653307,15.8740033 L13.3653307,14.606096 Z" id="Fill-10" fill="#B9C504"></path>
                        <path d="M29.1101137,7.33643444 L31.7588099,7.33643444 C31.5464334,6.03779205 30.6668739,4.91309007 29.1909236,4.91309007 C27.5633712,4.91309007 26.6233712,5.9459245 26.3906252,7.33643444 L29.1101137,7.33643444 Z M29.8076838,8.39966623 L26.3502202,8.37940132 C26.5625968,9.96411656 27.5129485,11.0276861 29.251698,11.0276861 C30.3028952,11.0276861 31.3036696,10.6389377 31.9204298,9.89251391 L33.2143908,10.4653351 C32.4360107,11.6309046 31.0004654,12.3057258 29.2112931,12.3057258 C26.4109947,12.3057258 24.6926146,10.3832623 24.6926146,8.00112318 C24.6926146,5.50617616 26.6233712,3.73738808 29.1708881,3.73738808 C31.8496377,3.73738808 33.2143908,5.82332185 33.2143908,8.20546093 L33.2143908,8.37940132 L29.8076838,8.39966623 Z" id="Fill-12" fill="#B9C504"></path>
                        <path d="M34.6345755,10.8537795 L36.0801385,10.8537795 L36.0801385,5.10732914 L34.5738011,5.10732914 L34.5738011,3.88062715 L37.5661066,3.88062715 C37.5661066,3.88062715 37.586476,4.76991854 37.6065115,4.94385894 C38.6480249,4.12583245 39.4668099,3.73742185 40.4675844,3.73742185 C41.9535524,3.73742185 42.8634991,4.74965364 42.8634991,6.36510397 C42.8634991,6.51844172 42.8331119,10.8537795 42.8331119,10.8537795 L44.2987105,10.8743821 L44.2987105,12.1115543 L40.2348384,12.1115543 L40.2348384,10.8845146 L41.3471439,10.8845146 L41.3471439,6.92745497 C41.3471439,5.72101788 41.0436057,5.04619669 40.0832362,5.04619669 C39.1636057,5.04619669 38.3244512,5.65954768 37.6065115,6.48770662 L37.6065115,10.8639119 L39.072444,10.8639119 L39.072444,12.1115543 L34.6345755,12.1115543 L34.6345755,10.8537795 Z" id="Fill-14" fill="#B9C504"></path>
                        <path d="M3.45345648,41.3376954 L5.25298046,41.3376954 C7.44653641,41.3376954 8.03290941,40.3254636 8.03290941,38.9859536 C8.03290941,37.5238411 7.18373712,36.7365497 5.74819183,36.7365497 L3.45345648,36.7365497 L3.45345648,41.3376954 Z M0.309548845,45.9388411 L1.83592185,45.9388411 L1.83592185,41.3376954 L1.83592185,36.715947 L0.309548845,36.715947 L0.309548845,35.4483775 L5.69776909,35.4483775 C8.92248668,35.4483775 9.70086679,37.4113709 9.70086679,39.0065563 C9.70086679,41.9000464 7.7093357,42.6157351 4.94944227,42.6157351 L3.47382593,42.6157351 L3.47382593,45.9489735 L5.07099112,45.9489735 L5.07099112,47.2374834 L0.309548845,47.2374834 L0.309548845,45.9388411 Z" id="Fill-16" fill="#B9C504"></path>
                        <path d="M16.1858316,43.6382682 C15.7510607,43.6281358 15.0638423,43.474798 14.3358849,43.474798 C13.2743361,43.474798 12.1523467,43.6892682 12.1523467,45.0287781 C12.1523467,45.7444669 12.6983147,46.3274205 13.6887375,46.3274205 C14.5786487,46.3274205 15.5690714,45.9798775 16.1858316,45.4175265 L16.1858316,43.6382682 Z M10.7268192,45.0287781 C10.7268192,42.9941821 12.3139666,42.4318311 14.2347055,42.4318311 C14.8614835,42.4318311 15.5286664,42.5034338 16.1858316,42.6361689 L16.1858316,41.6445397 C16.1858316,40.4992351 15.2758849,40.069957 14.2043183,40.069957 C13.3755155,40.069957 12.7183503,40.3661623 12.3343361,40.928851 L10.9188263,40.5299702 C11.5355865,39.4562682 12.7387197,38.8631821 14.4066771,38.8631821 C16.954194,38.8631821 17.6921691,40.171957 17.6921691,41.5729371 L17.6921691,46.0001424 L19.1477499,46.0001424 L19.1477499,47.2373146 L16.3474515,47.2373146 C16.3474515,47.2373146 16.3374337,46.3888907 16.327416,46.3888907 C15.2558494,47.1761821 14.487487,47.462255 13.4766948,47.462255 C11.7683325,47.462255 10.7268192,46.286553 10.7268192,45.0287781 L10.7268192,45.0287781 Z" id="Fill-18" fill="#B9C504"></path>
                        <path d="M20.0119488,45.9797424 L21.6395012,45.9797424 L21.6395012,40.2332921 L19.9511744,40.2332921 L19.9511744,39.0065901 L22.8122472,39.0065901 C22.8122472,39.0065901 22.86267,40.6115702 22.8830394,40.795643 C23.4286735,39.4868682 24.4397996,38.8633848 25.5821584,38.8633848 C25.7337606,38.8633848 26.7849577,38.9042523 26.7849577,38.9042523 L26.734535,40.3356298 C26.7041478,40.3153649 25.8449577,40.3048947 25.7437783,40.3048947 C23.7522472,40.3048947 23.1558565,41.4910669 23.1558565,43.3520603 L23.1558565,45.9898748 L24.935011,45.9898748 L24.935011,47.2375172 L20.0119488,47.2375172 L20.0119488,45.9797424 Z" id="Fill-20" fill="#B9C504"></path>
                        <path d="M27.6188696,39.006455 L28.9028128,39.006455 L28.9028128,37.2886669 L30.3987986,36.0413623 L30.3987986,39.006455 L32.0467204,39.006455 L32.0467204,40.2537596 L30.3987986,40.2537596 L30.3987986,42.4318987 C30.3987986,42.8510444 30.3987986,45.1311834 30.4392036,45.2743887 C30.4695908,45.8367397 30.7831467,46.030945 31.2579886,46.030945 C31.4907346,46.030945 31.7635517,45.9796073 32.0467204,45.8877397 L32.0467204,47.1863821 C31.6927595,47.2782497 31.2987275,47.3498523 30.9547844,47.3498523 C29.7923901,47.3498523 28.973605,46.8385013 28.9228483,45.3868589 C28.9228483,45.3868589 28.8724256,42.9121768 28.8724256,42.5136338 L28.8724256,40.2537596 L27.6188696,40.2537596 L27.6188696,39.006455 Z" id="Fill-22" fill="#B9C504"></path>
                        <path d="M33.4466025,45.9797424 L34.8921655,45.9797424 L34.8921655,40.2332921 L33.3858281,40.2332921 L33.3858281,39.0065901 L36.3781336,39.0065901 C36.3781336,39.0065901 36.398503,39.8958815 36.4185385,40.0698219 C37.4600519,39.2517954 38.2788369,38.8633848 39.2796114,38.8633848 C40.7655794,38.8633848 41.6755261,39.8756166 41.6755261,41.4910669 C41.6755261,41.6444046 41.6451389,45.9797424 41.6451389,45.9797424 L43.1107375,46.000345 L43.1107375,47.2375172 L39.0468654,47.2375172 L39.0468654,46.0104775 L40.1591709,46.0104775 L40.1591709,42.0534179 C40.1591709,40.8469808 39.8556327,40.1721596 38.8952632,40.1721596 C37.9756327,40.1721596 37.1364782,40.7855106 36.4185385,41.6136695 L36.4185385,45.9898748 L37.884471,45.9898748 L37.884471,47.2375172 L33.4466025,47.2375172 L33.4466025,45.9797424 Z" id="Fill-24" fill="#B9C504"></path>
                        <path d="M48.4125712,42.4624311 L51.0612675,42.4624311 C50.8488909,41.1637887 49.9693314,40.0390868 48.4933812,40.0390868 C46.8658288,40.0390868 45.9258288,41.0719212 45.6930828,42.4624311 L48.4125712,42.4624311 Z M49.1101414,43.5256629 L45.6526778,43.505398 C45.8650544,45.0901132 46.815406,46.1536828 48.5541556,46.1536828 C49.6053528,46.1536828 50.6061272,45.7649344 51.2228874,45.0185106 L52.5168483,45.5913318 C51.7384682,46.7569013 50.3029229,47.4317225 48.5137506,47.4317225 C45.7134522,47.4317225 43.9950721,45.5092589 43.9950721,43.1271199 C43.9950721,40.6321728 45.9258288,38.8633848 48.4733456,38.8633848 C51.1520952,38.8633848 52.5168483,40.9493185 52.5168483,43.3314576 L52.5168483,43.505398 L49.1101414,43.5256629 Z" id="Fill-26" fill="#B9C504"></path>
                        <path d="M53.9471176,45.9797424 L55.57467,45.9797424 L55.57467,40.2332921 L53.8863432,40.2332921 L53.8863432,39.0065901 L56.747416,39.0065901 C56.747416,39.0065901 56.7978387,40.6115702 56.8182082,40.795643 C57.3638423,39.4868682 58.3749684,38.8633848 59.5173272,38.8633848 C59.6689293,38.8633848 60.7201265,38.9042523 60.7201265,38.9042523 L60.6697037,40.3356298 C60.6393165,40.3153649 59.7801265,40.3048947 59.6789471,40.3048947 C57.687416,40.3048947 57.0910252,41.4910669 57.0910252,43.3520603 L57.0910252,45.9898748 L58.8701798,45.9898748 L58.8701798,47.2375172 L53.9471176,47.2375172 L53.9471176,45.9797424 Z" id="Fill-28" fill="#B9C504"></path>
                        <path d="M61.8471915,44.5482974 L63.1511702,44.5482974 C63.1411524,44.5891649 63.1411524,44.6300325 63.1411524,44.6813702 C63.1411524,45.6321318 64.0207119,46.2150854 65.2742679,46.2150854 C66.4366622,46.2150854 67.1242146,45.7753371 67.1242146,45.0187808 C67.1242146,44.1700192 66.3962572,43.9960788 65.3246906,43.8528735 C63.8691098,43.6586682 61.826822,43.2087874 61.826822,41.245794 C61.826822,39.8856815 63.0095858,38.8633172 64.8294792,38.8633172 C65.6178771,38.8633172 66.3558522,39.0372576 66.8814508,39.2925954 C66.8914686,39.3030656 66.9322075,39.0065225 66.9322075,39.0065225 L68.2057989,39.0065225 L68.2057989,41.6240722 L66.9322075,41.6240722 C66.9322075,41.6240722 66.9018202,41.051251 66.9018202,40.9387808 C66.4266444,40.3561649 65.7694792,40.0596219 64.8899197,40.0596219 C63.899497,40.0596219 63.2523496,40.4889 63.2523496,41.1843238 C63.2523496,42.0942179 64.4855361,42.1965556 65.9110636,42.4316285 C67.4070494,42.687304 68.670957,43.2395225 68.670957,44.9063106 C68.670957,46.4092907 67.4174011,47.431655 65.4459055,47.431655 C64.5159233,47.431655 63.7983176,47.2475821 63.1915751,46.8284364 L63.1715396,47.2374497 L61.8471915,47.2374497 L61.8471915,44.5482974 Z" id="Fill-30" fill="#B9C504"></path>
                        <path d="M69.666422,45.9797424 L71.2031467,45.9797424 L71.2031467,41.3377291 L71.2031467,36.6852457 L69.6867915,36.6852457 L69.6867915,35.4480735 L72.719502,35.4480735 C72.719502,35.4480735 72.7091503,39.5074709 72.7091503,39.8141464 C73.5987275,39.1700603 74.4986565,38.8633848 75.4790615,38.8633848 C77.0865783,38.8633848 77.9658039,39.7938815 77.9658039,41.5525371 C77.9658039,41.6852722 77.9557861,45.9797424 77.9557861,45.9797424 L79.4117009,46.000345 L79.4117009,47.2375172 L75.4286387,47.2375172 L75.4286387,46.000345 L76.4598004,46.000345 L76.4598004,41.8386099 C76.4598004,40.8979808 76.1970011,40.0596894 75.14547,40.0596894 C74.4178465,40.0596894 73.5078998,40.3971 72.7091503,40.9901861 L72.7091503,45.9898748 L74.1750828,45.9898748 L74.1750828,47.2375172 L69.666422,47.2375172 L69.666422,45.9797424 Z" id="Fill-32" fill="#B9C504"></path>
                        <path d="M82.4390686,35.4482086 C82.9546494,35.4482086 83.3690508,35.8366192 83.3690508,36.3378377 C83.3690508,36.8387185 82.9546494,37.2274669 82.4390686,37.2274669 C81.9234877,37.2274669 81.5191041,36.8387185 81.5191041,36.3378377 C81.5191041,35.8366192 81.9234877,35.4482086 82.4390686,35.4482086 L82.4390686,35.4482086 Z M80.3363403,45.9694073 L81.7010934,45.9694073 L81.7010934,40.2334272 L80.3363403,40.2334272 L80.3363403,39.0063874 L83.2074309,39.0063874 L83.2074309,45.9900099 L84.5822018,45.9900099 L84.5822018,47.2373146 L80.3363403,47.2373146 L80.3363403,45.9694073 Z" id="Fill-34" fill="#B9C504"></path>
                        <path d="M93.5639268,43.096351 C93.5639268,41.4295629 92.5531346,40.1413907 90.8748256,40.1413907 C89.3584703,40.1413907 88.196076,41.1742252 88.1656888,42.5441325 C88.155671,42.5647351 88.155671,43.7505695 88.155671,43.7711722 C88.236481,45.1414172 89.3080476,46.1127815 90.8040334,46.1127815 C92.5631524,46.1127815 93.5639268,44.8756093 93.5639268,43.096351 L93.5639268,43.096351 Z M85.1429961,49.7320927 L86.6897385,49.7320927 L86.6897385,44.9573444 L86.6897385,40.2332583 L85.2645449,40.2332583 L85.2645449,39.0065563 L88.2161115,39.0065563 C88.2161115,39.0065563 88.2565165,40.0903907 88.2668682,40.0903907 C89.0148611,39.2824967 90.0056178,38.863351 91.0972199,38.863351 C93.6143496,38.863351 95.1307048,40.7753444 95.1307048,43.147351 C95.1307048,45.4889603 93.5335396,47.4316887 91.0771844,47.4316887 C89.9852483,47.4316887 88.9440689,47.0534106 88.1860583,46.3478543 C88.1860583,46.5829272 88.196076,49.7320927 88.196076,49.7320927 L89.8436639,49.7425629 L89.8436639,51 L85.1429961,51 L85.1429961,49.7320927 Z" id="Fill-36" fill="#B9C504"></path>
                        <path d="M0.370189698,23.7952152 C0.370189698,20.1856987 2.47291794,17.7012219 6.14242416,17.7012219 C7.77999432,17.7012219 9.15509911,18.3351755 10.0546941,19.2248046 L10.0546941,17.884957 L11.3690245,17.884957 L11.3690245,21.453606 L10.1051169,21.453606 C9.32673677,19.8790232 7.90154316,19.0815993 6.2232341,19.0815993 C3.67571723,19.0815993 2.15936199,21.085798 2.15936199,23.7442152 C2.15936199,26.3718974 3.74650941,28.4473609 6.28400853,28.4473609 C7.97233535,28.4473609 9.95351474,27.7421424 10.3174934,25.4005331 L11.6822465,26.1263543 C11.1870352,28.3862285 9.15509911,29.868606 6.17281137,29.868606 C2.60415062,29.868606 0.370189698,27.3942616 0.370189698,23.7952152" id="Fill-38" fill="#FFFFFF"></path>
                        <path d="M19.9969556,25.5641384 C19.9969556,23.8973503 18.9557762,22.6091781 17.2878188,22.6091781 C15.639897,22.6091781 14.5987176,23.8973503 14.5987176,25.5641384 C14.5987176,27.2309265 15.639897,28.4680987 17.2878188,28.4680987 C18.9557762,28.4680987 19.9969556,27.2309265 19.9969556,25.5641384 M12.9915346,25.5641384 C12.9915346,23.2022642 14.659492,21.3004033 17.3078544,21.3004033 C19.9361812,21.3004033 21.6144902,23.2022642 21.6144902,25.5641384 C21.6144902,27.9260126 19.9261634,29.8687411 17.2878188,29.8687411 C14.659492,29.8687411 12.9915346,27.9260126 12.9915346,25.5641384" id="Fill-40" fill="#FFFFFF"></path>
                        <path d="M22.9334956,28.4168285 L24.3790586,28.4168285 L24.3790586,22.6703781 L22.8727211,22.6703781 L22.8727211,21.4436762 L25.8650266,21.4436762 C25.8650266,21.4436762 25.8853961,22.3329675 25.9054316,22.5069079 C26.9469449,21.6888815 27.76573,21.3004709 28.7665044,21.3004709 C30.2524725,21.3004709 31.1624192,22.3127026 31.1624192,23.928153 C31.1624192,24.0814907 31.132032,28.4168285 31.132032,28.4168285 L32.5976306,28.4374311 L32.5976306,29.6746033 L28.5337584,29.6746033 L28.5337584,28.4475636 L29.6460639,28.4475636 L29.6460639,24.490504 C29.6460639,23.2840669 29.3425258,22.6092457 28.3821563,22.6092457 C27.4625258,22.6092457 26.6233712,23.2225967 25.9054316,24.0507556 L25.9054316,28.4269609 L27.3713641,28.4269609 L27.3713641,29.6746033 L22.9334956,29.6746033 L22.9334956,28.4168285 Z" id="Fill-42" fill="#FFFFFF"></path>
                        <path d="M33.2799403,21.4435411 L34.5638835,21.4435411 L34.5638835,19.725753 L36.0598693,18.4784483 L36.0598693,21.4435411 L37.7077911,21.4435411 L37.7077911,22.6908457 L36.0598693,22.6908457 L36.0598693,24.8689848 C36.0598693,25.2881305 36.0598693,27.5682695 36.1002742,27.7114748 C36.1306615,28.2738258 36.4442174,28.4680311 36.9190593,28.4680311 C37.1518053,28.4680311 37.4246224,28.4166934 37.7077911,28.3248258 L37.7077911,29.6234682 C37.3538302,29.7153358 36.9597982,29.7869384 36.6158551,29.7869384 C35.4534607,29.7869384 34.6346757,29.2755874 34.583919,27.823945 C34.583919,27.823945 34.5334963,25.3492629 34.5334963,24.9507199 L34.5334963,22.6908457 L33.2799403,22.6908457 L33.2799403,21.4435411 Z" id="Fill-44" fill="#FFFFFF"></path>
                        <path d="M39.1177911,28.4168285 L40.7453435,28.4168285 L40.7453435,22.6703781 L39.0570167,22.6703781 L39.0570167,21.4436762 L41.9180895,21.4436762 C41.9180895,21.4436762 41.9685123,23.0486563 41.9888817,23.2327291 C42.5345158,21.9239543 43.5456419,21.3004709 44.6880007,21.3004709 C44.8396028,21.3004709 45.8908,21.3413384 45.8908,21.3413384 L45.8403773,22.7727159 C45.8099901,22.752451 44.9508,22.7419808 44.8496206,22.7419808 C42.8580895,22.7419808 42.2616988,23.928153 42.2616988,25.7891464 L42.2616988,28.4269609 L44.0408533,28.4269609 L44.0408533,29.6746033 L39.1177911,29.6746033 L39.1177911,28.4168285 Z" id="Fill-46" fill="#FFFFFF"></path>
                        <path d="M52.2439311,26.0753543 C51.8091602,26.0652219 51.1219417,25.9118841 50.3939844,25.9118841 C49.3324355,25.9118841 48.2104462,26.1263543 48.2104462,27.4658642 C48.2104462,28.181553 48.7564142,28.7645066 49.7468369,28.7645066 C50.6367481,28.7645066 51.6271709,28.4169636 52.2439311,27.8546126 L52.2439311,26.0753543 Z M46.7849187,27.4658642 C46.7849187,25.4312682 48.3720661,24.8689172 50.292805,24.8689172 C50.9195829,24.8689172 51.5867659,24.9405199 52.2439311,25.073255 L52.2439311,24.0816258 C52.2439311,22.9363212 51.3339844,22.507043 50.2624178,22.507043 C49.4336149,22.507043 48.7764497,22.8032483 48.3924355,23.3659371 L46.9772597,22.9670563 C47.593686,21.8933543 48.7968192,21.3002682 50.4647766,21.3002682 C53.0122934,21.3002682 53.7502686,22.609043 53.7502686,24.0100232 L53.7502686,28.4372285 L55.2058494,28.4372285 L55.2058494,29.6744007 L52.405551,29.6744007 C52.405551,29.6744007 52.3955332,28.8259768 52.3855155,28.8259768 C51.3139488,29.6132682 50.5455865,29.8993411 49.5347943,29.8993411 C47.826432,29.8993411 46.7849187,28.7236391 46.7849187,27.4658642 L46.7849187,27.4658642 Z" id="Fill-48" fill="#FFFFFF"></path>
                        <path d="M55.9992895,25.5027695 C55.9992895,23.2942331 57.6168242,21.3005046 60.0731794,21.3005046 C60.9527389,21.3005046 61.8927389,21.5048424 62.357897,22.1796636 L62.3679147,21.4433722 L63.7126323,21.4433722 L63.7126323,24.3882 L62.4083197,24.3882 C62.1962771,23.2020278 61.5591474,22.6194119 60.1843766,22.6194119 C58.5164192,22.6194119 57.6064725,23.825849 57.6064725,25.4821669 C57.6064725,27.2820278 58.5568242,28.5495974 60.2247815,28.5495974 C61.3066998,28.5495974 62.1962771,28.0895841 62.7015062,27.1898225 L63.924675,27.7521735 C63.3082487,29.1224185 61.9738828,29.8688424 60.1843766,29.8688424 C57.2224583,29.8688424 55.9992895,27.5069682 55.9992895,25.5027695" id="Fill-50" fill="#FFFFFF"></path>
                        <path d="M65.0720092,21.4435411 L66.3559524,21.4435411 L66.3559524,19.725753 L67.8519382,18.4784483 L67.8519382,21.4435411 L69.49986,21.4435411 L69.49986,22.6908457 L67.8519382,22.6908457 L67.8519382,24.8689848 C67.8519382,25.2881305 67.8519382,27.5682695 67.8923432,27.7114748 C67.9227304,28.2738258 68.2362863,28.4680311 68.7111282,28.4680311 C68.9438742,28.4680311 69.2166913,28.4166934 69.49986,28.3248258 L69.49986,29.6234682 C69.1458991,29.7153358 68.7518671,29.7869384 68.407924,29.7869384 C67.2455297,29.7869384 66.4267446,29.2755874 66.3759879,27.823945 C66.3759879,27.823945 66.3255652,25.3492629 66.3255652,24.9507199 L66.3255652,22.6908457 L65.0720092,22.6908457 L65.0720092,21.4435411 Z" id="Fill-52" fill="#FFFFFF"></path>
                        <path d="M72.9619652,17.8851258 C73.477546,17.8851258 73.8919474,18.2738742 73.8919474,18.774755 C73.8919474,19.2759735 73.477546,19.6643841 72.9619652,19.6643841 C72.4463844,19.6643841 72.0420007,19.2759735 72.0420007,18.774755 C72.0420007,18.2738742 72.4463844,17.8851258 72.9619652,17.8851258 L72.9619652,17.8851258 Z M70.8592369,28.4066623 L72.2239901,28.4066623 L72.2239901,22.6703444 L70.8592369,22.6703444 L70.8592369,21.4436424 L73.7303275,21.4436424 L73.7303275,28.4269272 L75.1050984,28.4269272 L75.1050984,29.6745695 L70.8592369,29.6745695 L70.8592369,28.4066623 Z" id="Fill-54" fill="#FFFFFF"></path>
                        <path d="M76.2522991,28.4168285 L77.6978622,28.4168285 L77.6978622,22.6703781 L76.1915247,22.6703781 L76.1915247,21.4436762 L79.1838302,21.4436762 C79.1838302,21.4436762 79.2041996,22.3329675 79.2242352,22.5069079 C80.2657485,21.6888815 81.0845336,21.3004709 82.085308,21.3004709 C83.571276,21.3004709 84.4812227,22.3127026 84.4812227,23.928153 C84.4812227,24.0814907 84.4508355,28.4168285 84.4508355,28.4168285 L85.9164341,28.4374311 L85.9164341,29.6746033 L81.852562,29.6746033 L81.852562,28.4475636 L82.9648675,28.4475636 L82.9648675,24.490504 C82.9648675,23.2840669 82.6613293,22.6092457 81.7009599,22.6092457 C80.7813293,22.6092457 79.9421748,23.2225967 79.2242352,24.0507556 L79.2242352,28.4269609 L80.6901677,28.4269609 L80.6901677,29.6746033 L76.2522991,29.6746033 L76.2522991,28.4168285 Z" id="Fill-56" fill="#FFFFFF"></path>
                        <path d="M93.846962,26.2082921 L93.846962,24.9302523 C93.7965393,23.6316099 92.6541805,22.6501132 91.1782302,22.6501132 C89.4798856,22.6501132 88.4387062,23.9896232 88.4387062,25.6253384 C88.4387062,27.1590536 89.4191112,28.3965636 91.147843,28.3965636 C92.593406,28.3965636 93.846962,27.4251993 93.846962,26.2082921 M87.8015766,32.4046232 L88.7519282,31.3410536 C89.4394806,31.8422722 90.2582657,32.0874775 91.0770508,32.0874775 C92.280184,32.0874775 93.806557,31.4741265 93.8369442,29.6438682 C93.8369442,29.6030007 93.806557,28.7643715 93.806557,28.723504 C93.2405535,29.2551199 91.9766458,29.6746033 90.8750259,29.6746033 C88.367914,29.6746033 86.8311893,27.8544775 86.8311893,25.6665437 C86.8311893,23.3043318 88.4387062,21.3004709 90.9354664,21.3004709 C92.0173847,21.3004709 92.9573847,21.6686166 93.7965393,22.4251728 C93.806557,22.4251728 93.8265925,21.4436762 93.8265925,21.4436762 L96.8492853,21.4436762 L96.8492853,22.6703781 L95.3229123,22.7011132 C95.3229123,22.7011132 95.33293,28.7849742 95.33293,29.0916497 C95.33293,32.3330205 93.0785996,33.3553848 90.9458181,33.3553848 C89.6922622,33.3553848 88.7519282,33.0794444 87.8015766,32.4046232" id="Fill-58" fill="#FFFFFF"></path>
                    </g>
                </g>
            </g>
        </g>
    </g>
</svg>
