<svg width="482" height="38" viewBox="0 0 482 38" xmlns="http://www.w3.org/2000/svg">
  <g fill="none" fill-rule="evenodd">
    <path d="M33.568 4.227L25.216.14 7.952 7.072l7.94 5.81L0 20.664 16.92 38l16.648-12.182L50.216 38l16.92-17.336-15.89-7.78 7.937-5.81L41.917.138l-8.35 4.087z" fill="#D9E021"/>
    <path d="M25.216.138L7.952 7.073l7.94 5.81 17.676-8.656-8.352-4.09z" fill="#B9C504"/>
    <path d="M33.568 25.818L50.216 38l16.92-17.336-15.89-7.78-17.678 12.934z" fill="#D9E021"/>
    <path d="M51.245 12.884L33.568 25.818V4.228l17.677 8.656z" fill="#B9C504"/>
    <path d="M33.568 4.227v21.59L15.89 12.885 33.57 4.227z" fill="#9DAD01"/>
    <path d="M0 20.664L16.92 38l16.648-12.182L15.89 12.884 0 20.664zM41.916.138l-8.348 4.09 17.676 8.656 7.94-5.81L41.915.137z" fill="#D9E021"/>
    <path d="M90.596 23.996c4.13 0 6.794-3.315 6.794-7.427 0-4.178-2.665-7.493-6.794-7.493-4.095 0-6.777 3.315-6.777 7.492 0 4.11 2.68 7.426 6.776 7.426m0-17.113c6.014 0 9.687 4.29 9.687 9.686 0 5.38-3.673 9.653-9.687 9.653-6.013 0-9.653-4.258-9.653-9.654 0-5.43 3.656-9.687 9.653-9.687m24.826 12.45c0-2.65-1.626-4.698-4.324-4.698-2.437 0-4.306 1.64-4.355 3.82-.016.032-.016 1.917-.016 1.95.13 2.178 1.852 3.72 4.258 3.72 2.828 0 4.437-1.965 4.437-4.793zm-13.54 10.547h2.488v-15.1h-2.29v-1.95h4.744s.065 1.724.08 1.724c1.204-1.284 2.797-1.95 4.552-1.95 4.047 0 6.485 3.04 6.485 6.81 0 3.72-2.567 6.81-6.516 6.81-1.756 0-3.43-.602-4.65-1.724 0 .374.018 5.38.018 5.38l2.65.016v2h-7.56V29.88zm25.314-11.556h4.258c-.34-2.064-1.755-3.852-4.128-3.852-2.617 0-4.128 1.642-4.502 3.852h4.372zm1.12 1.69l-5.557-.032c.34 2.52 1.868 4.21 4.663 4.21 1.69 0 3.3-.618 4.29-1.805l2.08.91c-1.25 1.853-3.558 2.926-6.435 2.926-4.502 0-7.264-3.055-7.264-6.842 0-3.965 3.104-6.776 7.2-6.776 4.306 0 6.5 3.315 6.5 7.102v.276l-5.477.033zm7.762 3.9h2.324v-9.133h-2.422v-1.95h4.81s.033 1.415.066 1.69c1.674-1.3 2.99-1.916 4.6-1.916 2.388 0 3.85 1.61 3.85 4.176 0 .244-.048 7.135-.048 7.135l2.357.033v1.966h-6.534v-1.95h1.79v-6.29c0-1.918-.49-2.99-2.032-2.99-1.48 0-2.828.975-3.982 2.29v6.957h2.356v1.984h-7.134v-2z" fill="#B9C504"/>
    <path d="M162.416 16.57c0-5.738 3.38-9.687 9.28-9.687 2.633 0 4.843 1.007 6.29 2.42V7.176h2.112v5.672h-2.03c-1.253-2.502-3.544-3.77-6.242-3.77-4.096 0-6.533 3.185-6.533 7.41 0 4.178 2.55 7.477 6.63 7.477 2.715 0 5.9-1.122 6.485-4.843l2.194 1.154c-.796 3.592-4.063 5.95-8.857 5.95-5.737 0-9.33-3.934-9.33-9.655m31.7 2.81c0-2.648-1.673-4.696-4.355-4.696-2.65 0-4.323 2.048-4.323 4.697s1.674 4.617 4.323 4.617c2.682 0 4.356-1.967 4.356-4.616m-11.263 0c0-3.753 2.682-6.777 6.94-6.777 4.225 0 6.923 3.024 6.923 6.778s-2.714 6.843-6.956 6.843c-4.225 0-6.907-3.088-6.907-6.842m16.13 4.535h2.324V14.78h-2.422v-1.95h4.81s.033 1.415.066 1.69c1.675-1.3 2.99-1.916 4.6-1.916 2.39 0 3.852 1.61 3.852 4.176 0 .244-.048 7.135-.048 7.135l2.356.033v1.966h-6.533v-1.95h1.787v-6.29c0-1.918-.487-2.99-2.03-2.99-1.48 0-2.83.975-3.983 2.29v6.957h2.358v1.984h-7.135v-2zm16.634-11.084h2.064V10.1l2.406-1.982v4.713h2.65v1.984h-2.65v3.462c0 .666 0 4.29.065 4.518.05.894.554 1.202 1.318 1.202.373 0 .812-.08 1.267-.227v2.063c-.57.146-1.202.26-1.755.26-1.87 0-3.185-.813-3.267-3.12 0 0-.08-3.934-.08-4.567v-3.592h-2.016V12.83zm9.385 11.085h2.617V14.78h-2.715v-1.95h4.6s.08 2.553.113 2.845c.878-2.08 2.503-3.07 4.34-3.07.243 0 1.933.064 1.933.064l-.08 2.274c-.05-.033-1.43-.05-1.593-.05-3.2 0-4.16 1.886-4.16 4.844v4.193h2.86v1.984h-7.915v-2zm21.33-3.722c-.698-.016-1.803-.26-2.973-.26-1.708 0-3.512.342-3.512 2.47 0 1.138.878 2.065 2.47 2.065 1.43 0 3.024-.553 4.015-1.447v-2.827zm-8.775 2.21c0-3.233 2.552-4.127 5.64-4.127 1.007 0 2.08.113 3.136.325v-1.576c0-1.82-1.463-2.503-3.185-2.503-1.333 0-2.39.473-3.007 1.367l-2.274-.634c.99-1.707 2.925-2.65 5.606-2.65 4.096 0 5.282 2.08 5.282 4.307v7.038h2.34v1.966h-4.5s-.017-1.35-.034-1.35c-1.722 1.253-2.957 1.708-4.583 1.708-2.746 0-4.42-1.87-4.42-3.868zm14.813-3.12c0-3.51 2.6-6.68 6.55-6.68 1.414 0 2.926.326 3.673 1.398l.016-1.17h2.16v4.682h-2.096c-.34-1.886-1.365-2.812-3.575-2.812-2.683 0-4.146 1.918-4.146 4.55 0 2.86 1.528 4.876 4.21 4.876 1.74 0 3.17-.73 3.982-2.16l1.966.893c-.99 2.176-3.136 3.363-6.013 3.363-4.763 0-6.73-3.754-6.73-6.94m14.586-6.452h2.064V10.1l2.406-1.982v4.713h2.65v1.984h-2.65v3.462c0 .666 0 4.29.065 4.518.05.894.553 1.202 1.317 1.202.374 0 .813-.08 1.268-.227v2.063c-.57.146-1.203.26-1.755.26-1.87 0-3.186-.813-3.267-3.12 0 0-.08-3.934-.08-4.567v-3.592h-2.017V12.83zm12.685-5.655c.83 0 1.496.618 1.496 1.414 0 .796-.666 1.413-1.495 1.413-.828 0-1.478-.617-1.478-1.414 0-.797.65-1.415 1.48-1.415zM276.26 23.9h2.195v-9.12h-2.195v-1.95h4.616v11.1h2.21v1.984h-6.826V23.9zm8.67.015h2.325V14.78h-2.422v-1.95h4.81s.033 1.415.066 1.69c1.673-1.3 2.99-1.916 4.6-1.916 2.388 0 3.85 1.61 3.85 4.176 0 .244-.048 7.135-.048 7.135l2.356.033v1.966h-6.533v-1.95h1.787v-6.29c0-1.918-.487-2.99-2.03-2.99-1.48 0-2.83.975-3.983 2.29v6.957h2.356v1.984h-7.135v-2zm28.288-3.51v-2.032c-.082-2.064-1.918-3.624-4.29-3.624-2.73 0-4.405 2.128-4.405 4.728 0 2.438 1.576 4.405 4.355 4.405 2.324 0 4.34-1.544 4.34-3.478m-9.72 9.85l1.53-1.692c1.104.797 2.42 1.187 3.736 1.187 1.935 0 4.39-.975 4.437-3.885 0-.065-.047-1.397-.047-1.462-.91.845-2.942 1.51-4.714 1.51-4.03 0-6.5-2.892-6.5-6.37 0-3.754 2.583-6.94 6.597-6.94 1.74 0 3.25.586 4.6 1.788.016 0 .048-1.56.048-1.56h4.86v1.95l-2.454.05.017 10.158c0 5.152-3.624 6.777-7.054 6.777-2.015 0-3.526-.44-5.054-1.51" fill="#FFF"/>
    <path d="M333.933 16.537h2.893c3.527 0 4.47-1.61 4.47-3.74 0-2.322-1.366-3.574-3.674-3.574h-3.69v7.314zm-5.055 7.313h2.454V9.19h-2.454V7.176h8.663c5.185 0 6.437 3.12 6.437 5.656 0 4.6-3.202 5.738-7.64 5.738h-2.372v5.298h2.568v2.048h-7.655V23.85zm25.72-3.657c-.7-.016-1.805-.26-2.975-.26-1.706 0-3.51.342-3.51 2.47 0 1.138.877 2.065 2.47 2.065 1.43 0 3.023-.553 4.014-1.447v-2.827zm-8.777 2.21c0-3.233 2.553-4.127 5.64-4.127 1.008 0 2.08.113 3.137.325v-1.576c0-1.82-1.462-2.503-3.185-2.503-1.333 0-2.39.473-3.007 1.367l-2.275-.634c.99-1.707 2.925-2.65 5.607-2.65 4.095 0 5.282 2.08 5.282 4.307v7.038h2.34v1.966h-4.503s-.016-1.35-.032-1.35c-1.723 1.253-2.958 1.708-4.583 1.708-2.747 0-4.42-1.87-4.42-3.868zm14.928 1.512h2.617V14.78h-2.714v-1.95h4.6s.08 2.553.114 2.845c.878-2.08 2.503-3.07 4.34-3.07.243 0 1.933.064 1.933.064l-.08 2.274c-.05-.033-1.43-.05-1.594-.05-3.2 0-4.16 1.886-4.16 4.844v4.193h2.86v1.984h-7.915v-2zm12.23-11.084h2.064V10.1l2.405-1.982v4.713h2.65v1.984h-2.65v3.462c0 .666 0 4.29.065 4.518.05.894.553 1.202 1.317 1.202.372 0 .81-.08 1.266-.227v2.063c-.57.146-1.202.26-1.755.26-1.868 0-3.184-.813-3.266-3.12 0 0-.08-3.934-.08-4.567v-3.592h-2.016V12.83zm9.37 11.085h2.323V14.78h-2.42v-1.95h4.81s.033 1.415.065 1.69c1.674-1.3 2.99-1.916 4.6-1.916 2.39 0 3.85 1.61 3.85 4.176 0 .244-.047 7.135-.047 7.135l2.356.033v1.966h-6.533v-1.95h1.788v-6.29c0-1.918-.487-2.99-2.03-2.99-1.48 0-2.83.975-3.983 2.29v6.957h2.357v1.984h-7.135v-2zm24.06-5.59h4.258c-.34-2.065-1.755-3.853-4.128-3.853-2.616 0-4.128 1.642-4.502 3.852h4.372zm1.122 1.69l-5.56-.033c.343 2.52 1.87 4.21 4.666 4.21 1.69 0 3.3-.618 4.29-1.805l2.08.91c-1.25 1.853-3.56 2.926-6.435 2.926-4.5 0-7.264-3.055-7.264-6.842 0-3.965 3.104-6.776 7.2-6.776 4.307 0 6.5 3.315 6.5 7.102v.276l-5.476.033zm7.776 3.9h2.617V14.78h-2.715v-1.95h4.6s.08 2.553.114 2.845c.877-2.08 2.503-3.07 4.34-3.07.243 0 1.933.064 1.933.064l-.08 2.274c-.05-.033-1.43-.05-1.594-.05-3.2 0-4.16 1.886-4.16 4.844v4.193h2.86v1.984h-7.914v-2zm12.912-2.275h2.097c-.017.065-.017.13-.017.21 0 1.513 1.414 2.44 3.43 2.44 1.87 0 2.974-.7 2.974-1.903 0-1.35-1.17-1.625-2.893-1.852-2.34-.31-5.624-1.024-5.624-4.145 0-2.16 1.9-3.786 4.826-3.786 1.268 0 2.455.276 3.3.682.016.016.08-.455.08-.455h2.05v4.162h-2.05s-.048-.91-.048-1.09c-.764-.926-1.82-1.397-3.234-1.397-1.593 0-2.633.683-2.633 1.788 0 1.446 1.983 1.61 4.274 1.983 2.407.406 4.438 1.284 4.438 3.933 0 2.388-2.015 4.013-5.184 4.013-1.495 0-2.65-.293-3.624-.96l-.033.65h-2.13V21.64zm12.57 2.275h2.47V9.142h-2.437V7.175h4.877s-.016 6.452-.016 6.94c1.43-1.024 2.877-1.51 4.454-1.51 2.584 0 3.998 1.478 3.998 4.273l-.016 7.037 2.34.033v1.966h-6.403v-1.966h1.657v-6.615c0-1.495-.422-2.828-2.112-2.828-1.17 0-2.633.536-3.917 1.48v7.946h2.357v1.984h-7.248v-2zm20.535-16.74c.83 0 1.496.618 1.496 1.414 0 .796-.668 1.413-1.497 1.413-.828 0-1.48-.617-1.48-1.414 0-.797.652-1.415 1.48-1.415zm-3.38 16.724h2.194v-9.12h-2.194v-1.95h4.615v11.1h2.21v1.984h-6.825V23.9z M479.34 19.332c0-2.65-1.626-4.697-4.324-4.697-2.438 0-4.307 1.64-4.356 3.82-.016.032-.016 1.917-.016 1.95.13 2.178 1.852 3.72 4.258 3.72 2.828 0 4.437-1.965 4.437-4.793zM465.8 29.88h2.487v-15.1h-2.29v-1.95h4.744s.066 1.724.083 1.724c1.202-1.284 2.795-1.95 4.55-1.95 4.047 0 6.485 3.04 6.485 6.81 0 3.72-2.568 6.81-6.517 6.81-1.755 0-3.428-.602-4.648-1.724 0 .374.017 5.38.017 5.38l2.648.016v2H465.8V29.88z" fill="#B9C504"/>
  </g>
</svg>
