<svg width="482px" height="38px" viewBox="0 0 482 38" version="1.1" xmlns="http://www.w3.org/2000/svg" xmlns:xlink="http://www.w3.org/1999/xlink" xmlns:sketch="http://www.bohemiancoding.com/sketch/ns">
    <defs>
        <path id="path-1" d="M0,38 L481.856642,38 L481.856642,0.138408759 L0,0.138408759 L0,38 Z"></path>
    </defs>
    <g id="Page-1" stroke="none" stroke-width="1" fill="none" fill-rule="evenodd" sketch:type="MSPage">
        <g id="OCP-Logo" sketch:type="MSLayerGroup">
            <path d="M33.5676745,4.22687591 L25.2159956,0.138686131 L7.95234599,7.07271533 L15.8907401,12.8836642 L8.32116784e-05,20.6639562 L16.9197912,37.9997226 L33.5676745,25.8175328 L50.2155577,37.9997226 L67.1349883,20.6639562 L51.2446088,12.8836642 L59.1830029,7.07271533 L41.9165796,0.138686131 L33.5676745,4.22687591 Z" id="Fill-1" fill="#D9E021" sketch:type="MSShapeGroup"></path>
            <path d="M25.2158847,0.138353285 L7.95223504,7.07265985 L15.8909066,12.8836088 L33.5675635,4.22682044 L25.2158847,0.138353285 Z" id="Fill-2" fill="#B9C504" sketch:type="MSShapeGroup"></path>
            <path d="M33.5676745,25.8175606 L50.2155577,37.9997504 L67.1349883,20.6639839 L51.2446088,12.883692 L33.5676745,25.8175606 Z" id="Fill-3" fill="#D9E021" sketch:type="MSShapeGroup"></path>
            <path d="M51.2445255,12.8837197 L33.5675912,25.8175883 L33.5675912,4.22693139 L51.2445255,12.8837197 Z" id="Fill-4" fill="#B9C504" sketch:type="MSShapeGroup"></path>
            <path d="M33.5675912,4.22693139 L33.5675912,25.8175883 L15.8906569,12.8837197 L33.5675912,4.22693139 Z" id="Fill-5" fill="#9DAD01" sketch:type="MSShapeGroup"></path>
            <path d="M0,20.6638453 L16.919708,37.9998891 L33.5675912,25.8176993 L15.8906569,12.884108 L0,20.6638453 Z" id="Fill-6" fill="#D9E021" sketch:type="MSShapeGroup"></path>
            <path d="M41.9164686,0.138353285 L33.5675635,4.22682044 L51.2444978,12.8836088 L59.182892,7.07265985 L41.9164686,0.138353285 Z" id="Fill-7" fill="#D9E021" sketch:type="MSShapeGroup"></path>
            <g id="Group-61">
                <path d="M90.5964934,23.9963898 C94.7246248,23.9963898 97.3898949,20.6809591 97.3898949,16.5691927 C97.3898949,12.3922438 94.7246248,9.07681314 90.5964934,9.07681314 C86.5008146,9.07681314 83.8191796,12.3922438 83.8191796,16.5691927 C83.8191796,20.6809591 86.5008146,23.9963898 90.5964934,23.9963898 M90.5964934,6.88279854 C96.6099241,6.88279854 100.282888,11.1734701 100.282888,16.5691927 C100.282888,21.9485504 96.6099241,26.2228569 90.5964934,26.2228569 C84.5830628,26.2228569 80.9425518,21.9649153 80.9425518,16.5691927 C80.9425518,11.1407401 84.5994277,6.88279854 90.5964934,6.88279854" id="Fill-8" fill="#B9C504" sketch:type="MSShapeGroup"></path>
                <path d="M115.421588,19.3319869 C115.421588,16.6828044 113.796464,14.634965 111.098464,14.634965 C108.660639,14.634965 106.791705,16.276454 106.742888,18.454381 C106.726523,18.4868336 106.726523,20.3721328 106.726523,20.4045854 C106.85661,22.5825124 108.579369,24.1263664 110.984742,24.1263664 C113.812552,24.1263664 115.421588,22.1597971 115.421588,19.3319869 L115.421588,19.3319869 Z M101.883326,29.8796219 L104.369968,29.8796219 L104.369968,22.2898847 L104.369968,14.7814175 L102.078596,14.7814175 L102.078596,12.8312131 L106.824158,12.8312131 C106.824158,12.8312131 106.889063,14.5536949 106.905428,14.5536949 C108.108114,13.2700161 109.700785,12.6034905 111.455997,12.6034905 C115.502858,12.6034905 117.940683,15.6426584 117.940683,19.4132569 C117.940683,23.135038 115.372771,26.2230234 111.423545,26.2230234 C109.668333,26.2230234 107.994391,25.6216803 106.77534,24.5002642 C106.77534,24.8738847 106.791705,29.8796219 106.791705,29.8796219 L109.440888,29.8959869 L109.440888,31.8950088 L101.883326,31.8950088 L101.883326,29.8796219 Z" id="Fill-10" fill="#B9C504" sketch:type="MSShapeGroup"></path>
                <path d="M127.195958,18.3243489 L131.454177,18.3243489 C131.112731,16.2604219 129.698688,14.4724803 127.326045,14.4724803 C124.709315,14.4724803 123.197914,16.1139693 122.824016,18.3243489 L127.195958,18.3243489 Z M128.317374,20.0146555 L122.759111,19.9822029 C123.100279,22.5012978 124.628045,24.191327 127.423403,24.191327 C129.113709,24.191327 130.722746,23.5738964 131.714074,22.3872978 L133.794366,23.2976336 C132.542863,25.1502029 130.235126,26.2230788 127.358498,26.2230788 C122.856469,26.2230788 120.093841,23.167546 120.093841,19.3808599 C120.093841,15.4152686 123.197914,12.603546 127.293593,12.603546 C131.600352,12.603546 133.794366,15.9189766 133.794366,19.7056628 L133.794366,19.9822029 L128.317374,20.0146555 Z" id="Fill-12" fill="#B9C504" sketch:type="MSShapeGroup"></path>
                <path d="M136.077556,23.9151197 L138.401658,23.9151197 L138.401658,14.7812511 L135.979921,14.7812511 L135.979921,12.8310467 L140.790666,12.8310467 C140.790666,12.8310467 140.823118,14.2450905 140.855848,14.5213533 C142.52979,13.2210321 143.846199,12.6036015 145.455235,12.6036015 C147.844242,12.6036015 149.306826,14.212638 149.306826,16.780273 C149.306826,17.0240832 149.258286,23.9151197 149.258286,23.9151197 L151.614841,23.9475723 L151.614841,25.9141416 L145.081337,25.9141416 L145.081337,23.9639372 L146.869001,23.9639372 L146.869001,17.6742438 C146.869001,15.756492 146.381381,14.6838934 144.837527,14.6838934 C143.358578,14.6838934 142.009717,15.6588569 140.855848,16.9752657 L140.855848,23.9314847 L143.212403,23.9314847 L143.212403,25.9141416 L136.077556,25.9141416 L136.077556,23.9151197 Z" id="Fill-14" fill="#B9C504" sketch:type="MSShapeGroup"></path>
                <path d="M162.415994,16.5690818 C162.415994,10.8319139 165.796607,6.88268759 171.696038,6.88268759 C174.328855,6.88268759 176.539235,7.89038102 177.985731,9.30442482 L177.985731,7.17531533 L180.098476,7.17531533 L180.098476,12.8473007 L178.067001,12.8473007 C176.815498,10.3445708 174.523848,9.07670219 171.826126,9.07670219 C167.730447,9.07670219 165.292622,12.2623226 165.292622,16.4878117 C165.292622,20.6647606 167.844169,23.9638263 171.923483,23.9638263 C174.637848,23.9638263 177.823191,22.8424102 178.408169,19.1206292 L180.602184,20.2744978 C179.805848,23.8664686 176.539235,26.2230234 171.744855,26.2230234 C166.007688,26.2230234 162.415994,22.2898847 162.415994,16.5690818" id="Fill-16" fill="#FFFFFF" sketch:type="MSShapeGroup"></path>
                <path d="M194.115816,19.3807489 C194.115816,16.7315664 192.441874,14.683727 189.760239,14.683727 C187.111057,14.683727 185.437115,16.7315664 185.437115,19.3807489 C185.437115,22.0299314 187.111057,23.9965007 189.760239,23.9965007 C192.441874,23.9965007 194.115816,22.0299314 194.115816,19.3807489 M182.853115,19.3807489 C182.853115,15.6265153 185.53475,12.603435 189.792692,12.603435 C194.018181,12.603435 196.716181,15.6265153 196.716181,19.3807489 C196.716181,23.1349825 194.002093,26.2229679 189.760239,26.2229679 C185.53475,26.2229679 182.853115,23.1349825 182.853115,19.3807489" id="Fill-18" fill="#FFFFFF" sketch:type="MSShapeGroup"></path>
                <path d="M198.982812,23.9151197 L201.306914,23.9151197 L201.306914,14.7812511 L198.885177,14.7812511 L198.885177,12.8310467 L203.695921,12.8310467 C203.695921,12.8310467 203.728374,14.2450905 203.761104,14.5213533 C205.435045,13.2210321 206.751454,12.6036015 208.360491,12.6036015 C210.749498,12.6036015 212.212082,14.212638 212.212082,16.780273 C212.212082,17.0240832 212.163542,23.9151197 212.163542,23.9151197 L214.520096,23.9475723 L214.520096,25.9141416 L207.986593,25.9141416 L207.986593,23.9639372 L209.774257,23.9639372 L209.774257,17.6742438 C209.774257,15.756492 209.286636,14.6838934 207.742782,14.6838934 C206.263834,14.6838934 204.914972,15.6588569 203.761104,16.9752657 L203.761104,23.9314847 L206.117658,23.9314847 L206.117658,25.9141416 L198.982812,25.9141416 L198.982812,23.9151197 Z" id="Fill-20" fill="#FFFFFF" sketch:type="MSShapeGroup"></path>
                <path d="M215.616771,12.8310745 L217.680698,12.8310745 L217.680698,10.1006219 L220.08607,8.11796496 L220.08607,12.8310745 L222.735253,12.8310745 L222.735253,14.8137314 L220.08607,14.8137314 L220.08607,18.2756146 C220.08607,18.9418628 220.08607,22.5662861 220.151253,22.7937314 C220.199793,23.6877022 220.703778,23.9964175 221.467661,23.9964175 C221.841282,23.9964175 222.280085,23.9151474 222.735253,23.7689723 L222.735253,25.8328993 C222.166362,25.9790745 221.532566,26.0930745 220.980041,26.0930745 C219.111107,26.0930745 217.794698,25.2803737 217.713428,22.9726365 C217.713428,22.9726365 217.632158,19.0394978 217.632158,18.4057022 L217.632158,14.8137314 L215.616771,14.8137314 L215.616771,12.8310745 Z" id="Fill-22" fill="#FFFFFF" sketch:type="MSShapeGroup"></path>
                <path d="M225.002188,23.9151197 L227.618918,23.9151197 L227.618918,14.7812511 L224.904553,14.7812511 L224.904553,12.8310467 L229.50394,12.8310467 C229.50394,12.8310467 229.58521,15.3825942 229.61794,15.6752219 C230.495546,13.5949299 232.12067,12.6036015 233.957152,12.6036015 C234.200962,12.6036015 235.891269,12.6685066 235.891269,12.6685066 L235.809999,14.9437912 C235.761181,14.9113387 234.379867,14.8949737 234.217327,14.8949737 C231.015619,14.8949737 230.056743,16.780273 230.056743,19.7381708 L230.056743,23.9314847 L232.917006,23.9314847 L232.917006,25.9141416 L225.002188,25.9141416 L225.002188,23.9151197 Z" id="Fill-24" fill="#FFFFFF" sketch:type="MSShapeGroup"></path>
                <path d="M246.333031,20.1933664 C245.634053,20.1770015 244.529001,19.9334686 243.358768,19.9334686 C241.652374,19.9334686 239.848345,20.2746365 239.848345,22.403746 C239.848345,23.5412496 240.72595,24.467673 242.318622,24.467673 C243.749031,24.467673 245.341702,23.9151474 246.333031,23.0211766 L246.333031,20.1933664 Z M237.556695,22.403746 C237.556695,19.1695854 240.10852,18.2756146 243.196228,18.2756146 C244.203921,18.2756146 245.27652,18.3893372 246.333031,18.6006949 L246.333031,17.0241109 C246.333031,15.2039942 244.870447,14.521381 243.147688,14.521381 C241.814914,14.521381 240.758403,14.9926365 240.140972,15.8866073 L237.865688,15.2528117 C238.857016,13.5461401 240.791133,12.6036292 243.472491,12.6036292 C247.568169,12.6036292 248.754491,14.6839212 248.754491,16.9103883 L248.754491,23.9476 L251.094958,23.9476 L251.094958,25.9141693 L246.592928,25.9141693 C246.592928,25.9141693 246.576841,24.565308 246.560476,24.565308 C244.837717,25.8165343 243.602578,26.2717022 241.977454,26.2717022 C239.230914,26.2717022 237.556695,24.4027679 237.556695,22.403746 L237.556695,22.403746 Z" id="Fill-26" fill="#FFFFFF" sketch:type="MSShapeGroup"></path>
                <path d="M252.370482,19.2832248 C252.370482,15.7728015 254.970847,12.603546 258.920073,12.603546 C260.334117,12.603546 261.845518,12.9286263 262.593036,14.0012248 L262.609401,12.8309912 L264.770964,12.8309912 L264.770964,17.5116482 L262.674307,17.5116482 C262.333139,15.6263489 261.309358,14.7002029 259.098978,14.7002029 C256.417343,14.7002029 254.954482,16.6179547 254.954482,19.2507723 C254.954482,22.111035 256.482248,24.1264219 259.163883,24.1264219 C260.903007,24.1264219 262.333139,23.3949912 263.145839,21.9648599 L265.112409,22.8588307 C264.120803,25.0364803 261.975606,26.2230788 259.098978,26.2230788 C254.337051,26.2230788 252.370482,22.4685679 252.370482,19.2832248" id="Fill-28" fill="#FFFFFF" sketch:type="MSShapeGroup"></path>
                <path d="M266.956352,12.8310745 L269.020279,12.8310745 L269.020279,10.1006219 L271.425651,8.11796496 L271.425651,12.8310745 L274.074834,12.8310745 L274.074834,14.8137314 L271.425651,14.8137314 L271.425651,18.2756146 C271.425651,18.9418628 271.425651,22.5662861 271.490834,22.7937314 C271.539374,23.6877022 272.043359,23.9964175 272.807242,23.9964175 C273.180863,23.9964175 273.619666,23.9151474 274.074834,23.7689723 L274.074834,25.8328993 C273.505943,25.9790745 272.872147,26.0930745 272.319622,26.0930745 C270.450688,26.0930745 269.134279,25.2803737 269.053009,22.9726365 C269.053009,22.9726365 268.971739,19.0394978 268.971739,18.4057022 L268.971739,14.8137314 L266.956352,14.8137314 L266.956352,12.8310745 Z" id="Fill-30" fill="#FFFFFF" sketch:type="MSShapeGroup"></path>
                <path d="M279.641001,7.17528759 C280.46979,7.17528759 281.136315,7.79299562 281.136315,8.58933139 C281.136315,9.38566715 280.46979,10.0030978 279.641001,10.0030978 C278.812213,10.0030978 278.162053,9.38566715 278.162053,8.58933139 C278.162053,7.79299562 278.812213,7.17528759 279.641001,7.17528759 L279.641001,7.17528759 Z M276.260388,23.8988934 L278.45468,23.8988934 L278.45468,14.7813898 L276.260388,14.7813898 L276.260388,12.8311854 L280.87614,12.8311854 L280.87614,23.931346 L283.08652,23.931346 L283.08652,25.9142803 L276.260388,25.9142803 L276.260388,23.8988934 Z" id="Fill-32" fill="#FFFFFF" sketch:type="MSShapeGroup"></path>
                <path d="M284.930823,23.9151197 L287.254926,23.9151197 L287.254926,14.7812511 L284.833188,14.7812511 L284.833188,12.8310467 L289.643933,12.8310467 C289.643933,12.8310467 289.676385,14.2450905 289.709115,14.5213533 C291.383057,13.2210321 292.699466,12.6036015 294.308502,12.6036015 C296.697509,12.6036015 298.160093,14.212638 298.160093,16.780273 C298.160093,17.0240832 298.111553,23.9151197 298.111553,23.9151197 L300.468108,23.9475723 L300.468108,25.9141416 L293.934604,25.9141416 L293.934604,23.9639372 L295.722269,23.9639372 L295.722269,17.6742438 C295.722269,15.756492 295.234648,14.6838934 293.690794,14.6838934 C292.211845,14.6838934 290.862984,15.6588569 289.709115,16.9752657 L289.709115,23.9314847 L292.06567,23.9314847 L292.06567,25.9141416 L284.930823,25.9141416 L284.930823,23.9151197 Z" id="Fill-34" fill="#FFFFFF" sketch:type="MSShapeGroup"></path>
                <path d="M313.217663,20.4046409 L313.217663,18.3731664 C313.136393,16.308962 311.299911,14.7487431 308.926991,14.7487431 C306.196816,14.7487431 304.522597,16.8778526 304.522597,19.4782175 C304.522597,21.9160423 306.099181,23.8826117 308.878174,23.8826117 C311.202276,23.8826117 313.217663,22.3387577 313.217663,20.4046409 M303.498816,30.2535752 L305.026582,28.5632686 C306.131634,29.3596044 307.448042,29.7495898 308.764451,29.7495898 C310.698568,29.7495898 313.152758,28.7746263 313.201298,25.8652686 C313.201298,25.8003635 313.152758,24.4675898 313.152758,24.4026847 C312.242422,25.247838 310.210947,25.9140861 308.439371,25.9140861 C304.408874,25.9140861 301.938597,23.0213708 301.938597,19.5434 C301.938597,15.7888891 304.522597,12.603546 308.537006,12.603546 C310.27613,12.603546 311.787531,13.1885241 313.136393,14.3912102 C313.152758,14.3912102 313.18521,12.8309912 313.18521,12.8309912 L318.044495,12.8309912 L318.044495,14.781473 L315.590582,14.8300131 C315.590582,14.8300131 315.60667,24.5003197 315.60667,24.9876628 C315.60667,30.1398526 311.982524,31.7649766 308.553371,31.7649766 C306.537984,31.7649766 305.026582,31.3261737 303.498816,30.2535752" id="Fill-36" fill="#FFFFFF" sketch:type="MSShapeGroup"></path>
                <path d="M333.932794,16.5366015 L336.825787,16.5366015 C340.352575,16.5366015 341.295086,14.927565 341.295086,12.7984555 C341.295086,10.4746307 339.92986,9.22312701 337.622123,9.22312701 L333.932794,9.22312701 L333.932794,16.5366015 Z M328.878239,23.8500759 L331.332429,23.8500759 L331.332429,16.5366015 L331.332429,9.19067445 L328.878239,9.19067445 L328.878239,7.17528759 L337.540853,7.17528759 C342.725218,7.17528759 343.976721,10.2957255 343.976721,12.8311854 C343.976721,17.4305723 340.775013,18.5680759 336.338166,18.5680759 L333.965247,18.5680759 L333.965247,23.8664409 L336.533159,23.8664409 L336.533159,25.9142803 L328.878239,25.9142803 L328.878239,23.8500759 Z" id="Fill-38" fill="#B9C504" sketch:type="MSShapeGroup"></path>
                <path d="M354.597305,20.1933664 C353.898327,20.1770015 352.793276,19.9334686 351.623042,19.9334686 C349.916648,19.9334686 348.112619,20.2746365 348.112619,22.403746 C348.112619,23.5412496 348.990225,24.467673 350.582896,24.467673 C352.013305,24.467673 353.605977,23.9151474 354.597305,23.0211766 L354.597305,20.1933664 Z M345.820969,22.403746 C345.820969,19.1695854 348.372794,18.2756146 351.460502,18.2756146 C352.468196,18.2756146 353.540794,18.3893372 354.597305,18.6006949 L354.597305,17.0241109 C354.597305,15.2039942 353.134721,14.521381 351.411962,14.521381 C350.079188,14.521381 349.022677,14.9926365 348.405247,15.8866073 L346.129962,15.2528117 C347.121291,13.5461401 349.055407,12.6036292 351.736765,12.6036292 C355.832444,12.6036292 357.018765,14.6839212 357.018765,16.9103883 L357.018765,23.9476 L359.359232,23.9476 L359.359232,25.9141693 L354.857203,25.9141693 C354.857203,25.9141693 354.841115,24.565308 354.82475,24.565308 C353.101991,25.8165343 351.866853,26.2717022 350.241728,26.2717022 C347.495188,26.2717022 345.820969,24.4027679 345.820969,22.403746 L345.820969,22.403746 Z" id="Fill-40" fill="#B9C504" sketch:type="MSShapeGroup"></path>
                <path d="M360.748257,23.9151197 L363.364987,23.9151197 L363.364987,14.7812511 L360.650622,14.7812511 L360.650622,12.8310467 L365.250009,12.8310467 C365.250009,12.8310467 365.331279,15.3825942 365.364009,15.6752219 C366.241615,13.5949299 367.866739,12.6036015 369.70322,12.6036015 C369.947031,12.6036015 371.637337,12.6685066 371.637337,12.6685066 L371.556067,14.9437912 C371.50725,14.9113387 370.125936,14.8949737 369.963396,14.8949737 C366.761688,14.8949737 365.802812,16.780273 365.802812,19.7381708 L365.802812,23.9314847 L368.663074,23.9314847 L368.663074,25.9141416 L360.748257,25.9141416 L360.748257,23.9151197 Z" id="Fill-42" fill="#B9C504" sketch:type="MSShapeGroup"></path>
                <path d="M372.977822,12.8310745 L375.041749,12.8310745 L375.041749,10.1006219 L377.447121,8.11796496 L377.447121,12.8310745 L380.096304,12.8310745 L380.096304,14.8137314 L377.447121,14.8137314 L377.447121,18.2756146 C377.447121,18.9418628 377.447121,22.5662861 377.512304,22.7937314 C377.560844,23.6877022 378.064829,23.9964175 378.828712,23.9964175 C379.202333,23.9964175 379.641136,23.9151474 380.096304,23.7689723 L380.096304,25.8328993 C379.527413,25.9790745 378.893618,26.0930745 378.341092,26.0930745 C376.472158,26.0930745 375.155749,25.2803737 375.074479,22.9726365 C375.074479,22.9726365 374.993209,19.0394978 374.993209,18.4057022 L374.993209,14.8137314 L372.977822,14.8137314 L372.977822,12.8310745 Z" id="Fill-44" fill="#B9C504" sketch:type="MSShapeGroup"></path>
                <path d="M382.346985,23.9151197 L384.671088,23.9151197 L384.671088,14.7812511 L382.24935,14.7812511 L382.24935,12.8310467 L387.060095,12.8310467 C387.060095,12.8310467 387.092547,14.2450905 387.125277,14.5213533 C388.799219,13.2210321 390.115628,12.6036015 391.724664,12.6036015 C394.113672,12.6036015 395.576255,14.212638 395.576255,16.780273 C395.576255,17.0240832 395.527715,23.9151197 395.527715,23.9151197 L397.88427,23.9475723 L397.88427,25.9141416 L391.350766,25.9141416 L391.350766,23.9639372 L393.138431,23.9639372 L393.138431,17.6742438 C393.138431,15.756492 392.65081,14.6838934 391.106956,14.6838934 C389.628007,14.6838934 388.279146,15.6588569 387.125277,16.9752657 L387.125277,23.9314847 L389.481832,23.9314847 L389.481832,25.9141416 L382.346985,25.9141416 L382.346985,23.9151197 Z" id="Fill-46" fill="#B9C504" sketch:type="MSShapeGroup"></path>
                <path d="M406.408225,18.3243489 L410.666444,18.3243489 C410.324999,16.2604219 408.910955,14.4724803 406.538312,14.4724803 C403.921582,14.4724803 402.410181,16.1139693 402.036283,18.3243489 L406.408225,18.3243489 Z M407.529641,20.0146555 L401.971378,19.9822029 C402.312546,22.5012978 403.840312,24.191327 406.63567,24.191327 C408.325977,24.191327 409.935013,23.5738964 410.926342,22.3872978 L413.006634,23.2976336 C411.75513,25.1502029 409.447393,26.2230788 406.570765,26.2230788 C402.068736,26.2230788 399.306108,23.167546 399.306108,19.3808599 C399.306108,15.4152686 402.410181,12.603546 406.50586,12.603546 C410.812619,12.603546 413.006634,15.9189766 413.006634,19.7056628 L413.006634,19.9822029 L407.529641,20.0146555 Z" id="Fill-48" fill="#B9C504" sketch:type="MSShapeGroup"></path>
                <path d="M415.306077,23.9151197 L417.922807,23.9151197 L417.922807,14.7812511 L415.208442,14.7812511 L415.208442,12.8310467 L419.807829,12.8310467 C419.807829,12.8310467 419.889099,15.3825942 419.921829,15.6752219 C420.799435,13.5949299 422.424559,12.6036015 424.261041,12.6036015 C424.504851,12.6036015 426.195158,12.6685066 426.195158,12.6685066 L426.113888,14.9437912 C426.06507,14.9113387 424.683756,14.8949737 424.521216,14.8949737 C421.319508,14.8949737 420.360632,16.780273 420.360632,19.7381708 L420.360632,23.9314847 L423.220895,23.9314847 L423.220895,25.9141416 L415.306077,25.9141416 L415.306077,23.9151197 Z" id="Fill-50" fill="#B9C504" sketch:type="MSShapeGroup"></path>
                <path d="M428.217978,21.6398073 L430.314635,21.6398073 C430.29827,21.7047124 430.29827,21.7698949 430.29827,21.851165 C430.29827,23.3625664 431.712314,24.2889898 433.727423,24.2889898 C435.596635,24.2889898 436.701686,23.5900117 436.701686,22.3873255 C436.701686,21.0384642 435.531453,20.7622015 433.808693,20.5347562 C431.468504,20.2257635 428.185526,19.5106978 428.185526,16.3902599 C428.185526,14.2286978 430.086912,12.6035737 433.012358,12.6035737 C434.279949,12.6035737 435.466547,12.8798365 436.311701,13.2861869 C436.327788,13.3022745 436.392971,12.831019 436.392971,12.831019 L438.440533,12.831019 L438.440533,16.9916029 L436.392971,16.9916029 C436.392971,16.9916029 436.344153,16.0815445 436.344153,15.9026394 C435.58027,14.9764934 434.523759,14.5049606 433.109993,14.5049606 C431.517321,14.5049606 430.477175,15.1875737 430.477175,16.2929022 C430.477175,17.7391212 432.459832,17.9016613 434.751482,18.2755591 C437.156854,18.6819095 439.188328,19.5595153 439.188328,22.2086978 C439.188328,24.5977051 437.172942,26.2228292 434.003686,26.2228292 C432.50865,26.2228292 431.354781,25.9304788 430.37954,25.2639533 L430.347088,25.9141139 L428.217978,25.9141139 L428.217978,21.6398073 Z" id="Fill-52" fill="#B9C504" sketch:type="MSShapeGroup"></path>
                <path d="M440.78885,23.9151197 L443.259127,23.9151197 L443.259127,16.5364628 L443.259127,9.14171825 L440.821302,9.14171825 L440.821302,7.17514891 L445.696952,7.17514891 C445.696952,7.17514891 445.680864,13.6273825 445.680864,14.1150029 C447.110996,13.0912219 448.557492,12.6036015 450.133799,12.6036015 C452.718076,12.6036015 454.131842,14.0825504 454.131842,16.877908 C454.131842,17.0892657 454.115755,23.9151197 454.115755,23.9151197 L456.455945,23.9475723 L456.455945,25.9141416 L450.052528,25.9141416 L450.052528,23.9475723 L451.710382,23.9475723 L451.710382,17.3330759 C451.710382,15.837762 451.287945,14.5049883 449.597638,14.5049883 C448.427404,14.5049883 446.96482,15.0414263 445.680864,15.9839372 L445.680864,23.9314847 L448.037419,23.9314847 L448.037419,25.9141416 L440.78885,25.9141416 L440.78885,23.9151197 Z" id="Fill-54" fill="#B9C504" sketch:type="MSShapeGroup"></path>
                <path d="M461.323328,7.17528759 C462.152117,7.17528759 462.818642,7.79299562 462.818642,8.58933139 C462.818642,9.38566715 462.152117,10.0030978 461.323328,10.0030978 C460.49454,10.0030978 459.84438,9.38566715 459.84438,8.58933139 C459.84438,7.79299562 460.49454,7.17528759 461.323328,7.17528759 L461.323328,7.17528759 Z M457.942715,23.8988934 L460.137007,23.8988934 L460.137007,14.7813898 L457.942715,14.7813898 L457.942715,12.8311854 L462.558467,12.8311854 L462.558467,23.931346 L464.768847,23.931346 L464.768847,25.9142803 L457.942715,25.9142803 L457.942715,23.8988934 Z" id="Fill-56" fill="#B9C504" sketch:type="MSShapeGroup"></path>
                <g id="Group-60">
                    <mask id="mask-2" sketch:name="Clip 59" fill="white">
                        <use xlink:href="#path-1"></use>
                    </mask>
                    <g id="Clip-59"></g>
                    <path d="M479.338712,19.3319869 C479.338712,16.6828044 477.713588,14.634965 475.015588,14.634965 C472.577764,14.634965 470.708829,16.276454 470.660012,18.454381 C470.643647,18.4868336 470.643647,20.3721328 470.643647,20.4045854 C470.773734,22.5825124 472.496493,24.1263664 474.901866,24.1263664 C477.729676,24.1263664 479.338712,22.1597971 479.338712,19.3319869 L479.338712,19.3319869 Z M465.80045,29.8796219 L468.287092,29.8796219 L468.287092,22.2898847 L468.287092,14.7814175 L465.99572,14.7814175 L465.99572,12.8312131 L470.741282,12.8312131 C470.741282,12.8312131 470.806187,14.5536949 470.822552,14.5536949 C472.025238,13.2700161 473.617909,12.6034905 475.373121,12.6034905 C479.419982,12.6034905 481.857807,15.6426584 481.857807,19.4132569 C481.857807,23.135038 479.289895,26.2230234 475.340669,26.2230234 C473.585457,26.2230234 471.911515,25.6216803 470.692464,24.5002642 C470.692464,24.8738847 470.708829,29.8796219 470.708829,29.8796219 L473.358012,29.8959869 L473.358012,31.8950088 L465.80045,31.8950088 L465.80045,29.8796219 Z" id="Fill-58" fill="#B9C504" sketch:type="MSShapeGroup" mask="url(#mask-2)"></path>
                </g>
            </g>
        </g>
    </g>
</svg>
