<svg xmlns="http://www.w3.org/2000/svg" viewBox="0 0 16 16">
  <path fill="inherit" d="M15.67 7.67a.33.33 0 1 1 0 .66H13v4.34h2.67a.33.33 0 1 1 0 .66H13v2.34a.33.33 0 1 1-.67 0v-2.34h-4v2.34a.33.33 0 1 1-.66 0v-2.34H3.33v2.34a.33.33 0 1 1-.66 0v-2.34H.33a.33.33 0 1 1 0-.66h2.34V8.33H.33a.33.33 0 1 1 0-.66h2.34V3.33H.33a.33.33 0 1 1 0-.66h2.34V.33a.33.33 0 1 1 .66 0v2.34h4.34V.33a.33.33 0 1 1 .66 0v2.34h4V.33a.33.33 0 1 1 .67 0v2.34h2.67a.33.33 0 1 1 0 .66H13v4.34h2.67zm-8-4.34H3.33v4.34h4.34V3.33zm-4.34 5v4.34h4.34V8.33H3.33zm9-5h-4v4.34h4V3.33zm-4 5v4.34h4V8.33h-4z"/>
</svg>
