<svg xmlns="http://www.w3.org/2000/svg" viewBox="0 0 25 25">
  <path fill="inherit" fill-rule="evenodd" d="M9.32 15.75c1.78 0 3.3-.62 4.55-1.88 1.26-1.25 1.88-2.77 1.88-4.55 0-1.8-.62-3.3-1.88-4.56-1.25-1.25-2.77-1.88-4.55-1.88-1.8 0-3.3.63-4.56 1.88C3.5 6 2.88 7.53 2.88 9.32c0 1.78.63 3.3 1.88 4.55 1.25 1.26 2.77 1.88 4.56 1.88zm8.58 0l7.1 7.1L22.86 25l-7.1-7.1v-1.14l-.4-.4c-1.7 1.47-3.72 2.2-6.04 2.2-2.6 0-4.8-.9-6.6-2.68C.9 14.1 0 11.9 0 9.32c0-2.6.9-4.8 2.7-6.6C4.53.9 6.73 0 9.33 0c2.6 0 4.78.9 6.56 2.7 1.8 1.82 2.7 4.02 2.7 6.62 0 2.32-.75 4.33-2.23 6.03l.4.4h1.15z"/>
</svg>
