<svg width="266" height="378" viewBox="0 0 266 378" fill="none" xmlns="http://www.w3.org/2000/svg">
<rect width="266" height="378" fill="#D8E03C"/>
<path d="M133.5 207.5H151.5V225.5H133.5V207.5Z" fill="white" fill-opacity="0.3"/>
<path d="M19.5 226.5H37.5V244.5H19.5V226.5Z" fill="white" fill-opacity="0.46"/>
<path d="M190.5 226.5H208.5V244.5H190.5V226.5Z" fill="white" fill-opacity="0.2"/>
<path d="M57.5 245.5H75.5V263.5H57.5V245.5Z" fill="white" fill-opacity="0.3"/>
<path d="M247.5 245.5H265.5V263.5H247.5V245.5Z" fill="white"/>
<path d="M0.5 264.5H18.5V282.5H0.5V264.5Z" fill="white" fill-opacity="0.2"/>
<path d="M114.5 264.5H132.5V282.5H114.5V264.5Z" fill="white"/>
<path d="M209.5 264.5H227.5V282.5H209.5V264.5Z" fill="white" fill-opacity="0.53"/>
<path d="M38.5 283.5H56.5V301.5H38.5V283.5Z" fill="white" fill-opacity="0.81"/>
<path d="M76.5 283.5H94.5V301.5H76.5V283.5Z" fill="white" fill-opacity="0.2"/>
<path d="M171.5 283.5H189.5V301.5H171.5V283.5Z" fill="white" fill-opacity="0.3"/>
<path d="M209.5 283.5H227.5V301.5H209.5V283.5Z" fill="white" fill-opacity="0.53"/>
<path d="M247.5 283.5H265.5V301.5H247.5V283.5Z" fill="white" fill-opacity="0.46"/>
<path d="M0.5 302.5H18.5V320.5H0.5V302.5Z" fill="white" fill-opacity="0.3"/>
<path d="M19.5 302.5H37.5V320.5H19.5V302.5Z" fill="white" fill-opacity="0.53"/>
<path d="M38.5 302.5H56.5V320.5H38.5V302.5Z" fill="white" fill-opacity="0.7"/>
<path d="M57.5 302.5H75.5V320.5H57.5V302.5Z" fill="white"/>
<path d="M76.5 302.5H94.5V320.5H76.5V302.5Z" fill="white" fill-opacity="0.81"/>
<path d="M95.5 302.5H113.5V320.5H95.5V302.5Z" fill="white" fill-opacity="0.53"/>
<path d="M114.5 302.5H132.5V320.5H114.5V302.5Z" fill="white" fill-opacity="0.61"/>
<path d="M133.5 302.5H151.5V320.5H133.5V302.5Z" fill="white" fill-opacity="0.2"/>
<path d="M152.5 302.5H170.5V320.5H152.5V302.5Z" fill="white" fill-opacity="0.61"/>
<path d="M171.5 302.5H189.5V320.5H171.5V302.5Z" fill="white" fill-opacity="0.3"/>
<path d="M190.5 302.5H208.5V320.5H190.5V302.5Z" fill="white" fill-opacity="0.53"/>
<path d="M209.5 302.5H227.5V320.5H209.5V302.5Z" fill="white" fill-opacity="0.2"/>
<path d="M228.5 302.5H246.5V320.5H228.5V302.5Z" fill="white"/>
<path d="M247.5 302.5H265.5V320.5H247.5V302.5Z" fill="white" fill-opacity="0.2"/>
<path d="M0.5 321.5H18.5V339.5H0.5V321.5Z" fill="white" fill-opacity="0.81"/>
<path d="M19.5 321.5H37.5V339.5H19.5V321.5Z" fill="white" fill-opacity="0.61"/>
<path d="M38.5 321.5H56.5V339.5H38.5V321.5Z" fill="white" fill-opacity="0.7"/>
<path d="M57.5 321.5H75.5V339.5H57.5V321.5Z" fill="white" fill-opacity="0.53"/>
<path d="M76.5 321.5H94.5V339.5H76.5V321.5Z" fill="white" fill-opacity="0.2"/>
<path d="M95.5 321.5H113.5V339.5H95.5V321.5Z" fill="white"/>
<path d="M114.5 321.5H132.5V339.5H114.5V321.5Z" fill="white" fill-opacity="0.3"/>
<path d="M133.5 321.5H151.5V339.5H133.5V321.5Z" fill="white" fill-opacity="0.46"/>
<path d="M152.5 321.5H170.5V339.5H152.5V321.5Z" fill="white"/>
<path d="M171.5 321.5H189.5V339.5H171.5V321.5Z" fill="white" fill-opacity="0.46"/>
<path d="M190.5 321.5H208.5V339.5H190.5V321.5Z" fill="white"/>
<path d="M209.5 321.5H227.5V339.5H209.5V321.5Z" fill="white" fill-opacity="0.53"/>
<path d="M228.5 321.5H246.5V339.5H228.5V321.5Z" fill="white" fill-opacity="0.53"/>
<path d="M247.5 321.5H265.5V339.5H247.5V321.5Z" fill="white" fill-opacity="0.53"/>
<path d="M0.5 340.5H18.5V358.5H0.5V340.5Z" fill="white" fill-opacity="0.61"/>
<path d="M19.5 340.5H37.5V358.5H19.5V340.5Z" fill="white" fill-opacity="0.2"/>
<path d="M38.5 340.5H56.5V358.5H38.5V340.5Z" fill="white"/>
<path d="M57.5 340.5H75.5V358.5H57.5V340.5Z" fill="white" fill-opacity="0.7"/>
<path d="M76.5 340.5H94.5V358.5H76.5V340.5Z" fill="white" fill-opacity="0.46"/>
<path d="M95.5 340.5H113.5V358.5H95.5V340.5Z" fill="white" fill-opacity="0.61"/>
<path d="M114.5 340.5H132.5V358.5H114.5V340.5Z" fill="white" fill-opacity="0.81"/>
<path d="M133.5 340.5H151.5V358.5H133.5V340.5Z" fill="white" fill-opacity="0.81"/>
<path d="M152.5 340.5H170.5V358.5H152.5V340.5Z" fill="white" fill-opacity="0.81"/>
<path d="M171.5 340.5H189.5V358.5H171.5V340.5Z" fill="white" fill-opacity="0.3"/>
<path d="M190.5 340.5H208.5V358.5H190.5V340.5Z" fill="white"/>
<path d="M209.5 340.5H227.5V358.5H209.5V340.5Z" fill="white" fill-opacity="0.2"/>
<path d="M228.5 340.5H246.5V358.5H228.5V340.5Z" fill="white" fill-opacity="0.3"/>
<path d="M247.5 340.5H265.5V358.5H247.5V340.5Z" fill="white"/>
<path d="M0.5 359.5H18.5V377.5H0.5V359.5Z" fill="white" fill-opacity="0.2"/>
<path d="M19.5 359.5H37.5V377.5H19.5V359.5Z" fill="white"/>
<path d="M38.5 359.5H56.5V377.5H38.5V359.5Z" fill="white" fill-opacity="0.7"/>
<path d="M57.5 359.5H75.5V377.5H57.5V359.5Z" fill="white" fill-opacity="0.46"/>
<path d="M76.5 359.5H94.5V377.5H76.5V359.5Z" fill="white"/>
<path d="M95.5 359.5H113.5V377.5H95.5V359.5Z" fill="white" fill-opacity="0.2"/>
<path d="M114.5 359.5H132.5V377.5H114.5V359.5Z" fill="white" fill-opacity="0.2"/>
<path d="M133.5 359.5H151.5V377.5H133.5V359.5Z" fill="white"/>
<path d="M152.5 359.5H170.5V377.5H152.5V359.5Z" fill="white"/>
<path d="M171.5 359.5H189.5V377.5H171.5V359.5Z" fill="white" fill-opacity="0.81"/>
<path d="M190.5 359.5H208.5V377.5H190.5V359.5Z" fill="white" fill-opacity="0.3"/>
<path d="M209.5 359.5H227.5V377.5H209.5V359.5Z" fill="white" fill-opacity="0.53"/>
<path d="M228.5 359.5H246.5V377.5H228.5V359.5Z" fill="white"/>
<path d="M247.5 359.5H265.5V377.5H247.5V359.5Z" fill="white" fill-opacity="0.53"/>
</svg>
