<svg xmlns="http://www.w3.org/2000/svg" xmlns:xlink="http://www.w3.org/1999/xlink"><defs><symbol fill="inherit" viewBox="0 0 29 29" id="icon-arrow-circle"><path d="M14.1 0a14.1 14.1 0 100 28.2 14.1 14.1 0 000-28.2zM9.5 20.2v-2.7l5.4-3.3-5.4-3.1V8l10.4 6.2-10.4 6z" /></symbol><symbol fill="inherit" viewBox="0 0 32 32" id="icon-close"><rect width="40" height="4" y="28" rx="2" transform="rotate(-45 0 28)" /><rect width="40" height="4" x="3" rx="2" transform="rotate(45 3 0)" /></symbol><symbol fill="inherit" viewBox="0 0 38 26" id="icon-mail"><path d="M38 23.66l-.38 1.02L24.17 14.6 37.78 1.72l.22.69v21.25zM0 2.4l.21-.69 13.62 12.9L.4 24.67 0 23.66V2.41zM1.86.1C2.28.08 2.7 0 3.1 0h31.87c.39 0 .78.08 1.16.11l.06.15c-.12.09-.25.16-.35.26L21.77 13.84a3.85 3.85 0 01-5.5.02L2.07.45C2 .37 1.89.33 1.79.27l.07-.16zm-.13 25.64l13.33-9.98a5.97 5.97 0 007.87 0l13.33 9.98-.01.12c-.4.04-.81.13-1.22.13l-16.1.01H3.03c-.43 0-.86-.09-1.3-.14v-.12z" /></symbol><symbol fill="inherit" viewBox="0 0 33 22" id="icon-menu"><rect width="33" height="4" rx="2" /><rect width="33" height="4" y="9" rx="2" /><rect width="33" height="4" y="18" rx="2" /></symbol><symbol viewBox="0 0 15 15" id="icon-search"><path fill="inherit" d="M7.498 0A7.5 7.5 0 000 7.498a7.497 7.497 0 007.498 7.498 7.497 7.497 0 007.498-7.498C15 3.358 11.642 0 7.498 0zm4.449 11.504c-.13.168-.305.252-.507.298h-.199c-.232-.046-.404-.187-.568-.35-.556-.561-1.116-1.118-1.673-1.678-.18-.18-.389-.34-.442-.618-.034.02-.057.035-.08.05a3.56 3.56 0 01-1.49.556c-.69.092-1.362.008-1.987-.293C3.82 8.9 3.13 7.959 2.94 6.659c-.015-.095-.023-.186-.034-.282V6.02l.034-.293c.072-.56.267-1.072.583-1.54a3.528 3.528 0 011.54-1.281 3.535 3.535 0 012.17-.229c.777.16 1.436.534 1.962 1.132.538.606.839 1.315.896 2.116a3.53 3.53 0 01-.58 2.245.976.976 0 01-.053.088c.191.042.324.145.45.27.64.645 1.285 1.285 1.925 1.925.046.046.088.092.126.141a.766.766 0 01-.011.911zM6.503 3.51a2.681 2.681 0 00-2.687 2.684 2.69 2.69 0 002.683 2.692 2.694 2.694 0 002.692-2.684 2.695 2.695 0 00-2.688-2.691z" /></symbol><symbol fill="none" viewBox="0 0 187 66" id="logo-horizontal"><path fill="#D4D91E" d="M35.62 9.31c0 5.62-4.23 9.32-9.55 9.32s-9.55-3.7-9.55-9.32c0-5.6 4.23-9.31 9.55-9.31s9.55 3.69 9.55 9.31zm-13.98 0c0 2.79 1.9 4.47 4.43 4.47 2.54 0 4.44-1.68 4.44-4.47 0-2.78-1.9-4.46-4.44-4.46-2.54 0-4.43 1.68-4.43 4.46zm13.98 23.41c0 5.61-4.23 9.31-9.55 9.31s-9.55-3.7-9.55-9.31 4.23-9.31 9.55-9.31 9.55 3.7 9.55 9.31zm-13.98 0c0 2.79 1.9 4.47 4.43 4.47 2.54 0 4.44-1.68 4.44-4.47s-1.9-4.46-4.44-4.46c-2.54 0-4.43 1.68-4.43 4.46z" /><path fill="#fff" d="M168.93 51.5c1.41 0 2.38.65 2.38 2 0 1.36-.97 2.02-2.38 2.02h-2v-4.03h2zm.12-4.3h-7v17.87h4.88v-5.26h2.12c5.13 0 7.27-2.7 7.27-6.3.01-3.6-2.14-6.3-7.27-6.3zm-9.85 0h-4.86v17.87h4.86V47.2zm-40.27 16.24a15.23 15.23 0 007.58 2.01c4.59 0 7.04-2 7.04-5.66 0-2.81-1.43-4.08-3.33-5.06l-3.69-1.9c-.74-.37-.95-.63-.95-.96 0-.46.33-.67 1.1-.67 1.16 0 2.87.43 4.38 1.43l2.1-4.32a13.57 13.57 0 00-6.11-1.5c-4.51 0-6.74 2.21-6.74 5.4 0 2.25 1.1 4 3.18 5.06l3.92 1.96c.56.28.86.5.86.95 0 .58-.56.79-1.51.79-1.75 0-3.49-.69-5.61-2.2l-2.22 4.67zm-8.56-11.95c1.48 0 2.38.57 2.38 1.9 0 1.32-.9 1.93-2.38 1.93h-2.12V51.5h2.12zm.67-4.29h-7.66v17.87h4.87v-6.63l4.6 6.64h6.07l-4.97-6.64c2.64-.86 3.83-3 3.83-5.37.02-3.08-2-5.87-6.74-5.87zm-10.67 0H88.95v17.87h11.8v-4.44h-6.93v-2.65h5.76v-4.22h-5.76v-2.12h6.56V47.2h-.01zm-27.4 0h-3.8v17.87h4.87v-9.6h.05l8.45 9.6h3.79V47.2h-4.87v9.6h-.05l-8.45-9.6zm-6.86-5.54V28.23h4.48v-4.44H56.75v4.44h4.49v13.42h4.87v.01zm1.06 5.54H53.34v4.44h4.49v13.43h4.86V51.64h4.49V47.2h-.01zM49.72 23.8v9.6h-.05l-8.45-9.6h-3.8v17.86h4.87v-9.6h.06l8.45 9.6h3.8V23.8h-4.88zm-44.6 8.93c0-2.96 2.26-4.54 4.9-4.54 1.55 0 2.69.51 3.91 1.35l2.56-4.16a11.46 11.46 0 00-6.63-1.96C4.3 23.4 0 26.8 0 32.72s4.3 9.31 9.86 9.31c2.85 0 5.04-.86 6.63-1.96l-2.56-4.16a6.5 6.5 0 01-3.92 1.35c-2.63 0-4.88-1.58-4.88-4.54zm6.36 20.79c0 1.35-.97 2.01-2.38 2.01h-2V51.5h2c1.4 0 2.38.67 2.38 2.02zm5.02 0c0-3.6-2.15-6.3-7.27-6.3h-7v17.86H7.1v-5.26h2.12c5.13 0 7.28-2.7 7.28-6.3zm13.74 11.56h5.38L28.68 47.2h-5.2l-6.94 17.87h5.38l4.17-12.77 4.15 12.77zM44.4 51.49c1.48 0 2.38.57 2.38 1.9 0 1.32-.9 1.93-2.38 1.93h-2.13V51.5h2.13zm.67-4.29H37.4v17.87h4.86v-6.63l4.61 6.64h6.08l-4.97-6.64c2.64-.86 3.83-3 3.83-5.37 0-3.08-2.02-5.87-6.75-5.87zm1.6-40.52c0 1.36-.96 2.02-2.38 2.02h-2V4.67h2c1.4 0 2.39.65 2.39 2.01zm5.02 0c0-3.6-2.15-6.3-7.27-6.3h-7v17.87h4.87v-5.27h2.13c5.12 0 7.27-2.7 7.27-6.3zm1.75 11.57h11.81V13.8h-6.94v-2.66h5.77v-4.2H58.3V4.82h6.56V.38H53.44v17.87zm27.05 0h3.8V.38h-4.87v9.6h-.06L70.9.38h-3.8v17.87H72v-9.6h.05l8.45 9.6zm1.45 11.72c0 1.32-.9 1.94-2.39 1.94h-2.12v-3.84h2.12c1.49.01 2.39.57 2.39 1.9zm6.17 11.7l-4.97-6.65a5.35 5.35 0 003.84-5.36c0-3.1-2.02-5.87-6.77-5.87h-7.66v17.86h4.87v-6.64l4.61 6.64h6.08v.01zm11.71-7.18h-3.66l1.84-5.6 1.82 5.6zm7.71 7.17L100.6 23.8h-5.2l-6.94 17.86h5.39l1.1-3.34h6.12l1.1 3.34h5.37zm4.79-8.94c0-2.96 2.26-4.54 4.89-4.54 1.56 0 2.69.51 3.92 1.35l2.55-4.16a11.46 11.46 0 00-6.63-1.96c-5.56 0-9.86 3.39-9.86 9.31s4.3 9.31 9.86 9.31c2.85 0 5.05-.86 6.63-1.96l-2.55-4.16a6.51 6.51 0 01-3.92 1.35c-2.64 0-4.9-1.58-4.9-4.54zm22.46-4.5h4.49V23.8h-13.83v4.44h4.48v13.42h4.87V28.23zm6.5 13.44h4.88V23.8h-4.87v17.87zm5.19 5.54v6.49h-6.13V47.2h-4.87v17.87h4.87v-6.94h6.13v6.95h4.86V47.2h-4.86zm15.64-5.54h3.8V23.8h-4.87v9.6h-.05l-8.46-9.6h-3.8v17.86h4.87v-9.6h.05l8.46 9.61zm14.6-6.51h4.42c-.2 1.22-1.3 2.25-3.61 2.25-3.25 0-4.84-2.07-4.84-4.67 0-2.75 1.76-4.67 4.72-4.67 1.51 0 3.02.52 4.35 1.64l2.97-3.98a11.64 11.64 0 00-7.17-2.3c-6.4 0-9.98 3.99-9.98 9.3 0 5.54 3.88 9.34 9.73 9.34 5.71 0 8.74-3.8 8.74-9.03 0-.52-.02-1.26-.07-1.94h-9.25v4.06h-.02z" /></symbol><symbol fill="none" viewBox="0 0 90 149" id="logo-vertical"><path fill="#E5D800" d="M11 19.9c0 6 4.1 9.5 9.6 9.5 5.4 0 9.5-3.6 9.5-9.5 0-6-4-9.5-9.5-9.5S11 14 11 19.9zm30.1 0c0 12-9 19.9-20.5 19.9S0 31.8 0 19.8C0 8 9.1 0 20.6 0 32 0 41 7.9 41 19.9zM11 70.6c0 6.1 4.1 9.8 9.6 9.8 5.4 0 9.5-3.7 9.5-9.8 0-6.1-4-9.9-9.5-9.9S11 64.5 11 70.6zm30.1 0c0 12.4-9 20.5-20.5 20.5A19.9 19.9 0 010 70.6C0 58.2 9.1 50 20.6 50 32 50 41 58.2 41 70.6z" /><path fill="#fff" d="M15 101.2L0 140h11.6l9-27.7 8.9 27.7h11.6l-15-38.8H15zm75 45.5H46.5v2.2H90v-2.2z" /></symbol><symbol fill="inherit" viewBox="0 0 12 22" id="social-facebook"><path d="M3.65 21.48h3.97v-10.6h3.6l.37-3.65H7.62V5.41c0-.55.08-.94.25-1.16.16-.22.56-.33 1.2-.33h2.52V.28H7.95c-1.66 0-2.79.39-3.4 1.18-.6.78-.9 1.99-.9 3.62v2.15H1v3.65h2.65v10.6z" clip-rule="evenodd" /></symbol><symbol fill="inherit" viewBox="0 0 20 22" id="social-linkedin"><path d="M.5 21.48h4.2V5.93H.5v15.55zM13.3 5.93a3.91 3.91 0 00-2.02.55l-.33.2-.33.27-.27.22V5.93h-4.2v15.55h4.2v-9.99a2 2 0 01.11-.48c.08-.24.18-.44.31-.6.13-.16.35-.31.66-.46.31-.15.67-.22 1.08-.22.71 0 1.23.17 1.57.53.34.35.5.82.5 1.41v9.8h4.47v-9.62c0-1.03-.17-1.92-.49-2.67a5.07 5.07 0 00-1.12-1.73 6 6 0 00-4.13-1.52zM.47 2.4c0 .58.21 1.09.62 1.5.41.41.91.62 1.5.62.6 0 1.1-.21 1.5-.62.42-.41.62-.92.62-1.5 0-.6-.2-1.1-.62-1.5a2.04 2.04 0 00-1.5-.62c-.59 0-1.09.2-1.5.61-.4.42-.62.92-.62 1.5z" /></symbol><symbol fill="inherit" viewBox="0 0 12 11" id="social-twitter"><path d="M11.72 1.94c-.41.18-.86.3-1.33.36.48-.29.85-.74 1.02-1.28-.45.26-.95.46-1.47.56A2.32 2.32 0 005.96 3.7a6.6 6.6 0 01-4.8-2.43 2.32 2.32 0 00.73 3.1 2.32 2.32 0 01-1.05-.29v.03c0 1.13.8 2.07 1.86 2.28a2.34 2.34 0 01-1.05.04c.3.93 1.15 1.6 2.17 1.62A4.67 4.67 0 01.4 9a6.59 6.59 0 003.56 1.05 6.57 6.57 0 006.62-6.62v-.3c.45-.33.84-.74 1.15-1.2" /></symbol></defs></svg>