<svg xmlns="http://www.w3.org/2000/svg" xmlns:xlink="http://www.w3.org/1999/xlink"><defs><symbol fill="inherit" viewBox="0 0 102 102" id="content-icon-fist"><path d="M51 102A51 51 0 1051 0a51 51 0 000 102zm12.3-34.4c4.7-2.3 7.2-6 7.3-11.2V46l-1.2.3a6 6 0 01-5.9-1.1l-.5-.5-.5.5a6 6 0 01-7 .7l-.6-.3-.4.6a6 6 0 01-3.8 2.6l-1.5.4 1.1 1c4.3 4.2 5 9.7 5 12.1l-2.7.1a14 14 0 00-8-12.7l-.6-.4-4 5-2.1-1.6 5-6.5h6.7c1 0 2-.6 2.5-1.4.6-.8.7-1.9.3-2.8-.4-1.3-1.6-2-3-2h-7.7c-.4 0-.7 0-1 .4a63.4 63.4 0 00-7.4 8.6c-.6.8-1.3 1.6-1.8 2.6-.3.7-.7 1.5-.7 2.5 0 1.7.5 3.2 1.6 4.5a385.5 385.5 0 005.2 5.8 12 12 0 009.1 4.1h11.8a11 11 0 004.8-1zM40.3 31a3.1 3.1 0 00-2.8 3v3.6l.1 1.9 1.7-1.6.7-.7h3.7v-3.8a3.1 3.1 0 00-3.4-2.4zm8.5-2.2a3.1 3.1 0 00-2.4 3v4.7l.1.8h.8a14 14 0 001.2 0c1 0 2 0 3 .3l.8.3.3-.8v-5.5a3 3 0 00-1.2-2.3c-.7-.6-1.7-.8-2.6-.6zm6.6 5.2v4.5a148.3 148.3 0 010 2.4 3 3 0 006.2 0V34a3 3 0 00-3.9-3 3.1 3.1 0 00-2.3 3zm9 3.9v3c0 1.7 1.4 3 3 3a3 3 0 003.2-3v-4.7a3.1 3.1 0 00-6.2 0V38zm5.8-6.7a5.7 5.7 0 013.1 5.1v20.1c0 3.8-1.3 7.2-3.8 10a14.4 14.4 0 01-11.2 4.9H47a15 15 0 01-11.7-5.4l-4.8-5.5a9 9 0 01-.4-11.8l1.2-1.6.3-.3 1.1-1.6 1-1.2h.1l.4-.5.3-.4c.2-.3.3-.6.3-1V34.2a5.8 5.8 0 016-6c.9 0 1.7.3 2.6.7h.2l.7.4.4-.6a5.9 5.9 0 019.9 0l.4.7.7-.4c1.4-.8 2.8-1 4.3-.6s2.6 1.2 3.5 2.5l.5.6.6-.3h.2l.5-.3c1.8-.7 3.4-.6 5 .3z" clip-rule="evenodd" /></symbol><symbol viewBox="0 0 102 102" id="content-icon-magnifier"><path fill="inherit" fill-rule="evenodd" d="M102 51A51 51 0 110 51a51 51 0 01102 0zm-30.77-7.11c.1-7.06-5.62-12.9-12.72-12.98a12.98 12.98 0 00-13.1 12.66c-.16 7 5.68 12.83 12.93 12.94 7 .12 12.79-5.57 12.9-12.62zM41.47 55.6c.4.43.81.84 1.24 1.27l-.38.43c-.25.26-.49.53-.74.77l-8.55 8.48-.24.23c-.22.2-.44.42-.62.67-.57.86-.63 1.72.16 2.5.83.85 1.66.68 2.43-.04a231 231 0 004.85-4.75c1.97-2 3.94-4.04 5.9-6.06l2.28-2.35c-.3-.36-.63-.72-.96-1.1-.72-.8-1.47-1.65-2.12-2.57a16.68 16.68 0 01.04-18.86 16.48 16.48 0 0117.34-6.8 16.85 16.85 0 0112.85 13.86c1.81 12.39-10.14 22.26-21.94 18.07-1.43-.5-2.2-.24-3.18.77a853 853 0 01-9 9.04l-3.61 3.6c-1.88 1.88-5.22 1.91-7.31.08a5.56 5.56 0 01-.72-7.62 35.1 35.1 0 012.83-3l1-.99L37.23 57l2.8-2.83 1.44 1.45zm23.32-5.52c3.5-3.1 3.53-9.37.02-12.87l-.54.53c-.4.4-.8.78-1.23 1.11-.67.52-.55.92-.17 1.6l.03.05c.5.89 1.09 1.92 1.03 2.85-.07 1.05-.4 2.09-.74 3.22-.16.51-.32 1.04-.47 1.6l1.9 1.76.17.15z" clip-rule="evenodd" /></symbol><symbol viewBox="0 0 102 102" id="content-icon-padlock"><path fill="inherit" fill-rule="evenodd" d="M102 51A51 51 0 110 51a51 51 0 01102 0zM46.7 66.8h23.6V46.9H46.7v19.9zm27.5.5c-.2.7-.4 1.5-1 2a4 4 0 01-2.5 1.4 6 6 0 01-.7 0H47a4 4 0 01-4.3-4V47c0-2.2 1.5-4 4-4.2V36.4c-.2-3.8-3.4-7.2-7.2-7.4-4-.3-7.5 2.2-8.4 6.2l-.1 2v7.4c0 1-.5 1.8-1.3 2-1.3.6-2.7-.4-2.7-1.8v-7.5c0-1.2.1-2.5.5-3.7 1-3.7 3.4-6.4 7-7.8 4-1.6 8-1 11.6 1.7 3 2.4 4.4 5.6 4.5 9.5v5.8H70c1.4 0 2.6.5 3.4 1.7l.6 1.2.2.6v20.9zm-17.7-7.7v.1a41.5 41.5 0 010 1.2 2 2 0 002 2 2 2 0 001.9-1.8v-2.4c0-.3.1-.5.4-.6 1.2-1 1.8-2.2 1.6-3.8a3.9 3.9 0 00-7.4-1.2c-.8 1.5-.5 3.4.7 4.5.7.6 1 1.2.8 2z" clip-rule="evenodd" /></symbol><symbol fill="inherit" viewBox="0 0 29 29" id="icon-arrow-circle"><path d="M14.1 0a14.1 14.1 0 100 28.2 14.1 14.1 0 000-28.2zM9.5 20.2v-2.7l5.4-3.3-5.4-3.1V8l10.4 6.2-10.4 6z" /></symbol><symbol fill="inherit" viewBox="0 0 32 32" id="icon-close"><rect width="40" height="4" y="28" rx="2" transform="rotate(-45 0 28)" /><rect width="40" height="4" x="3" rx="2" transform="rotate(45 3 0)" /></symbol><symbol viewBox="0 0 12 11" id="icon-external-link"><path fill="inherit" d="M8.95 1.59H6.29A.59.59 0 116.3.4h4.13c.33 0 .6.27.6.59v3.95a.59.59 0 11-1.18 0V2.36L6.1 5.93a.59.59 0 11-.81-.86L8.95 1.6zm.87 5.6a.59.59 0 111.18 0v1.69c0 .95-.8 1.7-1.76 1.7H2.17c-.96 0-1.76-.75-1.76-1.7V2.12c0-.95.8-1.7 1.76-1.7h1.77a.59.59 0 010 1.17H2.17c-.32 0-.58.24-.58.53v6.76c0 .29.25.53.58.53h7.07c.33 0 .58-.24.58-.53v-1.7z" /></symbol><symbol fill="inherit" viewBox="0 0 38 26" id="icon-mail"><path d="M38 23.66l-.38 1.02L24.17 14.6 37.78 1.72l.22.69v21.25zM0 2.4l.21-.69 13.62 12.9L.4 24.67 0 23.66V2.41zM1.86.1C2.28.08 2.7 0 3.1 0h31.87c.39 0 .78.08 1.16.11l.06.15c-.12.09-.25.16-.35.26L21.77 13.84a3.85 3.85 0 01-5.5.02L2.07.45C2 .37 1.89.33 1.79.27l.07-.16zm-.13 25.64l13.33-9.98a5.97 5.97 0 007.87 0l13.33 9.98-.01.12c-.4.04-.81.13-1.22.13l-16.1.01H3.03c-.43 0-.86-.09-1.3-.14v-.12z" /></symbol><symbol fill="inherit" viewBox="0 0 33 22" id="icon-menu"><rect width="33" height="4" rx="2" /><rect width="33" height="4" y="9" rx="2" /><rect width="33" height="4" y="18" rx="2" /></symbol><symbol viewBox="0 0 7 1" id="icon-minus"><path fill="inherit" d="M0 0h7v1H0z" /></symbol><symbol viewBox="0 0 7 7" id="icon-plus"><path fill="inherit" d="M4 3h3v1H4v3H3V4H0V3h3V0h1v3z" /></symbol><symbol viewBox="0 0 25 25" id="icon-search"><path fill="inherit" fill-rule="evenodd" d="M9.32 15.75c1.78 0 3.3-.62 4.55-1.88 1.26-1.25 1.88-2.77 1.88-4.55 0-1.8-.62-3.3-1.88-4.56-1.25-1.25-2.77-1.88-4.55-1.88-1.8 0-3.3.63-4.56 1.88C3.5 6 2.88 7.53 2.88 9.32c0 1.78.63 3.3 1.88 4.55 1.25 1.26 2.77 1.88 4.56 1.88zm8.58 0l7.1 7.1L22.86 25l-7.1-7.1v-1.14l-.4-.4c-1.7 1.47-3.72 2.2-6.04 2.2-2.6 0-4.8-.9-6.6-2.68C.9 14.1 0 11.9 0 9.32c0-2.6.9-4.8 2.7-6.6C4.53.9 6.73 0 9.33 0c2.6 0 4.78.9 6.56 2.7 1.8 1.82 2.7 4.02 2.7 6.62 0 2.32-.75 4.33-2.23 6.03l.4.4h1.15z" /></symbol><symbol viewBox="0 0 15 15" id="icon-search-rounded"><path fill="inherit" d="M7.498 0A7.5 7.5 0 000 7.498a7.497 7.497 0 007.498 7.498 7.497 7.497 0 007.498-7.498C15 3.358 11.642 0 7.498 0zm4.449 11.504c-.13.168-.305.252-.507.298h-.199c-.232-.046-.404-.187-.568-.35-.556-.561-1.116-1.118-1.673-1.678-.18-.18-.389-.34-.442-.618-.034.02-.057.035-.08.05a3.56 3.56 0 01-1.49.556c-.69.092-1.362.008-1.987-.293C3.82 8.9 3.13 7.959 2.94 6.659c-.015-.095-.023-.186-.034-.282V6.02l.034-.293c.072-.56.267-1.072.583-1.54a3.528 3.528 0 011.54-1.281 3.535 3.535 0 012.17-.229c.777.16 1.436.534 1.962 1.132.538.606.839 1.315.896 2.116a3.53 3.53 0 01-.58 2.245.976.976 0 01-.053.088c.191.042.324.145.45.27.64.645 1.285 1.285 1.925 1.925.046.046.088.092.126.141a.766.766 0 01-.011.911zM6.503 3.51a2.681 2.681 0 00-2.687 2.684 2.69 2.69 0 002.683 2.692 2.694 2.694 0 002.692-2.684 2.695 2.695 0 00-2.688-2.691z" /></symbol><symbol viewBox="0 0 16 16" id="icon-table"><path fill="inherit" d="M15.67 7.67a.33.33 0 110 .66H13v4.34h2.67a.33.33 0 110 .66H13v2.34a.33.33 0 11-.67 0v-2.34h-4v2.34a.33.33 0 11-.66 0v-2.34H3.33v2.34a.33.33 0 11-.66 0v-2.34H.33a.33.33 0 110-.66h2.34V8.33H.33a.33.33 0 110-.66h2.34V3.33H.33a.33.33 0 110-.66h2.34V.33a.33.33 0 11.66 0v2.34h4.34V.33a.33.33 0 11.66 0v2.34h4V.33a.33.33 0 11.67 0v2.34h2.67a.33.33 0 110 .66H13v4.34h2.67zm-8-4.34H3.33v4.34h4.34V3.33zm-4.34 5v4.34h4.34V8.33H3.33zm9-5h-4v4.34h4V3.33zm-4 5v4.34h4V8.33h-4z" /></symbol><symbol viewBox="0 0 16 16" id="icon-target"><path fill="inherit" d="M15.3 7.3H14A6 6 0 008.7 2V.7a.7.7 0 00-1.4 0V2A6 6 0 002 7.3H.7a.7.7 0 000 1.4H2A6 6 0 007.3 14v1.3a.7.7 0 101.4 0V14A6 6 0 0014 8.7h1.3a.7.7 0 000-1.4zM8 12.7a4.7 4.7 0 110-9.4 4.7 4.7 0 010 9.4z" /></symbol><symbol viewBox="0 0 11 11" id="icon-tick"><path fill="inherit" d="M10.34 2.13l-5.81 8.25a.87.87 0 01-1.34.12L.76 8.06a.87.87 0 111.23-1.24l1.7 1.7 5.22-7.4a.87.87 0 111.43 1.01zM3.71 9.8a.12.12 0 01.2-.01l-.11-.1-.09.11z" /></symbol><symbol fill="none" viewBox="0 0 187 66" id="logo-horizontal"><path fill="#D4D91E" d="M35.62 9.31c0 5.62-4.23 9.32-9.55 9.32s-9.55-3.7-9.55-9.32c0-5.6 4.23-9.31 9.55-9.31s9.55 3.69 9.55 9.31zm-13.98 0c0 2.79 1.9 4.47 4.43 4.47 2.54 0 4.44-1.68 4.44-4.47 0-2.78-1.9-4.46-4.44-4.46-2.54 0-4.43 1.68-4.43 4.46zm13.98 23.41c0 5.61-4.23 9.31-9.55 9.31s-9.55-3.7-9.55-9.31 4.23-9.31 9.55-9.31 9.55 3.7 9.55 9.31zm-13.98 0c0 2.79 1.9 4.47 4.43 4.47 2.54 0 4.44-1.68 4.44-4.47s-1.9-4.46-4.44-4.46c-2.54 0-4.43 1.68-4.43 4.46z" /><path fill="#fff" d="M168.93 51.5c1.41 0 2.38.65 2.38 2 0 1.36-.97 2.02-2.38 2.02h-2v-4.03h2zm.12-4.3h-7v17.87h4.88v-5.26h2.12c5.13 0 7.27-2.7 7.27-6.3.01-3.6-2.14-6.3-7.27-6.3zm-9.85 0h-4.86v17.87h4.86V47.2zm-40.27 16.24a15.23 15.23 0 007.58 2.01c4.59 0 7.04-2 7.04-5.66 0-2.81-1.43-4.08-3.33-5.06l-3.69-1.9c-.74-.37-.95-.63-.95-.96 0-.46.33-.67 1.1-.67 1.16 0 2.87.43 4.38 1.43l2.1-4.32a13.57 13.57 0 00-6.11-1.5c-4.51 0-6.74 2.21-6.74 5.4 0 2.25 1.1 4 3.18 5.06l3.92 1.96c.56.28.86.5.86.95 0 .58-.56.79-1.51.79-1.75 0-3.49-.69-5.61-2.2l-2.22 4.67zm-8.56-11.95c1.48 0 2.38.57 2.38 1.9 0 1.32-.9 1.93-2.38 1.93h-2.12V51.5h2.12zm.67-4.29h-7.66v17.87h4.87v-6.63l4.6 6.64h6.07l-4.97-6.64c2.64-.86 3.83-3 3.83-5.37.02-3.08-2-5.87-6.74-5.87zm-10.67 0H88.95v17.87h11.8v-4.44h-6.93v-2.65h5.76v-4.22h-5.76v-2.12h6.56V47.2h-.01zm-27.4 0h-3.8v17.87h4.87v-9.6h.05l8.45 9.6h3.79V47.2h-4.87v9.6h-.05l-8.45-9.6zm-6.86-5.54V28.23h4.48v-4.44H56.75v4.44h4.49v13.42h4.87v.01zm1.06 5.54H53.34v4.44h4.49v13.43h4.86V51.64h4.49V47.2h-.01zM49.72 23.8v9.6h-.05l-8.45-9.6h-3.8v17.86h4.87v-9.6h.06l8.45 9.6h3.8V23.8h-4.88zm-44.6 8.93c0-2.96 2.26-4.54 4.9-4.54 1.55 0 2.69.51 3.91 1.35l2.56-4.16a11.46 11.46 0 00-6.63-1.96C4.3 23.4 0 26.8 0 32.72s4.3 9.31 9.86 9.31c2.85 0 5.04-.86 6.63-1.96l-2.56-4.16a6.5 6.5 0 01-3.92 1.35c-2.63 0-4.88-1.58-4.88-4.54zm6.36 20.79c0 1.35-.97 2.01-2.38 2.01h-2V51.5h2c1.4 0 2.38.67 2.38 2.02zm5.02 0c0-3.6-2.15-6.3-7.27-6.3h-7v17.86H7.1v-5.26h2.12c5.13 0 7.28-2.7 7.28-6.3zm13.74 11.56h5.38L28.68 47.2h-5.2l-6.94 17.87h5.38l4.17-12.77 4.15 12.77zM44.4 51.49c1.48 0 2.38.57 2.38 1.9 0 1.32-.9 1.93-2.38 1.93h-2.13V51.5h2.13zm.67-4.29H37.4v17.87h4.86v-6.63l4.61 6.64h6.08l-4.97-6.64c2.64-.86 3.83-3 3.83-5.37 0-3.08-2.02-5.87-6.75-5.87zm1.6-40.52c0 1.36-.96 2.02-2.38 2.02h-2V4.67h2c1.4 0 2.39.65 2.39 2.01zm5.02 0c0-3.6-2.15-6.3-7.27-6.3h-7v17.87h4.87v-5.27h2.13c5.12 0 7.27-2.7 7.27-6.3zm1.75 11.57h11.81V13.8h-6.94v-2.66h5.77v-4.2H58.3V4.82h6.56V.38H53.44v17.87zm27.05 0h3.8V.38h-4.87v9.6h-.06L70.9.38h-3.8v17.87H72v-9.6h.05l8.45 9.6zm1.45 11.72c0 1.32-.9 1.94-2.39 1.94h-2.12v-3.84h2.12c1.49.01 2.39.57 2.39 1.9zm6.17 11.7l-4.97-6.65a5.35 5.35 0 003.84-5.36c0-3.1-2.02-5.87-6.77-5.87h-7.66v17.86h4.87v-6.64l4.61 6.64h6.08v.01zm11.71-7.18h-3.66l1.84-5.6 1.82 5.6zm7.71 7.17L100.6 23.8h-5.2l-6.94 17.86h5.39l1.1-3.34h6.12l1.1 3.34h5.37zm4.79-8.94c0-2.96 2.26-4.54 4.89-4.54 1.56 0 2.69.51 3.92 1.35l2.55-4.16a11.46 11.46 0 00-6.63-1.96c-5.56 0-9.86 3.39-9.86 9.31s4.3 9.31 9.86 9.31c2.85 0 5.05-.86 6.63-1.96l-2.55-4.16a6.51 6.51 0 01-3.92 1.35c-2.64 0-4.9-1.58-4.9-4.54zm22.46-4.5h4.49V23.8h-13.83v4.44h4.48v13.42h4.87V28.23zm6.5 13.44h4.88V23.8h-4.87v17.87zm5.19 5.54v6.49h-6.13V47.2h-4.87v17.87h4.87v-6.94h6.13v6.95h4.86V47.2h-4.86zm15.64-5.54h3.8V23.8h-4.87v9.6h-.05l-8.46-9.6h-3.8v17.86h4.87v-9.6h.05l8.46 9.61zm14.6-6.51h4.42c-.2 1.22-1.3 2.25-3.61 2.25-3.25 0-4.84-2.07-4.84-4.67 0-2.75 1.76-4.67 4.72-4.67 1.51 0 3.02.52 4.35 1.64l2.97-3.98a11.64 11.64 0 00-7.17-2.3c-6.4 0-9.98 3.99-9.98 9.3 0 5.54 3.88 9.34 9.73 9.34 5.71 0 8.74-3.8 8.74-9.03 0-.52-.02-1.26-.07-1.94h-9.25v4.06h-.02z" /></symbol><symbol fill="none" viewBox="0 0 90 149" id="logo-vertical"><path fill="#E5D800" d="M11 19.9c0 6 4.1 9.5 9.6 9.5 5.4 0 9.5-3.6 9.5-9.5 0-6-4-9.5-9.5-9.5S11 14 11 19.9zm30.1 0c0 12-9 19.9-20.5 19.9S0 31.8 0 19.8C0 8 9.1 0 20.6 0 32 0 41 7.9 41 19.9zM11 70.6c0 6.1 4.1 9.8 9.6 9.8 5.4 0 9.5-3.7 9.5-9.8 0-6.1-4-9.9-9.5-9.9S11 64.5 11 70.6zm30.1 0c0 12.4-9 20.5-20.5 20.5A19.9 19.9 0 010 70.6C0 58.2 9.1 50 20.6 50 32 50 41 58.2 41 70.6z" /><path fill="#fff" d="M15 101.2L0 140h11.6l9-27.7 8.9 27.7h11.6l-15-38.8H15zm75 45.5H46.5v2.2H90v-2.2z" /></symbol><symbol fill="inherit" viewBox="0 0 12 22" id="social-facebook"><path d="M3.65 21.48h3.97v-10.6h3.6l.37-3.65H7.62V5.41c0-.55.08-.94.25-1.16.16-.22.56-.33 1.2-.33h2.52V.28H7.95c-1.66 0-2.79.39-3.4 1.18-.6.78-.9 1.99-.9 3.62v2.15H1v3.65h2.65v10.6z" clip-rule="evenodd" /></symbol><symbol fill="inherit" viewBox="0 0 20 22" id="social-linkedin"><path d="M.5 21.48h4.2V5.93H.5v15.55zM13.3 5.93a3.91 3.91 0 00-2.02.55l-.33.2-.33.27-.27.22V5.93h-4.2v15.55h4.2v-9.99a2 2 0 01.11-.48c.08-.24.18-.44.31-.6.13-.16.35-.31.66-.46.31-.15.67-.22 1.08-.22.71 0 1.23.17 1.57.53.34.35.5.82.5 1.41v9.8h4.47v-9.62c0-1.03-.17-1.92-.49-2.67a5.07 5.07 0 00-1.12-1.73 6 6 0 00-4.13-1.52zM.47 2.4c0 .58.21 1.09.62 1.5.41.41.91.62 1.5.62.6 0 1.1-.21 1.5-.62.42-.41.62-.92.62-1.5 0-.6-.2-1.1-.62-1.5a2.04 2.04 0 00-1.5-.62c-.59 0-1.09.2-1.5.61-.4.42-.62.92-.62 1.5z" /></symbol><symbol fill="inherit" viewBox="0 0 12 11" id="social-twitter"><path d="M11.72 1.94c-.41.18-.86.3-1.33.36.48-.29.85-.74 1.02-1.28-.45.26-.95.46-1.47.56A2.32 2.32 0 005.96 3.7a6.6 6.6 0 01-4.8-2.43 2.32 2.32 0 00.73 3.1 2.32 2.32 0 01-1.05-.29v.03c0 1.13.8 2.07 1.86 2.28a2.34 2.34 0 01-1.05.04c.3.93 1.15 1.6 2.17 1.62A4.67 4.67 0 01.4 9a6.59 6.59 0 003.56 1.05 6.57 6.57 0 006.62-6.62v-.3c.45-.33.84-.74 1.15-1.2" /></symbol></defs></svg>