<?xml version="1.0" encoding="UTF-8" standalone="no"?>
<svg width="353px" height="500px" viewBox="0 0 353 500" version="1.1" xmlns="http://www.w3.org/2000/svg" xmlns:xlink="http://www.w3.org/1999/xlink">
    <!-- Generator: Sketch 39 (31667) - http://www.bohemiancoding.com/sketch -->
    <title>Shield - Grey</title>
    <desc>Created with Sketch.</desc>
    <defs></defs>
    <g id="Antique-Shipping-Page" stroke="none" stroke-width="1" fill="none" fill-rule="evenodd">
        <g id="Shield---Grey">
            <path d="M168.426934,34.3647799 C168.168948,34.5786164 167.910963,34.7987421 167.646684,35.0188679 M185.089037,35.0062893 C184.831052,34.7924528 184.579358,34.5786164 184.327665,34.3710692" id="Fill-1" fill="#000000"></path>
            <path d="M333.179144,293.761006 L261.465401,151.327044 L333.179144,93.9622642 L333.179144,293.761006 Z M333.179144,350.283019 C333.179144,375.36478 305.285223,406.559748 254.64451,438.163522 C227.807701,454.918239 200.61852,467.962264 184.327665,475.257862 L184.327665,225.748428 L333.179144,344.81761 L333.179144,350.283019 Z M184.327665,33.4968553 L185.089037,35.0062893 L241.46836,146.968553 L184.327665,192.672956 L184.327665,33.4968553 Z M329.252727,321.320755 L189.097255,209.213836 L248.773761,161.477987 L329.252727,321.320755 Z M224.082638,60.6540881 C240.518217,68.9874214 258.772282,75.4654088 278.347736,79.9308176 C290.737344,82.7421384 303.844278,84.8050314 317.567861,86.0943396 L254.16,136.81761 L212.687219,54.4465409 C216.280143,56.5534591 220.080713,58.6352201 224.082638,60.6540881 L224.082638,60.6540881 Z M168.426934,192.679245 L111.279947,146.968553 L167.646684,35.0188679 L168.426934,33.4654088 L168.426934,192.679245 Z M168.426934,475.264151 C152.243048,468.012579 125.305561,455.100629 98.5316756,438.440252 C47.6140998,406.742138 19.5691622,375.440252 19.5691622,350.283019 L19.5691622,344.823899 L168.426934,225.748428 L168.426934,475.264151 Z M19.5691622,93.9622642 L91.2891979,151.327044 L19.5691622,293.767296 L19.5691622,93.9622642 Z M103.974545,161.477987 L163.651052,209.213836 L23.4829947,321.333333 L103.974545,161.477987 Z M74.4005704,79.9308176 C93.976025,75.4654088 112.230089,68.9874214 128.665668,60.6540881 C132.673886,58.6289308 136.474456,56.5471698 140.073672,54.4402516 L98.5945989,136.81761 L35.1804456,86.0943396 C48.9040285,84.8050314 62.0172549,82.7421384 74.4005704,79.9308176 L74.4005704,79.9308176 Z M176.374153,-7.84556755e-14 C155.760463,20.5974843 112.324474,68.1320755 0,68.1320755 L0,350.283019 C0,430.062893 176.374153,499.949686 176.374153,499.949686 C176.374153,499.949686 352.748307,430.062893 352.748307,350.283019 L352.748307,68.1320755 C240.423832,68.1320755 196.987843,20.5974843 176.374153,-7.84556755e-14 L176.374153,-7.84556755e-14 Z" id="Fill-3" fill="#4C4F54"></path>
        </g>
    </g>
</svg>