<?xml version="1.0" standalone="no"?>
<!DOCTYPE svg PUBLIC "-//W3C//DTD SVG 20010904//EN"
 "http://www.w3.org/TR/2001/REC-SVG-20010904/DTD/svg10.dtd">
<svg version="1.0" xmlns="http://www.w3.org/2000/svg"
 width="600.000000pt" height="600.000000pt" viewBox="0 0 600.000000 600.000000"
 preserveAspectRatio="xMidYMid meet">
<metadata>
Created by potrace 1.11, written by Peter Selinger 2001-2013
</metadata>
<g transform="translate(0.000000,600.000000) scale(0.100000,-0.100000)"
fill="#000000" stroke="none">
<path d="M2238 4760 c-9 -6 -140 -62 -290 -126 -150 -63 -286 -121 -303 -128
-30 -14 -794 -339 -869 -370 l-38 -16 103 -80 c57 -44 111 -86 119 -93 8 -7
44 -34 80 -62 36 -27 67 -52 70 -55 3 -3 43 -34 90 -70 47 -35 92 -70 100 -77
58 -47 135 -103 142 -103 4 0 41 17 81 39 75 40 243 127 477 248 281 146 519
269 645 335 72 37 180 93 242 125 96 48 110 58 95 68 -9 7 -96 52 -192 102
-96 50 -254 132 -351 182 -98 50 -179 91 -180 91 -2 0 -12 -5 -21 -10z"/>
<path d="M3630 4714 c-99 -52 -389 -202 -545 -283 -38 -20 -72 -37 -74 -39 -7
-4 12 -20 29 -24 8 -2 23 -11 34 -20 10 -10 22 -15 26 -13 4 3 13 -2 20 -10 7
-8 21 -15 30 -15 10 0 20 -4 22 -8 4 -11 338 -183 338 -174 0 4 5 0 10 -8 5
-8 13 -15 18 -15 9 0 83 -36 92 -45 15 -15 68 -39 74 -33 3 3 6 2 6 -4 0 -10
36 -26 53 -24 4 1 7 -3 7 -8 0 -8 56 -33 63 -28 2 1 11 -6 21 -16 10 -9 22
-14 28 -11 6 4 8 2 4 -4 -6 -10 30 -28 47 -24 4 1 7 -3 7 -8 0 -6 9 -10 19
-10 11 0 21 -4 23 -8 4 -10 108 -64 108 -57 0 3 10 -3 22 -15 20 -18 39 -25
61 -21 4 0 7 -3 7 -7 0 -12 76 -53 84 -45 3 3 6 2 6 -4 0 -5 19 -18 43 -29 23
-10 59 -29 80 -41 20 -13 37 -21 37 -18 0 2 21 -8 48 -23 26 -16 55 -31 64
-35 18 -6 15 -37 -3 -37 -11 0 -163 -119 -167 -131 -2 -5 -9 -9 -15 -9 -7 0
-29 -16 -49 -35 -21 -18 -38 -31 -38 -27 0 4 -6 0 -13 -8 -7 -9 -40 -36 -74
-62 -34 -25 -59 -48 -56 -52 4 -3 0 -6 -9 -6 -8 0 -26 -9 -39 -21 -13 -12 -54
-44 -91 -71 -38 -28 -68 -55 -68 -59 0 -5 -3 -8 -8 -7 -10 4 -132 -93 -132
-104 0 -5 -4 -7 -9 -3 -5 3 -17 -5 -25 -17 -9 -12 -16 -19 -16 -14 0 4 -24
-12 -52 -36 -29 -23 -61 -50 -72 -58 -10 -8 -27 -23 -38 -32 -10 -10 -18 -15
-18 -12 0 7 -89 -64 -112 -90 -10 -10 -18 -16 -18 -12 0 4 -33 -19 -72 -52
-40 -32 -113 -89 -163 -127 -49 -37 -108 -83 -131 -101 -23 -19 -44 -34 -48
-34 -9 0 -69 42 -78 55 -4 6 -8 7 -8 4 0 -4 -19 11 -42 32 -23 21 -44 37 -46
35 -1 -2 -20 11 -40 29 -20 18 -62 51 -92 74 -30 22 -61 45 -67 51 -7 6 -16
11 -20 13 -4 1 -16 11 -28 22 -26 25 -95 79 -106 83 -5 2 -23 17 -40 33 -17
16 -36 26 -43 22 -6 -3 -8 -3 -4 2 4 4 -19 27 -50 51 -31 24 -73 56 -92 71
-19 16 -36 26 -37 23 -2 -3 -10 5 -18 18 -9 12 -22 22 -28 22 -7 0 -18 9 -25
20 -7 11 -17 20 -22 20 -6 0 -18 8 -28 18 -22 20 -146 116 -149 114 -1 0 -16
12 -34 28 -17 17 -36 27 -42 23 -6 -3 -7 -1 -3 5 4 6 -4 16 -16 23 -12 7 -28
17 -34 23 -6 6 -26 22 -44 36 -18 14 -50 39 -70 55 -99 80 -229 177 -236 175
-4 -1 -10 4 -15 12 -9 14 -26 6 -384 -180 -262 -136 -496 -257 -655 -340 -253
-131 -355 -184 -362 -191 -7 -6 9 -24 173 -202 53 -57 120 -131 150 -163 30
-33 63 -69 74 -80 11 -12 74 -80 139 -151 66 -72 165 -179 220 -239 56 -60
108 -116 116 -126 15 -17 187 -204 225 -244 11 -12 67 -73 125 -136 101 -109
162 -176 229 -249 31 -33 31 -33 59 -15 15 10 32 22 38 28 7 6 73 58 149 116
75 58 243 188 374 290 131 102 253 196 271 210 18 14 130 100 249 193 338 262
352 272 365 271 6 -1 163 -118 346 -261 896 -695 1104 -855 1115 -859 6 -3 43
30 81 72 38 43 76 85 85 93 8 9 94 102 190 206 95 105 193 210 216 235 169
183 311 337 422 459 49 53 217 235 236 255 11 12 70 75 130 141 61 66 116 126
123 134 7 7 10 17 5 21 -9 10 -77 46 -308 165 -93 48 -219 113 -280 145 -60
32 -186 97 -280 145 -93 48 -206 107 -250 130 -44 23 -122 64 -173 90 -67 34
-90 50 -83 59 5 6 161 128 345 271 185 143 332 263 328 266 -4 4 -65 32 -137
62 -71 30 -407 173 -745 317 -338 144 -619 264 -625 266 -5 2 -57 -22 -115
-52z"/>
</g>
</svg>
