<svg fill="inherit" xmlns="http://www.w3.org/2000/svg" viewBox="0 0 155 150">
<g clip-path="url(#clip0)">
	<path d="M89.4 133.92H63.6a3.47 3.47 0 000 6.93h25.8a3.47 3.47 0 100-6.93zM92.86 147.94a3.47 3.47 0 00-3.46-3.47H63.6a3.47 3.47 0 000 6.93h25.8a3.47 3.47 0 003.46-3.46zM38.14 81.42a38.44 38.44 0 0012.52 28.33 8.05 8.05 0 012.6 5.94c0 8.3 6.75 15.05 15.04 15.05h16.4c8.29 0 15.04-6.75 15.04-15.05 0-2.25.98-4.45 2.7-6.03a38.44 38.44 0 0012.42-28.24 38.39 38.39 0 00-40.45-38.3c-20 1.06-36.27 18.24-36.27 38.3zm35.33 40.84a3.03 3.03 0 016.06 0v1.55h-6.06v-1.55zm1.3-72.22a31.46 31.46 0 0133.15 31.38 31.5 31.5 0 01-10.17 23.14 15.19 15.19 0 00-4.94 11.13 8.1 8.1 0 01-7.05 8v-1.43c0-4-2.57-7.4-6.14-8.68v-16.4l8.32-9.92a3.12 3.12 0 10-4.77-4.01l-6.67 7.94-6.67-7.94a3.12 3.12 0 10-4.78 4.01l8.34 9.93v16.38a9.25 9.25 0 00-6.16 8.7v1.43a8.1 8.1 0 01-7.04-8.01c0-4.2-1.77-8.24-4.86-11.06a31.5 31.5 0 01-10.26-23.2c0-16.44 13.33-30.52 29.7-31.4zM4.12 84.62h14.94a3.12 3.12 0 000-6.24H4.12a3.12 3.12 0 000 6.24zM133.94 84.62h14.94a3.12 3.12 0 000-6.24h-14.94a3.12 3.12 0 100 6.24zM25.32 135.8c.8 0 1.6-.3 2.2-.92l10.57-10.56a3.12 3.12 0 00-4.41-4.41L23.1 130.47a3.12 3.12 0 002.2 5.33zM129.88 28.11a3.12 3.12 0 00-4.4 0L114.9 38.68a3.12 3.12 0 004.4 4.41l10.57-10.56a3.12 3.12 0 000-4.42zM79.62 24.06V9.12a3.12 3.12 0 00-6.24 0v14.94a3.12 3.12 0 006.24 0zM127.68 135.8a3.12 3.12 0 002.2-5.33l-10.56-10.56a3.12 3.12 0 00-4.41 4.41l10.56 10.56c.61.61 1.4.92 2.2.92zM33.68 43.09a3.12 3.12 0 104.41-4.41L27.53 28.1a3.12 3.12 0 00-4.41 4.42l10.56 10.56z"/>
</g>
<defs>
	<clipPath id="clip0">
		<path d="M0 0h155v150H0z"/>
	</clipPath>
</defs>
</svg>
