<svg viewBox="0 0 155 150" fill="inherit" xmlns="http://www.w3.org/2000/svg">
<path d="M38.6913 49C37.2315 49.1376 35.9937 50.5034 36 51.9697V117.303C36.0002 118.858 37.4148 120.272 38.9697 120.273H131.03C132.585 120.272 134 118.858 134 117.303V90.5756C134.022 89.0067 132.599 87.5637 131.03 87.5637C129.461 87.5637 128.038 89.0067 128.06 90.5756V114.333H41.9394V58.8835L68.4346 83.6154L57.6695 94.3805C56.5286 95.4656 56.4974 97.5017 57.6045 98.6211C58.7117 99.7406 60.748 99.7319 61.8456 98.6031L72.7963 87.6523L82.9582 97.1646C84.0481 98.1963 85.9516 98.1963 87.0415 97.1646L97.2034 87.6523L117.063 107.512C118.161 108.641 120.197 108.65 121.304 107.53C122.411 106.411 122.38 104.375 121.239 103.29L101.565 83.6154L128.06 58.8835V78.6969C128.038 80.2658 129.461 81.7089 131.03 81.7089C132.599 81.7089 134.022 80.2658 134 78.6969V51.9697C134 50.4148 132.585 49.0002 131.03 49C100.256 49 69.4452 49 38.6913 49ZM46.4403 54.9394H123.559L84.9999 90.9468L46.4403 54.9394ZM51.9621 100.923C51.3136 101.017 50.6992 101.332 50.2452 101.805C49.732 102.318 49.2736 102.776 48.7604 103.29C47.6195 104.375 47.5883 106.411 48.6955 107.53C49.8026 108.65 51.839 108.641 52.9365 107.512C53.4495 106.999 53.9084 106.54 54.4214 106.027C55.3348 105.169 55.6076 103.702 55.0637 102.573C54.5198 101.444 53.2022 100.743 51.9621 100.923Z"/>
</svg>
