<svg fill="none" xmlns="http://www.w3.org/2000/svg" viewBox="0 0 155 150"><path d="M129.67 27h-17.82c-4.7.35-4.33 7.35.37 7.2h9.28L98.85 56.87c-3.4 3.4 1.7 8.5 5.1 5.1l22.66-22.67v9.3c.1 4.7 7.1 4.7 7.2 0V31.06c0-2.84-1.11-4.06-4.14-4.06zm-86.23 0a3.6 3.6 0 00-3.25 3.6v86.42a3.6 3.6 0 003.6 3.59h86.43a3.6 3.6 0 003.6-3.59v-43.3c-.12-4.7-7.1-4.7-7.21 0v39.69H47.4V34.2h39.78c4.7-.1 4.7-7.1 0-7.2H43.44zm14.75 28.8c-4.8 0-4.8 7.2 0 7.2h18c4.81 0 4.81-7.2 0-7.2h-18zm-.37 14.4c-4.92.15-4.53 7.57.37 7.2h43.21c4.91.12 4.91-7.3 0-7.2H57.82zm0 14.41c-4.8.25-4.43 7.46.37 7.21h57.62c4.8 0 4.8-7.21 0-7.21H57.82z" fill="#AFA6E6"/></svg>
