<svg fill="inherit" xmlns="http://www.w3.org/2000/svg" viewBox="0 0 155 150">
	<g clip-path="url(#clip0)">
		<path d="M74.04 34c-11.54 0-23.1 4.4-31.87 13.17a45.13 45.13 0 000 63.73 45.1 45.1 0 0060.25 3.1h.05l44.55 44.63a4.67 4.67 0 106.61-6.61l-44.6-44.62a45.15 45.15 0 00-3.11-60.23A44.94 44.94 0 0074.04 34zm0 9.28c9.14 0 18.27 3.5 25.27 10.5 13.9 13.9 14 36.25.29 50.26l-.1.1c-.13.1-.26.22-.39.34a35.63 35.63 0 01-50.33-.2c-14-13.99-14-36.5 0-50.5 7-7 16.13-10.5 25.26-10.5z"/>
	</g>
	<defs>
		<clipPath id="clip0">
			<path fill="#fff" d="M0 0h155v150H0z"/>
		</clipPath>
	</defs>
</svg>
