<svg xmlns="http://www.w3.org/2000/svg" fill="inherit" viewBox="0 0 102 102">
  <path d="M51 102A51 51 0 1051 0a51 51 0 000 102zm12.3-34.4c4.7-2.3 7.2-6 7.3-11.2v-6.2V46l-1.2.3a6 6 0 01-5.9-1.1l-.5-.5-.5.5a6 6 0 01-7 .7l-.6-.3-.4.6a6 6 0 01-3.8 2.6l-1.5.4 1.1 1c4.3 4.2 5 9.7 5 12.1l-2.7.1a14 14 0 00-8-12.7l-.6-.4-4 5-2.1-1.6 5-6.5h6.7c1 0 2-.6 2.5-1.4.6-.8.7-1.9.3-2.8-.4-1.3-1.6-2-3-2h-7.7c-.4 0-.7 0-1 .4a63.4 63.4 0 00-7.4 8.6c-.6.8-1.3 1.6-1.8 2.6-.3.7-.7 1.5-.7 2.5 0 1.7.5 3.2 1.6 4.5a385.5 385.5 0 005.2 5.8 12 12 0 009.1 4.1h11.8a11 11 0 004.8-1zM40.3 31a3.1 3.1 0 00-2.8 3v3.6l.1 1.9 1.7-1.6.7-.7h3.7v-3.3-.5a3.1 3.1 0 00-3.4-2.4zm8.5-2.2a3.1 3.1 0 00-2.4 3V36.5l.1.8h.8a14 14 0 001.2 0c1 0 2 0 3 .3l.8.3.3-.8V35.1v-3.5a3 3 0 00-1.2-2.3c-.7-.6-1.7-.8-2.6-.6zm6.6 5.2v4.5a148.3 148.3 0 010 2.4 3 3 0 006.2 0v-4.5V34a3 3 0 00-3.9-3 3.1 3.1 0 00-2.3 3zm9 3.9v3c0 1.7 1.4 3 3 3a3 3 0 003.2-3v-4.7a3.1 3.1 0 00-6.2 0V38zm5.8-6.7a5.7 5.7 0 013.1 5.1v20.1c0 3.8-1.3 7.2-3.8 10a14.4 14.4 0 01-11.2 4.9H47a15 15 0 01-11.7-5.4l-4.8-5.5a9 9 0 01-.4-11.8l1.2-1.6.3-.3 1.1-1.6 1-1.2h.1l.4-.5.3-.4c.2-.3.3-.6.3-1v-2.9-4.9a5.8 5.8 0 016-6c.9 0 1.7.3 2.6.7h.2l.7.4.4-.6a5.9 5.9 0 019.9 0l.4.7.7-.4c1.4-.8 2.8-1 4.3-.6s2.6 1.2 3.5 2.5l.5.6.6-.3H64.8l.5-.3c1.8-.7 3.4-.6 5 .3z" clip-rule="evenodd"/>
</svg>
