<svg xmlns="http://www.w3.org/2000/svg" viewBox="0 0 102 102">
  <path fill="inherit" fill-rule="evenodd" d="M102 51A51 51 0 110 51a51 51 0 01102 0zM46.7 66.8h23.6V46.9H46.7v19.9zm27.5.5c-.2.7-.4 1.5-1 2a4 4 0 01-2.5 1.4 6 6 0 01-.7 0H47a4 4 0 01-4.3-4V60v-13c0-2.2 1.5-4 4-4.2v-.1-.2V41v-4.6c-.2-3.8-3.4-7.2-7.2-7.4-4-.3-7.5 2.2-8.4 6.2l-.1 2v7.4c0 1-.5 1.8-1.3 2-1.3.6-2.7-.4-2.7-1.8V41v-3.7c0-1.2.1-2.5.5-3.7 1-3.7 3.4-6.4 7-7.8 4-1.6 8-1 11.6 1.7 3 2.4 4.4 5.6 4.5 9.5v5.8H70c1.4 0 2.6.5 3.4 1.7l.6 1.2.2.6v20.9zm-17.7-7.7v.1a41.5 41.5 0 010 1.2 2 2 0 002 2 2 2 0 001.9-1.8v-1.9-.5c0-.3.1-.5.4-.6 1.2-1 1.8-2.2 1.6-3.8a3.9 3.9 0 00-7.4-1.2c-.8 1.5-.5 3.4.7 4.5.7.6 1 1.2.8 2z" clip-rule="evenodd"/>
</svg>
