<svg xmlns="http://www.w3.org/2000/svg" viewBox="0 0 102 102">
  <path fill="inherit" fill-rule="evenodd" d="M102 51A51 51 0 110 51a51 51 0 01102 0zm-30.77-7.11c.1-7.06-5.62-12.9-12.72-12.98a12.98 12.98 0 00-13.1 12.66c-.16 7 5.68 12.83 12.93 12.94 7 .12 12.79-5.57 12.9-12.62zM41.47 55.6c.4.43.81.84 1.24 1.27l-.38.43c-.25.26-.49.53-.74.77l-8.55 8.48-.24.23c-.22.2-.44.42-.62.67-.57.86-.63 1.72.16 2.5.83.85 1.66.68 2.43-.04a231 231 0 004.85-4.75c1.97-2 3.94-4.04 5.9-6.06l2.28-2.35c-.3-.36-.63-.72-.96-1.1-.72-.8-1.47-1.65-2.12-2.57a16.68 16.68 0 01.04-18.86 16.48 16.48 0 0117.34-6.8 16.85 16.85 0 0112.85 13.86c1.81 12.39-10.14 22.26-21.94 18.07-1.43-.5-2.2-.24-3.18.77a853 853 0 01-9 9.04l-3.61 3.6c-1.88 1.88-5.22 1.91-7.31.08a5.56 5.56 0 01-.72-7.62 35.1 35.1 0 012.83-3l1-.99L37.23 57l2.8-2.83 1.44 1.45zm23.32-5.52c3.5-3.1 3.53-9.37.02-12.87l-.54.53c-.4.4-.8.78-1.23 1.11-.67.52-.55.92-.17 1.6l.03.05c.5.89 1.09 1.92 1.03 2.85-.07 1.05-.4 2.09-.74 3.22-.16.51-.32 1.04-.47 1.6l1.9 1.76.17.15z" clip-rule="evenodd"/>
</svg>
