<svg xmlns="http://www.w3.org/2000/svg" viewBox="0 0 102 102">
<path fill="inherit" fill-rule="evenodd" d="M51.64 102A51 51 0 1 0 50.36 0a51 51 0 0 0 1.28 102ZM62.32 49.1c0 .63-.5 1.15-1.14 1.16-.63 0-1.16-.5-1.16-1.13a1.15 1.15 0 0 1 2.3-.03Zm-41.35 2.24c.4-.57.95-.74 1.65-.74 2.46 0 4.93-.04 7.46-.07l2.7-.04-.53-.5c-.37-.37-.72-.7-1.05-1.06-.65-.7-.41-1.73.48-1.94.35-.08.89.05 1.16.3 1.15 1.03 2.26 2.13 3.36 3.22l.26.25c.52.52.52 1.18.01 1.71-1.16 1.2-2.33 2.4-3.52 3.58-.51.51-1.19.5-1.67.04-.47-.46-.5-1.15 0-1.67.32-.35.67-.68 1.02-1.01l.47-.44-.08-.15-.62.01-2.47.03c-2.32.02-4.64.05-6.96.1-.7.02-1.24-.13-1.66-.69l-.01-.93Zm29.16 27.67c0 .7.16 1.23.74 1.64l.93-.01c.57-.42.72-.96.7-1.66-.05-2.3-.08-4.6-.1-6.91l-.03-2.46V69l.13-.08.45.46c.33.35.66.7 1.01 1.02.53.48 1.22.46 1.68 0 .47-.48.48-1.16-.03-1.67a242.18 242.18 0 0 0-3.6-3.5c-.54-.5-1.2-.5-1.72.02l-.25.25c-1.1 1.1-2.2 2.2-3.25 3.35-.24.26-.37.8-.29 1.15.2.89 1.25 1.12 1.95.47.35-.32.69-.67 1.05-1.04l.52-.53c0 .9.02 1.78.03 2.66v.02c.04 2.52.07 4.98.08 7.43Zm19.6-41.67h1.3c.8 0 1.32.43 1.35 1.12.02.72-.44 1.22-1.25 1.24-1.64.05-3.28.07-4.92.06-.82 0-1.26-.46-1.28-1.28-.05-1.6-.07-3.22-.06-4.83 0-.81.48-1.3 1.2-1.29.7 0 1.15.5 1.18 1.3l.02 1.31v.7l.21-.19.3-.28 3.5-3.56v-.01l4.36-4.43.05-.05c.15-.15.3-.3.47-.42.47-.33 1.1-.27 1.5.13.38.39.44 1.04.12 1.5-.1.14-.22.27-.35.4l-.02.01-.06.06-5.17 5.27-.03.03-2.62 2.66-.29.31-.23.26.72-.02Zm-35.47-1.94v.55l-.06.04-.11.07-.12-.16c-.09-.12-.17-.24-.28-.34a5058.33 5058.33 0 0 0-8.13-7.89c-.13-.14-.26-.28-.42-.3-.4-.08-.88-.17-1.2 0-.28.16-.53.64-.53.98 0 .35.26.77.52 1.03 2.1 2.06 4.21 4.1 6.32 6.15l1.81 1.75.28.28.16.17-.07.04-.07.03-.81.02c-.32 0-.63 0-.95.02-.85.02-1.36.47-1.36 1.19 0 .7.49 1.18 1.3 1.18 1.63 0 3.25-.01 4.87-.06.85-.03 1.28-.49 1.28-1.34 0-1.6-.02-3.18-.06-4.78-.02-.84-.51-1.32-1.25-1.29-.7.03-1.13.55-1.13 1.36l.01 1.3Zm-1.1 33.23-.02.03a1928.88 1928.88 0 0 1-7.1 7.27c-.41.41-.9.55-1.44.29-.53-.25-.75-.71-.62-1.25.08-.32.3-.63.54-.87l5.92-6.03v-.01l1.97-2 .3-.32.21-.23h-.68l-1.29.02c-.85 0-1.37-.43-1.39-1.15-.02-.73.46-1.2 1.33-1.22 1.58-.03 3.16-.05 4.74-.05.92 0 1.36.42 1.39 1.35a229 229 0 0 1 .06 4.66c0 .89-.47 1.39-1.22 1.38-.72-.01-1.16-.52-1.17-1.38l-.02-1.24v-.56h-.03l-.04-.03-.04-.02-.05-.03-1.34 1.39Zm36.42-3.35-.22-.23h.72c.5 0 .97 0 1.42-.03.73-.04 1.2-.53 1.2-1.18 0-.68-.46-1.17-1.2-1.17-1.69 0-3.39.01-5.08.06-.7.02-1.1.45-1.17 1.14l-.01.18.01 1.33c.01 1.15.02 2.3.05 3.44.02.77.44 1.25 1.08 1.3.77.05 1.3-.46 1.3-1.3v-1.34l-.01-.6.12-.06.06-.03.12.17c.09.12.17.24.27.34a4959.52 4959.52 0 0 0 8.1 7.86c.14.15.28.3.45.33.39.08.88.17 1.2 0 .28-.15.53-.64.53-.98 0-.34-.24-.77-.51-1.03-2.04-2-4.1-4-6.16-5.99a3525.82 3525.82 0 0 1-2.27-2.21Zm-.28-15.24 2.58-.04 7.72-.1c.75 0 1.24.35 1.35.95.13.77-.4 1.37-1.25 1.38l-7.34.1-2.44.03h-.63l-.03.05-.03.05-.02.03-.02.02.47.42c.36.32.72.64 1.06.98.46.46.5 1.06.17 1.54-.4.58-1.19.71-1.74.2-1.26-1.18-2.5-2.4-3.73-3.62a1.09 1.09 0 0 1-.01-1.57c1.18-1.24 2.38-2.46 3.6-3.67.5-.5 1.15-.48 1.63-.03.48.44.5 1.14.04 1.67-.21.25-.45.48-.68.7l-.05.06-.54.5-.04.05-.06.05-.11.1.1.15Zm-23.63-9.7s-2.15-.13-3.32 2c0 0-.5.83-.5 2.25l.16 12.18s.1 1.72 1.68 1.43c0 0 .87-.04 1.04-1.28l-.12-9.99s-.01-1.47 1.27-1.36c1.28.1 1.13 1.62 1.13 1.62l.1 7.88.01.58 7.8-.1-.11-8.82s.04-1.34 1.22-1.29c1.18.05 1.18 1.27 1.18 1.27l.12 10.05s.12 1.56 1.76 1.23c0 0 .84-.18.97-1.3l-.03-2.18s-.05-1.4 1.17-1.37c0 0 .97-.16 1.16 1.1l.04 2.85-.06.34a3.47 3.47 0 0 1-.68 1.54c-.4.57-1.03 1.1-2 1.32-2.13.7-4.72.23-4.72.23v-2.98l-7.8.1.04 2.92s-6.86 1.57-7.51-3.03l.02.02a5.57 5.57 0 0 1-.03-.22l-.13-13.85s.28-4.8 5.63-5.47l2.26-.03s-1.83-3.06-1.71-5.32c.12-2.27 1.55-4.49 4.74-4.89 0 0 2.78-.35 4.59 2.43 1.81 2.77-.31 6.94-.84 7.69l2.43-.04s2.89.23 4.36 2.48c1.48 2.25 1.24 3.45 1.24 3.45s.05.94-.87 1.19c-.92.24-1.36-.53-1.47-1.15-.1-.61-.67-3.37-3.65-3.6l-10.57.12Zm5.03-10.22s-2.24.05-2.58 2.44c-.34 2.4 1.92 5.6 2.84 5.33.91-.27 2.94-3.48 2.29-5.71 0 0-.48-2.13-2.55-2.06Z" clip-rule="evenodd"/>
</svg>
