<svg width="319" height="307" viewBox="0 0 319 307" fill="inherit" xmlns="http://www.w3.org/2000/svg">
<path fill-rule="evenodd" clip-rule="evenodd" d="M56.7996 110.33L79.1845 119.402C82.3232 120.676 83.8359 124.251 82.5617 127.39C81.2897 130.526 77.715 132.039 74.5786 130.767L64.8323 126.817L105.405 215.998L140.152 201.353L165.517 259.585C166.861 262.667 165.468 266.255 162.398 267.628C159.288 269.017 155.64 267.604 154.278 264.481L133.752 217.354L99.182 231.927L53.4095 131.317L49.2948 141.463C48.025 144.602 44.4504 146.114 41.3117 144.84C38.1753 143.568 36.6626 139.993 37.9347 136.857L47.0068 114.472C48.5657 110.626 52.9507 108.769 56.7996 110.33ZM179.231 88.6388C177.959 91.7752 174.384 93.2879 171.248 92.0158C168.107 90.744 166.597 87.1713 167.869 84.0306L177.398 60.5246C178.709 57.295 182.385 55.7377 185.615 57.0481L209.121 66.5777C212.259 67.8475 213.772 71.4222 212.5 74.5629C211.228 77.6993 207.653 79.212 204.517 77.9399L194.693 73.9575L259.402 217.553C260.795 220.645 259.414 224.281 256.316 225.665L256.314 225.667C253.231 227.045 249.612 225.669 248.224 222.589L183.317 78.5573L179.231 88.6388ZM98.2781 48.5757L121.784 58.1053C124.925 59.3772 126.437 62.9519 125.163 66.0905C123.891 69.2269 120.317 70.7396 117.18 69.4676L107.15 65.4031L144.411 150.464L170.587 140.682L214.352 237.676C215.748 240.771 214.364 244.409 211.266 245.793L211.264 245.796C208.181 247.173 204.566 245.797 203.176 242.719L164.13 156.182L137.833 166.008L95.9018 70.2824L91.8964 80.1642C90.6266 83.3026 87.052 84.8153 83.9133 83.5412C80.7749 82.2714 79.2642 78.6944 80.5363 75.558L90.0616 52.0523C91.372 48.8226 95.0507 47.2673 98.2781 48.5757Z"/>
</svg>
