<svg width="319" height="307" viewBox="0 0 319 307" fill="inherit" xmlns="http://www.w3.org/2000/svg">
<path d="M250.875 54.0103H213.658C213.396 53.9966 213.126 53.9966 212.862 54.0103C202.851 54.7491 203.624 69.6727 213.658 69.3742H233.452L185.129 117.686C177.868 124.948 188.763 135.841 196.025 128.579L244.347 80.2219V100.057C244.58 110.075 259.492 110.075 259.715 100.057V62.6675C259.715 56.6013 257.333 54.0103 250.875 54.0103ZM66.9333 54.0103C62.9971 54.3968 59.9971 57.7077 60 61.6622V246.029C60.0171 250.254 63.4429 253.672 67.6689 253.681H252.061C256.281 253.664 259.698 250.248 259.715 246.029V153.65C259.482 143.633 244.57 143.633 244.347 153.65V238.317H75.3825V69.3742H160.233C170.253 69.1506 170.253 54.2326 160.233 54.0103H67.6689C67.4366 53.9986 67.1781 53.9986 66.9342 54.0103H66.9333ZM98.4033 115.421C88.1486 115.421 88.1486 130.8 98.4033 130.8H136.806C147.061 130.8 147.061 115.421 136.806 115.421H98.4033ZM97.6077 146.164C87.1235 146.475 87.9427 162.299 98.4033 161.527H190.577C201.051 161.76 201.051 145.931 190.577 146.164H98.4033C98.142 146.15 97.8719 146.15 97.6077 146.164ZM97.6077 176.891C87.3587 177.427 88.1541 192.806 98.4033 192.27H221.312C231.561 192.265 231.561 176.886 221.312 176.891H98.4033C98.142 176.877 97.8719 176.877 97.6077 176.891Z" />
</svg>
