<svg width="319" height="307" viewBox="0 0 319 307" fill="none" xmlns="http://www.w3.org/2000/svg">
<path d="M186.594 270.065H132.186C128.15 270.065 124.875 273.34 124.875 277.376C124.875 281.412 128.15 284.687 132.186 284.687H186.598C190.633 284.687 193.909 281.412 193.909 277.376C193.909 273.34 190.633 270.065 186.594 270.065Z" fill="#AFA6E6"/>
<path d="M193.905 299.64C193.905 295.605 190.63 292.329 186.594 292.329H132.186C128.15 292.329 124.875 295.605 124.875 299.64C124.875 303.676 128.15 306.951 132.186 306.951H186.598C190.633 306.951 193.905 303.676 193.905 299.64Z" fill="#AFA6E6"/>
<path d="M78.4629 159.308C78.4629 181.986 88.0878 203.777 104.874 219.086C108.361 222.27 110.361 226.835 110.361 231.617C110.361 249.119 124.599 263.357 142.101 263.357H176.674C194.177 263.357 208.415 249.119 208.415 231.617C208.415 226.857 210.491 222.218 214.114 218.896C230.764 203.605 240.313 181.888 240.313 159.319C240.313 113.234 201.645 76.036 154.972 78.5108C112.788 80.7516 78.4665 116.999 78.4629 159.308ZM152.998 245.471C152.998 241.951 155.864 239.081 159.388 239.081C162.912 239.081 165.777 241.947 165.777 245.471V248.732H153.002V245.471H152.998ZM155.751 93.1071C156.971 93.0449 158.181 93.012 159.388 93.012C195.946 93.012 225.691 122.757 225.691 159.315C225.691 177.804 217.864 195.592 204.222 208.123C197.595 214.213 193.793 222.774 193.793 231.613C193.793 240.276 187.297 247.383 178.934 248.505V245.471C178.934 237.016 173.509 229.869 165.982 227.15V192.54L183.532 171.634C185.868 168.852 185.51 164.703 182.724 162.364C179.939 160.024 175.79 160.386 173.454 163.172L159.388 179.928L145.321 163.172C142.982 160.386 138.833 160.024 136.051 162.364C133.266 164.699 132.907 168.848 135.243 171.634L152.822 192.576V227.142C145.281 229.855 139.842 237.008 139.842 245.474V248.508C131.478 247.39 124.982 240.28 124.982 231.609C124.982 222.73 121.243 214.231 114.725 208.284C100.97 195.738 93.0848 177.888 93.0848 159.311C93.0884 124.646 121.199 94.9458 155.751 93.1071Z" fill="#AFA6E6"/>
<path d="M6.68923 166.059H38.2104C41.8439 166.059 44.7902 163.113 44.7902 159.479C44.7902 155.846 41.8439 152.899 38.2104 152.899H6.68923C3.05569 152.899 0.109375 155.846 0.109375 159.479C0.109375 163.113 3.05569 166.059 6.68923 166.059Z" fill="#AFA6E6"/>
<path d="M280.57 166.059H312.091C315.725 166.059 318.671 163.113 318.671 159.479C318.671 155.846 315.725 152.899 312.091 152.899H280.57C276.937 152.899 273.99 155.846 273.99 159.479C273.99 163.113 276.937 166.059 280.57 166.059Z" fill="#AFA6E6"/>
<path d="M51.4148 274.028C53.0963 274.028 54.7814 273.385 56.0682 272.102L78.3556 249.814C80.9254 247.245 80.9254 243.077 78.3556 240.508C75.7858 237.941 71.6185 237.941 69.0487 240.508L46.7613 262.795C44.1915 265.365 44.1915 269.532 46.7613 272.102C48.0481 273.389 49.7332 274.028 51.4148 274.028Z" fill="#AFA6E6"/>
<path d="M272.012 46.8516C269.442 44.2855 265.275 44.2855 262.705 46.8516L240.418 69.139C237.848 71.7088 237.848 75.8761 240.418 78.4458C241.704 79.7289 243.389 80.3723 245.071 80.3723C246.753 80.3723 248.438 79.7289 249.724 78.4458L272.012 56.1584C274.578 53.5886 274.578 49.4214 272.012 46.8516Z" fill="#AFA6E6"/>
<path d="M165.974 38.2992V6.77809C165.974 3.14455 163.028 0.198242 159.394 0.198242C155.761 0.198242 152.814 3.14455 152.814 6.77809V38.2992C152.814 41.9328 155.761 44.8791 159.394 44.8791C163.028 44.8791 165.974 41.9328 165.974 38.2992Z" fill="#AFA6E6"/>
<path d="M267.358 274.028C269.04 274.028 270.725 273.385 272.012 272.102C274.582 269.532 274.582 265.365 272.012 262.795L249.724 240.508C247.155 237.941 242.987 237.941 240.418 240.508C237.848 243.077 237.848 247.245 240.418 249.814L262.705 272.102C263.988 273.389 265.673 274.028 267.358 274.028Z" fill="#AFA6E6"/>
<path d="M69.0546 78.4458C70.3413 79.7289 72.0265 80.3723 73.708 80.3723C75.3895 80.3723 77.0747 79.7289 78.3614 78.4458C80.9312 75.8761 80.9312 71.7088 78.3614 69.139L56.074 46.8516C53.5042 44.2855 49.337 44.2855 46.7672 46.8516C44.1974 49.4214 44.1974 53.5886 46.7672 56.1584L69.0546 78.4458Z" fill="#AFA6E6"/>
</svg>
