<svg xmlns="http://www.w3.org/2000/svg" viewBox="0 0 48 48">
  <path fill="none" fill-rule="evenodd" stroke="inherit" stroke-width="1.5" stroke-linecap="round" stroke-linejoin="round" d="M47.2 45.6c0 .88-.72 1.6-1.6 1.6H2.4c-.88 0-1.6-.72-1.6-1.6V7.2c0-.88.72-1.6 1.6-1.6h43.2c.88 0 1.6.72 1.6 1.6v38.4zM16 .8v8M32 .8v8 M13.6 23.2h-3.2V20h3.2v3.2zM25.6 23.2h-3.2V20h3.2v3.2zM37.6 23.2h-3.2V20h3.2v3.2zM13.6 35.2h-3.2V32h3.2v3.2zM25.6 35.2h-3.2V32h3.2v3.2zM39.2 30.4l-6.4 6.4M39.2 36.8l-6.4-6.4"/>
</svg>
