<svg xmlns="http://www.w3.org/2000/svg" viewBox="0 0 15 15">
  <path fill="inherit" d="M7.498 0A7.5 7.5 0 000 7.498a7.497 7.497 0 007.498 7.498 7.497 7.497 0 007.498-7.498C15 3.358 11.642 0 7.498 0zm4.449 11.504c-.13.168-.305.252-.507.298h-.199c-.232-.046-.404-.187-.568-.35-.556-.561-1.116-1.118-1.673-1.678-.18-.18-.389-.34-.442-.618-.034.02-.057.035-.08.05a3.56 3.56 0 01-1.49.556c-.69.092-1.362.008-1.987-.293C3.82 8.9 3.13 7.959 2.94 6.659c-.015-.095-.023-.186-.034-.282V6.02l.034-.293c.072-.56.267-1.072.583-1.54a3.528 3.528 0 011.54-1.281 3.535 3.535 0 012.17-.229c.777.16 1.436.534 1.962 1.132.538.606.839 1.315.896 2.116a3.53 3.53 0 01-.58 2.245c-.014.027-.03.053-.053.088.191.042.324.145.45.27.64.645 1.285 1.285 1.925 1.925.046.046.088.092.126.141a.766.766 0 01-.011.911z M6.503 3.51a2.681 2.681 0 00-2.687 2.684 2.69 2.69 0 002.683 2.692 2.694 2.694 0 002.692-2.684 2.695 2.695 0 00-2.688-2.691z"/>
</svg>
