<svg width="29" height="29" viewBox="0 0 29 29" fill="none" xmlns="http://www.w3.org/2000/svg">
<path d="M14.1 3.54894e-06C11.3109 4.2504e-06 8.58437 0.827208 6.26542 2.37698C3.94647 3.92675 2.13925 6.12946 1.07235 8.70648C0.00544631 11.2835 -0.273196 14.1191 0.271666 16.8545C0.816529 19.5899 2.16042 22.1022 4.13334 24.0737C6.10626 26.0453 8.61957 27.3874 11.3554 27.9303C14.0912 28.4732 16.9265 28.1926 19.5028 27.1238C22.079 26.0551 24.2805 24.2463 25.8286 21.9263C27.3767 19.6062 28.202 16.8791 28.2 14.09C28.2 12.2388 27.8352 10.4058 27.1265 8.69568C26.4178 6.98555 25.379 5.43184 24.0696 4.12333C22.7602 2.81482 21.2057 1.77717 19.4951 1.06967C17.7845 0.362169 15.9512 -0.00131027 14.1 3.54894e-06ZM9.46 20.21V17.48L14.86 14.22L9.46 11.07V8L19.9 14.24L9.46 20.21Z" fill="inherit"/>
</svg>
