<svg xmlns="http://www.w3.org/2000/svg" fill="none" viewBox="0 0 187 66">
  <path fill="#D4D91E" d="M35.62 9.31c0 5.62-4.23 9.32-9.55 9.32s-9.55-3.7-9.55-9.32c0-5.6 4.23-9.31 9.55-9.31s9.55 3.69 9.55 9.31zm-13.98 0c0 2.79 1.9 4.47 4.43 4.47 2.54 0 4.44-1.68 4.44-4.47 0-2.78-1.9-4.46-4.44-4.46-2.54 0-4.43 1.68-4.43 4.46zM35.62 32.72c0 5.61-4.23 9.31-9.55 9.31s-9.55-3.7-9.55-9.31 4.23-9.31 9.55-9.31 9.55 3.7 9.55 9.31zm-13.98 0c0 2.79 1.9 4.47 4.43 4.47 2.54 0 4.44-1.68 4.44-4.47s-1.9-4.46-4.44-4.46c-2.54 0-4.43 1.68-4.43 4.46z"/>
  <path fill="#fff" d="M168.93 51.5c1.41 0 2.38.65 2.38 2 0 1.36-.97 2.02-2.38 2.02h-2v-4.03h2zm.12-4.3h-7v17.87h4.88v-5.26h2.12c5.13 0 7.27-2.7 7.27-6.3.01-3.6-2.14-6.3-7.27-6.3zm-9.85 0h-4.86v17.87h4.86V47.2zm-40.27 16.24a15.23 15.23 0 007.58 2.01c4.59 0 7.04-2 7.04-5.66 0-2.81-1.43-4.08-3.33-5.06l-3.69-1.9c-.74-.37-.95-.63-.95-.96 0-.46.33-.67 1.1-.67 1.16 0 2.87.43 4.38 1.43l2.1-4.32a13.57 13.57 0 00-6.11-1.5c-4.51 0-6.74 2.21-6.74 5.4 0 2.25 1.1 4 3.18 5.06l3.92 1.96c.56.28.86.5.86.95 0 .58-.56.79-1.51.79-1.75 0-3.49-.69-5.61-2.2l-2.22 4.67zm-8.56-11.95c1.48 0 2.38.57 2.38 1.9 0 1.32-.9 1.93-2.38 1.93h-2.12V51.5h2.12zm.67-4.29h-7.66v17.87h4.87v-6.63l4.6 6.64h6.07l-4.97-6.64c2.64-.86 3.83-3 3.83-5.37.02-3.08-2-5.87-6.74-5.87zm-10.67 0H88.95v17.87h11.8v-4.44h-6.93v-2.65h5.76v-4.22h-5.76v-2.12h6.56V47.2h-.01zm-27.4 0h-3.8v17.87h4.87v-9.6h.05l8.45 9.6h3.79V47.2h-4.87v9.6h-.05l-8.45-9.6zm-6.86-5.54V28.23h4.48v-4.44H56.75v4.44h4.49v13.42h4.87v.01zm1.06 5.54H53.34v4.44h4.49v13.43h4.86V51.64h4.49V47.2h-.01zM49.72 23.8v9.6h-.05l-8.45-9.6h-3.8v17.86h4.87v-9.6h.06l8.45 9.6h3.8V23.8h-4.88zm-44.6 8.93c0-2.96 2.26-4.54 4.9-4.54 1.55 0 2.69.51 3.91 1.35l2.56-4.16a11.46 11.46 0 00-6.63-1.96C4.3 23.4 0 26.8 0 32.72s4.3 9.31 9.86 9.31c2.85 0 5.04-.86 6.63-1.96l-2.56-4.16a6.5 6.5 0 01-3.92 1.35c-2.63 0-4.88-1.58-4.88-4.54zm6.36 20.79c0 1.35-.97 2.01-2.38 2.01h-2v-4.03h2c1.4 0 2.38.67 2.38 2.02zm5.02 0c0-3.6-2.15-6.3-7.27-6.3h-7v17.86H7.1v-5.26h2.12c5.13 0 7.28-2.7 7.28-6.3zm13.74 11.56h5.38L28.68 47.2h-5.2l-6.94 17.87h5.38l4.17-12.77 4.15 12.77zM44.4 51.49c1.48 0 2.38.57 2.38 1.9 0 1.32-.9 1.93-2.38 1.93h-2.13V51.5h2.13zm.67-4.29H37.4v17.87h4.86v-6.63l4.61 6.64h6.08l-4.97-6.64c2.64-.86 3.83-3 3.83-5.37 0-3.08-2.02-5.87-6.75-5.87zm1.6-40.52c0 1.36-.96 2.02-2.38 2.02h-2V4.67h2c1.4 0 2.39.65 2.39 2.01zm5.02 0c0-3.6-2.15-6.3-7.27-6.3h-7v17.87h4.87v-5.27h2.13c5.12 0 7.27-2.7 7.27-6.3zm1.75 11.57h11.81V13.8h-6.94v-2.66H64.08V6.94H58.3V4.82h6.56V.38H53.44v17.87zm27.05 0h3.8V.38h-4.87v9.6h-.06L70.9.38h-3.8v17.87H72v-9.6h.05l8.45 9.6zm1.45 11.72c0 1.32-.9 1.94-2.39 1.94h-2.12v-3.84h2.12c1.49.01 2.39.57 2.39 1.9zm6.17 11.7l-4.97-6.65a5.35 5.35 0 003.84-5.36c0-3.1-2.02-5.87-6.77-5.87h-7.66v17.86h4.87v-6.64l4.61 6.64h6.08v.01zm11.71-7.18h-3.66l1.84-5.6 1.82 5.6zm7.71 7.17L100.6 23.8h-5.2l-6.94 17.86h5.39l1.1-3.34h6.12l1.1 3.34h5.37zm4.79-8.94c0-2.96 2.26-4.54 4.89-4.54 1.56 0 2.69.51 3.92 1.35l2.55-4.16a11.46 11.46 0 00-6.63-1.96c-5.56 0-9.86 3.39-9.86 9.31s4.3 9.31 9.86 9.31c2.85 0 5.05-.86 6.63-1.96l-2.55-4.16a6.51 6.51 0 01-3.92 1.35c-2.64 0-4.9-1.58-4.9-4.54zm22.46-4.5h4.49V23.8h-13.83v4.44h4.48v13.42h4.87V28.23zm6.5 13.44h4.88V23.8h-4.87v17.87zm5.19 5.54v6.49h-6.13V47.2h-4.87v17.87h4.87v-6.94h6.13v6.95h4.86V47.2h-4.86zm15.64-5.54h3.8V23.8h-4.87v9.6h-.05l-8.46-9.6h-3.8v17.86h4.87v-9.6h.05l8.46 9.61zm14.6-6.51h4.42c-.2 1.22-1.3 2.25-3.61 2.25-3.25 0-4.84-2.07-4.84-4.67 0-2.75 1.76-4.67 4.72-4.67 1.51 0 3.02.52 4.35 1.64l2.97-3.98a11.64 11.64 0 00-7.17-2.3c-6.4 0-9.98 3.99-9.98 9.3 0 5.54 3.88 9.34 9.73 9.34 5.71 0 8.74-3.8 8.74-9.03 0-.52-.02-1.26-.07-1.94h-9.25v4.06h-.02z"/>
</svg>
