<svg xmlns="http://www.w3.org/2000/svg" fill="none" viewBox="0 0 1037 358"><g clip-path="url(#clip0)"><path fill="#C7D317" d="M197.6 52.8c0 31.2-23.4 51.8-53 51.8-29.5 0-53-20.6-53-51.8 0-31.3 23.5-51.8 53-51.8s53 20.5 53 51.8zm-77.6 0c0 15.4 10.5 24.8 24.6 24.8 14 0 24.5-9.4 24.5-24.8 0-15.5-10.5-24.9-24.5-24.9S120 37.3 120 52.8z"/><path fill="#fff" d="M288.3 38.1c0 20-12 35-40.3 35h-11.8v29.3h-27V3.1H248c28.4 0 40.3 15 40.3 35zm-27.8 0c0-7.5-5.4-11.2-13.2-11.2h-11v22.4h11c7.8 0 13.2-3.6 13.2-11.2zM364 77.8v24.7h-65.5V3H362v24.7h-36.4v11.8h32V63h-32v14.7H364zM472.9 102.5h-21L405 49h-.3v53.4h-27V3h21l46.9 53.4h.3V3h27v99.4zM0 179.3c0-33 23.8-51.8 54.7-51.8 15.7 0 28 4.8 36.7 11l-14.2 23a36 36 0 0 0-21.7-7.5c-14.6 0-27.1 8.8-27.1 25.3s12.5 25.2 27.1 25.2a36 36 0 0 0 21.7-7.5l14.2 23.2c-8.8 6-21 11-36.7 11-30.9-.1-54.7-19-54.7-52z"/><path fill="#C7D317" d="M197.6 179.3c0 31.2-23.4 51.8-53 51.8-29.4 0-52.9-20.6-52.9-51.8 0-31.2 23.5-51.8 53-51.8s53 20.6 53 51.8zm-77.5 0c0 15.5 10.5 24.8 24.6 24.8 14 0 24.5-9.3 24.5-24.8s-10.5-24.9-24.5-24.9-24.6 9.4-24.6 24.9z"/><path fill="#fff" d="M304.4 229h-21l-46.9-53.4h-.3V229h-27v-99.4h21l47 53.4h.2v-53.4h27v99.3zM391.3 154.3h-24.9v74.6h-27v-74.6h-24.8v-24.7h76.7v24.7zM454 229l-25.5-37v37h-27v-99.4h42.4c26.3 0 37.5 15.4 37.5 32.6 0 13.2-6.7 25-21.3 29.8l27.6 37H454zm-25.5-75.6v21.3h11.8c8.2 0 13.1-3.4 13.1-10.8s-5-10.5-13.1-10.5h-11.8zM563.7 210.4h-34l-6 18.6h-29.8l38.5-99.4h28.8l38.4 99.4h-29.8l-6.1-18.6zm-6.8-21.3L546.8 158l-10.3 31H557zM597.8 179.3c0-33 23.8-51.8 54.6-51.8 15.8 0 28 4.8 36.8 11l-14.2 23a36 36 0 0 0-21.7-7.5c-14.6 0-27.1 8.8-27.1 25.3s12.4 25.2 27 25.2A36 36 0 0 0 675 197l14.2 23.2c-8.8 6-21 11-36.8 11-30.8-.1-54.6-19-54.6-52zM772.7 154.3H748v74.6h-27v-74.6H696v-24.7h76.7v24.7zM810 229h-27v-99.4h27v99.3zM922.3 229h-21l-46.8-53.4h-.3V229h-27v-99.4h21l46.9 53.4h.3v-53.4h27v99.3zM1036.4 180.8c0 29.1-16.8 50.3-48.4 50.3-32.4 0-54-21.2-54-52 0-29.5 19.9-51.7 55.4-51.7 16 0 28.4 4.6 39.7 12.8l-16.4 22.2a37 37 0 0 0-24.2-9.1c-16.3 0-26.1 10.6-26.1 26 0 14.4 8.8 26 26.8 26 12.8 0 18.9-5.8 20-12.6h-24.5V170h51.3c.2 3.9.4 8 .4 10.8zM96 291c0 20-12 35-40.4 35H44v29.2h-27v-99.4h38.7C84 255.8 96 271 96 291zm-27.8 0c0-7.6-5.4-11.3-13.2-11.3H43.9v22.4h11c7.8 0 13.3-3.6 13.3-11.2zM144.2 284.3l-23.1 71H91.3l38.5-99.4h28.8l38.5 99.4h-29.9l-23-71zM256.3 355.3l-25.6-37v37h-27v-99.4h42.5c26.3 0 37.5 15.5 37.5 32.6 0 13.2-6.7 25-21.3 29.9l27.5 36.9h-33.6zm-25.6-75.6V301h11.8c8.2 0 13.2-3.4 13.2-10.8s-5-10.5-13.2-10.5h-11.8zM365.4 280.6h-24.8v74.6h-27v-74.6h-24.8v-24.7h76.6v24.7zM470.8 355.3h-21l-46.9-53.4h-.3v53.4h-27v-99.4h21l46.9 53.4h.3v-53.4h27v99.4zM553.6 330.6v24.7H488v-99.4h63.3v24.7h-36.3v11.8h32v23.4h-32v14.7h38.5zM619.9 355.3l-25.6-37v37h-27v-99.4h42.5c26.2 0 37.4 15.5 37.4 32.6 0 13.2-6.6 25-21.3 29.9l27.6 36.9h-33.6zm-25.6-75.6V301h11.8c8.2 0 13.2-3.4 13.2-10.8s-5-10.5-13.2-10.5h-11.8zM734.1 262.1l-11.6 24c-8.4-5.5-17.9-8-24.3-8-4.3 0-6 1.2-6 3.8 0 1.8 1 3.2 5.2 5.3l20.4 10.5c10.5 5.4 18.5 12.5 18.5 28.1 0 20.5-13.7 31.5-39 31.5a84.6 84.6 0 0 1-42.1-11.2l12.4-25.8c11.7 8.3 21.4 12.2 31 12.2 5.3 0 8.4-1.1 8.4-4.4 0-2.5-1.7-3.7-4.8-5.3l-21.7-11a30 30 0 0 1-17.6-28c0-17.8 12.4-30.1 37.3-30.1a76 76 0 0 1 34 8.4zM836.5 255.9v99.4h-27v-38.7h-33.9v38.6h-27v-99.4h27V292h34v-36h27zM880.8 355.3h-27v-99.4h27v99.4zM977.2 291c0 20-11.9 35-40.3 35h-11.8v29.2h-27v-99.4H937c28.4 0 40.3 15.1 40.3 35.1zm-27.8 0c0-7.6-5.4-11.3-13.2-11.3h-11v22.4h11c7.8 0 13.2-3.6 13.2-11.2z"/></g><defs><clipPath id="clip0"><path fill="#fff" d="M0 0h1036.4v356.4H0z" transform="translate(0 1)"/></clipPath></defs></svg>
