<svg xmlns="http://www.w3.org/2000/svg" fill="none" viewBox="0 0 74 60"><defs/><path fill="#806346" fill-rule="evenodd" d="M6.6 38.58c0 .91-.73 1.63-1.67 1.63s-1.69-.72-1.69-1.63v-11.3c0-.91.75-1.63 1.69-1.63s1.68.72 1.68 1.63v11.3z" clip-rule="evenodd"/><path stroke="#262626" stroke-width="1.08" d="M6.6 38.58c0 .91-.73 1.63-1.67 1.63s-1.69-.72-1.69-1.63v-11.3c0-.91.75-1.63 1.69-1.63s1.68.72 1.68 1.63v11.3z" clip-rule="evenodd"/><path fill="#806346" fill-rule="evenodd" d="M11.1 36.35c0 .9-.75 1.62-1.69 1.62s-1.68-.72-1.68-1.62V25.03c0-.9.74-1.62 1.68-1.62s1.69.71 1.69 1.62v11.32z" clip-rule="evenodd"/><path stroke="#262626" stroke-width="1.08" d="M11.1 36.35c0 .9-.75 1.62-1.69 1.62s-1.68-.72-1.68-1.62V25.03c0-.9.74-1.62 1.68-1.62s1.69.71 1.69 1.62v11.32z" clip-rule="evenodd"/><path fill="#806346" fill-rule="evenodd" d="M16.53 16.87c.36.67.14 1.49-.46 1.87-.64.38-1.42.14-1.78-.48l-5.26-9.6a1.42 1.42 0 01.46-1.87 1.28 1.28 0 011.78.48l5.26 9.6z" clip-rule="evenodd"/><path stroke="#262626" stroke-width="1.08" d="M16.53 16.87c.36.67.14 1.49-.46 1.87-.64.38-1.42.14-1.78-.48l-5.26-9.6a1.42 1.42 0 01.46-1.87 1.28 1.28 0 011.78.48l5.26 9.6z" clip-rule="evenodd"/><path fill="#FB6045" fill-rule="evenodd" d="M12.17 8.07c0-2.66-2.52-3.4-5.59-1.62C3.52 8.22 1 11.85 1 14.5v12.88L3.82 29l8.4-4.82V8.07h-.05z" clip-rule="evenodd"/><path stroke="#262626" stroke-width="1.08" d="M12.17 8.07c0-2.66-2.52-3.4-5.59-1.62C3.52 8.22 1 11.85 1 14.5v12.88L3.82 29l8.4-4.82V8.07h-.05z" clip-rule="evenodd"/><path fill="#806346" fill-rule="evenodd" d="M8.68 22.47c.36.67.13 1.49-.46 1.87-.64.39-1.42.15-1.78-.48l-5.26-9.6a1.42 1.42 0 01.45-1.87 1.28 1.28 0 011.79.48l5.26 9.6z" clip-rule="evenodd"/><path stroke="#262626" stroke-width="1.08" d="M8.68 22.47c.36.67.13 1.49-.46 1.87-.64.39-1.42.15-1.78-.48l-5.26-9.6a1.42 1.42 0 01.45-1.87 1.28 1.28 0 011.79.48l5.26 9.6z" clip-rule="evenodd"/><path fill="#806346" fill-rule="evenodd" d="M6.6 1a4.48 4.48 0 11.01 8.97 4.48 4.48 0 010-8.97z" clip-rule="evenodd"/><path stroke="#262626" stroke-width="1.73" d="M6.6 1a4.48 4.48 0 11.01 8.97 4.48 4.48 0 010-8.97z" clip-rule="evenodd"/><path fill="#262626" fill-rule="evenodd" d="M9.13 5.56a.56.56 0 11.56.97.56.56 0 01-.56-.97zM5.77 6.68a.56.56 0 11.56.97.56.56 0 01-.56-.97z" clip-rule="evenodd"/><path fill="#464646" fill-rule="evenodd" d="M11.1 4.06A4.65 4.65 0 006.75 1a4.65 4.65 0 00-4.63 4.66c0 .29.05.53.05.78a4.3 4.3 0 002.8-.15 4.57 4.57 0 002.8-2.86c.96.68 2.17.87 3.33.63z" clip-rule="evenodd"/><path stroke="#262626" stroke-width="1.08" d="M11.1 4.06A4.65 4.65 0 006.75 1a4.65 4.65 0 00-4.63 4.66c0 .29.05.53.05.78a4.3 4.3 0 002.8-.15 4.57 4.57 0 002.8-2.86c.96.68 2.17.87 3.33.63z" clip-rule="evenodd"/><path fill="#FFCBA6" fill-rule="evenodd" d="M42.5 40.82c0 .91.75 1.63 1.69 1.63s1.68-.72 1.68-1.63v-11.3c0-.91-.74-1.63-1.68-1.63s-1.68.72-1.68 1.63v11.3z" clip-rule="evenodd"/><path stroke="#262626" stroke-width="1.08" d="M42.5 40.82c0 .91.75 1.63 1.69 1.63s1.68-.72 1.68-1.63v-11.3c0-.91-.74-1.63-1.68-1.63s-1.68.72-1.68 1.63v11.3z" clip-rule="evenodd"/><path fill="#FFCBA6" fill-rule="evenodd" d="M38.02 38.58c0 .91.74 1.63 1.68 1.63s1.68-.72 1.68-1.63v-11.3c0-.91-.74-1.63-1.68-1.63s-1.68.72-1.68 1.63v11.3z" clip-rule="evenodd"/><path stroke="#262626" stroke-width="1.73" d="M38.02 38.58c0 .91.74 1.63 1.68 1.63s1.68-.72 1.68-1.63v-11.3c0-.91-.74-1.63-1.68-1.63s-1.68.72-1.68 1.63v11.3z" clip-rule="evenodd"/><path fill="#FFCBA6" fill-rule="evenodd" d="M37.36 15.03l-4.25 2.4c-.7.4-.9 1.24-.5 1.92.4.7 1.25.89 1.95.5l5.7-3.25v-6.38c0-.79-.65-1.38-1.4-1.38-.8 0-1.4.64-1.4 1.38v4.81h-.1z" clip-rule="evenodd"/><path stroke="#262626" stroke-width="1.08" d="M37.36 15.03l-4.25 2.4c-.7.4-.9 1.24-.5 1.92.4.7 1.25.89 1.95.5l5.7-3.25v-6.38c0-.79-.65-1.38-1.4-1.38-.8 0-1.4.64-1.4 1.38v4.81h-.1z" clip-rule="evenodd"/><path fill="#6C75E1" fill-rule="evenodd" d="M36.9 10.3c0-2.65 2.53-3.38 5.6-1.61 3.08 1.77 5.61 5.4 5.61 8.06v12.88l-2.83 1.62-8.38-4.87V10.31z" clip-rule="evenodd"/><path stroke="#262626" stroke-width="1.08" d="M36.9 10.3c0-2.65 2.53-3.38 5.6-1.61 3.08 1.77 5.61 5.4 5.61 8.06v12.88l-2.83 1.62-8.38-4.87V10.31z" clip-rule="evenodd"/><path fill="#FFCBA6" fill-rule="evenodd" d="M45.22 19.51l-4.25 2.41c-.7.4-.9 1.23-.5 1.91.4.7 1.25.89 1.95.5l5.7-3.25V14.7c0-.79-.65-1.38-1.4-1.38-.8 0-1.4.64-1.4 1.38v4.81h-.1z" clip-rule="evenodd"/><path stroke="#262626" stroke-width="1.08" d="M45.22 19.51l-4.25 2.41c-.7.4-.9 1.23-.5 1.91.4.7 1.25.89 1.95.5l5.7-3.25V14.7c0-.79-.65-1.38-1.4-1.38-.8 0-1.4.64-1.4 1.38v4.81h-.1z" clip-rule="evenodd"/><path fill="#FFCBA6" fill-rule="evenodd" d="M41.38 2.12a4.48 4.48 0 11.01 8.97 4.48 4.48 0 010-8.97z" clip-rule="evenodd"/><path stroke="#262626" stroke-width="1.08" d="M41.38 2.12a4.48 4.48 0 11.01 8.97 4.48 4.48 0 010-8.97z" clip-rule="evenodd"/><path stroke="#262626" stroke-width=".87" d="M39.17 6.97a.56.56 0 111.06.39.56.56 0 01-1.06-.39z" clip-rule="evenodd"/><path stroke="#262626" stroke-width=".87" d="M41.35 8.84c.1-.44-.03-.92-.34-1.07-.3-.15-.65.05-.75.49"/><path stroke="#262626" stroke-width=".87" d="M41.42 8.1a.56.56 0 111.05.38.56.56 0 01-1.05-.39z" clip-rule="evenodd"/><path fill="#B79F57" fill-rule="evenodd" d="M38.02 5.18a4.65 4.65 0 014.34-3.06A4.65 4.65 0 0147 6.78c0 .29-.05.53-.05.78a4.3 4.3 0 01-2.8-.15 4.57 4.57 0 01-2.8-2.86 4.4 4.4 0 01-3.32.63z" clip-rule="evenodd"/><path stroke="#262626" stroke-linecap="round" stroke-linejoin="round" stroke-width="1.08" d="M38.02 5.18a4.65 4.65 0 014.34-3.06A4.65 4.65 0 0147 6.78c0 .29-.05.53-.05.78a4.3 4.3 0 01-2.8-.15 4.57 4.57 0 01-2.8-2.86 4.4 4.4 0 01-3.32.63z" clip-rule="evenodd"/><path fill="#CC9E70" fill-rule="evenodd" d="M63.82 53.15c0 .9.74 1.63 1.68 1.63s1.69-.72 1.69-1.63v-11.3c0-.92-.75-1.64-1.69-1.64s-1.68.72-1.68 1.63v11.3z" clip-rule="evenodd"/><path stroke="#262626" stroke-width="1.73" d="M63.82 53.15c0 .9.74 1.63 1.68 1.63s1.69-.72 1.69-1.63v-11.3c0-.92-.75-1.64-1.69-1.64s-1.68.72-1.68 1.63v11.3z" clip-rule="evenodd"/><path fill="#CC9E70" fill-rule="evenodd" d="M58.21 49.79c0 .9.74 1.62 1.68 1.62s1.69-.71 1.69-1.62V38.48c0-.91-.75-1.63-1.69-1.63s-1.68.72-1.68 1.63v11.3z" clip-rule="evenodd"/><path stroke="#262626" stroke-width="1.08" d="M58.21 49.79c0 .9.74 1.62 1.68 1.62s1.69-.71 1.69-1.62V38.48c0-.91-.75-1.63-1.69-1.63s-1.68.72-1.68 1.63v11.3z" clip-rule="evenodd"/><path fill="#CC9E70" fill-rule="evenodd" d="M52.78 30.3c-.37.68-.14 1.5.46 1.88.64.39 1.41.15 1.78-.48l5.26-9.59c.36-.67.14-1.5-.46-1.88a1.28 1.28 0 00-1.78.48l-5.26 9.6z" clip-rule="evenodd"/><path stroke="#262626" stroke-width="1.08" d="M52.78 30.3c-.37.68-.14 1.5.46 1.88.64.39 1.41.15 1.78-.48l5.26-9.59c.36-.67.14-1.5-.46-1.88a1.28 1.28 0 00-1.78.48l-5.26 9.6z" clip-rule="evenodd"/><path fill="#23B2A7" fill-rule="evenodd" d="M57.14 22.63c0-2.65 2.52-3.39 5.58-1.62 3.07 1.77 5.59 5.4 5.59 8.06v12.88l-2.82 1.62-8.4-4.81V22.63h.05z" clip-rule="evenodd"/><path stroke="#262626" stroke-width="1.08" d="M57.14 22.63c0-2.65 2.52-3.39 5.58-1.62 3.07 1.77 5.59 5.4 5.59 8.06v12.88l-2.82 1.62-8.4-4.81V22.63h.05z" clip-rule="evenodd"/><path fill="#CC9E70" fill-rule="evenodd" d="M66.53 31.86l-4.25 2.4c-.7.39-.9 1.22-.5 1.9.4.69 1.25.88 1.95.5l5.7-3.24v-6.4c0-.79-.65-1.37-1.4-1.37-.8 0-1.4.63-1.4 1.37v4.84h-.1z" clip-rule="evenodd"/><path stroke="#262626" stroke-width="1.08" d="M66.53 31.86l-4.25 2.4c-.7.39-.9 1.22-.5 1.9.4.69 1.25.88 1.95.5l5.7-3.24v-6.4c0-.79-.65-1.37-1.4-1.37-.8 0-1.4.63-1.4 1.37v4.84h-.1z" clip-rule="evenodd"/><path fill="#CC9E70" fill-rule="evenodd" d="M62.7 14.44a4.48 4.48 0 110 8.97 4.48 4.48 0 010-8.97z" clip-rule="evenodd"/><path stroke="#262626" stroke-width="1.08" d="M62.7 14.44a4.48 4.48 0 110 8.97 4.48 4.48 0 010-8.97z" clip-rule="evenodd"/><path fill="#262626" fill-rule="evenodd" d="M59.37 19.3a.56.56 0 111.05.38.56.56 0 01-1.05-.39zM62.73 20.41a.56.56 0 011.06.39.56.56 0 01-1.06-.39z" clip-rule="evenodd"/><path fill="#71603F" fill-rule="evenodd" d="M63.82 23.4a4.5 4.5 0 001.4-4.2h-.19a4.43 4.43 0 01-4.1-2.73 4.57 4.57 0 00-2.49 3.96 4.5 4.5 0 014.25-6 4.5 4.5 0 014.5 4.54 4.42 4.42 0 01-3.37 4.44z" clip-rule="evenodd"/><path stroke="#262626" stroke-linecap="round" stroke-linejoin="round" stroke-width="1.08" d="M63.82 23.4a4.5 4.5 0 001.4-4.2h-.19a4.43 4.43 0 01-4.1-2.73 4.57 4.57 0 00-2.49 3.96 4.5 4.5 0 014.25-6 4.5 4.5 0 014.5 4.54 4.42 4.42 0 01-3.37 4.44z" clip-rule="evenodd"/><path fill="#fff" fill-rule="evenodd" d="M60.65 59.26l12.14-6.72-8.1-4.49-12.09 6.72 8.05 4.49z" clip-rule="evenodd"/><path stroke="#262626" stroke-linecap="round" stroke-linejoin="round" stroke-width="1.08" d="M60.65 59.26l12.14-6.72-8.1-4.49-12.09 6.72 8.05 4.49z" clip-rule="evenodd"/><path fill="#fff" fill-rule="evenodd" d="M60.65 58.14l12.14-6.7-8.1-4.5-12.09 6.73 8.05 4.47z" clip-rule="evenodd"/><path stroke="#262626" stroke-linecap="round" stroke-linejoin="round" stroke-width="1.08" d="M60.65 58.14l12.14-6.7-8.1-4.5-12.09 6.73 8.05 4.47z" clip-rule="evenodd"/><path fill="#fff" fill-rule="evenodd" d="M60.65 57.02l12.14-6.74-8.1-4.47-12.09 6.7 8.05 4.5z" clip-rule="evenodd"/><path stroke="#262626" stroke-linecap="round" stroke-linejoin="round" stroke-width="1.08" d="M60.65 57.02l12.14-6.74-8.1-4.47-12.09 6.7 8.05 4.5z" clip-rule="evenodd"/><path fill="#fff" fill-rule="evenodd" d="M60.65 55.9l12.14-6.72-8.1-4.49-12.09 6.72 8.05 4.49z" clip-rule="evenodd"/><path stroke="#262626" stroke-linecap="round" stroke-linejoin="round" stroke-width="1.08" d="M60.65 55.9l12.14-6.72-8.1-4.49-12.09 6.72 8.05 4.49z" clip-rule="evenodd"/><path fill="#fff" fill-rule="evenodd" d="M60.65 54.78l12.14-6.75-8.1-4.46-12.09 6.74 8.05 4.47z" clip-rule="evenodd"/><path stroke="#262626" stroke-linecap="round" stroke-linejoin="round" stroke-width="1.08" d="M60.65 54.78l12.14-6.75-8.1-4.46-12.09 6.74 8.05 4.47z" clip-rule="evenodd"/><path fill="#fff" fill-rule="evenodd" d="M33.06 50.3L5.49 34.3l20.66-12.02 27.57 15.98-20.66 12.02z" clip-rule="evenodd"/><path stroke="#262626" stroke-linecap="round" stroke-linejoin="round" stroke-width="1.08" d="M33.06 50.3L5.49 34.3l20.66-12.02 27.57 15.98-20.66 12.02z" clip-rule="evenodd"/><path stroke="#262626" stroke-linecap="round" stroke-linejoin="round" stroke-width="1.08" d="M38.02 34.61l-13.46-7.84M35.78 35.73L22.3 27.89M33.53 36.85l-13.46-7.84M31.29 37.97l-13.46-7.84M27.92 40.21l-13.46-7.84M25.68 41.33L12.22 33.5"/><path fill="#262626" fill-rule="evenodd" d="M31.28 43.16l2.5 1.41c.85.5 2.3.4 3.25-.14l4.2-2.34c.8-.44-.2-1.03-1.04-.6l-3.8 2.16-.26-.15 10.46-5.9c1.1-.64-.3-1.37-1.35-.78l-6.05 3.41-.26-.1L45 36.72c1.05-.59-.3-1.37-1.4-.78l-10.46 5.9-.25-.15 3.8-2.14c.8-.44-.2-1.03-1-.59l-4.15 2.34c-.9.5-1.15 1.37-.25 1.86zm.95.88c-.65-.4-1.8-.35-2.55.1-.75.43-.85 1.07-.2 1.4.65.4 1.8.35 2.55-.09.75-.39.85-1.07.2-1.41z" clip-rule="evenodd"/></svg>
