<svg xmlns="http://www.w3.org/2000/svg" fill="none" viewBox="0 0 42 47"><defs/><path fill="#515151" fill-rule="evenodd" d="M22.31 31.12c0 .7.5 1.25 1.13 1.25.62 0 1.12-.55 1.12-1.25v-8.7c0-.7-.5-1.26-1.13-1.26-.62 0-1.12.56-1.12 1.26v8.7z" clip-rule="evenodd"/><path stroke="#262626" stroke-width="1.08" d="M22.31 31.12c0 .7.5 1.25 1.13 1.25.62 0 1.12-.55 1.12-1.25v-8.7c0-.7-.5-1.26-1.13-1.26-.62 0-1.12.56-1.12 1.26v8.7z" clip-rule="evenodd"/><path fill="#515151" fill-rule="evenodd" d="M18.95 28.88c0 .7.5 1.25 1.12 1.25.63 0 1.12-.55 1.12-1.25v-8.7c0-.7-.5-1.25-1.12-1.25-.63 0-1.12.55-1.12 1.25v8.7z" clip-rule="evenodd"/><path stroke="#262626" stroke-width="1.08" d="M18.95 28.88c0 .7.5 1.25 1.12 1.25.63 0 1.12-.55 1.12-1.25v-8.7c0-.7-.5-1.25-1.12-1.25-.63 0-1.12.55-1.12 1.25v8.7z" clip-rule="evenodd"/><path fill="#FFCBA6" fill-rule="evenodd" d="M15.04 7.48l-3.37-1.84a1.18 1.18 0 00-1.54.37c-.32.53-.12 1.17.4 1.47l4.5 2.48 4.48-2.48c.56-.3.72-.94.4-1.47-.32-.53-1-.68-1.55-.37l-3.32 1.84z" clip-rule="evenodd"/><path stroke="#262626" stroke-width="1.08" d="M15.04 7.48l-3.37-1.84a1.18 1.18 0 00-1.54.37c-.32.53-.12 1.17.4 1.47l4.5 2.48 4.48-2.48c.56-.3.72-.94.4-1.47-.32-.53-1-.68-1.55-.37l-3.32 1.84z" clip-rule="evenodd"/><path fill="#6C75E1" fill-rule="evenodd" d="M8.85 6.6l1.68-3.36 1.69 1.13-1.68 3.35L8.85 6.6z" clip-rule="evenodd"/><path stroke="#262626" stroke-linecap="round" stroke-linejoin="round" stroke-width="1.08" d="M8.85 6.6l1.68-3.36 1.69 1.13-1.68 3.35L8.85 6.6z" clip-rule="evenodd"/><path stroke="#262626" stroke-linecap="round" stroke-linejoin="round" stroke-width="1.08" d="M12.22 2.12A1.9 1.9 0 0010.53 1a1.9 1.9 0 00-1.68 1.12M9.97 2.42c.1-.15.3-.3.5-.3.21 0 .41.1.51.3"/><path stroke="#262626" stroke-linecap="round" stroke-linejoin="round" stroke-width="1.08" d="M12.22 1.86c-.23-.5-.66-.86-1.13-.86-.5 0-.92.35-1.12.86"/><path fill="#FB6045" fill-rule="evenodd" d="M17.87 6.33c0-2.02 2.01-2.58 4.46-1.23 2.45 1.34 4.47 4.12 4.47 6.14v9.81l-2.25 1.24-6.72-3.67V6.33h.04z" clip-rule="evenodd"/><path stroke="#262626" stroke-width="1.08" d="M17.87 6.33c0-2.02 2.01-2.58 4.46-1.23 2.45 1.34 4.47 4.12 4.47 6.14v9.81l-2.25 1.24-6.72-3.67V6.33h.04z" clip-rule="evenodd"/><path fill="#FFCBA6" fill-rule="evenodd" d="M24.56 18.94c0 .63.52 1.1 1.12 1.1.64 0 1.12-.5 1.12-1.1v-9c0-.63-.52-1.1-1.12-1.1a1.1 1.1 0 00-1.12 1.1v9z" clip-rule="evenodd"/><path stroke="#262626" stroke-width="1.08" d="M24.56 18.94c0 .63.52 1.1 1.12 1.1.64 0 1.12-.5 1.12-1.1v-9c0-.63-.52-1.1-1.12-1.1a1.1 1.1 0 00-1.12 1.1v9z" clip-rule="evenodd"/><path fill="#FFCBA6" fill-rule="evenodd" d="M21.75 1a3.92 3.92 0 110 7.85 3.92 3.92 0 010-7.85z" clip-rule="evenodd"/><path stroke="#262626" stroke-width="1.73" d="M21.75 1a3.92 3.92 0 110 7.85 3.92 3.92 0 010-7.85z" clip-rule="evenodd"/><path stroke="#262626" stroke-width=".87" d="M18.98 4.73a.56.56 0 011.06.38.56.56 0 11-1.06-.38z" clip-rule="evenodd"/><path stroke="#262626" stroke-width=".87" d="M21.16 5.48c.1-.44-.04-.92-.34-1.07-.3-.15-.65.05-.75.49"/><path stroke="#262626" stroke-width=".87" d="M21.23 5.85a.56.56 0 111.05.38.56.56 0 01-1.05-.38z" clip-rule="evenodd"/><path fill="#A2A2A2" fill-rule="evenodd" d="M22.73 8.84a3.95 3.95 0 001.23-3.67h-.16a3.87 3.87 0 01-3.6-2.4 4 4 0 00-2.17 3.47A3.95 3.95 0 0121.75 1a3.94 3.94 0 013.93 3.96 3.94 3.94 0 01-2.95 3.88z" clip-rule="evenodd"/><path stroke="#262626" stroke-linecap="round" stroke-linejoin="round" stroke-width="1.08" d="M22.73 8.84a3.95 3.95 0 001.23-3.67h-.16a3.87 3.87 0 01-3.6-2.4 4 4 0 00-2.17 3.47A3.95 3.95 0 0121.75 1a3.94 3.94 0 013.93 3.96 3.94 3.94 0 01-2.95 3.88z" clip-rule="evenodd"/><path fill="#CC9E70" fill-rule="evenodd" d="M2.12 37.84c0 .7.5 1.25 1.12 1.25.63 0 1.13-.55 1.13-1.25v-8.7c0-.7-.5-1.25-1.13-1.25-.62 0-1.12.55-1.12 1.25v8.7z" clip-rule="evenodd"/><path stroke="#262626" stroke-width="1.08" d="M2.12 37.84c0 .7.5 1.25 1.12 1.25.63 0 1.13-.55 1.13-1.25v-8.7c0-.7-.5-1.25-1.13-1.25-.62 0-1.12.55-1.12 1.25v8.7z" clip-rule="evenodd"/><path fill="#CC9E70" fill-rule="evenodd" d="M6.6 40.08c0 .7.5 1.25 1.13 1.25.63 0 1.12-.55 1.12-1.25v-8.7c0-.7-.5-1.25-1.12-1.25-.63 0-1.12.55-1.12 1.25v8.7z" clip-rule="evenodd"/><path stroke="#262626" stroke-width="1.08" d="M6.6 40.08c0 .7.5 1.25 1.13 1.25.63 0 1.12-.55 1.12-1.25v-8.7c0-.7-.5-1.25-1.12-1.25-.63 0-1.12.55-1.12 1.25v8.7z" clip-rule="evenodd"/><path fill="#CC9E70" fill-rule="evenodd" d="M1 24.55c0 .63.52 1.1 1.12 1.1a1.1 1.1 0 001.12-1.1v-9c0-.63-.52-1.1-1.12-1.1A1.1 1.1 0 001 15.54v9z" clip-rule="evenodd"/><path stroke="#262626" stroke-width="1.73" d="M1 24.55c0 .63.52 1.1 1.12 1.1a1.1 1.1 0 001.12-1.1v-9c0-.63-.52-1.1-1.12-1.1A1.1 1.1 0 001 15.54v9z" clip-rule="evenodd"/><path fill="#23B2A7" fill-rule="evenodd" d="M1.04 16.41c0-2.02 2.02-2.58 4.47-1.23 2.45 1.35 4.46 4.12 4.46 6.14v9.81l-2.25 1.24L1 28.7V16.4h.04z" clip-rule="evenodd"/><path stroke="#262626" stroke-width="1.08" d="M1.04 16.41c0-2.02 2.02-2.58 4.47-1.23 2.45 1.35 4.46 4.12 4.46 6.14v9.81l-2.25 1.24L1 28.7V16.4h.04z" clip-rule="evenodd"/><path fill="#CC9E70" fill-rule="evenodd" d="M6.05 9.96a3.92 3.92 0 110 7.85 3.92 3.92 0 010-7.85z" clip-rule="evenodd"/><path stroke="#262626" stroke-width="1.08" d="M6.05 9.96a3.92 3.92 0 110 7.85 3.92 3.92 0 010-7.85z" clip-rule="evenodd"/><path fill="#92613C" fill-rule="evenodd" d="M5.27 10c-.07 0-.14 0-.21.04-1.65.29-2.94 1.92-2.94 3.88s1.25 3.6 2.94 3.88c1.64-.28 2.93-1.92 2.93-3.88 0-.44-.07-.9-.18-1.3.33.04.68 0 1.04-.08l-.1-.25v-.04L8.63 12v-.04a.92.92 0 00-.1-.2v-.04c-.05-.08-.08-.16-.15-.2 0 0 0-.05-.04-.05-.03-.08-.1-.12-.14-.2-.04-.08-.11-.12-.18-.2l-.04-.05a2.6 2.6 0 00-.35-.32l-.04-.04c-.07-.04-.14-.09-.18-.17a.74.74 0 01-.18-.12s-.03 0-.03-.04l-.22-.12h-.04c-.07-.04-.14-.04-.17-.08h-.04c-.07-.04-.14-.04-.21-.09h-.04c-.07 0-.14-.04-.21-.04h-.04c-.07 0-.14-.04-.25-.04H5.42c-.11.04-.15.04-.15.04z" clip-rule="evenodd"/><path stroke="#262626" stroke-linecap="round" stroke-linejoin="round" stroke-width="1.08" d="M5.27 10c-.07 0-.14 0-.21.04-1.65.29-2.94 1.92-2.94 3.88s1.25 3.6 2.94 3.88c1.64-.28 2.93-1.92 2.93-3.88 0-.44-.07-.9-.18-1.3.33.04.68 0 1.04-.08l-.1-.25v-.04L8.63 12v-.04a.92.92 0 00-.1-.2v-.04c-.05-.08-.08-.16-.15-.2 0 0 0-.05-.04-.05-.03-.08-.1-.12-.14-.2-.04-.08-.11-.12-.18-.2l-.04-.05a2.6 2.6 0 00-.35-.32l-.04-.04c-.07-.04-.14-.09-.18-.17a.74.74 0 01-.18-.12s-.03 0-.03-.04l-.22-.12h-.04c-.07-.04-.14-.04-.17-.08h-.04c-.07-.04-.14-.04-.21-.09h-.04c-.07 0-.14-.04-.21-.04h-.04c-.07 0-.14-.04-.25-.04H5.42c-.11.04-.15.04-.15.04z" clip-rule="evenodd"/><path fill="#FFDC00" fill-rule="evenodd" d="M9.74 11.85c.12-.33.2-.61.23-.95-.3-.12-.58-.2-.9-.24a4.39 4.39 0 00-3.54-1.82A4.67 4.67 0 001 13.63c0 .62.12 1.2.31 1.73-.12.33-.2.62-.23.95a6.89 6.89 0 002.22.37 6.7 6.7 0 006.44-4.83z" clip-rule="evenodd"/><path stroke="#262626" stroke-linecap="round" stroke-linejoin="round" stroke-width="1.08" d="M9.74 11.85c.12-.33.2-.61.23-.95-.3-.12-.58-.2-.9-.24a4.39 4.39 0 00-3.54-1.82A4.67 4.67 0 001 13.63c0 .62.12 1.2.31 1.73-.12.33-.2.62-.23.95a6.89 6.89 0 002.22.37 6.7 6.7 0 006.44-4.83z" clip-rule="evenodd"/><path fill="#CC9E70" fill-rule="evenodd" d="M11.66 20.92l3.35-1.84c.56-.3 1.23-.11 1.54.37.32.53.12 1.17-.4 1.47l-4.49 2.49-4.5-2.49c-.55-.3-.7-.94-.4-1.47.32-.52 1-.67 1.55-.37l3.35 1.84z" clip-rule="evenodd"/><path stroke="#262626" stroke-width="1.08" d="M11.66 20.92l3.35-1.84c.56-.3 1.23-.11 1.54.37.32.53.12 1.17-.4 1.47l-4.49 2.49-4.5-2.49c-.55-.3-.7-.94-.4-1.47.32-.52 1-.67 1.55-.37l3.35 1.84z" clip-rule="evenodd"/><path fill="#fff" fill-rule="evenodd" d="M41.38 40.38l-9.26 5.43-15.41-9.09 9.26-5.47 15.41 9.13z" clip-rule="evenodd"/><path stroke="#333" stroke-linecap="round" stroke-linejoin="round" stroke-width="1.08" d="M41.38 40.38l-9.26 5.43-15.41-9.09 9.26-5.47 15.41 9.13z" clip-rule="evenodd"/><path fill="#fff" fill-rule="evenodd" d="M41.38 39.22l-9.26 5.47L16.7 35.6l9.26-5.47 15.41 9.1z" clip-rule="evenodd"/><path stroke="#333" stroke-linecap="round" stroke-linejoin="round" stroke-width="1.08" d="M41.38 39.22l-9.26 5.47L16.7 35.6l9.26-5.47 15.41 9.1z" clip-rule="evenodd"/><path fill="#fff" fill-rule="evenodd" d="M41.38 38.1l-9.26 5.47-15.41-9.13 9.26-5.43 15.41 9.1z" clip-rule="evenodd"/><path stroke="#333" stroke-linecap="round" stroke-linejoin="round" stroke-width="1.08" d="M41.38 38.1l-9.26 5.47-15.41-9.13 9.26-5.43 15.41 9.1z" clip-rule="evenodd"/><path fill="#fff" fill-rule="evenodd" d="M41.38 37.02l-9.26 5.43-15.41-9.1 9.26-5.46 15.41 9.13z" clip-rule="evenodd"/><path stroke="#333" stroke-linecap="round" stroke-linejoin="round" stroke-width="1.08" d="M41.38 37.02l-9.26 5.43-15.41-9.1 9.26-5.46 15.41 9.13z" clip-rule="evenodd"/><path fill="#FB6045" fill-rule="evenodd" d="M27.92 31.22l-1.56.2-.3.95-3.75-2.25L24.18 29l3.74 2.21z" clip-rule="evenodd"/><path stroke="#333" stroke-linecap="round" stroke-linejoin="round" stroke-width="1.08" d="M27.92 31.22l-1.56.2-.3.95-3.75-2.25L24.18 29l3.74 2.21z" clip-rule="evenodd"/><path stroke="#333" stroke-linecap="round" stroke-linejoin="round" stroke-width="1.73" d="M32.41 40.21l5.6-3.36"/><path stroke="#333" stroke-linecap="round" stroke-linejoin="round" stroke-width="1.08" d="M31.29 40.21l5.6-3.36M30.17 39.1l5.6-3.37M29.04 39.1l5.61-3.37M27.92 37.97l5.61-3.36M26.8 37.97l5.61-3.36"/></svg>
