<svg xmlns="http://www.w3.org/2000/svg" fill="none" viewBox="0 0 79 65"><defs/><path fill="#806346" fill-rule="evenodd" d="M73.4 57.45c0 .75-.58 1.34-1.33 1.34-.75 0-1.34-.6-1.34-1.34V48.2c0-.75.6-1.34 1.34-1.34.75 0 1.34.6 1.34 1.34v9.26z" clip-rule="evenodd"/><path stroke="#262626" stroke-width="1.08" d="M73.4 57.45c0 .75-.58 1.34-1.33 1.34-.75 0-1.34-.6-1.34-1.34V48.2c0-.75.6-1.34 1.34-1.34.75 0 1.34.6 1.34 1.34v9.26z" clip-rule="evenodd"/><path fill="#806346" fill-rule="evenodd" d="M69.52 59.7c0 .74-.6 1.33-1.34 1.33-.75 0-1.34-.6-1.34-1.34v-9.26c0-.75.6-1.34 1.34-1.34.75 0 1.34.59 1.34 1.34v9.26z" clip-rule="evenodd"/><path stroke="#262626" stroke-width="1.08" d="M69.52 59.7c0 .74-.6 1.33-1.34 1.33-.75 0-1.34-.6-1.34-1.34v-9.26c0-.75.6-1.34 1.34-1.34.75 0 1.34.59 1.34 1.34v9.26z" clip-rule="evenodd"/><path fill="#806346" fill-rule="evenodd" d="M75.14 34.68c-.2.6-.87.87-1.42.67a1.1 1.1 0 01-.67-1.41l3.07-8.48c.2-.6.86-.87 1.42-.67.58.2.86.86.66 1.41l-3.06 8.48z" clip-rule="evenodd"/><path stroke="#262626" stroke-width="1.08" d="M75.14 34.68c-.2.6-.87.87-1.42.67a1.1 1.1 0 01-.67-1.41l3.07-8.48c.2-.6.86-.87 1.42-.67.58.2.86.86.66 1.41l-3.06 8.48z" clip-rule="evenodd"/><path fill="#6C75E1" fill-rule="evenodd" d="M74.55 34.68c0-2.12-2-2.7-4.44-1.3-2.44 1.42-4.45 4.33-4.45 6.45V50.1l2.24 1.3 6.69-3.85V34.68h-.04z" clip-rule="evenodd"/><path stroke="#262626" stroke-width="1.08" d="M74.55 34.68c0-2.12-2-2.7-4.44-1.3-2.44 1.42-4.45 4.33-4.45 6.45V50.1l2.24 1.3 6.69-3.85V34.68h-.04z" clip-rule="evenodd"/><path fill="#806346" fill-rule="evenodd" d="M70.22 28.52a3.77 3.77 0 110 7.54 3.77 3.77 0 010-7.54z" clip-rule="evenodd"/><path stroke="#262626" stroke-width="1.73" d="M70.22 28.52a3.77 3.77 0 110 7.54 3.77 3.77 0 010-7.54z" clip-rule="evenodd"/><path fill="#464646" fill-rule="evenodd" d="M70.54 28.52A3.8 3.8 0 0174 32.29a3.76 3.76 0 01-3.23 3.73 3.8 3.8 0 01-3.02-4.99c-.36.04-.75 0-1.14-.08l.12-.23v-.04l.11-.24v-.04a.84.84 0 01.12-.2v-.03c.04-.08.08-.16.16-.2 0 0 0-.04.04-.04.04-.08.12-.11.15-.2.04-.07.12-.11.2-.19l.04-.04c.12-.12.28-.23.4-.31l.03-.04c.08-.04.16-.08.2-.16.08-.04.16-.08.2-.12 0 0 .03 0 .03-.04l.24-.11h.04c.08-.04.16-.04.2-.08h.04c.07-.04.15-.04.23-.08h.04c.08 0 .16-.04.24-.04h.04c.08 0 .15-.04.27-.04H70.38c.12 0 .16 0 .16.04z" clip-rule="evenodd"/><path stroke="#262626" stroke-linecap="round" stroke-linejoin="round" stroke-width="1.08" d="M70.54 28.52A3.8 3.8 0 0174 32.29a3.76 3.76 0 01-3.23 3.73 3.8 3.8 0 01-3.02-4.99c-.36.04-.75 0-1.14-.08l.12-.23v-.04l.11-.24v-.04a.84.84 0 01.12-.2v-.03c.04-.08.08-.16.16-.2 0 0 0-.04.04-.04.04-.08.12-.11.15-.2.04-.07.12-.11.2-.19l.04-.04c.12-.12.28-.23.4-.31l.03-.04c.08-.04.16-.08.2-.16.08-.04.16-.08.2-.12 0 0 .03 0 .03-.04l.24-.11h.04c.08-.04.16-.04.2-.08h.04c.07-.04.15-.04.23-.08h.04c.08 0 .16-.04.24-.04h.04c.08 0 .15-.04.27-.04H70.38c.12 0 .16 0 .16.04z" clip-rule="evenodd"/><path fill="#806346" fill-rule="evenodd" d="M68.45 37.78a1.1 1.1 0 01-.66 1.42 1.1 1.1 0 01-1.42-.67l-3.07-8.48a1.1 1.1 0 01.67-1.41c.6-.2 1.22.08 1.42.66l3.06 8.48z" clip-rule="evenodd"/><path stroke="#262626" stroke-width="1.08" d="M68.45 37.78a1.1 1.1 0 01-.66 1.42 1.1 1.1 0 01-1.42-.67l-3.07-8.48a1.1 1.1 0 01.67-1.41c.6-.2 1.22.08 1.42.66l3.06 8.48z" clip-rule="evenodd"/><path fill="#FFCBA6" fill-rule="evenodd" d="M56.7 54.23c0 .75-.59 1.34-1.33 1.34-.75 0-1.34-.59-1.34-1.34v-9.26c0-.75.59-1.34 1.34-1.34.74 0 1.33.6 1.33 1.34v9.26z" clip-rule="evenodd"/><path stroke="#262626" stroke-width="1.08" d="M56.7 54.23c0 .75-.59 1.34-1.33 1.34-.75 0-1.34-.59-1.34-1.34v-9.26c0-.75.59-1.34 1.34-1.34.74 0 1.33.6 1.33 1.34v9.26z" clip-rule="evenodd"/><path fill="#FFCBA6" fill-rule="evenodd" d="M52.81 56.47c0 .75-.59 1.34-1.34 1.34-.74 0-1.33-.6-1.33-1.34v-9.26c0-.75.59-1.34 1.33-1.34.75 0 1.34.6 1.34 1.34v9.26z" clip-rule="evenodd"/><path stroke="#262626" stroke-width="1.08" d="M52.81 56.47c0 .75-.59 1.34-1.34 1.34-.74 0-1.33-.6-1.33-1.34v-9.26c0-.75.59-1.34 1.33-1.34.75 0 1.34.6 1.34 1.34v9.26z" clip-rule="evenodd"/><path fill="#FFCBA6" fill-rule="evenodd" d="M58.43 31.46c-.2.6-.86.87-1.41.67a1.1 1.1 0 01-.67-1.41l3.06-8.48a1.1 1.1 0 012.08.75l-3.06 8.47z" clip-rule="evenodd"/><path stroke="#262626" stroke-width="1.08" d="M58.43 31.46c-.2.6-.86.87-1.41.67a1.1 1.1 0 01-.67-1.41l3.06-8.48a1.1 1.1 0 012.08.75l-3.06 8.47z" clip-rule="evenodd"/><path fill="#23B2A7" fill-rule="evenodd" d="M57.8 31.46c0-2.12-2-2.7-4.44-1.3-2.44 1.42-4.44 4.33-4.44 6.45v10.28l2.24 1.3 6.68-3.85V31.46h-.04z" clip-rule="evenodd"/><path stroke="#262626" stroke-width="1.08" d="M57.8 31.46c0-2.12-2-2.7-4.44-1.3-2.44 1.42-4.44 4.33-4.44 6.45v10.28l2.24 1.3 6.68-3.85V31.46h-.04z" clip-rule="evenodd"/><path fill="#FFCBA6" fill-rule="evenodd" d="M53.52 25.3a3.77 3.77 0 110 7.54 3.77 3.77 0 010-7.54z" clip-rule="evenodd"/><path stroke="#262626" stroke-width="1.73" d="M53.52 25.3a3.77 3.77 0 110 7.54 3.77 3.77 0 010-7.54z" clip-rule="evenodd"/><path fill="#98760F" fill-rule="evenodd" d="M53.83 25.3a3.8 3.8 0 013.46 3.77 3.77 3.77 0 01-3.22 3.73 3.8 3.8 0 01-3.03-4.99c-.35.04-.75 0-1.14-.08l.12-.23v-.04l.12-.23v-.04a.77.77 0 01.12-.2v-.04c.03-.08.07-.16.15-.2 0 0 0-.04.04-.04.04-.08.12-.11.16-.2.04-.07.12-.11.2-.19l.03-.04c.12-.12.28-.23.4-.31l.04-.04c.08-.04.15-.08.2-.16a.82.82 0 00.19-.12s.04 0 .04-.04l.23-.11h.04c.08-.04.16-.04.2-.08h.04c.08-.04.16-.04.24-.08h.04c.07 0 .15-.04.23-.04h.04c.08 0 .16-.04.28-.04H53.67l.16.04z" clip-rule="evenodd"/><path stroke="#262626" stroke-linecap="round" stroke-linejoin="round" stroke-width="1.08" d="M53.83 25.3a3.8 3.8 0 013.46 3.77 3.77 3.77 0 01-3.22 3.73 3.8 3.8 0 01-3.03-4.99c-.35.04-.75 0-1.14-.08l.12-.23v-.04l.12-.23v-.04a.77.77 0 01.12-.2v-.04c.03-.08.07-.16.15-.2 0 0 0-.04.04-.04.04-.08.12-.11.16-.2.04-.07.12-.11.2-.19l.03-.04c.12-.12.28-.23.4-.31l.04-.04c.08-.04.15-.08.2-.16a.82.82 0 00.19-.12s.04 0 .04-.04l.23-.11h.04c.08-.04.16-.04.2-.08h.04c.08-.04.16-.04.24-.08h.04c.07 0 .15-.04.23-.04h.04c.08 0 .16-.04.28-.04H53.67l.16.04z" clip-rule="evenodd"/><path fill="#FFCBA6" fill-rule="evenodd" d="M51.75 34.57a1.1 1.1 0 01-.67 1.4c-.59.2-1.22-.07-1.41-.66l-3.07-8.48c-.2-.59.08-1.22.67-1.41a1.1 1.1 0 011.41.67l3.07 8.48z" clip-rule="evenodd"/><path stroke="#262626" stroke-width="1.08" d="M51.75 34.57a1.1 1.1 0 01-.67 1.4c-.59.2-1.22-.07-1.41-.66l-3.07-8.48c-.2-.59.08-1.22.67-1.41a1.1 1.1 0 011.41.67l3.07 8.48z" clip-rule="evenodd"/><path fill="#fff" fill-rule="evenodd" d="M40 26.67L1 49.17V23.46L40 1v25.67z" clip-rule="evenodd"/><path stroke="#262626" stroke-linecap="round" stroke-linejoin="round" stroke-width="1.08" d="M40 26.67L1 49.17V23.46L40 1v25.67z" clip-rule="evenodd"/><path fill="#fff" fill-rule="evenodd" d="M6.62 42.7l5.15-12.8 5.94.15 5.58-9.81h5.54l5.58-12.72" clip-rule="evenodd"/><path stroke="#262626" stroke-linecap="round" stroke-linejoin="round" stroke-width="1.08" d="M6.62 42.7l5.15-12.8 5.94.15 5.58-9.81h5.54l5.58-12.72"/><path fill="#515151" fill-rule="evenodd" d="M9.45 22.51c.28.32.43.79.43 1.42 0 1.84-1.49 4.2-3.34 5.26-1.22.7-2.32.67-2.9 0l5.81-6.68z" clip-rule="evenodd"/><path stroke="#333" stroke-linecap="round" stroke-linejoin="round" stroke-width="1.08" d="M9.45 22.51c.28.32.43.79.43 1.42 0 1.84-1.49 4.2-3.34 5.26-1.22.7-2.32.67-2.9 0l5.81-6.68z" clip-rule="evenodd"/><path fill="#8B8B8B" fill-rule="evenodd" d="M9.45 22.51c-.59-.66-1.65-.74-2.9 0v3.34l2.9-3.34z" clip-rule="evenodd"/><path stroke="#333" stroke-linecap="round" stroke-linejoin="round" stroke-width="1.08" d="M9.45 22.51c-.59-.66-1.65-.74-2.9 0v3.34l2.9-3.34z" clip-rule="evenodd"/><path stroke="#333" stroke-linecap="round" stroke-linejoin="round" stroke-width="1.08" d="M3.67 29.15a2.1 2.1 0 01-.43-1.42c0-1.84 1.5-4.2 3.34-5.26v3.34l-2.9 3.34z" clip-rule="evenodd"/><path fill="#515151" fill-rule="evenodd" d="M19.4 62.91c0 .75-.6 1.33-1.34 1.33-.75 0-1.34-.58-1.34-1.33v-9.27c0-.74.6-1.33 1.34-1.33.75 0 1.34.59 1.34 1.33v9.27z" clip-rule="evenodd"/><path stroke="#262626" stroke-width="1.08" d="M19.4 62.91c0 .75-.6 1.33-1.34 1.33-.75 0-1.34-.58-1.34-1.33v-9.27c0-.74.6-1.33 1.34-1.33.75 0 1.34.59 1.34 1.33v9.27z" clip-rule="evenodd"/><path fill="#515151" fill-rule="evenodd" d="M23.29 60.67c0 .75-.6 1.34-1.34 1.34-.74 0-1.34-.6-1.34-1.34v-9.26c0-.75.6-1.34 1.34-1.34.75 0 1.34.6 1.34 1.34v9.26z" clip-rule="evenodd"/><path stroke="#262626" stroke-width="1.08" d="M23.29 60.67c0 .75-.6 1.34-1.34 1.34-.74 0-1.34-.6-1.34-1.34v-9.26c0-.75.6-1.34 1.34-1.34.75 0 1.34.6 1.34 1.34v9.26z" clip-rule="evenodd"/><path fill="#CC9E70" fill-rule="evenodd" d="M26.51 38.92L29.85 37a1.14 1.14 0 011.54.4c.31.54.11 1.21-.4 1.52l-4.48 2.6-4.44-2.6a1.1 1.1 0 01-.4-1.53c.32-.55.99-.7 1.54-.4l3.3 1.93z" clip-rule="evenodd"/><path stroke="#262626" stroke-width="1.08" d="M26.51 38.92L29.85 37a1.14 1.14 0 011.54.4c.31.54.11 1.21-.4 1.52l-4.48 2.6-4.44-2.6a1.1 1.1 0 01-.4-1.53c.32-.55.99-.7 1.54-.4l3.3 1.93z" clip-rule="evenodd"/><path fill="#FB6045" fill-rule="evenodd" d="M24.39 37.9c0-2.12-2-2.7-4.44-1.3-2.44 1.42-4.44 4.32-4.44 6.44v10.29l2.24 1.3 6.68-3.85V37.9h-.04z" clip-rule="evenodd"/><path stroke="#262626" stroke-width="1.08" d="M24.39 37.9c0-2.12-2-2.7-4.44-1.3-2.44 1.42-4.44 4.32-4.44 6.44v10.29l2.24 1.3 6.68-3.85V37.9h-.04z" clip-rule="evenodd"/><path fill="#CC9E70" fill-rule="evenodd" d="M17.04 45.68l3.34 1.92c.55.31.7.98.4 1.53-.32.55-.99.7-1.54.4l-4.44-2.6V41.8a1.1 1.1 0 112.2 0v3.89h.04z" clip-rule="evenodd"/><path stroke="#262626" stroke-width="1.08" d="M17.04 45.68l3.34 1.92c.55.31.7.98.4 1.53-.32.55-.99.7-1.54.4l-4.44-2.6V41.8a1.1 1.1 0 112.2 0v3.89h.04z" clip-rule="evenodd"/><path fill="#CC9E70" fill-rule="evenodd" d="M19.95 31.54a3.77 3.77 0 110 7.54 3.77 3.77 0 010-7.54z" clip-rule="evenodd"/><path stroke="#262626" stroke-width="1.08" d="M19.95 31.54a3.77 3.77 0 110 7.54 3.77 3.77 0 010-7.54z" clip-rule="evenodd"/><path fill="#262626" fill-rule="evenodd" d="M21.7 35.25a.43.43 0 11.43.75.43.43 0 01-.44-.75zM19.36 36.6a.43.43 0 11.43.75.43.43 0 01-.43-.75z" clip-rule="evenodd"/><path fill="#464646" fill-rule="evenodd" d="M19 39a3.74 3.74 0 01-1.18-3.5h.16c1.57 0 2.91-.93 3.46-2.27a3.8 3.8 0 012.08 3.3 3.77 3.77 0 10-7.35-1.22 3.72 3.72 0 002.83 3.7z" clip-rule="evenodd"/><path stroke="#262626" stroke-linecap="round" stroke-linejoin="round" stroke-width="1.08" d="M19 39a3.74 3.74 0 01-1.18-3.5h.16c1.57 0 2.91-.93 3.46-2.27a3.8 3.8 0 012.08 3.3 3.77 3.77 0 10-7.35-1.22 3.72 3.72 0 002.83 3.7z" clip-rule="evenodd"/></svg>
