<svg xmlns="http://www.w3.org/2000/svg" fill="none" viewBox="0 0 48 65"><defs/><path fill="#A2A2A2" fill-rule="evenodd" d="M25.95 53.68c2.63 1.53 2.63 4.02 0 5.55a10.45 10.45 0 01-9.52 0c-2.63-1.53-2.63-4.02 0-5.55a10.45 10.45 0 019.52 0z" clip-rule="evenodd"/><path stroke="#262626" stroke-linecap="round" stroke-linejoin="round" stroke-width="1.08" d="M25.95 53.68c2.63 1.53 2.63 4.02 0 5.55a10.45 10.45 0 01-9.52 0c-2.63-1.53-2.63-4.02 0-5.55a10.45 10.45 0 019.52 0z" clip-rule="evenodd"/><path fill="#A2A2A2" fill-rule="evenodd" d="M22.31 54.36c0 .88-.78 1.54-1.68 1.54-.96 0-1.68-.72-1.68-1.54v-5.89c0-.88.78-1.54 1.68-1.54.96 0 1.68.72 1.68 1.54v5.89z" clip-rule="evenodd"/><path stroke="#262626" stroke-linecap="round" stroke-linejoin="round" stroke-width="1.73" d="M22.31 54.36c0 .88-.78 1.54-1.68 1.54-.96 0-1.68-.72-1.68-1.54v-5.89c0-.88.78-1.54 1.68-1.54.96 0 1.68.72 1.68 1.54v5.89z" clip-rule="evenodd"/><path fill="#515151" fill-rule="evenodd" d="M20.63 54.78L11.1 49.3v-3.63l9.53-5.47 9.54 5.47v3.63l-9.54 5.47z" clip-rule="evenodd"/><path stroke="#262626" stroke-linecap="round" stroke-linejoin="round" stroke-width="1.08" d="M20.63 54.78L11.1 49.3v-3.63l9.53-5.47 9.54 5.47v3.63l-9.54 5.47z" clip-rule="evenodd"/><path fill="#515151" fill-rule="evenodd" d="M23.44 41.61l-9.3 5.32-3.04-1.74V30.97l9.24-5.32 3.04 1.73.06 14.23z" clip-rule="evenodd"/><path stroke="#262626" stroke-linecap="round" stroke-linejoin="round" stroke-width="1.08" d="M23.44 41.61l-9.3 5.32-3.04-1.74V30.97l9.24-5.32 3.04 1.73.06 14.23z" clip-rule="evenodd"/><path fill="#FFCBA6" fill-rule="evenodd" d="M25.68 61.86c0 1.05-.8 1.88-1.8 1.88s-1.8-.83-1.8-1.88V52l-4.48-2.72a1.88 1.88 0 01-.64-2.54 1.7 1.7 0 012.43-.67l5.4 3.27c.52.33.89.94.89 1.6v10.9z" clip-rule="evenodd"/><path stroke="#262626" stroke-width="1.08" d="M25.68 61.86c0 1.05-.8 1.88-1.8 1.88s-1.8-.83-1.8-1.88V52l-4.48-2.72a1.88 1.88 0 01-.64-2.54 1.7 1.7 0 012.43-.67l5.4 3.27c.52.33.89.94.89 1.6v10.9z" clip-rule="evenodd"/><path fill="#FFCBA6" fill-rule="evenodd" d="M31.29 58.5c0 1.05-.8 1.88-1.8 1.88s-1.8-.83-1.8-1.88v-9.86l-4.48-2.7a1.88 1.88 0 01-.64-2.55 1.7 1.7 0 012.43-.67L30.4 46c.53.33.9.94.9 1.6v10.9z" clip-rule="evenodd"/><path stroke="#262626" stroke-width="1.08" d="M31.29 58.5c0 1.05-.8 1.88-1.8 1.88s-1.8-.83-1.8-1.88v-9.86l-4.48-2.7a1.88 1.88 0 01-.64-2.55 1.7 1.7 0 012.43-.67L30.4 46c.53.33.9.94.9 1.6v10.9z" clip-rule="evenodd"/><path fill="#FFCBA6" fill-rule="evenodd" d="M29.02 27.52l4.5-2.76a1.47 1.47 0 012.05.56c.42.8.16 1.75-.53 2.2l-6.02 3.73-5.96-3.73c-.74-.45-.95-1.4-.53-2.2a1.43 1.43 0 012.06-.56l4.43 2.76z" clip-rule="evenodd"/><path stroke="#262626" stroke-width="1.08" d="M29.02 27.52l4.5-2.76a1.47 1.47 0 012.05.56c.42.8.16 1.75-.53 2.2l-6.02 3.73-5.96-3.73c-.74-.45-.95-1.4-.53-2.2a1.43 1.43 0 012.06-.56l4.43 2.76z" clip-rule="evenodd"/><path fill="#23B2A7" fill-rule="evenodd" d="M26.75 25.24c0-3.03-2.78-3.87-6.15-1.85-3.37 2.02-6.14 6.18-6.14 9.21v14.72l3.1 1.85 9.24-5.5V25.24h-.05z" clip-rule="evenodd"/><path stroke="#262626" stroke-width="1.08" d="M26.75 25.24c0-3.03-2.78-3.87-6.15-1.85-3.37 2.02-6.14 6.18-6.14 9.21v14.72l3.1 1.85 9.24-5.5V25.24h-.05z" clip-rule="evenodd"/><path fill="#FFCBA6" fill-rule="evenodd" d="M20.63 16.68a5.05 5.05 0 110 10.1 5.05 5.05 0 010-10.1z" clip-rule="evenodd"/><path stroke="#262626" stroke-width="1.08" d="M20.63 16.68a5.05 5.05 0 110 10.1 5.05 5.05 0 010-10.1z" clip-rule="evenodd"/><path stroke="#262626" stroke-width=".87" d="M22.88 21.32A1.12 1.12 0 1124 23.26a1.12 1.12 0 01-1.12-1.94z" clip-rule="evenodd"/><path stroke="#262626" stroke-width=".87" d="M21.37 23.4c-.36-.35-.15-.83.42-1 .58-.23 1.36-.1 1.65.26"/><path stroke="#262626" stroke-width=".87" d="M19.51 23.56a1.12 1.12 0 111.12 1.94 1.12 1.12 0 01-1.12-1.94z" clip-rule="evenodd"/><path fill="#98760F" fill-rule="evenodd" d="M25.68 20.35a5.27 5.27 0 00-4.89-3.67c-2.87 0-5.2 2.5-5.2 5.6 0 .34.05.64.05.93.97.29 2.11.29 3.15-.18a5.34 5.34 0 003.14-3.43 4.53 4.53 0 003.75.75z" clip-rule="evenodd"/><path stroke="#262626" stroke-linecap="round" stroke-linejoin="round" stroke-width="1.08" d="M25.68 20.35a5.27 5.27 0 00-4.89-3.67c-2.87 0-5.2 2.5-5.2 5.6 0 .34.05.64.05.93.97.29 2.11.29 3.15-.18a5.34 5.34 0 003.14-3.43 4.53 4.53 0 003.75.75z" clip-rule="evenodd"/><path fill="#FFCBA6" fill-rule="evenodd" d="M22.11 44.5c.42.8.16 1.76-.52 2.21-.73.46-1.62.18-2.04-.57l-6-11.33c-.43-.8-.17-1.77.51-2.22.73-.46 1.62-.17 2.04.57l6.01 11.33z" clip-rule="evenodd"/><path stroke="#262626" stroke-width="1.08" d="M22.11 44.5c.42.8.16 1.76-.52 2.21-.73.46-1.62.18-2.04-.57l-6-11.33c-.43-.8-.17-1.77.51-2.22.73-.46 1.62-.17 2.04.57l6.01 11.33z" clip-rule="evenodd"/><path fill="#F2F2F2" fill-rule="evenodd" d="M32.28 41.33l-12.21 7.3 10.28 6.15 12.16-7.31-10.23-6.14z" clip-rule="evenodd"/><path stroke="#262626" stroke-linecap="round" stroke-linejoin="round" stroke-width="1.08" d="M32.28 41.33l-12.21 7.3 10.28 6.15 12.16-7.31-10.23-6.14z" clip-rule="evenodd"/><path fill="#515151" fill-rule="evenodd" d="M41.38 48.43l-9.2 5.23-6.5-3.74 9.2-5.23 6.5 3.74z" clip-rule="evenodd"/><path stroke="#262626" stroke-linecap="round" stroke-linejoin="round" stroke-width="1.73" d="M41.38 48.43l-9.2 5.23-6.5-3.74 9.2-5.23 6.5 3.74z" clip-rule="evenodd"/><path fill="#F2F2F2" fill-rule="evenodd" d="M34.4 42.84L47 35.73l-3.17 11.94-12.54 7.1 3.1-11.93z" clip-rule="evenodd"/><path stroke="#262626" stroke-linecap="round" stroke-linejoin="round" stroke-width="1.08" d="M34.4 42.84L47 35.73l-3.17 11.94-12.54 7.1 3.1-11.93z" clip-rule="evenodd"/><path fill="#D1D871" fill-rule="evenodd" d="M25.98 2.3L24.03 1l.11 2.38-1.83 1.49 2.3.6.83 2.25 1.24-2.02 2.36-.12-1.47-1.84.65-2.32-2.24.89z" clip-rule="evenodd"/><path stroke="#333" stroke-linecap="round" stroke-linejoin="round" stroke-width="1.08" d="M25.98 2.3L24.03 1l.11 2.38-1.83 1.49 2.3.6.83 2.25 1.24-2.02 2.36-.12-1.47-1.84.65-2.32-2.24.89z" clip-rule="evenodd"/><path fill="#D1D871" fill-rule="evenodd" d="M20.4 4.6l-2-1.36.18 2.44-1.88 1.49 2.29.6.82 2.2 1.28-2.03 2.35-.06-1.53-1.84.65-2.32-2.17.89z" clip-rule="evenodd"/><path stroke="#333" stroke-linecap="round" stroke-linejoin="round" stroke-width="1.08" d="M20.4 4.6l-2-1.36.18 2.44-1.88 1.49 2.29.6.82 2.2 1.28-2.03 2.35-.06-1.53-1.84.65-2.32-2.17.89z" clip-rule="evenodd"/><path fill="#D1D871" fill-rule="evenodd" d="M14.78 7.91l-1.99-1.3.18 2.37-1.87 1.49 2.28.6.82 2.25 1.29-2.02 2.34-.12-1.52-1.84.64-2.26-2.17.83z" clip-rule="evenodd"/><path stroke="#333" stroke-linecap="round" stroke-linejoin="round" stroke-width="1.08" d="M14.78 7.91l-1.99-1.3.18 2.37-1.87 1.49 2.28.6.82 2.25 1.29-2.02 2.34-.12-1.52-1.84.64-2.26-2.17.83z" clip-rule="evenodd"/><path fill="#D1D871" fill-rule="evenodd" d="M9.17 11.27l-1.99-1.3.18 2.37-1.87 1.49 2.28.6.82 2.25 1.29-2.02 2.34-.12-1.52-1.84.64-2.32-2.17.9z" clip-rule="evenodd"/><path stroke="#333" stroke-linecap="round" stroke-linejoin="round" stroke-width="1.08" d="M9.17 11.27l-1.99-1.3.18 2.37-1.87 1.49 2.28.6.82 2.25 1.29-2.02 2.34-.12-1.52-1.84.64-2.32-2.17.9z" clip-rule="evenodd"/><path fill="#D1D871" fill-rule="evenodd" d="M4.63 14.68L2.7 13.32l.11 2.42L1 17.21l2.28.6.82 2.24 1.23-2.07 2.4-.06-1.52-1.82.64-2.3-2.22.88z" clip-rule="evenodd"/><path stroke="#333" stroke-linecap="round" stroke-linejoin="round" stroke-width="1.08" d="M4.63 14.68L2.7 13.32l.11 2.42L1 17.21l2.28.6.82 2.24 1.23-2.07 2.4-.06-1.52-1.82.64-2.3-2.22.88z" clip-rule="evenodd"/></svg>
