<svg xmlns="http://www.w3.org/2000/svg" fill="none" viewBox="0 0 53 44"><defs/><path fill="#fff" fill-rule="evenodd" d="M1 14.46l28.85 16.62 21.63-12.5L22.63 1.95 1 14.45z" clip-rule="evenodd"/><path stroke="#262626" stroke-linecap="round" stroke-linejoin="round" stroke-width="1.08" d="M29.85 31.08L1 14.46l21.63-12.5 28.85 16.62-21.63 12.5z" clip-rule="evenodd"/><path stroke="#333" stroke-linecap="round" stroke-linejoin="round" stroke-width="1.08" d="M27.53 23.24l-7.46-4.08 4.88-2.64 7.46 4.08-4.88 2.64z" clip-rule="evenodd"/><path stroke="#333" stroke-linecap="round" stroke-linejoin="round" stroke-width="1.73" d="M20.07 19.88v-8.42l4.49-2.78v8.46l-4.49 2.74z" clip-rule="evenodd"/><path stroke="#333" stroke-linecap="round" stroke-linejoin="round" stroke-width="1.08" d="M31.29 21v-8.22l-6.73-4.1v8.21l6.73 4.1z" clip-rule="evenodd"/><path stroke="#333" stroke-linecap="round" stroke-linejoin="round" stroke-width="1.08" d="M33.53 13.16V21M33.53 22.95l-1.12-.83M33.53 14.04l-1.12-.88"/><path stroke="#333" stroke-linecap="round" stroke-linejoin="round" stroke-width="1.73" d="M17.89 10.92l-.06 7.84M17.83 19.59l-1.13-.83M17.83 11.8l-1.13-.88M22.31 9.8v.3"/><path stroke="#333" stroke-dasharray="1.19 2.38" stroke-linecap="round" stroke-linejoin="round" stroke-width="1.73" d="M22.31 10.92v5.6"/><path stroke="#333" stroke-linecap="round" stroke-linejoin="round" stroke-width="1.73" d="M22.31 17.64v.3"/><path stroke="#333" stroke-dasharray="1.08 2.17" stroke-linecap="round" stroke-linejoin="round" stroke-width="1.08" d="M22.31 17.64l6.73 4.48"/><path stroke="#333" stroke-linecap="round" stroke-linejoin="round" stroke-width="1.08" d="M39.14 17.64l3.37 2.24M40.26 16.52l3.37 2.24M42.5 15.4l3.37 2.24"/><path fill="#806346" fill-rule="evenodd" d="M8.43 38.1c0 .95.75 1.7 1.7 1.7.96 0 1.7-.75 1.7-1.7V26.3c0-.95-.74-1.7-1.7-1.7-.95 0-1.7.75-1.7 1.7v11.8z" clip-rule="evenodd"/><path stroke="#262626" stroke-width="1.08" d="M8.43 38.1c0 .95.75 1.7 1.7 1.7.96 0 1.7-.75 1.7-1.7V26.3c0-.95-.74-1.7-1.7-1.7-.95 0-1.7.75-1.7 1.7v11.8z" clip-rule="evenodd"/><path fill="#806346" fill-rule="evenodd" d="M13.4 40.95c0 .95.75 1.7 1.7 1.7s1.7-.75 1.7-1.7v-11.8c0-.95-.75-1.7-1.7-1.7s-1.7.75-1.7 1.7v11.8z" clip-rule="evenodd"/><path stroke="#262626" stroke-width="1.08" d="M13.4 40.95c0 .95.75 1.7 1.7 1.7s1.7-.75 1.7-1.7v-11.8c0-.95-.75-1.7-1.7-1.7s-1.7.75-1.7 1.7v11.8z" clip-rule="evenodd"/><path fill="#806346" fill-rule="evenodd" d="M12.54 9.85L16.8 7.4c.7-.4 1.56-.15 1.96.5.4.7.15 1.55-.5 1.95l-5.72 3.3-5.67-3.3a1.4 1.4 0 01-.5-1.95c.4-.7 1.25-.9 1.96-.5l4.21 2.45z" clip-rule="evenodd"/><path stroke="#262626" stroke-width="1.08" d="M12.54 9.85L16.8 7.4c.7-.4 1.56-.15 1.96.5.4.7.15 1.55-.5 1.95l-5.72 3.3-5.67-3.3a1.4 1.4 0 01-.5-1.95c.4-.7 1.25-.9 1.96-.5l4.21 2.45z" clip-rule="evenodd"/><path fill="#FB6045" fill-rule="evenodd" d="M6.97 9.1c0-2.7 2.56-3.45 5.67-1.65 3.11 1.8 5.67 5.5 5.67 8.2v13.1l-2.86 1.65-8.53-4.9V9.1h.05z" clip-rule="evenodd"/><path stroke="#262626" stroke-width="1.08" d="M6.97 9.1c0-2.7 2.56-3.45 5.67-1.65 3.11 1.8 5.67 5.5 5.67 8.2v13.1l-2.86 1.65-8.53-4.9V9.1h.05z" clip-rule="evenodd"/><path fill="#806346" fill-rule="evenodd" d="M12.7 1.05a4.8 4.8 0 110 9.61 4.8 4.8 0 010-9.61z" clip-rule="evenodd"/><path stroke="#262626" stroke-width="1.08" d="M12.7 1.05a4.8 4.8 0 110 9.61 4.8 4.8 0 010-9.61z" clip-rule="evenodd"/><path fill="#262626" fill-rule="evenodd" d="M12.29 1.05c-.1 0-.2 0-.3.05a4.8 4.8 0 000 9.5 4.84 4.84 0 003.86-6.35c.45.05.96 0 1.46-.1l-.15-.3V3.8L17 3.5v-.05c-.05-.1-.1-.2-.15-.25v-.05c-.05-.1-.1-.2-.2-.25 0 0 0-.05-.06-.05-.05-.1-.15-.15-.2-.25-.05-.1-.15-.15-.25-.25l-.05-.05a3.7 3.7 0 00-.5-.4l-.05-.05c-.1-.05-.2-.1-.25-.2-.1-.05-.2-.1-.25-.15 0 0-.05 0-.05-.05l-.3-.15h-.05c-.1-.05-.2-.05-.25-.1h-.05c-.1-.05-.2-.05-.3-.1H14c-.1 0-.2-.05-.3-.05h-.06c-.1 0-.2-.05-.35-.05H12.5c-.15.05-.2.05-.2.05z" clip-rule="evenodd"/><path stroke="#262626" stroke-linecap="round" stroke-linejoin="round" stroke-width="1.08" d="M12.29 1.05c-.1 0-.2 0-.3.05a4.8 4.8 0 000 9.5 4.84 4.84 0 003.86-6.35c.45.05.96 0 1.46-.1l-.15-.3V3.8L17 3.5v-.05c-.05-.1-.1-.2-.15-.25v-.05c-.05-.1-.1-.2-.2-.25 0 0 0-.05-.06-.05-.05-.1-.15-.15-.2-.25-.05-.1-.15-.15-.25-.25l-.05-.05a3.7 3.7 0 00-.5-.4l-.05-.05c-.1-.05-.2-.1-.25-.2-.1-.05-.2-.1-.25-.15 0 0-.05 0-.05-.05l-.3-.15h-.05c-.1-.05-.2-.05-.25-.1h-.05c-.1-.05-.2-.05-.3-.1H14c-.1 0-.2-.05-.3-.05h-.06c-.1 0-.2-.05-.35-.05H12.5c-.15.05-.2.05-.2.05z" clip-rule="evenodd"/><path fill="#fff" fill-rule="evenodd" d="M15.52 14.05l7.1-12.25 7.13 4.1-7.1 12.25-7.13-4.1z" clip-rule="evenodd"/><path stroke="#262626" stroke-linecap="round" stroke-linejoin="round" stroke-width="1.08" d="M15.52 14.05l7.1-12.25 7.13 4.1-7.1 12.25-7.13-4.1z" clip-rule="evenodd"/><path fill="#806346" fill-rule="evenodd" d="M21.07 14.75l4.26-2.45c.7-.4 1.56-.15 1.96.5.4.7.15 1.55-.5 1.95l-5.67 3.3-5.72-3.3a1.4 1.4 0 01-.5-1.95c.4-.7 1.25-.9 1.96-.5l4.2 2.45z" clip-rule="evenodd"/><path stroke="#262626" stroke-width="1.08" d="M21.07 14.75l4.26-2.45c.7-.4 1.56-.15 1.96.5.4.7.15 1.55-.5 1.95l-5.67 3.3-5.72-3.3a1.4 1.4 0 01-.5-1.95c.4-.7 1.25-.9 1.96-.5l4.2 2.45z" clip-rule="evenodd"/></svg>
