<svg xmlns="http://www.w3.org/2000/svg" fill="none" viewBox="0 0 38 52"><defs/><path fill="#F2F2F2" fill-rule="evenodd" d="M36.9 12.98l-6.37 3.7-12.7-7.45 6.37-3.75 12.7 7.5z" clip-rule="evenodd"/><path stroke="#262626" stroke-linecap="round" stroke-linejoin="round" stroke-width="1.73" d="M36.9 12.98l-6.37 3.7-12.7-7.45 6.37-3.75 12.7 7.5z" clip-rule="evenodd"/><path fill="#F2F2F2" fill-rule="evenodd" d="M35.78 13.32L23.44 5.6V3.24l12.34 7.68v2.4z" clip-rule="evenodd"/><path stroke="#262626" stroke-linecap="round" stroke-linejoin="round" stroke-width="1.08" d="M35.78 13.32L23.44 5.6V3.24l12.34 7.68v2.4z" clip-rule="evenodd"/><path fill="#F2F2F2" fill-rule="evenodd" d="M36.9 13.25l-6.73 3.43v-2.12l6.73-3.48v2.17z" clip-rule="evenodd"/><path stroke="#262626" stroke-linecap="round" stroke-linejoin="round" stroke-width="1.08" d="M36.9 13.25l-6.73 3.43v-2.12l6.73-3.48v2.17z" clip-rule="evenodd"/><path fill="#F2F2F2" fill-rule="evenodd" d="M24.56 5.36l-6.73 3.48V6.68l6.73-3.44v2.12z" clip-rule="evenodd"/><path stroke="#262626" stroke-linecap="round" stroke-linejoin="round" stroke-width="1.08" d="M24.56 5.36l-6.73 3.48V6.68l6.73-3.44v2.12z" clip-rule="evenodd"/><path fill="#F2F2F2" fill-rule="evenodd" d="M30.17 17.8l-12.34-7.67v-2.4l12.34 7.72v2.35z" clip-rule="evenodd"/><path stroke="#262626" stroke-linecap="round" stroke-linejoin="round" stroke-width="1.08" d="M30.17 17.8l-12.34-7.67v-2.4l12.34 7.72v2.35z" clip-rule="evenodd"/><path fill="#E5E5E5" fill-rule="evenodd" d="M1 12.02v14.75L20.07 15.7V1L1 12.02z" clip-rule="evenodd"/><path stroke="#262626" stroke-linecap="round" stroke-linejoin="round" stroke-width="1.08" d="M1 12.02L20.07 1v14.7L1 26.77V12.02z" clip-rule="evenodd"/><path fill="#6C75E1" fill-rule="evenodd" d="M2.12 12.72v9.57l16.83-9.53V3.24L2.12 12.72z" clip-rule="evenodd"/><path stroke="#262626" stroke-linecap="round" stroke-linejoin="round" stroke-width="1.08" d="M2.12 12.72v9.57l16.83-9.53V3.24L2.12 12.72z" clip-rule="evenodd"/><path fill="#E5E5E5" fill-rule="evenodd" d="M19.35 18.93L6.61 26.39l6.33 3.74 12.74-7.47-6.33-3.73z" clip-rule="evenodd"/><path stroke="#262626" stroke-linecap="round" stroke-linejoin="round" stroke-width="1.08" d="M19.35 18.93L6.61 26.39l6.33 3.74 12.74-7.47-6.33-3.73z" clip-rule="evenodd"/><path fill="#FFCBA6" fill-rule="evenodd" d="M23.04 36.16v2.66c0 .86-.69 1.54-1.55 1.54-.87 0-1.56-.68-1.56-1.54V33.5a1.53 1.53 0 012.33-1.3l4.66 2.66c.73.4 1 1.35.55 2.07-.41.73-1.37 1-2.1.55l-3.1-1.76" clip-rule="evenodd"/><path stroke="#262626" stroke-linecap="round" stroke-linejoin="round" stroke-width="1.08" d="M23.04 36.16v2.66c0 .86-.69 1.54-1.55 1.54-.87 0-1.56-.68-1.56-1.54V33.5a1.53 1.53 0 012.33-1.3l4.66 2.66c.73.4 1 1.35.55 2.07-.41.73-1.37 1-2.1.55l-3.1-1.76"/><path fill="#A2A2A2" fill-rule="evenodd" d="M29.93 45.23c2.15 1.22 2.15 3.2 0 4.42a8.69 8.69 0 01-7.76 0c-2.15-1.21-2.15-3.2 0-4.42a8.7 8.7 0 017.76 0z" clip-rule="evenodd"/><path stroke="#262626" stroke-linecap="round" stroke-linejoin="round" stroke-width="1.08" d="M29.93 45.23c2.15 1.22 2.15 3.2 0 4.42a8.69 8.69 0 01-7.76 0c-2.15-1.21-2.15-3.2 0-4.42a8.7 8.7 0 017.76 0z" clip-rule="evenodd"/><path fill="#A2A2A2" fill-rule="evenodd" d="M27.33 46.18c0 .72-.6 1.26-1.28 1.26-.73 0-1.28-.58-1.28-1.26v-4.83c0-.72.6-1.27 1.28-1.27.73 0 1.28.6 1.28 1.27v4.83z" clip-rule="evenodd"/><path stroke="#262626" stroke-linecap="round" stroke-linejoin="round" stroke-width="1.08" d="M27.33 46.18c0 .72-.6 1.26-1.28 1.26-.73 0-1.28-.58-1.28-1.26v-4.83c0-.72.6-1.27 1.28-1.27.73 0 1.28.6 1.28 1.27v4.83z" clip-rule="evenodd"/><path fill="#515151" fill-rule="evenodd" d="M26.05 46l-7.76-4.43V38.6l7.76-4.42 7.76 4.42v2.98L26.05 46z" clip-rule="evenodd"/><path stroke="#262626" stroke-linecap="round" stroke-linejoin="round" stroke-width="1.08" d="M26.05 46l-7.76-4.43V38.6l7.76-4.42 7.76 4.42v2.98L26.05 46z" clip-rule="evenodd"/><path fill="#FFCBA6" fill-rule="evenodd" d="M17.47 38.14l3.38 1.94c.73.41 1.69.19 2.1-.54.4-.72.18-1.67-.55-2.07l-4.66-2.67a1.53 1.53 0 00-2.33 1.31v8.94c0 .86.69 1.54 1.55 1.54.87 0 1.56-.68 1.56-1.54v-6.27" clip-rule="evenodd"/><path stroke="#262626" stroke-linecap="round" stroke-linejoin="round" stroke-width="1.08" d="M17.47 38.14l3.38 1.94c.73.41 1.69.19 2.1-.54.4-.72.18-1.67-.55-2.07l-4.66-2.67a1.53 1.53 0 00-2.33 1.31v8.94c0 .86.69 1.54 1.55 1.54.87 0 1.56-.68 1.56-1.54v-6.27"/><path fill="#FFCBA6" fill-rule="evenodd" d="M26.14 23.02l-3.88-2.21a1.32 1.32 0 00-1.78.45 1.3 1.3 0 00.46 1.76L26.1 26l5.2-2.98c.64-.36.82-1.13.46-1.76a1.29 1.29 0 00-1.78-.45l-3.84 2.21z" clip-rule="evenodd"/><path stroke="#262626" stroke-width="1.08" d="M26.14 23.02l-3.88-2.21a1.32 1.32 0 00-1.78.45 1.3 1.3 0 00.46 1.76L26.1 26l5.2-2.98c.64-.36.82-1.13.46-1.76a1.29 1.29 0 00-1.78-.45l-3.84 2.21z" clip-rule="evenodd"/><path fill="#23B2A7" fill-rule="evenodd" d="M31.21 22.34c0-2.44-2.33-3.11-5.16-1.49-2.83 1.63-5.16 4.97-5.16 7.4v11.83l2.6 1.5 7.77-4.43v-14.8h-.05z" clip-rule="evenodd"/><path stroke="#262626" stroke-width="1.08" d="M31.21 22.34c0-2.44-2.33-3.11-5.16-1.49-2.83 1.63-5.16 4.97-5.16 7.4v11.83l2.6 1.5 7.77-4.43v-14.8h-.05z" clip-rule="evenodd"/><path fill="#515151" fill-rule="evenodd" d="M33.81 38.6l-7.76 4.42-2.6-1.45V29.75l7.76-4.43 2.6 1.45v11.82z" clip-rule="evenodd"/><path stroke="#262626" stroke-linecap="round" stroke-linejoin="round" stroke-width="1.08" d="M33.81 38.6l-7.76 4.42-2.6-1.45V29.75l7.76-4.43 2.6 1.45v11.82z" clip-rule="evenodd"/><path fill="#FFCBA6" fill-rule="evenodd" d="M26.23 15.25a4.36 4.36 0 014.39 4.34c0 2.4-1.97 4.33-4.39 4.33a4.36 4.36 0 01-4.38-4.33c0-2.4 1.96-4.34 4.38-4.34z" clip-rule="evenodd"/><path stroke="#262626" stroke-width="1.08" d="M26.23 15.25a4.36 4.36 0 014.39 4.34c0 2.4-1.97 4.33-4.39 4.33a4.36 4.36 0 01-4.38-4.33c0-2.4 1.96-4.34 4.38-4.34z" clip-rule="evenodd"/><path fill="#464646" fill-rule="evenodd" d="M26.6 15.2c.09 0 .18 0 .27.05a4.39 4.39 0 013.75 4.3c0 2.16-1.6 3.97-3.75 4.28a4.39 4.39 0 01-3.51-5.73c-.41.04-.87 0-1.33-.1l.14-.26v-.05l.14-.27v-.04c.04-.1.09-.18.13-.23v-.04c.05-.1.1-.19.19-.23 0 0 0-.05.04-.05.05-.09.14-.13.18-.22.05-.1.14-.14.23-.23l.05-.04c.14-.14.32-.27.46-.36l.04-.05c.1-.04.18-.09.23-.18.1-.04.18-.09.23-.13 0 0 .04 0 .04-.05l.28-.13h.04c.1-.05.19-.05.23-.1h.05c.09-.04.18-.04.27-.09h.05c.09 0 .18-.04.27-.04h.05c.09 0 .18-.05.32-.05h.73c.13.05.13.05.18.05z" clip-rule="evenodd"/><path stroke="#262626" stroke-linecap="round" stroke-linejoin="round" stroke-width="1.08" d="M26.6 15.2c.09 0 .18 0 .27.05a4.39 4.39 0 013.75 4.3c0 2.16-1.6 3.97-3.75 4.28a4.39 4.39 0 01-3.51-5.73c-.41.04-.87 0-1.33-.1l.14-.26v-.05l.14-.27v-.04c.04-.1.09-.18.13-.23v-.04c.05-.1.1-.19.19-.23 0 0 0-.05.04-.05.05-.09.14-.13.18-.22.05-.1.14-.14.23-.23l.05-.04c.14-.14.32-.27.46-.36l.04-.05c.1-.04.18-.09.23-.18.1-.04.18-.09.23-.13 0 0 .04 0 .04-.05l.28-.13h.04c.1-.05.19-.05.23-.1h.05c.09-.04.18-.04.27-.09h.05c.09 0 .18-.04.27-.04h.05c.09 0 .18-.05.32-.05h.73c.13.05.13.05.18.05z" clip-rule="evenodd"/><path fill="#FFCBA6" fill-rule="evenodd" d="M18.38 27.44l-3.88-2.2a1.32 1.32 0 00-1.78.44 1.3 1.3 0 00.45 1.76l5.21 2.98 5.16-2.98c.64-.36.82-1.12.46-1.76a1.28 1.28 0 00-1.78-.45l-3.84 2.21z" clip-rule="evenodd"/><path stroke="#262626" stroke-width="1.08" d="M18.38 27.44l-3.88-2.2a1.32 1.32 0 00-1.78.44 1.3 1.3 0 00.45 1.76l5.21 2.98 5.16-2.98c.64-.36.82-1.12.46-1.76a1.28 1.28 0 00-1.78-.45l-3.84 2.21z" clip-rule="evenodd"/></svg>
