<svg xmlns="http://www.w3.org/2000/svg" fill="none" viewBox="0 0 50 59"><defs/><path fill="#806346" fill-rule="evenodd" d="M6.61 39.26c0 .9-.72 1.62-1.63 1.62-.91 0-1.63-.71-1.63-1.62v-11.3c0-.91.72-1.63 1.63-1.63.91 0 1.63.72 1.63 1.63v11.3z" clip-rule="evenodd"/><path stroke="#262626" stroke-width="1.73" d="M6.61 39.26c0 .9-.72 1.62-1.63 1.62-.91 0-1.63-.71-1.63-1.62v-11.3c0-.91.72-1.63 1.63-1.63.91 0 1.63.72 1.63 1.63v11.3z" clip-rule="evenodd"/><path fill="#806346" fill-rule="evenodd" d="M11.36 36.53c0 .9-.72 1.63-1.63 1.63-.91 0-1.63-.72-1.63-1.63v-11.3c0-.91.72-1.63 1.63-1.63.9 0 1.63.72 1.63 1.63v11.3z" clip-rule="evenodd"/><path stroke="#262626" stroke-width="1.73" d="M11.36 36.53c0 .9-.72 1.63-1.63 1.63-.91 0-1.63-.72-1.63-1.63v-11.3c0-.91.72-1.63 1.63-1.63.9 0 1.63.72 1.63 1.63v11.3z" clip-rule="evenodd"/><path fill="#806346" fill-rule="evenodd" d="M15.29 10l4.07-2.35a1.38 1.38 0 011.87.48c.39.68.15 1.49-.48 1.87l-5.46 3.16L9.87 10a1.34 1.34 0 01-.48-1.87c.38-.67 1.2-.86 1.87-.48L15.29 10z" clip-rule="evenodd"/><path stroke="#262626" stroke-width="1.73" d="M15.29 10l4.07-2.35a1.38 1.38 0 011.87.48c.39.68.15 1.49-.48 1.87l-5.46 3.16L9.87 10a1.34 1.34 0 01-.48-1.87c.38-.67 1.2-.86 1.87-.48L15.29 10z" clip-rule="evenodd"/><path fill="#BDC733" fill-rule="evenodd" d="M12.7 8.76c0-2.59-2.45-3.3-5.42-1.58-2.97 1.72-5.42 5.26-5.42 7.85v12.54l2.74 1.58 8.15-4.69V8.76h-.05z" clip-rule="evenodd"/><path stroke="#262626" stroke-width="1.08" d="M12.7 8.76c0-2.59-2.45-3.3-5.42-1.58-2.97 1.72-5.42 5.26-5.42 7.85v12.54l2.74 1.58 8.15-4.69V8.76h-.05z" clip-rule="evenodd"/><path fill="#806346" fill-rule="evenodd" d="M3.73 18.24l4.08 2.34c.67.39.86 1.2.48 1.87-.39.67-1.2.86-1.87.48L1 19.77v-6.23a1.34 1.34 0 112.68 0v4.7h.05z" clip-rule="evenodd"/><path stroke="#262626" stroke-width="1.08" d="M3.73 18.24l4.08 2.34c.67.39.86 1.2.48 1.87-.39.67-1.2.86-1.87.48L1 19.77v-6.23a1.34 1.34 0 112.68 0v4.7h.05z" clip-rule="evenodd"/><path fill="#806346" fill-rule="evenodd" d="M7.28 1.05a4.6 4.6 0 110 9.2 4.6 4.6 0 010-9.2z" clip-rule="evenodd"/><path stroke="#262626" stroke-width="1.08" d="M7.28 1.05a4.6 4.6 0 110 9.2 4.6 4.6 0 010-9.2z" clip-rule="evenodd"/><path fill="#262626" fill-rule="evenodd" d="M9.42 5.58a.53.53 0 11.53.91.53.53 0 01-.53-.9zM6.64 7.18a.53.53 0 11.53.91.53.53 0 01-.53-.9z" clip-rule="evenodd"/><path fill="#262626" fill-rule="evenodd" d="M6.13 10.1a4.56 4.56 0 01-1.44-4.26h.2A4.54 4.54 0 009.1 3.06a4.63 4.63 0 012.54 4.02A4.6 4.6 0 102.67 5.6a4.5 4.5 0 003.46 4.5z" clip-rule="evenodd"/><path stroke="#262626" stroke-linecap="round" stroke-linejoin="round" stroke-width="1.08" d="M6.13 10.1a4.56 4.56 0 01-1.44-4.26h.2A4.54 4.54 0 009.1 3.06a4.63 4.63 0 012.54 4.02A4.6 4.6 0 102.67 5.6a4.5 4.5 0 003.46 4.5z" clip-rule="evenodd"/><path fill="#fff" fill-rule="evenodd" d="M21.42 45.34l27.19-15.7L28.23 17.9 1.05 33.56l20.37 11.78z" clip-rule="evenodd"/><path stroke="#262626" stroke-linecap="round" stroke-linejoin="round" stroke-width="1.08" d="M21.42 45.34l27.19-15.7L28.23 17.9 1.05 33.56l20.37 11.78z" clip-rule="evenodd"/><path fill="#DAD933" fill-rule="evenodd" d="M26.22 37.25l1.63-11.26-6.14 1.2-4.8 9.62 9.3.44z" clip-rule="evenodd"/><path fill="#DAD933" fill-rule="evenodd" d="M34.6 32.41l-19.55.96 2.35-3.69 16.49-2.63.72 5.36z" clip-rule="evenodd"/><path fill="#C1C42E" fill-rule="evenodd" d="M27.85 26l-6.14 1.19-.96 1.96 6.81-1.1.29-2.06z" clip-rule="evenodd"/><path fill="#AFAF2F" fill-rule="evenodd" d="M18.74 33.18l8.15-.39.67-4.74-6.8 1.1-2.02 4.03z" clip-rule="evenodd"/><path fill="#C1C42E" fill-rule="evenodd" d="M17.4 29.68l3.35-.53 6.28 3.64-11.98.58 2.35-3.69z" clip-rule="evenodd"/><path fill="#919431" fill-rule="evenodd" d="M20.75 29.15l-2.01 4.03 8.15-.39v-.1l-6.14-3.54z" clip-rule="evenodd"/><path fill="#515151" fill-rule="evenodd" d="M41.13 53.67c0 .91-.72 1.63-1.63 1.63-.91 0-1.63-.72-1.63-1.63v-11.3c0-.91.72-1.63 1.63-1.63.91 0 1.63.72 1.63 1.63v11.3z" clip-rule="evenodd"/><path stroke="#262626" stroke-width="1.08" d="M41.13 53.67c0 .91-.72 1.63-1.63 1.63-.91 0-1.63-.72-1.63-1.63v-11.3c0-.91.72-1.63 1.63-1.63.91 0 1.63.72 1.63 1.63v11.3z" clip-rule="evenodd"/><path fill="#515151" fill-rule="evenodd" d="M36.38 56.4c0 .9-.72 1.63-1.63 1.63-.9 0-1.63-.72-1.63-1.63V45.1c0-.91.72-1.63 1.63-1.63.91 0 1.63.72 1.63 1.63v11.3z" clip-rule="evenodd"/><path stroke="#262626" stroke-width="1.08" d="M36.38 56.4c0 .9-.72 1.63-1.63 1.63-.9 0-1.63-.72-1.63-1.63V45.1c0-.91.72-1.63 1.63-1.63.91 0 1.63.72 1.63 1.63v11.3z" clip-rule="evenodd"/><path fill="#FFCBA6" fill-rule="evenodd" d="M35.28 34.28c-.38.67-.14 1.48.48 1.86.67.39 1.49.15 1.87-.47l5.51-9.53c.39-.67.15-1.49-.48-1.87a1.38 1.38 0 00-1.87.48l-5.5 9.53z" clip-rule="evenodd"/><path stroke="#262626" stroke-width="1.73" d="M35.28 34.28c-.38.67-.14 1.48.48 1.86.67.39 1.49.15 1.87-.47l5.51-9.53c.39-.67.15-1.49-.48-1.87a1.38 1.38 0 00-1.87.48l-5.5 9.53z" clip-rule="evenodd"/><path fill="#6C75E1" fill-rule="evenodd" d="M42.52 25.9c0-2.59-2.45-3.3-5.42-1.58-2.97 1.72-5.42 5.27-5.42 7.85v12.55l2.74 1.58 8.15-4.7V25.9h-.05z" clip-rule="evenodd"/><path stroke="#262626" stroke-width="1.08" d="M42.52 25.9c0-2.59-2.45-3.3-5.42-1.58-2.97 1.72-5.42 5.27-5.42 7.85v12.55l2.74 1.58 8.15-4.7V25.9h-.05z" clip-rule="evenodd"/><path fill="#FFCBA6" fill-rule="evenodd" d="M37.25 18.38a4.6 4.6 0 110 9.2 4.6 4.6 0 010-9.2z" clip-rule="evenodd"/><path stroke="#262626" stroke-width="1.08" d="M37.25 18.38a4.6 4.6 0 110 9.2 4.6 4.6 0 010-9.2z" clip-rule="evenodd"/><path fill="#98760F" fill-rule="evenodd" d="M37.63 18.38c.1 0 .2 0 .29.05a4.6 4.6 0 010 9.1 4.64 4.64 0 01-3.7-6.08c-.43.04-.9 0-1.38-.1l.14-.29v-.04l.14-.3v-.04c.05-.1.1-.2.15-.24v-.05c.04-.1.1-.19.19-.24 0 0 0-.05.05-.05.04-.1.14-.14.19-.24.05-.1.14-.14.24-.23l.05-.05c.14-.15.33-.29.48-.38l.04-.05c.1-.05.2-.1.24-.2.1-.04.2-.09.24-.14 0 0 .05 0 .05-.05l.29-.14h.05c.1-.05.19-.05.24-.1h.04c.1-.04.2-.04.3-.1H36c.1 0 .2-.04.29-.04h.05c.1 0 .19-.05.33-.05h.77c.14.05.19.05.19.05z" clip-rule="evenodd"/><path stroke="#262626" stroke-linecap="round" stroke-linejoin="round" stroke-width="1.08" d="M37.63 18.38c.1 0 .2 0 .29.05a4.6 4.6 0 010 9.1 4.64 4.64 0 01-3.7-6.08c-.43.04-.9 0-1.38-.1l.14-.29v-.04l.14-.3v-.04c.05-.1.1-.2.15-.24v-.05c.04-.1.1-.19.19-.24 0 0 0-.05.05-.05.04-.1.14-.14.19-.24.05-.1.14-.14.24-.23l.05-.05c.14-.15.33-.29.48-.38l.04-.05c.1-.05.2-.1.24-.2.1-.04.2-.09.24-.14 0 0 .05 0 .05-.05l.29-.14h.05c.1-.05.19-.05.24-.1h.04c.1-.04.2-.04.3-.1H36c.1 0 .2-.04.29-.04h.05c.1 0 .19-.05.33-.05h.77c.14.05.19.05.19.05z" clip-rule="evenodd"/><path fill="#FFCBA6" fill-rule="evenodd" d="M27.13 38.97c-.38.67-.14 1.48.48 1.87.67.38 1.48.14 1.87-.48l5.51-9.53c.39-.67.15-1.48-.48-1.87a1.38 1.38 0 00-1.87.48l-5.51 9.53z" clip-rule="evenodd"/><path stroke="#262626" stroke-width="1.08" d="M27.13 38.97c-.38.67-.14 1.48.48 1.87.67.38 1.48.14 1.87-.48l5.51-9.53c.39-.67.15-1.48-.48-1.87a1.38 1.38 0 00-1.87.48l-5.51 9.53z" clip-rule="evenodd"/></svg>
