<svg width="266" height="171" viewBox="0 0 266 171" fill="none" xmlns="http://www.w3.org/2000/svg">
<path d="M133.5 0.5H151.5V18.5H133.5V0.5Z" fill="white" fill-opacity="0.3"/>
<path d="M19.5 19.5H37.5V37.5H19.5V19.5Z" fill="white" fill-opacity="0.46"/>
<path d="M190.5 19.5H208.5V37.5H190.5V19.5Z" fill="white" fill-opacity="0.2"/>
<path d="M57.5 38.5H75.5V56.5H57.5V38.5Z" fill="white" fill-opacity="0.3"/>
<path d="M247.5 38.5H265.5V56.5H247.5V38.5Z" fill="white"/>
<path d="M0.5 57.5H18.5V75.5H0.5V57.5Z" fill="white" fill-opacity="0.2"/>
<path d="M114.5 57.5H132.5V75.5H114.5V57.5Z" fill="white"/>
<path d="M209.5 57.5H227.5V75.5H209.5V57.5Z" fill="white" fill-opacity="0.53"/>
<path d="M38.5 76.5H56.5V94.5H38.5V76.5Z" fill="white" fill-opacity="0.81"/>
<path d="M76.5 76.5H94.5V94.5H76.5V76.5Z" fill="white" fill-opacity="0.2"/>
<path d="M171.5 76.5H189.5V94.5H171.5V76.5Z" fill="white" fill-opacity="0.3"/>
<path d="M209.5 76.5H227.5V94.5H209.5V76.5Z" fill="white" fill-opacity="0.53"/>
<path d="M247.5 76.5H265.5V94.5H247.5V76.5Z" fill="white" fill-opacity="0.46"/>
<path d="M0.5 95.5H18.5V113.5H0.5V95.5Z" fill="white" fill-opacity="0.3"/>
<path d="M19.5 95.5H37.5V113.5H19.5V95.5Z" fill="white" fill-opacity="0.53"/>
<path d="M38.5 95.5H56.5V113.5H38.5V95.5Z" fill="white" fill-opacity="0.7"/>
<path d="M57.5 95.5H75.5V113.5H57.5V95.5Z" fill="white"/>
<path d="M76.5 95.5H94.5V113.5H76.5V95.5Z" fill="white" fill-opacity="0.81"/>
<path d="M95.5 95.5H113.5V113.5H95.5V95.5Z" fill="white" fill-opacity="0.53"/>
<path d="M114.5 95.5H132.5V113.5H114.5V95.5Z" fill="white" fill-opacity="0.61"/>
<path d="M133.5 95.5H151.5V113.5H133.5V95.5Z" fill="white" fill-opacity="0.2"/>
<path d="M152.5 95.5H170.5V113.5H152.5V95.5Z" fill="white" fill-opacity="0.61"/>
<path d="M171.5 95.5H189.5V113.5H171.5V95.5Z" fill="white" fill-opacity="0.3"/>
<path d="M190.5 95.5H208.5V113.5H190.5V95.5Z" fill="white" fill-opacity="0.53"/>
<path d="M209.5 95.5H227.5V113.5H209.5V95.5Z" fill="white" fill-opacity="0.2"/>
<path d="M228.5 95.5H246.5V113.5H228.5V95.5Z" fill="white"/>
<path d="M247.5 95.5H265.5V113.5H247.5V95.5Z" fill="white" fill-opacity="0.2"/>
<path d="M0.5 114.5H18.5V132.5H0.5V114.5Z" fill="white" fill-opacity="0.81"/>
<path d="M19.5 114.5H37.5V132.5H19.5V114.5Z" fill="white" fill-opacity="0.61"/>
<path d="M38.5 114.5H56.5V132.5H38.5V114.5Z" fill="white" fill-opacity="0.7"/>
<path d="M57.5 114.5H75.5V132.5H57.5V114.5Z" fill="white" fill-opacity="0.53"/>
<path d="M76.5 114.5H94.5V132.5H76.5V114.5Z" fill="white" fill-opacity="0.2"/>
<path d="M95.5 114.5H113.5V132.5H95.5V114.5Z" fill="white"/>
<path d="M114.5 114.5H132.5V132.5H114.5V114.5Z" fill="white" fill-opacity="0.3"/>
<path d="M133.5 114.5H151.5V132.5H133.5V114.5Z" fill="white" fill-opacity="0.46"/>
<path d="M152.5 114.5H170.5V132.5H152.5V114.5Z" fill="white"/>
<path d="M171.5 114.5H189.5V132.5H171.5V114.5Z" fill="white" fill-opacity="0.46"/>
<path d="M190.5 114.5H208.5V132.5H190.5V114.5Z" fill="white"/>
<path d="M209.5 114.5H227.5V132.5H209.5V114.5Z" fill="white" fill-opacity="0.53"/>
<path d="M228.5 114.5H246.5V132.5H228.5V114.5Z" fill="white" fill-opacity="0.53"/>
<path d="M247.5 114.5H265.5V132.5H247.5V114.5Z" fill="white" fill-opacity="0.53"/>
<path d="M0.5 133.5H18.5V151.5H0.5V133.5Z" fill="white" fill-opacity="0.61"/>
<path d="M19.5 133.5H37.5V151.5H19.5V133.5Z" fill="white" fill-opacity="0.2"/>
<path d="M38.5 133.5H56.5V151.5H38.5V133.5Z" fill="white"/>
<path d="M57.5 133.5H75.5V151.5H57.5V133.5Z" fill="white" fill-opacity="0.7"/>
<path d="M76.5 133.5H94.5V151.5H76.5V133.5Z" fill="white" fill-opacity="0.46"/>
<path d="M95.5 133.5H113.5V151.5H95.5V133.5Z" fill="white" fill-opacity="0.61"/>
<path d="M114.5 133.5H132.5V151.5H114.5V133.5Z" fill="white" fill-opacity="0.81"/>
<path d="M133.5 133.5H151.5V151.5H133.5V133.5Z" fill="white" fill-opacity="0.81"/>
<path d="M152.5 133.5H170.5V151.5H152.5V133.5Z" fill="white" fill-opacity="0.81"/>
<path d="M171.5 133.5H189.5V151.5H171.5V133.5Z" fill="white" fill-opacity="0.3"/>
<path d="M190.5 133.5H208.5V151.5H190.5V133.5Z" fill="white"/>
<path d="M209.5 133.5H227.5V151.5H209.5V133.5Z" fill="white" fill-opacity="0.2"/>
<path d="M228.5 133.5H246.5V151.5H228.5V133.5Z" fill="white" fill-opacity="0.3"/>
<path d="M247.5 133.5H265.5V151.5H247.5V133.5Z" fill="white"/>
<path d="M0.5 152.5H18.5V170.5H0.5V152.5Z" fill="white" fill-opacity="0.2"/>
<path d="M19.5 152.5H37.5V170.5H19.5V152.5Z" fill="white"/>
<path d="M38.5 152.5H56.5V170.5H38.5V152.5Z" fill="white" fill-opacity="0.7"/>
<path d="M57.5 152.5H75.5V170.5H57.5V152.5Z" fill="white" fill-opacity="0.46"/>
<path d="M76.5 152.5H94.5V170.5H76.5V152.5Z" fill="white"/>
<path d="M95.5 152.5H113.5V170.5H95.5V152.5Z" fill="white" fill-opacity="0.2"/>
<path d="M114.5 152.5H132.5V170.5H114.5V152.5Z" fill="white" fill-opacity="0.2"/>
<path d="M133.5 152.5H151.5V170.5H133.5V152.5Z" fill="white"/>
<path d="M152.5 152.5H170.5V170.5H152.5V152.5Z" fill="white"/>
<path d="M171.5 152.5H189.5V170.5H171.5V152.5Z" fill="white" fill-opacity="0.81"/>
<path d="M190.5 152.5H208.5V170.5H190.5V152.5Z" fill="white" fill-opacity="0.3"/>
<path d="M209.5 152.5H227.5V170.5H209.5V152.5Z" fill="white" fill-opacity="0.53"/>
<path d="M228.5 152.5H246.5V170.5H228.5V152.5Z" fill="white"/>
<path d="M247.5 152.5H265.5V170.5H247.5V152.5Z" fill="white" fill-opacity="0.53"/>
</svg>
