<svg xmlns="http://www.w3.org/2000/svg" fill="inherit" viewBox="0 0 20 22">
  <path d="M.5 21.48h4.2V5.93H.5v15.55zM13.3 5.93a3.91 3.91 0 00-2.02.55l-.33.2-.33.27-.27.22V5.93h-4.2v15.55h4.2v-9.8-.19a2 2 0 01.11-.48c.08-.24.18-.44.31-.6.13-.16.35-.31.66-.46.31-.15.67-.22 1.08-.22.71 0 1.23.17 1.57.53.34.35.5.82.5 1.41v9.8h4.47v-9.62c0-1.03-.17-1.92-.49-2.67a5.07 5.07 0 00-1.12-1.73 6 6 0 00-4.13-1.52zM.47 2.4c0 .58.21 1.09.62 1.5.41.41.91.62 1.5.62.6 0 1.1-.21 1.5-.62.42-.41.62-.92.62-1.5 0-.6-.2-1.1-.62-1.5a2.04 2.04 0 00-1.5-.62c-.59 0-1.09.2-1.5.61-.4.42-.62.92-.62 1.5z" />
</svg>
