<svg xmlns="http://www.w3.org/2000/svg" viewBox="0 0 28 27"><path fill="inherit" d="M28 14.5c-.15.9-.23 1.84-.47 2.72a13.68 13.68 0 01-8.87 9.66c-.81.3-1.17.05-1.18-.82v-3.04c.01-1.08-.07-2.14-.84-3 .86-.21 1.7-.35 2.5-.64 2.38-.85 3.46-2.69 3.71-5.1.18-1.68-.01-3.28-1.17-4.65-.1-.14-.1-.42-.06-.61a5.5 5.5 0 00-.1-2.8c-.15-.5-.43-.67-.87-.51-.9.34-1.78.76-2.69 1.1-.32.13-.7.24-1.03.17-1.97-.4-3.92-.4-5.89 0-.32.07-.71-.04-1.03-.16-.83-.33-1.61-.76-2.45-1.05-.78-.26-.97-.1-1.18.68a4.96 4.96 0 00-.02 2.62c.05.18 0 .46-.1.59-1.93 2.16-1.28 6.2.01 7.9 1.04 1.36 2.52 1.97 4.17 2.26l.8.14c-.23.54-.44 1.1-.69 1.63a.7.7 0 01-.39.34c-1.5.42-2.57.33-3.6-1.12a6.48 6.48 0 00-1.46-1.38c-.38-.28-.88-.32-1.5-.02l.65.67c.46.55 1.1 1.03 1.34 1.66.6 1.56 1.75 2.1 3.3 2.13.51.01 1.03-.04 1.61-.07 0 .86.03 1.72 0 2.58-.03.53-.48.73-1.08.53a13.07 13.07 0 01-5.3-3.27 13.28 13.28 0 01-4.02-8.3c-.01-.11-.07-.23-.1-.35v-2.35c.1-.56.17-1.13.3-1.68A13.92 13.92 0 0114.38 0c5.8.1 11.17 4.03 12.87 9.53.38 1.25.5 2.57.74 3.86v1.1z"/></svg>
