<svg xmlns="http://www.w3.org/2000/svg" viewBox="0 0 33 14"><path fill="inherit" d="M.37 8.37c-.07 0-.12.06-.13.13L0 10.29l.24 1.76c.01.07.06.13.13.13s.12-.06.14-.13l.28-1.76-.28-1.8C.5 8.44.44 8.38.37 8.38zm1.36-.98c-.01-.07-.07-.13-.14-.13s-.12.06-.13.13l-.33 2.9.33 2.83c0 .08.06.13.13.13s.13-.05.14-.13l.37-2.83-.37-2.9zm5.11-2.67c-.13 0-.24.11-.25.25l-.26 5.32.26 3.44c.01.14.12.24.25.24.14 0 .24-.1.25-.24l.3-3.44-.3-5.32a.25.25 0 00-.25-.25zM4.2 6.58a.2.2 0 00-.2.18l-.29 3.53.3 3.42c0 .1.08.18.19.18a.2.2 0 00.19-.18l.33-3.42-.33-3.53a.2.2 0 00-.2-.18zm5.33 7.4a.3.3 0 00.3-.3l.26-3.39-.25-7.09a.3.3 0 00-.61 0L9 10.3l.23 3.38c0 .16.14.3.3.3zm5.5.01c.23 0 .42-.18.42-.4l.18-3.3-.18-8.18a.42.42 0 00-.83 0l-.16 8.18.16 3.3c0 .22.19.4.42.4zm-2.77-.01c.2 0 .36-.16.37-.35l.21-3.34-.22-7.14c0-.2-.16-.35-.36-.35-.2 0-.36.15-.36.35l-.2 7.15.2 3.33c0 .2.16.35.36.35zm-6.75-.03c.12 0 .22-.1.23-.22l.3-3.44-.3-3.27c-.01-.13-.1-.22-.23-.22-.11 0-.21.1-.22.22l-.27 3.27.27 3.44c.01.12.1.22.22.22zm-2.62-.2c.09 0 .16-.06.17-.15l.35-3.31-.35-3.43c-.01-.1-.08-.16-.17-.16-.09 0-.16.06-.17.16l-.3 3.43.3 3.31c.01.1.08.16.17.16zM13.64 3.04a.39.39 0 00-.39.38l-.17 6.89.17 3.3c0 .22.18.38.4.38.2 0 .38-.16.38-.38l.2-3.3-.2-6.89a.39.39 0 00-.39-.38zM8.18 13.98c.15 0 .27-.12.28-.27l.27-3.42-.27-6.54a.28.28 0 00-.28-.27.28.28 0 00-.28.27l-.24 6.54.24 3.42c.01.15.13.27.28.27zm3.05-.32l.23-3.37-.23-7.33a.33.33 0 00-.34-.32.33.33 0 00-.33.32l-.21 7.33.2 3.37c.01.18.16.32.34.32.18 0 .33-.14.34-.32zm17.71-7.6c-.55 0-1.09.12-1.57.32A7.1 7.1 0 0020.24 0c-.92 0-1.81.18-2.6.47-.3.12-.39.24-.39.47v12.58c0 .25.2.45.44.47l11.25.01A4.01 4.01 0 0033 10.03a4.01 4.01 0 00-4.06-3.96zM16.42.94c-.24 0-.44.2-.45.43l-.18 8.94.18 3.24c0 .24.2.43.45.43.24 0 .44-.2.45-.43l.2-3.24-.2-8.94c0-.24-.2-.43-.45-.43z"/></svg>
