<svg xmlns="http://www.w3.org/2000/svg" xmlns:xlink="http://www.w3.org/1999/xlink"><defs><path id="a" d="M0 38h481.857V.138H0V38z"/></defs><symbol id="icon-facebook" viewBox="-462.2 266.5 11.6 23.3"><path d="M-459.3 289.7V279h-2.9v-3.9h2.9v-3.4c0-1.5.5-2.8 1.5-3.8s2.4-1.5 4.3-1.5c.5 0 1 0 1.5.1.5 0 .8.1 1.1.1l.4.1-.2 3.7h-2.5c-.7 0-1.1.2-1.4.5s-.3.8-.3 1.5v2.9h4.4l-.3 3.9h-4.1v10.7l-4.4-.2z"/></symbol><symbol id="icon-google" viewBox="-468 267.9 23.3 20.1"><path d="M-444.7 271.8v1h-3.9v3.9h-1v-3.9h-3.9v-1h3.9v-3.9h1v3.9h3.9zm-13.2 7.9c.8.6 1.3 1.2 1.7 1.8.3.6.5 1.3.5 2.2 0 1.2-.5 2.2-1.6 3.1-1.1.9-2.5 1.3-4.4 1.3-1.7 0-3.2-.3-4.4-1s-1.8-1.5-1.8-2.6.6-2.2 1.8-3.1 2.6-1.3 4.2-1.3h1c-.5-.5-.8-1.1-.8-1.7 0-.4.1-.8.3-1.2h-.6c-1.4 0-2.5-.4-3.3-1.3s-1.3-1.9-1.3-3.2c0-1.2.5-2.2 1.6-3.1s2.3-1.3 3.7-1.3h6.1l-1.4 1h-1.9c.6.2 1.1.7 1.5 1.3.3.6.5 1.4.5 2.2 0 1.2-.6 2.3-1.7 3.2-.5.4-.8.7-.9.9-.1.2-.2.5-.2.8 0 .3.2.6.5 1 .2.5.5.8.9 1zm-3.3-3c.8 0 1.4-.3 1.9-1s.6-1.6.5-2.6c-.1-1-.5-1.9-1.2-2.6s-1.4-1.1-2.2-1.1c-.8 0-1.4.3-1.9 1-.4.7-.6 1.6-.5 2.6.1 1 .5 1.9 1.2 2.7.7.5 1.5.9 2.2 1zm-.6 10.4c2.9 0 4.4-1.1 4.4-3.2 0-.1 0-.3-.1-.6 0-.1-.1-.3-.1-.4-.1-.1-.1-.2-.2-.4s-.2-.2-.3-.3c-.1-.1-.2-.2-.4-.3-.2-.1-.3-.2-.4-.3-.1-.1-.3-.2-.5-.4s-.4-.3-.5-.3c-.4-.1-1-.2-1.5-.2-1.2 0-2.2.3-3.1.9s-1.3 1.4-1.3 2.2c0 .9.4 1.7 1.1 2.3s1.8 1 2.9 1z"/></symbol><symbol id="icon-linkedin" viewBox="0 0 12 13"><title>icon-linkedin</title><path d="M.16 4.513h2.4v7.707H.16V4.513zM1.36.68a1.39 1.39 0 1 1-.002 2.78A1.39 1.39 0 0 1 1.36.68zM4.063 4.513H6.36v1.053h.033C6.713 4.96 7.495 4.32 8.66 4.32c2.426 0 2.875 1.597 2.875 3.672v4.228H9.14V8.473c0-.895-.018-2.045-1.246-2.045-1.247 0-1.437.974-1.437 1.978v3.814H4.063V4.513"/></symbol><symbol id="icon-mail" viewBox="-468 269.4 23.3 17.5"><path d="M-444.7 270.8l-11.6 8.7-11.6-8.7c0-.4.1-.7.4-1 .3-.3.6-.4 1-.4h20.4c.4 0 .7.1 1 .4s.4.6.4 1zm-23.3 2.6l11.6 8.7 11.6-8.7v11.9c0 .4-.1.7-.4 1-.3.3-.6.4-1 .4h-20.4c-.4 0-.7-.1-1-.4-.3-.3-.4-.6-.4-1v-11.9z"/></symbol><symbol id="icon-search" viewBox="0 0 15 14"><title>icon-search</title><path d="M6.48 10.94a4.733 4.733 0 1 0 0-9.467 4.733 4.733 0 0 0 0 9.466zm3.113-1.057l3.85 3.344-3.85-3.344z" stroke="inherit" stroke-width="2.145" fill="none"/></symbol><symbol id="icon-twitter" viewBox="0 0 12 11"><title>icon-twitter</title><path d="M11.724 1.935a4.64 4.64 0 0 1-1.335.366 2.33 2.33 0 0 0 1.02-1.285c-.447.266-.945.46-1.475.564A2.325 2.325 0 0 0 5.972 3.7a6.602 6.602 0 0 1-4.794-2.43c-.2.344-.314.743-.314 1.17 0 .806.41 1.518 1.034 1.935a2.315 2.315 0 0 1-1.053-.29v.028c0 1.127.802 2.067 1.865 2.28a2.337 2.337 0 0 1-1.05.04A2.327 2.327 0 0 0 3.832 8.05 4.667 4.667 0 0 1 .39 9.01a6.59 6.59 0 0 0 3.565 1.044c4.277 0 6.616-3.543 6.616-6.616 0-.1-.002-.2-.005-.302a4.735 4.735 0 0 0 1.16-1.203"/></symbol><symbol id="icon-youtube" viewBox="-213.3 518.7 59.6 42.2"><path d="M-183.5 518.7c11 0 18 .3 21 .8 3.7.7 6.1 2.2 7.2 4.4 1 1.9 1.5 5.9 1.6 11.9v4c0 7.2-.3 11.9-.8 13.9-.7 2.8-2.4 4.6-5 5.6-2.7 1-8.3 1.5-17 1.6h-7c-11 0-18-.3-21-.8-3.7-.7-6.1-2.2-7.2-4.4-1-1.9-1.5-5.9-1.6-11.9v-4c0-7.2.3-11.9.8-13.9.7-2.8 2.4-4.6 5-5.6 2.7-1 8.3-1.5 17-1.6h7zM-191 551l18.6-11.2-18.6-11.2V551z"/></symbol><symbol id="menu" viewBox="0 0 30 28"><title>Slice 1</title><path d="M0 3h30M0 13.845h30M0 24.69h30" stroke="#473E3A" stroke-width="6" fill="#000" fill-rule="evenodd"/></symbol><symbol id="ocp-logo" viewBox="0 0 482 38"><title>ocp-logo</title><g fill="none" fill-rule="evenodd"><path d="M33.568 4.227L25.216.14 7.952 7.072l7.94 5.81L0 20.664 16.92 38l16.648-12.182L50.216 38l16.92-17.336-15.89-7.78 7.937-5.81L41.917.138l-8.35 4.087z" fill="#D9E021"/><path d="M25.216.138L7.952 7.073l7.94 5.81 17.676-8.656-8.352-4.09z" fill="#B9C504"/><path d="M33.568 25.818L50.216 38l16.92-17.336-15.89-7.78-17.678 12.934z" fill="#D9E021"/><path d="M51.245 12.884L33.568 25.818V4.228l17.677 8.656z" fill="#B9C504"/><path d="M33.568 4.227v21.59L15.89 12.885 33.57 4.227z" fill="#9DAD01"/><path d="M0 20.664L16.92 38l16.648-12.182L15.89 12.884 0 20.664zM41.916.138l-8.348 4.09 17.676 8.656 7.94-5.81L41.915.137z" fill="#D9E021"/><path d="M90.596 23.996c4.13 0 6.794-3.315 6.794-7.427 0-4.178-2.665-7.493-6.794-7.493-4.095 0-6.777 3.315-6.777 7.492 0 4.11 2.68 7.426 6.776 7.426m0-17.113c6.014 0 9.687 4.29 9.687 9.686 0 5.38-3.673 9.653-9.687 9.653-6.013 0-9.653-4.258-9.653-9.654 0-5.43 3.656-9.687 9.653-9.687M115.422 19.332c0-2.65-1.626-4.697-4.324-4.697-2.437 0-4.306 1.64-4.355 3.82-.016.032-.016 1.917-.016 1.95.13 2.178 1.852 3.72 4.258 3.72 2.828 0 4.437-1.965 4.437-4.793zm-13.54 10.548h2.488v-15.1h-2.29v-1.95h4.744s.065 1.724.08 1.724c1.204-1.284 2.797-1.95 4.552-1.95 4.047 0 6.485 3.04 6.485 6.81 0 3.72-2.567 6.81-6.516 6.81-1.756 0-3.43-.602-4.65-1.724 0 .374.018 5.38.018 5.38l2.65.016v2h-7.56V29.88zM127.196 18.324h4.258c-.34-2.064-1.755-3.852-4.128-3.852-2.617 0-4.128 1.642-4.502 3.852h4.372zm1.12 1.69l-5.557-.032c.34 2.52 1.868 4.21 4.663 4.21 1.69 0 3.3-.618 4.29-1.805l2.08.91c-1.25 1.853-3.558 2.926-6.435 2.926-4.502 0-7.264-3.055-7.264-6.842 0-3.965 3.104-6.776 7.2-6.776 4.306 0 6.5 3.315 6.5 7.102v.276l-5.477.033zM136.078 23.915h2.324V14.78h-2.422v-1.95h4.81s.033 1.415.066 1.69c1.674-1.3 2.99-1.916 4.6-1.916 2.388 0 3.85 1.61 3.85 4.176 0 .244-.048 7.135-.048 7.135l2.357.033v1.966h-6.534v-1.95h1.79v-6.29c0-1.918-.49-2.99-2.032-2.99-1.48 0-2.828.975-3.982 2.29v6.957h2.356v1.984h-7.134v-2z" fill="#B9C504"/><path d="M162.416 16.57c0-5.738 3.38-9.687 9.28-9.687 2.633 0 4.843 1.007 6.29 2.42V7.176h2.112v5.672h-2.03c-1.253-2.502-3.544-3.77-6.242-3.77-4.096 0-6.533 3.185-6.533 7.41 0 4.178 2.55 7.477 6.63 7.477 2.715 0 5.9-1.122 6.485-4.843l2.194 1.154c-.796 3.592-4.063 5.95-8.857 5.95-5.737 0-9.33-3.934-9.33-9.655M194.116 19.38c0-2.648-1.674-4.696-4.356-4.696-2.65 0-4.323 2.048-4.323 4.697 0 2.65 1.674 4.617 4.323 4.617 2.682 0 4.356-1.967 4.356-4.616m-11.263 0c0-3.753 2.682-6.777 6.94-6.777 4.225 0 6.923 3.024 6.923 6.778 0 3.755-2.714 6.843-6.956 6.843-4.225 0-6.907-3.088-6.907-6.842M198.983 23.915h2.324V14.78h-2.422v-1.95h4.81s.033 1.415.066 1.69c1.675-1.3 2.99-1.916 4.6-1.916 2.39 0 3.852 1.61 3.852 4.176 0 .244-.048 7.135-.048 7.135l2.356.033v1.966h-6.533v-1.95h1.787v-6.29c0-1.918-.487-2.99-2.03-2.99-1.48 0-2.83.975-3.983 2.29v6.957h2.358v1.984h-7.135v-2zM215.617 12.83h2.064V10.1l2.406-1.982v4.713h2.65v1.984h-2.65v3.462c0 .666 0 4.29.065 4.518.05.894.554 1.202 1.318 1.202.373 0 .812-.08 1.267-.227v2.063c-.57.146-1.202.26-1.755.26-1.87 0-3.185-.813-3.267-3.12 0 0-.08-3.934-.08-4.567v-3.592h-2.016V12.83zM225.002 23.915h2.617V14.78h-2.715v-1.95h4.6s.08 2.553.113 2.845c.878-2.08 2.503-3.07 4.34-3.07.243 0 1.933.064 1.933.064l-.08 2.274c-.05-.033-1.43-.05-1.593-.05-3.2 0-4.16 1.886-4.16 4.844v4.193h2.86v1.984h-7.915v-2zM246.333 20.193c-.7-.016-1.804-.26-2.974-.26-1.708 0-3.512.342-3.512 2.47 0 1.138.878 2.065 2.47 2.065 1.43 0 3.024-.553 4.015-1.447v-2.827zm-8.776 2.21c0-3.233 2.552-4.127 5.64-4.127 1.007 0 2.08.113 3.136.325v-1.576c0-1.82-1.463-2.503-3.185-2.503-1.333 0-2.39.473-3.007 1.367l-2.274-.634c.99-1.707 2.925-2.65 5.606-2.65 4.096 0 5.282 2.08 5.282 4.307v7.038h2.34v1.966h-4.5s-.017-1.35-.034-1.35c-1.722 1.253-2.957 1.708-4.583 1.708-2.746 0-4.42-1.87-4.42-3.868zM252.37 19.283c0-3.51 2.6-6.68 6.55-6.68 1.414 0 2.926.326 3.673 1.398l.016-1.17h2.16v4.682h-2.096c-.34-1.886-1.365-2.812-3.575-2.812-2.683 0-4.146 1.918-4.146 4.55 0 2.86 1.528 4.876 4.21 4.876 1.74 0 3.17-.73 3.982-2.16l1.966.893c-.99 2.176-3.136 3.363-6.013 3.363-4.763 0-6.73-3.754-6.73-6.94M266.956 12.83h2.064V10.1l2.406-1.982v4.713h2.65v1.984h-2.65v3.462c0 .666 0 4.29.065 4.518.05.894.553 1.202 1.317 1.202.374 0 .813-.08 1.268-.227v2.063c-.57.146-1.203.26-1.755.26-1.87 0-3.186-.813-3.267-3.12 0 0-.08-3.934-.08-4.567v-3.592h-2.017V12.83zM279.64 7.175c.83 0 1.496.618 1.496 1.414 0 .796-.666 1.413-1.495 1.413-.828 0-1.478-.617-1.478-1.414 0-.797.65-1.415 1.48-1.415zM276.26 23.9h2.195v-9.12h-2.195v-1.95h4.616v11.1h2.21v1.984h-6.826V23.9zM284.93 23.915h2.325V14.78h-2.422v-1.95h4.81s.033 1.415.066 1.69c1.673-1.3 2.99-1.916 4.6-1.916 2.388 0 3.85 1.61 3.85 4.176 0 .244-.048 7.135-.048 7.135l2.356.033v1.966h-6.533v-1.95h1.787v-6.29c0-1.918-.487-2.99-2.03-2.99-1.48 0-2.83.975-3.983 2.29v6.957h2.356v1.984h-7.135v-2zM313.218 20.405v-2.032c-.082-2.064-1.918-3.624-4.29-3.624-2.73 0-4.405 2.128-4.405 4.728 0 2.438 1.576 4.405 4.355 4.405 2.324 0 4.34-1.544 4.34-3.478m-9.72 9.85l1.53-1.692a6.383 6.383 0 0 0 3.736 1.187c1.935 0 4.39-.975 4.437-3.885 0-.065-.047-1.397-.047-1.462-.91.845-2.942 1.51-4.714 1.51-4.03 0-6.5-2.892-6.5-6.37 0-3.754 2.583-6.94 6.597-6.94 1.74 0 3.25.586 4.6 1.788.016 0 .048-1.56.048-1.56h4.86v1.95l-2.454.05.017 10.158c0 5.152-3.624 6.777-7.054 6.777-2.015 0-3.526-.44-5.054-1.51" fill="#FFF"/><path d="M333.933 16.537h2.893c3.527 0 4.47-1.61 4.47-3.74 0-2.322-1.366-3.574-3.674-3.574h-3.69v7.314zm-5.055 7.313h2.454V9.19h-2.454V7.176h8.663c5.185 0 6.437 3.12 6.437 5.656 0 4.6-3.202 5.738-7.64 5.738h-2.372v5.298h2.568v2.048h-7.655V23.85zM354.597 20.193c-.7-.016-1.804-.26-2.974-.26-1.706 0-3.51.342-3.51 2.47 0 1.138.877 2.065 2.47 2.065 1.43 0 3.023-.553 4.014-1.447v-2.827zm-8.776 2.21c0-3.233 2.553-4.127 5.64-4.127 1.008 0 2.08.113 3.137.325v-1.576c0-1.82-1.462-2.503-3.185-2.503-1.333 0-2.39.473-3.007 1.367l-2.275-.634c.99-1.707 2.925-2.65 5.607-2.65 4.095 0 5.282 2.08 5.282 4.307v7.038h2.34v1.966h-4.503s-.016-1.35-.032-1.35c-1.723 1.253-2.958 1.708-4.583 1.708-2.747 0-4.42-1.87-4.42-3.868zM360.748 23.915h2.617V14.78h-2.714v-1.95h4.6s.08 2.553.114 2.845c.878-2.08 2.503-3.07 4.34-3.07.243 0 1.933.064 1.933.064l-.08 2.274c-.05-.033-1.43-.05-1.594-.05-3.2 0-4.16 1.886-4.16 4.844v4.193h2.86v1.984h-7.915v-2zM372.978 12.83h2.064V10.1l2.405-1.982v4.713h2.65v1.984h-2.65v3.462c0 .666 0 4.29.065 4.518.05.894.553 1.202 1.317 1.202.372 0 .81-.08 1.266-.227v2.063c-.57.146-1.202.26-1.755.26-1.868 0-3.184-.813-3.266-3.12 0 0-.08-3.934-.08-4.567v-3.592h-2.016V12.83zM382.347 23.915h2.324V14.78h-2.42v-1.95h4.81s.033 1.415.065 1.69c1.674-1.3 2.99-1.916 4.6-1.916 2.39 0 3.85 1.61 3.85 4.176 0 .244-.047 7.135-.047 7.135l2.356.033v1.966h-6.533v-1.95h1.788v-6.29c0-1.918-.487-2.99-2.03-2.99-1.48 0-2.83.975-3.983 2.29v6.957h2.357v1.984h-7.135v-2zM406.408 18.324h4.258c-.34-2.064-1.755-3.852-4.128-3.852-2.616 0-4.128 1.642-4.502 3.852h4.372zm1.122 1.69l-5.56-.032c.343 2.52 1.87 4.21 4.666 4.21 1.69 0 3.3-.618 4.29-1.805l2.08.91c-1.25 1.853-3.56 2.926-6.435 2.926-4.5 0-7.264-3.055-7.264-6.842 0-3.965 3.104-6.776 7.2-6.776 4.307 0 6.5 3.315 6.5 7.102v.276l-5.476.033zM415.306 23.915h2.617V14.78h-2.715v-1.95h4.6s.08 2.553.114 2.845c.877-2.08 2.503-3.07 4.34-3.07.243 0 1.933.064 1.933.064l-.08 2.274c-.05-.033-1.43-.05-1.594-.05-3.2 0-4.16 1.886-4.16 4.844v4.193h2.86v1.984h-7.914v-2zM428.218 21.64h2.097c-.017.065-.017.13-.017.21 0 1.513 1.414 2.44 3.43 2.44 1.87 0 2.974-.7 2.974-1.903 0-1.35-1.17-1.625-2.893-1.852-2.34-.31-5.624-1.024-5.624-4.145 0-2.16 1.9-3.786 4.826-3.786 1.268 0 2.455.276 3.3.682.016.016.08-.455.08-.455h2.05v4.162h-2.05s-.048-.91-.048-1.09c-.764-.926-1.82-1.397-3.234-1.397-1.593 0-2.633.683-2.633 1.788 0 1.446 1.983 1.61 4.274 1.983 2.407.406 4.438 1.284 4.438 3.933 0 2.388-2.015 4.013-5.184 4.013-1.495 0-2.65-.293-3.624-.96l-.033.65h-2.13V21.64zM440.79 23.915h2.47V9.142h-2.44V7.175h4.877s-.016 6.452-.016 6.94c1.43-1.024 2.877-1.51 4.454-1.51 2.584 0 3.998 1.478 3.998 4.273l-.016 7.037 2.34.033v1.966h-6.403v-1.966h1.657v-6.615c0-1.495-.422-2.828-2.112-2.828-1.17 0-2.633.536-3.917 1.48v7.946h2.357v1.984h-7.248v-2zM461.323 7.175c.83 0 1.496.618 1.496 1.414 0 .796-.668 1.413-1.497 1.413-.828 0-1.48-.617-1.48-1.414 0-.797.652-1.415 1.48-1.415zm-3.38 16.724h2.194v-9.12h-2.194v-1.95h4.615v11.1h2.21v1.984h-6.825V23.9z" fill="#B9C504"/><mask id="b" fill="#fff"><use xlink:href="#a"/></mask><path d="M479.34 19.332c0-2.65-1.626-4.697-4.324-4.697-2.438 0-4.307 1.64-4.356 3.82-.016.032-.016 1.917-.016 1.95.13 2.178 1.852 3.72 4.258 3.72 2.828 0 4.437-1.965 4.437-4.793zM465.8 29.88h2.487v-15.1h-2.29v-1.95h4.744s.066 1.724.083 1.724c1.202-1.284 2.795-1.95 4.55-1.95 4.047 0 6.485 3.04 6.485 6.81 0 3.72-2.568 6.81-6.517 6.81-1.755 0-3.428-.602-4.648-1.724 0 .374.017 5.38.017 5.38l2.648.016v2H465.8V29.88z" fill="#B9C504" mask="url(#b)"/></g></symbol></svg>