<svg xmlns="http://www.w3.org/2000/svg"><symbol id="icon-arrow-down" viewBox="0 0 10 5"><path fill="inherit" d="M10 0L5 5 0 0"/></symbol><symbol id="icon-arrow-left" viewBox="0 0 6 11"><path fill="inherit" d="M5.5 10.5l-5-5 5-5"/></symbol><symbol id="icon-arrow-right" viewBox="0 0 6 11"><path fill="inherit" d="M.5.5l5 5-5 5"/></symbol><symbol id="icon-arrow-up" viewBox="0 0 10 5"><path fill="inherit" d="M0 5l5-5 5 5"/></symbol><symbol id="icon-circle-tick" viewBox="0 0 20 21"><path d="M10 .334C4.48.334 0 4.79 0 10.28c0 5.49 4.48 9.946 10 9.946s10-4.455 10-9.946C20 4.79 15.52.334 10 .334zm-2 14.92L3 10.28l1.41-1.402L8 12.438l7.59-7.548L17 6.302l-9 8.951z" fill="#4D4D53" fill-rule="evenodd"/></symbol><symbol id="icon-close" viewBox="0 0 15 15"><path fill="inherit" fill-rule="evenodd" d="M15 1.5l-6 6 6 6-1.5 1.5-6-6-6 6L0 13.5l6-6-6-6L1.5 0l6 6 6-6L15 1.5z"/></symbol><symbol id="icon-comment" viewBox="0 0 13 13"><path d="M10.166 3.816V2.534H2.534v1.282h7.632zm0 1.908V4.442H2.534v1.282h7.632zm0 1.908V6.35H2.534v1.282h7.632zm2.535-6.38v11.449l-2.535-2.535H1.252a1.18 1.18 0 0 1-.88-.387A1.252 1.252 0 0 1 0 8.884V1.252c0-.338.124-.63.373-.88C.62.125.914 0 1.253 0h10.195c.338 0 .632.124.88.373.248.248.373.541.373.88z" fill="#FFF" fill-rule="evenodd"/></symbol><symbol id="icon-data" viewBox="0 0 18 21"><path d="M9 9c1.852 0 3.582-.168 5.191-.504 1.61-.336 2.88-.832 3.809-1.488V9c0 .54-.402 1.04-1.207 1.5-.805.46-1.898.826-3.281 1.096-1.383.27-2.887.404-4.512.404-1.625 0-3.129-.135-4.512-.404-1.383-.27-2.476-.635-3.281-1.096C.402 10.04 0 9.54 0 9V7.008c.93.656 2.2 1.152 3.809 1.488C5.418 8.832 7.149 9 9 9zm0 9c1.852 0 3.582-.168 5.191-.504 1.61-.336 2.88-.832 3.809-1.488V18c0 .54-.402 1.04-1.207 1.5-.805.46-1.898.826-3.281 1.096-1.383.27-2.887.404-4.512.404-1.625 0-3.129-.135-4.512-.404-1.383-.27-2.476-.635-3.281-1.096C.402 19.04 0 18.54 0 18v-1.992c.93.656 2.2 1.152 3.809 1.488C5.418 17.832 7.149 18 9 18zm0-4.5c1.852 0 3.582-.168 5.191-.504 1.61-.336 2.88-.832 3.809-1.488V13.5c0 .54-.402 1.04-1.207 1.5-.805.46-1.898.826-3.281 1.096-1.383.27-2.887.404-4.512.404-1.625 0-3.129-.135-4.512-.404-1.383-.27-2.476-.635-3.281-1.096C.402 14.54 0 14.04 0 13.5v-1.992c.93.656 2.2 1.152 3.809 1.488 1.609.336 3.34.504 5.191.504zM9 0c1.625 0 3.129.135 4.512.404 1.383.27 2.476.635 3.281 1.096C17.598 1.96 18 2.46 18 3v1.5c0 .54-.402 1.04-1.207 1.5-.805.46-1.898.826-3.281 1.096-1.383.27-2.887.404-4.512.404-1.625 0-3.129-.135-4.512-.404C3.105 6.826 2.012 6.46 1.207 6 .402 5.54 0 5.04 0 4.5V3c0-.54.402-1.04 1.207-1.5.805-.46 1.898-.826 3.281-1.096C5.871.134 7.375 0 9 0z" fill="#FFF" fill-rule="evenodd"/></symbol><symbol id="icon-download" viewBox="0 0 22 19"><g stroke-linecap="round" stroke="inherit" stroke-linejoin="round" fill="none" fill-rule="evenodd"><path d="M16.362 15.664c2.663-.33 4.888-2.615 4.888-5.333C21.25 7.385 18.833 5 15.85 5c-.115 0-.23.007-.344.019A6.07 6.07 0 0 0 9.775 1C6.42 1 3.7 3.685 3.7 6.998c0 .3.027.586.075.874C2.16 8.398 1 9.897 1 11.664c0 2.206 1.817 4 4.05 4h.838M11.125 10.776v7.68M13.918 15.664l-2.793 2.793-2.793-2.793"/></g></symbol><symbol id="icon-event" viewBox="0 0 48 48"><path fill="none" stroke="#6991F6" stroke-width="1.5" stroke-linecap="round" stroke-linejoin="round" d="M47.2 45.6c0 .88-.72 1.6-1.6 1.6H2.4c-.88 0-1.6-.72-1.6-1.6V7.2c0-.88.72-1.6 1.6-1.6h43.2c.88 0 1.6.72 1.6 1.6v38.4zM16 .8v8m16-8v8M13.6 23.2h-3.2V20h3.2v3.2zm12 0h-3.2V20h3.2v3.2zm12 0h-3.2V20h3.2v3.2zm-24 12h-3.2V32h3.2v3.2zm12 0h-3.2V32h3.2v3.2zm13.6-4.8l-6.4 6.4m6.4 0l-6.4-6.4"/></symbol><symbol id="icon-facebook" viewBox="-462.2 266.5 11.6 23.3"><path d="M-459.3 289.7V279h-2.9v-3.9h2.9v-3.4c0-1.5.5-2.8 1.5-3.8s2.4-1.5 4.3-1.5c.5 0 1 0 1.5.1.5 0 .8.1 1.1.1l.4.1-.2 3.7h-2.5c-.7 0-1.1.2-1.4.5s-.3.8-.3 1.5v2.9h4.4l-.3 3.9h-4.1v10.7l-4.4-.2z"/></symbol><symbol id="icon-filter" viewBox="0 0 100.00001 125"><path d="M27.063 11.219c-.434 0-.875.265-1.063.656-.188.391-.114.88.156 1.219L30 17.969l42.75-.063c4.301-.003 6.276 1.72 3.688 4.969L51.906 53.656v14.125c0 .362.178.723.469.938L66.781 79.28c.344.254.838.286 1.219.094.381-.192.625-.604.625-1.031V45.562L94.75 13.094c.273-.338.343-.826.156-1.219-.187-.392-.628-.655-1.062-.656H27.063zM6.03 20.5a1.16 1.16 0 0 0-.781 1.875L31 54.844v22.218a1.16 1.16 0 0 0 .469.938l14.437 10.562a1.16 1.16 0 0 0 1.844-.937V54.844l26.094-32.469a1.16 1.16 0 0 0-.906-1.875H6.156a1.16 1.16 0 0 0-.125 0z" style="text-indent:0;text-transform:none;block-progression:tb" overflow="visible" color="#000"/></symbol><symbol id="icon-google" viewBox="-468 267.9 23.3 20.1"><path d="M-444.7 271.8v1h-3.9v3.9h-1v-3.9h-3.9v-1h3.9v-3.9h1v3.9h3.9zm-13.2 7.9c.8.6 1.3 1.2 1.7 1.8.3.6.5 1.3.5 2.2 0 1.2-.5 2.2-1.6 3.1-1.1.9-2.5 1.3-4.4 1.3-1.7 0-3.2-.3-4.4-1s-1.8-1.5-1.8-2.6.6-2.2 1.8-3.1 2.6-1.3 4.2-1.3h1c-.5-.5-.8-1.1-.8-1.7 0-.4.1-.8.3-1.2h-.6c-1.4 0-2.5-.4-3.3-1.3s-1.3-1.9-1.3-3.2c0-1.2.5-2.2 1.6-3.1s2.3-1.3 3.7-1.3h6.1l-1.4 1h-1.9c.6.2 1.1.7 1.5 1.3.3.6.5 1.4.5 2.2 0 1.2-.6 2.3-1.7 3.2-.5.4-.8.7-.9.9-.1.2-.2.5-.2.8 0 .3.2.6.5 1 .2.5.5.8.9 1zm-3.3-3c.8 0 1.4-.3 1.9-1s.6-1.6.5-2.6c-.1-1-.5-1.9-1.2-2.6s-1.4-1.1-2.2-1.1c-.8 0-1.4.3-1.9 1-.4.7-.6 1.6-.5 2.6.1 1 .5 1.9 1.2 2.7.7.5 1.5.9 2.2 1zm-.6 10.4c2.9 0 4.4-1.1 4.4-3.2 0-.1 0-.3-.1-.6 0-.1-.1-.3-.1-.4-.1-.1-.1-.2-.2-.4s-.2-.2-.3-.3c-.1-.1-.2-.2-.4-.3-.2-.1-.3-.2-.4-.3-.1-.1-.3-.2-.5-.4s-.4-.3-.5-.3c-.4-.1-1-.2-1.5-.2-1.2 0-2.2.3-3.1.9s-1.3 1.4-1.3 2.2c0 .9.4 1.7 1.1 2.3s1.8 1 2.9 1z"/></symbol><symbol id="icon-link" viewBox="0 0 20 20"><g fill="none" fill-rule="evenodd" stroke="#D6E100" stroke-width="1.25" stroke-linecap="round" stroke-linejoin="round"><path d="M10.37 14.6L7.2 17.78a3.024 3.024 0 0 1-4.26 0l-.7-.7a3.012 3.012 0 0 1 0-4.25l4.6-4.6a3 3 0 0 1 4.24 0l.7.7"/><path d="M9.66 5.4l3.2-3.18a2.988 2.988 0 0 1 4.23 0l.7.7a3.012 3.012 0 0 1 0 4.25l-4.6 4.6a3 3 0 0 1-4.24 0"/></g></symbol><symbol id="icon-linkedin" viewBox="0 0 12 13"><path d="M.16 4.513h2.399v7.707H.16V4.513zM1.36.681a1.39 1.39 0 1 1-.002 2.78A1.39 1.39 0 0 1 1.36.68zM4.063 4.513H6.36v1.053h.033c.319-.606 1.102-1.245 2.268-1.245 2.425 0 2.874 1.596 2.874 3.671v4.228H9.14V8.473c0-.895-.018-2.045-1.246-2.045-1.247 0-1.437.974-1.437 1.978v3.814H4.063V4.513"/></symbol><symbol id="icon-mail" viewBox="-468 269.4 23.3 17.5"><path d="M-444.7 270.8l-11.6 8.7-11.6-8.7c0-.4.1-.7.4-1 .3-.3.6-.4 1-.4h20.4c.4 0 .7.1 1 .4s.4.6.4 1zm-23.3 2.6l11.6 8.7 11.6-8.7v11.9c0 .4-.1.7-.4 1-.3.3-.6.4-1 .4h-20.4c-.4 0-.7-.1-1-.4-.3-.3-.4-.6-.4-1v-11.9z"/></symbol><symbol id="icon-media" viewBox="0 0 35 50"><g stroke="#89D1F9" stroke-width="1.5" stroke-linecap="round" stroke-linejoin="round" fill="none" fill-rule="evenodd"><path d="M8.846 3.483c0-.828.872-2.483 3.487-2.483 2.616 0 3.488 1.655 3.488 2.483v15.724M15.82 19.207c0 2.285-1.952 4.138-4.358 4.138-2.408 0-4.36-1.853-4.36-4.138v-7.448"/><path d="M34.164 37.414V5.138c0-.828-.44-.828-.935-.828H1.867c-.48 0-.867.369-.867.823v43.044c0 .455.388.823.867.823h20.056"/><path d="M34.128 37.414H21.923V49l12.205-11.586z"/></g></symbol><symbol id="icon-menu" viewBox="0 0 18 17"><path d="M0 0h18v3H0V0zm0 10V7h18v3H0zm0 7v-3h18v3H0z" fill="inherit" fill-rule="evenodd"/></symbol><symbol id="icon-news" viewBox="0 0 40 50"><g fill="none" fill-rule="evenodd" stroke="#6C75E1" stroke-width="1.5" stroke-linecap="round" stroke-linejoin="round"><path d="M37.42 1C38.3 1 39 1.72 39 2.6v44.8c0 .88-.7 1.6-1.58 1.6H2.58C1.72 49 1 48.28 1 47.4V2.6C1 1.72 1.72 1 2.58 1h34.84z"/><path d="M17.52 19.2h-9.9V9.3h9.9v9.93zM7.6 25h24.8M7.6 32h24.8M7.6 38h14.9m-.02-26h9.9m-9.9 7h9.9"/></g></symbol><symbol id="icon-newsletter" viewBox="0 0 38 48"><path fill="none" stroke="#9F4EE9" stroke-width="1.5" stroke-linecap="round" stroke-linejoin="round" d="M37.14 34.4V2.82c0-1.1-.96-2.02-2.14-2.02H3C1.82.8.86 1.7.86 2.82v42.36c0 1.1.96 2.02 2.14 2.02h20.32m13.82-12.8H23.32v12.8l13.82-12.8zM16.4 17.6H6.06V8H16.4v9.6zM6.05 23.2h25.9M21.6 17.6h10.35M21.6 11.2h10.35M6.05 28.8h25.9m-25.9 5.6h12.1"/></symbol><symbol id="icon-plus" viewBox="0 0 20 21"><path d="M11 5.478H9V9.53H5v2.026h4v4.05h2v-4.05h4V9.529h-4V5.48zM10 .415C4.48.415 0 4.952 0 10.542c0 5.59 4.48 10.127 10 10.127s10-4.537 10-10.127C20 4.952 15.52.415 10 .415zm0 18.229c-4.41 0-8-3.636-8-8.102S5.59 2.44 10 2.44s8 3.636 8 8.102-3.59 8.102-8 8.102z" fill="inherit" fill-rule="evenodd"/></symbol><symbol id="icon-post" viewBox="0 0 50 46"><path fill="none" stroke="#FB6045" stroke-width="1.5" stroke-linecap="round" stroke-linejoin="round" d="M10.93 34.85H2.66c-.92 0-1.66-.77-1.66-1.7V2.7C1 1.75 1.74 1 2.66 1h44.68c.92 0 1.66.76 1.66 1.7v30.45c0 .93-.74 1.7-1.66 1.7H19.2M10.1 11h29.8m-29.8 6h29.8m-29.8 7h19.87M19.2 34.85L10.94 45V34.85"/></symbol><symbol id="icon-resource" viewBox="0 0 38 50"><path fill="none" stroke="inherit" stroke-width="1.5" stroke-linecap="round" stroke-linejoin="round" d="M27.76 7.62H37V49H1V7.62h9.24m12.19 37.24H5.3V12.6h27.4v22.33M15.57 4.3C15.57 2.5 17.1 1 19 1c1.9 0 3.43 1.48 3.43 3.3m-12 7.46v-2.5c0-2.73 2.3-4.95 5.14-4.95m6.86-.01c2.84 0 5.14 2.23 5.14 4.97v2.5m-5.14 23.16H32.7l-10.27 9.93v-9.93zM26.7 20H11.3m15.4 9H11.3m11.2 8H11.3"/></symbol><symbol id="icon-search" viewBox="0 0 25 25"><path fill="inherit" fill-rule="evenodd" d="M9.32 15.75c1.78 0 3.3-.62 4.55-1.88 1.26-1.25 1.88-2.77 1.88-4.55 0-1.8-.62-3.3-1.88-4.56-1.25-1.25-2.77-1.88-4.55-1.88-1.8 0-3.3.63-4.56 1.88C3.5 6 2.88 7.53 2.88 9.32c0 1.78.63 3.3 1.88 4.55 1.25 1.26 2.77 1.88 4.56 1.88zm8.58 0l7.1 7.1L22.86 25l-7.1-7.1v-1.14l-.4-.4c-1.7 1.47-3.72 2.2-6.04 2.2-2.6 0-4.8-.9-6.6-2.68C.9 14.1 0 11.9 0 9.32c0-2.6.9-4.8 2.7-6.6C4.53.9 6.73 0 9.33 0c2.6 0 4.78.9 6.56 2.7 1.8 1.82 2.7 4.02 2.7 6.62 0 2.32-.75 4.33-2.23 6.03l.4.4h1.15z"/></symbol><symbol id="icon-stop" viewBox="-521.4 -282.8 20 20"><path fill="inherit" d="M-511.4-282.8c-5.5 0-10 4.5-10 10s4.5 10 10 10 10-4.5 10-10-4.5-10-10-10zm6 11h-12v-2h12v2z"/></symbol><symbol id="icon-success" viewBox="0 0 60 60"><g stroke="#EC68FA" stroke-width="1.5" stroke-linecap="round" stroke-linejoin="round" fill="none" fill-rule="evenodd"><path d="M49 20C49 9.508 40.495 1 30 1 19.509 1 11 9.508 11 20c0 10.493 8.509 19 19 19 10.495 0 19-8.507 19-19z"/><path d="M47.272 29.015L59 49l-12.24-2-4.505 12-11.175-19.355M12.725 29.023L1 49l12-2 4.748 12 11.176-19.364M30.72 26.149c-.376-.26-.991-.26-1.368 0l-7.017 4.8c-.376.257-.581.11-.457-.33l2.118-7.49c.125-.438-.034-1.064-.355-1.39l-5.457-5.552c-.32-.325-.211-.626.243-.667l7.223-.675c.453-.044.973-.421 1.155-.838l2.902-6.694c.181-.417.478-.417.658 0l2.904 6.694c.18.417.702.794 1.156.838l7.222.673c.455.043.564.344.244.669l-5.457 5.552c-.321.326-.48.952-.356 1.39l2.119 7.49c.124.44-.081.587-.458.33l-7.019-4.8z"/></g></symbol><symbol id="icon-twitter" viewBox="0 0 12 11"><path d="M11.724 1.935a4.64 4.64 0 0 1-1.335.366c.48-.288.849-.743 1.022-1.286-.448.266-.946.46-1.476.564A2.325 2.325 0 0 0 5.972 3.7a6.602 6.602 0 0 1-4.794-2.43c-.2.344-.314.743-.314 1.169 0 .807.41 1.519 1.034 1.936a2.315 2.315 0 0 1-1.053-.291v.029c0 1.127.802 2.067 1.865 2.281a2.337 2.337 0 0 1-1.05.039 2.327 2.327 0 0 0 2.172 1.616 4.667 4.667 0 0 1-3.443.963 6.59 6.59 0 0 0 3.566 1.044c4.277 0 6.616-3.543 6.616-6.616 0-.101-.003-.201-.006-.302a4.735 4.735 0 0 0 1.159-1.203"/></symbol><symbol id="icon-world" viewBox="0 0 21 21"><path d="M10.5 0c2.894 0 5.368 1.026 7.42 3.08C19.975 5.131 21 7.605 21 10.5s-1.026 5.368-3.08 7.42C15.869 19.975 13.395 21 10.5 21s-5.368-1.026-7.42-3.08C1.025 15.869 0 13.395 0 10.5s1.026-5.368 3.08-7.42C5.131 1.025 7.605 0 10.5 0zm.404 6.26v3.836h3.786c-.034-1.548-.219-2.961-.555-4.24-.875.202-1.952.336-3.231.404zm0-.808c1.245-.067 2.255-.202 3.029-.404-.337-1.144-.783-2.078-1.338-2.802-.555-.723-1.119-1.17-1.691-1.337v4.543zM10.096.909c-1.211.303-2.221 1.682-3.029 4.14.808.201 1.818.336 3.03.403V.909zm0 5.35c-1.312-.067-2.406-.201-3.281-.403-.337 1.279-.522 2.692-.555 4.24h3.836V6.26zm-4.644 3.837c.067-1.784.252-3.264.555-4.442-.976-.27-1.969-.69-2.978-1.262C1.683 6.007.959 7.909.859 10.096h4.593zm0 .808H.858c.101 2.187.825 4.089 2.17 5.704 1.145-.606 2.138-1.026 2.98-1.262-.304-1.178-.489-2.658-.556-4.442zm.808 0c.033 1.548.218 2.961.555 4.24a20.289 20.289 0 0 1 3.281-.454v-3.786H6.26zm3.836 4.644c-1.211.067-2.221.202-3.029.404.808 2.457 1.818 3.836 3.03 4.14v-4.544zm.808 4.543c.572-.168 1.136-.614 1.691-1.337.555-.724 1.001-1.658 1.338-2.802-.774-.202-1.784-.337-3.03-.404v4.543zm0-5.401c1.077.034 2.154.185 3.23.454.337-1.279.522-2.692.556-4.24h-3.786v3.786zm4.644-3.786c-.067 1.649-.27 3.13-.606 4.442.909.27 1.919.69 3.03 1.262 1.345-1.615 2.069-3.517 2.17-5.704h-4.594zm0-.808h4.594c-.101-2.187-.825-4.089-2.17-5.704-1.145.606-2.138 1.026-2.98 1.262.304 1.178.489 2.658.556 4.442zm1.817-6.36c-1.346-1.347-2.877-2.222-4.593-2.625.774.807 1.43 2.052 1.968 3.735a15.377 15.377 0 0 0 2.625-1.11zM8.228 1.11c-1.783.403-3.315 1.278-4.593 2.625.538.302 1.413.656 2.625 1.06.504-1.616 1.16-2.844 1.968-3.685zM3.635 17.264c1.346 1.347 2.877 2.222 4.593 2.625-.841-.875-1.514-2.12-2.019-3.735a16.88 16.88 0 0 0-2.574 1.11zm9.137 2.625c1.716-.403 3.247-1.278 4.593-2.625a15.377 15.377 0 0 0-2.625-1.11c-.538 1.683-1.194 2.928-1.968 3.735z" fill="#FFF" fill-rule="evenodd"/></symbol><symbol id="icon-youtube" viewBox="-213.3 518.7 59.6 42.2"><path d="M-183.5 518.7c11 0 18 .3 21 .8 3.7.7 6.1 2.2 7.2 4.4 1 1.9 1.5 5.9 1.6 11.9v4c0 7.2-.3 11.9-.8 13.9-.7 2.8-2.4 4.6-5 5.6-2.7 1-8.3 1.5-17 1.6h-7c-11 0-18-.3-21-.8-3.7-.7-6.1-2.2-7.2-4.4-1-1.9-1.5-5.9-1.6-11.9v-4c0-7.2.3-11.9.8-13.9.7-2.8 2.4-4.6 5-5.6 2.7-1 8.3-1.5 17-1.6h7zM-191 551l18.6-11.2-18.6-11.2V551z"/></symbol><symbol id="menu" viewBox="0 0 30 28"><path d="M0 3h30M0 13.845h30M0 24.69h30" stroke="#473E3A" stroke-width="6" fill="#000" fill-rule="evenodd"/></symbol><symbol id="ocp-logo-small" viewBox="0 0 188 51"><g fill="none" fill-rule="evenodd"><path d="M40.412 6.098L30.357 1.12 9.574 9.563l9.557 7.076L0 26.113l20.369 21.11 20.042-14.835 20.042 14.834 20.37-21.11-19.131-9.473 9.557-7.076L50.463 1.12 40.412 6.098z" fill="#D9E021"/><path d="M40.412 6.098L19.13 16.639 9.574 9.563 30.357 1.12l10.055 4.978z" fill="#B9C504"/><path d="M80.823 26.113l-20.37 21.11-20.041-14.835 21.28-15.749 19.131 9.474z" fill="#D9E021"/><path d="M61.693 16.64L40.412 32.387V6.098l21.28 10.541z" fill="#B9C504"/><path d="M40.412 6.098v26.29L19.13 16.64 40.41 6.098z" fill="#9DAD01"/><path d="M0 26.113l20.37 21.11 20.042-14.835L19.13 16.64 0 26.113zM71.25 9.563l-9.557 7.076L40.412 6.098l10.05-4.978L71.25 9.563z" fill="#D9E021"/><path d="M97.172 10.905c2.568 0 4.226-2.086 4.226-4.673 0-2.628-1.658-4.713-4.226-4.713-2.547 0-4.215 2.085-4.215 4.713 0 2.587 1.668 4.673 4.215 4.673m0-10.767c3.74 0 6.025 2.7 6.025 6.094 0 3.385-2.284 6.074-6.025 6.074-3.74 0-6.004-2.68-6.004-6.074 0-3.415 2.274-6.094 6.004-6.094M112.614 7.97c0-1.666-1.01-2.955-2.69-2.955-1.515 0-2.678 1.033-2.708 2.403-.01.02-.01 1.207-.01 1.227.08 1.37 1.152 2.342 2.648 2.342 1.76 0 2.76-1.237 2.76-3.017zm-8.421 6.636h1.547V5.107h-1.425V3.881h2.951s.04 1.083.05 1.083a3.778 3.778 0 0 1 2.831-1.227c2.517 0 4.034 1.912 4.034 4.284 0 2.342-1.597 4.285-4.054 4.285-1.092 0-2.133-.379-2.89-1.084l.01 3.384 1.647.01v1.258h-4.701v-1.268zM119.938 7.336h2.649c-.213-1.298-1.092-2.423-2.568-2.423-1.628 0-2.568 1.033-2.8 2.423h2.719zm.697 1.064l-3.457-.02c.212 1.584 1.163 2.648 2.901 2.648 1.052 0 2.052-.39 2.67-1.135l1.293.572c-.778 1.166-2.214 1.84-4.003 1.84-2.8 0-4.519-1.922-4.519-4.304 0-2.495 1.931-4.264 4.479-4.264 2.678 0 4.043 2.086 4.043 4.468v.174l-3.407.02zM125.462 10.854h1.446V5.107h-1.506V3.881h2.992s.02.889.04 1.063c1.042-.818 1.86-1.207 2.861-1.207 1.486 0 2.396 1.013 2.396 2.628 0 .153-.03 4.489-.03 4.489l1.465.02v1.238h-4.063v-1.227h1.112V6.927c0-1.206-.304-1.88-1.264-1.88-.92 0-1.759.613-2.477 1.44v4.377h1.466v1.248h-4.438v-1.258zM94.281 41.338h1.8c2.193 0 2.78-1.013 2.78-2.352 0-1.462-.85-2.25-2.285-2.25H94.28v4.602zm-3.144 4.6h1.527v-9.222h-1.527v-1.268h5.388c3.225 0 4.004 1.963 4.004 3.559 0 2.893-1.992 3.609-4.752 3.609h-1.475v3.333h1.597v1.288h-4.762V45.94zM107.014 43.638c-.435-.01-1.122-.163-1.85-.163-1.062 0-2.184.214-2.184 1.554 0 .715.546 1.298 1.536 1.298.89 0 1.88-.347 2.498-.91v-1.779zm-5.46 1.39c0-2.034 1.588-2.596 3.508-2.596.627 0 1.294.071 1.952.204v-.991c0-1.146-.91-1.575-1.982-1.575-.829 0-1.486.296-1.87.859l-1.415-.399c.616-1.074 1.82-1.667 3.487-1.667 2.548 0 3.286 1.309 3.286 2.71V46h1.455v1.237h-2.8s-.01-.848-.02-.848c-1.071.787-1.84 1.073-2.85 1.073-1.709 0-2.75-1.175-2.75-2.433zM110.84 45.98h1.627v-5.747h-1.688v-1.226h2.861s.05 1.605.07 1.789c.546-1.31 1.558-1.933 2.7-1.933.151 0 1.203.041 1.203.041l-.05 1.432c-.031-.02-.89-.031-.992-.031-1.991 0-2.587 1.186-2.587 3.047v2.638h1.779v1.248h-4.923V45.98zM118.447 39.006h1.284V37.29l1.496-1.248v2.965h1.647v1.248h-1.647v2.178c0 .419 0 2.7.04 2.842.03.563.344.757.819.757.232 0 .505-.051.788-.143v1.298a4.562 4.562 0 0 1-1.092.164c-1.162 0-1.98-.511-2.031-1.963 0 0-.05-2.475-.05-2.873v-2.26h-1.254v-1.248zM124.274 45.98h1.446v-5.747h-1.506v-1.226h2.992s.02.889.04 1.063c1.042-.818 1.86-1.207 2.861-1.207 1.486 0 2.396 1.013 2.396 2.628 0 .153-.03 4.489-.03 4.489l1.465.02v1.238h-4.063V46.01h1.112v-3.957c0-1.206-.304-1.88-1.264-1.88-.92 0-1.759.613-2.477 1.44v4.377h1.466v1.248h-4.438V45.98zM139.24 42.462h2.649c-.212-1.298-1.092-2.423-2.568-2.423-1.627 0-2.567 1.033-2.8 2.423h2.72zm.698 1.064l-3.458-.02c.213 1.584 1.163 2.648 2.902 2.648 1.051 0 2.052-.39 2.669-1.135l1.294.572c-.779 1.166-2.214 1.84-4.004 1.84-2.8 0-4.518-1.922-4.518-4.304 0-2.495 1.93-4.264 4.478-4.264 2.679 0 4.044 2.086 4.044 4.468v.174l-3.407.02zM144.775 45.98h1.627v-5.747h-1.688v-1.226h2.861s.05 1.605.07 1.789c.547-1.31 1.558-1.933 2.7-1.933.152 0 1.203.041 1.203.041l-.05 1.432c-.031-.02-.89-.031-.991-.031-1.992 0-2.588 1.186-2.588 3.047v2.638h1.779v1.248h-4.923V45.98zM152.675 44.548h1.304c-.01.041-.01.082-.01.133 0 .951.88 1.534 2.133 1.534 1.162 0 1.85-.44 1.85-1.196 0-.849-.728-1.023-1.8-1.166-1.455-.194-3.497-.644-3.497-2.607 0-1.36 1.182-2.383 3.002-2.383.789 0 1.527.174 2.052.43.01.01.05-.286.05-.286h1.275v2.617h-1.274s-.03-.573-.03-.685c-.476-.583-1.133-.88-2.012-.88-.99 0-1.638.43-1.638 1.125 0 .91 1.233 1.013 2.659 1.248 1.496.255 2.76.808 2.76 2.474 0 1.503-1.254 2.526-3.225 2.526-.93 0-1.648-.184-2.255-.604l-.02.41h-1.324v-2.69zM160.494 45.98h1.537v-9.295h-1.516v-1.237h3.032l-.01 4.366c.89-.644 1.79-.95 2.77-.95 1.607 0 2.487.93 2.487 2.689l-.01 4.427 1.455.02v1.238h-3.983V46h1.032V41.84c0-.941-.263-1.78-1.315-1.78-.727 0-1.637.338-2.436.931v5h1.466v1.248h-4.509V45.98zM173.267 35.448c.515 0 .93.389.93.89 0 .5-.415.89-.93.89-.516 0-.92-.39-.92-.89 0-.501.404-.89.92-.89zm-2.103 10.521h1.365v-5.736h-1.365v-1.227h2.871v6.984h1.375v1.247h-4.246V45.97zM184.392 43.096c0-1.666-1.011-2.955-2.69-2.955-1.516 0-2.678 1.033-2.709 2.403-.01.02-.01 1.207-.01 1.227.081 1.37 1.153 2.342 2.649 2.342 1.759 0 2.76-1.237 2.76-3.017zm-8.421 6.636h1.546v-9.499h-1.425v-1.226h2.952s.04 1.083.05 1.083a3.778 3.778 0 0 1 2.83-1.227c2.518 0 4.034 1.912 4.034 4.284 0 2.342-1.597 4.285-4.053 4.285-1.092 0-2.133-.379-2.891-1.084l.01 3.384 1.647.01V51h-4.7v-1.268z" fill="#B9C504"/><path d="M91.198 23.795c0-3.61 2.103-6.094 5.772-6.094 1.638 0 3.013.634 3.912 1.524v-1.34h1.315v3.569h-1.264c-.779-1.575-2.204-2.372-3.882-2.372-2.548 0-4.064 2.004-4.064 4.662 0 2.628 1.587 4.703 4.125 4.703 1.688 0 3.67-.705 4.033-3.046l1.365.725c-.495 2.26-2.527 3.743-5.51 3.743-3.568 0-5.802-2.475-5.802-6.074M110.825 25.564c0-1.667-1.042-2.955-2.71-2.955-1.647 0-2.689 1.288-2.689 2.955s1.042 2.904 2.69 2.904c1.667 0 2.709-1.237 2.709-2.904m-7.006 0c0-2.362 1.668-4.264 4.317-4.264 2.628 0 4.306 1.902 4.306 4.264s-1.688 4.305-4.326 4.305c-2.629 0-4.297-1.943-4.297-4.305M113.761 28.417h1.446V22.67H113.7v-1.226h2.993s.02.889.04 1.063c1.042-.818 1.86-1.207 2.861-1.207 1.486 0 2.396 1.013 2.396 2.628 0 .153-.03 4.489-.03 4.489l1.465.02v1.238h-4.064v-1.227h1.113V24.49c0-1.207-.304-1.882-1.264-1.882-.92 0-1.759.614-2.477 1.442v4.376h1.466v1.248h-4.438v-1.258zM124.108 21.444h1.284v-1.718l1.496-1.248v2.966h1.648v1.247h-1.648v2.178c0 .42 0 2.7.04 2.842.03.563.344.757.819.757.233 0 .505-.051.789-.143v1.298a4.562 4.562 0 0 1-1.092.164c-1.163 0-1.982-.511-2.032-1.963 0 0-.05-2.475-.05-2.873v-2.26h-1.254v-1.247zM129.946 28.417h1.627V22.67h-1.688v-1.226h2.86s.051 1.605.072 1.789c.545-1.309 1.556-1.933 2.699-1.933.151 0 1.203.041 1.203.041l-.05 1.432c-.031-.02-.89-.031-.992-.031-1.991 0-2.588 1.186-2.588 3.047v2.638h1.78v1.248h-4.923v-1.258zM143.072 26.075c-.435-.01-1.122-.163-1.85-.163-1.062 0-2.184.214-2.184 1.554 0 .716.546 1.299 1.537 1.299.89 0 1.88-.348 2.497-.91v-1.78zm-5.46 1.39c0-2.034 1.588-2.596 3.509-2.596.626 0 1.293.072 1.95.204v-.991c0-1.146-.91-1.575-1.98-1.575-.83 0-1.487.296-1.87.859l-1.416-.399c.616-1.074 1.82-1.667 3.487-1.667 2.548 0 3.286 1.309 3.286 2.71v4.427h1.456v1.237h-2.8s-.01-.848-.02-.848c-1.072.787-1.84 1.073-2.851 1.073-1.709 0-2.75-1.175-2.75-2.433zM146.827 25.503c0-2.209 1.618-4.202 4.074-4.202.88 0 1.82.204 2.285.879l.01-.737h1.344v2.945h-1.304c-.212-1.186-.85-1.769-2.224-1.769-1.668 0-2.578 1.207-2.578 2.863 0 1.8.95 3.068 2.618 3.068 1.082 0 1.972-.46 2.477-1.36l1.223.562c-.616 1.37-1.95 2.117-3.74 2.117-2.962 0-4.185-2.362-4.185-4.366M155.9 21.444h1.284v-1.718l1.496-1.248v2.966h1.648v1.247h-1.648v2.178c0 .42 0 2.7.04 2.842.03.563.344.757.819.757.233 0 .505-.051.789-.143v1.298a4.562 4.562 0 0 1-1.092.164c-1.163 0-1.982-.511-2.032-1.963 0 0-.05-2.475-.05-2.873v-2.26H155.9v-1.247zM163.79 17.885c.515 0 .93.389.93.89s-.415.89-.93.89c-.516 0-.92-.389-.92-.89s.404-.89.92-.89zm-2.103 10.522h1.365V22.67h-1.365v-1.226h2.871v6.983h1.375v1.248h-4.246v-1.268zM167.08 28.417h1.446V22.67h-1.507v-1.226h2.993s.02.889.04 1.063c1.041-.818 1.86-1.207 2.861-1.207 1.486 0 2.396 1.013 2.396 2.628 0 .153-.03 4.489-.03 4.489l1.465.02v1.238h-4.064v-1.227h1.113V24.49c0-1.207-.304-1.882-1.264-1.882-.92 0-1.76.614-2.477 1.442v4.376h1.466v1.248h-4.438v-1.258zM184.675 26.208V24.93c-.05-1.298-1.193-2.28-2.67-2.28-1.697 0-2.739 1.34-2.739 2.975 0 1.534.98 2.772 2.71 2.772 1.445 0 2.699-.972 2.699-2.189m-6.046 6.197l.95-1.064a3.939 3.939 0 0 0 2.326.746c1.203 0 2.73-.613 2.76-2.443 0-.041-.03-.88-.03-.92-.567.531-1.83.95-2.932.95-2.507 0-4.044-1.82-4.044-4.007 0-2.363 1.607-4.367 4.104-4.367 1.082 0 2.022.369 2.861 1.125.01 0 .03-.981.03-.981h3.023v1.226l-1.526.031.01 6.39c0 3.242-2.255 4.264-4.387 4.264-1.254 0-2.194-.276-3.145-.95" fill="#FFF"/></g></symbol><symbol id="ocp-logo" viewBox="0 0 482 38"><g fill="none" fill-rule="evenodd"><path d="M33.568 4.227L25.216.14 7.952 7.072l7.94 5.81L0 20.664 16.92 38l16.648-12.182L50.216 38l16.92-17.336-15.89-7.78 7.937-5.81L41.917.138l-8.35 4.087z" fill="#D9E021"/><path d="M25.216.138L7.952 7.073l7.94 5.81 17.676-8.656-8.352-4.09z" fill="#B9C504"/><path d="M33.568 25.818L50.216 38l16.92-17.336-15.89-7.78-17.678 12.934z" fill="#D9E021"/><path d="M51.245 12.884L33.568 25.818V4.228l17.677 8.656z" fill="#B9C504"/><path d="M33.568 4.227v21.59L15.89 12.885l17.68-8.658z" fill="#9DAD01"/><path d="M0 20.664L16.92 38l16.648-12.182L15.89 12.884 0 20.664zM41.916.138l-8.348 4.09 17.676 8.656 7.94-5.81L41.915.137z" fill="#D9E021"/><path d="M90.596 23.996c4.13 0 6.794-3.315 6.794-7.427 0-4.178-2.665-7.493-6.794-7.493-4.095 0-6.777 3.315-6.777 7.492 0 4.11 2.68 7.426 6.776 7.426m0-17.113c6.014 0 9.687 4.29 9.687 9.686 0 5.38-3.673 9.653-9.687 9.653-6.013 0-9.653-4.258-9.653-9.654 0-5.43 3.656-9.687 9.653-9.687m24.826 12.45c0-2.65-1.626-4.698-4.324-4.698-2.437 0-4.306 1.64-4.355 3.82-.016.032-.016 1.917-.016 1.95.13 2.178 1.852 3.72 4.258 3.72 2.828 0 4.437-1.965 4.437-4.793zm-13.54 10.547h2.488v-15.1h-2.29v-1.95h4.744s.065 1.724.08 1.724c1.204-1.284 2.797-1.95 4.552-1.95 4.047 0 6.485 3.04 6.485 6.81 0 3.72-2.567 6.81-6.516 6.81-1.756 0-3.43-.602-4.65-1.724 0 .374.018 5.38.018 5.38l2.65.016v2h-7.56V29.88zm25.314-11.556h4.258c-.34-2.064-1.755-3.852-4.128-3.852-2.617 0-4.128 1.642-4.502 3.852h4.372zm1.12 1.69l-5.557-.032c.34 2.52 1.868 4.21 4.663 4.21 1.69 0 3.3-.618 4.29-1.805l2.08.91c-1.25 1.853-3.558 2.926-6.435 2.926-4.502 0-7.264-3.055-7.264-6.842 0-3.965 3.104-6.776 7.2-6.776 4.306 0 6.5 3.315 6.5 7.102v.276l-5.477.033zm7.762 3.9h2.324v-9.133h-2.422v-1.95h4.81s.033 1.415.066 1.69c1.674-1.3 2.99-1.916 4.6-1.916 2.388 0 3.85 1.61 3.85 4.176 0 .244-.048 7.135-.048 7.135l2.357.033v1.966h-6.534v-1.95h1.79v-6.29c0-1.918-.49-2.99-2.032-2.99-1.48 0-2.828.975-3.982 2.29v6.957h2.356v1.984h-7.134v-2z" fill="#B9C504"/><path d="M162.416 16.57c0-5.738 3.38-9.687 9.28-9.687 2.633 0 4.843 1.007 6.29 2.42V7.176h2.112v5.672h-2.03c-1.253-2.502-3.544-3.77-6.242-3.77-4.096 0-6.533 3.185-6.533 7.41 0 4.178 2.55 7.477 6.63 7.477 2.715 0 5.9-1.122 6.485-4.843l2.194 1.154c-.796 3.592-4.063 5.95-8.857 5.95-5.737 0-9.33-3.934-9.33-9.655m31.7 2.81c0-2.648-1.673-4.696-4.355-4.696-2.65 0-4.323 2.048-4.323 4.697s1.674 4.617 4.323 4.617c2.682 0 4.356-1.967 4.356-4.616m-11.263 0c0-3.753 2.682-6.777 6.94-6.777 4.225 0 6.923 3.024 6.923 6.778s-2.714 6.843-6.956 6.843c-4.225 0-6.907-3.088-6.907-6.842m16.13 4.535h2.324v-9.14h-2.422v-1.95h4.81s.033 1.415.066 1.69c1.675-1.3 2.99-1.916 4.6-1.916 2.39 0 3.852 1.61 3.852 4.176 0 .244-.048 7.135-.048 7.135l2.356.033v1.966h-6.533v-1.95h1.787v-6.29c0-1.918-.487-2.99-2.03-2.99-1.48 0-2.83.975-3.983 2.29v6.957h2.358v1.984h-7.135v-2zm16.634-11.084h2.064V10.1l2.406-1.982v4.713h2.65v1.984h-2.65v3.462c0 .666 0 4.29.065 4.518.05.894.554 1.202 1.318 1.202.373 0 .812-.08 1.267-.227v2.063c-.57.146-1.202.26-1.755.26-1.87 0-3.185-.813-3.267-3.12 0 0-.08-3.934-.08-4.567v-3.592h-2.016V12.83zm9.385 11.085h2.617V14.78h-2.715v-1.95h4.6s.08 2.553.113 2.845c.878-2.08 2.503-3.07 4.34-3.07.243 0 1.933.064 1.933.064l-.08 2.274c-.05-.033-1.43-.05-1.593-.05-3.2 0-4.16 1.886-4.16 4.844v4.193h2.86v1.984h-7.915v-2zm21.33-3.722c-.698-.016-1.803-.26-2.973-.26-1.708 0-3.512.342-3.512 2.47 0 1.138.878 2.065 2.47 2.065 1.43 0 3.024-.553 4.015-1.447V20.2zm-8.775 2.21c0-3.233 2.552-4.127 5.64-4.127 1.007 0 2.08.113 3.136.325v-1.576c0-1.82-1.463-2.503-3.185-2.503-1.333 0-2.39.473-3.007 1.367l-2.274-.634c.99-1.707 2.925-2.65 5.606-2.65 4.096 0 5.282 2.08 5.282 4.307v7.038h2.34v1.966h-4.5s-.017-1.35-.034-1.35c-1.722 1.253-2.957 1.708-4.583 1.708-2.746 0-4.42-1.87-4.42-3.868zm14.813-3.12c0-3.51 2.6-6.68 6.55-6.68 1.414 0 2.926.326 3.673 1.398l.016-1.17h2.16v4.682h-2.096c-.34-1.886-1.365-2.812-3.575-2.812-2.683 0-4.146 1.918-4.146 4.55 0 2.86 1.528 4.876 4.21 4.876 1.74 0 3.17-.73 3.982-2.16l1.966.893c-.99 2.176-3.136 3.363-6.013 3.363-4.763 0-6.73-3.754-6.73-6.94m14.586-6.452h2.064V10.1l2.406-1.982v4.713h2.65v1.984h-2.65v3.462c0 .666 0 4.29.065 4.518.05.894.553 1.202 1.317 1.202.374 0 .813-.08 1.268-.227v2.063c-.57.146-1.203.26-1.755.26-1.87 0-3.186-.813-3.267-3.12 0 0-.08-3.934-.08-4.567v-3.592h-2.017V12.83zm12.685-5.655c.83 0 1.496.618 1.496 1.414 0 .796-.666 1.413-1.495 1.413-.828 0-1.478-.617-1.478-1.414 0-.797.65-1.415 1.48-1.415zM276.26 23.9h2.195v-9.12h-2.195v-1.95h4.616v11.1h2.21v1.984h-6.826V23.9zm8.67.015h2.325V14.78h-2.422v-1.95h4.81s.033 1.415.066 1.69c1.673-1.3 2.99-1.916 4.6-1.916 2.388 0 3.85 1.61 3.85 4.176 0 .244-.048 7.135-.048 7.135l2.356.033v1.966h-6.533v-1.95h1.787v-6.29c0-1.918-.487-2.99-2.03-2.99-1.48 0-2.83.975-3.983 2.29v6.957h2.356v1.984h-7.135v-2zm28.288-3.51v-2.032c-.082-2.064-1.918-3.624-4.29-3.624-2.73 0-4.405 2.128-4.405 4.728 0 2.438 1.576 4.405 4.355 4.405 2.324 0 4.34-1.544 4.34-3.478m-9.72 9.85l1.53-1.692a6.372 6.372 0 0 0 3.736 1.187c1.935 0 4.39-.975 4.437-3.885 0-.065-.047-1.397-.047-1.462-.91.845-2.942 1.51-4.714 1.51-4.03 0-6.5-2.892-6.5-6.37 0-3.754 2.583-6.94 6.597-6.94 1.74 0 3.25.586 4.6 1.788.016 0 .048-1.56.048-1.56h4.86v1.95l-2.454.05.017 10.158c0 5.152-3.624 6.777-7.054 6.777-2.015 0-3.526-.44-5.054-1.51" fill="#FFF"/><path d="M333.933 16.537h2.893c3.527 0 4.47-1.61 4.47-3.74 0-2.322-1.366-3.574-3.674-3.574h-3.69v7.314zm-5.055 7.313h2.454V9.19h-2.454V7.176h8.663c5.185 0 6.437 3.12 6.437 5.656 0 4.6-3.202 5.738-7.64 5.738h-2.372v5.298h2.568v2.048h-7.655V23.85zm25.72-3.657c-.7-.016-1.805-.26-2.975-.26-1.706 0-3.51.342-3.51 2.47 0 1.138.877 2.065 2.47 2.065 1.43 0 3.023-.553 4.014-1.447v-2.827zm-8.777 2.21c0-3.233 2.553-4.127 5.64-4.127 1.008 0 2.08.113 3.137.325v-1.576c0-1.82-1.462-2.503-3.185-2.503-1.333 0-2.39.473-3.007 1.367l-2.275-.634c.99-1.707 2.925-2.65 5.607-2.65 4.095 0 5.282 2.08 5.282 4.307v7.038h2.34v1.966h-4.503s-.016-1.35-.032-1.35c-1.723 1.253-2.958 1.708-4.583 1.708-2.747 0-4.42-1.87-4.42-3.868zm14.928 1.512h2.617V14.78h-2.714v-1.95h4.6s.08 2.553.114 2.845c.878-2.08 2.503-3.07 4.34-3.07.243 0 1.933.064 1.933.064l-.08 2.274c-.05-.033-1.43-.05-1.594-.05-3.2 0-4.16 1.886-4.16 4.844v4.193h2.86v1.984h-7.915v-2zm12.23-11.084h2.064V10.1l2.405-1.982v4.713h2.65v1.984h-2.65v3.462c0 .666 0 4.29.065 4.518.05.894.553 1.202 1.317 1.202.372 0 .81-.08 1.266-.227v2.063c-.57.146-1.202.26-1.755.26-1.868 0-3.184-.813-3.266-3.12 0 0-.08-3.934-.08-4.567v-3.592h-2.016V12.83zm9.37 11.085h2.323V14.78h-2.42v-1.95h4.81s.033 1.415.065 1.69c1.674-1.3 2.99-1.916 4.6-1.916 2.39 0 3.85 1.61 3.85 4.176 0 .244-.047 7.135-.047 7.135l2.356.033v1.966h-6.533v-1.95h1.788v-6.29c0-1.918-.487-2.99-2.03-2.99-1.48 0-2.83.975-3.983 2.29v6.957h2.357v1.984h-7.135v-2zm24.06-5.59h4.258c-.34-2.065-1.755-3.853-4.128-3.853-2.616 0-4.128 1.642-4.502 3.852h4.372zm1.122 1.69l-5.56-.033c.343 2.52 1.87 4.21 4.666 4.21 1.69 0 3.3-.618 4.29-1.805l2.08.91c-1.25 1.853-3.56 2.926-6.435 2.926-4.5 0-7.264-3.055-7.264-6.842 0-3.965 3.104-6.776 7.2-6.776 4.307 0 6.5 3.315 6.5 7.102v.276l-5.476.033zm7.776 3.9h2.617V14.78h-2.715v-1.95h4.6s.08 2.553.114 2.845c.877-2.08 2.503-3.07 4.34-3.07.243 0 1.933.064 1.933.064l-.08 2.274c-.05-.033-1.43-.05-1.594-.05-3.2 0-4.16 1.886-4.16 4.844v4.193h2.86v1.984h-7.914v-2zm12.912-2.275h2.097c-.017.065-.017.13-.017.21 0 1.513 1.414 2.44 3.43 2.44 1.87 0 2.974-.7 2.974-1.903 0-1.35-1.17-1.625-2.893-1.852-2.34-.31-5.624-1.024-5.624-4.145 0-2.16 1.9-3.786 4.826-3.786 1.268 0 2.455.276 3.3.682.016.016.08-.455.08-.455h2.05v4.162h-2.05s-.048-.91-.048-1.09c-.764-.926-1.82-1.397-3.234-1.397-1.593 0-2.633.683-2.633 1.788 0 1.446 1.983 1.61 4.274 1.983 2.407.406 4.438 1.284 4.438 3.933 0 2.388-2.015 4.013-5.184 4.013-1.495 0-2.65-.293-3.624-.96l-.033.65h-2.13V21.64zm12.57 2.275h2.47V9.142h-2.437V7.175h4.877s-.016 6.452-.016 6.94c1.43-1.024 2.877-1.51 4.454-1.51 2.584 0 3.998 1.478 3.998 4.273l-.016 7.037 2.34.033v1.966h-6.403v-1.966h1.657v-6.615c0-1.495-.422-2.828-2.112-2.828-1.17 0-2.633.536-3.917 1.48v7.946h2.357v1.984h-7.248v-2zm20.535-16.74c.83 0 1.496.618 1.496 1.414 0 .796-.668 1.413-1.497 1.413-.828 0-1.48-.617-1.48-1.414 0-.797.652-1.415 1.48-1.415zm-3.38 16.724h2.194v-9.12h-2.194v-1.95h4.615v11.1h2.21v1.984h-6.825V23.9zm21.396-4.568c0-2.65-1.626-4.697-4.324-4.697-2.438 0-4.307 1.64-4.356 3.82-.016.032-.016 1.917-.016 1.95.13 2.178 1.852 3.72 4.258 3.72 2.828 0 4.437-1.965 4.437-4.793zM465.8 29.88h2.487v-15.1h-2.29v-1.95h4.744s.066 1.724.083 1.724c1.202-1.284 2.795-1.95 4.55-1.95 4.047 0 6.485 3.04 6.485 6.81 0 3.72-2.568 6.81-6.517 6.81-1.755 0-3.428-.602-4.648-1.724 0 .374.017 5.38.017 5.38l2.648.016v2H465.8V29.88z" fill="#B9C504"/></g></symbol></svg>