<svg xmlns="http://www.w3.org/2000/svg"><symbol id="icon-facebook" viewBox="-462.2 266.5 11.6 23.3"><path d="M-459.3 289.7V279h-2.9v-3.9h2.9v-3.4c0-1.5.5-2.8 1.5-3.8s2.4-1.5 4.3-1.5c.5 0 1 0 1.5.1.5 0 .8.1 1.1.1l.4.1-.2 3.7h-2.5c-.7 0-1.1.2-1.4.5s-.3.8-.3 1.5v2.9h4.4l-.3 3.9h-4.1v10.7l-4.4-.2z"/></symbol><symbol id="icon-google" viewBox="-468 267.9 23.3 20.1"><path d="M-444.7 271.8v1h-3.9v3.9h-1v-3.9h-3.9v-1h3.9v-3.9h1v3.9h3.9zm-13.2 7.9c.8.6 1.3 1.2 1.7 1.8.3.6.5 1.3.5 2.2 0 1.2-.5 2.2-1.6 3.1-1.1.9-2.5 1.3-4.4 1.3-1.7 0-3.2-.3-4.4-1s-1.8-1.5-1.8-2.6.6-2.2 1.8-3.1 2.6-1.3 4.2-1.3h1c-.5-.5-.8-1.1-.8-1.7 0-.4.1-.8.3-1.2h-.6c-1.4 0-2.5-.4-3.3-1.3s-1.3-1.9-1.3-3.2c0-1.2.5-2.2 1.6-3.1s2.3-1.3 3.7-1.3h6.1l-1.4 1h-1.9c.6.2 1.1.7 1.5 1.3.3.6.5 1.4.5 2.2 0 1.2-.6 2.3-1.7 3.2-.5.4-.8.7-.9.9-.1.2-.2.5-.2.8 0 .3.2.6.5 1 .2.5.5.8.9 1zm-3.3-3c.8 0 1.4-.3 1.9-1s.6-1.6.5-2.6c-.1-1-.5-1.9-1.2-2.6s-1.4-1.1-2.2-1.1c-.8 0-1.4.3-1.9 1-.4.7-.6 1.6-.5 2.6.1 1 .5 1.9 1.2 2.7.7.5 1.5.9 2.2 1zm-.6 10.4c2.9 0 4.4-1.1 4.4-3.2 0-.1 0-.3-.1-.6 0-.1-.1-.3-.1-.4-.1-.1-.1-.2-.2-.4s-.2-.2-.3-.3c-.1-.1-.2-.2-.4-.3-.2-.1-.3-.2-.4-.3-.1-.1-.3-.2-.5-.4s-.4-.3-.5-.3c-.4-.1-1-.2-1.5-.2-1.2 0-2.2.3-3.1.9s-1.3 1.4-1.3 2.2c0 .9.4 1.7 1.1 2.3s1.8 1 2.9 1z"/></symbol><symbol id="icon-linkedin" viewBox="0 0 12 13"><title>icon-linkedin</title><path d="M.16 4.513h2.4v7.707H.16V4.513zM1.36.68c.767 0 1.39.624 1.39 1.39 0 .766-.623 1.39-1.39 1.39-.77 0-1.39-.624-1.39-1.39 0-.766.62-1.39 1.39-1.39zM4.063 4.513H6.36v1.053h.033C6.713 4.96 7.495 4.32 8.66 4.32c2.426 0 2.875 1.597 2.875 3.672v4.228H9.14V8.473c0-.895-.018-2.045-1.246-2.045-1.247 0-1.437.974-1.437 1.978v3.814H4.063V4.513"/></symbol><symbol id="icon-mail" viewBox="-468 269.4 23.3 17.5"><path d="M-444.7 270.8l-11.6 8.7-11.6-8.7c0-.4.1-.7.4-1 .3-.3.6-.4 1-.4h20.4c.4 0 .7.1 1 .4s.4.6.4 1zm-23.3 2.6l11.6 8.7 11.6-8.7v11.9c0 .4-.1.7-.4 1-.3.3-.6.4-1 .4h-20.4c-.4 0-.7-.1-1-.4-.3-.3-.4-.6-.4-1v-11.9z"/></symbol><symbol id="icon-search" viewBox="0 0 15 14"><title>icon-search</title><path d="M6.48 10.94c2.615 0 4.734-2.12 4.734-4.734 0-2.615-2.12-4.734-4.733-4.734-2.613 0-4.732 2.12-4.732 4.734s2.12 4.733 4.733 4.733zm3.113-1.057l3.85 3.344-3.85-3.344z" stroke="inherit" stroke-width="2.145" fill="none"/></symbol><symbol id="icon-twitter" viewBox="0 0 12 11"><title>icon-twitter</title><path d="M11.724 1.935c-.417.185-.865.31-1.335.366.48-.287.848-.742 1.02-1.285-.447.266-.945.46-1.475.564-.424-.453-1.03-.735-1.698-.735-1.284 0-2.325 1.04-2.325 2.325 0 .183.02.36.06.53-1.933-.097-3.646-1.022-4.794-2.43-.2.344-.314.743-.314 1.17 0 .806.41 1.518 1.034 1.935-.38-.012-.74-.117-1.053-.29v.028c0 1.127.802 2.067 1.865 2.28-.195.054-.4.083-.613.083-.15 0-.295-.015-.437-.043.296.925 1.154 1.597 2.172 1.616-.795.622-1.798.994-2.888.994-.188 0-.373-.01-.555-.032 1.028.66 2.25 1.044 3.565 1.044 4.277 0 6.616-3.543 6.616-6.616 0-.1-.002-.2-.005-.302.453-.327.847-.737 1.16-1.203"/></symbol><symbol id="icon-youtube" viewBox="-213.3 518.7 59.6 42.2"><path d="M-183.5 518.7c11 0 18 .3 21 .8 3.7.7 6.1 2.2 7.2 4.4 1 1.9 1.5 5.9 1.6 11.9v4c0 7.2-.3 11.9-.8 13.9-.7 2.8-2.4 4.6-5 5.6-2.7 1-8.3 1.5-17 1.6h-7c-11 0-18-.3-21-.8-3.7-.7-6.1-2.2-7.2-4.4-1-1.9-1.5-5.9-1.6-11.9v-4c0-7.2.3-11.9.8-13.9.7-2.8 2.4-4.6 5-5.6 2.7-1 8.3-1.5 17-1.6h7zM-191 551l18.6-11.2-18.6-11.2V551z"/></symbol><symbol id="menu" viewBox="0 0 30 28"><title>Slice 1</title><path d="M0 3h30M0 13.845h30M0 24.69h30" stroke="#473E3A" stroke-width="6" fill="#000" fill-rule="evenodd"/></symbol></svg>