<svg xmlns="http://www.w3.org/2000/svg" viewBox="0 0 22 22">
  <path fill="#535353" fill-rule="evenodd" stroke="#535353" stroke-width=".5" d="M19.75 8.27l-3.9 3.86c-.16.17-.43.16-.6 0-.15-.16-.15-.42 0-.6l3.9-3.85c.66-.65 1.02-1.5 1.02-2.42 0-.92-.36-1.78-1-2.43-1.35-1.33-3.52-1.33-4.86 0l-4 3.97c-.64.65-1 1.5-1 2.43 0 .9.36 1.77 1 2.42.3.3.76.56 1.24.72.22.08.33.3.26.53-.06.18-.22.28-.4.28-.04 0-.1 0-.13-.02-.6-.2-1.17-.54-1.55-.92-.8-.8-1.25-1.88-1.25-3 0-1.15.44-2.22 1.25-3.02l4-3.98C15.38.6 18.1.6 19.75 2.24c.8.8 1.25 1.88 1.25 3.02 0 1.13-.44 2.2-1.25 3zM7.67 19.17l4.38-4.37c1.34-1.33 1.34-3.5 0-4.82-.35-.35-.75-.6-1.2-.78-.22-.1-.33-.33-.25-.54.08-.2.32-.32.53-.24.57.2 1.08.54 1.5.97 1.67 1.64 1.67 4.34 0 6l-4.37 4.36c-.83.83-1.92 1.24-3 1.24-1.1 0-2.2-.4-3.02-1.24-1.65-1.66-1.65-4.35 0-6l4.3-4.28c.16-.16.42-.16.58 0 .17.17.17.43 0 .6l-4.3 4.27c-1.32 1.33-1.32 3.5 0 4.82 1.34 1.33 3.5 1.33 4.85 0z"/>
</svg>
