<svg width="314px" height="228px" viewBox="0 0 314 228" version="1.1" xmlns="http://www.w3.org/2000/svg" xmlns:xlink="http://www.w3.org/1999/xlink">
    <g id="Page-1" stroke="none" stroke-width="1" fill="none" fill-rule="evenodd">
        <path d="M8.315,227.7 L11.045,227.7 L11.045,216.858 L20.093,216.858 C22.55,216.858 24.383,215.025 24.383,212.529 L24.383,206.055 C24.383,203.52 22.55,201.726 20.093,201.726 L8.315,201.726 L8.315,227.7 Z M11.045,204.261 L19.391,204.261 C20.834,204.261 21.653,205.119 21.653,206.523 L21.653,212.061 C21.653,213.465 20.834,214.323 19.391,214.323 L11.045,214.323 L11.045,204.261 Z M40.0408275,201.726 L37.4668275,201.726 L28.4968275,227.7 L31.2658275,227.7 L33.5278275,220.992 L43.9018275,220.992 L46.2418275,227.7 L49.0108275,227.7 L40.0408275,201.726 Z M38.7538275,205.119 L43.0828275,218.496 L34.3858275,218.496 L38.7538275,205.119 Z M63.1866551,217.326 L68.6076551,217.326 L68.6076551,222.903 C68.6076551,224.307 67.7496551,225.165 66.3456551,225.165 L59.8716551,225.165 C58.4676551,225.165 57.6096551,224.307 57.6096551,222.903 L57.6096551,206.523 C57.6096551,205.119 58.4676551,204.261 59.8716551,204.261 L66.3456551,204.261 C67.7496551,204.261 68.6076551,205.119 68.6076551,206.523 L68.6076551,209.214 L71.3376551,208.785 L71.3376551,206.055 C71.3376551,203.52 69.5046551,201.726 67.0086551,201.726 L59.1696551,201.726 C56.7126551,201.726 54.8796551,203.52 54.8796551,206.055 L54.8796551,223.371 C54.8796551,225.867 56.7126551,227.7 59.1696551,227.7 L67.0086551,227.7 C69.5046551,227.7 71.3376551,225.867 71.3376551,223.371 L71.3376551,214.83 L63.1866551,214.83 L63.1866551,217.326 Z M78.7274826,227.7 L93.6254826,227.7 L93.6254826,225.165 L81.4574826,225.165 L81.4574826,215.532 L92.4554826,215.532 L92.4554826,212.997 L81.4574826,212.997 L81.4574826,204.261 L93.5474826,204.261 L93.5474826,201.726 L78.7274826,201.726 L78.7274826,227.7 Z M128.139138,201.726 L125.487138,201.726 L125.487138,222.786 L113.319138,201.726 L110.667138,201.726 L110.667138,227.7 L113.319138,227.7 L113.319138,206.679 L125.487138,227.7 L128.139138,227.7 L128.139138,201.726 Z M152.766965,206.055 C152.766965,203.52 150.933965,201.726 148.437965,201.726 L140.208965,201.726 C137.751965,201.726 135.918965,203.52 135.918965,206.055 L135.918965,223.371 C135.918965,225.867 137.751965,227.7 140.208965,227.7 L148.437965,227.7 C150.933965,227.7 152.766965,225.867 152.766965,223.371 L152.766965,206.055 Z M150.036965,206.523 L150.036965,222.903 C150.036965,224.307 149.178965,225.165 147.774965,225.165 L140.910965,225.165 C139.506965,225.165 138.648965,224.307 138.648965,222.903 L138.648965,206.523 C138.648965,205.119 139.506965,204.261 140.910965,204.261 L147.774965,204.261 C149.178965,204.261 150.036965,205.119 150.036965,206.523 L150.036965,206.523 Z M158.206793,204.261 L165.967793,204.261 L165.967793,227.7 L168.697793,227.7 L168.697793,204.261 L176.419793,204.261 L176.419793,201.726 L158.206793,201.726 L158.206793,204.261 Z M194.631448,227.7 L194.631448,215.532 L205.785448,215.532 L205.785448,212.997 L194.631448,212.997 L194.631448,204.261 L206.877448,204.261 L206.877448,201.726 L191.901448,201.726 L191.901448,227.7 L194.631448,227.7 Z M229.360275,206.055 C229.360275,203.52 227.527275,201.726 225.031275,201.726 L216.802275,201.726 C214.345275,201.726 212.512275,203.52 212.512275,206.055 L212.512275,223.371 C212.512275,225.867 214.345275,227.7 216.802275,227.7 L225.031275,227.7 C227.527275,227.7 229.360275,225.867 229.360275,223.371 L229.360275,206.055 Z M226.630275,206.523 L226.630275,222.903 C226.630275,224.307 225.772275,225.165 224.368275,225.165 L217.504275,225.165 C216.100275,225.165 215.242275,224.307 215.242275,222.903 L215.242275,206.523 C215.242275,205.119 216.100275,204.261 217.504275,204.261 L224.368275,204.261 C225.772275,204.261 226.630275,205.119 226.630275,206.523 L226.630275,206.523 Z M250.517103,201.726 L250.517103,222.903 C250.517103,224.307 249.659103,225.165 248.255103,225.165 L241.937103,225.165 C240.533103,225.165 239.675103,224.307 239.675103,222.903 L239.675103,201.726 L236.945103,201.726 L236.945103,223.371 C236.945103,225.867 238.778103,227.7 241.235103,227.7 L248.918103,227.7 C251.414103,227.7 253.247103,225.867 253.247103,223.371 L253.247103,201.726 L250.517103,201.726 Z M278.49893,201.726 L275.84693,201.726 L275.84693,222.786 L263.67893,201.726 L261.02693,201.726 L261.02693,227.7 L263.67893,227.7 L263.67893,206.679 L275.84693,227.7 L278.49893,227.7 L278.49893,201.726 Z M286.473758,227.7 L298.173758,227.7 C300.669758,227.7 302.502758,225.867 302.502758,223.371 L302.502758,206.055 C302.502758,203.52 300.669758,201.726 298.173758,201.726 L286.473758,201.726 L286.473758,227.7 Z M289.203758,204.261 L297.510758,204.261 C298.914758,204.261 299.772758,205.119 299.772758,206.523 L299.772758,222.903 C299.772758,224.307 298.914758,225.165 297.510758,225.165 L289.203758,225.165 L289.203758,204.261 Z" id="PAGE-NOT-FOUND" fill="#D7DE1F"></path>
        <path d="M2.4,97.2 L62.4,97.2 L62.4,134 L76,134 L76,97.2 L97.8,97.2 L98.8,85.4 L76,85.4 L76,0.8 L62.4,0.8 L2.4,85.4 L2.4,97.2 Z M17.2,85.4 L62.4,21.2 L62.4,85.4 L17.2,85.4 Z M195.2,22.6 C195.2,9.8 186,0.8 173.4,0.8 L139.4,0.8 C127,0.8 117.8,9.8 117.8,22.6 L117.8,112.2 C117.8,124.8 127,134 139.4,134 L173.4,134 C186,134 195.2,124.8 195.2,112.2 L195.2,22.6 Z M181.6,24.8 L181.6,110 C181.6,117.2 177.4,121.6 170.2,121.6 L143,121.6 C135.8,121.6 131.4,117.2 131.4,110 L131.4,24.8 C131.4,17.6 135.8,13.2 143,13.2 L170.2,13.2 C177.4,13.2 181.6,17.6 181.6,24.8 L181.6,24.8 Z M214.6,97.2 L274.6,97.2 L274.6,134 L288.2,134 L288.2,97.2 L310,97.2 L311,85.4 L288.2,85.4 L288.2,0.8 L274.6,0.8 L214.6,85.4 L214.6,97.2 Z M229.4,85.4 L274.6,21.2 L274.6,85.4 L229.4,85.4 Z" id="404" fill="#D7DE1F"></path>
        <rect id="Rectangle-258" fill="#8B8B93" x="0" y="167" width="312" height="10"></rect>
    </g>
</svg>
