<svg xmlns="http://www.w3.org/2000/svg" viewBox="0 0 834 350">

	<defs>

		<style type="text/css">

			@media (max-width: 650px) {
				[id="desktop-points"] {
					display: none;
				}
			}

			@media (min-width: 651px) {
				[id="mobile-points"] {
					display: none;
				}
			}

		</style>

		<script type="text/javascript">

			var svg, originalViewBox, mq, updateViewBox;

			svg = document.querySelector('svg');

			/* Store the original value in a variable */
			originalViewBox = svg.getAttribute('viewBox');

			/* Define our media query and media query object */
			mq= matchMedia("(max-width: 650px)");

			/* Define the handler */
			updateViewBox = function(){
				if (mq.matches) {
					/* Change the viewBox dimensions to show the hexagon */
					svg.setAttribute('viewBox', "0 0 315 675");
				} else {
					svg.setAttribute('viewBox', originalViewBox);
				}
			}

			/* Fire on document load */
			// WebKit/Blink browsers
			svg.onload = updateViewBox;

			// Firefox	IE
			svg.addEventListener('SVGLoad', updateViewBox, true);

			/* Fire if the media condition changes */
			mq.addListener(updateViewBox);

		</script>

	</defs>

	<g fill="none" fill-rule="evenodd" stroke="none" stroke-width="1">
		<g id="desktop-points" transform="translate(155)">
			<path id="Shape" stroke="#D6E100" stroke-width="4" d="M234 29.7L2 176.7M275.4 120l-274 57M284.7 216L.7 177M250 308.8L0 176.8"/>
			<path id="Shape" fill="#FFF" fill-rule="nonzero" d="M296 17h1.8l-4.6-11.2h-1.5L287 17h1.8l1-2.8h5l1 2.8zm-5.4-4.3l1.8-4.8 1.9 4.8h-3.7zm11.2 4.5c1.2 0 2-.5 2.5-1.3V17h1.6V5.8h-1.6v4.9c-.5-.8-1.3-1.3-2.5-1.3-2 0-3.6 1.4-3.6 3.9s1.6 4 3.6 4zm.3-1.5c-1.4 0-2.3-1-2.3-2.4s1-2.4 2.3-2.4c1.4 0 2.3 1 2.3 2.4s-1 2.4-2.3 2.4zm10.3-6l-1.9 5.4-1.8-5.5h-1.9l3 7.4h1.5l3-7.4h-1.9zm6-.3c-2.3 0-4 1.6-4 3.9s1.7 4 4 4c2.4 0 4-1.7 4-4s-1.6-4-4-4zm0 1.5c1.4 0 2.4 1 2.4 2.4 0 1.5-1 2.4-2.4 2.4s-2.3-1-2.3-2.4c0-1.5 1-2.4 2.3-2.4zm9.1 6.3c1 0 1.8-.2 2.5-.7l-.7-1.3c-.5.3-1.1.5-1.8.5-1.5 0-2.4-1-2.4-2.4s1-2.4 2.4-2.4c.7 0 1.3.2 1.8.5l.7-1.3c-.7-.5-1.5-.7-2.5-.7-2.4 0-4 1.6-4 3.9 0 2.4 1.6 4 4 4zm6.5 0c1.2 0 2-.5 2.5-1.3V17h1.6V9.6h-1.6v1.1c-.5-.8-1.3-1.3-2.5-1.3-2 0-3.6 1.4-3.6 3.9s1.6 4 3.6 4zm.3-1.5c-1.4 0-2.3-1-2.3-2.4s1-2.4 2.3-2.4c1.4 0 2.3 1 2.3 2.4s-1 2.4-2.3 2.4zm9.3-4.8V9.6h-1.5v-3h-1.5v3h-1.3V11h1.3v4.2c0 1.2.7 2 2 2h.7v-1.5h-.4c-.5 0-.8-.3-.8-.8V11h1.5zm3.1-5h-1.9v2h2v-2zM345 17h1.6V9.6H345V17zm7.6-7.6c-1.2 0-2 .5-2.4 1.3v-1h-1.6V17h1.5v-3.5c0-1.9.8-2.6 2-2.6 1 0 1.7.6 1.7 1.8V17h1.6v-4.5c0-2.3-1.2-3.1-2.8-3.1zm8.3 11c2 0 3.4-.5 3.5-3.4V9.6h-1.6v1.1c-.5-.8-1.3-1.3-2.5-1.3-2 0-3.6 1.4-3.6 3.9s1.7 4 3.6 4c1.2 0 2-.6 2.5-1.4v.9c0 1.6-.5 2.1-1.9 2.1l-2.5-.3-.3 1.5c.9.2 2 .3 2.8.3zm-.3-4.7c-1.3 0-2.2-1-2.2-2.4s.9-2.4 2.3-2.4c1.3 0 2.2 1 2.2 2.4s-.9 2.4-2.3 2.4zm13.8-8.6h.3V5.6h-.3c-1.9 0-2.9 1.2-2.9 3v1h-1.2V11h1.2V17h1.6v-6h1.4V9.5h-1.4v-1c0-1.1.6-1.5 1.3-1.5zm4.5 2.3c-2.3 0-4 1.6-4 3.9s1.7 4 4 4c2.4 0 4-1.7 4-4s-1.6-4-4-4zm0 1.5c1.4 0 2.4 1 2.4 2.4 0 1.5-1 2.4-2.4 2.4s-2.3-1-2.3-2.4c0-1.5 1-2.4 2.3-2.4zm9.7-1.5h-.1c-1.3 0-2.1.7-2.5 1.8V9.6h-1.6V17h1.6v-3.3c0-1.7.8-2.5 2.3-2.5h.3V9.4zm8.9 7.8c1.2 0 2-.5 2.5-1.3V17h1.6V9.6H400v1.1c-.5-.8-1.3-1.3-2.5-1.3-2 0-3.6 1.4-3.6 3.9s1.6 4 3.6 4zm.3-1.5c-1.4 0-2.3-1-2.3-2.4s1-2.4 2.3-2.4c1.4 0 2.3 1 2.3 2.4s-1 2.4-2.3 2.4zm14 4.7c2 0 3.5-.5 3.5-3.4V9.6h-1.5v1.1c-.5-.8-1.3-1.3-2.5-1.3-2 0-3.6 1.4-3.6 3.9s1.6 4 3.6 4c1.2 0 2-.6 2.4-1.4v.9c0 1.6-.4 2.1-1.8 2.1l-2.6-.3-.3 1.5 2.9.3zm-.2-4.7c-1.4 0-2.3-1-2.3-2.4s1-2.4 2.3-2.4c1.4 0 2.3 1 2.3 2.4s-1 2.4-2.3 2.4zm7.3-9.9h-1.5V17h1.5V5.8zm5.6 3.6c-2.3 0-4 1.6-4 3.9s1.7 4 4 4 4-1.7 4-4-1.7-4-4-4zm0 1.5c1.4 0 2.4 1 2.4 2.4 0 1.5-1 2.4-2.4 2.4s-2.4-1-2.4-2.4c0-1.5 1-2.4 2.4-2.4zm9.7 6.3c1.9 0 3.6-1.4 3.6-3.9s-1.7-4-3.6-4c-1.3 0-2 .6-2.5 1.4V5.8H430V17h1.5v-1c.5.7 1.3 1.2 2.6 1.2zm-.4-1.5c-1.4 0-2.3-1-2.3-2.4s1-2.4 2.3-2.4c1.4 0 2.3 1 2.3 2.4s-1 2.4-2.3 2.4zm8.5 1.5c1.2 0 2-.5 2.5-1.3V17h1.6V9.6h-1.6v1.1c-.5-.8-1.3-1.3-2.5-1.3-2 0-3.6 1.4-3.6 3.9s1.7 4 3.6 4zm.3-1.5c-1.3 0-2.2-1-2.2-2.4s.9-2.4 2.3-2.4c1.3 0 2.2 1 2.2 2.4s-.9 2.4-2.3 2.4zm7.4-9.9h-1.6V17h1.6V5.8zm10.6 3.6c-1.1 0-1.9.5-2.4 1.3v-1h-1.6V17h1.6v-3.5c0-1.9.8-2.6 2-2.6 1 0 1.6.6 1.6 1.8V17h1.6v-4.5c0-2.3-1.2-3.1-2.8-3.1zm8.2 0c-2.3 0-4 1.6-4 3.9s1.7 4 4 4 4-1.7 4-4-1.7-4-4-4zm0 1.5c1.4 0 2.4 1 2.4 2.4 0 1.5-1 2.4-2.4 2.4s-2.4-1-2.4-2.4c0-1.5 1-2.4 2.4-2.4zm9.7-1.5h-.1c-1.3 0-2.1.7-2.5 1.8V9.6h-1.6V17h1.6v-3.3c0-1.7.8-2.5 2.3-2.5h.3V9.4zm1.1 7.6h1.6v-3.8c0-1.6.7-2.3 1.6-2.3 1 0 1.5.6 1.5 1.6V17h1.6v-3.8c0-1.6.7-2.3 1.6-2.3 1 0 1.5.6 1.5 1.6V17h1.5v-4.6c0-2.2-1-3-2.5-3-1 0-1.9.4-2.3 1.5-.5-1-1.2-1.5-2.3-1.5-1 0-1.8.4-2.2 1.4V9.6h-1.6V17zm21-7.6c-2.3 0-4 1.6-4 3.9s1.7 4 4 4 4-1.7 4-4-1.7-4-4-4zm0 1.5c1.4 0 2.4 1 2.4 2.4 0 1.5-1 2.4-2.4 2.4s-2.4-1-2.4-2.4c0-1.5 1-2.4 2.4-2.4zm8.6-3.8h.3V5.6h-.4c-1.8 0-2.8 1.2-2.8 3v1h-1.2V11h1.2V17h1.6v-6h1.4V9.5H508v-1c0-1.1.6-1.5 1.3-1.5zm10.2 10.1c2 0 3.6-1.4 3.6-3.9s-1.7-4-3.6-4c-1.2 0-2 .6-2.5 1.4V5.8h-1.6V17h1.6v-1c.5.7 1.3 1.2 2.5 1.2zm-.4-1.5c-1.3 0-2.2-1-2.2-2.4s.9-2.4 2.3-2.4c1.3 0 2.2 1 2.2 2.4s-.9 2.4-2.3 2.4zm8.7-6.3c-2.3 0-3.8 1.7-3.8 4s1.6 3.8 3.9 3.8a4 4 0 003.3-1.7l-1-1c-.4.4-1.1 1.2-2.3 1.2-1.3 0-2.2-.8-2.3-2.1h5.8v-.3c0-2.4-1.3-4-3.6-4zm0 1.4c1 0 1.8.6 1.9 1.6h-4c.2-1 1-1.6 2-1.6zm8.3.1V9.6h-1.5v-3H533v3h-1.3V11h1.3v4.2c0 1.2.7 2 2 2h.7v-1.5h-.4c-.5 0-.8-.3-.8-.8V11h1.5zm5 0V9.6h-1.5v-3h-1.6v3h-1.3V11h1.3v4.2c0 1.2.7 2 2 2h.7v-1.5h-.4c-.5 0-.7-.3-.7-.8V11h1.5zm4.2-1.5c-2.3 0-3.7 1.7-3.7 4s1.5 3.8 3.8 3.8a4 4 0 003.4-1.7l-1.1-1c-.4.4-1.1 1.2-2.3 1.2-1.3 0-2.2-.8-2.3-2.1h5.8v-.3c0-2.4-1.3-4-3.6-4zm0 1.4c1 0 1.8.6 1.9 1.6h-4c.2-1 1-1.6 2-1.6zm9.2-1.4h-.1c-1.3 0-2.1.7-2.5 1.8V9.6h-1.6V17h1.6v-3.3c0-1.7.8-2.5 2.3-2.5h.3V9.4zm2.1 5.7h-1.9V17h.9l-.9 2.3h.8l1.1-2.3v-1.9zM563 17h1.6v-3.8c0-1.6.7-2.3 1.6-2.3 1 0 1.5.6 1.5 1.6V17h1.6v-3.8c0-1.6.7-2.3 1.6-2.3 1 0 1.5.6 1.5 1.6V17h1.6v-4.6c0-2.2-1.2-3-2.6-3-.9 0-1.8.4-2.3 1.5-.4-1-1.2-1.5-2.3-1.5-.9 0-1.7.4-2.2 1.4V9.6H563V17zm16.4-7.6c-2.3 0-4 1.6-4 3.9s1.7 4 4 4 4-1.7 4-4-1.7-4-4-4zm0 1.5c1.4 0 2.4 1 2.4 2.4 0 1.5-1 2.4-2.4 2.4s-2.4-1-2.4-2.4c0-1.5 1-2.4 2.4-2.4zm9.6-1.5c-1.3 0-2.2.7-2.5 1.8V9.6h-1.6V17h1.5v-3.3c0-1.7.9-2.5 2.4-2.5h.2V9.4zm4 0c-2.3 0-3.7 1.7-3.7 4s1.5 3.8 3.8 3.8a4 4 0 003.4-1.7l-1.1-1c-.4.4-1.1 1.2-2.3 1.2-1.3 0-2.2-.8-2.3-2.1h5.8v-.3c0-2.4-1.3-4-3.6-4zm0 1.4c1 0 1.8.6 1.9 1.6h-4c.2-1 1-1.6 2-1.6zM292 33.4c-1.3 0-2.2.7-2.5 1.8v-1.6H288V41h1.5v-3.3c0-1.7.8-2.5 2.4-2.5h.2v-1.8zm4 0c-2.3 0-3.7 1.7-3.7 4s1.5 3.8 3.8 3.8a4 4 0 003.4-1.7l-1.1-1c-.4.4-1.1 1.2-2.3 1.2-1.3 0-2.2-.8-2.3-2.1h5.8v-.3c0-2.4-1.3-4-3.6-4zm0 1.4c1 0 1.8.6 1.9 1.6h-4c.2-1 1-1.6 2-1.6zm7.3 6.4c1.7 0 2.9-.7 2.9-2.2 0-1-.5-1.6-1.5-2l-1.4-.7c-.6-.3-.8-.6-.8-1 0-.3.2-.5.9-.5a5 5 0 012 .5l.6-1.4c-.8-.3-1.7-.5-2.6-.5-1.6 0-2.6.7-2.6 2 0 1 .4 1.7 1.6 2.2l1.3.6c.6.4.8.6.8.9 0 .4-.4.7-1.2.7-.8 0-1.6-.3-2.3-.7l-.7 1.4c.8.5 2 .7 3 .7zm4.2 3h1.5v-4.3c.5.8 1.3 1.3 2.5 1.3 2 0 3.6-1.4 3.6-3.9s-1.6-4-3.6-4c-1.2 0-2 .6-2.4 1.4v-1h-1.6v10.5zm3.7-4.5c-1.4 0-2.3-1-2.3-2.4s1-2.4 2.3-2.4c1.4 0 2.3 1 2.3 2.4s-1 2.4-2.3 2.4zm9-6.3c-2.4 0-4 1.6-4 3.9s1.6 4 4 4c2.3 0 4-1.7 4-4s-1.7-4-4-4zm0 1.5c1.4 0 2.3 1 2.3 2.4 0 1.5-1 2.4-2.3 2.4-1.4 0-2.4-1-2.4-2.4 0-1.5 1-2.4 2.4-2.4zm9.5-1.5c-1.2 0-2 .5-2.4 1.3v-1h-1.6V41h1.5v-3.5c0-1.9.8-2.6 2-2.6 1 0 1.7.6 1.7 1.8V41h1.6v-4.5c0-2.3-1.2-3.1-2.8-3.1zm6.9 7.8c1.7 0 2.9-.7 2.9-2.2 0-1-.5-1.6-1.5-2l-1.4-.7c-.6-.3-.8-.6-.8-1 0-.3.2-.5.9-.5a5 5 0 012 .5l.6-1.4c-.8-.3-1.7-.5-2.6-.5-1.6 0-2.6.7-2.6 2 0 1 .4 1.7 1.6 2.2l1.3.6c.6.4.8.6.8.9 0 .4-.4.7-1.2.7-.8 0-1.6-.3-2.3-.7l-.7 1.4c.8.5 2 .7 3 .7zm6-11.2h-2v1.9h2v-2zm-1.8 11h1.6v-7.4h-1.6V41zm8.3-7.4l-1.9 5.5-1.8-5.5h-1.9l3 7.4h1.4l3-7.4h-1.8zm5.7-.2c-2.3 0-3.7 1.7-3.7 4s1.5 3.8 3.8 3.8a4 4 0 003.4-1.7l-1.1-1c-.4.4-1 1.2-2.3 1.2-1.3 0-2.2-.8-2.2-2.1h5.7v-.3c0-2.4-1.3-4-3.6-4zm0 1.4c1 0 1.8.6 1.9 1.6h-4c.2-1 1-1.6 2-1.6zm6.4 4.3h-2V41h.9l-.9 2.3h.8l1.2-2.3v-1.9zm9.6 2.1c1.2 0 2-.5 2.5-1.3V41h1.6v-7.4h-1.6v1.1c-.5-.8-1.3-1.3-2.5-1.3-2 0-3.6 1.4-3.6 3.9s1.6 4 3.6 4zm.3-1.5c-1.4 0-2.3-1-2.3-2.4s1-2.4 2.3-2.4c1.4 0 2.3 1 2.3 2.4s-1 2.4-2.3 2.4zm9.7-6.3c-1.1 0-2 .5-2.4 1.3v-1h-1.6V41h1.6v-3.5c0-1.9.8-2.6 2-2.6 1 0 1.6.6 1.6 1.8V41h1.6v-4.5c0-2.3-1.2-3.1-2.8-3.1zm7.8 7.8c1.2 0 2-.5 2.5-1.3V41h1.6V29.8h-1.6v4.9c-.5-.8-1.3-1.3-2.5-1.3-2 0-3.6 1.4-3.6 3.9s1.6 4 3.6 4zm.3-1.5c-1.4 0-2.3-1-2.3-2.4s1-2.4 2.3-2.4c1.4 0 2.3 1 2.3 2.4s-1 2.4-2.3 2.4zm10.4 1.3h1.6v-3.8c0-1.6.7-2.3 1.6-2.3 1 0 1.5.6 1.5 1.6V41h1.6v-3.8c0-1.6.7-2.3 1.6-2.3 1 0 1.5.6 1.5 1.6V41h1.5v-4.6c0-2.2-1.1-3-2.5-3-1 0-1.9.4-2.3 1.5-.5-1-1.2-1.5-2.3-1.5-1 0-1.8.4-2.2 1.4v-1.2h-1.6V41zm16.3-7.6c-2.3 0-4 1.6-4 3.9s1.7 4 4 4c2.4 0 4.1-1.7 4.1-4s-1.7-4-4-4zm0 1.5c1.5 0 2.4 1 2.4 2.4 0 1.5-1 2.4-2.4 2.4s-2.3-1-2.3-2.4c0-1.5 1-2.4 2.3-2.4zm9.7-1.5h-.1c-1.3 0-2.1.7-2.5 1.8v-1.6h-1.6V41h1.6v-3.3c0-1.7.8-2.5 2.4-2.5h.2v-1.8zm4 0c-2.4 0-3.8 1.7-3.8 4s1.5 3.8 3.9 3.8a4 4 0 003.3-1.7l-1-1c-.4.4-1.1 1.2-2.3 1.2-1.3 0-2.2-.8-2.3-2.1h5.7v-.3c0-2.4-1.2-4-3.5-4zm0 1.4c1 0 1.8.6 1.9 1.6h-4c.2-1 1-1.6 2-1.6zm13.2-1.4c-2.3 0-4 1.6-4 3.9s1.7 4 4 4 4-1.7 4-4-1.7-4-4-4zm0 1.5c1.4 0 2.4 1 2.4 2.4 0 1.5-1 2.4-2.4 2.4s-2.4-1-2.4-2.4c0-1.5 1-2.4 2.4-2.4zm5.5 9.3h1.6v-4.3c.4.8 1.3 1.3 2.5 1.3 2 0 3.6-1.4 3.6-3.9s-1.7-4-3.6-4c-1.2 0-2 .6-2.5 1.4v-1H448v10.5zm3.7-4.5c-1.3 0-2.2-1-2.2-2.4s.9-2.4 2.2-2.4c1.4 0 2.3 1 2.3 2.4s-.9 2.4-2.3 2.4zm8.7-6.3c-2.3 0-3.8 1.7-3.8 4s1.6 3.8 3.9 3.8a4 4 0 003.3-1.7l-1-1c-.4.4-1.1 1.2-2.3 1.2-1.3 0-2.2-.8-2.3-2.1h5.8v-.3c0-2.4-1.3-4-3.6-4zm0 1.4c1 0 1.8.6 1.9 1.6h-4c.2-1 1-1.6 2-1.6zm9-1.4c-1.1 0-2 .5-2.4 1.3v-1h-1.6V41h1.6v-3.5c0-1.9.8-2.6 2-2.6 1 0 1.6.6 1.6 1.8V41h1.6v-4.5c0-2.3-1.2-3.1-2.8-3.1zm9.3 10.8h1.5v-4.3c.5.8 1.4 1.3 2.6 1.3 2 0 3.6-1.4 3.6-3.9s-1.7-4-3.6-4c-1.2 0-2 .6-2.5 1.4v-1h-1.6v10.5zm3.7-4.5c-1.3 0-2.2-1-2.2-2.4s.9-2.4 2.2-2.4c1.4 0 2.3 1 2.3 2.4s-.9 2.4-2.3 2.4zm8 1.5c1.2 0 2-.6 2.3-1.3V41h1.6v-7.4h-1.6v3.5c0 2-.7 2.6-1.8 2.6-1 0-1.6-.6-1.6-1.8v-4.3h-1.6v4.5c0 2.3 1.3 3.1 2.7 3.1zm10 0c2 0 3.6-1.4 3.6-3.9s-1.6-4-3.6-4c-1.2 0-2 .6-2.5 1.4v-4.9h-1.6V41h1.6v-1c.5.7 1.3 1.2 2.5 1.2zm-.3-1.5c-1.4 0-2.3-1-2.3-2.4s.9-2.4 2.3-2.4 2.2 1 2.2 2.4-.8 2.4-2.2 2.4zm7-9.9h-1.6V41h1.6V29.8zm3.8.2h-1.9v1.9h2v-2zm-1.7 11h1.5v-7.4h-1.5V41zm7.1.2c1 0 1.8-.2 2.5-.7l-.7-1.3c-.5.3-1.1.5-1.8.5-1.5 0-2.4-1-2.4-2.4s1-2.4 2.4-2.4c.7 0 1.3.2 1.8.5l.7-1.3c-.7-.5-1.5-.7-2.5-.7-2.4 0-4 1.6-4 3.9 0 2.4 1.6 4 4 4zm12 0c1 0 1.8-.2 2.6-.7l-.8-1.3c-.5.3-1.1.5-1.8.5-1.4 0-2.4-1-2.4-2.4s1-2.4 2.4-2.4c.7 0 1.3.2 1.8.5l.8-1.3c-.8-.5-1.6-.7-2.5-.7-2.4 0-4.1 1.6-4.1 3.9 0 2.4 1.7 4 4 4zm7-7.8c-2.4 0-4.1 1.6-4.1 3.9s1.7 4 4 4c2.4 0 4-1.7 4-4s-1.6-4-4-4zm0 1.5c1.3 0 2.3 1 2.3 2.4 0 1.5-1 2.4-2.4 2.4s-2.3-1-2.3-2.4c0-1.5 1-2.4 2.3-2.4zm9.5-1.5c-1.2 0-2 .5-2.5 1.3v-1h-1.6V41h1.6v-3.5c0-1.9.8-2.6 2-2.6 1 0 1.7.6 1.7 1.8V41h1.5v-4.5c0-2.3-1.2-3.1-2.7-3.1zm7.8 1.5v-1.3h-1.5v-3h-1.5v3h-1.4V35h1.4v4.2c0 1.2.7 2 2 2h.7v-1.5h-.4c-.5 0-.8-.3-.8-.8V35h1.5zm5.5-1.5h-.1c-1.3 0-2.1.7-2.5 1.8v-1.6H554V41h1.6v-3.3c0-1.7.8-2.5 2.3-2.5h.3v-1.8zm3.8 7.8c1.2 0 2-.5 2.5-1.3V41h1.6v-7.4h-1.6v1.1c-.5-.8-1.3-1.3-2.5-1.3-2 0-3.6 1.4-3.6 3.9s1.6 4 3.6 4zm.3-1.5c-1.3 0-2.2-1-2.2-2.4s.9-2.4 2.2-2.4c1.4 0 2.3 1 2.3 2.4s-.9 2.4-2.3 2.4zm9.3 1.5c1 0 1.8-.2 2.5-.7l-.7-1.3c-.5.3-1.2.5-1.8.5-1.5 0-2.4-1-2.4-2.4s1-2.4 2.4-2.4c.6 0 1.3.2 1.8.5l.7-1.3c-.7-.5-1.5-.7-2.5-.7-2.4 0-4 1.6-4 3.9 0 2.4 1.6 4 4 4zm7.5-6.3v-1.3h-1.5v-3H576v3h-1.3V35h1.3v4.2c0 1.2.7 2 2 2h.7v-1.5h-.4c-.5 0-.7-.3-.7-.8V35h1.5zm3-5h-1.8v2h1.9v-2zM580.5 41h1.6v-7.4h-1.6V41zm7.6-7.6c-1.1 0-2 .5-2.4 1.3v-1H584V41h1.6v-3.5c0-1.9.8-2.6 2-2.6 1 0 1.6.6 1.6 1.8V41h1.6v-4.5c0-2.3-1.2-3.1-2.8-3.1zm8.4 11c1.9 0 3.4-.5 3.4-3.4v-7.4h-1.5v1.1c-.5-.8-1.3-1.3-2.5-1.3-2 0-3.6 1.4-3.6 3.9s1.6 4 3.6 4c1.2 0 2-.6 2.4-1.4v.9c0 1.6-.4 2.1-1.8 2.1l-2.6-.3-.3 1.5 2.9.3zm-.3-4.7c-1.4 0-2.3-1-2.3-2.4s1-2.4 2.3-2.4c1.4 0 2.3 1 2.3 2.4s-1 2.4-2.3 2.4zm7.5-6h-1.9v1.8h2v-1.9zm0 5.4h-1.9V41h.8l-.8 2.3h.8l1.1-2.3v-1.9zM335.2 95.6c-2 0-3.2 1-3.2 2.7 0 1.1.6 2 1.6 2.7l1.9 1.5c.8.6 1.1 1 1.1 1.7 0 .8-.5 1.3-1.7 1.3a6 6 0 01-3-.9l-.7 1.6a7 7 0 003.7 1c2 0 3.5-1 3.5-3.1 0-1.3-.5-2.2-1.7-3l-2-1.6c-.6-.4-.9-.8-.9-1.3 0-.6.4-1 1.3-1 .8 0 1.6.3 2.3.7l.7-1.6c-.8-.4-1.8-.7-3-.7zm7.4 11.6c1.2 0 1.9-.6 2.3-1.3v1.1h1.6v-7.4h-1.6v3.5c0 2-.8 2.6-1.9 2.6-1 0-1.5-.6-1.5-1.8v-4.3h-1.6v4.5c0 2.3 1.2 3.1 2.7 3.1zm5.8 3h1.6v-4.3c.4.8 1.3 1.3 2.5 1.3 2 0 3.6-1.4 3.6-3.9s-1.7-4-3.6-4c-1.2 0-2 .6-2.5 1.4v-1h-1.6v10.5zm3.7-4.5c-1.3 0-2.2-1-2.2-2.4s.9-2.4 2.2-2.4c1.4 0 2.3 1 2.3 2.4s-.9 2.4-2.3 2.4zm5.4 4.5h1.6v-4.3c.5.8 1.3 1.3 2.5 1.3 2 0 3.6-1.4 3.6-3.9s-1.6-4-3.6-4c-1.2 0-2 .6-2.5 1.4v-1h-1.6v10.5zm3.8-4.5c-1.4 0-2.3-1-2.3-2.4s1-2.4 2.3-2.4c1.4 0 2.3 1 2.3 2.4s-1 2.4-2.3 2.4zm9-6.3c-2.4 0-4.1 1.6-4.1 3.9s1.7 4 4 4c2.4 0 4-1.7 4-4s-1.6-4-4-4zm0 1.5c1.3 0 2.3 1 2.3 2.4 0 1.5-1 2.4-2.4 2.4s-2.4-1-2.4-2.4c0-1.5 1-2.4 2.4-2.4zm9.6-1.5h-.1c-1.3 0-2.1.7-2.5 1.8v-1.6h-1.6v7.4h1.6v-3.3c0-1.7.8-2.5 2.3-2.5h.3v-1.8zm4.8 1.5v-1.3h-1.5v-3h-1.6v3h-1.3v1.3h1.3v4.2c0 1.2.7 2 2 2h.7v-1.5h-.4c-.5 0-.7-.3-.7-.8V101h1.5zm3-5h-1.9v2h2v-2zM386 107h1.6v-7.4H386v7.4zm7.6-7.6c-1.1 0-2 .5-2.4 1.3v-1h-1.6v7.3h1.6v-3.5c0-1.9.8-2.6 2-2.6 1 0 1.6.6 1.6 1.8v4.3h1.6v-4.5c0-2.3-1.2-3.1-2.8-3.1zm8.4 11c1.9 0 3.4-.5 3.4-3.4v-7.4H404v1.1c-.5-.8-1.3-1.3-2.6-1.3-2 0-3.6 1.4-3.6 3.9s1.7 4 3.6 4c1.3 0 2-.6 2.5-1.4v.9c0 1.6-.4 2.1-1.8 2.1l-2.6-.3-.3 1.5 2.9.3zm-.3-4.7c-1.4 0-2.3-1-2.3-2.4s1-2.4 2.3-2.4c1.4 0 2.3 1 2.3 2.4s-1 2.4-2.3 2.4zm12.6 1.5c1.7 0 2.9-.7 2.9-2.2 0-1-.5-1.6-1.5-2l-1.4-.7c-.6-.3-.8-.6-.8-1 0-.3.2-.5.9-.5a5 5 0 012 .5l.6-1.4c-.8-.3-1.7-.5-2.6-.5-1.6 0-2.6.7-2.6 2 0 1 .4 1.7 1.6 2.2l1.3.6c.6.4.8.6.8.9 0 .4-.4.7-1.2.7-.8 0-1.6-.3-2.3-.7l-.7 1.4c.8.5 2 .7 3 .7zm9-7.6l-2 4.9-2-4.9h-1.9l3.1 6.7-1.7 3.9h1.6l4.6-10.6h-1.7zm4.7 7.6c1.7 0 2.8-.7 2.8-2.2 0-1-.5-1.6-1.4-2l-1.4-.7c-.7-.3-.9-.6-.9-1 0-.3.3-.5 1-.5a5 5 0 012 .5l.6-1.4c-.8-.3-1.8-.5-2.6-.5-1.6 0-2.6.7-2.6 2 0 1 .4 1.7 1.5 2.2l1.4.6c.6.4.8.6.8.9 0 .4-.4.7-1.2.7-.9 0-1.7-.3-2.4-.7l-.7 1.4c.9.5 2 .7 3 .7zm7.8-6.3v-1.3h-1.5v-3h-1.6v3h-1.3v1.3h1.3v4.2c0 1.2.7 2 2 2h.7v-1.5h-.4c-.5 0-.7-.3-.7-.8V101h1.5zm4.2-1.5c-2.3 0-3.7 1.7-3.7 4s1.5 3.8 3.8 3.8a4 4 0 003.4-1.7l-1.1-1c-.4.4-1.1 1.2-2.3 1.2-1.3 0-2.2-.8-2.3-2.1h5.8v-.3c0-2.4-1.3-4-3.6-4zm0 1.4c1 0 1.8.6 1.9 1.6h-4c.2-1 1-1.6 2-1.6zm5 6.2h1.6v-3.8c0-1.6.7-2.3 1.6-2.3 1 0 1.5.6 1.5 1.6v4.5h1.6v-3.8c0-1.6.7-2.3 1.6-2.3 1 0 1.5.6 1.5 1.6v4.5h1.6v-4.6c0-2.2-1.2-3-2.6-3-.9 0-1.8.4-2.3 1.5-.5-1-1.2-1.5-2.3-1.5-1 0-1.8.4-2.2 1.4v-1.2H445v7.4zm14.6-11h-2v1.9h2v-2zm-1.7 11h1.5v-7.4H458v7.4zm7.1.2c1 0 1.8-.2 2.5-.7l-.7-1.3c-.5.3-1.1.5-1.8.5-1.5 0-2.4-1-2.4-2.4s1-2.4 2.4-2.4c.7 0 1.3.2 1.8.5l.7-1.3c-.7-.5-1.5-.7-2.5-.7-2.4 0-4 1.6-4 3.9 0 2.4 1.6 4 4 4zm5.7-2.1h-2v1.9h.9l-.9 2.3h.8l1.2-2.3v-1.9zM479 96h-2v1.9h2v-2zm-1.8 11h1.6v-7.4h-1.6v7.4zm3.6 0h1.6v-3.8c0-1.6.7-2.3 1.6-2.3 1 0 1.5.6 1.5 1.6v4.5h1.5v-3.8c0-1.6.7-2.3 1.7-2.3s1.5.6 1.5 1.6v4.5h1.5v-4.6c0-2.2-1.1-3-2.5-3-1 0-1.9.4-2.3 1.5-.5-1-1.2-1.5-2.3-1.5-1 0-1.8.4-2.2 1.4v-1.2h-1.6v7.4zm12.8 3.2h1.5v-4.3c.5.8 1.3 1.3 2.6 1.3 2 0 3.6-1.4 3.6-3.9s-1.7-4-3.6-4c-1.3 0-2 .6-2.5 1.4v-1h-1.6v10.5zm3.7-4.5c-1.3 0-2.2-1-2.2-2.4s.9-2.4 2.2-2.4c1.4 0 2.3 1 2.3 2.4s-.9 2.4-2.3 2.4zm8.5 1.5c1.2 0 2-.5 2.5-1.3v1.1h1.6v-7.4h-1.5v1.1c-.5-.8-1.4-1.3-2.6-1.3-2 0-3.6 1.4-3.6 3.9s1.7 4 3.6 4zm.4-1.5c-1.4 0-2.3-1-2.3-2.4s.9-2.4 2.3-2.4c1.3 0 2.2 1 2.2 2.4s-.9 2.4-2.2 2.4zm9.2 1.5c1 0 1.8-.2 2.6-.7l-.8-1.3c-.5.3-1.1.5-1.8.5-1.4 0-2.4-1-2.4-2.4s1-2.4 2.4-2.4c.7 0 1.3.2 1.8.5l.8-1.3c-.8-.5-1.6-.7-2.6-.7-2.3 0-4 1.6-4 3.9 0 2.4 1.7 4 4 4zm7.5-6.3v-1.3h-1.5v-3h-1.6v3h-1.3v1.3h1.3v4.2c0 1.2.7 2 2 2h.8v-1.5h-.4c-.6 0-.8-.3-.8-.8V101h1.5zm4.7-3.8h.3v-1.5h-.3c-1.9 0-2.9 1.2-2.9 3v1h-1.2v1.3h1.2v6.1h1.6v-6h1.4v-1.4h-1.4v-1c0-1.1.6-1.5 1.3-1.5zm4 10.1c1.2 0 1.9-.6 2.3-1.3v1.1h1.6v-7.4h-1.6v3.5c0 2-.8 2.6-1.9 2.6-.9 0-1.5-.6-1.5-1.8v-4.3h-1.6v4.5c0 2.3 1.2 3.1 2.7 3.1zm7.4-11.4h-1.5V107h1.5V95.8zm8.5.2h-2v1.9h2v-2zm-1.7 11h1.5v-7.4h-1.5v7.4zm3.5 0h1.6v-3.8c0-1.6.7-2.3 1.6-2.3 1 0 1.5.6 1.5 1.6v4.5h1.6v-3.8c0-1.6.7-2.3 1.6-2.3 1 0 1.5.6 1.5 1.6v4.5h1.6v-4.6c0-2.2-1.2-3-2.6-3-.9 0-1.8.4-2.3 1.5-.4-1-1.2-1.5-2.3-1.5-.9 0-1.7.4-2.2 1.4v-1.2h-1.6v7.4zm12.8 3.2h1.6v-4.3c.5.8 1.3 1.3 2.5 1.3 2 0 3.6-1.4 3.6-3.9s-1.7-4-3.6-4c-1.2 0-2 .6-2.5 1.4v-1H562v10.5zm3.8-4.5c-1.4 0-2.3-1-2.3-2.4s.9-2.4 2.3-2.4c1.3 0 2.2 1 2.2 2.4s-.9 2.4-2.2 2.4zm7-9.9h-1.6V107h1.6V95.8zm5.3 3.6c-2.4 0-3.8 1.7-3.8 4s1.5 3.8 3.9 3.8a4 4 0 003.3-1.7l-1.1-1c-.4.4-1 1.2-2.3 1.2-1.2 0-2.2-.8-2.2-2.1h5.7v-.3c0-2.4-1.3-4-3.5-4zm-.1 1.4c1.1 0 1.9.6 2 1.6h-4c.2-1 1-1.6 2-1.6zm5 6.2h1.6v-3.8c0-1.6.7-2.3 1.7-2.3s1.4.6 1.4 1.6v4.5h1.6v-3.8c0-1.6.7-2.3 1.7-2.3s1.4.6 1.4 1.6v4.5h1.6v-4.6c0-2.2-1.1-3-2.5-3-1 0-2 .4-2.4 1.5-.4-1-1.2-1.5-2.2-1.5-1 0-1.8.4-2.3 1.4v-1.2h-1.6v7.4zm16.1-7.6c-2.3 0-3.8 1.7-3.8 4s1.6 3.8 3.9 3.8a4 4 0 003.3-1.7l-1-1c-.4.4-1.1 1.2-2.3 1.2-1.3 0-2.2-.8-2.3-2.1h5.8v-.3c0-2.4-1.3-4-3.6-4zm0 1.4c1 0 1.8.6 1.9 1.6h-4c.2-1 1-1.6 2-1.6zm9-1.4c-1.1 0-2 .5-2.4 1.3v-1h-1.6v7.3h1.6v-3.5c0-1.9.8-2.6 2-2.6 1 0 1.6.6 1.6 1.8v4.3h1.6v-4.5c0-2.3-1.2-3.1-2.8-3.1zm7.9 1.5v-1.3h-1.5v-3H613v3h-1.3v1.3h1.3v4.2c0 1.2.7 2 2 2h.7v-1.5h-.3c-.6 0-.8-.3-.8-.8V101h1.5zm4 6.3c1.3 0 2.1-.5 2.6-1.3v1.1h1.6v-7.4h-1.6v1.1c-.5-.8-1.3-1.3-2.5-1.3-2 0-3.6 1.4-3.6 3.9s1.6 4 3.6 4zm.4-1.5c-1.4 0-2.3-1-2.3-2.4s1-2.4 2.3-2.4c1.4 0 2.3 1 2.3 2.4s-1 2.4-2.3 2.4zm9.4-4.8v-1.3h-1.5v-3h-1.6v3h-1.3v1.3h1.3v4.2c0 1.2.7 2 2 2h.7v-1.5h-.4c-.5 0-.7-.3-.7-.8V101h1.5zm3-5H631v2h2v-2zm-1.7 11.1h1.6v-7.4h-1.6v7.4zm7.1-7.6c-2.3 0-4 1.6-4 3.9s1.7 4 4 4c2.4 0 4-1.7 4-4s-1.6-4-4-4zm0 1.5c1.4 0 2.4 1 2.4 2.4 0 1.5-1 2.4-2.4 2.4s-2.3-1-2.3-2.4c0-1.5 1-2.4 2.3-2.4zm9.6-1.5c-1.2 0-2 .5-2.5 1.3v-1h-1.6v7.3h1.6v-3.5c0-1.9.8-2.6 2-2.6 1 0 1.7.6 1.7 1.8v4.3h1.5v-4.5c0-2.3-1.2-3.1-2.7-3.1zm-312.4 24c-2.3 0-4 1.6-4 3.9s1.7 4 4 4 4-1.7 4-4-1.7-4-4-4zm0 1.5c1.4 0 2.4 1 2.4 2.4 0 1.5-1 2.4-2.4 2.4s-2.4-1-2.4-2.4c0-1.5 1-2.4 2.4-2.4zm8.6-3.8h.3v-1.5h-.3c-1.8 0-2.9 1.2-2.9 3v1h-1.1v1.3h1.1v6.1h1.6v-6h1.5v-1.4h-1.5v-1c0-1.1.6-1.5 1.3-1.5zm9.6 10.1c1 0 1.8-.2 2.6-.7l-.8-1.3c-.5.3-1.1.5-1.8.5-1.4 0-2.4-1-2.4-2.4s1-2.4 2.4-2.4c.7 0 1.3.2 1.8.5l.8-1.3c-.8-.5-1.6-.7-2.6-.7-2.4 0-4 1.6-4 3.9 0 2.4 1.6 4 4 4zm7-7.8c-2.4 0-4.1 1.6-4.1 3.9s1.7 4 4 4 4-1.7 4-4-1.7-4-4-4zm0 1.5c1.3 0 2.3 1 2.3 2.4 0 1.5-1 2.4-2.4 2.4s-2.4-1-2.4-2.4c0-1.5 1-2.4 2.4-2.4zm9.4-1.5c-1.1 0-1.9.5-2.4 1.3v-1H366v7.3h1.6v-3.5c0-1.9.8-2.6 2-2.6 1 0 1.6.6 1.6 1.8v4.3h1.6v-4.5c0-2.3-1.2-3.1-2.8-3.1zm8 1.5v-1.3h-1.6v-3H375v3h-1.3v1.3h1.3v4.2c0 1.2.7 2 2 2h.8v-1.5h-.4c-.6 0-.8-.3-.8-.8V125h1.5zm5.3-1.5c-1.3 0-2.2.7-2.5 1.8v-1.6h-1.6v7.4h1.6v-3.3c0-1.7.8-2.5 2.3-2.5h.2v-1.8zm3.9 7.8c1.2 0 2-.5 2.5-1.3v1.1h1.6v-7.4h-1.6v1.1c-.5-.8-1.3-1.3-2.5-1.3-2 0-3.6 1.4-3.6 3.9s1.6 4 3.6 4zm.3-1.5c-1.4 0-2.3-1-2.3-2.4s1-2.4 2.3-2.4c1.4 0 2.3 1 2.3 2.4s-.9 2.4-2.3 2.4zm9.3 1.5c1 0 1.8-.2 2.5-.7l-.7-1.3c-.5.3-1.2.5-1.9.5-1.4 0-2.3-1-2.3-2.4s1-2.4 2.3-2.4c.7 0 1.4.2 1.9.5l.7-1.3c-.7-.5-1.6-.7-2.5-.7-2.4 0-4 1.6-4 3.9 0 2.4 1.6 4 4 4zm7.5-6.3v-1.3h-1.5v-3h-1.6v3H400v1.3h1.3v4.2c0 1.2.7 2 2 2h.7v-1.5h-.4c-.5 0-.7-.3-.7-.8V125h1.5zm3-5h-1.9v2h2v-2zm-1.7 11.1h1.6v-7.4h-1.6v7.4zm7.6-7.6c-1.1 0-2 .5-2.4 1.3v-1h-1.6v7.3h1.5v-3.5c0-1.9.9-2.6 2-2.6 1 0 1.7.6 1.7 1.8v4.3h1.6v-4.5c0-2.3-1.2-3.1-2.8-3.1zm8.3 11c2 0 3.4-.5 3.5-3.4v-7.4h-1.5v1.1c-.5-.8-1.4-1.3-2.6-1.3-2 0-3.6 1.4-3.6 3.9s1.7 4 3.6 4c1.2 0 2-.6 2.5-1.4v.9c0 1.6-.5 2.1-1.9 2.1l-2.5-.3-.3 1.5c.9.2 2 .3 2.8.3zm-.2-4.7c-1.4 0-2.3-1-2.3-2.4s.9-2.4 2.3-2.4c1.3 0 2.2 1 2.2 2.4s-.9 2.4-2.2 2.4zm14.5-6.3h-.2c-1.2 0-2 .7-2.4 1.8v-1.6h-1.6v7.4h1.6v-3.3c0-1.7.8-2.5 2.3-2.5h.3v-1.8zm4 0c-2.4 0-3.8 1.7-3.8 4s1.5 3.8 3.8 3.8a4 4 0 003.4-1.7l-1.1-1c-.4.4-1 1.2-2.3 1.2-1.3 0-2.2-.8-2.2-2.1h5.7v-.3c0-2.4-1.3-4-3.5-4zm-.1 1.4c1 0 1.8.6 1.9 1.6h-4c.2-1 1-1.6 2-1.6zm8.2-3.7h.2v-1.5h-.3c-1.8 0-2.8 1.2-2.8 3v1h-1.2v1.3h1.2v6.1h1.5v-6h1.5v-1.4h-1.5v-1c0-1.1.6-1.5 1.4-1.5zm4.5 2.3c-2.3 0-4 1.6-4 3.9s1.7 4 4 4 4-1.7 4-4-1.7-4-4-4zm0 1.5c1.4 0 2.4 1 2.4 2.4 0 1.5-1 2.4-2.4 2.4s-2.4-1-2.4-2.4c0-1.5 1-2.4 2.4-2.4zm9.6-1.5c-1.3 0-2.2.7-2.5 1.8v-1.6H458v7.4h1.5v-3.3c0-1.7.9-2.5 2.4-2.5h.2v-1.8zm1.2 7.6h1.5v-3.8c0-1.6.7-2.3 1.7-2.3s1.4.6 1.4 1.6v4.5h1.6v-3.8c0-1.6.7-2.3 1.7-2.3s1.4.6 1.4 1.6v4.5h1.6v-4.6c0-2.2-1.1-3-2.5-3-1 0-1.9.4-2.3 1.5-.5-1-1.3-1.5-2.3-1.5-1 0-1.8.4-2.2 1.4v-1.2h-1.6v7.4zm15 .2c1.8 0 3-.7 3-2.2 0-1-.6-1.6-1.6-2l-1.3-.7c-.7-.3-.9-.6-.9-1 0-.3.2-.5 1-.5a5 5 0 011.9.5l.6-1.4c-.8-.3-1.7-.5-2.5-.5-1.6 0-2.7.7-2.7 2 0 1 .5 1.7 1.6 2.2l1.3.6c.7.4.8.6.8.9 0 .4-.4.7-1.1.7-1 0-1.7-.3-2.4-.7l-.7 1.4c.9.5 2 .7 3 .7zm12.4-7.8c-2.3 0-4 1.6-4 3.9s1.7 4 4 4 4-1.7 4-4-1.7-4-4-4zm0 1.5c1.4 0 2.4 1 2.4 2.4 0 1.5-1 2.4-2.4 2.4s-2.4-1-2.4-2.4c0-1.5 1-2.4 2.4-2.4zm9.5-1.5c-1.1 0-2 .5-2.4 1.3v-1h-1.6v7.3h1.6v-3.5c0-1.9.8-2.6 2-2.6 1 0 1.6.6 1.6 1.8v4.3h1.6v-4.5c0-2.3-1.2-3.1-2.8-3.1zm13 1.5v-1.3h-1.6v-3h-1.5v3h-1.3v1.3h1.3v4.2c0 1.2.7 2 2 2h.7v-1.5h-.4c-.5 0-.8-.3-.8-.8V125h1.5zm2.9-5.1h-1.6V131h1.6v-3.5c0-1.9.8-2.6 2-2.6 1 0 1.6.6 1.6 1.8v4.3h1.6v-4.5c0-2.3-1.2-3.1-2.8-3.1-1.1 0-2 .5-2.4 1.3v-4.9zm10.3 3.6c-2.3 0-3.7 1.7-3.7 4s1.5 3.8 3.8 3.8a4 4 0 003.4-1.7l-1.2-1c-.3.4-1 1.2-2.2 1.2-1.3 0-2.2-.8-2.3-2.1h5.8v-.3c0-2.4-1.3-4-3.6-4zm0 1.4c1 0 1.8.6 1.9 1.6h-4c.2-1 1-1.6 2-1.6zm13.4 9.6c1.9 0 3.4-.5 3.5-3.4v-7.4h-1.6v1.1c-.5-.8-1.3-1.3-2.5-1.3-2 0-3.6 1.4-3.6 3.9s1.6 4 3.6 4c1.2 0 2-.6 2.5-1.4v.9c0 1.6-.5 2.1-2 2.1l-2.5-.3-.3 1.5 2.9.3zm-.3-4.7c-1.4 0-2.3-1-2.3-2.4s1-2.4 2.3-2.4c1.4 0 2.3 1 2.3 2.4s-1 2.4-2.3 2.4zm9.8-6.3c-1.3 0-2.2.7-2.5 1.8v-1.6h-1.6v7.4h1.5v-3.3c0-1.7.9-2.5 2.4-2.5h.2v-1.8zm4.3 0c-2.3 0-4 1.6-4 3.9s1.7 4 4 4 4-1.7 4-4-1.7-4-4-4zm0 1.5c1.4 0 2.4 1 2.4 2.4 0 1.5-1 2.4-2.4 2.4s-2.4-1-2.4-2.4c0-1.5 1-2.4 2.4-2.4zm8.1 6.3c1.2 0 2-.6 2.3-1.3v1.1h1.6v-7.4H564v3.5c0 2-.7 2.6-1.8 2.6-1 0-1.6-.6-1.6-1.8v-4.3H559v4.5c0 2.3 1.3 3.1 2.7 3.1zm9.9-7.8c-1.2 0-2 .5-2.5 1.3v-1h-1.6v7.3h1.6v-3.5c0-1.9.8-2.6 2-2.6 1 0 1.7.6 1.7 1.8v4.3h1.5v-4.5c0-2.3-1.2-3.1-2.7-3.1zm7.7 7.8c1.2 0 2-.5 2.5-1.3v1.1h1.6v-11.2h-1.6v4.9c-.5-.8-1.3-1.3-2.5-1.3-2 0-3.6 1.4-3.6 3.9s1.6 4 3.6 4zm.3-1.5c-1.3 0-2.2-1-2.2-2.4s.9-2.4 2.2-2.4c1.4 0 2.3 1 2.3 2.4s-.9 2.4-2.3 2.4zm7.6-6h-1.9v1.8h2v-1.9zm0 5.4h-1.9v1.9h.9l-.9 2.3h.8l1.1-2.3v-1.9zM345 197c1-.3 1.6-1.2 1.6-2.4 0-1.7-1.3-2.8-3.2-2.8H339V203h4.7c1.9 0 3.4-1 3.4-3.2 0-1.5-.8-2.5-2.2-2.8zm-2-3.6c1.1 0 1.8.5 1.8 1.5s-.6 1.6-2 1.6h-2v-3.1h2.2zm.5 8h-2.7V198h2.5c1.5 0 2.1.7 2.1 1.7s-.7 1.7-2 1.7zm8 1.8c1.2 0 1.9-.6 2.2-1.3v1.1h1.6v-7.4h-1.5v3.5c0 2-.8 2.6-1.9 2.6-1 0-1.5-.6-1.5-1.8v-4.3h-1.6v4.5c0 2.3 1.2 3.1 2.7 3.1zM359 192h-2v1.9h2v-2zm-1.7 11h1.5v-7.4h-1.5v7.4zm5.2-11.2H361V203h1.6v-11.2zm5 11.4c1.3 0 2.1-.5 2.6-1.3v1.1h1.6v-11.2h-1.6v4.9c-.5-.8-1.3-1.3-2.5-1.3-2 0-3.6 1.4-3.6 3.9s1.6 4 3.6 4zm.4-1.5c-1.4 0-2.3-1-2.3-2.4s1-2.4 2.3-2.4c1.4 0 2.3 1 2.3 2.4s-1 2.4-2.3 2.4zm7.6-9.7h-2v1.9h2v-2zm-1.7 11h1.5v-7.4H374v7.4zm7.5-7.6c-1.1 0-2 .5-2.4 1.3v-1h-1.6v7.3h1.6v-3.5c0-1.9.8-2.6 2-2.6 1 0 1.6.6 1.6 1.8v4.3h1.6v-4.5c0-2.3-1.2-3.1-2.8-3.1zm8.4 11c1.9 0 3.4-.5 3.5-3.4v-7.4h-1.6v1.1c-.5-.8-1.3-1.3-2.5-1.3-2 0-3.6 1.4-3.6 3.9s1.6 4 3.6 4c1.2 0 2-.6 2.5-1.4v.9c0 1.6-.5 2.1-2 2.1l-2.5-.3-.3 1.5 2.9.3zm-.3-4.7c-1.4 0-2.3-1-2.3-2.4s1-2.4 2.3-2.4c1.4 0 2.3 1 2.3 2.4s-1 2.4-2.3 2.4zm13.5 1.5c1.2 0 2-.5 2.5-1.3v1.1h1.6v-7.4h-1.6v1.1c-.5-.8-1.3-1.3-2.5-1.3-2 0-3.6 1.4-3.6 3.9s1.6 4 3.6 4zm.3-1.5c-1.4 0-2.3-1-2.3-2.4s1-2.4 2.3-2.4c1.4 0 2.3 1 2.3 2.4s-1 2.4-2.3 2.4zm12.6 1.5c1.7 0 2.9-.7 2.9-2.2 0-1-.5-1.6-1.5-2l-1.4-.7c-.6-.3-.8-.6-.8-1 0-.3.2-.5.9-.5a5 5 0 012 .5l.6-1.4c-.8-.3-1.7-.5-2.6-.5-1.6 0-2.6.7-2.6 2 0 1 .5 1.7 1.6 2.2l1.3.6c.6.4.8.6.8.9 0 .4-.4.7-1.1.7-1 0-1.7-.3-2.4-.7l-.7 1.4c.8.5 2 .7 3 .7zm7.5-7.8c-2.4 0-3.8 1.7-3.8 4s1.5 3.8 3.8 3.8a4 4 0 003.4-1.7l-1.1-1c-.4.4-1 1.2-2.3 1.2-1.3 0-2.2-.8-2.2-2.1h5.7v-.3c0-2.4-1.3-4-3.5-4zm-.1 1.4c1 0 1.8.6 1.9 1.6h-4c.2-1 1-1.6 2-1.6zm6.7-5h-1.6V203h1.6v-11.2zm5.4 1.3h.3v-1.5h-.3c-1.9 0-2.9 1.2-2.9 3v1h-1.2v1.3h1.2v6.1h1.6v-6h1.4v-1.4h-1.4v-1c0-1.1.6-1.5 1.3-1.5zm4.8 4.9H436v1.5h4.2V198zm4 5.2c1.7 0 2.9-.7 2.9-2.2 0-1-.5-1.6-1.5-2l-1.4-.7c-.6-.3-.8-.6-.8-1 0-.3.2-.5.9-.5a5 5 0 012 .5l.6-1.4c-.8-.3-1.7-.5-2.6-.5-1.6 0-2.6.7-2.6 2 0 1 .4 1.7 1.6 2.2l1.3.6c.6.4.8.6.8.9 0 .4-.4.7-1.2.7-.8 0-1.6-.3-2.3-.7l-.7 1.4c.8.5 2 .7 3 .7zm6.8 0c1.2 0 1.9-.6 2.2-1.3v1.1h1.6v-7.4h-1.5v3.5c0 2-.8 2.6-1.9 2.6-1 0-1.5-.6-1.5-1.8v-4.3h-1.6v4.5c0 2.3 1.2 3.1 2.7 3.1zm8 0c1.8 0 3-.7 3-2.2 0-1-.6-1.6-1.5-2l-1.4-.7c-.6-.3-.9-.6-.9-1 0-.3.3-.5 1-.5a5 5 0 012 .5l.6-1.4c-.8-.3-1.7-.5-2.6-.5-1.6 0-2.6.7-2.6 2 0 1 .4 1.7 1.5 2.2l1.4.6c.6.4.8.6.8.9 0 .4-.4.7-1.2.7-.9 0-1.7-.3-2.3-.7l-.7 1.4c.8.5 1.9.7 3 .7zm7.9-6.3v-1.3h-1.5v-3h-1.6v3h-1.3v1.3h1.3v4.2c0 1.2.7 2 2 2h.7v-1.5h-.3c-.6 0-.8-.3-.8-.8V197h1.5zm4 6.3c1.3 0 2.1-.5 2.6-1.3v1.1h1.6v-7.4h-1.6v1.1c-.5-.8-1.3-1.3-2.5-1.3-2 0-3.6 1.4-3.6 3.9s1.6 4 3.6 4zm.4-1.5c-1.4 0-2.3-1-2.3-2.4s1-2.4 2.3-2.4c1.4 0 2.3 1 2.3 2.4s-1 2.4-2.3 2.4zm7.5-9.7h-2v1.9h2v-2zm-1.7 11h1.5v-7.4h-1.5v7.4zm7.5-7.6c-1 0-1.9.5-2.4 1.3v-1h-1.6v7.3h1.6v-3.5c0-1.9.8-2.6 2-2.6 1 0 1.7.6 1.7 1.8v4.3h1.5v-4.5c0-2.3-1.2-3.1-2.8-3.1zm6.5-3.4h-2v1.9h2v-2zm-1.7 11h1.5v-7.4h-1.5v7.4zm7.5-7.6c-1.1 0-2 .5-2.4 1.3v-1h-1.6v7.3h1.6v-3.5c0-1.9.8-2.6 2-2.6 1 0 1.6.6 1.6 1.8v4.3h1.6v-4.5c0-2.3-1.2-3.1-2.8-3.1zm8.4 11c1.9 0 3.4-.5 3.5-3.4v-7.4h-1.6v1.1c-.5-.8-1.3-1.3-2.5-1.3-2 0-3.6 1.4-3.6 3.9s1.6 4 3.6 4c1.2 0 2-.6 2.5-1.4v.9c0 1.6-.5 2.1-2 2.1l-2.5-.3-.3 1.5 2.9.3zm-.3-4.7c-1.4 0-2.3-1-2.3-2.4s1-2.4 2.3-2.4c1.4 0 2.3 1 2.3 2.4s-1 2.4-2.3 2.4zm14 1.5c.9 0 1.7-.2 2.4-.7l-.7-1.3c-.5.3-1.1.5-1.8.5-1.5 0-2.4-1-2.4-2.4s1-2.4 2.4-2.4c.7 0 1.3.2 1.8.5l.7-1.3c-.7-.5-1.5-.7-2.5-.7-2.4 0-4 1.6-4 3.9 0 2.4 1.6 4 4 4zm6.8-7.8c-2.3 0-4 1.6-4 3.9s1.7 4 4 4 4-1.7 4-4-1.7-4-4-4zm0 1.5c1.4 0 2.4 1 2.4 2.4 0 1.5-1 2.4-2.4 2.4s-2.4-1-2.4-2.4c0-1.5 1-2.4 2.4-2.4zm5.5 6.1h1.6v-3.8c0-1.6.7-2.3 1.6-2.3 1 0 1.5.6 1.5 1.6v4.5h1.6v-3.8c0-1.6.7-2.3 1.6-2.3 1 0 1.5.6 1.5 1.6v4.5h1.5v-4.6c0-2.2-1-3-2.5-3-1 0-1.9.4-2.3 1.5-.5-1-1.2-1.5-2.3-1.5-1 0-1.8.4-2.2 1.4v-1.2h-1.6v7.4zm12.8 0h1.6v-3.8c0-1.6.7-2.3 1.6-2.3 1 0 1.5.6 1.5 1.6v4.5h1.5v-3.8c0-1.6.7-2.3 1.7-2.3s1.5.6 1.5 1.6v4.5h1.5v-4.6c0-2.2-1.1-3-2.5-3-1 0-1.9.4-2.3 1.5-.5-1-1.2-1.5-2.3-1.5-1 0-1.8.4-2.2 1.4v-1.2H544v7.4zm15.4.2c1.2 0 1.9-.6 2.3-1.3v1.1h1.6v-7.4h-1.6v3.5c0 2-.8 2.6-1.9 2.6-1 0-1.5-.6-1.5-1.8v-4.3h-1.6v4.5c0 2.3 1.2 3.1 2.7 3.1zm9.8-7.8c-1.1 0-2 .5-2.4 1.3v-1h-1.6v7.3h1.6v-3.5c0-1.9.8-2.6 2-2.6 1 0 1.6.6 1.6 1.8v4.3h1.6v-4.5c0-2.3-1.2-3.1-2.8-3.1zm6.5-3.4h-2v1.9h2v-2zm-1.8 11h1.6v-7.4H574v7.4zm7.2-6v-1.4h-1.5v-3h-1.5v3h-1.4v1.3h1.4v4.2c0 1.2.7 2 2 2h.7v-1.5h-.4c-.5 0-.8-.3-.8-.8V197h1.5zm6.3-1.4l-2 4.9-2-4.9h-1.9l3.1 6.7-1.7 3.9h1.6l4.6-10.6h-1.7zm-245 23.8c-2.3 0-4 1.6-4 3.9s1.7 4 4 4 4-1.7 4-4-1.7-4-4-4zm0 1.5c1.4 0 2.4 1 2.4 2.4 0 1.5-1 2.4-2.4 2.4s-2.4-1-2.4-2.4c0-1.5 1-2.4 2.4-2.4zm8.6-3.8h.3v-1.5h-.3c-1.8 0-2.9 1.2-2.9 3v1h-1.1v1.3h1.1v6.1h1.6v-6h1.5v-1.4h-1.5v-1c0-1.1.6-1.5 1.3-1.5zm6 13.1h1.6v-4.3c.5.8 1.3 1.3 2.5 1.3 2 0 3.6-1.4 3.6-3.9s-1.6-4-3.6-4c-1.2 0-2 .6-2.5 1.4v-1h-1.6v10.5zm3.8-4.5c-1.4 0-2.3-1-2.3-2.4s1-2.4 2.3-2.4c1.4 0 2.3 1 2.3 2.4s-1 2.4-2.3 2.4zm9-6.3c-2.4 0-4 1.6-4 3.9s1.6 4 4 4c2.3 0 4-1.7 4-4s-1.7-4-4-4zm0 1.5c1.4 0 2.3 1 2.3 2.4 0 1.5-1 2.4-2.3 2.4-1.5 0-2.4-1-2.4-2.4 0-1.5 1-2.4 2.4-2.4zm7.1-5.1h-1.6V227h1.6v-11.2zm3.8.2h-2v1.9h2v-2zm-1.7 11h1.5v-7.4h-1.5v7.4zm7.1.2c1 0 1.8-.2 2.5-.7l-.7-1.3c-.5.3-1.1.5-1.8.5-1.5 0-2.4-1-2.4-2.4s1-2.4 2.4-2.4c.7 0 1.3.2 1.8.5l.7-1.3c-.7-.5-1.5-.7-2.5-.7-2.4 0-4 1.6-4 3.9 0 2.4 1.6 4 4 4zm8.8-7.6l-2 4.9-2-4.9h-1.9l3.1 6.7-1.7 3.9h1.6l4.6-10.6H395zm10.2 7.6c1.3 0 2-.5 2.5-1.3v1.1h1.6v-7.4h-1.5v1.1c-.5-.8-1.3-1.3-2.6-1.3-2 0-3.6 1.4-3.6 3.9s1.7 4 3.6 4zm.4-1.5c-1.4 0-2.3-1-2.3-2.4s.9-2.4 2.3-2.4c1.3 0 2.2 1 2.2 2.4s-.9 2.4-2.2 2.4zm9.7-6.3c-1.2 0-2 .5-2.4 1.3v-1h-1.6v7.3h1.5v-3.5c0-1.9.8-2.6 2-2.6 1 0 1.7.6 1.7 1.8v4.3h1.6v-4.5c0-2.3-1.2-3.1-2.8-3.1zm7.7 7.8c1.2 0 2-.5 2.5-1.3v1.1h1.6v-11.2h-1.6v4.9c-.5-.8-1.3-1.3-2.5-1.3-2 0-3.6 1.4-3.6 3.9s1.7 4 3.6 4zm.4-1.5c-1.4 0-2.3-1-2.3-2.4s.9-2.4 2.3-2.4c1.3 0 2.2 1 2.2 2.4s-.9 2.4-2.2 2.4zm10.4 4.5h1.5v-4.3c.5.8 1.3 1.3 2.6 1.3 2 0 3.6-1.4 3.6-3.9s-1.7-4-3.6-4c-1.3 0-2 .6-2.5 1.4v-1h-1.6v10.5zm3.7-4.5c-1.4 0-2.3-1-2.3-2.4s1-2.4 2.3-2.4c1.4 0 2.3 1 2.3 2.4s-1 2.4-2.3 2.4zm9.6-6.3h-.2c-1.2 0-2 .7-2.4 1.8v-1.6h-1.6v7.4h1.6v-3.3c0-1.7.8-2.5 2.3-2.5h.3v-1.8zm3.8 7.8c1.2 0 2-.5 2.5-1.3v1.1h1.6v-7.4h-1.6v1.1c-.5-.8-1.3-1.3-2.5-1.3-2 0-3.6 1.4-3.6 3.9s1.6 4 3.6 4zm.3-1.5c-1.3 0-2.2-1-2.2-2.4s.9-2.4 2.2-2.4c1.4 0 2.3 1 2.3 2.4s-.9 2.4-2.3 2.4zm9.3 1.5c1 0 1.8-.2 2.5-.7l-.7-1.3c-.5.3-1.2.5-1.9.5-1.4 0-2.3-1-2.3-2.4s1-2.4 2.3-2.4c.7 0 1.4.2 1.9.5l.7-1.3c-.7-.5-1.5-.7-2.5-.7-2.4 0-4 1.6-4 3.9 0 2.4 1.6 4 4 4zm7.5-6.3v-1.3h-1.5v-3h-1.6v3h-1.3v1.3h1.3v4.2c0 1.2.7 2 2 2h.7v-1.5h-.4c-.5 0-.7-.3-.7-.8V221h1.5zm3-5h-1.9v2h2v-2zm-1.7 11.1h1.6v-7.4h-1.6v7.4zm7.2.2c1 0 1.7-.2 2.5-.7l-.7-1.3c-.6.3-1.2.5-1.9.5-1.4 0-2.3-1-2.3-2.4s.9-2.4 2.3-2.4c.7 0 1.3.2 1.9.5l.7-1.3c-.8-.5-1.6-.7-2.5-.7-2.4 0-4.1 1.6-4.1 3.9 0 2.4 1.7 4 4 4zm6.6-7.8c-2.4 0-3.8 1.7-3.8 4s1.5 3.8 3.9 3.8a4 4 0 003.3-1.7l-1.1-1c-.4.4-1 1.2-2.3 1.2-1.2 0-2.1-.8-2.2-2.1h5.7v-.3c0-2.4-1.3-4-3.5-4zm-.1 1.4c1.1 0 1.9.6 2 1.6h-4c.2-1 1-1.6 2-1.6zm6.9-1.2h-2v2h2v-2zm0 5.5h-2v1.9h1l-1 2.3h.9l1-2.3v-1.9zM307.8 300.8H306V312h6.5v-1.6h-4.8v-9.6zm9 3.6c-2.3 0-3.7 1.7-3.7 4s1.5 3.8 3.8 3.8a4 4 0 003.4-1.7l-1.1-1c-.4.4-1.1 1.2-2.3 1.2-1.3 0-2.2-.8-2.3-2.1h5.8v-.3c0-2.4-1.3-4-3.6-4zm0 1.4c1 0 1.8.6 1.9 1.6h-4c.2-1 1-1.6 2-1.6zm8.1 6.4c1.2 0 2-.5 2.5-1.3v1.1h1.6v-7.4h-1.5v1.1c-.5-.8-1.4-1.3-2.6-1.3-2 0-3.6 1.4-3.6 3.9s1.7 4 3.6 4zm.4-1.5c-1.4 0-2.3-1-2.3-2.4s.9-2.4 2.3-2.4c1.3 0 2.2 1 2.2 2.4s-.9 2.4-2.2 2.4zm9.8-6.3h-.1c-1.3 0-2.1.7-2.5 1.8v-1.6H331v7.4h1.6v-3.3c0-1.7.8-2.5 2.4-2.5h.2v-1.8zm5.1 0c-1 0-1.9.5-2.4 1.3v-1h-1.6v7.3h1.6v-3.5c0-1.9.8-2.6 2-2.6 1 0 1.7.6 1.7 1.8v4.3h1.5v-4.5c0-2.3-1.2-3.1-2.8-3.1zm6.5-3.4h-2v1.9h2v-2zm-1.8 11h1.6v-7.4H345v7.4zm7.6-7.6c-1.1 0-2 .5-2.4 1.3v-1h-1.6v7.3h1.6v-3.5c0-1.9.8-2.6 2-2.6 1 0 1.6.6 1.6 1.8v4.3h1.6v-4.5c0-2.3-1.2-3.1-2.8-3.1zm8.4 11c1.9 0 3.4-.5 3.5-3.4v-7.4h-1.6v1.1c-.5-.8-1.3-1.3-2.5-1.3-2 0-3.6 1.4-3.6 3.9s1.6 4 3.6 4c1.2 0 2-.6 2.5-1.4v.9c0 1.6-.5 2.1-2 2.1l-2.5-.3-.3 1.5 2.9.3zm-.3-4.7c-1.4 0-2.3-1-2.3-2.4s1-2.4 2.3-2.4c1.4 0 2.3 1 2.3 2.4s-1 2.4-2.3 2.4zm13.4 1.5c1.3 0 2-.5 2.5-1.3v1.1h1.6v-7.4h-1.5v1.1c-.5-.8-1.3-1.3-2.6-1.3-1.9 0-3.6 1.4-3.6 3.9s1.7 4 3.6 4zm.4-1.5c-1.4 0-2.3-1-2.3-2.4s1-2.4 2.3-2.4c1.4 0 2.3 1 2.3 2.4s-1 2.4-2.3 2.4zm9.7-6.3c-1.2 0-2 .5-2.4 1.3v-1H380v7.3h1.5v-3.5c0-1.9.9-2.6 2-2.6 1 0 1.7.6 1.7 1.8v4.3h1.6v-4.5c0-2.3-1.2-3.1-2.8-3.1zm7.7 7.8c1.2 0 2-.5 2.5-1.3v1.1h1.6v-11.2h-1.5v4.9c-.5-.8-1.4-1.3-2.6-1.3-2 0-3.6 1.4-3.6 3.9s1.7 4 3.6 4zm.4-1.5c-1.4 0-2.3-1-2.3-2.4s.9-2.4 2.3-2.4c1.3 0 2.2 1 2.2 2.4s-.9 2.4-2.2 2.4zm12.7 1.5c1.7 0 2.8-.7 2.8-2.2 0-1-.5-1.6-1.4-2l-1.4-.7c-.7-.3-.9-.6-.9-1 0-.3.3-.5 1-.5a5 5 0 012 .5l.6-1.4c-.8-.3-1.8-.5-2.6-.5-1.6 0-2.6.7-2.6 2 0 1 .4 1.7 1.5 2.2l1.4.6c.6.4.8.6.8.9 0 .4-.4.7-1.2.7-.9 0-1.7-.3-2.3-.7l-.8 1.4c.9.5 2 .7 3 .7zm5.8-11.4H409V312h1.6v-3.5c0-1.9.8-2.6 2-2.6 1 0 1.6.6 1.6 1.8v4.3h1.6v-4.5c0-2.3-1.2-3.1-2.8-3.1-1.1 0-2 .5-2.4 1.3v-4.9zm10.2 11.4c1.2 0 2-.5 2.5-1.3v1.1h1.6v-7.4h-1.6v1.1c-.5-.8-1.3-1.3-2.5-1.3-2 0-3.6 1.4-3.6 3.9s1.6 4 3.6 4zm.3-1.5c-1.4 0-2.3-1-2.3-2.4s1-2.4 2.3-2.4c1.4 0 2.3 1 2.3 2.4s-1 2.4-2.3 2.4zm9.8-6.3c-1.3 0-2.2.7-2.5 1.8v-1.6h-1.6v7.4h1.6v-3.3c0-1.7.8-2.5 2.3-2.5h.2v-1.8zm3-3.4h-2v1.9h2v-2zm-1.8 11h1.6v-7.4h-1.6v7.4zm7.6-7.6c-1.1 0-2 .5-2.4 1.3v-1h-1.6v7.3h1.6v-3.5c0-1.9.8-2.6 2-2.6 1 0 1.6.6 1.6 1.8v4.3h1.6v-4.5c0-2.3-1.2-3.1-2.8-3.1zm8.4 11c1.9 0 3.4-.5 3.5-3.4v-7.4H450v1.1c-.5-.8-1.3-1.3-2.5-1.3-2 0-3.6 1.4-3.6 3.9s1.6 4 3.6 4c1.2 0 2-.6 2.5-1.4v.9c0 1.6-.5 2.1-2 2.1l-2.5-.3-.3 1.5 2.9.3zm-.3-4.7c-1.4 0-2.3-1-2.3-2.4s1-2.4 2.3-2.4c1.4 0 2.3 1 2.3 2.4s-1 2.4-2.3 2.4zm18.8-6l-1.5 5.2-1.7-5.3H462l-1.8 5.3-1.4-5.3H457l2.5 7.4h1.5l1.7-5.3 1.8 5.3h1.4l2.5-7.4h-1.7zm4.2-3.9h-1.5V312h1.5v-3.5c0-1.9.9-2.6 2-2.6 1 0 1.7.6 1.7 1.8v4.3h1.6v-4.5c0-2.3-1.2-3.1-2.8-3.1-1.2 0-2 .5-2.4 1.3v-4.9zm10.2 11.4c1.2 0 2-.5 2.5-1.3v1.1h1.6v-7.4h-1.5v1.1c-.5-.8-1.4-1.3-2.6-1.3-2 0-3.6 1.4-3.6 3.9s1.7 4 3.6 4zm.4-1.5c-1.4 0-2.3-1-2.3-2.4s.9-2.4 2.3-2.4c1.3 0 2.2 1 2.2 2.4s-.9 2.4-2.2 2.4zm9.3-4.8v-1.3h-1.5v-3h-1.6v3h-1.3v1.3h1.3v4.2c0 1.2.7 2 2 2h.8v-1.5h-.4c-.6 0-.8-.3-.8-.8V306h1.5zm14.4-1.3l-1.5 5.3-1.7-5.3h-1.5l-1.8 5.3-1.4-5.3h-1.8l2.5 7.4h1.5l1.7-5.3 1.8 5.3h1.4l2.5-7.4h-1.7zm6-.2c-2.4 0-4.1 1.6-4.1 3.9s1.7 4 4 4 4-1.7 4-4-1.7-4-4-4zm0 1.5c1.3 0 2.3 1 2.3 2.4 0 1.5-1 2.4-2.4 2.4s-2.4-1-2.4-2.4c0-1.5 1-2.4 2.4-2.4zm9.6-1.5h-.2c-1.2 0-2 .7-2.4 1.8v-1.6h-1.6v7.4h1.6v-3.3c0-1.7.8-2.5 2.3-2.5h.3v-1.8zm7.8 7.6l-3.5-4 3.1-3.4h-2l-2.7 3.2v-7H522V312h1.5v-3.6l3 3.6h2zm3.3.2c1.7 0 2.9-.7 2.9-2.2 0-1-.5-1.6-1.5-2l-1.4-.7c-.6-.3-.8-.6-.8-1 0-.3.2-.5.9-.5a5 5 0 012 .5l.6-1.4c-.8-.3-1.7-.5-2.6-.5-1.6 0-2.6.7-2.6 2 0 1 .5 1.7 1.6 2.2l1.3.6c.6.4.8.6.8.9 0 .4-.4.7-1.1.7-1 0-1.7-.3-2.4-.7l-.7 1.4c.8.5 2 .7 3 .7zm6-2.1h-2v1.9h2v-1.9z"/>
			<circle id="Oval" cx="233.5" cy="27.5" r="27.5" fill="#FFF" fill-rule="nonzero"/>
			<path id="Shape" fill="#4D4D53" fill-rule="nonzero" d="M236 14.7h-6.9v5.2h1.4V39h5.5z"/>
			<circle id="Oval" cx="277.5" cy="117.5" r="27.5" fill="#FFF" fill-rule="nonzero"/>
			<path id="Shape" fill="#4D4D53" fill-rule="nonzero" d="M270.2 129h17v-4.8h-9.7l5.2-5c3.2-3 4.4-5.1 4.4-7.9 0-4.4-3.1-7.1-8.3-7.1-5.6 0-8.8 3-8.8 8.2h5.5c0-2.1 1-3.2 3.1-3.2 1.8 0 2.8.9 2.8 2.5 0 1.4-.8 2.7-3 5l-8.2 8v4.3z"/>
			<circle id="Oval" cx="284.5" cy="213.5" r="27.5" fill="#FFF" fill-rule="nonzero"/>
			<path id="Shape" fill="#4D4D53" fill-rule="nonzero" d="M284.2 201.2c-5.5 0-8.6 2.7-8.7 7.4h5.6c0-1.5 1.1-2.4 2.9-2.4 1.7 0 2.7.8 2.7 2.4 0 2-1.2 2.9-3.9 2.9h-.8v4h.8c3.6 0 4.9.8 4.9 3 0 2-1.1 3-3.3 3-2.2 0-3.4-1-3.6-3h-5.7c0 5.2 3.3 8 9.3 8 5.6 0 9-2.7 9-7.4 0-3.4-1.8-5.5-5.1-6v-.1a5.2 5.2 0 004.3-5.4c0-4.1-3-6.4-8.4-6.4z"/>
			<circle id="Oval" cx="251.5" cy="306.5" r="27.5" fill="#FFF" fill-rule="nonzero"/>
			<path id="Shape" fill="#4D4D53" fill-rule="nonzero" d="M259.9 309.2h-2.2v-15.5H252l-11.4 16v4.2h12v4.1h5v-4h2.3v-4.8zm-13.8 0l6.3-8.9h.2v9H246z"/>
		</g>
		<g id="mobile-points" fill-rule="nonzero" transform="translate(17 391)">
			<path id="Shape" fill="#FFF" d="M70.8 10h1.6l-4-9.8h-1.3L63 10h1.6l.9-2.4h4.3l1 2.4zm-4.7-3.8L67.7 2l1.7 4.2H66zm9.8 4c1 0 1.8-.5 2.2-1.2v1h1.4V.2h-1.4v4.3c-.4-.7-1.1-1.2-2.2-1.2-1.7 0-3.1 1.3-3.1 3.5 0 2.1 1.4 3.4 3.1 3.4zm.3-1.3c-1.2 0-2-.9-2-2.1 0-1.3.8-2.1 2-2.1s2 .8 2 2c0 1.3-.8 2.2-2 2.2zm9-5.4l-1.6 4.9L82 3.5h-1.6l2.5 6.5h1.3l2.6-6.5h-1.6zm5.3-.2c-2 0-3.5 1.5-3.5 3.5s1.5 3.4 3.5 3.4S94 8.8 94 6.8s-1.5-3.5-3.5-3.5zm0 1.4c1.2 0 2 .8 2 2 0 1.3-.8 2.2-2 2.2s-2-.9-2-2.1c0-1.3.8-2.1 2-2.1zm8 5.5c.8 0 1.5-.2 2.2-.6l-.7-1.2a3 3 0 01-1.6.5c-1.2 0-2-1-2-2.1 0-1.3.8-2.1 2-2.1a3 3 0 011.6.4l.7-1.1c-.7-.5-1.4-.7-2.3-.7-2 0-3.5 1.4-3.5 3.5 0 2 1.5 3.4 3.5 3.4zm5.6 0c1 0 1.8-.5 2.2-1.2v1h1.4V3.5h-1.4v1c-.4-.7-1.1-1.2-2.2-1.2-1.7 0-3.2 1.3-3.2 3.5 0 2.1 1.5 3.4 3.2 3.4zm.3-1.3c-1.2 0-2-.9-2-2.1 0-1.3.8-2.1 2-2.1s2 .8 2 2c0 1.3-.8 2.2-2 2.2zm8.2-4.2V3.5h-1.4V1H110v2.6h-1.2v1.2h1.2v3.6c0 1.1.6 1.7 1.7 1.7h.7V8.8h-.4c-.5 0-.7-.3-.7-.7V4.7h1.4zm2.7-4.4h-1.7V2h1.7V.3zm-1.6 9.7h1.4V3.5h-1.4V10zm6.7-6.7c-1 0-1.7.5-2.1 1.2v-1h-1.4V10h1.3V7c0-1.7.7-2.3 1.8-2.3.9 0 1.4.5 1.4 1.6V10h1.4V6c0-2-1-2.7-2.4-2.7zm7.3 9.7c1.6 0 3-.5 3-3V3.5h-1.3v1c-.5-.7-1.2-1.2-2.3-1.2-1.7 0-3.1 1.3-3.1 3.5 0 2.1 1.4 3.4 3.2 3.4 1 0 1.7-.5 2.1-1.2v.8c0 1.4-.4 1.9-1.6 1.9a11 11 0 01-2.2-.3l-.3 1.3c.8.2 1.7.3 2.5.3zm-.3-4.1c-1.2 0-2-.9-2-2.1 0-1.3.8-2.1 2-2.1s2 .8 2 2c0 1.3-.8 2.2-2 2.2zm12-7.6h.3V.1h-.3c-1.6 0-2.5 1-2.5 2.5v1h-1v1h1V10h1.4V4.7h1.3V3.5h-1.3v-1c0-.8.5-1.2 1.2-1.2zm4 2c-2 0-3.5 1.5-3.5 3.5s1.5 3.4 3.5 3.4 3.6-1.4 3.6-3.4-1.5-3.5-3.6-3.5zm0 1.4c1.3 0 2.1.8 2.1 2 0 1.3-.8 2.2-2 2.2-1.3 0-2.1-.9-2.1-2.1 0-1.3.8-2.1 2-2.1zm8.5-1.4h-.1c-1.1 0-1.8.7-2.2 1.6V3.5h-1.3V10h1.3V7.1c0-1.5.7-2.2 2-2.2h.3V3.3zm7.8 7c1 0 1.7-.6 2.1-1.3v1h1.4V3.5H162v1c-.5-.7-1.2-1.2-2.2-1.2-1.7 0-3.2 1.3-3.2 3.5 0 2.1 1.5 3.4 3.2 3.4zm.3-1.4c-1.2 0-2-.9-2-2.1 0-1.3.8-2.1 2-2.1s2 .8 2 2c0 1.3-.8 2.2-2 2.2zm12.3 4.1c1.6 0 3-.5 3-3V3.5h-1.4v1c-.4-.7-1.1-1.2-2.2-1.2-1.7 0-3.1 1.3-3.1 3.5 0 2.1 1.4 3.4 3.1 3.4 1 0 1.8-.5 2.2-1.2v.8c0 1.4-.4 1.9-1.6 1.9a11 11 0 01-2.3-.3l-.2 1.3c.8.2 1.7.3 2.5.3zM172 9c-1.2 0-2-.9-2-2.1 0-1.3.8-2.1 2-2.1s2 .8 2 2c0 1.3-.8 2.2-2 2.2zm6.4-8.7h-1.3V10h1.3V.2zm4.9 3.1c-2 0-3.5 1.5-3.5 3.5s1.5 3.4 3.5 3.4 3.5-1.4 3.5-3.4-1.5-3.5-3.5-3.5zm0 1.4c1.2 0 2 .8 2 2 0 1.3-.8 2.2-2 2.2s-2-.9-2-2.1c0-1.3.8-2.1 2-2.1zm8.5 5.5c1.7 0 3.1-1.3 3.1-3.4 0-2.2-1.4-3.5-3.1-3.5-1.1 0-1.8.5-2.2 1.2V.2h-1.4V10h1.3V9c.5.7 1.2 1.2 2.3 1.2zm-.3-1.3c-1.2 0-2-.9-2-2.1 0-1.3.8-2.1 2-2.1s2 .8 2 2c0 1.3-.8 2.2-2 2.2zm7.4 1.3c1 0 1.8-.5 2.2-1.2v1h1.4V3.5H201v1c-.4-.7-1.1-1.2-2.2-1.2-1.7 0-3.2 1.3-3.2 3.5 0 2.1 1.5 3.4 3.2 3.4zm.3-1.3c-1.2 0-2-.9-2-2.1 0-1.3.8-2.1 2-2.1s2 .8 2 2c0 1.3-.8 2.2-2 2.2zm6.4-8.7h-1.4V10h1.4V.2zm9.3 3.1c-1 0-1.7.5-2 1.2h-.1v-1h-1.4V10h1.4V7c0-1.7.7-2.3 1.7-2.3s1.5.5 1.5 1.6V10h1.4V6c0-2-1-2.7-2.5-2.7zm7.2 0c-2 0-3.5 1.5-3.5 3.5s1.5 3.4 3.5 3.4 3.5-1.4 3.5-3.4-1.5-3.5-3.5-3.5zm0 1.4c1.2 0 2 .8 2 2 0 1.3-.8 2.2-2 2.2s-2-.9-2-2.1c0-1.3.8-2.1 2-2.1zm8.4-1.4c-1.1 0-1.9.7-2.2 1.6V3.5h-1.4V10h1.4V7.1c0-1.5.7-2.2 2-2.2h.2V3.3zm1 6.7h1.4V6.7c0-1.5.6-2 1.4-2 .9 0 1.3.5 1.3 1.4V10h1.4V6.6c0-1.4.6-2 1.5-2 .8 0 1.2.6 1.2 1.5V10h1.4V6c0-2-1-2.7-2.2-2.7-.8 0-1.6.4-2 1.3a2 2 0 00-2-1.3c-.9 0-1.6.4-2 1.2v-1h-1.4V10zM250 3.3c-2 0-3.6 1.5-3.6 3.5s1.6 3.4 3.6 3.4 3.5-1.4 3.5-3.4-1.5-3.5-3.5-3.5zm0 1.4c1.2 0 2 .8 2 2 0 1.3-.8 2.2-2 2.2s-2-.9-2-2.1c0-1.3.8-2.1 2-2.1zm7.5-3.4h.2V.1h-.2c-1.6 0-2.5 1-2.5 2.5v1h-1v1h1V10h1.4V4.7h1.2V3.5h-1.2v-1c0-.8.5-1.2 1.1-1.2zm-190 27c1.8 0 3.2-1.4 3.2-3.5 0-2.2-1.4-3.5-3.1-3.5-1 0-1.8.5-2.2 1.2v-4.3h-1.4V28h1.4v-1c.4.7 1.1 1.2 2.2 1.2zm-.2-1.4c-1.2 0-2-.9-2-2.1 0-1.3.8-2.1 2-2.1s2 .8 2 2c0 1.3-.8 2.2-2 2.2zm7.6-5.6c-2 0-3.3 1.5-3.3 3.5s1.3 3.4 3.4 3.4c1.6 0 2.4-.9 2.9-1.5l-1-1c-.3.5-.9 1.2-2 1.2-1 0-1.9-.8-2-2h5v-.1c0-2.1-1-3.5-3-3.5zm0 1.3c.9 0 1.5.5 1.6 1.4h-3.5c.2-1 .9-1.4 1.8-1.4zm7.3 0v-1h-1.3v-2.7h-1.4v2.6h-1.2v1.2h1.2v3.6c0 1.1.6 1.7 1.7 1.7h.7v-1.2h-.4c-.4 0-.6-.3-.6-.7v-3.4H82zm4.3 0v-1H85v-2.7h-1.4v2.6h-1.1v1.2h1.1v3.6c0 1.1.6 1.7 1.8 1.7h.6v-1.2h-.4c-.4 0-.6-.3-.6-.7v-3.4h1.3zm3.7-1.3c-2 0-3.3 1.5-3.3 3.5s1.3 3.4 3.4 3.4c1.6 0 2.4-.9 3-1.5l-1-1c-.4.5-1 1.2-2 1.2-1.1 0-2-.8-2-2h5v-.1c0-2.1-1.1-3.5-3-3.5zm0 1.3c1 0 1.6.5 1.6 1.4h-3.4c.1-1 .8-1.4 1.7-1.4zm8-1.3c-1.2 0-2 .7-2.2 1.6v-1.4h-1.4V28h1.3v-2.9c0-1.5.8-2.2 2-2.2h.3v-1.6zm1.9 5h-1.7V28h.8l-.8 2h.7l1-2v-1.7zm5.7 1.7h1.3v-3.3c0-1.5.7-2 1.5-2s1.3.5 1.3 1.4V28h1.4v-3.4c0-1.4.6-2 1.4-2 .8 0 1.3.6 1.3 1.5V28h1.4v-4c0-2-1-2.7-2.3-2.7-.8 0-1.6.4-2 1.3a2 2 0 00-2-1.3c-.8 0-1.5.4-2 1.2v-1h-1.3V28zm14.3-6.7c-2 0-3.6 1.5-3.6 3.5s1.6 3.4 3.6 3.4 3.5-1.4 3.5-3.4-1.5-3.5-3.5-3.5zm0 1.4c1.2 0 2 .8 2 2 0 1.3-.8 2.2-2 2.2-1.3 0-2.1-.9-2.1-2.1 0-1.3.8-2.1 2-2.1zm8.4-1.4c-1.2 0-1.9.7-2.2 1.6v-1.4h-1.4V28h1.4v-2.9c0-1.5.7-2.2 2-2.2h.2v-1.6zm3.5 0c-2 0-3.3 1.5-3.3 3.5s1.4 3.4 3.4 3.4c1.6 0 2.5-.9 3-1.5l-1-1c-.4.5-1 1.2-2 1.2-1.1 0-2-.8-2-2h5v-.1c0-2.1-1-3.5-3-3.5zm0 1.3c1 0 1.6.5 1.6 1.4h-3.4c.2-1 .8-1.4 1.8-1.4zm12-1.3c-1.1 0-1.8.7-2.2 1.6v-1.4h-1.4V28h1.4v-2.9c0-1.5.7-2.2 2-2.2h.3v-1.6zm3.6 0c-2 0-3.3 1.5-3.3 3.5s1.3 3.4 3.4 3.4c1.6 0 2.4-.9 2.9-1.5l-1-1c-.3.5-.9 1.2-2 1.2-1 0-1.9-.8-2-2h5v-.1c0-2.1-1-3.5-3-3.5zm0 1.3c.9 0 1.6.5 1.6 1.4h-3.5c.2-1 .9-1.4 1.8-1.4zm6.3 5.6c1.6 0 2.6-.6 2.6-2 0-.8-.5-1.4-1.3-1.8l-1.2-.5c-.6-.3-.8-.5-.8-.8 0-.3.2-.5.8-.5.7 0 1.3.2 1.8.4l.5-1.2c-.7-.3-1.5-.5-2.2-.5-1.4 0-2.3.7-2.3 1.9 0 .7.4 1.4 1.3 1.8l1.2.6c.6.3.7.5.7.7 0 .4-.4.6-1 .6a4 4 0 01-2-.6l-.7 1.2c.8.5 1.7.7 2.6.7zm3.7 2.6h1.4V27c.4.7 1.1 1.2 2.2 1.2 1.7 0 3.1-1.3 3.1-3.4 0-2.2-1.4-3.5-3.1-3.5-1 0-1.8.5-2.2 1.2v-1h-1.4v9.3zm3.3-4c-1.2 0-2-.8-2-2 0-1.3.8-2.1 2-2.1s2 .8 2 2c0 1.3-.8 2.2-2 2.2zm7.8-5.5c-2 0-3.5 1.5-3.5 3.5s1.5 3.4 3.5 3.4 3.6-1.4 3.6-3.4-1.6-3.5-3.6-3.5zm0 1.4c1.2 0 2.1.8 2.1 2 0 1.3-.9 2.2-2 2.2-1.3 0-2.2-.9-2.2-2.1 0-1.3.9-2.1 2.1-2.1zm8.3-1.4c-1 0-1.7.5-2 1.2h-.1v-1h-1.4V28h1.4v-3c0-1.7.7-2.3 1.7-2.3s1.5.5 1.5 1.6V28h1.4v-4c0-2-1-2.7-2.5-2.7zm6 7c1.6 0 2.6-.7 2.6-2 0-1-.4-1.5-1.3-1.9L183 24c-.5-.3-.7-.5-.7-.8 0-.3.2-.5.8-.5.6 0 1.2.2 1.7.4l.5-1.2c-.6-.3-1.4-.5-2.2-.5-1.4 0-2.3.7-2.3 1.9 0 .7.4 1.4 1.4 1.8l1.1.6c.6.3.7.5.7.7 0 .4-.3.6-1 .6a4 4 0 01-2-.6l-.6 1.2c.7.5 1.7.7 2.6.7zm5.3-10h-1.7V20h1.7v-1.7zm-1.5 9.7h1.4v-6.5h-1.4V28zm7.2-6.5l-1.6 4.9-1.6-4.9H189l2.6 6.5h1.3l2.6-6.5H194zm5-.2c-2 0-3.2 1.5-3.2 3.5s1.3 3.4 3.3 3.4c1.6 0 2.5-.9 3-1.5l-1-1c-.3.5-1 1.2-2 1.2-1.1 0-1.9-.8-2-2h5v-.1c0-2.1-1-3.5-3-3.5zm0 1.3c1 0 1.6.5 1.7 1.4H197c.2-1 .8-1.4 1.8-1.4zm5.6 3.7h-1.7V28h.8l-.8 2h.7l1-2v-1.7zm8.4 2c1 0 1.8-.6 2.2-1.3v1h1.4v-6.5H215v1c-.4-.7-1.1-1.2-2.2-1.2-1.7 0-3.2 1.3-3.2 3.5 0 2.1 1.5 3.4 3.2 3.4zm.3-1.4c-1.2 0-2-.9-2-2.1 0-1.3.8-2.1 2-2.1s2 .8 2 2c0 1.3-.8 2.2-2 2.2zm8.5-5.6c-1 0-1.7.5-2.1 1.2v-1h-1.4V28h1.3v-3c0-1.7.8-2.3 1.8-2.3.9 0 1.4.5 1.4 1.6V28h1.4v-4c0-2-1-2.7-2.4-2.7zm6.8 7c1 0 1.7-.6 2.1-1.3v1h1.4v-9.8h-1.3v4.3c-.5-.7-1.2-1.2-2.2-1.2-1.7 0-3.2 1.3-3.2 3.5 0 2.1 1.5 3.4 3.2 3.4zm.3-1.4c-1.3 0-2-.9-2-2.1 0-1.3.7-2.1 2-2.1 1.2 0 2 .8 2 2 0 1.3-.8 2.2-2 2.2zm9 1.1h1.4v-3.3c0-1.5.6-2 1.5-2 .8 0 1.3.5 1.3 1.4V28h1.3v-3.4c0-1.4.6-2 1.5-2 .8 0 1.3.6 1.3 1.5V28h1.3v-4c0-2-1-2.7-2.2-2.7-.8 0-1.6.4-2 1.3a2 2 0 00-2-1.3c-.8 0-1.6.4-2 1.2v-1H238V28zm14.4-6.7c-2 0-3.6 1.5-3.6 3.5s1.5 3.4 3.6 3.4c2 0 3.5-1.4 3.5-3.4s-1.5-3.5-3.5-3.5zm0 1.4c1.2 0 2 .8 2 2 0 1.3-.8 2.2-2 2.2-1.3 0-2.1-.9-2.1-2.1 0-1.3.8-2.1 2-2.1zm8.4-1.4c-1.2 0-2 .7-2.2 1.6v-1.4H257V28h1.3v-2.9c0-1.5.8-2.2 2.1-2.2h.2v-1.6zm3.5 0c-2 0-3.3 1.5-3.3 3.5s1.3 3.4 3.4 3.4c1.6 0 2.4-.9 3-1.5l-1-1c-.4.5-1 1.2-2 1.2-1.1 0-2-.8-2-2h5v-.1c0-2.1-1.1-3.5-3-3.5zm0 1.3c1 0 1.6.5 1.6 1.4h-3.4c.1-1 .8-1.4 1.7-1.4zM67 39.3c-2 0-3.6 1.5-3.6 3.5s1.5 3.4 3.6 3.4c2 0 3.5-1.4 3.5-3.4S69 39.3 67 39.3zm0 1.4c1.2 0 2 .8 2 2 0 1.3-.8 2.2-2 2.2-1.3 0-2.1-.9-2.1-2.1 0-1.3.8-2.1 2-2.1zm4.8 8.1H73V45c.5.7 1.2 1.2 2.3 1.2 1.7 0 3.1-1.3 3.1-3.4 0-2.2-1.4-3.5-3.1-3.5-1.1 0-1.8.5-2.2 1.2v-1h-1.4v9.3zm3.3-4c-1.2 0-2-.8-2-2 0-1.3.8-2.1 2-2.1s2 .8 2 2c0 1.3-.8 2.2-2 2.2zm7.6-5.5c-2.1 0-3.4 1.5-3.4 3.5s1.4 3.4 3.4 3.4c1.6 0 2.5-.9 3-1.5l-1-1c-.3.5-1 1.2-2 1.2-1.1 0-2-.8-2-2h5v-.1c0-2.1-1-3.5-3-3.5zm-.1 1.3c1 0 1.6.5 1.7 1.4h-3.5c.2-1 .8-1.4 1.8-1.4zm8-1.3c-1 0-1.8.5-2.2 1.2v-1H87V46h1.4v-3c0-1.7.7-2.3 1.7-2.3s1.5.5 1.5 1.6V46H93v-4c0-2-1.1-2.7-2.5-2.7zm8 9.5h1.4V45c.4.7 1.1 1.2 2.2 1.2 1.7 0 3.2-1.3 3.2-3.4 0-2.2-1.5-3.5-3.2-3.5-1 0-1.8.5-2.2 1.2v-1h-1.4v9.3zm3.3-4c-1.2 0-2-.8-2-2 0-1.3.8-2.1 2-2.1s2 .8 2 2c0 1.3-.8 2.2-2 2.2zm7 1.4a2 2 0 002-1.2v1h1.4v-6.5h-1.4v3.1c0 1.7-.6 2.3-1.6 2.3-.8 0-1.4-.5-1.4-1.6v-3.8h-1.4v4c0 2 1.1 2.7 2.4 2.7zm8.7 0c1.8 0 3.2-1.3 3.2-3.4 0-2.2-1.5-3.5-3.2-3.5-1 0-1.7.5-2.1 1.2v-4.3H114V46h1.3v-1c.5.7 1.2 1.2 2.2 1.2zm-.3-1.3c-1.2 0-2-.9-2-2.1 0-1.3.8-2.1 2-2.1 1.3 0 2 .8 2 2 0 1.3-.7 2.2-2 2.2zm6.2-8.7h-1.4V46h1.4v-9.8zm3.3.1h-1.6V38h1.6v-1.7zm-1.5 9.7h1.4v-6.5h-1.4V46zm6.3.2c.8 0 1.5-.2 2.2-.6l-.7-1.2a3 3 0 01-1.6.5c-1.2 0-2-1-2-2.1 0-1.3.8-2.1 2-2.1a3 3 0 011.6.4l.7-1.1c-.7-.5-1.4-.7-2.2-.7-2.1 0-3.6 1.4-3.6 3.5 0 2 1.5 3.4 3.6 3.4zm10.5 0c.8 0 1.5-.2 2.2-.6l-.6-1.2a3 3 0 01-1.7.5c-1.2 0-2-1-2-2.1 0-1.3.8-2.1 2-2.1a3 3 0 011.7.4l.6-1.1c-.7-.5-1.4-.7-2.2-.7-2.1 0-3.6 1.4-3.6 3.5 0 2 1.5 3.4 3.6 3.4zm6-6.9c-2 0-3.5 1.5-3.5 3.5s1.5 3.4 3.5 3.4 3.6-1.4 3.6-3.4-1.6-3.5-3.6-3.5zm0 1.4c1.3 0 2.1.8 2.1 2 0 1.3-.8 2.2-2 2.2-1.3 0-2.2-.9-2.2-2.1 0-1.3.9-2.1 2.1-2.1zm8.3-1.4c-1 0-1.7.5-2 1.2h-.1v-1h-1.4V46h1.4v-3c0-1.7.7-2.3 1.7-2.3s1.5.5 1.5 1.6V46h1.4v-4c0-2-1-2.7-2.5-2.7zm7 1.4v-1.2H162V37h-1.4v2.6h-1.1v1.2h1.1v3.6c0 1.1.7 1.7 1.8 1.7h.6v-1.2h-.3c-.5 0-.7-.3-.7-.7v-3.4h1.3zm4.7-1.4h-.1c-1.1 0-1.8.7-2.1 1.6v-1.4h-1.4V46h1.3v-2.9c0-1.5.7-2.2 2-2.2h.3v-1.6zm3.3 7c1.1 0 1.8-.6 2.2-1.3v1h1.4v-6.5h-1.3v1c-.5-.7-1.2-1.2-2.3-1.2-1.7 0-3.1 1.3-3.1 3.5 0 2.1 1.4 3.4 3.1 3.4zm.3-1.4c-1.2 0-2-.9-2-2.1 0-1.3.8-2.1 2-2.1s2 .8 2 2c0 1.3-.8 2.2-2 2.2zm8.2 1.3c.8 0 1.5-.2 2.2-.6l-.7-1.2a3 3 0 01-1.6.5c-1.2 0-2-1-2-2.1 0-1.3.8-2.1 2-2.1a3 3 0 011.6.4l.7-1.1c-.7-.5-1.4-.7-2.2-.7-2.1 0-3.6 1.4-3.6 3.5 0 2 1.5 3.4 3.6 3.4zm6.5-5.5v-1.2H185V37h-1.4v2.6h-1.1v1.2h1.1v3.6c0 1.1.6 1.7 1.8 1.7h.6v-1.2h-.4c-.4 0-.6-.3-.6-.7v-3.4h1.3zm2.7-4.4h-1.7V38h1.7v-1.7zm-1.5 9.7h1.3v-6.5h-1.3V46zm6.6-6.7c-1 0-1.7.5-2.1 1.2v-1h-1.4V46h1.4v-3c0-1.7.7-2.3 1.7-2.3s1.5.5 1.5 1.6V46h1.3v-4c0-2-1-2.7-2.4-2.7zm7.3 9.7c1.7 0 3-.5 3-3v-6.5h-1.3v1c-.4-.7-1.2-1.2-2.2-1.2-1.7 0-3.2 1.3-3.2 3.5 0 2.1 1.5 3.4 3.2 3.4 1 0 1.8-.5 2.2-1.2v.8c0 1.4-.5 1.9-1.7 1.9a11 11 0 01-2.2-.3l-.3 1.3c.8.2 1.7.3 2.5.3zm-.2-4.1c-1.2 0-2-.9-2-2.1 0-1.3.8-2.1 2-2.1s2 .8 2 2c0 1.3-.8 2.2-2 2.2zm6.6-5.4h-1.7v1.7h1.7v-1.7zm0 4.8h-1.7V46h.7l-.7 2h.7l1-2v-1.7z"/>
			<circle id="Oval" cx="23.1" cy="23.9" r="22.9" fill="#FFF"/>
			<path id="Shape" fill="#4D4D53" d="M25.2 12.8h-5.7v4.3h1.1V33h4.6z"/>
			<path id="Shape" fill="#FFF" d="M67.6 79C66 79 65 80 65 81.4c0 1 .5 1.7 1.3 2.3l1.7 1.4c.7.5 1 .9 1 1.5s-.5 1.1-1.5 1.1-1.9-.4-2.5-.8l-.7 1.4c.8.5 2 1 3.2 1 1.8 0 3.1-1 3.1-2.8 0-1.2-.5-2-1.5-2.7l-1.8-1.3c-.5-.4-.7-.8-.7-1.2 0-.5.3-.8 1.1-.8.7 0 1.4.2 2 .5l.6-1.4c-.7-.3-1.6-.6-2.6-.6zm6.5 10.2a2 2 0 002-1.2v1h1.4v-6.5h-1.3v3.1c0 1.7-.7 2.3-1.7 2.3-.8 0-1.3-.5-1.3-1.6v-3.8h-1.4v4c0 2 1 2.7 2.3 2.7zm5.1 2.6h1.4V88c.4.7 1.1 1.2 2.2 1.2 1.7 0 3.1-1.3 3.1-3.4 0-2.2-1.4-3.5-3.1-3.5-1 0-1.8.5-2.2 1.2v-1h-1.4v9.3zm3.3-4c-1.2 0-2-.8-2-2 0-1.3.8-2.1 2-2.1s2 .8 2 2c0 1.3-.8 2.2-2 2.2zm4.7 4h1.4V88c.4.7 1.1 1.2 2.2 1.2 1.7 0 3.1-1.3 3.1-3.4 0-2.2-1.4-3.5-3.1-3.5-1 0-1.8.5-2.2 1.2v-1h-1.4v9.3zm3.3-4c-1.2 0-2-.8-2-2 0-1.3.8-2.1 2-2.1s2 .8 2 2c0 1.3-.8 2.2-2 2.2zm7.8-5.5c-2 0-3.5 1.5-3.5 3.5s1.5 3.4 3.5 3.4 3.6-1.4 3.6-3.4-1.5-3.5-3.6-3.5zm0 1.4c1.3 0 2.1.8 2.1 2 0 1.3-.8 2.2-2 2.2-1.3 0-2.2-.9-2.2-2.1 0-1.3.9-2.1 2.1-2.1zm8.5-1.4h-.1c-1.1 0-1.9.7-2.2 1.6v-1.4h-1.4V89h1.4v-2.9c0-1.5.7-2.2 2-2.2h.3v-1.6zm4.2 1.4v-1.2h-1.4V80h-1.3v2.6H107v1.2h1.2v3.6c0 1.1.6 1.7 1.7 1.7h.7v-1.2h-.4c-.5 0-.7-.3-.7-.7v-3.4h1.4zm2.7-4.4H112V81h1.7v-1.7zM112 89h1.4v-6.5h-1.4V89zm6.7-6.7c-1 0-1.7.5-2.1 1.2v-1h-1.4V89h1.3v-3c0-1.7.7-2.3 1.8-2.3.9 0 1.4.5 1.4 1.6V89h1.4v-4c0-2-1-2.7-2.4-2.7zM126 92c1.7 0 3-.5 3-3v-6.5h-1.3v1c-.5-.7-1.2-1.2-2.2-1.2-1.8 0-3.2 1.3-3.2 3.5 0 2.1 1.4 3.4 3.2 3.4 1 0 1.7-.5 2.1-1.2v.8c0 1.4-.4 1.9-1.6 1.9a11 11 0 01-2.2-.3l-.3 1.3c.8.2 1.7.3 2.5.3zm-.3-4.1c-1.2 0-2-.9-2-2.1 0-1.3.8-2.1 2-2.1 1.3 0 2 .8 2 2 0 1.3-.8 2.2-2 2.2zm11 1.3c1.6 0 2.6-.6 2.6-2 0-.8-.4-1.4-1.3-1.8L137 85c-.5-.3-.7-.5-.7-.8 0-.3.2-.5.8-.5.6 0 1.2.2 1.7.4l.5-1.2c-.6-.3-1.4-.5-2.2-.5-1.4 0-2.3.7-2.3 1.9 0 .7.4 1.4 1.4 1.8l1.1.6c.6.3.7.5.7.7 0 .4-.3.6-1 .6a4 4 0 01-2-.6l-.6 1.2c.7.5 1.7.7 2.6.7zm8-6.7l-1.8 4.3-1.7-4.3h-1.7l2.7 6-1.5 3.3h1.4l4-9.3h-1.4zm4 6.7c1.5 0 2.6-.6 2.6-2 0-.8-.5-1.4-1.3-1.8l-1.2-.5c-.6-.3-.8-.5-.8-.8 0-.3.2-.5.8-.5.6 0 1.2.2 1.7.4l.6-1.2c-.7-.3-1.5-.5-2.2-.5-1.5 0-2.3.7-2.3 1.9 0 .7.3 1.4 1.3 1.8l1.2.6c.5.3.7.5.7.7 0 .4-.4.6-1 .6a4 4 0 01-2-.6l-.7 1.2c.7.5 1.7.7 2.6.7zm6.9-5.5v-1.2h-1.3V80H153v2.6h-1.2v1.2h1.2v3.6c0 1.1.6 1.7 1.7 1.7h.7v-1.2h-.4c-.4 0-.6-.3-.6-.7v-3.4h1.3zm3.7-1.4c-2 0-3.3 1.5-3.3 3.5s1.3 3.4 3.4 3.4c1.6 0 2.4-.9 2.9-1.5l-1-1c-.3.5-.9 1.2-2 1.2-1 0-1.9-.8-2-2h5.1v-.1c0-2.1-1.1-3.5-3-3.5zm0 1.3c.9 0 1.6.5 1.6 1.4h-3.4c.1-1 .8-1.4 1.7-1.4zm4.4 5.4h1.3v-3.3c0-1.5.6-2 1.5-2 .8 0 1.3.5 1.3 1.4V89h1.3v-3.4c0-1.4.6-2 1.5-2 .8 0 1.3.6 1.3 1.5V89h1.3v-4c0-2-1-2.7-2.2-2.7-.8 0-1.6.4-2 1.3a2 2 0 00-2-1.3c-.8 0-1.6.4-2 1.2v-1h-1.3V89zm12.7-9.7H175V81h1.6v-1.7zM175 89h1.4v-6.5H175V89zm6.3.2c.8 0 1.5-.2 2.2-.6l-.7-1.2a3 3 0 01-1.6.5c-1.2 0-2-1-2-2.1 0-1.3.8-2.1 2-2.1a3 3 0 011.6.4l.7-1.1c-.7-.5-1.4-.7-2.2-.7-2.1 0-3.6 1.4-3.6 3.5 0 2 1.5 3.4 3.6 3.4zm4.9-1.9h-1.7V89h.8l-.8 2h.7l1-2v-1.7zm7.3-8h-1.7V81h1.7v-1.7zm-1.6 9.7h1.4v-6.5H192V89zm3.2 0h1.3v-3.3c0-1.5.7-2 1.5-2s1.3.5 1.3 1.4V89h1.3v-3.4c0-1.4.7-2 1.5-2s1.3.6 1.3 1.5V89h1.3v-4c0-2-1-2.7-2.2-2.7-.8 0-1.6.4-2 1.3a2 2 0 00-2-1.3c-.8 0-1.6.4-2 1.2v-1h-1.3V89zm11.1 2.8h1.4V88c.5.7 1.2 1.2 2.2 1.2 1.7 0 3.2-1.3 3.2-3.4 0-2.2-1.5-3.5-3.2-3.5-1 0-1.7.5-2.2 1.2v-1h-1.4v9.3zm3.3-4c-1.2 0-2-.8-2-2 0-1.3.8-2.1 2-2.1s2 .8 2 2c0 1.3-.8 2.2-2 2.2zm7.5 1.4c1 0 1.8-.5 2.2-1.2v1h1.4v-6.5h-1.4v1c-.4-.7-1.2-1.2-2.2-1.2-1.7 0-3.2 1.3-3.2 3.5 0 2.1 1.5 3.4 3.2 3.4zm.3-1.3c-1.2 0-2-.9-2-2.1 0-1.3.8-2.1 2-2.1s2 .8 2 2c0 1.3-.8 2.2-2 2.2zm8 1.3c1 0 1.6-.2 2.3-.6l-.7-1.2a3 3 0 01-1.6.5c-1.2 0-2-1-2-2.1 0-1.3.8-2.1 2-2.1a3 3 0 011.6.4l.7-1.1c-.7-.5-1.4-.7-2.2-.7-2.1 0-3.6 1.4-3.6 3.5 0 2 1.5 3.4 3.6 3.4zm6.6-5.5v-1.2h-1.3V80h-1.4v2.6h-1.1v1.2h1.1v3.6c0 1.1.6 1.7 1.8 1.7h.6v-1.2h-.3c-.5 0-.7-.3-.7-.7v-3.4h1.3zm4.1-3.4h.3v-1.2h-.3c-1.6 0-2.5 1-2.5 2.5v1h-1v1h1V89h1.4v-5.3h1.2v-1.2H235v-1c0-.8.5-1.2 1.1-1.2zm3.5 9a2 2 0 002-1.3v1h1.4v-6.5h-1.4v3.1c0 1.7-.6 2.3-1.6 2.3-.8 0-1.3-.5-1.3-1.6v-3.8h-1.4v4c0 2 1 2.7 2.3 2.7zm6.5-10.1h-1.3V89h1.3v-9.8zM66.4 97.3h-1.6V99h1.6v-1.7zM65 107h1.4v-6.5h-1.4v6.5zm3.1 0h1.4v-3.3c0-1.5.6-2 1.4-2 .9 0 1.3.5 1.3 1.4v3.9h1.4v-3.4c0-1.4.6-2 1.5-2 .8 0 1.2.6 1.2 1.5v3.9h1.4v-4c0-2-1-2.7-2.2-2.7-.8 0-1.6.4-2 1.3a2 2 0 00-2-1.3c-.9 0-1.6.4-2 1.2v-1H68v6.5zm11.2 2.8h1.4V106c.4.7 1.1 1.2 2.2 1.2 1.7 0 3.1-1.3 3.1-3.4 0-2.2-1.4-3.5-3.1-3.5-1 0-1.8.5-2.2 1.2v-1h-1.4v9.3zm3.3-4c-1.2 0-2-.8-2-2 0-1.3.8-2.1 2-2.1s2 .8 2 2c0 1.3-.8 2.2-2 2.2zm6.1-8.6h-1.3v9.8h1.3v-9.8zm4.7 3.1c-2 0-3.3 1.5-3.3 3.5s1.3 3.4 3.3 3.4c1.6 0 2.5-.9 3-1.5l-1-1c-.3.5-1 1.2-2 1.2s-1.9-.8-2-2h5v-.1c0-2.1-1-3.5-3-3.5zm-.1 1.3c1 0 1.6.5 1.7 1.4h-3.5c.2-1 .9-1.4 1.8-1.4zm4.4 5.4H99v-3.3c0-1.5.6-2 1.4-2 .9 0 1.3.5 1.3 1.4v3.9h1.4v-3.4c0-1.4.6-2 1.5-2 .8 0 1.2.6 1.2 1.5v3.9h1.4v-4c0-2-1-2.7-2.2-2.7-.8 0-1.6.4-2 1.3a2 2 0 00-2-1.3c-.9 0-1.6.4-2 1.2v-1h-1.4v6.5zm14-6.7c-2 0-3.2 1.5-3.2 3.5s1.3 3.4 3.4 3.4c1.6 0 2.4-.9 2.9-1.5l-1-1c-.3.5-.9 1.2-2 1.2-1 0-1.9-.8-2-2h5v-.1c0-2.1-1-3.5-3-3.5zm0 1.3c1 0 1.6.5 1.7 1.4h-3.5c.2-1 .9-1.4 1.8-1.4zm8-1.3c-1 0-1.7.5-2.2 1.2v-1H116v6.5h1.4v-3c0-1.7.7-2.3 1.7-2.3s1.5.5 1.5 1.6v3.7h1.4v-4c0-2-1-2.7-2.4-2.7zm6.9 1.4v-1.2H125V98h-1.3v2.6h-1.2v1.2h1.2v3.6c0 1.1.6 1.7 1.7 1.7h.6v-1.2h-.3c-.5 0-.7-.3-.7-.7v-3.4h1.4zm3.5 5.5c1 0 1.8-.5 2.2-1.2v1h1.4v-6.5h-1.4v1c-.4-.7-1.1-1.2-2.2-1.2-1.7 0-3.1 1.3-3.1 3.5 0 2.1 1.4 3.4 3.1 3.4zm.3-1.3c-1.2 0-2-.9-2-2.1 0-1.3.8-2.1 2-2.1s2 .8 2 2c0 1.3-.8 2.2-2 2.2zm8.2-4.2v-1.2h-1.3V98h-1.4v2.6h-1.1v1.2h1.1v3.6c0 1.1.6 1.7 1.8 1.7h.6v-1.2h-.3c-.5 0-.7-.3-.7-.7v-3.4h1.3zm2.7-4.4h-1.7V99h1.7v-1.7zm-1.5 9.7h1.4v-6.5h-1.4v6.5zm6.2-6.7c-2 0-3.5 1.5-3.5 3.5s1.5 3.4 3.5 3.4 3.6-1.4 3.6-3.4-1.6-3.5-3.6-3.5zm0 1.4c1.3 0 2.1.8 2.1 2 0 1.3-.8 2.2-2 2.2-1.3 0-2.2-.9-2.2-2.1 0-1.3.9-2.1 2.1-2.1zm8.3-1.4c-1 0-1.7.5-2 1.2h-.1v-1h-1.4v6.5h1.4v-3c0-1.7.7-2.3 1.7-2.3s1.5.5 1.5 1.6v3.7h1.4v-4c0-2-1-2.7-2.5-2.7zm11.3 0c-2 0-3.6 1.5-3.6 3.5s1.5 3.4 3.6 3.4c2 0 3.5-1.4 3.5-3.4s-1.5-3.5-3.5-3.5zm0 1.4c1.2 0 2 .8 2 2 0 1.3-.8 2.2-2 2.2-1.3 0-2.1-.9-2.1-2.1 0-1.3.8-2.1 2-2.1zm7.5-3.4h.2v-1.2h-.2c-1.6 0-2.5 1-2.5 2.5v1h-1v1h1v5.4h1.3v-5.3h1.3v-1.2h-1.3v-1c0-.8.6-1.2 1.2-1.2zm8.4 9c.8 0 1.6-.3 2.2-.7l-.6-1.2a3 3 0 01-1.6.5c-1.3 0-2.1-1-2.1-2.1 0-1.3.8-2.1 2-2.1a3 3 0 011.7.4l.6-1.1c-.6-.5-1.4-.7-2.2-.7-2 0-3.6 1.4-3.6 3.5 0 2 1.5 3.4 3.6 3.4zm6-7c-2 0-3.5 1.5-3.5 3.5s1.5 3.4 3.5 3.4 3.6-1.4 3.6-3.4-1.5-3.5-3.6-3.5zm0 1.4c1.3 0 2.1.8 2.1 2 0 1.3-.8 2.2-2 2.2-1.3 0-2.2-.9-2.2-2.1 0-1.3.9-2.1 2.1-2.1zm8.3-1.4c-1 0-1.6.5-2 1.2v-1h-1.5v6.5h1.4v-3c0-1.7.7-2.3 1.7-2.3s1.5.5 1.5 1.6v3.7h1.4v-4c0-2-1-2.7-2.5-2.7zm7 1.4v-1.2h-1.4V98H200v2.6h-1.2v1.2h1.2v3.6c0 1.1.6 1.7 1.7 1.7h.6v-1.2h-.3c-.5 0-.7-.3-.7-.7v-3.4h1.3zm4.7-1.4h-.1c-1 0-1.8.7-2.1 1.6v-1.4h-1.4v6.5h1.3v-2.9c0-1.5.7-2.2 2-2.2h.3v-1.6zm3.4 7c1 0 1.7-.6 2.1-1.3v1h1.4v-6.5H213v1c-.5-.7-1.2-1.2-2.2-1.2-1.8 0-3.2 1.3-3.2 3.5 0 2.1 1.4 3.4 3.2 3.4zm.3-1.4c-1.3 0-2-.9-2-2.1 0-1.3.7-2.1 2-2.1 1.2 0 2 .8 2 2 0 1.3-.8 2.2-2 2.2zm8 1.3c.9 0 1.6-.2 2.3-.6l-.7-1.2a3 3 0 01-1.6.5c-1.2 0-2-1-2-2.1 0-1.3.8-2.1 2-2.1a3 3 0 011.6.4l.7-1.1c-.7-.5-1.4-.7-2.2-.7-2.1 0-3.6 1.4-3.6 3.5 0 2 1.5 3.4 3.6 3.4zm6.6-5.5v-1.2h-1.3V98H223v2.6H222v1.2h1.1v3.6c0 1.1.6 1.7 1.8 1.7h.6v-1.2h-.3c-.5 0-.7-.3-.7-.7v-3.4h1.3zm2.7-4.4h-1.7V99h1.7v-1.7zM227 107h1.4v-6.5h-1.4v6.5zm6.6-6.7c-1 0-1.7.5-2.1 1.2v-1H230v6.5h1.4v-3c0-1.7.7-2.3 1.7-2.3s1.5.5 1.5 1.6v3.7h1.3v-4c0-2-1-2.7-2.4-2.7zm7.3 9.7c1.7 0 3-.5 3-3v-6.5h-1.3v1c-.4-.7-1.1-1.2-2.2-1.2-1.7 0-3.2 1.3-3.2 3.5 0 2.1 1.5 3.4 3.2 3.4 1 0 1.8-.5 2.2-1.2v.8c0 1.4-.4 1.9-1.7 1.9a11 11 0 01-2.2-.3l-.3 1.3c.8.2 1.7.3 2.5.3zm-.2-4.1c-1.2 0-2-.9-2-2.1 0-1.3.8-2.1 2-2.1s2 .8 2 2c0 1.3-.8 2.2-2 2.2zm12.7-5.6h-.1c-1.1 0-1.9.7-2.2 1.6v-1.4h-1.4v6.5h1.4v-2.9c0-1.5.7-2.2 2-2.2h.3v-1.6zm3.5 0c-2.1 0-3.3 1.5-3.3 3.5s1.3 3.4 3.3 3.4c1.6 0 2.5-.9 3-1.5l-1-1c-.3.5-1 1.2-2 1.2-1.1 0-1.9-.8-2-2h5v-.1c0-2.1-1-3.5-3-3.5zm-.1 1.3c1 0 1.6.5 1.7 1.4h-3.5c.2-1 .9-1.4 1.8-1.4zm7.2-3.3h.2v-1.2h-.3c-1.6 0-2.5 1-2.5 2.5v1h-1v1h1v5.4h1.4v-5.3h1.2v-1.2h-1.2v-1c0-.8.5-1.2 1.2-1.2zm3.9 2c-2 0-3.5 1.5-3.5 3.5s1.5 3.4 3.5 3.4 3.5-1.4 3.5-3.4-1.5-3.5-3.5-3.5zm0 1.4c1.2 0 2 .8 2 2 0 1.3-.8 2.2-2 2.2s-2-.9-2-2.1c0-1.3.8-2.1 2-2.1zm8.5-1.4h-.1c-1.1 0-1.9.7-2.2 1.6v-1.4h-1.4v6.5h1.4v-2.9c0-1.5.7-2.2 2-2.2h.3v-1.6zm1 6.7h1.3v-3.3c0-1.5.6-2 1.4-2 .9 0 1.3.5 1.3 1.4v3.9h1.4v-3.4c0-1.4.6-2 1.5-2 .8 0 1.2.6 1.2 1.5v3.9h1.4v-4c0-2-1-2.7-2.2-2.7-.8 0-1.6.4-2 1.3a2 2 0 00-2-1.3c-.8 0-1.6.4-2 1.2v-1h-1.4v6.5zm13.1.2c1.5 0 2.5-.6 2.5-2 0-.8-.4-1.4-1.3-1.8l-1.2-.5c-.5-.3-.7-.5-.7-.8 0-.3.2-.5.8-.5.6 0 1.2.2 1.7.4l.6-1.2c-.7-.3-1.5-.5-2.3-.5-1.4 0-2.3.7-2.3 1.9 0 .7.4 1.4 1.4 1.8l1.2.6c.5.3.7.5.7.7 0 .4-.4.6-1 .6a4 4 0 01-2.1-.6l-.6 1.2c.7.5 1.7.7 2.6.7zM68 118.3c-2 0-3.6 1.5-3.6 3.5s1.5 3.4 3.6 3.4c2 0 3.5-1.4 3.5-3.4s-1.5-3.5-3.5-3.5zm0 1.4c1.2 0 2 .8 2 2 0 1.3-.8 2.2-2 2.2-1.3 0-2.1-.9-2.1-2.1 0-1.3.8-2.1 2-2.1zm8.3-1.4c-1 0-1.7.5-2.1 1.2v-1h-1.4v6.5H74v-3c0-1.7.8-2.3 1.8-2.3.9 0 1.4.5 1.4 1.6v3.7h1.4v-4c0-2-1-2.7-2.4-2.7zm11.3 1.4v-1.2h-1.3V116h-1.4v2.6h-1.1v1.2h1.1v3.6c0 1.1.6 1.7 1.8 1.7h.6v-1.2H87c-.5 0-.7-.3-.7-.7v-3.4h1.3zm2.6-4.5h-1.4v9.8h1.4v-3c0-1.7.7-2.3 1.7-2.3.9 0 1.5.5 1.5 1.6v3.7h1.3v-4c0-2-1-2.7-2.4-2.7-1 0-1.7.5-2.1 1.2v-4.3zm9 3.1c-2 0-3.3 1.5-3.3 3.5s1.3 3.4 3.4 3.4c1.6 0 2.4-.9 3-1.5l-1-1c-.4.5-1 1.2-2 1.2-1.1 0-2-.8-2-2h5v-.1c0-2.1-1.1-3.5-3-3.5zm0 1.3c1 0 1.6.5 1.6 1.4h-3.4c.1-1 .8-1.4 1.7-1.4zm11.7 8.4c1.7 0 3-.5 3-3v-6.5h-1.3v1c-.5-.7-1.2-1.2-2.2-1.2-1.7 0-3.2 1.3-3.2 3.5 0 2.1 1.5 3.4 3.2 3.4 1 0 1.7-.5 2.1-1.2v.8c0 1.4-.4 1.9-1.6 1.9a11 11 0 01-2.2-.3l-.3 1.3c.8.2 1.7.3 2.5.3zm-.2-4.1c-1.2 0-2-.9-2-2.1 0-1.3.8-2.1 2-2.1s2 .8 2 2c0 1.3-.8 2.2-2 2.2zm8.6-5.6h-.1c-1.1 0-1.9.7-2.2 1.6v-1.4h-1.4v6.5h1.4v-2.9c0-1.5.7-2.2 2-2.2h.3v-1.6zm3.7 0c-2 0-3.5 1.5-3.5 3.5s1.5 3.4 3.5 3.4 3.6-1.4 3.6-3.4-1.6-3.5-3.6-3.5zm0 1.4c1.3 0 2.1.8 2.1 2 0 1.3-.8 2.2-2 2.2-1.3 0-2.2-.9-2.2-2.1 0-1.3.9-2.1 2.1-2.1zm7.1 5.5a2 2 0 002-1.2v1h1.4v-6.5h-1.4v3.1c0 1.7-.6 2.3-1.6 2.3-.8 0-1.3-.5-1.3-1.6v-3.8h-1.4v4c0 2 1 2.7 2.3 2.7zm8.6-6.9c-1 0-1.7.5-2.1 1.2v-1h-1.4v6.5h1.4v-3c0-1.7.7-2.3 1.7-2.3s1.5.5 1.5 1.6v3.7h1.3v-4c0-2-1-2.7-2.4-2.7zm6.8 7c1 0 1.8-.6 2.2-1.3v1h1.4v-9.8h-1.4v4.3c-.4-.7-1.1-1.2-2.2-1.2-1.7 0-3.2 1.3-3.2 3.5 0 2.1 1.5 3.4 3.2 3.4zm.3-1.4c-1.2 0-2-.9-2-2.1 0-1.3.8-2.1 2-2.1s2 .8 2 2c0 1.3-.8 2.2-2 2.2zm6.6-5.4h-1.6v1.7h1.6v-1.7zm0 4.8h-1.6v1.7h.7l-.7 2h.6l1-2v-1.7z"/>
			<circle id="Oval" cx="23.1" cy="102.9" r="22.9" fill="#FFF"/>
			<path id="Shape" fill="#4D4D53" d="M16 112h14.1v-4h-8l4.3-4.1c2.7-2.5 3.7-4.3 3.7-6.6 0-3.7-2.6-6-7-6-4.6 0-7.3 2.5-7.3 6.8h4.6c0-1.7 1-2.6 2.6-2.6 1.5 0 2.4.8 2.4 2.1 0 1.2-.7 2.3-2.6 4l-6.8 6.8v3.6z"/>
			<path id="Shape" fill="#FFF" d="M70.1 171.8c1-.3 1.5-1.1 1.5-2.1 0-1.6-1.2-2.5-2.9-2.5H65v9.8h4c1.7 0 3-1 3-2.8 0-1.3-.7-2.2-1.9-2.4zm-1.7-3.2c1 0 1.6.4 1.6 1.3s-.6 1.4-1.7 1.4h-1.9v-2.7h2zm.4 7h-2.4v-3h2.2c1.3 0 2 .6 2 1.5 0 1-.7 1.5-1.8 1.5zm7 1.6a2 2 0 002-1.2v1h1.4v-6.5h-1.4v3.1c0 1.7-.7 2.3-1.6 2.3-.8 0-1.4-.5-1.4-1.6v-3.8h-1.4v4c0 2 1.1 2.7 2.4 2.7zm6.7-9.9h-1.7v1.7h1.7v-1.7zm-1.6 9.7h1.4v-6.5H81v6.5zm4.6-9.8H84v9.8h1.4v-9.8zm4.5 10c1 0 1.7-.5 2.1-1.2v1h1.4v-9.8h-1.3v4.3c-.5-.7-1.2-1.2-2.2-1.2-1.7 0-3.2 1.3-3.2 3.5 0 2.1 1.5 3.4 3.2 3.4zm.3-1.3c-1.2 0-2-.9-2-2.1 0-1.3.8-2.1 2-2.1s2 .8 2 2c0 1.3-.8 2.2-2 2.2zm6.6-8.6h-1.7v1.7H97v-1.7zm-1.5 9.7h1.3v-6.5h-1.3v6.5zm6.6-6.7c-1 0-1.7.5-2.1 1.2v-1h-1.4v6.5h1.4v-3c0-1.7.7-2.3 1.7-2.3.9 0 1.5.5 1.5 1.6v3.7h1.3v-4c0-2-1-2.7-2.4-2.7zm7.3 9.7c1.7 0 3-.5 3-3v-6.5H111v1c-.4-.7-1.2-1.2-2.2-1.2-1.7 0-3.2 1.3-3.2 3.5 0 2.1 1.5 3.4 3.2 3.4 1 0 1.8-.5 2.2-1.2v.8c0 1.4-.5 1.9-1.7 1.9a11 11 0 01-2.2-.3l-.3 1.3c.8.2 1.7.3 2.5.3zm-.2-4.1c-1.2 0-2-.9-2-2.1 0-1.3.8-2.1 2-2.1s2 .8 2 2c0 1.3-.8 2.2-2 2.2zm11.7 1.3c1.1 0 1.8-.5 2.2-1.2v1h1.4v-6.5H123v1c-.4-.7-1.1-1.2-2.2-1.2-1.7 0-3.1 1.3-3.1 3.5 0 2.1 1.4 3.4 3.1 3.4zm.3-1.3c-1.2 0-2-.9-2-2.1 0-1.3.8-2.1 2-2.1s2 .8 2 2c0 1.3-.8 2.2-2 2.2zm11 1.3c1.6 0 2.6-.6 2.6-2 0-.8-.5-1.4-1.3-1.8l-1.2-.5c-.6-.3-.7-.5-.7-.8 0-.3.1-.5.8-.5.6 0 1.2.2 1.7.4l.5-1.2c-.7-.3-1.5-.5-2.2-.5-1.4 0-2.3.7-2.3 1.9 0 .7.4 1.4 1.4 1.8l1.1.6c.6.3.7.5.7.7 0 .4-.3.6-1 .6a4 4 0 01-2-.6l-.7 1.2c.8.5 1.7.7 2.7.7zm6.6-6.9c-2 0-3.3 1.5-3.3 3.5s1.3 3.4 3.4 3.4c1.6 0 2.4-.9 2.9-1.5l-1-1c-.3.5-.9 1.2-2 1.2-1 0-1.9-.8-2-2h5v-.1c0-2.1-1-3.5-3-3.5zm0 1.3c.9 0 1.5.5 1.6 1.4h-3.5c.2-1 .9-1.4 1.8-1.4zm5.8-4.4H143v9.8h1.4v-9.8zm4.7 1.1h.2v-1.2h-.2c-1.6 0-2.5 1-2.5 2.5v1h-1v1h1v5.4h1.4v-5.3h1.2v-1.2h-1.2v-1c0-.8.5-1.2 1.1-1.2zm4.2 4.3h-3.6v1.4h3.6v-1.4zm3.5 4.6c1.5 0 2.5-.6 2.5-2 0-.8-.4-1.4-1.3-1.8l-1.2-.5c-.5-.3-.7-.5-.7-.8 0-.3.2-.5.8-.5.6 0 1.2.2 1.7.4l.6-1.2c-.7-.3-1.5-.5-2.3-.5-1.4 0-2.3.7-2.3 1.9 0 .7.4 1.4 1.4 1.8l1.2.6c.5.3.7.5.7.7 0 .4-.4.6-1 .6a4 4 0 01-2.1-.6l-.6 1.2c.7.5 1.7.7 2.6.7zm6 0a2 2 0 002-1.2v1h1.3v-6.5H165v3.1c0 1.7-.7 2.3-1.7 2.3-.8 0-1.3-.5-1.3-1.6v-3.8h-1.4v4c0 2 1 2.7 2.4 2.7zm7 0c1.5 0 2.5-.6 2.5-2 0-.8-.4-1.4-1.2-1.8l-1.2-.5c-.6-.3-.8-.5-.8-.8 0-.3.2-.5.8-.5.6 0 1.2.2 1.7.4l.6-1.2c-.7-.3-1.5-.5-2.2-.5-1.5 0-2.3.7-2.3 1.9 0 .7.3 1.4 1.3 1.8l1.2.6c.5.3.7.5.7.7 0 .4-.4.6-1 .6a4 4 0 01-2-.6l-.7 1.2c.7.5 1.7.7 2.6.7zm6.9-5.5v-1.2h-1.3V168H174v2.6h-1.2v1.2h1.2v3.6c0 1.1.6 1.7 1.7 1.7h.7v-1.2h-.4c-.4 0-.6-.3-.6-.7v-3.4h1.3zm3.5 5.5c1.1 0 1.8-.5 2.2-1.2v1h1.4v-6.5h-1.3v1c-.5-.7-1.2-1.2-2.3-1.2-1.7 0-3.1 1.3-3.1 3.5 0 2.1 1.4 3.4 3.1 3.4zm.3-1.3c-1.2 0-2-.9-2-2.1 0-1.3.8-2.1 2-2.1s2 .8 2 2c0 1.3-.8 2.2-2 2.2zm6.6-8.6h-1.7v1.7h1.7v-1.7zm-1.5 9.7h1.4v-6.5h-1.4v6.5zm6.6-6.7c-1 0-1.7.5-2.1 1.2v-1h-1.4v6.5h1.4v-3c0-1.7.7-2.3 1.7-2.3s1.5.5 1.5 1.6v3.7h1.4v-4c0-2-1.1-2.7-2.5-2.7zm5.7-3h-1.7v1.7h1.7v-1.7zm-1.6 9.7h1.4v-6.5h-1.4v6.5zm6.7-6.7c-1 0-1.7.5-2.2 1.2v-1h-1.4v6.5h1.4v-3c0-1.7.7-2.3 1.7-2.3s1.5.5 1.5 1.6v3.7h1.4v-4c0-2-1-2.7-2.4-2.7zm7.3 9.7c1.6 0 3-.5 3-3v-6.5h-1.3v1c-.5-.7-1.2-1.2-2.3-1.2-1.7 0-3.1 1.3-3.1 3.5 0 2.1 1.4 3.4 3.1 3.4 1.1 0 1.8-.5 2.2-1.2v.8c0 1.4-.4 1.9-1.6 1.9a11 11 0 01-2.3-.3l-.2 1.3c.8.2 1.7.3 2.5.3zm-.3-4.1c-1.2 0-2-.9-2-2.1 0-1.3.8-2.1 2-2.1s2 .8 2 2c0 1.3-.8 2.2-2 2.2zm12.2 1.3c.8 0 1.6-.2 2.2-.6l-.6-1.2a3 3 0 01-1.6.5c-1.3 0-2.1-1-2.1-2.1 0-1.3.8-2.1 2-2.1a3 3 0 011.7.4l.6-1.1c-.6-.5-1.4-.7-2.2-.7-2 0-3.6 1.4-3.6 3.5 0 2 1.5 3.4 3.6 3.4zm6-6.9c-2 0-3.5 1.5-3.5 3.5s1.5 3.4 3.5 3.4 3.6-1.4 3.6-3.4-1.5-3.5-3.6-3.5zm0 1.4c1.3 0 2.1.8 2.1 2 0 1.3-.8 2.2-2 2.2-1.3 0-2.2-.9-2.2-2.1 0-1.3.9-2.1 2.1-2.1zm4.8 5.3h1.4v-3.3c0-1.5.6-2 1.5-2 .8 0 1.2.5 1.2 1.4v3.9h1.4v-3.4c0-1.4.6-2 1.5-2 .8 0 1.2.6 1.2 1.5v3.9h1.4v-4c0-2-1-2.7-2.2-2.7-.8 0-1.6.4-2 1.3a2 2 0 00-2-1.3c-.8 0-1.6.4-2 1.2v-1h-1.4v6.5zm11.2 0h1.4v-3.3c0-1.5.6-2 1.4-2 .9 0 1.3.5 1.3 1.4v3.9h1.4v-3.4c0-1.4.6-2 1.5-2 .8 0 1.2.6 1.2 1.5v3.9h1.4v-4c0-2-1-2.7-2.2-2.7-.8 0-1.6.4-2 1.3a2 2 0 00-2-1.3c-.9 0-1.6.4-2 1.2v-1h-1.4v6.5zm13.5.2a2 2 0 002-1.2v1h1.4v-6.5h-1.4v3.1c0 1.7-.7 2.3-1.6 2.3-.8 0-1.4-.5-1.4-1.6v-3.8h-1.4v4c0 2 1.1 2.7 2.4 2.7zm8.6-6.9c-1 0-1.7.5-2.1 1.2v-1h-1.4v6.5h1.3v-3c0-1.7.8-2.3 1.8-2.3.9 0 1.5.5 1.5 1.6v3.7h1.3v-4c0-2-1-2.7-2.4-2.7zm5.6-3h-1.6v1.7h1.6v-1.7zm-1.5 9.7h1.4v-6.5h-1.4v6.5zm6.3-5.3v-1.2h-1.3V168h-1.4v2.6H273v1.2h1.1v3.6c0 1.1.7 1.7 1.8 1.7h.6v-1.2h-.3c-.5 0-.7-.3-.7-.7v-3.4h1.3zm5.5-1.2l-1.7 4.3-1.8-4.3h-1.6l2.7 6-1.6 3.3h1.5l4-9.3h-1.5zM68 188.3c-2 0-3.6 1.5-3.6 3.5s1.5 3.4 3.6 3.4c2 0 3.5-1.4 3.5-3.4s-1.5-3.5-3.5-3.5zm0 1.4c1.2 0 2 .8 2 2 0 1.3-.8 2.2-2 2.2-1.3 0-2.1-.9-2.1-2.1 0-1.3.8-2.1 2-2.1zm7.5-3.4h.2v-1.2h-.2c-1.6 0-2.5 1-2.5 2.5v1h-1v1h1v5.4h1.3v-5.3h1.3v-1.2h-1.3v-1c0-.8.5-1.2 1.2-1.2zm5.3 11.5H82V194c.5.7 1.2 1.2 2.2 1.2 1.7 0 3.2-1.3 3.2-3.4 0-2.2-1.5-3.5-3.2-3.5-1 0-1.7.5-2.1 1.2v-1h-1.4v9.3zm3.2-4c-1.2 0-2-.8-2-2 0-1.3.8-2.1 2-2.1s2 .8 2 2c0 1.3-.8 2.2-2 2.2zm7.9-5.5c-2 0-3.6 1.5-3.6 3.5s1.5 3.4 3.6 3.4c2 0 3.5-1.4 3.5-3.4s-1.5-3.5-3.5-3.5zm0 1.4c1.2 0 2 .8 2 2 0 1.3-.8 2.2-2 2.2-1.3 0-2.1-.9-2.1-2.1 0-1.3.8-2.1 2-2.1zm6.2-4.5h-1.3v9.8H98v-9.8zm3.4.1h-1.7v1.7h1.7v-1.7zm-1.6 9.7h1.4v-6.5H100v6.5zm6.3.2c.8 0 1.5-.2 2.2-.6l-.6-1.2a3 3 0 01-1.7.5c-1.2 0-2-1-2-2.1 0-1.3.8-2.1 2-2.1a3 3 0 011.7.4l.6-1.1c-.7-.5-1.4-.7-2.2-.7-2.1 0-3.6 1.4-3.6 3.5 0 2 1.5 3.4 3.6 3.4zm7.7-6.7l-1.7 4.3-1.8-4.3h-1.7l2.8 6-1.6 3.3h1.5l4-9.3h-1.5zm9 6.7c1 0 1.7-.5 2.1-1.2v1h1.4v-6.5H125v1c-.4-.7-1.1-1.2-2.2-1.2-1.7 0-3.1 1.3-3.1 3.5 0 2.1 1.4 3.4 3.1 3.4zm.2-1.3c-1.2 0-2-.9-2-2.1 0-1.3.8-2.1 2-2.1s2 .8 2 2c0 1.3-.8 2.2-2 2.2zm8.5-5.6c-1 0-1.7.5-2.1 1.2v-1H128v6.5h1.4v-3c0-1.7.7-2.3 1.7-2.3s1.5.5 1.5 1.6v3.7h1.4v-4c0-2-1.1-2.7-2.5-2.7zm6.8 7c1 0 1.8-.6 2.2-1.3v1h1.4v-9.8h-1.4v4.3c-.4-.7-1.1-1.2-2.2-1.2-1.7 0-3.2 1.3-3.2 3.5 0 2.1 1.5 3.4 3.2 3.4zm.3-1.4c-1.2 0-2-.9-2-2.1 0-1.3.8-2.1 2-2.1s2 .8 2 2c0 1.3-.8 2.2-2 2.2zm9 3.9h1.5V194c.4.7 1.1 1.2 2.2 1.2 1.7 0 3.1-1.3 3.1-3.4 0-2.2-1.4-3.5-3.1-3.5-1 0-1.8.5-2.2 1.2v-1h-1.4v9.3zm3.4-4c-1.2 0-2-.8-2-2 0-1.3.8-2.1 2-2.1s2 .8 2 2c0 1.3-.8 2.2-2 2.2zm8.3-5.5c-1.2 0-2 .7-2.2 1.6v-1.4h-1.4v6.5h1.4v-2.9c0-1.5.7-2.2 2-2.2h.2v-1.6zm3.4 7c1 0 1.8-.6 2.2-1.3v1h1.4v-6.5H165v1c-.4-.7-1.2-1.2-2.2-1.2-1.7 0-3.2 1.3-3.2 3.5 0 2.1 1.5 3.4 3.2 3.4zm.3-1.4c-1.2 0-2-.9-2-2.1 0-1.3.8-2.1 2-2.1s2 .8 2 2c0 1.3-.8 2.2-2 2.2zm8 1.3c1 0 1.6-.2 2.3-.6l-.6-1.2a3 3 0 01-1.7.5c-1.2 0-2-1-2-2.1 0-1.3.8-2.1 2-2.1a3 3 0 011.7.4l.6-1.1c-.7-.5-1.4-.7-2.2-.7-2.1 0-3.6 1.4-3.6 3.5 0 2 1.5 3.4 3.6 3.4zm6.6-5.5v-1.2h-1.3V186H175v2.6H174v1.2h1.1v3.6c0 1.1.7 1.7 1.8 1.7h.6v-1.2h-.3c-.5 0-.7-.3-.7-.7v-3.4h1.3zm2.7-4.4h-1.6v1.7h1.6v-1.7zM179 195h1.4v-6.5h-1.4v6.5zm6.3.2c.8 0 1.5-.2 2.2-.6l-.7-1.2a3 3 0 01-1.6.5c-1.2 0-2-1-2-2.1 0-1.3.8-2.1 2-2.1a3 3 0 011.6.4l.7-1.1c-.7-.5-1.4-.7-2.2-.7-2.1 0-3.6 1.4-3.6 3.5 0 2 1.5 3.4 3.6 3.4zm5.7-6.9c-2 0-3.3 1.5-3.3 3.5s1.4 3.4 3.4 3.4c1.6 0 2.5-.9 3-1.5l-1-1c-.3.5-1 1.2-2 1.2-1.1 0-2-.8-2-2h5v-.1c0-2.1-1-3.5-3-3.5zm0 1.3c1 0 1.6.5 1.7 1.4H189c.2-1 .8-1.4 1.8-1.4zm6-1h-1.7v1.6h1.7v-1.7zm0 4.7h-1.7v1.7h.8l-.8 2h.7l1-2v-1.7z"/>
			<circle id="Oval" cx="23.9" cy="181.9" r="22.9" fill="#FFF"/>
			<path id="Shape" fill="#4D4D53" d="M23.7 171.1c-4.6 0-7.2 2.3-7.2 6.2H21c0-1.2 1-2 2.4-2 1.5 0 2.3.7 2.3 2 0 1.7-1 2.4-3.2 2.4h-.7v3.4h.7c3 0 4 .7 4 2.5 0 1.6-1 2.5-2.8 2.5-1.8 0-2.8-.8-3-2.4h-4.7c0 4.2 2.8 6.6 7.7 6.6 4.8 0 7.5-2.3 7.5-6.3 0-2.8-1.5-4.5-4.2-5a4.4 4.4 0 003.6-4.5c0-3.4-2.5-5.4-7-5.4z"/>
			<path id="Shape" fill="#FFF" d="M67.4 252.2H66v9.8h5.7v-1.4h-4.3v-8.4zm8 3.1c-2.1 0-3.3 1.5-3.3 3.5s1.3 3.4 3.3 3.4c1.6 0 2.5-.9 3-1.5l-1-1c-.3.5-1 1.2-2 1.2-1.1 0-2-.8-2-2h5v-.1c0-2.1-1-3.5-3-3.5zm-.1 1.3c1 0 1.6.5 1.7 1.4h-3.5c.2-1 .8-1.4 1.8-1.4zm7.1 5.6c1.1 0 1.8-.5 2.2-1.2v1H86v-6.5h-1.4v1c-.4-.7-1.1-1.2-2.2-1.2-1.7 0-3.1 1.3-3.1 3.5 0 2.1 1.4 3.4 3.1 3.4zm.3-1.3c-1.2 0-2-.9-2-2.1 0-1.3.8-2.1 2-2.1s2 .8 2 2c0 1.3-.8 2.2-2 2.2zm8.6-5.6c-1.1 0-1.9.7-2.2 1.6v-1.4h-1.4v6.5h1.4v-2.9c0-1.5.7-2.2 2-2.2h.2v-1.6zm4.5 0c-1 0-1.7.5-2 1.2h-.1v-1h-1.4v6.5h1.4v-3c0-1.7.7-2.3 1.7-2.3s1.5.5 1.5 1.6v3.7h1.4v-4c0-2-1-2.7-2.5-2.7zm5.7-3h-1.7v1.7h1.7v-1.7zM100 262h1.3v-6.5H100v6.5zm6.6-6.7c-1 0-1.7.5-2.1 1.2v-1H103v6.5h1.3v-3c0-1.7.8-2.3 1.8-2.3.9 0 1.4.5 1.4 1.6v3.7h1.4v-4c0-2-1-2.7-2.4-2.7zm7.3 9.7c1.7 0 3-.5 3-3v-6.5h-1.3v1c-.5-.7-1.2-1.2-2.2-1.2-1.7 0-3.2 1.3-3.2 3.5 0 2.1 1.5 3.4 3.2 3.4 1 0 1.7-.5 2.1-1.2v.8c0 1.4-.4 1.9-1.6 1.9a11 11 0 01-2.2-.3l-.3 1.3c.8.2 1.7.3 2.5.3zm-.2-4.1c-1.3 0-2-.9-2-2.1 0-1.3.7-2.1 2-2.1 1.2 0 2 .8 2 2 0 1.3-.8 2.2-2 2.2zm11.7 1.3c1 0 1.8-.5 2.2-1.2v1h1.4v-6.5h-1.4v1c-.4-.7-1.1-1.2-2.2-1.2-1.7 0-3.1 1.3-3.1 3.5 0 2.1 1.4 3.4 3.1 3.4zm.3-1.3c-1.2 0-2-.9-2-2.1 0-1.3.8-2.1 2-2.1s2 .8 2 2c0 1.3-.8 2.2-2 2.2zm8.5-5.6c-1 0-1.7.5-2.1 1.2v-1h-1.4v6.5h1.4v-3c0-1.7.7-2.3 1.7-2.3.9 0 1.5.5 1.5 1.6v3.7h1.3v-4c0-2-1-2.7-2.4-2.7zm6.8 7c1 0 1.8-.6 2.2-1.3v1h1.4v-9.8h-1.4v4.3c-.4-.7-1.2-1.2-2.2-1.2-1.7 0-3.2 1.3-3.2 3.5 0 2.1 1.5 3.4 3.2 3.4zm.3-1.4c-1.2 0-2-.9-2-2.1 0-1.3.8-2.1 2-2.1s2 .8 2 2c0 1.3-.8 2.2-2 2.2zm11 1.3c1.6 0 2.6-.6 2.6-2 0-.8-.5-1.4-1.3-1.8l-1.2-.5c-.6-.3-.7-.5-.7-.8 0-.3.2-.5.8-.5.6 0 1.2.2 1.7.4l.5-1.2c-.6-.3-1.5-.5-2.2-.5-1.4 0-2.3.7-2.3 1.9 0 .7.4 1.4 1.4 1.8l1.1.6c.6.3.7.5.7.7 0 .4-.3.6-1 .6a4 4 0 01-2-.6l-.7 1.2c.8.5 1.8.7 2.7.7zm5.2-10H156v9.8h1.4v-3c0-1.7.7-2.3 1.7-2.3s1.5.5 1.5 1.6v3.7h1.3v-4c0-2-1-2.7-2.4-2.7-1 0-1.7.5-2.1 1.2v-4.3zm8.9 10c1 0 1.8-.5 2.2-1.2v1h1.4v-6.5h-1.4v1c-.4-.7-1.2-1.2-2.2-1.2-1.7 0-3.2 1.3-3.2 3.5 0 2.1 1.5 3.4 3.2 3.4zm.3-1.3c-1.2 0-2-.9-2-2.1 0-1.3.8-2.1 2-2.1s2 .8 2 2c0 1.3-.8 2.2-2 2.2zm8.6-5.6h-.1c-1.1 0-1.8.7-2.2 1.6v-1.4h-1.4v6.5h1.4v-2.9c0-1.5.7-2.2 2-2.2h.3v-1.6zm2.6-3h-1.7v1.7h1.7v-1.7zm-1.6 9.7h1.4v-6.5h-1.4v6.5zm6.7-6.7c-1 0-1.7.5-2.1 1.2v-1h-1.4v6.5h1.3v-3c0-1.7.7-2.3 1.7-2.3s1.5.5 1.5 1.6v3.7h1.4v-4c0-2-1-2.7-2.4-2.7zm7.3 9.7c1.6 0 3-.5 3-3v-6.5H192v1c-.5-.7-1.2-1.2-2.3-1.2-1.7 0-3.1 1.3-3.1 3.5 0 2.1 1.4 3.4 3.1 3.4 1.1 0 1.8-.5 2.2-1.2v.8c0 1.4-.4 1.9-1.6 1.9a11 11 0 01-2.3-.3l-.2 1.3c.8.2 1.7.3 2.5.3zm-.3-4.1c-1.2 0-2-.9-2-2.1 0-1.3.8-2.1 2-2.1s2 .8 2 2c0 1.3-.8 2.2-2 2.2zm16.5-5.4l-1.3 4.7-1.5-4.7h-1.4l-1.5 4.7-1.3-4.7H198l2.2 6.5h1.3l1.5-4.6 1.6 4.6h1.2l2.2-6.5h-1.5zm3.7-3.3h-1.4v9.8h1.4v-3c0-1.7.7-2.3 1.7-2.3s1.5.5 1.5 1.6v3.7h1.4v-4c0-2-1-2.7-2.5-2.7-1 0-1.7.5-2 1.2h-.1v-4.3zm9 10c1 0 1.7-.5 2-1.2h.1v1h1.4v-6.5h-1.4v1c-.4-.7-1.1-1.2-2.2-1.2-1.7 0-3.1 1.3-3.1 3.5 0 2.1 1.4 3.4 3.1 3.4zm.2-1.3c-1.2 0-2-.9-2-2.1 0-1.3.8-2.1 2-2.1s2 .8 2 2c0 1.3-.8 2.2-2 2.2zm8.2-4.2v-1.2h-1.3V253h-1.4v2.6h-1.2v1.2h1.2v3.6c0 1.1.6 1.7 1.7 1.7h.7v-1.2h-.4c-.4 0-.6-.3-.6-.7v-3.4h1.3zm12.6-1.2l-1.3 4.7-1.5-4.7H236l-1.5 4.7-1.3-4.7h-1.5l2.2 6.5h1.2l1.6-4.6 1.5 4.6h1.3l2.2-6.5h-1.5zm5.1-.2c-2 0-3.5 1.5-3.5 3.5s1.5 3.4 3.5 3.4 3.6-1.4 3.6-3.4-1.5-3.5-3.6-3.5zm0 1.4c1.3 0 2.1.8 2.1 2 0 1.3-.8 2.2-2 2.2-1.3 0-2.1-.9-2.1-2.1 0-1.3.8-2.1 2-2.1zm8.5-1.4h-.1c-1.1 0-1.8.7-2.1 1.6v-1.4h-1.4v6.5h1.3v-2.9c0-1.5.7-2.2 2-2.2h.3v-1.6zm6.8 6.7l-3-3.5 2.7-3h-1.8l-2.3 2.8v-6.1h-1.4v9.8h1.4v-3.2l2.6 3.2h1.8zm3 .2c1.5 0 2.5-.6 2.5-2 0-.8-.5-1.4-1.3-1.8l-1.2-.5c-.6-.3-.8-.5-.8-.8 0-.3.2-.5.8-.5.7 0 1.3.2 1.7.4l.6-1.2c-.7-.3-1.5-.5-2.2-.5-1.4 0-2.3.7-2.3 1.9 0 .7.3 1.4 1.3 1.8l1.2.6c.6.3.7.5.7.7 0 .4-.4.6-1 .6a4 4 0 01-2-.6l-.7 1.2c.8.5 1.7.7 2.6.7zm5.2-1.9H267v1.7h1.7v-1.7z"/>
			<circle id="Oval" cx="24.8" cy="259.9" r="22.9" fill="#FFF"/>
			<path id="Shape" fill="#4D4D53" d="M31.7 261.7H30v-13h-4.7l-9.5 13.5v3.4h10v3.4h4.2v-3.4h1.8v-4zm-11.4 0l5.2-7.4h.2v7.4h-5.4z"/>
		</g>
		<g id="logo" fill-rule="nonzero" transform="translate(17 34)">
			<circle id="Oval" cx="139" cy="139" r="139" fill="#4D4D53" stroke="#D6E100" stroke-width="34"/>
			<path id="Shape" fill="#D4D91E" d="M81.6 117.3c0 5.6-4.2 9.3-9.5 9.3-5.4 0-9.6-3.7-9.6-9.3 0-5.6 4.2-9.3 9.6-9.3 5.3 0 9.5 3.7 9.5 9.3zm-14 0c0 2.8 2 4.5 4.5 4.5s4.4-1.7 4.4-4.5-1.9-4.4-4.4-4.4c-2.6 0-4.5 1.6-4.5 4.4zM81.6 140.7c0 5.6-4.2 9.3-9.5 9.3-5.4 0-9.6-3.7-9.6-9.3 0-5.6 4.2-9.3 9.6-9.3 5.3 0 9.5 3.7 9.5 9.3zm-14 0c0 2.8 2 4.5 4.5 4.5s4.4-1.7 4.4-4.5-1.9-4.4-4.4-4.4c-2.6 0-4.5 1.6-4.5 4.4z"/>
			<path id="Shape" fill="#FFF" d="M215 159.5c1.3 0 2.3.6 2.3 2s-1 2-2.4 2h-2v-4h2zm0-4.3h-7v17.9h5v-5.3h2c5.2 0 7.3-2.7 7.3-6.3 0-3.6-2.1-6.3-7.2-6.3zm-9.8 0h-4.9v17.9h4.9v-17.9zm-40.3 16.2c2.5 1.4 5 2 7.6 2 4.6 0 7-2 7-5.6 0-2.8-1.4-4-3.3-5l-3.7-2c-.7-.3-1-.6-1-1s.4-.6 1.2-.6c1.1 0 2.9.4 4.4 1.4l2-4.3a13.6 13.6 0 00-6-1.5c-4.6 0-6.8 2.2-6.8 5.4 0 2.3 1.1 4 3.2 5l4 2c.5.3.8.5.8 1 0 .6-.6.8-1.5.8-1.8 0-3.5-.7-5.7-2.2l-2.2 4.6zm-8.5-12c1.5 0 2.4.7 2.4 2s-1 2-2.4 2h-2.2v-3.9h2.2zm.6-4.2h-7.6v17.9h4.8v-6.7l4.7 6.7h6l-5-6.7c2.7-.8 3.9-3 3.9-5.3 0-3.1-2-5.9-6.8-5.9zm-10.6 0h-11.5v17.9h11.9v-4.5h-7V166h5.8v-4.2h-5.8v-2.2h6.6v-4.4zm-27.4 0h-3.8v17.9h4.8v-9.6l8.5 9.6h3.8v-17.9h-4.8v9.6l-8.5-9.6zm-6.9-5.5v-13.5h4.5v-4.4h-13.8v4.4h4.4v13.5h5zm1 5.5H99.4v4.4h4.5v13.5h4.9v-13.5h4.5v-4.4zm-17.4-23.4v9.6l-8.5-9.6h-3.8v17.9h4.9V140l8.5 9.6h3.8v-18h-4.9zm-44.6 9c0-3 2.3-4.6 5-4.6 1.5 0 2.6.5 3.8 1.3l2.6-4.1c-1.6-1.1-3.8-2-6.6-2-5.6 0-9.9 3.4-9.9 9.3 0 6 4.3 9.3 9.9 9.3 2.8 0 5-.8 6.6-2l-2.6-4a6.5 6.5 0 01-3.9 1.3c-2.6 0-4.9-1.6-4.9-4.6zm6.4 20.7c0 1.4-1 2-2.4 2h-2v-4h2c1.4 0 2.4.7 2.4 2zm5 0c0-3.6-2.2-6.3-7.3-6.3h-7v17.9h4.9v-5.3h2.1c5.1 0 7.3-2.7 7.3-6.3zm13.7 11.6h5.4l-7-17.9h-5.1l-7 17.9H68l4.2-12.8 4.1 12.8zm14.2-13.6c1.5 0 2.4.6 2.4 1.9 0 1.3-1 2-2.4 2h-2.1v-3.9h2.1zm.7-4.3h-7.7v17.9h4.9v-6.7l4.6 6.7h6l-5-6.7c2.7-.8 4-3 4-5.3 0-3.1-2.1-5.9-6.8-5.9zm1.6-40.5c0 1.3-1 2-2.4 2h-2v-4h2c1.4 0 2.4.6 2.4 2zm5 0c0-3.6-2.2-6.3-7.3-6.3h-7v17.8h4.9V121h2.1c5.1 0 7.3-2.7 7.3-6.3zm1.7 11.5h11.9v-4.4h-7v-2.6h5.8v-4.3h-5.8v-2h6.6v-4.5H99.4v17.8zm27 0h3.9v-17.8h-4.9v9.6l-8.5-9.6h-3.8v17.8h4.9v-9.6l8.5 9.6zM128 138c0 1.3-.9 2-2.3 2h-2.2v-4h2.2c1.4 0 2.3.6 2.3 2zm6.2 11.7l-5-6.7c2.7-.8 3.9-3 3.9-5.3 0-3.1-2-6-6.8-6h-7.6v18h4.8V143l4.6 6.7h6.1zm11.7-7.2h-3.6l1.8-5.6 1.8 5.6zm7.7 7.2l-7-17.9h-5.1l-7 17.9h5.4l1.1-3.4h6.2l1 3.4h5.4zm4.8-9c0-3 2.3-4.5 5-4.5 1.5 0 2.6.5 3.8 1.3l2.6-4.1c-1.6-1.1-3.8-2-6.6-2-5.6 0-10 3.4-10 9.3 0 6 4.4 9.3 10 9.3 2.8 0 5-.8 6.6-2l-2.6-4a6.5 6.5 0 01-3.9 1.3c-2.6 0-4.9-1.6-4.9-4.6zm22.5-4.5h4.5v-4.4h-13.9v4.4h4.5v13.5h4.9v-13.5zm6.5 13.5h4.9v-18h-5v18zm5.2 5.5v6.5h-6.2v-6.5h-4.8v17.9h4.8v-7h6.2v7h4.8v-17.9h-4.8zm15.6-5.5h3.8v-18H207v9.7l-8.5-9.6h-3.8v17.9h4.9V140l8.5 9.6zm14.6-6.6h4.4c-.2 1.3-1.3 2.3-3.6 2.3-3.2 0-4.8-2-4.8-4.7s1.7-4.6 4.7-4.6c1.5 0 3 .5 4.3 1.6l3-4c-2-1.5-4.3-2.3-7.2-2.3-6.4 0-10 4-10 9.3 0 5.6 4 9.4 9.8 9.4 5.7 0 8.7-3.8 8.7-9v-2h-9.3v4z"/>
		</g>
	</g>

</svg>
