<svg xmlns="http://www.w3.org/2000/svg" viewBox="0 0 834 350">

<defs>

	<style type="text/css">

		@media (max-width: 650px) {
			[id="desktop-points"] {
				display: none;
			}
		}

		@media (min-width: 651px) {
			[id="mobile-points"] {
				display: none;
			}
		}

	</style>

	<script type="text/javascript">

		var svg, originalViewBox, mq, updateViewBox;

		svg = document.querySelector('svg');

		/* Store the original value in a variable */
		originalViewBox = svg.getAttribute('viewBox');

		/* Define our media query and media query object */
		mq	= matchMedia("(max-width: 650px)");

		/* Define the handler */
		updateViewBox = function(){
				if (mq.matches) {
						/* Change the viewBox dimensions to show the hexagon */
						svg.setAttribute('viewBox', "0 0 315 705");
				} else {
						svg.setAttribute('viewBox', originalViewBox);
				}
		}

		/* Fire on document load */
		// WebKit/Blink browsers
		svg.onload = updateViewBox;

		// Firefox	IE
		svg.addEventListener('SVGLoad', updateViewBox, true);

		/* Fire if the media condition changes */
		mq.addListener(updateViewBox);

	</script>

</defs>

	<g id="Page-1" fill="none" fill-rule="evenodd" stroke="none" stroke-width="1">
		<g id="desktop-points" transform="translate(155)">
			<path id="Shape" stroke="#D6E100" stroke-width="4" d="M234 29.7L2 176.7M275.4 120l-274 57M284.7 216L.7 177M250 308.8L0 176.8"/>
			<text id="Advocating-for-a-global-norm-of-better,-more" fill="#FFF" font-family="GTEestiProDisplay-Regular, GT Eesti Pro Display" font-size="16" font-weight="normal">
			<tspan x="287" y="17.1">Advocating for a global norm of better, more</tspan>
			</text>
			<text id="responsive,-and-more-open-public-contracting;" fill="#FFF" font-family="GTEestiProDisplay-Regular, GT Eesti Pro Display" font-size="16" font-weight="normal">
			<tspan x="287" y="41.1">responsive, and more open public contracting;</tspan>
			</text>
			<text id="Supporting-systemic,-impactful-implementation" fill="#FFF" font-family="GTEestiProDisplay-Regular, GT Eesti Pro Display" font-size="16" font-weight="normal">
			<tspan x="331" y="107.1">Supporting systemic, impactful implementation</tspan>
			</text>
			<text id="of-contracting-reforms-on-the-ground;" fill="#FFF" font-family="GTEestiProDisplay-Regular, GT Eesti Pro Display" font-size="16" font-weight="normal">
			<tspan x="331" y="131.1">of contracting reforms on the ground;</tspan>
			</text>
			<text id="Building-a-self-sustaining-community" fill="#FFF" font-family="GTEestiProDisplay-Regular, GT Eesti Pro Display" font-size="16" font-weight="normal">
			<tspan x="338" y="203.1">Building a self-sustaining community</tspan>
			</text>
			<text id="of-policy-and-practice;" fill="#FFF" font-family="GTEestiProDisplay-Regular, GT Eesti Pro Display" font-size="16" font-weight="normal">
			<tspan x="338" y="227.1">of policy and practice;</tspan>
			</text>
			<text id="Learning-and-sharing-what-works." fill="#FFF" font-family="GTEestiProDisplay-Regular, GT Eesti Pro Display" font-size="16" font-weight="normal">
			<tspan x="305" y="312.1">Learning and sharing what works.</tspan>
			</text>
			<circle id="Oval" cx="233.5" cy="27.5" r="27.5" fill="#FFF" fill-rule="nonzero"/>
			<text id="1" fill="#4D4D53" font-family="GTEestiProDisplay-Bold, GT Eesti Pro Display" font-size="36" font-weight="bold">
			<tspan x="227.4" y="38.5">1</tspan>
			</text>
			<circle id="Oval" cx="277.5" cy="117.5" r="27.5" fill="#FFF" fill-rule="nonzero"/>
			<text id="2" fill="#4D4D53" font-family="GTEestiProDisplay-Bold, GT Eesti Pro Display" font-size="36" font-weight="bold">
			<tspan x="268.9" y="128.5">2</tspan>
			</text>
			<circle id="Oval" cx="284.5" cy="213.5" r="27.5" fill="#FFF" fill-rule="nonzero"/>
			<text id="3" fill="#4D4D53" font-family="GTEestiProDisplay-Bold, GT Eesti Pro Display" font-size="36" font-weight="bold">
			<tspan x="274.7" y="225.5">3</tspan>
			</text>
			<circle id="Oval" cx="251.5" cy="306.5" r="27.5" fill="#FFF" fill-rule="nonzero"/>
			<text id="4" fill="#4D4D53" font-family="GTEestiProDisplay-Bold, GT Eesti Pro Display" font-size="36" font-weight="bold">
			<tspan x="240" y="317.5">4</tspan>
			</text>
		</g>
		<g id="mobile-points" transform="translate(0 393)">
			<text id="Advocating-for-a-global-norm-of" fill="#FFF" font-family="GTEestiProDisplay-Regular, GT Eesti Pro Display" font-size="14" font-weight="normal">
			<tspan x="81" y="14">Advocating for a global norm of</tspan>
			</text>
			<text id="better,-more-responsive,-and-more" fill="#FFF" font-family="GTEestiProDisplay-Regular, GT Eesti Pro Display" font-size="14" font-weight="normal">
			<tspan x="81" y="35">better, more responsive, and more</tspan>
			</text>
			<text id="open-public-contracting;" fill="#FFF" font-family="GTEestiProDisplay-Regular, GT Eesti Pro Display" font-size="14" font-weight="normal">
			<tspan x="81" y="56">open public contracting;</tspan>
			</text>
			<text id="Supporting-systemic,-impactful" fill="#FFF" font-family="GTEestiProDisplay-Regular, GT Eesti Pro Display" font-size="14" font-weight="normal">
			<tspan x="81" y="98">Supporting systemic, impactful</tspan>
			</text>
			<text id="implementation" fill="#FFF" font-family="GTEestiProDisplay-Regular, GT Eesti Pro Display" font-size="14" font-weight="normal">
			<tspan x="81" y="119">implementation</tspan>
			</text>
			<text id="of-contracting-reforms-on-the-ground;" fill="#FFF" font-family="GTEestiProDisplay-Regular, GT Eesti Pro Display" font-size="14" font-weight="normal">
			<tspan x="81" y="140">of contracting reforms on the ground;</tspan>
			</text>
			<text id="Building-a-self-sustaining-community" fill="#FFF" font-family="GTEestiProDisplay-Regular, GT Eesti Pro Display" font-size="14" font-weight="normal">
			<tspan x="82" y="193">Building a self-sustaining community</tspan>
			</text>
			<text id="of-policy-and-practice;" fill="#FFF" font-family="GTEestiProDisplay-Regular, GT Eesti Pro Display" font-size="14" font-weight="normal">
			<tspan x="82" y="214">of policy and practice;</tspan>
			</text>
			<text id="Learning-and-sharing-what-works." fill="#FFF" font-family="GTEestiProDisplay-Regular, GT Eesti Pro Display" font-size="14" font-weight="normal">
			<tspan x="82" y="287">Learning and sharing what works.</tspan>
			</text>
			<circle id="Oval" cx="27.5" cy="30.5" r="27.5" fill="#FFF" fill-rule="nonzero"/>
			<text id="1" fill="#4D4D53" font-family="GTEestiProDisplay-Bold, GT Eesti Pro Display" font-size="36" font-weight="bold">
			<tspan x="21.4" y="41.5">1</tspan>
			</text>
			<circle id="Oval" cx="27.5" cy="114.5" r="27.5" fill="#FFF" fill-rule="nonzero"/>
			<text id="2" fill="#4D4D53" font-family="GTEestiProDisplay-Bold, GT Eesti Pro Display" font-size="36" font-weight="bold">
			<tspan x="18.9" y="125.5">2</tspan>
			</text>
			<circle id="Oval" cx="28.5" cy="198.5" r="27.5" fill="#FFF" fill-rule="nonzero"/>
			<text id="3" fill="#4D4D53" font-family="GTEestiProDisplay-Bold, GT Eesti Pro Display" font-size="36" font-weight="bold">
			<tspan x="18.7" y="210.5">3</tspan>
			</text>
			<circle id="Oval" cx="29.5" cy="282.5" r="27.5" fill="#FFF" fill-rule="nonzero"/>
			<text id="4" fill="#4D4D53" font-family="GTEestiProDisplay-Bold, GT Eesti Pro Display" font-size="36" font-weight="bold">
			<tspan x="18" y="293.5">4</tspan>
			</text>
		</g>
		<g id="logo" fill-rule="nonzero" transform="translate(17 34)">
		<circle id="Oval" cx="139" cy="139" r="139" fill="#4D4D53" stroke="#D6E100" stroke-width="34"/>
		<path id="Shape" fill="#D4D91E" d="M81.6 117.3c0 5.6-4.2 9.3-9.5 9.3-5.4 0-9.6-3.7-9.6-9.3 0-5.6 4.2-9.3 9.6-9.3 5.3 0 9.5 3.7 9.5 9.3zm-14 0c0 2.8 2 4.5 4.5 4.5s4.4-1.7 4.4-4.5-1.9-4.4-4.4-4.4c-2.6 0-4.5 1.6-4.5 4.4zM81.6 140.7c0 5.6-4.2 9.3-9.5 9.3-5.4 0-9.6-3.7-9.6-9.3 0-5.6 4.2-9.3 9.6-9.3 5.3 0 9.5 3.7 9.5 9.3zm-14 0c0 2.8 2 4.5 4.5 4.5s4.4-1.7 4.4-4.5-1.9-4.4-4.4-4.4c-2.6 0-4.5 1.6-4.5 4.4z"/>
		<path id="Shape" fill="#FFF" d="M215 159.5c1.3 0 2.3.6 2.3 2s-1 2-2.4 2h-2v-4h2zm0-4.3h-7v17.9h5v-5.3h2c5.2 0 7.3-2.7 7.3-6.3 0-3.6-2.1-6.3-7.2-6.3zm-9.8 0h-4.9v17.9h4.9v-17.9zm-40.3 16.2c2.5 1.4 5 2 7.6 2 4.6 0 7-2 7-5.6 0-2.8-1.4-4-3.3-5l-3.7-2c-.7-.3-1-.6-1-1s.4-.6 1.2-.6c1.1 0 2.9.4 4.4 1.4l2-4.3a13.6 13.6 0 00-6-1.5c-4.6 0-6.8 2.2-6.8 5.4 0 2.3 1.1 4 3.2 5l4 2c.5.3.8.5.8 1 0 .6-.6.8-1.5.8-1.8 0-3.5-.7-5.7-2.2l-2.2 4.6zm-8.5-12c1.5 0 2.4.7 2.4 2s-1 2-2.4 2h-2.2v-3.9h2.2zm.6-4.2h-7.6v17.9h4.8v-6.7l4.7 6.7h6l-5-6.7c2.7-.8 3.9-3 3.9-5.3 0-3.1-2-5.9-6.8-5.9zm-10.6 0h-11.5v17.9h11.9v-4.5h-7V166h5.8v-4.2h-5.8v-2.2h6.6v-4.4zm-27.4 0h-3.8v17.9h4.8v-9.6l8.5 9.6h3.8v-17.9h-4.8v9.6l-8.5-9.6zm-6.9-5.5v-13.5h4.5v-4.4h-13.8v4.4h4.4v13.5h5zm1 5.5H99.4v4.4h4.5v13.5h4.9v-13.5h4.5v-4.4zm-17.4-23.4v9.6l-8.5-9.6h-3.8v17.9h4.9V140l8.5 9.6h3.8v-18h-4.9zm-44.6 9c0-3 2.3-4.6 5-4.6 1.5 0 2.6.5 3.8 1.3l2.6-4.1c-1.6-1.1-3.8-2-6.6-2-5.6 0-9.9 3.4-9.9 9.3 0 6 4.3 9.3 9.9 9.3 2.8 0 5-.8 6.6-2l-2.6-4a6.5 6.5 0 01-3.9 1.3c-2.6 0-4.9-1.6-4.9-4.6zm6.4 20.7c0 1.4-1 2-2.4 2h-2v-4h2c1.4 0 2.4.7 2.4 2zm5 0c0-3.6-2.2-6.3-7.3-6.3h-7v17.9h4.9v-5.3h2.1c5.1 0 7.3-2.7 7.3-6.3zm13.7 11.6h5.4l-7-17.9h-5.1l-7 17.9H68l4.2-12.8 4.1 12.8zm14.2-13.6c1.5 0 2.4.6 2.4 1.9 0 1.3-1 2-2.4 2h-2.1v-3.9h2.1zm.7-4.3h-7.7v17.9h4.9v-6.7l4.6 6.7h6l-5-6.7c2.7-.8 4-3 4-5.3 0-3.1-2.1-5.9-6.8-5.9zm1.6-40.5c0 1.3-1 2-2.4 2h-2v-4h2c1.4 0 2.4.6 2.4 2zm5 0c0-3.6-2.2-6.3-7.3-6.3h-7v17.8h4.9V121h2.1c5.1 0 7.3-2.7 7.3-6.3zm1.7 11.5h11.9v-4.4h-7v-2.6h5.8v-4.3h-5.8v-2h6.6v-4.5H99.4v17.8zm27 0h3.9v-17.8h-4.9v9.6l-8.5-9.6h-3.8v17.8h4.9v-9.6l8.5 9.6zM128 138c0 1.3-.9 2-2.3 2h-2.2v-4h2.2c1.4 0 2.3.6 2.3 2zm6.2 11.7l-5-6.7c2.7-.8 3.9-3 3.9-5.3 0-3.1-2-6-6.8-6h-7.6v18h4.8V143l4.6 6.7h6.1zm11.7-7.2h-3.6l1.8-5.6 1.8 5.6zm7.7 7.2l-7-17.9h-5.1l-7 17.9h5.4l1.1-3.4h6.2l1 3.4h5.4zm4.8-9c0-3 2.3-4.5 5-4.5 1.5 0 2.6.5 3.8 1.3l2.6-4.1c-1.6-1.1-3.8-2-6.6-2-5.6 0-10 3.4-10 9.3 0 6 4.4 9.3 10 9.3 2.8 0 5-.8 6.6-2l-2.6-4a6.5 6.5 0 01-3.9 1.3c-2.6 0-4.9-1.6-4.9-4.6zm22.5-4.5h4.5v-4.4h-13.9v4.4h4.5v13.5h4.9v-13.5zm6.5 13.5h4.9v-18h-5v18zm5.2 5.5v6.5h-6.2v-6.5h-4.8v17.9h4.8v-7h6.2v7h4.8v-17.9h-4.8zm15.6-5.5h3.8v-18H207v9.7l-8.5-9.6h-3.8v17.9h4.9V140l8.5 9.6zm14.6-6.6h4.4c-.2 1.3-1.3 2.3-3.6 2.3-3.2 0-4.8-2-4.8-4.7s1.7-4.6 4.7-4.6c1.5 0 3 .5 4.3 1.6l3-4c-2-1.5-4.3-2.3-7.2-2.3-6.4 0-10 4-10 9.3 0 5.6 4 9.4 9.8 9.4 5.7 0 8.7-3.8 8.7-9v-2h-9.3v4z"/>
	</g>
	</g>
</svg>
