<svg fill="none" xmlns="http://www.w3.org/2000/svg" viewBox="0 0 487 488">
	<path d="M427 244a183.5 183.5 0 11-367 0 183.5 183.5 0 01367 0z" stroke="#D6E100" stroke-width="120" />
	<g data-section="goals">
	<path class="arrow" d="M76.8 325.3l-17.9 35.4-5.1-7.9 17.8-35.3 41.1-3.1 5.1 7.8-41 3.1z" fill="#fff" />
	<path fill-rule="evenodd" clip-rule="evenodd" d="M29.8 254.6c0 .9-.8 1.6-1.8 1.6s-1.7-.7-1.7-1.6v-11.3c0-1 .7-1.7 1.7-1.7s1.8.8 1.8 1.7v11.3z" fill="#806346" />
	<path clip-rule="evenodd" d="M29.8 254.6c0 .9-.8 1.6-1.8 1.6s-1.7-.7-1.7-1.6v-11.3c0-1 .7-1.7 1.7-1.7s1.8.8 1.8 1.7v11.3z" stroke="#262626" stroke-width="1.1" />
	<path fill-rule="evenodd" clip-rule="evenodd" d="M34.4 252.3c0 1-.7 1.7-1.7 1.7s-1.8-.7-1.8-1.7V241c0-.9.8-1.6 1.8-1.6s1.7.7 1.7 1.6v11.3z" fill="#806346" />
	<path clip-rule="evenodd" d="M34.4 252.3c0 1-.7 1.7-1.7 1.7s-1.8-.7-1.8-1.7V241c0-.9.8-1.6 1.8-1.6s1.7.7 1.7 1.6v11.3z" stroke="#262626" stroke-width="1.1" />
	<path fill-rule="evenodd" clip-rule="evenodd" d="M40 232.9c.5.6.2 1.5-.4 1.8-.7.4-1.5.2-1.8-.4l-5.5-9.6c-.4-.7-.2-1.5.5-2 .6-.3 1.4 0 1.8.6l5.5 9.6z" fill="#806346" />
	<path clip-rule="evenodd" d="M40 232.9c.5.6.2 1.5-.4 1.8-.7.4-1.5.2-1.8-.4l-5.5-9.6c-.4-.7-.2-1.5.5-2 .6-.3 1.4 0 1.8.6l5.5 9.6z" stroke="#262626" stroke-width="1.1" />
	<path fill-rule="evenodd" clip-rule="evenodd" d="M35.6 224c0-2.6-2.7-3.3-5.9-1.6-3.2 1.8-5.8 5.5-5.8 8.1v12.9l3 1.6 8.7-4.8V224z" fill="#FB6045" />
	<path clip-rule="evenodd" d="M35.6 224c0-2.6-2.7-3.3-5.9-1.6-3.2 1.8-5.8 5.5-5.8 8.1v12.9l3 1.6 8.7-4.8V224h0z" stroke="#262626" stroke-width="1.1" />
	<path fill-rule="evenodd" clip-rule="evenodd" d="M32 238.5c.3.6 0 1.5-.6 1.8-.6.4-1.4.2-1.8-.4l-5.5-9.6c-.4-.7-.1-1.5.5-2 .6-.3 1.5 0 1.8.6l5.5 9.6z" fill="#806346" />
	<path clip-rule="evenodd" d="M32 238.5c.3.6 0 1.5-.6 1.8-.6.4-1.4.2-1.8-.4l-5.5-9.6c-.4-.7-.1-1.5.5-2 .6-.3 1.5 0 1.8.6l5.5 9.6z" stroke="#262626" stroke-width="1.1" />
	<path fill-rule="evenodd" clip-rule="evenodd" d="M29.8 217c2.5 0 4.6 2 4.6 4.5s-2 4.5-4.6 4.5c-2.6 0-4.7-2-4.7-4.5s2-4.5 4.7-4.5" fill="#806346" />
	<path clip-rule="evenodd" d="M29.8 217c2.5 0 4.6 2 4.6 4.5s-2 4.5-4.6 4.5c-2.6 0-4.7-2-4.7-4.5s2-4.5 4.7-4.5z" stroke="#262626" stroke-width="1.7" />
	<path fill-rule="evenodd" clip-rule="evenodd" d="M32.4 221.6c.3-.2.6-.1.8.2.1.2 0 .6-.2.7-.3.2-.7 0-.8-.2-.2-.2 0-.6.2-.7M28.9 222.7c.3-.2.6 0 .8.2.1.3 0 .6-.2.7-.3.2-.7.1-.8-.2-.2-.2-.1-.6.2-.7" fill="#262626" />
	<path fill-rule="evenodd" clip-rule="evenodd" d="M34.4 220c-.7-1.7-2.4-3-4.5-3-2.7 0-4.8 2-4.8 4.7v.7c1 .3 2 .3 3-.1a4.7 4.7 0 002.9-2.9c1 .7 2.2.9 3.4.7" fill="#464646" />
	<path clip-rule="evenodd" d="M34.4 220c-.7-1.7-2.4-3-4.5-3-2.7 0-4.8 2-4.8 4.7v.7c1 .3 2 .3 3-.1a4.7 4.7 0 002.9-2.9c1 .7 2.2.9 3.4.7z" stroke="#262626" stroke-width="1.1" />
	<path fill-rule="evenodd" clip-rule="evenodd" d="M67.2 256.8c0 1 .7 1.7 1.7 1.7s1.8-.8 1.8-1.7v-11.3c0-.9-.8-1.6-1.8-1.6s-1.7.7-1.7 1.6v11.3z" fill="#FFCBA6" />
	<path clip-rule="evenodd" d="M67.2 256.8c0 1 .7 1.7 1.7 1.7s1.8-.8 1.8-1.7v-11.3c0-.9-.8-1.6-1.8-1.6s-1.7.7-1.7 1.6v11.3z" stroke="#262626" stroke-width="1.1" />
	<path fill-rule="evenodd" clip-rule="evenodd" d="M62.5 254.6c0 .9.8 1.6 1.7 1.6 1 0 1.8-.7 1.8-1.6v-11.3c0-1-.8-1.7-1.8-1.7s-1.7.8-1.7 1.7v11.3z" fill="#FFCBA6" />
	<path clip-rule="evenodd" d="M62.5 254.6c0 .9.8 1.6 1.7 1.6 1 0 1.8-.7 1.8-1.6v-11.3c0-1-.8-1.7-1.8-1.7s-1.7.8-1.7 1.7v11.3z" stroke="#262626" stroke-width="1.7" />
	<path fill-rule="evenodd" clip-rule="evenodd" d="M61.8 231l-4.4 2.4c-.8.4-1 1.3-.6 2 .5.6 1.3.8 2 .4l6-3.2v-6.4c0-.8-.7-1.4-1.4-1.4-.9 0-1.5.7-1.5 1.4v4.8h-.1z" fill="#FFCBA6" />
	<path clip-rule="evenodd" d="M61.8 231l-4.4 2.4c-.8.4-1 1.3-.6 2 .5.6 1.3.8 2 .4l6-3.2v-6.4c0-.8-.7-1.4-1.4-1.4-.9 0-1.5.7-1.5 1.4v4.8h-.1z" stroke="#262626" stroke-width="1.1" />
	<path fill-rule="evenodd" clip-rule="evenodd" d="M61.3 226.3c0-2.6 2.6-3.4 5.9-1.6 3.2 1.8 5.8 5.4 5.8 8v13l-3 1.5-8.7-4.8v-16z" fill="#6C75E1" />
	<path clip-rule="evenodd" d="M61.3 226.3c0-2.6 2.6-3.4 5.9-1.6 3.2 1.8 5.8 5.4 5.8 8v13l-3 1.5-8.7-4.8v-16z" stroke="#262626" stroke-width="1.1" />
	<path fill-rule="evenodd" clip-rule="evenodd" d="M70 235.5l-4.5 2.4c-.7.4-.9 1.2-.5 2 .4.6 1.3.8 2 .4l6-3.2v-6.4c0-.8-.7-1.4-1.5-1.4s-1.4.7-1.4 1.4v4.8H70z" fill="#FFCBA6" />
	<path clip-rule="evenodd" d="M70 235.5l-4.5 2.4c-.7.4-.9 1.2-.5 2 .4.6 1.3.8 2 .4l6-3.2v-6.4c0-.8-.7-1.4-1.5-1.4s-1.4.7-1.4 1.4v4.8H70z" stroke="#262626" stroke-width="1.1" />
	<path fill-rule="evenodd" clip-rule="evenodd" d="M66 218.1c2.6 0 4.7 2 4.7 4.5s-2.1 4.5-4.7 4.5-4.7-2-4.7-4.5 2.1-4.5 4.7-4.5" fill="#FFCBA6" />
	<path clip-rule="evenodd" d="M66 218.1c2.6 0 4.7 2 4.7 4.5s-2.1 4.5-4.7 4.5-4.7-2-4.7-4.5 2.1-4.5 4.7-4.5z" stroke="#262626" stroke-width="1.1" />
	<path clip-rule="evenodd" d="M63.7 223c0-.3.4-.5.7-.4.3.1.5.5.4.8-.1.2-.5.4-.8.3a.6.6 0 01-.3-.7z" stroke="#262626" stroke-width=".9" />
	<path d="M66 224.8c0-.4 0-.9-.4-1-.3-.2-.7 0-.8.5" stroke="#262626" stroke-width=".9" />
	<path clip-rule="evenodd" d="M66 224c.1-.2.5-.3.8-.2.3 0 .4.4.3.7 0 .3-.4.4-.7.3a.6.6 0 01-.4-.7z" stroke="#262626" stroke-width=".9" />
	<path fill-rule="evenodd" clip-rule="evenodd" d="M62.5 221.2c.7-1.8 2.4-3 4.5-3 2.7 0 4.8 2 4.8 4.6v.8c-1 .2-2 .2-3-.2a4.7 4.7 0 01-2.9-2.9c-1 .7-2.2 1-3.4.7" fill="#B79F57" />
	<path clip-rule="evenodd" d="M62.5 221.2c.7-1.8 2.4-3 4.5-3 2.7 0 4.8 2 4.8 4.6v.8c-1 .2-2 .2-3-.2a4.7 4.7 0 01-2.9-2.9c-1 .7-2.2 1-3.4.7z" stroke="#262626" stroke-width="1.1" stroke-linecap="round" stroke-linejoin="round" />
	<path fill-rule="evenodd" clip-rule="evenodd" d="M89.4 269.1c0 1 .7 1.7 1.7 1.7S93 270 93 269v-11.3c0-.9-.8-1.6-1.8-1.6s-1.7.7-1.7 1.6v11.3z" fill="#CC9E70" />
	<path clip-rule="evenodd" d="M89.4 269.1c0 1 .7 1.7 1.7 1.7S93 270 93 269v-11.3c0-.9-.8-1.6-1.8-1.6s-1.7.7-1.7 1.6v11.3z" stroke="#262626" stroke-width="1.7" />
	<path fill-rule="evenodd" clip-rule="evenodd" d="M83.5 265.8c0 .9.8 1.6 1.8 1.6s1.7-.7 1.7-1.6v-11.3c0-1-.8-1.7-1.7-1.7-1 0-1.8.8-1.8 1.7v11.3z" fill="#CC9E70" />
	<path clip-rule="evenodd" d="M83.5 265.8c0 .9.8 1.6 1.8 1.6s1.7-.7 1.7-1.6v-11.3c0-1-.8-1.7-1.7-1.7-1 0-1.8.8-1.8 1.7v11.3z" stroke="#262626" stroke-width="1.1" />
	<path fill-rule="evenodd" clip-rule="evenodd" d="M77.9 246.3c-.4.7-.2 1.5.4 1.9.7.4 1.5.1 1.9-.5l5.5-9.6c.3-.7.1-1.5-.5-1.9-.7-.4-1.5-.1-1.9.5l-5.4 9.6z" fill="#CC9E70" />
	<path clip-rule="evenodd" d="M77.9 246.3c-.4.7-.2 1.5.4 1.9.7.4 1.5.1 1.9-.5l5.5-9.6c.3-.7.1-1.5-.5-1.9-.7-.4-1.5-.1-1.9.5l-5.4 9.6z" stroke="#262626" stroke-width="1.1" />
	<path fill-rule="evenodd" clip-rule="evenodd" d="M82.4 238.6c0-2.6 2.6-3.4 5.8-1.6 3.2 1.8 5.8 5.4 5.8 8v13l-3 1.6-8.7-4.8v-16.2z" fill="#23B2A7" />
	<path clip-rule="evenodd" d="M82.4 238.6c0-2.6 2.6-3.4 5.8-1.6 3.2 1.8 5.8 5.4 5.8 8v13l-3 1.6-8.7-4.8v-16.2h0z" stroke="#262626" stroke-width="1.1" />
	<path fill-rule="evenodd" clip-rule="evenodd" d="M92.2 247.9l-4.4 2.4c-.8.3-1 1.2-.6 1.9.4.6 1.3.8 2 .5l6-3.3V243c0-.8-.7-1.4-1.5-1.4s-1.4.7-1.4 1.4v4.9h-.1z" fill="#CC9E70" />
	<path clip-rule="evenodd" d="M92.2 247.9l-4.4 2.4c-.8.3-1 1.2-.6 1.9.4.6 1.3.8 2 .5l6-3.3V243c0-.8-.7-1.4-1.5-1.4s-1.4.7-1.4 1.4v4.9h-.1z" stroke="#262626" stroke-width="1.1" />
	<path fill-rule="evenodd" clip-rule="evenodd" d="M88.2 230.4c2.6 0 4.7 2 4.7 4.5s-2.1 4.5-4.7 4.5-4.7-2-4.7-4.5 2.1-4.5 4.7-4.5" fill="#CC9E70" />
	<path clip-rule="evenodd" d="M88.2 230.4c2.6 0 4.7 2 4.7 4.5s-2.1 4.5-4.7 4.5-4.7-2-4.7-4.5 2.1-4.5 4.7-4.5z" stroke="#262626" stroke-width="1.1" />
	<path fill-rule="evenodd" clip-rule="evenodd" d="M84.7 235.3c.1-.3.5-.4.8-.3.3 0 .4.4.3.7-.1.3-.4.4-.7.3a.6.6 0 01-.4-.7M88.2 236.4c.1-.3.5-.4.8-.3.3 0 .4.4.3.7 0 .3-.4.4-.7.3a.6.6 0 01-.4-.7" fill="#262626" />
	<path fill-rule="evenodd" clip-rule="evenodd" d="M89.4 239.4a4.4 4.4 0 001.4-4.2h-.2c-2 0-3.6-1.1-4.3-2.7a4.6 4.6 0 00-2.5 4l-.3-1.5c0-2.5 2.1-4.6 4.7-4.6s4.7 2 4.7 4.6c0 2.1-1.5 4-3.5 4.4" fill="#71603F" />
	<path clip-rule="evenodd" d="M89.4 239.4a4.4 4.4 0 001.4-4.2h-.2c-2 0-3.6-1.1-4.3-2.7a4.6 4.6 0 00-2.5 4l-.3-1.5c0-2.5 2.1-4.6 4.7-4.6s4.7 2 4.7 4.6c0 2.1-1.5 4-3.5 4.4z" stroke="#262626" stroke-width="1.1" stroke-linecap="round" stroke-linejoin="round" />
	<path fill-rule="evenodd" clip-rule="evenodd" d="M86 275.3l12.7-6.8-8.4-4.4-12.6 6.7 8.4 4.5z" fill="#fff" />
	<path clip-rule="evenodd" d="M86 275.3l12.7-6.8-8.4-4.4-12.6 6.7 8.4 4.5z" stroke="#262626" stroke-width="1.1" stroke-linecap="round" stroke-linejoin="round" />
	<path fill-rule="evenodd" clip-rule="evenodd" d="M86 274.1l12.7-6.7-8.4-4.5-12.6 6.8L86 274z" fill="#fff" />
	<path clip-rule="evenodd" d="M86 274.1l12.7-6.7-8.4-4.5-12.6 6.8L86 274z" stroke="#262626" stroke-width="1.1" stroke-linecap="round" stroke-linejoin="round" />
	<path fill-rule="evenodd" clip-rule="evenodd" d="M86 273l12.7-6.7-8.4-4.5-12.6 6.7L86 273z" fill="#fff" />
	<path clip-rule="evenodd" d="M86 273l12.7-6.7-8.4-4.5-12.6 6.7L86 273z" stroke="#262626" stroke-width="1.1" stroke-linecap="round" stroke-linejoin="round" />
	<path fill-rule="evenodd" clip-rule="evenodd" d="M86 271.9l12.7-6.7-8.4-4.5-12.6 6.7L86 272z" fill="#fff" />
	<path clip-rule="evenodd" d="M86 271.9l12.7-6.7-8.4-4.5-12.6 6.7L86 272z" stroke="#262626" stroke-width="1.1" stroke-linecap="round" stroke-linejoin="round" />
	<path fill-rule="evenodd" clip-rule="evenodd" d="M86 270.8l12.7-6.8-8.4-4.4-12.6 6.7 8.4 4.5z" fill="#fff" />
	<path clip-rule="evenodd" d="M86 270.8l12.7-6.8-8.4-4.4-12.6 6.7 8.4 4.5z" stroke="#262626" stroke-width="1.1" stroke-linecap="round" stroke-linejoin="round" />
	<path fill-rule="evenodd" clip-rule="evenodd" d="M57.3 266.3l-28.7-16 21.5-12 28.7 16-21.5 12z" fill="#fff" />
	<path clip-rule="evenodd" d="M57.3 266.3l-28.7-16 21.5-12 28.7 16-21.5 12z" stroke="#262626" stroke-width="1.1" stroke-linecap="round" stroke-linejoin="round" />
	<path d="M62.5 250.6l-14-7.8M60.1 251.7l-14-7.8M57.8 252.8l-14-7.8M55.5 254l-14-7.9M52 256.2l-14-7.8M49.6 257.3l-14-7.8" stroke="#262626" stroke-width="1.1" stroke-linecap="round" stroke-linejoin="round" />
	<path fill-rule="evenodd" clip-rule="evenodd" d="M55.5 259.2l2.6 1.4c.8.5 2.4.4 3.4-.2l4.3-2.3c.9-.5-.2-1-1-.6l-4 2.1-.3-.1 11-5.9c1-.6-.4-1.4-1.5-.8l-6.3 3.4h-.3l6.3-3.5c1.1-.6-.3-1.3-1.4-.8l-11 6-.2-.2 4-2.2c.8-.4-.2-1-1-.5l-4.4 2.3c-1 .5-1.2 1.4-.2 1.9m1 .8c-.7-.4-2-.3-2.7.1-.8.5-.9 1.1-.2 1.4.7.4 1.9.4 2.6 0 .8-.4 1-1.1.2-1.5" fill="#262626" />
	<path d="M56.2 141.2c0 1-.4 1.6-1 2.2-.7.5-1.6.7-2.7.7-1 0-2-.2-2.9-.6v-2c.7.4 1.3.6 1.8.7l1.2.2c.5 0 .9-.1 1.1-.3.3-.2.4-.4.4-.8 0-.2 0-.3-.2-.5l-.5-.4a12 12 0 00-1.3-.7l-1.3-.8-.8-1c-.2-.3-.2-.7-.2-1.2 0-.9.3-1.6.9-2 .6-.6 1.4-.8 2.4-.8l1.5.1 1.5.6-.7 1.6-1.3-.4-1-.2c-.4 0-.7.1-1 .3a1 1 0 00-.3.7c0 .2 0 .4.2.5 0 .2.2.3.4.4l1.3.7c1 .5 1.6 1 2 1.4.3.4.5 1 .5 1.6zm4.8-3.5c-.5 0-.8.1-1 .4a2 2 0 00-.5 1.2h3c0-.5-.2-.9-.5-1.2-.2-.3-.6-.4-1-.4zm.3 6.4a4 4 0 01-3-1c-.6-.7-1-1.6-1-2.9 0-1.2.4-2.2 1-3 .6-.6 1.5-1 2.7-1 1 0 1.9.3 2.5 1 .6.6.9 1.4.9 2.5v1h-5c0 .6.3 1 .6 1.4.3.3.8.5 1.4.5a5.7 5.7 0 002.6-.6v1.6l-1.2.4-1.5.1zm8-1.6l1.3-.3v1.6c-.5.2-1.1.3-2 .3-.7 0-1.3-.2-1.7-.6-.4-.4-.6-1-.6-1.9V138h-1v-.9l1.2-.7.6-1.6h1.3v1.7h2.1v1.5h-2.1v3.7c0 .3 0 .5.2.7l.7.2zm10.8-6.3h.7l-.2 2H80c-.7 0-1.2.1-1.6.5-.3.3-.5.8-.5 1.4v3.9h-2.1v-7.6h1.6l.3 1.2 1-1c.4-.3.9-.4 1.4-.4zm5.2 1.5c-.4 0-.8.1-1 .4a2 2 0 00-.5 1.2h3c0-.5-.2-.9-.4-1.2-.3-.3-.6-.4-1-.4zm.3 6.4a4 4 0 01-2.9-1c-.7-.7-1-1.6-1-2.9 0-1.2.3-2.2 1-3 .6-.6 1.5-1 2.6-1 1 0 2 .3 2.5 1 .6.6 1 1.4 1 2.5v1h-5c0 .6.2 1 .5 1.4.4.3.8.5 1.4.5a5.7 5.7 0 002.6-.6v1.6l-1.2.4-1.5.1zm9-6.2h-1.8v6.1h-2v-6h-1.2v-1l1.2-.6v-.6c0-.9.2-1.5.6-2 .4-.3 1.1-.5 2-.5.8 0 1.4 0 2 .3l-.6 1.5-1.1-.2c-.3 0-.5.1-.7.3a1 1 0 00-.2.7v.5h1.9v1.5zm3 2.3c0 .7 0 1.3.3 1.7.2.4.6.6 1.2.6s1-.2 1.2-.6c.2-.4.4-1 .4-1.7 0-.8-.2-1.4-.4-1.7-.2-.4-.7-.6-1.2-.6-.6 0-1 .2-1.2.6-.3.3-.4.9-.4 1.7zm5.2 0c0 1.2-.3 2.2-1 2.9-.6.7-1.6 1-2.7 1-.8 0-1.4-.1-2-.4-.5-.4-1-.8-1.3-1.4-.3-.6-.4-1.3-.4-2.1a4 4 0 011-3c.6-.6 1.5-1 2.7-1 .7 0 1.4.2 2 .5.5.3 1 .8 1.2 1.4.3.6.5 1.3.5 2zm6-4h.7l-.2 2h-.6c-.6 0-1.2.1-1.5.5-.4.3-.6.8-.6 1.4v3.9h-2v-7.6h1.5l.3 1.2h.1c.2-.4.6-.7 1-1 .4-.3.8-.4 1.3-.4zm9 7.8h-2.2v-4.5c0-.5 0-1-.2-1.2-.2-.3-.5-.4-1-.4-.4 0-.8.2-1 .6-.3.4-.4 1-.4 1.9v3.6h-2.1v-7.6h1.6l.3 1c.3-.4.6-.7 1-.9.3-.2.8-.3 1.3-.3 1.1 0 2 .4 2.3 1.1h.2c.2-.3.5-.6.9-.8a3 3 0 011.4-.3c.8 0 1.5.2 2 .7.4.4.6 1.1.6 2.1v5h-2.1v-4.5c0-.5-.1-1-.3-1.2-.2-.3-.5-.4-.9-.4-.5 0-.8.2-1.1.5-.3.4-.4 1-.4 1.8v3.8zm-61 11.4v1l-1.3.3c.3.4.4.7.4 1.2 0 .8-.3 1.4-.9 1.9-.6.4-1.3.7-2.4.7H52c-.3 0-.4.3-.4.5 0 .3.4.4 1.2.4H54c.8 0 1.5.2 1.9.6.4.3.7.8.7 1.5 0 1-.4 1.6-1.2 2.1-.7.5-1.8.8-3.2.8-1 0-1.9-.2-2.4-.6-.6-.4-.9-.9-.9-1.6 0-.4.2-.8.5-1.1.3-.3.7-.5 1.2-.7-.2 0-.4-.2-.5-.4a1 1 0 01-.3-.7c0-.3.1-.5.3-.7l.7-.6a2 2 0 01-1-.8c-.2-.4-.3-.8-.3-1.4 0-.8.3-1.4.8-1.9.6-.5 1.3-.7 2.4-.7h.7l.6.2h2.6zm-6 8.7c0 .3.2.5.5.7l1.1.2c.8 0 1.4-.1 1.8-.3.4-.2.6-.5.6-.8 0-.3-.1-.5-.4-.6a3 3 0 00-1.1-.2h-1.1c-.4 0-.7 0-1 .3-.2.1-.4.4-.4.7zm.8-6.2c0 .4.1.7.3 1 .2.2.5.3.9.3.3 0 .6-.1.8-.4.2-.2.3-.5.3-1 0-.9-.4-1.3-1.1-1.3-.8 0-1.2.4-1.2 1.4zm8 1.3c0 .7.2 1.3.4 1.7.3.4.7.6 1.3.6.5 0 1-.2 1.2-.6.2-.4.3-1 .3-1.7 0-.8-.1-1.4-.3-1.7-.3-.4-.7-.6-1.3-.6-.5 0-1 .2-1.2.6-.2.3-.3.9-.3 1.7zm5.4 0c0 1.2-.4 2.2-1 2.9-.7.7-1.6 1-2.8 1-.7 0-1.4-.1-2-.4-.5-.4-.9-.8-1.2-1.4-.3-.6-.5-1.3-.5-2.1a4 4 0 011-3c.7-.6 1.6-1 2.8-1 .7 0 1.4.2 2 .5.5.3.9.8 1.2 1.4.3.6.5 1.3.5 2zm6.5 3.8l-.4-1-1.1.9c-.4.2-.9.2-1.5.2-.7 0-1.3-.2-1.7-.6-.4-.4-.6-1-.6-1.8s.3-1.4.8-1.8a5 5 0 012.6-.6h1.3v-.4c0-.8-.4-1.2-1.2-1.2-.6 0-1.3.2-2.1.6l-.7-1.4c.9-.5 1.8-.7 3-.7 1 0 1.7.2 2.3.7.5.4.8 1.1.8 2v5.1h-1.5zm-.6-3.5h-.8c-.6 0-1 .1-1.3.3-.3.2-.5.5-.5 1s.3.8 1 .8c.5 0 .9-.1 1.2-.4.3-.3.4-.7.4-1.1v-.6zm6.3 3.5h-2v-10.6h2V163zm7.6-2.3c0 .8-.3 1.4-.9 1.8-.5.4-1.3.6-2.4.6H80l-1.1-.4V161a7.3 7.3 0 002.6.6c.7 0 1-.2 1-.6v-.4a12.1 12.1 0 00-1.5-.8l-1.4-.7a2 2 0 01-.6-.7l-.1-1c0-.7.2-1.3.7-1.6.6-.4 1.3-.6 2.3-.6.9 0 1.8.2 2.7.6l-.7 1.5-1-.4-1-.1c-.7 0-1 .1-1 .5l.3.4 1.3.7 1.3.6.7.8.2 1zm10 2.3l-.3-1-1.2.9c-.3.2-.8.2-1.4.2-.8 0-1.3-.2-1.8-.6-.4-.4-.6-1-.6-1.8s.3-1.4.9-1.8a5 5 0 012.5-.6h1.4v-.4c0-.8-.4-1.2-1.2-1.2-.6 0-1.4.2-2.2.6l-.7-1.4c.9-.5 1.9-.7 3-.7 1 0 1.8.2 2.3.7.6.4.8 1.1.8 2v5.1H95zm-.5-3.5h-.9c-.6 0-1 .1-1.3.3-.3.2-.5.5-.5 1s.4.8 1 .8c.5 0 1-.1 1.2-.4.3-.3.5-.7.5-1.1v-.6zm11.2 3.5h-2v-4.5c0-.5-.2-1-.3-1.2-.2-.3-.6-.4-1-.4-.6 0-1 .2-1.2.6-.3.4-.4 1-.4 1.9v3.6h-2.1v-7.6h1.6l.3 1c.3-.4.6-.7 1-.9.4-.2.9-.3 1.4-.3 1 0 1.6.3 2 .7.5.5.7 1.2.7 2.1v5zm4.6.1c-.9 0-1.6-.3-2.1-1s-.8-1.7-.8-3c0-1.2.3-2.1.8-2.8.5-.7 1.2-1 2.2-1 1 0 1.6.3 2.2 1l-.1-1.5v-2.4h2V163h-1.5l-.4-1h-.1c-.5.8-1.2 1.1-2.2 1.1zm.7-1.6c.6 0 1-.2 1.2-.5.3-.3.4-.8.4-1.6v-.2c0-.8-.1-1.4-.4-1.8-.2-.3-.6-.5-1.2-.5-.5 0-.8.2-1 .6-.3.4-.5 1-.5 1.7 0 .8.2 1.3.4 1.7.3.4.6.6 1.1.6zm-55.4 18.2c0 .8-.2 1.4-.8 1.8-.5.4-1.4.6-2.4.6h-1.5l-1-.4V180a7.3 7.3 0 002.5.6c.8 0 1.2-.2 1.2-.6 0-.2 0-.3-.2-.4a12.1 12.1 0 00-1.5-.8l-1.3-.7a2 2 0 01-.6-.7l-.2-1c0-.7.3-1.3.8-1.6.5-.4 1.3-.6 2.3-.6.9 0 1.8.2 2.6.6l-.6 1.5-1-.4-1-.1c-.7 0-1 .1-1 .5l.3.4 1.3.7 1.3.6c.3.2.5.5.6.8.2.2.2.6.2 1zm4.8-4c-.4 0-.8.1-1 .4a2 2 0 00-.5 1.2h3c0-.5-.2-.9-.4-1.2-.3-.3-.6-.4-1-.4zm.3 6.4a4 4 0 01-2.9-1c-.7-.7-1-1.6-1-2.9 0-1.2.3-2.2 1-3 .6-.6 1.5-1 2.6-1 1 0 2 .3 2.5 1 .6.6 1 1.4 1 2.5v1h-5c0 .6.2 1 .5 1.4.4.3.8.5 1.4.5a5.7 5.7 0 002.6-.6v1.6l-1.2.4-1.5.1zm8 0c-2.5 0-3.6-1.3-3.6-3.9 0-1.3.3-2.3 1-3 .6-.6 1.5-1 2.7-1 .9 0 1.7.2 2.4.5l-.6 1.6c-.4 0-.7-.2-1-.3l-.8-.1c-1 0-1.6.8-1.6 2.3 0 1.5.5 2.2 1.6 2.2l1.1-.1 1-.5v1.8l-1 .4-1.3.1zm9.4-.1l-.2-1h-.1c-.3.4-.6.7-1 .8-.4.2-.9.3-1.4.3-.9 0-1.6-.2-2-.7-.5-.5-.7-1.2-.7-2v-5h2v4.4c0 .6.2 1 .4 1.3.2.2.5.4.9.4.6 0 1-.2 1.3-.6.2-.4.4-1 .4-2v-3.5h2v7.6H78zm8.1-7.8h.7l-.2 2H86c-.6 0-1.2.1-1.5.5-.4.3-.6.8-.6 1.4v3.9h-2v-7.6h1.5l.3 1.2h.1l1-1c.4-.3.8-.4 1.3-.4zm5.3 1.5c-.5 0-.8.1-1 .4a2 2 0 00-.5 1.2h3c-.1-.5-.2-.9-.5-1.2-.3-.3-.6-.4-1-.4zm.2 6.4a4 4 0 01-2.8-1c-.7-.7-1-1.6-1-2.9 0-1.2.2-2.2.9-3 .6-.6 1.5-1 2.6-1s2 .3 2.6 1c.6.6.9 1.4.9 2.5v1h-5c0 .6.2 1 .6 1.4.3.3.8.5 1.3.5a5.7 5.7 0 002.6-.6v1.6l-1.1.4-1.6.1zm-37.2 11.1c1 0 1.7.4 2.2 1 .5.8.7 1.7.7 3 0 1.2-.2 2.2-.8 2.9-.5.7-1.2 1-2.1 1-1 0-1.6-.3-2.1-1H52l-.3.9H50v-10.6h2v3.9c.6-.7 1.3-1 2.2-1zm-.6 1.7c-.5 0-1 .1-1.2.5-.2.3-.3.8-.3 1.5v.3c0 .8.1 1.4.3 1.7.3.4.7.5 1.2.5.4 0 .8-.1 1-.5.3-.4.4-1 .4-1.8a3 3 0 00-.4-1.7c-.2-.3-.6-.5-1-.5zm10.7 6.1l-.3-1H64c-.2.4-.6.7-1 .8-.4.2-.8.3-1.4.3-.9 0-1.5-.2-2-.7-.5-.5-.7-1.2-.7-2v-5H61v4.4c0 .6.1 1 .3 1.3.2.2.5.4 1 .4s1-.2 1.2-.6c.3-.4.4-1 .4-2v-3.5h2v7.6h-1.5zm2.7-7.6h2.2l1.5 4.3.2 1.3c.1-.5.2-1 .4-1.3l1.4-4.3H75l-3.2 8.6c-.3.8-.7 1.4-1.3 1.8-.5.4-1.2.6-1.9.6-.4 0-.7 0-1-.2v-1.6h.8c.3 0 .6 0 1-.3l.6-1 .1-.4-3-7.5zm8.3 4.7v-1.7h3.7v1.7h-3.7zm5.1-6.7c0-.7.4-1 1.2-1 .7 0 1.1.3 1.1 1 0 .3 0 .6-.3.7-.2.2-.4.3-.8.3-.8 0-1.2-.3-1.2-1zm2.2 9.6h-2v-7.6h2v7.6zm9.3 0h-2.1v-4.5c0-.5-.1-1-.3-1.2-.2-.3-.5-.4-1-.4s-1 .2-1.2.6c-.3.4-.4 1-.4 1.9v3.6h-2v-7.6h1.5l.3 1h.1c.2-.4.6-.7 1-.9.4-.2.8-.3 1.4-.3.8 0 1.5.3 2 .7.4.5.7 1.2.7 2.1v5z" fill="#000" />
</g>
	<g data-section="engagement">
		<path class="arrow" d="M417.6 171.3l22.3-32.8 4 8.5-22.3 32.7-41.1-2.3-4-8.4 41 2.3z" fill="#fff" />
		<path fill-rule="evenodd" clip-rule="evenodd" d="M404.1 301.1c0 .7.5 1.3 1.2 1.3.6 0 1.2-.6 1.2-1.3v-8.7c0-.7-.6-1.2-1.2-1.2-.7 0-1.2.5-1.2 1.2v8.7z" fill="#515151" />
		<path clip-rule="evenodd" d="M404.1 301.1c0 .7.5 1.3 1.2 1.3.6 0 1.2-.6 1.2-1.3v-8.7c0-.7-.6-1.2-1.2-1.2-.7 0-1.2.5-1.2 1.2v8.7z" stroke="#262626" stroke-width="1.1" />
		<path fill-rule="evenodd" clip-rule="evenodd" d="M400.6 298.9c0 .7.5 1.2 1.2 1.2.6 0 1.1-.5 1.1-1.2v-8.7c0-.7-.5-1.3-1.1-1.3-.7 0-1.2.6-1.2 1.3v8.7z" fill="#515151" />
		<path clip-rule="evenodd" d="M400.6 298.9c0 .7.5 1.2 1.2 1.2.6 0 1.1-.5 1.1-1.2v-8.7c0-.7-.5-1.3-1.1-1.3-.7 0-1.2.6-1.2 1.3v8.7z" stroke="#262626" stroke-width="1.1" />
		<path fill-rule="evenodd" clip-rule="evenodd" d="M396.5 277.5l-3.5-1.9c-.5-.3-1.2 0-1.6.4-.3.5-.1 1.2.4 1.5l4.7 2.5 4.7-2.5c.6-.3.7-1 .4-1.5-.3-.5-1-.7-1.6-.4l-3.5 1.9z" fill="#FFCBA6" />
		<path clip-rule="evenodd" d="M396.5 277.5l-3.5-1.9c-.5-.3-1.2 0-1.6.4-.3.5-.1 1.2.4 1.5l4.7 2.5 4.7-2.5c.6-.3.7-1 .4-1.5-.3-.5-1-.7-1.6-.4l-3.5 1.9z" stroke="#262626" stroke-width="1.1" />
		<path fill-rule="evenodd" clip-rule="evenodd" d="M390.1 276.6l1.7-3.4 1.8 1.2-1.7 3.3-1.8-1.1z" fill="#6C75E1" />
		<path clip-rule="evenodd" d="M390.1 276.6l1.7-3.4 1.8 1.2-1.7 3.3-1.8-1.1z" stroke="#262626" stroke-width="1.1" stroke-linecap="round" stroke-linejoin="round" />
		<path d="M393.6 272.1a2 2 0 00-1.8-1.1 2 2 0 00-1.7 1.1" stroke="#262626" stroke-width="1.1" stroke-linecap="round" stroke-linejoin="round" />
		<path d="M391.3 272.4c0-.1.3-.3.5-.3s.4.1.5.3M393.6 271.9c-.2-.5-.7-.9-1.2-.9s-1 .4-1.1.9" stroke="#262626" stroke-width="1.1" stroke-linecap="round" stroke-linejoin="round" />
		<path fill-rule="evenodd" clip-rule="evenodd" d="M399.5 276.3c0-2 2-2.6 4.6-1.2 2.6 1.3 4.7 4.1 4.7 6.1v9.9l-2.4 1.2-7-3.7v-12.3z" fill="#FB6045" />
		<path clip-rule="evenodd" d="M399.5 276.3c0-2 2-2.6 4.6-1.2 2.6 1.3 4.7 4.1 4.7 6.1v9.9l-2.4 1.2-7-3.7v-12.3h0z" stroke="#262626" stroke-width="1.1" />
		<path fill-rule="evenodd" clip-rule="evenodd" d="M406.5 289c0 .6.5 1 1.1 1 .7 0 1.2-.5 1.2-1v-9c0-.7-.6-1.2-1.2-1.2s-1.1.6-1.1 1.1v9z" fill="#FFCBA6" />
		<path clip-rule="evenodd" d="M406.5 289c0 .6.5 1 1.1 1 .7 0 1.2-.5 1.2-1v-9c0-.7-.6-1.2-1.2-1.2s-1.1.6-1.1 1.1v9z" stroke="#262626" stroke-width="1.1" />
		<path fill-rule="evenodd" clip-rule="evenodd" d="M403.5 271a4 4 0 014.1 4 4 4 0 01-4 3.8 4 4 0 01-4.2-3.9 4 4 0 014.1-3.9" fill="#FFCBA6" />
		<path clip-rule="evenodd" d="M403.5 271a4 4 0 014.1 4 4 4 0 01-4 3.8 4 4 0 01-4.2-3.9 4 4 0 014.1-3.9z" stroke="#262626" stroke-width="1.7" />
		<path clip-rule="evenodd" d="M400.6 274.7c.2-.3.5-.4.8-.3.3.1.5.4.3.7 0 .3-.4.5-.7.3a.6.6 0 01-.4-.7z" stroke="#262626" stroke-width=".9" />
		<path d="M403 275.5c0-.5-.1-1-.4-1-.4-.2-.7 0-.8.4" stroke="#262626" stroke-width=".9" />
		<path clip-rule="evenodd" d="M403 275.9c.1-.3.4-.5.7-.4.3.1.5.4.4.7-.1.3-.5.5-.8.4a.6.6 0 01-.3-.8z" stroke="#262626" stroke-width=".9" />
		<path fill-rule="evenodd" clip-rule="evenodd" d="M404.6 278.8a3.9 3.9 0 001.2-3.6h-.1a4 4 0 01-3.8-2.4 4 4 0 00-2.2 3.4l-.3-1.2a4 4 0 014.1-4 4 4 0 011 7.8" fill="#A2A2A2" />
		<path clip-rule="evenodd" d="M404.6 278.8a3.9 3.9 0 001.2-3.6h-.1a4 4 0 01-3.8-2.4 4 4 0 00-2.2 3.4l-.3-1.2a4 4 0 014.1-4 4 4 0 011 7.8z" stroke="#262626" stroke-width="1.1" stroke-linecap="round" stroke-linejoin="round" />
		<path fill-rule="evenodd" clip-rule="evenodd" d="M383 307.8c0 .7.6 1.3 1.3 1.3.6 0 1.1-.6 1.1-1.3v-8.7c0-.7-.5-1.2-1.1-1.2-.7 0-1.2.5-1.2 1.2v8.7z" fill="#CC9E70" />
		<path clip-rule="evenodd" d="M383 307.8c0 .7.6 1.3 1.3 1.3.6 0 1.1-.6 1.1-1.3v-8.7c0-.7-.5-1.2-1.1-1.2-.7 0-1.2.5-1.2 1.2v8.7z" stroke="#262626" stroke-width="1.1" />
		<path fill-rule="evenodd" clip-rule="evenodd" d="M387.8 310c0 .8.5 1.3 1.1 1.3.7 0 1.2-.5 1.2-1.2v-8.7c0-.7-.5-1.3-1.2-1.3-.6 0-1.1.6-1.1 1.3v8.7z" fill="#CC9E70" />
		<path clip-rule="evenodd" d="M387.8 310c0 .8.5 1.3 1.1 1.3.7 0 1.2-.5 1.2-1.2v-8.7c0-.7-.5-1.3-1.2-1.3-.6 0-1.1.6-1.1 1.3v8.7z" stroke="#262626" stroke-width="1.1" />
		<path fill-rule="evenodd" clip-rule="evenodd" d="M382 294.5c0 .7.5 1.1 1 1.1.8 0 1.3-.5 1.3-1v-9c0-.7-.6-1.2-1.2-1.2-.7 0-1.2.6-1.2 1.1v9z" fill="#CC9E70" />
		<path clip-rule="evenodd" d="M382 294.5c0 .7.5 1.1 1 1.1.8 0 1.3-.5 1.3-1v-9c0-.7-.6-1.2-1.2-1.2-.7 0-1.2.6-1.2 1.1v9z" stroke="#262626" stroke-width="1.7" />
		<path fill-rule="evenodd" clip-rule="evenodd" d="M382 286.4c0-2 2-2.6 4.6-1.2 2.6 1.3 4.7 4.1 4.7 6.1v9.8l-2.4 1.3-7-3.7v-12.3z" fill="#23B2A7" />
		<path clip-rule="evenodd" d="M382 286.4c0-2 2-2.6 4.6-1.2 2.6 1.3 4.7 4.1 4.7 6.1v9.8l-2.4 1.3-7-3.7v-12.3h0z" stroke="#262626" stroke-width="1.1" />
		<path fill-rule="evenodd" clip-rule="evenodd" d="M387.2 280a4 4 0 014 3.9 4 4 0 01-4 3.9 4 4 0 01-4.1-4 4 4 0 014-3.8" fill="#CC9E70" />
		<path clip-rule="evenodd" d="M387.2 280a4 4 0 014 3.9 4 4 0 01-4 3.9 4 4 0 01-4.1-4 4 4 0 014-3.8z" stroke="#262626" stroke-width="1.1" />
		<path fill-rule="evenodd" clip-rule="evenodd" d="M386.4 280h-.3c-1.7.3-3 2-3 4 0 1.9 1.3 3.5 3 3.8 1.8-.3 3.1-2 3.1-3.9 0-.4 0-.9-.2-1.3h1.1l-.1-.3-.1-.3-.1-.2c0-.2-.1-.2-.2-.3l-.2-.2c0-.1 0-.2-.2-.2l-.4-.4-.2-.2-.2-.1-.2-.2h-.3l-.2-.2h-1.3" fill="#92613C" />
		<path clip-rule="evenodd" d="M386.4 280h-.3c-1.7.3-3 2-3 4 0 1.9 1.3 3.5 3 3.8 1.8-.3 3.1-2 3.1-3.9 0-.4 0-.9-.2-1.3h1.1l-.1-.3v0l-.1-.3v0l-.1-.2v0c0-.2-.1-.2-.2-.3 0 0 0 0 0 0l-.2-.2c0-.1 0-.2-.2-.2h0l-.4-.4h0l-.2-.2-.2-.1s0 0 0 0l-.2-.2h0-.3 0l-.2-.2h0-.3 0-.3 0-.7z" stroke="#262626" stroke-width="1.1" stroke-linecap="round" stroke-linejoin="round" />
		<path fill-rule="evenodd" clip-rule="evenodd" d="M391 281.9l.3-1a4 4 0 00-1-.2 4.6 4.6 0 00-3.7-1.9 4.8 4.8 0 00-4.4 6.6 4 4 0 00-.2 1l1 .2h1.3a7 7 0 006.7-4.7" fill="#FFDC00" />
		<path clip-rule="evenodd" d="M391 281.9l.3-1a4 4 0 00-1-.2 4.6 4.6 0 00-3.7-1.9 4.8 4.8 0 00-4.4 6.6 4 4 0 00-.2 1l1 .2h1.3a7 7 0 006.7-4.7z" stroke="#262626" stroke-width="1.1" stroke-linecap="round" stroke-linejoin="round" />
		<path fill-rule="evenodd" clip-rule="evenodd" d="M393 291l3.5-2c.6-.2 1.3 0 1.6.5.3.5.1 1.1-.4 1.4l-4.7 2.5-4.7-2.5a1 1 0 01-.4-1.4c.4-.6 1-.7 1.6-.4l3.5 1.8z" fill="#CC9E70" />
		<path clip-rule="evenodd" d="M393 291l3.5-2c.6-.2 1.3 0 1.6.5.3.5.1 1.1-.4 1.4l-4.7 2.5-4.7-2.5a1 1 0 01-.4-1.4c.4-.6 1-.7 1.6-.4l3.5 1.8z" stroke="#262626" stroke-width="1.1" />
		<path fill-rule="evenodd" clip-rule="evenodd" d="M424 310.4l-9.7 5.4-16-9 9.6-5.6 16 9.2z" fill="#fff" />
		<path clip-rule="evenodd" d="M424 310.4l-9.7 5.4-16-9 9.6-5.6 16 9.2z" stroke="#333" stroke-width="1.1" stroke-linecap="round" stroke-linejoin="round" />
		<path fill-rule="evenodd" clip-rule="evenodd" d="M424 309.2l-9.7 5.5-16-9.1 9.6-5.5 16 9.1z" fill="#fff" />
		<path clip-rule="evenodd" d="M424 309.2l-9.7 5.5-16-9.1 9.6-5.5 16 9.1z" stroke="#333" stroke-width="1.1" stroke-linecap="round" stroke-linejoin="round" />
		<path fill-rule="evenodd" clip-rule="evenodd" d="M424 308.1l-9.7 5.5-16-9.2 9.6-5.4 16 9.1z" fill="#fff" />
		<path clip-rule="evenodd" d="M424 308.1l-9.7 5.5-16-9.2 9.6-5.4 16 9.1z" stroke="#333" stroke-width="1.1" stroke-linecap="round" stroke-linejoin="round" />
		<path fill-rule="evenodd" clip-rule="evenodd" d="M424 307l-9.7 5.5-16-9.1 9.6-5.5 16 9.1z" fill="#fff" />
		<path clip-rule="evenodd" d="M424 307l-9.7 5.5-16-9.1 9.6-5.5 16 9.1z" stroke="#333" stroke-width="1.1" stroke-linecap="round" stroke-linejoin="round" />
		<path fill-rule="evenodd" clip-rule="evenodd" d="M410 301.2l-1.7.2-.3 1-3.9-2.3 2-1 3.9 2.1z" fill="#FB6045" />
		<path clip-rule="evenodd" d="M410 301.2l-1.7.2-.3 1-3.9-2.3 2-1 3.9 2.1z" stroke="#333" stroke-width="1.1" stroke-linecap="round" stroke-linejoin="round" />
		<path d="M414.6 310.2l5.9-3.3" stroke="#333" stroke-width="1.7" stroke-linecap="round" stroke-linejoin="round" />
		<path d="M413.5 310.2l5.8-3.3M412.3 309l5.8-3.3M411.1 309l5.9-3.3M410 308l5.8-3.4M408.8 308l5.8-3.4" stroke="#333" stroke-width="1.1" stroke-linecap="round" stroke-linejoin="round" />
		<g clip-rule="evenodd">
			<path fill-rule="evenodd" d="M422.8 267.3c0 .9-.8 1.6-1.7 1.6-1 0-1.7-.7-1.7-1.6V256c0-1 .7-1.7 1.7-1.7s1.7.7 1.7 1.7v11.3z" fill="#806346" />
			<path d="M422.8 267.3c0 .9-.8 1.6-1.7 1.6-1 0-1.7-.7-1.7-1.6V256c0-1 .7-1.7 1.7-1.7s1.7.7 1.7 1.7v11.3z" stroke="#262626" stroke-width="1.7" />
			<path fill-rule="evenodd" d="M427.7 264.5c0 1-.7 1.7-1.7 1.7s-1.7-.8-1.7-1.7v-11.3c0-.9.8-1.6 1.7-1.6 1 0 1.7.7 1.7 1.6v11.3z" fill="#806346" />
			<path d="M427.7 264.5c0 1-.7 1.7-1.7 1.7s-1.7-.8-1.7-1.7v-11.3c0-.9.8-1.6 1.7-1.6 1 0 1.7.7 1.7 1.6v11.3z" stroke="#262626" stroke-width="1.7" />
			<path fill-rule="evenodd" d="M431.8 238l4.2-2.3c.7-.4 1.6-.2 2 .4.4.7.1 1.5-.5 1.9l-5.7 3.2-5.6-3.2c-.7-.4-1-1.2-.5-1.9.4-.6 1.2-.8 2-.4l4.1 2.3z" fill="#806346" />
			<path d="M431.8 238l4.2-2.3c.7-.4 1.6-.2 2 .4.4.7.1 1.5-.5 1.9l-5.7 3.2-5.6-3.2c-.7-.4-1-1.2-.5-1.9.4-.6 1.2-.8 2-.4l4.1 2.3z" stroke="#262626" stroke-width="1.7" />
			<path fill-rule="evenodd" d="M429.1 236.8c0-2.6-2.5-3.3-5.6-1.6-3.1 1.7-5.7 5.2-5.7 7.8v12.6l2.9 1.6 8.5-4.7v-15.7h-.1z" fill="#BDC733" />
			<path d="M429.1 236.8c0-2.6-2.5-3.3-5.6-1.6-3.1 1.7-5.7 5.2-5.7 7.8v12.6l2.9 1.6 8.5-4.7v-15.7h-.1z" stroke="#262626" stroke-width="1.1" />
			<path fill-rule="evenodd" d="M419.8 246.2l4.2 2.4c.7.4 1 1.2.5 1.9-.4.6-1.2.8-2 .4l-5.6-3.1v-6.3c0-.7.7-1.3 1.4-1.3.8 0 1.4.6 1.4 1.3v4.7z" fill="#806346" />
			<path d="M419.8 246.2l4.2 2.4c.7.4 1 1.2.5 1.9-.4.6-1.2.8-2 .4l-5.6-3.1v-6.3c0-.7.7-1.3 1.4-1.3.8 0 1.4.6 1.4 1.3v4.7h0z" stroke="#262626" stroke-width="1.1" />
			<path fill-rule="evenodd" d="M423.5 229c2.6 0 4.8 2.1 4.8 4.6 0 2.6-2.2 4.6-4.8 4.6-2.7 0-4.8-2-4.8-4.6 0-2.5 2.1-4.6 4.8-4.6" fill="#806346" />
			<path d="M423.5 229c2.6 0 4.8 2.1 4.8 4.6 0 2.6-2.2 4.6-4.8 4.6-2.7 0-4.8-2-4.8-4.6 0-2.5 2.1-4.6 4.8-4.6z" stroke="#262626" stroke-width="1.1" />
			<path fill-rule="evenodd" d="M425.7 233.6c.3-.2.6 0 .7.2.2.2.1.6-.2.7-.2.1-.6 0-.7-.2-.2-.2 0-.6.2-.7M422.8 235.2c.3-.2.6 0 .7.2.2.2.1.6-.2.7-.2.1-.6 0-.7-.2-.2-.2 0-.6.2-.7" fill="#262626" />
			<path fill-rule="evenodd" d="M422.3 238.1c-1-.9-1.6-2-1.6-3.4v-.9h.3c2 0 3.7-1.1 4.4-2.7 1.5.7 2.6 2.2 2.6 4l.3-1.5c0-2.5-2.2-4.6-4.8-4.6-2.7 0-4.8 2-4.8 4.6 0 2.2 1.5 4 3.6 4.5" fill="#262626" />
			<path d="M422.3 238.1c-1-.9-1.6-2-1.6-3.4v-.9h.3c2 0 3.7-1.1 4.4-2.7 1.5.7 2.6 2.2 2.6 4l.3-1.5c0-2.5-2.2-4.6-4.8-4.6-2.7 0-4.8 2-4.8 4.6 0 2.2 1.5 4 3.6 4.5z" stroke="#262626" stroke-width="1.1" stroke-linecap="round" stroke-linejoin="round" />
			<path fill-rule="evenodd" d="M438.2 273.3l28.3-15.7-21.2-11.7-28.3 15.7 21.2 11.7z" fill="#fff" />
			<path d="M438.2 273.3l28.3-15.7-21.2-11.7-28.3 15.7 21.2 11.7z" stroke="#262626" stroke-width="1.1" stroke-linecap="round" stroke-linejoin="round" />
			<path fill-rule="evenodd" d="M443.2 265.2l1.7-11.2-6.4 1.2-5 9.6 9.7.4z" fill="#DAD933" />
			<path fill-rule="evenodd" d="M452 260.4l-20.4 1 2.4-3.7 17.2-2.7.7 5.4z" fill="#DAD933" />
			<path fill-rule="evenodd" d="M444.9 254l-6.4 1.2-1 2 7-1.1.4-2.1z" fill="#C1C42E" />
			<path fill-rule="evenodd" d="M435.4 261.2l8.5-.4.7-4.7-7.1 1-2.1 4z" fill="#AFAF2F" />
			<path fill-rule="evenodd" d="M434 257.7l3.5-.5 6.5 3.6-12.4.6 2.4-3.7z" fill="#C1C42E" />
			<path fill-rule="evenodd" d="M437.5 257.2l-2.1 4 8.5-.4v-.1l-6.4-3.5z" fill="#919431" />
			<path fill-rule="evenodd" d="M458.7 281.7c0 .9-.7 1.6-1.7 1.6s-1.7-.7-1.7-1.6v-11.3c0-1 .8-1.7 1.7-1.7 1 0 1.7.8 1.7 1.7v11.3z" fill="#515151" />
			<path d="M458.7 281.7c0 .9-.7 1.6-1.7 1.6s-1.7-.7-1.7-1.6v-11.3c0-1 .8-1.7 1.7-1.7 1 0 1.7.8 1.7 1.7v11.3z" stroke="#262626" stroke-width="1.1" />
			<path fill-rule="evenodd" d="M453.8 284.4c0 1-.8 1.6-1.7 1.6-1 0-1.7-.7-1.7-1.6v-11.3c0-1 .7-1.6 1.7-1.6s1.7.7 1.7 1.6v11.3z" fill="#515151" />
			<path d="M453.8 284.4c0 1-.8 1.6-1.7 1.6-1 0-1.7-.7-1.7-1.6v-11.3c0-1 .7-1.6 1.7-1.6s1.7.7 1.7 1.6v11.3z" stroke="#262626" stroke-width="1.1" />
			<path fill-rule="evenodd" d="M452.6 262.3c-.4.6-.1 1.5.5 1.8.7.4 1.6.2 2-.4l5.7-9.6c.4-.6.2-1.4-.5-1.8-.7-.4-1.5-.2-2 .4l-5.7 9.6z" fill="#FFCBA6" />
			<path d="M452.6 262.3c-.4.6-.1 1.5.5 1.8.7.4 1.6.2 2-.4l5.7-9.6c.4-.6.2-1.4-.5-1.8-.7-.4-1.5-.2-2 .4l-5.7 9.6z" stroke="#262626" stroke-width="1.7" />
			<path fill-rule="evenodd" d="M460.2 253.9c0-2.6-2.6-3.3-5.7-1.6-3 1.7-5.6 5.3-5.6 7.9v12.5l2.8 1.6 8.5-4.7v-15.7z" fill="#6C75E1" />
			<path d="M460.2 253.9c0-2.6-2.6-3.3-5.7-1.6-3 1.7-5.6 5.3-5.6 7.9v12.5l2.8 1.6 8.5-4.7v-15.7h0z" stroke="#262626" stroke-width="1.1" />
			<path fill-rule="evenodd" d="M454.7 246.4c2.6 0 4.8 2 4.8 4.6 0 2.5-2.2 4.6-4.8 4.6-2.7 0-4.8-2-4.8-4.6 0-2.6 2.1-4.6 4.8-4.6" fill="#FFCBA6" />
			<path d="M454.7 246.4c2.6 0 4.8 2 4.8 4.6 0 2.5-2.2 4.6-4.8 4.6-2.7 0-4.8-2-4.8-4.6 0-2.6 2.1-4.6 4.8-4.6z" stroke="#262626" stroke-width="1.1" />
			<path fill-rule="evenodd" d="M455 246.4h.4c2.3.4 4 2.3 4 4.6s-1.7 4.2-4 4.5a4.7 4.7 0 01-4.1-4.5c0-.5 0-1 .2-1.6h-1.4l.1-.3.2-.4.1-.3.2-.2v-.1l.3-.2.2-.3.6-.4.3-.2.2-.2.4-.2h.3l.3-.2h1.8" fill="#98760F" />
			<path d="M455 246.4h.4c2.3.4 4 2.3 4 4.6s-1.7 4.2-4 4.5a4.7 4.7 0 01-4.1-4.5c0-.5 0-1 .2-1.6h-1.4l.1-.3v0l.2-.4v0l.1-.3v0l.2-.2v-.1l.3-.2.2-.3h0l.6-.4h0l.3-.2.2-.2s0 0 0 0l.4-.2h.3l.3-.2h1.8z" stroke="#262626" stroke-width="1.1" stroke-linecap="round" stroke-linejoin="round" />
			<path fill-rule="evenodd" d="M444.1 267c-.4.6-.1 1.5.5 1.8.7.4 1.6.2 2-.4l5.7-9.6c.4-.6.2-1.5-.5-1.8-.7-.4-1.5-.2-2 .4l-5.7 9.6z" fill="#FFCBA6" />
			<path d="M444.1 267c-.4.6-.1 1.5.5 1.8.7.4 1.6.2 2-.4l5.7-9.6c.4-.6.2-1.5-.5-1.8-.7-.4-1.5-.2-2 .4l-5.7 9.6z" stroke="#262626" stroke-width="1.1" />
		</g>
		<path d="M341.3 344v-10h2v10h-2zm11.3 0h-2.1v-4.5c0-.5-.1-1-.3-1.2-.2-.3-.5-.4-.9-.4-.5 0-.9.2-1.1.6-.3.4-.4 1-.4 1.9v3.6h-2v-7.6h1.5l.3 1h.1c.2-.4.5-.7 1-.9.3-.2.7-.3 1.2-.3 1.2 0 2 .4 2.4 1.1h.1l1-.8a3 3 0 011.3-.3c.9 0 1.5.2 2 .7.4.4.6 1.1.6 2.1v5h-2v-4.5c0-.5-.1-1-.3-1.2-.2-.3-.5-.4-.9-.4-.5 0-.9.2-1.2.5-.2.4-.3 1-.3 1.8v3.8zm11 .1c-.8 0-1.5-.3-2-1h-.1v4.2h-2v-11h1.7l.3 1c.6-.7 1.3-1 2.2-1 1 0 1.6.3 2.2 1 .5.7.7 1.6.7 2.9 0 .8-.1 1.5-.3 2a3 3 0 01-1 1.5c-.5.3-1 .4-1.6.4zm-.5-6.2c-.6 0-1 .1-1.2.5-.2.3-.3.8-.3 1.5v.3c0 .8 0 1.4.3 1.7.3.4.7.5 1.2.5 1 0 1.4-.7 1.4-2.3 0-.7-.1-1.3-.4-1.7-.2-.3-.5-.5-1-.5zm9.5-1.7h.7l-.1 2h-.7c-.6 0-1.1.1-1.5.5-.4.3-.6.8-.6 1.4v3.9h-2v-7.6h1.5l.3 1.2h.1l1-1c.4-.3.8-.4 1.3-.4zm3.8 4c0 .7 0 1.3.3 1.7.3.4.7.6 1.2.6.6 0 1-.2 1.2-.6.3-.4.4-1 .4-1.7 0-.8-.1-1.4-.4-1.7-.2-.4-.6-.6-1.2-.6-.5 0-1 .2-1.2.6-.2.3-.3.9-.3 1.7zm5.2 0c0 1.2-.3 2.2-1 2.9-.6.7-1.5 1-2.7 1-.7 0-1.4-.1-2-.4-.5-.4-1-.8-1.2-1.4-.3-.6-.5-1.3-.5-2.1a4 4 0 011-3c.7-.6 1.6-1 2.8-1 .7 0 1.3.2 1.9.5.6.3 1 .8 1.3 1.4.3.6.4 1.3.4 2zm3.6 3.8l-3-7.6h2.3l1.4 4.3c.2.6.3 1 .3 1.6l.4-1.6 1.5-4.3h2.1l-2.9 7.6h-2.1zm9.3-6.3c-.4 0-.8.1-1 .4a2 2 0 00-.5 1.2h3c0-.5-.2-.9-.4-1.2-.3-.3-.7-.4-1.1-.4zm.3 6.4a4 4 0 01-2.9-1c-.7-.7-1-1.6-1-2.9 0-1.2.3-2.2 1-3 .6-.6 1.5-1 2.6-1 1 0 2 .3 2.5 1 .6.6 1 1.4 1 2.5v1h-5c0 .6.2 1 .5 1.4.3.3.8.5 1.4.5a5.7 5.7 0 002.6-.6v1.6l-1.2.4-1.5.1zm-48.4 16.6c0 .8-.2 1.4-.8 1.8-.5.4-1.4.6-2.4.6h-1.5l-1-.4V361a7.3 7.3 0 002.5.6c.8 0 1.2-.2 1.2-.6 0-.2 0-.3-.2-.4a12.1 12.1 0 00-1.5-.8l-1.3-.7a2 2 0 01-.6-.7l-.2-1c0-.7.3-1.3.8-1.6.5-.4 1.3-.6 2.3-.6.9 0 1.8.2 2.6.6l-.6 1.5-1-.4-1-.1c-.7 0-1 .1-1 .5l.3.4 1.3.7 1.3.6c.3.2.5.5.6.8.2.2.2.6.2 1zm4.9.8l1.3-.3v1.6c-.5.2-1.2.3-2 .3s-1.4-.2-1.8-.6c-.3-.4-.5-1-.5-1.9V357h-1v-.9l1.1-.7.6-1.6h1.4v1.7h2.1v1.5h-2.1v3.7c0 .3 0 .5.2.7l.7.2zm7.7 1.5l-.4-1-1.2.9c-.3.2-.8.2-1.4.2-.7 0-1.3-.2-1.7-.6-.5-.4-.7-1-.7-1.8s.3-1.4.9-1.8a5 5 0 012.5-.6h1.4v-.4c0-.8-.4-1.2-1.2-1.2-.6 0-1.3.2-2.2.6l-.7-1.4c1-.5 1.9-.7 3-.7 1 0 1.8.2 2.3.7.6.4.8 1.1.8 2v5.1H359zm-.6-3.5h-.8c-.6 0-1 .1-1.4.3-.3.2-.4.5-.4 1s.3.8 1 .8c.5 0 .8-.1 1.1-.4.3-.3.5-.7.5-1.1v-.6zm6.2-.7l1-1.1 2-2.3h2.4l-3 3.3 3.2 4.3h-2.4l-2.2-3.1-1 .7v2.4h-2v-10.6h2v6.4zm9.8-2.1c-.4 0-.7.1-1 .4a2 2 0 00-.4 1.2h2.9c0-.5-.1-.9-.4-1.2-.3-.3-.6-.4-1-.4zm.3 6.4a4 4 0 01-2.8-1c-.7-.7-1-1.6-1-2.9 0-1.2.2-2.2.9-3 .6-.6 1.5-1 2.6-1s2 .3 2.6 1c.6.6.9 1.4.9 2.5v1h-5c0 .6.2 1 .6 1.4.3.3.7.5 1.3.5a5.7 5.7 0 002.6-.6v1.6l-1.1.4-1.6.1zm12-.1h-2.2v-4.5c0-1-.4-1.6-1.2-1.6-.6 0-1 .2-1.3.6-.2.4-.4 1-.4 1.9v3.6h-2v-10.6h2v3.9c.5-.7 1.3-1 2.3-1 .9 0 1.5.2 2 .6.5.5.7 1.2.7 2.1v5zm3.7-3.8c0 .7.1 1.3.4 1.7.2.4.6.6 1.2.6s1-.2 1.2-.6c.2-.4.4-1 .4-1.7 0-.8-.2-1.4-.4-1.7-.2-.4-.7-.6-1.2-.6-.6 0-1 .2-1.2.6-.3.3-.4.9-.4 1.7zm5.3 0c0 1.2-.3 2.2-1 2.9-.6.7-1.6 1-2.7 1-.8 0-1.4-.1-2-.4-.5-.4-1-.8-1.3-1.4-.3-.6-.4-1.3-.4-2.1a4 4 0 011-3c.6-.6 1.5-1 2.7-1 .7 0 1.4.2 2 .5.5.3 1 .8 1.2 1.4.3.6.5 1.3.5 2zm3.8 3.8h-2v-10.6h2V363zm4.6.1c-.9 0-1.6-.3-2.1-1s-.8-1.7-.8-3c0-1.2.3-2.1.8-2.8.5-.7 1.3-1 2.2-1 1 0 1.7.3 2.2 1l-.1-1.5v-2.4h2V363h-1.5l-.4-1h-.1c-.5.8-1.2 1.1-2.2 1.1zm.8-1.6c.5 0 .9-.2 1.1-.5.3-.3.4-.8.4-1.6v-.2c0-.8-.1-1.4-.4-1.8-.2-.3-.6-.5-1.2-.5-.4 0-.8.2-1 .6-.3.4-.5 1-.5 1.7 0 .8.2 1.3.4 1.7.3.4.7.6 1.2.6zm8.8-4.8c-.4 0-.8.1-1 .4a2 2 0 00-.4 1.2h2.9c0-.5-.2-.9-.4-1.2-.3-.3-.6-.4-1-.4zm.3 6.4a4 4 0 01-2.9-1c-.7-.7-1-1.6-1-2.9 0-1.2.3-2.2 1-3 .6-.6 1.5-1 2.6-1 1 0 2 .3 2.5 1 .6.6 1 1.4 1 2.5v1h-5c0 .6.2 1 .5 1.4.4.3.8.5 1.4.5a5.7 5.7 0 002.6-.6v1.6l-1.2.4-1.5.1zm9.1-7.9h.7l-.2 2h-.6c-.6 0-1.2.1-1.5.5-.4.3-.6.8-.6 1.4v3.9h-2v-7.6h1.5l.3 1.2h.1l1-1c.4-.3.8-.4 1.3-.4zm-78.8 20.5c-.5 0-.8.1-1 .4a2 2 0 00-.5 1.2h3c0-.5-.2-.9-.5-1.2-.2-.3-.6-.4-1-.4zm.3 6.4a4 4 0 01-3-1c-.6-.7-1-1.6-1-2.9 0-1.2.3-2.2 1-3 .6-.6 1.5-1 2.6-1s2 .3 2.6 1c.6.6.9 1.4.9 2.5v1h-5c0 .6.2 1 .6 1.4.3.3.8.5 1.3.5a5.7 5.7 0 002.6-.6v1.6l-1.1.4-1.5.1zm11.8-.1h-2v-4.5c0-.5-.2-1-.4-1.2-.2-.3-.5-.4-.9-.4-.6 0-1 .2-1.3.6-.2.4-.4 1-.4 1.9v3.6h-2v-7.6h1.6l.2 1h.2c.2-.4.5-.7 1-.9.3-.2.8-.3 1.3-.3.9 0 1.6.3 2 .7.5.5.7 1.2.7 2.1v5zm8.8-7.6v1l-1.2.3c.2.4.4.7.4 1.2 0 .8-.3 1.4-1 1.9-.5.4-1.3.7-2.3.7h-.7c-.2 0-.3.3-.3.5 0 .3.4.4 1.2.4h1.3c.8 0 1.4.2 1.9.6.4.3.6.9.6 1.5 0 1-.3 1.6-1 2.1-.8.5-1.9.8-3.3.8-1 0-1.9-.2-2.4-.6-.6-.4-.9-.9-.9-1.6 0-.4.2-.8.4-1.1.3-.3.8-.5 1.3-.7-.2 0-.4-.2-.6-.4a1 1 0 01-.2-.7c0-.3 0-.5.3-.7l.7-.6a2 2 0 01-1-.8c-.2-.4-.3-.8-.3-1.4 0-.8.3-1.4.8-1.9s1.3-.7 2.3-.7h.8l.6.2h2.6zm-5.9 8.7c0 .3.2.5.4.7l1.2.2c.7 0 1.3-.1 1.7-.3.5-.2.7-.5.7-.8 0-.3-.1-.5-.4-.6a3 3 0 00-1.2-.2h-1c-.4 0-.7 0-1 .3-.3.1-.4.4-.4.7zm.8-6.2c0 .4 0 .7.3 1 .1.2.4.3.8.3s.7-.1.9-.4c.2-.2.3-.5.3-1 0-.9-.4-1.3-1.2-1.3-.7 0-1.1.4-1.1 1.4zm11.2 5.1l-.4-1-1.1.9c-.4.2-.9.2-1.5.2-.7 0-1.3-.2-1.7-.6-.4-.4-.6-1-.6-1.8s.3-1.4.8-1.8a5 5 0 012.6-.6h1.3v-.4c0-.8-.4-1.2-1.2-1.2-.6 0-1.3.2-2.1.6l-.7-1.4c.9-.5 1.8-.7 3-.7 1 0 1.7.2 2.3.7.5.4.8 1.1.8 2v5.1h-1.5zm-.6-3.5h-.8c-.6 0-1 .1-1.3.3-.3.2-.5.5-.5 1s.4.8 1 .8c.5 0 .9-.1 1.2-.4.3-.3.4-.7.4-1.1v-.6zm10.9-4.1v1l-1.2.3c.2.4.3.7.3 1.2 0 .8-.3 1.4-.8 1.9-.6.4-1.4.7-2.4.7h-.7c-.2 0-.3.3-.3.5 0 .3.4.4 1.1.4h1.3c.9 0 1.5.2 2 .6.4.3.6.9.6 1.5 0 1-.4 1.6-1.1 2.1-.8.5-1.8.8-3.2.8-1 0-1.9-.2-2.5-.6-.5-.4-.8-.9-.8-1.6 0-.4.1-.8.4-1.1.3-.3.7-.5 1.3-.7-.2 0-.4-.2-.6-.4a1 1 0 01-.2-.7c0-.3 0-.5.2-.7l.8-.6a2 2 0 01-1-.8c-.2-.4-.3-.8-.3-1.4 0-.8.2-1.4.8-1.9.5-.5 1.3-.7 2.3-.7h.8l.5.2h2.7zm-5.9 8.7c0 .3.1.5.4.7l1.2.2c.7 0 1.3-.1 1.7-.3.4-.2.7-.5.7-.8 0-.3-.2-.5-.4-.6a3 3 0 00-1.2-.2h-1c-.4 0-.8 0-1 .3-.3.1-.4.4-.4.7zm.8-6.2c0 .4 0 .7.2 1 .2.2.5.3.9.3s.7-.1.9-.4l.2-1c0-.9-.3-1.3-1.1-1.3s-1.1.4-1.1 1.4zm9.5-1.2c-.4 0-.8.1-1 .4a2 2 0 00-.4 1.2h2.9c0-.5-.2-.9-.4-1.2-.3-.3-.6-.4-1-.4zm.3 6.4a4 4 0 01-2.9-1c-.7-.7-1-1.6-1-2.9 0-1.2.3-2.2 1-3 .6-.6 1.5-1 2.6-1 1 0 2 .3 2.5 1 .6.6 1 1.4 1 2.5v1h-5c0 .6.2 1 .5 1.4.4.3.8.5 1.4.5a5.7 5.7 0 002.6-.6v1.6l-1.2.4-1.5.1zm11.7-.1h-2.1v-4.5c0-.5-.1-1-.3-1.2-.2-.3-.5-.4-.9-.4-.5 0-.9.2-1.1.6-.3.4-.4 1-.4 1.9v3.6h-2v-7.6h1.5l.3 1h.1c.2-.4.5-.7 1-.9.3-.2.7-.3 1.2-.3 1.2 0 2 .4 2.4 1.1h.2c.2-.3.5-.6.9-.8a3 3 0 011.3-.3c.9 0 1.5.2 2 .7.4.4.6 1.1.6 2.1v5h-2v-4.5c0-.5-.1-1-.3-1.2-.2-.3-.5-.4-.9-.4-.5 0-.9.2-1.1.5-.3.4-.4 1-.4 1.8v3.8zm10-6.3c-.4 0-.7.1-1 .4a2 2 0 00-.4 1.2h3c-.1-.5-.2-.9-.5-1.2-.3-.3-.6-.4-1-.4zm.3 6.4a4 4 0 01-2.8-1c-.7-.7-1-1.6-1-2.9 0-1.2.2-2.2.9-3 .6-.6 1.5-1 2.6-1s2 .3 2.6 1c.6.6.9 1.4.9 2.5v1h-5c0 .6.2 1 .6 1.4.3.3.7.5 1.3.5a5.7 5.7 0 002.6-.6v1.6l-1.1.4-1.6.1zm12-.1H418v-4.5c0-.5 0-1-.3-1.2-.2-.3-.5-.4-.9-.4-.6 0-1 .2-1.3.6-.2.4-.4 1-.4 1.9v3.6h-2v-7.6h1.6l.2 1h.1c.3-.4.6-.7 1-.9.4-.2.9-.3 1.4-.3.9 0 1.6.3 2 .7.5.5.7 1.2.7 2.1v5zm5.3-1.5l1.3-.3v1.6c-.5.2-1.2.3-2 .3s-1.4-.2-1.7-.6c-.4-.4-.6-1-.6-1.9V376h-1v-.9l1.1-.7.6-1.6h1.4v1.7h2.1v1.5h-2.1v3.7c0 .3 0 .5.2.7l.7.2zM350.5 401h-2.6l-.8-.8a5 5 0 01-3 1c-1 0-2-.3-2.6-.8-.6-.5-1-1.2-1-2.1 0-.6.2-1.2.5-1.6a4 4 0 011.4-1.2l-.8-1.2a3 3 0 01-.2-1.1c0-.7.3-1.3.8-1.7.5-.4 1.3-.6 2.1-.6.9 0 1.6.2 2 .6.6.3.8.9.8 1.5s-.1 1-.4 1.5c-.3.5-.9.9-1.6 1.3l2 1.9c.3-.5.6-1.2.8-2h2.2a10 10 0 01-1.7 3.3l2.1 2zm-7.7-2.9c0 .4.1.7.4 1 .3.2.7.3 1.1.3.6 0 1.1-.2 1.6-.4l-2.3-2.3a3 3 0 00-.6.6c-.2.3-.2.5-.2.8zm2.4-4.8c0-.3 0-.5-.2-.6a1 1 0 00-.7-.2c-.3 0-.5 0-.7.2-.2.1-.3.3-.3.6 0 .4.3.9.7 1.3l.9-.6c.2-.2.3-.5.3-.7zm11.7 3.9c0 .7.1 1.3.4 1.7.2.4.6.6 1.2.6.5 0 1-.2 1.2-.6.2-.4.3-1 .3-1.7 0-.8 0-1.4-.3-1.7-.3-.4-.7-.6-1.2-.6-.6 0-1 .2-1.2.6-.3.3-.4.9-.4 1.7zm5.3 0c0 1.2-.4 2.2-1 2.9-.7.7-1.6 1-2.8 1-.7 0-1.3-.1-1.9-.4-.6-.4-1-.8-1.3-1.4-.3-.6-.4-1.3-.4-2.1a4 4 0 011-3c.6-.6 1.5-1 2.7-1 .7 0 1.4.2 2 .5.5.3 1 .8 1.2 1.4.3.6.5 1.3.5 2zm3.5 3.8l-2.9-7.6h2.2l1.5 4.3.3 1.6.3-1.6 1.5-4.3h2.2l-3 7.6h-2zm9.3-6.3c-.4 0-.8.1-1 .4a2 2 0 00-.4 1.2h2.9c0-.5-.2-.9-.4-1.2-.3-.3-.6-.4-1-.4zm.3 6.4a4 4 0 01-2.9-1c-.6-.7-1-1.6-1-2.9 0-1.2.3-2.2 1-3 .6-.6 1.5-1 2.6-1s2 .3 2.5 1c.6.6 1 1.4 1 2.5v1h-5c0 .6.2 1 .5 1.4.4.3.8.5 1.4.5a5.7 5.7 0 002.6-.6v1.6l-1.2.4-1.5.1zm9.1-7.9h.7l-.1 2h-.7c-.6 0-1.1.1-1.5.5-.4.3-.6.8-.6 1.4v3.9h-2v-7.6h1.5l.3 1.2h.1l1-1c.4-.3.8-.4 1.3-.4zm7.4 5.5c0 .8-.2 1.4-.8 1.8-.5.4-1.3.6-2.4.6H387l-1-.4V399a7.3 7.3 0 002.5.6c.8 0 1.2-.2 1.2-.6 0-.2 0-.3-.2-.4a12.3 12.3 0 00-1.5-.8l-1.3-.7a2 2 0 01-.6-.7l-.2-1c0-.7.3-1.3.8-1.6.5-.4 1.3-.6 2.3-.6.9 0 1.8.2 2.6.6l-.6 1.5-1-.4-1-.1c-.7 0-1 .1-1 .5l.3.4 1.3.7 1.3.6c.3.2.5.5.6.8.2.2.2.6.2 1zm1.6-7.3c0-.7.3-1 1.1-1s1.1.3 1.1 1c0 .3 0 .6-.2.7-.2.2-.5.3-.9.3-.8 0-1.1-.3-1.1-1zm2.1 9.6h-2v-7.6h2v7.6zm8.9-7.6v1l-1.2.3c.2.4.3.7.3 1.2 0 .8-.3 1.4-.8 1.9-.6.4-1.4.7-2.4.7h-.7c-.2 0-.3.3-.3.5 0 .3.4.4 1.1.4h1.3c.9 0 1.5.2 2 .6.4.3.6.9.6 1.5 0 1-.4 1.6-1.1 2.1-.8.5-1.8.8-3.2.8-1.1 0-2-.2-2.5-.6-.5-.4-.8-.9-.8-1.6 0-.4.1-.8.4-1.1.3-.3.7-.5 1.3-.7-.2 0-.4-.2-.6-.4a1 1 0 01-.2-.7c0-.3 0-.5.2-.7l.8-.6a2 2 0 01-1-.8c-.2-.4-.3-.8-.3-1.4 0-.8.2-1.4.8-1.9.5-.5 1.3-.7 2.3-.7h.8l.5.2h2.7zm-6 8.7c0 .3.2.5.5.7l1.2.2c.7 0 1.3-.1 1.7-.3.4-.2.7-.5.7-.8 0-.3-.2-.5-.4-.6a3 3 0 00-1.2-.2h-1c-.4 0-.8 0-1 .3-.3.1-.4.4-.4.7zm.8-6.2c0 .4.1.7.3 1 .2.2.5.3.9.3s.7-.1.9-.4l.2-1c0-.9-.3-1.3-1.1-1.3s-1.2.4-1.2 1.4zm13.5 5.1h-2v-4.5c0-1-.5-1.6-1.3-1.6-.6 0-1 .2-1.3.6-.2.4-.4 1-.4 1.9v3.6h-2v-10.6h2v3.9c.5-.7 1.3-1 2.3-1 .9 0 1.5.2 2 .6.5.5.7 1.2.7 2.1v5zm5.4-1.5l1.3-.3v1.6c-.5.2-1.2.3-2 .3s-1.4-.2-1.8-.6c-.3-.4-.5-1-.5-1.9V395h-1v-.9l1.1-.7.6-1.6h1.4v1.7h2.1v1.5h-2.1v3.7c0 .3 0 .5.2.7l.7.2z" fill="#000" />
	</g>
	<g data-section="measure">
		<path class="arrow" d="M317 413l33.7 20.6-8.2 4.5-33.8-20.7.2-41.2 8.3-4.4-.3 41.1z" fill="#fff" />
		<path fill-rule="evenodd" clip-rule="evenodd" d="M274.3 444.5c0 .7-.6 1.3-1.4 1.3-.7 0-1.3-.6-1.3-1.3v-9.3c0-.8.6-1.3 1.3-1.3.8 0 1.4.5 1.4 1.3v9.3z" fill="#806346" />
		<path clip-rule="evenodd" d="M274.3 444.5c0 .7-.6 1.3-1.4 1.3-.7 0-1.3-.6-1.3-1.3v-9.3c0-.8.6-1.3 1.3-1.3.8 0 1.4.5 1.4 1.3v9.3z" stroke="#262626" stroke-width="1.1" />
		<path fill-rule="evenodd" clip-rule="evenodd" d="M270.3 446.7c0 .7-.6 1.3-1.4 1.3-.8 0-1.4-.6-1.4-1.3v-9.3c0-.7.6-1.3 1.4-1.3.8 0 1.4.6 1.4 1.3v9.3z" fill="#806346" />
		<path clip-rule="evenodd" d="M270.3 446.7c0 .7-.6 1.3-1.4 1.3-.8 0-1.4-.6-1.4-1.3v-9.3c0-.7.6-1.3 1.4-1.3.8 0 1.4.6 1.4 1.3v9.3z" stroke="#262626" stroke-width="1.1" />
		<path fill-rule="evenodd" clip-rule="evenodd" d="M276.1 421.7c-.2.6-.9.8-1.4.7-.6-.2-1-1-.7-1.5l3.2-8.4c.2-.6.9-1 1.4-.7.7.2 1 .9.7 1.4l-3.2 8.5z" fill="#806346" />
		<path clip-rule="evenodd" d="M276.1 421.7c-.2.6-.9.8-1.4.7-.6-.2-1-1-.7-1.5l3.2-8.4c.2-.6.9-1 1.4-.7.7.2 1 .9.7 1.4l-3.2 8.5z" stroke="#262626" stroke-width="1.1" />
		<path fill-rule="evenodd" clip-rule="evenodd" d="M275.5 421.7c0-2.1-2-2.7-4.6-1.3-2.5 1.4-4.6 4.3-4.6 6.4v10.3l2.3 1.3 7-3.8v-13z" fill="#6C75E1" />
		<path clip-rule="evenodd" d="M275.5 421.7c0-2.1-2-2.7-4.6-1.3-2.5 1.4-4.6 4.3-4.6 6.4v10.3l2.3 1.3 7-3.8v-13h0z" stroke="#262626" stroke-width="1.1" />
		<path fill-rule="evenodd" clip-rule="evenodd" d="M271 415.5c2.2 0 4 1.7 4 3.8 0 2-1.8 3.8-4 3.8-2.1 0-4-1.7-4-3.8 0-2 1.9-3.8 4-3.8" fill="#806346" />
		<path clip-rule="evenodd" d="M271 415.5c2.2 0 4 1.7 4 3.8 0 2-1.8 3.8-4 3.8-2.1 0-4-1.7-4-3.8 0-2 1.9-3.8 4-3.8z" stroke="#262626" stroke-width="1.7" />
		<path fill-rule="evenodd" clip-rule="evenodd" d="M271.4 415.5h.2c1.9.3 3.4 1.9 3.4 3.8s-1.5 3.4-3.4 3.7a3.9 3.9 0 01-3.4-3.7l.2-1.3h-1.1v-.3l.2-.3.1-.2.2-.2.2-.3.2-.2.4-.3c.2 0 .3-.1.3-.2l.2-.1.3-.2h.2l.3-.1h.3l.3-.1H271.4" fill="#464646" />
		<path clip-rule="evenodd" d="M271.4 415.5h.2c1.9.3 3.4 1.9 3.4 3.8s-1.5 3.4-3.4 3.7a3.9 3.9 0 01-3.4-3.7l.2-1.3h-1.1v-.3 0l.2-.3v0l.1-.2v0l.2-.2s0 0 0 0l.2-.3.2-.2h0l.4-.3h0c.2 0 .3-.1.3-.2l.2-.1s0 0 0 0l.3-.2h.2l.3-.1h.3l.3-.1H271.4z" stroke="#262626" stroke-width="1.1" stroke-linecap="round" stroke-linejoin="round" />
		<path fill-rule="evenodd" clip-rule="evenodd" d="M269.2 424.8a1 1 0 01-.7 1.4c-.6.2-1.3 0-1.5-.7l-3.2-8.4a1 1 0 01.7-1.5c.6-.2 1.3.1 1.5.7l3.2 8.5z" fill="#806346" />
		<path clip-rule="evenodd" d="M269.2 424.8a1 1 0 01-.7 1.4c-.6.2-1.3 0-1.5-.7l-3.2-8.4a1 1 0 01.7-1.5c.6-.2 1.3.1 1.5.7l3.2 8.5z" stroke="#262626" stroke-width="1.1" />
		<path fill-rule="evenodd" clip-rule="evenodd" d="M257 441.2c0 .8-.7 1.4-1.5 1.4-.7 0-1.3-.6-1.3-1.4V432c0-.8.6-1.4 1.3-1.4.8 0 1.4.6 1.4 1.4v9.2z" fill="#FFCBA6" />
		<path clip-rule="evenodd" d="M257 441.2c0 .8-.7 1.4-1.5 1.4-.7 0-1.3-.6-1.3-1.4V432c0-.8.6-1.4 1.3-1.4.8 0 1.4.6 1.4 1.4v9.2z" stroke="#262626" stroke-width="1.1" />
		<path fill-rule="evenodd" clip-rule="evenodd" d="M252.9 443.5c0 .7-.6 1.3-1.4 1.3-.8 0-1.4-.6-1.4-1.3v-9.3c0-.7.6-1.3 1.4-1.3.8 0 1.4.6 1.4 1.3v9.3z" fill="#FFCBA6" />
		<path clip-rule="evenodd" d="M252.9 443.5c0 .7-.6 1.3-1.4 1.3-.8 0-1.4-.6-1.4-1.3v-9.3c0-.7.6-1.3 1.4-1.3.8 0 1.4.6 1.4 1.3v9.3z" stroke="#262626" stroke-width="1.1" />
		<path fill-rule="evenodd" clip-rule="evenodd" d="M258.7 418.5c-.2.6-.9.8-1.4.6-.6-.2-1-.8-.7-1.4l3.2-8.5c.2-.6.9-.8 1.4-.6.7.2 1 .8.7 1.4l-3.2 8.5z" fill="#FFCBA6" />
		<path clip-rule="evenodd" d="M258.7 418.5c-.2.6-.9.8-1.4.6-.6-.2-1-.8-.7-1.4l3.2-8.5c.2-.6.9-.8 1.4-.6.7.2 1 .8.7 1.4l-3.2 8.5z" stroke="#262626" stroke-width="1.1" />
		<path fill-rule="evenodd" clip-rule="evenodd" d="M258 418.5c0-2.2-2-2.7-4.5-1.3-2.6 1.4-4.7 4.3-4.7 6.4V434l2.4 1.3 7-3.9v-12.8h-.1z" fill="#23B2A7" />
		<path clip-rule="evenodd" d="M258 418.5c0-2.2-2-2.7-4.5-1.3-2.6 1.4-4.7 4.3-4.7 6.4V434l2.4 1.3 7-3.9v-12.8h-.1z" stroke="#262626" stroke-width="1.1" />
		<path fill-rule="evenodd" clip-rule="evenodd" d="M253.6 412.3c2.2 0 4 1.7 4 3.8 0 2-1.8 3.7-4 3.7-2.1 0-4-1.6-4-3.7s1.9-3.8 4-3.8" fill="#FFCBA6" />
		<path clip-rule="evenodd" d="M253.6 412.3c2.2 0 4 1.7 4 3.8 0 2-1.8 3.7-4 3.7-2.1 0-4-1.6-4-3.7s1.9-3.8 4-3.8z" stroke="#262626" stroke-width="1.7" />
		<path fill-rule="evenodd" clip-rule="evenodd" d="M254 412.3h.2c1.9.3 3.4 1.9 3.4 3.8s-1.5 3.4-3.4 3.7a3.9 3.9 0 01-3.4-3.7l.2-1.3H250v-.3l.2-.3.1-.2.2-.2c0-.2.2-.2.2-.3l.2-.2.4-.3.3-.2.2-.1.3-.2h.2l.3-.2h1.5" fill="#98760F" />
		<path clip-rule="evenodd" d="M254 412.3h.2c1.9.3 3.4 1.9 3.4 3.8s-1.5 3.4-3.4 3.7a3.9 3.9 0 01-3.4-3.7l.2-1.3H250v-.3 0l.2-.3v0l.1-.2v0l.2-.2s0 0 0 0c0-.2.2-.2.2-.3l.2-.2h0l.4-.3h0l.3-.2.2-.1s0 0 0 0l.3-.2h.2l.3-.2h1.5z" stroke="#262626" stroke-width="1.1" stroke-linecap="round" stroke-linejoin="round" />
		<path fill-rule="evenodd" clip-rule="evenodd" d="M251.8 421.6a1 1 0 01-.7 1.4c-.6.2-1.3-.1-1.5-.7l-3.2-8.5a1 1 0 01.7-1.4c.6-.2 1.3.1 1.5.7l3.2 8.5z" fill="#FFCBA6" />
		<path clip-rule="evenodd" d="M251.8 421.6a1 1 0 01-.7 1.4c-.6.2-1.3-.1-1.5-.7l-3.2-8.5a1 1 0 01.7-1.4c.6-.2 1.3.1 1.5.7l3.2 8.5z" stroke="#262626" stroke-width="1.1" />
		<path fill-rule="evenodd" clip-rule="evenodd" d="M239.5 413.7L199 436.2v-25.7l40.6-22.5v25.7z" fill="#fff" />
		<path clip-rule="evenodd" d="M239.5 413.7L199 436.2v-25.7l40.6-22.5v25.7z" stroke="#262626" stroke-width="1.1" stroke-linecap="round" stroke-linejoin="round" />
		<path fill-rule="evenodd" clip-rule="evenodd" d="M204.8 429.7l5.3-12.8 6.2.2 5.8-9.9h5.8l5.8-12.7" fill="#fff" />
		<path d="M204.8 429.7l5.3-12.8 6.2.2 5.8-9.9h5.8l5.8-12.7" stroke="#262626" stroke-width="1.1" stroke-linecap="round" stroke-linejoin="round" />
		<path fill-rule="evenodd" clip-rule="evenodd" d="M207.7 409.5c.3.3.5.8.5 1.4 0 1.9-1.6 4.2-3.5 5.3-1.3.7-2.4.7-3 0l6-6.7z" fill="#515151" />
		<path clip-rule="evenodd" d="M207.7 409.5c.3.3.5.8.5 1.4 0 1.9-1.6 4.2-3.5 5.3-1.3.7-2.4.7-3 0l6-6.7z" stroke="#333" stroke-width="1.1" stroke-linecap="round" stroke-linejoin="round" />
		<path fill-rule="evenodd" clip-rule="evenodd" d="M207.7 409.5c-.6-.7-1.7-.7-3 0v3.4l3-3.4z" fill="#8B8B8B" />
		<path clip-rule="evenodd" d="M207.7 409.5c-.6-.7-1.7-.7-3 0v3.4l3-3.4zM201.7 416.1a2 2 0 01-.4-1.4c0-1.8 1.5-4.2 3.4-5.2v3.3l-3 3.3z" stroke="#333" stroke-width="1.1" stroke-linecap="round" stroke-linejoin="round" />
		<path fill-rule="evenodd" clip-rule="evenodd" d="M218 450c0 .7-.5 1.2-1.3 1.2s-1.4-.5-1.4-1.3v-9.3c0-.7.6-1.3 1.4-1.3.8 0 1.4.6 1.4 1.3v9.3z" fill="#515151" />
		<path clip-rule="evenodd" d="M218 450c0 .7-.5 1.2-1.3 1.2s-1.4-.5-1.4-1.3v-9.3c0-.7.6-1.3 1.4-1.3.8 0 1.4.6 1.4 1.3v9.3z" stroke="#262626" stroke-width="1.1" />
		<path fill-rule="evenodd" clip-rule="evenodd" d="M222.1 447.7c0 .7-.6 1.3-1.4 1.3-.7 0-1.4-.6-1.4-1.3v-9.3c0-.7.7-1.3 1.4-1.3.8 0 1.4.6 1.4 1.3v9.3z" fill="#515151" />
		<path clip-rule="evenodd" d="M222.1 447.7c0 .7-.6 1.3-1.4 1.3-.7 0-1.4-.6-1.4-1.3v-9.3c0-.7.7-1.3 1.4-1.3.8 0 1.4.6 1.4 1.3v9.3z" stroke="#262626" stroke-width="1.1" />
		<path fill-rule="evenodd" clip-rule="evenodd" d="M225.5 426l3.5-2c.5-.3 1.2-.1 1.6.4.3.5 0 1.2-.4 1.5l-4.7 2.6-4.6-2.6a1 1 0 01-.4-1.5c.3-.6 1-.7 1.6-.4l3.4 2z" fill="#CC9E70" />
		<path clip-rule="evenodd" d="M225.5 426l3.5-2c.5-.3 1.2-.1 1.6.4.3.5 0 1.2-.4 1.5l-4.7 2.6-4.6-2.6a1 1 0 01-.4-1.5c.3-.6 1-.7 1.6-.4l3.4 2z" stroke="#262626" stroke-width="1.1" />
		<path fill-rule="evenodd" clip-rule="evenodd" d="M223.3 424.9c0-2.1-2.1-2.7-4.6-1.3-2.6 1.4-4.7 4.3-4.7 6.4v10.3l2.4 1.3 7-3.8v-12.9h-.1z" fill="#FB6045" />
		<path clip-rule="evenodd" d="M223.3 424.9c0-2.1-2.1-2.7-4.6-1.3-2.6 1.4-4.7 4.3-4.7 6.4v10.3l2.4 1.3 7-3.8v-12.9h-.1z" stroke="#262626" stroke-width="1.1" />
		<path fill-rule="evenodd" clip-rule="evenodd" d="M215.6 432.7l3.5 1.9c.6.3.7 1 .4 1.5-.3.6-1 .7-1.6.4l-4.6-2.6v-5.1c0-.6.5-1.1 1.1-1.1.7 0 1.2.5 1.2 1v4z" fill="#CC9E70" />
		<path clip-rule="evenodd" d="M215.6 432.7l3.5 1.9c.6.3.7 1 .4 1.5-.3.6-1 .7-1.6.4l-4.6-2.6v-5.1c0-.6.5-1.1 1.1-1.1.7 0 1.2.5 1.2 1v4h0z" stroke="#262626" stroke-width="1.1" />
		<path fill-rule="evenodd" clip-rule="evenodd" d="M218.7 418.5c2.1 0 3.9 1.7 3.9 3.8 0 2-1.8 3.8-4 3.8-2.1 0-3.9-1.7-3.9-3.8 0-2 1.8-3.8 4-3.8" fill="#CC9E70" />
		<path clip-rule="evenodd" d="M218.7 418.5c2.1 0 3.9 1.7 3.9 3.8 0 2-1.8 3.8-4 3.8-2.1 0-3.9-1.7-3.9-3.8 0-2 1.8-3.8 4-3.8z" stroke="#262626" stroke-width="1.1" />
		<path fill-rule="evenodd" clip-rule="evenodd" d="M220.5 422.3c.2-.2.5-.1.6.1.1.2 0 .5-.2.6-.2.1-.5 0-.6-.2-.1-.2 0-.4.2-.5M218 423.6c.3-.1.5 0 .7.2 0 .2 0 .4-.2.5-.2.2-.5 0-.6-.1-.1-.2 0-.5.1-.6" fill="#262626" />
		<path fill-rule="evenodd" clip-rule="evenodd" d="M217.7 426a3.7 3.7 0 01-1.3-3.5h.2c1.6 0 3-1 3.6-2.3 1.3.7 2.1 1.9 2.2 3.3l.2-1.2c0-2-1.8-3.8-4-3.8-2.1 0-3.9 1.7-3.9 3.8 0 1.8 1.3 3.3 3 3.7" fill="#464646" />
		<path clip-rule="evenodd" d="M217.7 426a3.7 3.7 0 01-1.3-3.5h.2c1.6 0 3-1 3.6-2.3 1.3.7 2.1 1.9 2.2 3.3l.2-1.2c0-2-1.8-3.8-4-3.8-2.1 0-3.9 1.7-3.9 3.8 0 1.8 1.3 3.3 3 3.7z" stroke="#262626" stroke-width="1.1" stroke-linecap="round" stroke-linejoin="round" />
		<path d="M97.5 360l-2.4-7.8v7.8h-1.8v-10H96l2.4 7.6 2.6-7.6h2.8v10h-2v-4.7a45.2 45.2 0 01.2-3.1l-2.7 7.8h-2zm12-6.3c-.5 0-.8.1-1 .4a2 2 0 00-.5 1.2h3c0-.5-.2-.9-.5-1.2-.2-.3-.6-.4-1-.4zm.3 6.4a4 4 0 01-3-1c-.6-.7-1-1.6-1-2.9 0-1.2.4-2.2 1-3 .6-.6 1.5-1 2.7-1 1 0 1.9.3 2.5 1 .6.6.9 1.4.9 2.5v1h-5c0 .6.2 1 .6 1.4.3.3.8.5 1.4.5a5.7 5.7 0 002.5-.6v1.6l-1.1.4-1.5.1zm9.6-.1l-.4-1-1.1.9c-.4.2-.9.2-1.5.2-.7 0-1.3-.2-1.7-.6-.4-.4-.6-1-.6-1.8s.2-1.4.8-1.8a5 5 0 012.6-.6h1.3v-.4c0-.8-.4-1.2-1.2-1.2-.6 0-1.3.2-2.1.6l-.7-1.4c.9-.5 1.8-.7 2.9-.7 1 0 1.8.2 2.4.7.5.4.8 1.1.8 2v5.1h-1.5zm-.6-3.5h-.8c-.6 0-1 .1-1.3.3-.3.2-.5.5-.5 1s.3.8 1 .8c.5 0 .9-.1 1.2-.4.3-.3.4-.7.4-1.1v-.6zm9.6 1.2c0 .8-.3 1.4-.9 1.8-.5.4-1.3.6-2.4.6h-1.4l-1.1-.4V358a7.3 7.3 0 002.6.6c.7 0 1.1-.2 1.1-.6l-.1-.4a12.1 12.1 0 00-1.5-.8l-1.3-.7a2 2 0 01-.6-.7c-.2-.3-.2-.7-.2-1 0-.7.2-1.3.8-1.6.5-.4 1.2-.6 2.2-.6 1 0 1.8.2 2.7.6l-.6 1.5-1.1-.4-1-.1c-.7 0-1 .1-1 .5l.3.4 1.3.7 1.4.6.6.8.2 1zm7 2.3l-.3-1c-.3.4-.6.7-1 .9l-1.4.2c-1 0-1.6-.2-2-.7-.5-.5-.7-1.2-.7-2v-5h2v4.4c0 .6.1 1 .3 1.3.2.2.5.4 1 .4.6 0 1-.2 1.2-.6.3-.4.4-1 .4-2v-3.5h2.1v7.6h-1.6zm8-7.8h.8l-.2 2h-.6c-.7 0-1.2.1-1.6.5-.3.3-.5.8-.5 1.4v3.9h-2.1v-7.6h1.6l.3 1.2 1-1c.4-.3.9-.4 1.4-.4zm5.3 1.5c-.4 0-.8.1-1 .4a2 2 0 00-.5 1.2h3c0-.5-.2-.9-.4-1.2-.3-.3-.6-.4-1-.4zm.3 6.4a4 4 0 01-2.9-1c-.7-.7-1-1.6-1-2.9 0-1.2.3-2.2 1-3 .6-.6 1.5-1 2.6-1 1 0 2 .3 2.5 1 .6.6 1 1.4 1 2.5v1h-5c0 .6.2 1 .5 1.4.4.3.8.5 1.4.5a5.7 5.7 0 002.6-.6v1.6l-1.2.4-1.5.1zm6.9-1.6l-1.2 3.3h-1.5l.7-3.4h1.9v.1zm-58 20.5l-.4-1-1.1.9c-.4.2-.8.2-1.4.2-.8 0-1.4-.2-1.8-.6-.4-.4-.6-1-.6-1.8s.3-1.4.8-1.8a5 5 0 012.6-.6h1.3v-.4c0-.8-.4-1.2-1.2-1.2-.6 0-1.3.2-2.1.6l-.7-1.4c.9-.5 1.9-.7 3-.7 1 0 1.7.2 2.3.7.5.4.8 1.1.8 2v5.1h-1.5zm-.6-3.5h-.8c-.6 0-1 .1-1.3.3-.3.2-.5.5-.5 1s.4.8 1 .8c.5 0 1-.1 1.2-.4.3-.3.4-.7.4-1.1v-.6zm6.7 3.6c-1 0-1.6-.3-2.1-1-.6-.7-.8-1.7-.8-3 0-1.2.3-2.1.8-2.8.5-.7 1.2-1 2.1-1 1 0 1.7.3 2.2 1h.1l-.2-1.5v-2.4h2.1V379h-1.6l-.4-1c-.5.8-1.3 1.1-2.2 1.1zm.7-1.6c.5 0 1-.2 1.2-.5.2-.3.4-.8.4-1.6v-.2c0-.8-.1-1.4-.4-1.8-.2-.3-.7-.5-1.2-.5s-.9.2-1.1.6c-.3.4-.4 1-.4 1.7 0 .8.1 1.3.4 1.7.3.4.6.6 1.1.6zm10.6 1.5l-.4-1-1.2.9c-.3.2-.8.2-1.4.2-.8 0-1.3-.2-1.8-.6-.4-.4-.6-1-.6-1.8s.3-1.4.9-1.8a5 5 0 012.5-.6h1.4v-.4c0-.8-.4-1.2-1.2-1.2-.6 0-1.4.2-2.2.6l-.7-1.4c.9-.5 1.9-.7 3-.7 1 0 1.8.2 2.3.7.6.4.8 1.1.8 2v5.1h-1.4zm-.6-3.5h-.9c-.6 0-1 .1-1.3.3-.3.2-.5.5-.5 1s.4.8 1 .8c.5 0 1-.1 1.2-.4.3-.3.5-.7.5-1.1v-.6zm8.4 3.6c-1 0-1.6-.3-2.1-1h-.1v4.2h-2v-11h1.7l.3 1c.6-.7 1.3-1 2.2-1 1 0 1.6.3 2.2 1 .5.7.7 1.6.7 2.9 0 .8-.1 1.5-.3 2a3 3 0 01-1 1.5c-.5.3-1 .4-1.6.4zm-.6-6.2c-.6 0-1 .1-1.2.5-.2.3-.3.8-.3 1.5v.3c0 .8 0 1.4.3 1.7.3.4.7.5 1.2.5 1 0 1.4-.7 1.4-2.3 0-.7-.1-1.3-.4-1.7-.2-.3-.5-.5-1-.5zm8.5 4.6l1.3-.3v1.6c-.5.2-1.2.3-2 .3s-1.4-.2-1.8-.6c-.3-.4-.5-1-.5-1.9V373h-1v-.9l1.1-.7.6-1.6h1.3v1.7h2.2v1.5H130v3.7c0 .3.1.5.3.7l.7.2zm15.9 1.5h-2.6l-.8-.8a5 5 0 01-3 1c-1 0-2-.3-2.6-.8-.6-.5-1-1.2-1-2.1 0-.6.2-1.2.4-1.6a4 4 0 011.5-1.2c-.4-.4-.6-.8-.8-1.2a3 3 0 01-.2-1.1c0-.7.2-1.3.8-1.7.5-.4 1.2-.6 2.1-.6.9 0 1.5.2 2 .6.5.3.8.9.8 1.5s-.2 1-.5 1.5-.8.9-1.5 1.3l2 1.9c.3-.5.6-1.2.8-2h2.2a10 10 0 01-1.7 3.3l2 2zm-7.8-2.9c0 .4.2.7.5 1 .3.2.6.3 1 .3.7 0 1.2-.2 1.6-.4l-2.2-2.3-.7.6-.2.8zm2.5-4.8c0-.3-.1-.5-.3-.6a1 1 0 00-.6-.2c-.3 0-.6 0-.7.2-.2.1-.3.3-.3.6 0 .4.2.9.7 1.3l.9-.6c.2-.2.3-.5.3-.7zm-48.6 17c0-.6.4-1 1.1-1 .8 0 1.2.4 1.2 1 0 .4-.1.7-.3.8-.2.2-.5.3-.9.3-.7 0-1.1-.3-1.1-1zm2.2 9.7H93v-7.6h2v7.6zm9.2 0h-2v-4.5c0-.5-.2-1-.4-1.2-.1-.3-.5-.4-.9-.4-.6 0-1 .2-1.3.6-.2.4-.3 1-.3 1.9v3.6h-2.1v-7.6H99l.2 1h.2c.2-.4.5-.7 1-.9.3-.2.8-.3 1.3-.3.9 0 1.6.3 2 .7.5.5.7 1.2.7 2.1v5zm7.5-2.3c0 .8-.3 1.4-.8 1.8-.6.4-1.4.6-2.5.6h-1.4l-1-.4V396a7.3 7.3 0 002.5.6c.8 0 1.1-.2 1.1-.6l-.1-.4a12.1 12.1 0 00-1.5-.8l-1.3-.7a2 2 0 01-.6-.7l-.2-1c0-.7.3-1.3.8-1.6.5-.4 1.3-.6 2.2-.6 1 0 1.9.2 2.7.6l-.6 1.5-1-.4-1.1-.1c-.6 0-1 .1-1 .5l.4.4 1.3.7 1.3.6c.3.2.5.5.6.8l.2 1zm4.9.8l1.3-.3v1.6c-.6.2-1.2.3-2 .3s-1.4-.2-1.8-.6c-.4-.4-.5-1-.5-1.9V392h-1v-.9l1.1-.7.6-1.6h1.3v1.7h2.2v1.5h-2.2v3.7c0 .3.1.5.3.7l.7.2zm2.7-8.1c0-.7.4-1 1.2-1 .7 0 1.1.3 1.1 1 0 .3-.1.6-.3.7-.2.2-.5.3-.8.3-.8 0-1.2-.3-1.2-1zm2.2 9.6h-2v-7.6h2v7.6zm5.4-1.5l1.3-.3v1.6c-.5.2-1.1.3-1.9.3-.8 0-1.4-.2-1.8-.6-.4-.4-.6-1-.6-1.9V392h-1v-.9l1.2-.7.6-1.6h1.3v1.7h2.1v1.5h-2v3.7c0 .3 0 .5.2.7l.6.2zm8.3 1.5l-.3-1c-.3.4-.6.7-1 .9l-1.4.2c-1 0-1.6-.2-2-.7-.5-.5-.8-1.2-.8-2v-5h2.1v4.4c0 .6.1 1 .3 1.3.2.2.5.4 1 .4s1-.2 1.2-.6c.3-.4.4-1 .4-2v-3.5h2v7.6h-1.5zm7-1.5l1.3-.3v1.6c-.5.2-1.1.3-1.9.3-.8 0-1.4-.2-1.8-.6-.4-.4-.6-1-.6-1.9V392h-1v-.9l1.2-.7.6-1.6h1.3v1.7h2.1v1.5h-2.1v3.7c0 .3 0 .5.2.7l.7.2zm2.8-8.1c0-.7.4-1 1.1-1 .8 0 1.1.3 1.1 1 0 .3 0 .6-.2.7-.2.2-.5.3-.9.3-.7 0-1.1-.3-1.1-1zm2.2 9.6h-2.1v-7.6h2v7.6zm3.8-3.8c0 .7.1 1.3.4 1.7.2.4.6.6 1.2.6.5 0 1-.2 1.2-.6.2-.4.4-1 .4-1.7 0-.8-.2-1.4-.4-1.7-.3-.4-.7-.6-1.2-.6-.6 0-1 .2-1.2.6-.3.3-.4.9-.4 1.7zm5.3 0c0 1.2-.3 2.2-1 2.9-.7.7-1.6 1-2.7 1-.8 0-1.4-.1-2-.4-.5-.4-1-.8-1.3-1.4-.3-.6-.4-1.3-.4-2.1a4 4 0 011-3c.6-.6 1.5-1 2.7-1 .7 0 1.4.2 2 .5.5.3 1 .8 1.2 1.4.3.6.5 1.3.5 2zm8.8 3.8h-2.1v-4.5c0-.5-.1-1-.3-1.2-.2-.3-.5-.4-1-.4s-1 .2-1.2.6c-.3.4-.4 1-.4 1.9v3.6h-2v-7.6h1.5l.3 1h.1c.2-.4.6-.7 1-.9.4-.2.8-.3 1.4-.3.8 0 1.5.3 2 .7.4.5.7 1.2.7 2.1v5zm7 0l-.4-1-1.2.9c-.3.2-.8.2-1.4.2-.8 0-1.3-.2-1.8-.6-.4-.4-.6-1-.6-1.8s.3-1.4.9-1.8a5 5 0 012.5-.6h1.4v-.4c0-.8-.4-1.2-1.2-1.2-.6 0-1.4.2-2.2.6l-.7-1.4c.9-.5 1.9-.7 3-.7 1 0 1.8.2 2.3.7.5.4.8 1.1.8 2v5.1h-1.4zm-.6-3.5h-.9c-.6 0-1 .1-1.3.3-.3.2-.5.5-.5 1s.4.8 1 .8c.5 0 1-.1 1.2-.4.3-.3.5-.7.5-1.1v-.6zm6.3 3.5h-2.1v-10.6h2V398zm2-9.6c0-.7.4-1 1.2-1 .8 0 1.1.3 1.1 1 0 .3 0 .6-.3.7-.1.2-.4.3-.8.3-.8 0-1.1-.3-1.1-1zm2.2 9.6h-2v-7.6h2v7.6zm7.6 0h-6v-1.2l3.5-4.9h-3.4v-1.5h5.7v1.3l-3.4 4.7h3.6v1.6zm4.6-6.3c-.4 0-.8.1-1 .4a2 2 0 00-.4 1.2h2.9c0-.5-.2-.9-.4-1.2-.3-.3-.6-.4-1-.4zm.3 6.4a4 4 0 01-2.9-1c-.6-.7-1-1.6-1-2.9 0-1.2.3-2.2 1-3 .6-.6 1.5-1 2.6-1s2 .3 2.5 1c.6.6 1 1.4 1 2.5v1h-5c0 .6.2 1 .5 1.4.4.3.8.5 1.4.5a5.7 5.7 0 002.6-.6v1.6l-1.2.4-1.5.1zm-97.3 11.1h.7l-.2 2h-.6c-.7 0-1.2.1-1.6.5-.3.3-.5.8-.5 1.4v3.9H93v-7.6h1.6l.3 1.2 1-1c.4-.3.9-.4 1.4-.4zm5.2 1.5c-.4 0-.8.1-1 .4a2 2 0 00-.5 1.2h3c0-.5-.2-.9-.4-1.2-.3-.3-.6-.4-1-.4zm.3 6.4a4 4 0 01-2.9-1c-.7-.7-1-1.6-1-2.9 0-1.2.3-2.2 1-3 .6-.6 1.5-1 2.6-1 1 0 2 .3 2.5 1 .6.6 1 1.4 1 2.5v1h-5c0 .6.2 1 .5 1.4.4.3.8.5 1.4.5a5.7 5.7 0 002.6-.6v1.6l-1.2.4-1.5.1zm9-6.2h-1.8v6.1h-2v-6h-1.2v-1l1.2-.6v-.6c0-.9.2-1.5.6-2 .4-.3 1.1-.5 2-.5.8 0 1.4 0 2 .3l-.6 1.5-1.1-.2c-.3 0-.5.1-.7.3a1 1 0 00-.2.7v.5h1.8v1.5zm3 2.3c0 .7 0 1.3.3 1.7.2.4.6.6 1.2.6s1-.2 1.2-.6c.2-.4.4-1 .4-1.7 0-.8-.2-1.4-.4-1.7-.3-.4-.7-.6-1.2-.6-.6 0-1 .2-1.2.6-.3.3-.4.9-.4 1.7zm5.2 0c0 1.2-.3 2.2-1 2.9-.6.7-1.6 1-2.7 1-.8 0-1.4-.1-2-.4-.5-.4-1-.8-1.3-1.4-.3-.6-.4-1.3-.4-2.1a4 4 0 011-3c.6-.6 1.5-1 2.7-1 .7 0 1.4.2 2 .5.5.3 1 .8 1.2 1.4.3.6.5 1.3.5 2zm6-4h.7l-.2 2h-.6c-.7 0-1.2.1-1.5.5-.4.3-.6.8-.6 1.4v3.9h-2v-7.6h1.5l.3 1.2h.1c.2-.4.6-.7 1-1 .4-.3.8-.4 1.3-.4zm9 7.8h-2.2v-4.5c0-.5 0-1-.2-1.2-.2-.3-.5-.4-1-.4-.4 0-.8.2-1 .6-.3.4-.4 1-.4 1.9v3.6h-2.1v-7.6h1.6l.2 1h.2c.2-.4.5-.7.9-.9.3-.2.8-.3 1.3-.3 1.1 0 2 .4 2.3 1.1h.2c.2-.3.5-.6.9-.8a3 3 0 011.4-.3c.8 0 1.5.2 2 .7.4.4.6 1.1.6 2.1v5h-2.1v-4.5c0-.5-.1-1-.3-1.2-.2-.3-.5-.4-.9-.4-.5 0-.8.2-1.1.5-.3.4-.4 1-.4 1.8v3.8zm12.2-2.3c0 .8-.3 1.4-.9 1.8-.5.4-1.3.6-2.4.6h-1.4l-1.1-.4V415a7.3 7.3 0 002.6.6c.7 0 1.1-.2 1.1-.6l-.1-.4a12.1 12.1 0 00-1.5-.8l-1.3-.7a2 2 0 01-.7-.7l-.1-1c0-.7.2-1.3.8-1.6.5-.4 1.2-.6 2.2-.6 1 0 1.8.2 2.7.6l-.6 1.5-1.1-.4-1-.1c-.7 0-1 .1-1 .5l.3.4 1.3.7 1.3.6.7.8.2 1z" fill="#000" />
	</g>
	<g data-section="publish">
		<path class="arrow" d="M159.5 82.2L128 58.4l8.7-3.7 31.6 23.9-4.3 41-8.6 3.6 4.2-41z" fill="#fff" />
		<path d="M263.4 58.7h.7c.6 0 1.1-.1 1.4-.4.4-.2.5-.6.5-1.1 0-.5-.1-.9-.4-1.1-.3-.2-.7-.4-1.3-.4h-1v3zm4.8-1.6c0 1.1-.4 2-1 2.5-.7.6-1.7.8-3 .8h-.8V64h-2.1V54h3.1c1.3 0 2.2.3 2.8.8.6.5 1 1.3 1 2.3zm7.1 6.9l-.3-1c-.3.4-.6.7-1 .8l-1.4.3c-1 0-1.6-.2-2-.7-.5-.5-.8-1.2-.8-2v-5h2.1v4.4c0 .6.1 1 .3 1.3.2.2.5.4 1 .4s1-.2 1.2-.6c.3-.4.4-1 .4-2v-3.5h2.1V64h-1.6zm8-7.8c1 0 1.6.4 2.2 1 .5.8.7 1.7.7 3 0 1.2-.2 2.2-.8 2.9-.5.7-1.2 1-2.1 1-1 0-1.6-.3-2.1-1h-.2l-.3.9H279V53.4h2v3.9c.6-.7 1.3-1 2.2-1zm-.6 1.7c-.5 0-1 .1-1.2.5-.2.3-.3.8-.3 1.5v.3c0 .8 0 1.4.3 1.7.3.4.7.5 1.2.5.4 0 .8-.1 1-.5.3-.4.4-1 .4-1.8a3 3 0 00-.4-1.7c-.2-.3-.6-.5-1-.5zM290 64h-2V53.4h2V64zm2.1-9.6c0-.7.4-1 1.2-1 .7 0 1.1.3 1.1 1 0 .3 0 .6-.3.7-.2.2-.5.3-.8.3-.8 0-1.2-.3-1.2-1zm2.2 9.6h-2v-7.6h2V64zm7.5-2.3c0 .8-.2 1.4-.8 1.8-.5.4-1.3.6-2.4.6h-1.4l-1.1-.4V62a7.3 7.3 0 002.5.6c.8 0 1.2-.2 1.2-.6 0-.2 0-.3-.2-.4a12.1 12.1 0 00-1.5-.8l-1.3-.7a2 2 0 01-.6-.7l-.2-1c0-.7.3-1.3.8-1.6.6-.4 1.3-.6 2.3-.6.9 0 1.8.2 2.7.6l-.7 1.5-1-.4-1-.1c-.7 0-1 .1-1 .5l.3.4 1.3.7 1.3.6c.3.2.5.5.6.8.2.2.2.6.2 1zm8.7 2.3h-2v-4.5c0-1-.5-1.6-1.3-1.6-.6 0-1 .2-1.3.6-.2.4-.4 1-.4 1.9V64h-2V53.4h2v3.9c.5-.7 1.3-1 2.3-1 .9 0 1.6.2 2 .6.5.5.7 1.2.7 2.1v5zm4.2-1.5c-.2 1-.6 2-1.2 3.3H312l.7-3.4h2v.1zM266.5 83l-.3-1c-.3.4-.6.7-1 .8-.4.2-1 .3-1.4.3-1 0-1.6-.2-2-.7-.5-.5-.7-1.2-.7-2v-5h2v4.4c0 .6.1 1 .3 1.3.2.2.5.4 1 .4.6 0 1-.2 1.2-.6.3-.4.4-1 .4-2v-3.5h2.1V83h-1.6zm9.1-2.3c0 .8-.2 1.4-.8 1.8-.5.4-1.3.6-2.4.6h-1.5l-1-.4V81a7.3 7.3 0 002.5.6c.8 0 1.2-.2 1.2-.6 0-.2 0-.3-.2-.4a12.1 12.1 0 00-1.5-.8l-1.3-.7a2 2 0 01-.6-.7l-.2-1c0-.7.3-1.3.8-1.6.5-.4 1.3-.6 2.3-.6.9 0 1.8.2 2.6.6l-.6 1.5-1-.4-1-.1c-.7 0-1 .1-1 .5l.3.4 1.3.7 1.3.6c.3.2.5.5.6.8.2.2.2.6.2 1zm4.8-4c-.4 0-.8.1-1 .4a2 2 0 00-.5 1.2h3c0-.5-.2-.9-.4-1.2-.3-.3-.6-.4-1-.4zm.3 6.4a4 4 0 01-2.9-1c-.7-.7-1-1.6-1-2.9 0-1.2.3-2.2 1-3 .6-.6 1.5-1 2.6-1 1 0 2 .3 2.5 1 .6.6 1 1.4 1 2.5v1h-5c0 .6.2 1 .5 1.4.4.3.8.5 1.4.5a5.7 5.7 0 002.6-.6v1.6l-1.2.4-1.5.1zm17.9-.1H296l-.8-.8a5 5 0 01-3 1c-1 0-2-.3-2.6-.8-.6-.5-1-1.2-1-2.1 0-.6.2-1.2.4-1.6a4 4 0 011.5-1.2c-.4-.4-.6-.8-.8-1.2a3 3 0 01-.2-1.1c0-.7.2-1.3.8-1.7.5-.4 1.2-.6 2.1-.6.9 0 1.5.2 2 .6.6.3.8.9.8 1.5s-.2 1-.5 1.5-.8.9-1.5 1.3l2 1.9c.3-.5.6-1.2.8-2h2.2a10 10 0 01-1.7 3.3l2 2zm-7.8-2.9c0 .4.2.7.5 1 .3.2.6.3 1.1.3.6 0 1-.2 1.5-.4l-2.2-2.3a3 3 0 00-.7.6l-.2.8zm2.5-4.8c0-.3-.1-.5-.3-.6a1 1 0 00-.6-.2c-.3 0-.6 0-.7.2-.2.1-.3.3-.3.6 0 .4.2.9.7 1.3l.9-.6c.2-.2.3-.5.3-.7zm10-2c0-.6.3-1 1-1 .8 0 1.2.4 1.2 1 0 .4-.1.7-.3.8-.2.2-.5.3-.9.3-.7 0-1-.3-1-1zm2 9.7h-2v-7.6h2V83zm9.1 0h-2v-4.5c0-.5-.2-1-.3-1.2-.2-.3-.5-.4-1-.4-.4 0-.8.2-1 .6-.3.4-.4 1-.4 1.9V83h-2.1v-7.6h1.6l.3 1c.3-.4.6-.7 1-.9.3-.2.8-.3 1.3-.3 1.1 0 2 .4 2.3 1.1h.2c.2-.3.5-.6.9-.8a3 3 0 011.4-.3c.8 0 1.5.2 2 .7.4.4.6 1.1.6 2.1v5H317v-4.5c0-.5-.1-1-.3-1.2-.2-.3-.5-.4-.9-.4-.5 0-.8.2-1.1.5-.3.4-.4 1-.4 1.8V83zm11.1.1c-.9 0-1.6-.3-2-1h-.2l.1 1.2v3h-2v-11h1.6l.3 1h.1c.5-.7 1.2-1 2.2-1 .9 0 1.6.3 2.1 1s.8 1.6.8 2.9c0 .8-.2 1.5-.4 2a3 3 0 01-1 1.5c-.5.3-1 .4-1.6.4zM325 77c-.5 0-.9.1-1.1.5-.3.3-.4.8-.4 1.5v.3c0 .8.1 1.4.4 1.7.2.4.6.5 1.1.5 1 0 1.4-.7 1.4-2.3 0-.7 0-1.3-.3-1.7-.2-.3-.6-.5-1-.5zm9.6-1.7h.7l-.2 2h-.6c-.7 0-1.2.1-1.6.5-.3.3-.5.8-.5 1.4V83h-2.1v-7.6h1.6l.3 1.2 1-1c.4-.3.9-.4 1.4-.4zm3.7 4c0 .7.1 1.3.4 1.7.2.4.6.6 1.2.6s1-.2 1.2-.6c.2-.4.4-1 .4-1.7 0-.8-.2-1.4-.4-1.7-.3-.4-.7-.6-1.2-.6-.6 0-1 .2-1.2.6-.3.3-.4.9-.4 1.7zm5.3 0c0 1.2-.3 2.2-1 2.9-.6.7-1.6 1-2.7 1-.8 0-1.4-.1-2-.4-.5-.4-1-.8-1.3-1.4-.3-.6-.4-1.3-.4-2.1a4 4 0 011-3c.6-.6 1.5-1 2.7-1 .7 0 1.4.2 2 .5.5.3 1 .8 1.2 1.4.3.6.5 1.3.5 2zM347 83l-2.9-7.6h2.2l1.5 4.3.3 1.6.3-1.6 1.5-4.3h2.2l-3 7.6h-2zm9.4-6.3c-.5 0-.8.1-1 .4a2 2 0 00-.5 1.2h3c-.1-.5-.2-.9-.5-1.2-.3-.3-.6-.4-1-.4zm.2 6.4a4 4 0 01-2.8-1c-.7-.7-1-1.6-1-2.9 0-1.2.2-2.2.9-3 .6-.6 1.5-1 2.6-1s2 .3 2.6 1c.6.6.9 1.4.9 2.5v1h-5c0 .6.2 1 .6 1.4.3.3.8.5 1.3.5a5.7 5.7 0 002.6-.6v1.6l-1.1.4-1.6.1zm10.2-4c0 .8 0 1.4.3 1.8.3.4.7.6 1.2.6.6 0 1-.2 1.2-.6.3-.4.4-1 .4-1.7 0-.8-.1-1.4-.4-1.7-.2-.4-.6-.6-1.2-.6-.5 0-1 .2-1.2.6-.2.3-.3.9-.3 1.7zm5.2 0c0 1.3-.3 2.3-1 3-.6.7-1.5 1-2.7 1-.7 0-1.4-.1-2-.4-.5-.4-1-.8-1.2-1.4-.3-.6-.5-1.3-.5-2.1a4 4 0 011-3c.7-.6 1.6-1 2.8-1 .7 0 1.3.2 1.9.5.6.3 1 .8 1.3 1.4.3.6.4 1.3.4 2zm6 4c-1 0-1.6-.3-2.2-1v4.2h-2v-11h1.7l.3 1c.5-.7 1.3-1 2.2-1 1 0 1.6.3 2.1 1s.8 1.6.8 2.9c0 .8-.1 1.5-.4 2a3 3 0 01-1 1.5c-.4.3-1 .4-1.5.4zm-.7-6.2c-.5 0-.8.1-1 .5-.3.3-.4.8-.5 1.5v.3c0 .8.2 1.4.4 1.7.3.4.6.5 1.2.5 1 0 1.4-.7 1.4-2.3 0-.7-.1-1.3-.4-1.7-.2-.3-.6-.5-1-.5zm8.5-.2c-.5 0-.8.1-1 .4a2 2 0 00-.5 1.2h3c0-.5-.2-.9-.5-1.2-.2-.3-.6-.4-1-.4zm.3 6.4a4 4 0 01-2.9-1c-.7-.7-1-1.6-1-2.9 0-1.2.3-2.2 1-3 .6-.6 1.4-1 2.6-1 1 0 1.9.3 2.5 1 .6.6.9 1.4.9 2.5v1h-5c0 .6.3 1 .6 1.4.3.3.8.5 1.4.5a5.7 5.7 0 002.6-.6v1.6l-1.2.4-1.5.1zm11.8-.1h-2v-4.5c0-.5-.1-1-.3-1.2-.2-.3-.5-.4-1-.4-.6 0-1 .2-1.2.6-.3.4-.4 1-.4 1.9V83h-2.1v-7.6h1.6l.3 1c.3-.4.6-.7 1-.9l1.4-.3c1 0 1.6.3 2 .7.5.5.7 1.2.7 2.1v5zm-133.7 19.1c-2.4 0-3.6-1.3-3.6-3.9 0-1.3.4-2.3 1-3 .6-.6 1.6-1 2.8-1 .9 0 1.7.2 2.4.5l-.7 1.6-.9-.3-.8-.1c-1.1 0-1.6.8-1.6 2.3 0 1.5.5 2.2 1.6 2.2l1.1-.1a4 4 0 001-.5v1.8l-1 .4-1.3.1zm5.8-4c0 .8 0 1.4.3 1.8.3.4.7.6 1.2.6.6 0 1-.2 1.2-.6.3-.4.4-1 .4-1.7 0-.8-.1-1.4-.4-1.7-.2-.4-.6-.6-1.2-.6-.5 0-1 .2-1.2.6-.2.3-.3.9-.3 1.7zm5.2 0c0 1.3-.3 2.3-1 3-.6.7-1.5 1-2.7 1-.7 0-1.4-.1-2-.4-.5-.4-1-.8-1.2-1.4-.3-.6-.5-1.3-.5-2.1a4 4 0 011-3c.7-.6 1.6-1 2.8-1 .7 0 1.3.2 1.9.5.6.3 1 .8 1.3 1.4.3.6.4 1.3.4 2zm8.8 3.9h-2v-4.5c0-.5-.2-1-.4-1.2-.2-.3-.5-.4-.9-.4-.6 0-1 .2-1.3.6-.2.4-.3 1-.3 1.9v3.6H277v-7.6h1.6l.2 1h.2c.2-.4.5-.7 1-.9.3-.2.8-.3 1.3-.3.9 0 1.6.3 2 .7.5.5.7 1.2.7 2.1v5zm5.4-1.5l1.3-.3v1.6c-.5.2-1.2.3-2 .3-.7 0-1.4-.2-1.7-.6-.4-.4-.6-1-.6-1.9V96h-1V95l1.1-.7.6-1.6h1.4v1.7h2.1v1.5h-2.1v3.7c0 .3 0 .5.2.7l.7.2zm7.1-6.3h.7l-.1 2h-.7c-.6 0-1.1.1-1.5.5-.4.3-.6.8-.6 1.4v3.9h-2v-7.6h1.5l.3 1.2h.1l1-1c.4-.3.8-.4 1.3-.4zm7 7.8l-.4-1h-.1l-1 .9c-.5.2-1 .2-1.5.2-.8 0-1.3-.2-1.8-.6-.4-.4-.6-1-.6-1.8s.3-1.4.9-1.8a5 5 0 012.5-.6h1.3v-.4c0-.8-.3-1.2-1.1-1.2-.7 0-1.4.2-2.2.6l-.7-1.4c.9-.5 1.9-.7 3-.7 1 0 1.8.2 2.3.7.5.4.8 1.1.8 2v5.1h-1.4zm-.7-3.5h-.8c-.6 0-1 .1-1.3.3-.3.2-.5.5-.5 1s.4.8 1 .8c.5 0 1-.1 1.2-.4.3-.3.4-.7.4-1.1v-.6zm7.4 3.6c-2.4 0-3.6-1.3-3.6-3.9 0-1.3.3-2.3 1-3 .6-.6 1.6-1 2.8-1 .8 0 1.6.2 2.3.5l-.6 1.6-.9-.3-.8-.1c-1.1 0-1.7.8-1.7 2.3 0 1.5.6 2.2 1.7 2.2l1-.1 1.1-.5v1.8l-1 .4-1.3.1zm7.3-1.6l1.3-.3v1.6c-.5.2-1.1.3-1.9.3-.8 0-1.4-.2-1.8-.6-.4-.4-.6-1-.6-1.9V96h-1V95l1.2-.7.6-1.6h1.3v1.7h2.1v1.5h-2.1v3.7c0 .3 0 .5.2.7l.7.2zm2.8-8.1c0-.7.4-1 1.1-1 .8 0 1.1.3 1.1 1 0 .3 0 .6-.2.7-.2.2-.5.3-.9.3-.7 0-1.1-.3-1.1-1zm2.1 9.6h-2v-7.6h2v7.6zm9.3 0h-2v-4.5c0-.5-.2-1-.4-1.2-.2-.3-.5-.4-1-.4s-1 .2-1.2.6c-.2.4-.4 1-.4 1.9v3.6h-2v-7.6h1.5l.3 1h.1c.3-.4.6-.7 1-.9.4-.2.9-.3 1.4-.3.9 0 1.5.3 2 .7.5.5.7 1.2.7 2.1v5zm8.8-7.6v1l-1.2.3c.2.4.3.7.3 1.2 0 .8-.3 1.4-.8 1.9-.6.4-1.4.7-2.4.7h-.7c-.2 0-.3.3-.3.5 0 .3.4.4 1.1.4h1.3c.9 0 1.5.2 2 .6.4.3.6.8.6 1.5 0 1-.4 1.6-1.1 2.1-.8.5-1.8.8-3.2.8-1 0-2-.2-2.5-.6-.5-.4-.8-.9-.8-1.6 0-.4.1-.8.4-1.1.3-.3.7-.5 1.3-.7-.2 0-.4-.2-.6-.4a1 1 0 01-.2-.7c0-.3 0-.5.2-.7l.8-.6a2 2 0 01-1-.8c-.2-.4-.3-.8-.3-1.4 0-.8.2-1.4.8-1.9.5-.5 1.3-.7 2.3-.7h.8l.5.2h2.7zm-6 8.7c0 .3.2.5.5.7l1.2.2c.7 0 1.3-.1 1.7-.3.4-.2.7-.5.7-.8 0-.3-.2-.5-.4-.6a3 3 0 00-1.2-.2h-1c-.4 0-.8 0-1 .3-.3.1-.4.4-.4.7zm.9-6.2c0 .4 0 .7.2 1 .2.2.5.3.9.3s.7-.1.9-.4l.2-1c0-.9-.3-1.3-1.1-1.3s-1.1.4-1.1 1.4zm12.4 5.2c-.9 0-1.6-.3-2.1-1s-.8-1.7-.8-3c0-1.2.3-2.1.8-2.8.5-.7 1.3-1 2.2-1 1 0 1.7.3 2.2 1l-.1-1.5v-2.4h2V102h-1.5l-.4-1h-.1c-.5.8-1.2 1.1-2.2 1.1zm.7-1.6c.6 0 1-.2 1.2-.5.3-.3.4-.8.4-1.6v-.2c0-.8-.1-1.4-.4-1.8-.2-.3-.6-.5-1.2-.5-.5 0-.8.2-1 .6-.3.4-.5 1-.5 1.7 0 .8.2 1.3.4 1.7.3.4.7.6 1.1.6zm10.6 1.5l-.4-1a3 3 0 01-1.1.9c-.4.2-.9.2-1.5.2-.7 0-1.3-.2-1.7-.6-.4-.4-.7-1-.7-1.8s.3-1.4.9-1.8a5 5 0 012.6-.6h1.3v-.4c0-.8-.4-1.2-1.2-1.2-.6 0-1.3.2-2.2.6l-.6-1.4c.8-.5 1.8-.7 2.9-.7 1 0 1.8.2 2.3.7.6.4.9 1.1.9 2v5.1H359zm-.6-3.5h-.8c-.6 0-1 .1-1.4.3-.3.2-.4.5-.4 1s.3.8 1 .8c.5 0 .9-.1 1.2-.4.2-.3.4-.7.4-1.1v-.6zm7.4 2l1.3-.3v1.6c-.5.2-1.1.3-1.9.3-.8 0-1.4-.2-1.8-.6-.4-.4-.6-1-.6-1.9V96h-1V95l1.2-.7.6-1.6h1.3v1.7h2.2v1.5H365v3.7c0 .3.1.5.3.7l.6.2zm7.8 1.5l-.4-1h-.1l-1 .9c-.5.2-1 .2-1.5.2-.8 0-1.4-.2-1.8-.6-.4-.4-.6-1-.6-1.8s.3-1.4.8-1.8a5 5 0 012.6-.6h1.3v-.4c0-.8-.4-1.2-1.1-1.2-.7 0-1.4.2-2.2.6l-.7-1.4c.9-.5 1.9-.7 3-.7 1 0 1.7.2 2.3.7.5.4.8 1.1.8 2v5.1h-1.4zm-.7-3.5h-.8c-.6 0-1 .1-1.3.3-.3.2-.5.5-.5 1s.4.8 1 .8c.5 0 1-.1 1.2-.4.3-.3.4-.7.4-1.1v-.6z" fill="#000" />
		<path fill-rule="evenodd" clip-rule="evenodd" d="M219.2 76.2c3 1.6 3 4.3 0 6-3 1.7-7.8 1.7-10.8 0-3-1.7-3-4.4 0-6 3-1.7 7.8-1.7 10.8 0" fill="#A2A2A2" />
		<path clip-rule="evenodd" d="M219.2 76.2c3 1.6 3 4.3 0 6-3 1.7-7.8 1.7-10.8 0-3-1.7-3-4.4 0-6 3-1.7 7.8-1.7 10.8 0z" stroke="#262626" stroke-width="1.1" stroke-linecap="round" stroke-linejoin="round" />
		<path fill-rule="evenodd" clip-rule="evenodd" d="M215.1 77c0 .9-.9 1.6-2 1.6-1 0-1.8-.8-1.8-1.7v-6.4c0-1 .9-1.6 1.9-1.6 1 0 1.9.7 1.9 1.6V77z" fill="#A2A2A2" />
		<path clip-rule="evenodd" d="M215.1 77c0 .9-.9 1.6-2 1.6-1 0-1.8-.8-1.8-1.7v-6.4c0-1 .9-1.6 1.9-1.6 1 0 1.9.7 1.9 1.6V77z" stroke="#262626" stroke-width="1.7" stroke-linecap="round" stroke-linejoin="round" />
		<path fill-rule="evenodd" clip-rule="evenodd" d="M213.2 77.4l-10.8-6v-4l10.8-5.8 10.8 5.9v4l-10.8 5.9z" fill="#515151" />
		<path clip-rule="evenodd" d="M213.2 77.4l-10.8-6v-4l10.8-5.8 10.8 5.9v4l-10.8 5.9z" stroke="#262626" stroke-width="1.1" stroke-linecap="round" stroke-linejoin="round" />
		<path fill-rule="evenodd" clip-rule="evenodd" d="M216.4 63L205.9 69l-3.5-2V51.6l10.5-5.7 3.4 1.8v15.5z" fill="#515151" />
		<path clip-rule="evenodd" d="M216.4 63L205.9 69l-3.5-2V51.6l10.5-5.7 3.4 1.8v15.5z" stroke="#262626" stroke-width="1.1" stroke-linecap="round" stroke-linejoin="round" />
		<path fill-rule="evenodd" clip-rule="evenodd" d="M218.9 85a2 2 0 01-2 2 2 2 0 01-2-2V74.5l-5.1-3a2 2 0 01-.8-2.7 2 2 0 012.8-.8l6 3.6c.7.3 1.1 1 1.1 1.7v11.9z" fill="#FFCBA6" />
		<path clip-rule="evenodd" d="M218.9 85a2 2 0 01-2 2 2 2 0 01-2-2V74.5l-5.1-3a2 2 0 01-.8-2.7 2 2 0 012.8-.8l6 3.6c.7.3 1.1 1 1.1 1.7v11.9z" stroke="#262626" stroke-width="1.1" />
		<path fill-rule="evenodd" clip-rule="evenodd" d="M225.2 81.4a2 2 0 01-2 2 2 2 0 01-2-2V70.7l-5-3a2 2 0 01-.8-2.7 2 2 0 012.7-.7l6.1 3.5c.6.4 1 1 1 1.8v11.8z" fill="#FFCBA6" />
		<path clip-rule="evenodd" d="M225.2 81.4a2 2 0 01-2 2 2 2 0 01-2-2V70.7l-5-3a2 2 0 01-.8-2.7 2 2 0 012.7-.7l6.1 3.5c.6.4 1 1 1 1.8v11.8z" stroke="#262626" stroke-width="1.1" />
		<path fill-rule="evenodd" clip-rule="evenodd" d="M222.7 47.8l5-3c.9-.5 2-.2 2.4.6.5.9.2 1.9-.6 2.4l-6.8 4-6.8-4c-.8-.5-1-1.5-.6-2.4.5-.9 1.5-1.1 2.4-.6l5 3z" fill="#FFCBA6" />
		<path clip-rule="evenodd" d="M222.7 47.8l5-3c.9-.5 2-.2 2.4.6.5.9.2 1.9-.6 2.4l-6.8 4-6.8-4c-.8-.5-1-1.5-.6-2.4.5-.9 1.5-1.1 2.4-.6l5 3z" stroke="#262626" stroke-width="1.1" />
		<path fill-rule="evenodd" clip-rule="evenodd" d="M220.1 45.3c0-3.3-3.1-4.2-7-2-3.7 2.2-6.9 6.7-6.9 10v16l3.5 2 10.5-6v-20z" fill="#23B2A7" />
		<path clip-rule="evenodd" d="M220.1 45.3c0-3.3-3.1-4.2-7-2-3.7 2.2-6.9 6.7-6.9 10v16l3.5 2 10.5-6v-20h0z" stroke="#262626" stroke-width="1.1" />
		<path fill-rule="evenodd" clip-rule="evenodd" d="M213.2 36c3.1 0 5.7 2.5 5.7 5.5s-2.6 5.5-5.7 5.5a5.6 5.6 0 01-5.7-5.5c0-3 2.5-5.5 5.7-5.5" fill="#FFCBA6" />
		<path clip-rule="evenodd" d="M213.2 36c3.1 0 5.7 2.5 5.7 5.5s-2.6 5.5-5.7 5.5a5.6 5.6 0 01-5.7-5.5c0-3 2.5-5.5 5.7-5.5z" stroke="#262626" stroke-width="1.1" />
		<path clip-rule="evenodd" d="M215.7 41c.6-.3 1.4 0 1.8.5.3.6.1 1.3-.5 1.7-.6.3-1.4 0-1.7-.5-.4-.6-.2-1.3.4-1.6z" stroke="#262626" stroke-width=".9" />
		<path d="M214 43.3c-.4-.4-.1-.9.5-1 .7-.3 1.5-.2 1.9.2" stroke="#262626" stroke-width=".9" />
		<path clip-rule="evenodd" d="M212 43.5c.5-.4 1.3-.2 1.7.4.3.6.1 1.4-.5 1.7-.6.3-1.4.1-1.7-.5-.4-.5-.2-1.3.4-1.6z" stroke="#262626" stroke-width=".9" />
		<path fill-rule="evenodd" clip-rule="evenodd" d="M218.9 40a6 6 0 00-5.5-4 6 6 0 00-6 6l.2 1.1c1 .3 2.3.3 3.5-.2 1.7-.6 3-2 3.6-3.7 1.2.9 2.7 1.1 4.2.8" fill="#98760F" />
		<path clip-rule="evenodd" d="M218.9 40a6 6 0 00-5.5-4 6 6 0 00-6 6l.2 1.1c1 .3 2.3.3 3.5-.2 1.7-.6 3-2 3.6-3.7 1.2.9 2.7 1.1 4.2.8z" stroke="#262626" stroke-width="1.1" stroke-linecap="round" stroke-linejoin="round" />
		<path fill-rule="evenodd" clip-rule="evenodd" d="M214.9 66.2c.4.9.1 2-.6 2.4-.8.5-1.9.2-2.3-.6l-6.8-12.3c-.5-.9-.2-2 .6-2.4.8-.5 1.8-.2 2.3.6l6.8 12.3z" fill="#FFCBA6" />
		<path clip-rule="evenodd" d="M214.9 66.2c.4.9.1 2-.6 2.4-.8.5-1.9.2-2.3-.6l-6.8-12.3c-.5-.9-.2-2 .6-2.4.8-.5 1.8-.2 2.3.6l6.8 12.3z" stroke="#262626" stroke-width="1.1" />
		<path fill-rule="evenodd" clip-rule="evenodd" d="M226.4 62.8l-13.8 8 11.6 6.6 13.7-8-11.5-6.6z" fill="#F2F2F2" />
		<path clip-rule="evenodd" d="M226.4 62.8l-13.8 8 11.6 6.6 13.7-8-11.5-6.6z" stroke="#262626" stroke-width="1.1" stroke-linecap="round" stroke-linejoin="round" />
		<path fill-rule="evenodd" clip-rule="evenodd" d="M236.7 70.5l-10.5 5.7L219 72l10.4-5.7 7.4 4z" fill="#515151" />
		<path clip-rule="evenodd" d="M236.7 70.5l-10.5 5.7L219 72l10.4-5.7 7.4 4z" stroke="#262626" stroke-width="1.7" stroke-linecap="round" stroke-linejoin="round" />
		<path fill-rule="evenodd" clip-rule="evenodd" d="M228.8 64.4l14.2-7.7-3.6 13-14.2 7.7 3.6-13z" fill="#F2F2F2" />
		<path clip-rule="evenodd" d="M228.8 64.4l14.2-7.7-3.6 13-14.2 7.7 3.6-13z" stroke="#262626" stroke-width="1.1" stroke-linecap="round" stroke-linejoin="round" />
		<path fill-rule="evenodd" clip-rule="evenodd" d="M219.2 20.4L217 19l.2 2.6-2.1 1.6 2.6.6 1 2.5 1.3-2.2 2.7-.1-1.7-2 .8-2.5-2.6 1z" fill="#D1D871" />
		<path clip-rule="evenodd" d="M219.2 20.4L217 19l.2 2.6-2.1 1.6 2.6.6 1 2.5 1.3-2.2 2.7-.1-1.7-2 .8-2.5-2.6 1z" stroke="#333" stroke-width="1.1" stroke-linecap="round" stroke-linejoin="round" />
		<path fill-rule="evenodd" clip-rule="evenodd" d="M213 23l-2.3-1.6.2 2.7-2.1 1.6 2.5.6 1 2.4 1.4-2.2h2.7l-1.8-2 .8-2.6-2.5 1z" fill="#D1D871" />
		<path clip-rule="evenodd" d="M213 23l-2.3-1.6.2 2.7-2.1 1.6 2.5.6 1 2.4 1.4-2.2h2.7l-1.8-2 .8-2.6-2.5 1z" stroke="#333" stroke-width="1.1" stroke-linecap="round" stroke-linejoin="round" />
		<path fill-rule="evenodd" clip-rule="evenodd" d="M206.6 26.5l-2.3-1.4.2 2.6-2 1.6 2.5.6 1 2.5 1.4-2.2 2.6-.1-1.7-2 .7-2.5-2.4.9z" fill="#D1D871" />
		<path clip-rule="evenodd" d="M206.6 26.5l-2.3-1.4.2 2.6-2 1.6 2.5.6 1 2.5 1.4-2.2 2.6-.1-1.7-2 .7-2.5-2.4.9z" stroke="#333" stroke-width="1.1" stroke-linecap="round" stroke-linejoin="round" />
		<path fill-rule="evenodd" clip-rule="evenodd" d="M200.2 30.1l-2.2-1.4.2 2.6L196 33l2.6.7.9 2.4 1.4-2.2 2.7-.1-1.7-2 .7-2.5-2.5 1z" fill="#D1D871" />
		<path clip-rule="evenodd" d="M200.2 30.1l-2.2-1.4.2 2.6L196 33l2.6.7.9 2.4 1.4-2.2 2.7-.1-1.7-2 .7-2.5-2.5 1z" stroke="#333" stroke-width="1.1" stroke-linecap="round" stroke-linejoin="round" />
		<path fill-rule="evenodd" clip-rule="evenodd" d="M195.1 33.8l-2.2-1.4.2 2.6-2.1 1.6 2.6.6 1 2.5 1.3-2.3h2.7l-1.7-2 .7-2.5-2.5 1z" fill="#D1D871" />
		<path clip-rule="evenodd" d="M195.1 33.8l-2.2-1.4.2 2.6-2.1 1.6 2.6.6 1 2.5 1.3-2.3h2.7l-1.7-2 .7-2.5-2.5 1z" stroke="#333" stroke-width="1.1" stroke-linecap="round" stroke-linejoin="round" />
	</g>
</svg>
