<svg xmlns="http://www.w3.org/2000/svg" fill="none" viewBox="0 0 487 487">
    <g>
		<path fill="#D6E100" d="M243.5 0a243.5 243.5 0 100 487 243.5 243.5 0 000-487zm0 365a121.5 121.5 0 110-243 121.5 121.5 0 010 243z" />
        <g class="section-container">
            <g data-section="goals">
                <path class="background" fill="transparent" d="M131.6 291A121.4 121.4 0 01173.3 144L102 45a243.3 243.3 0 00-82 295.3L131.6 291z" />
                <path class="arrow" id="arrow" fill="#fff" d="M76.9 332.7L59 368.1l-5.1-7.9L71.7 325l41.1-3 5.1 7.8-41 3z" />
                <g id="icon">
                    <path fill="#806346" fill-rule="evenodd" d="M29.8 262c0 1-.7 1.6-1.7 1.6s-1.8-.7-1.8-1.6v-11.3c0-.9.8-1.6 1.8-1.6s1.7.7 1.7 1.6V262z" clip-rule="evenodd" />
                    <path fill-rule="evenodd" stroke="#262626" stroke-width="1.1" d="M29.8 262c0 1-.7 1.6-1.7 1.6s-1.8-.7-1.8-1.6v-11.3c0-.9.8-1.6 1.8-1.6s1.7.7 1.7 1.6V262z" clip-rule="evenodd" />
                    <path fill="#262626" fill-rule="evenodd" d="M29 230.1c.2-.1.6 0 .8.2.1.3 0 .6-.2.8-.3.1-.7 0-.8-.2-.2-.3-.1-.6.2-.8z" clip-rule="evenodd" />
                    <path fill="#806346" fill-rule="evenodd" d="M34.5 259.8c0 .9-.8 1.6-1.7 1.6-1 0-1.8-.7-1.8-1.6v-11.3c0-1 .8-1.7 1.8-1.7s1.7.8 1.7 1.7v11.3z" clip-rule="evenodd" />
                    <path fill-rule="evenodd" stroke="#262626" stroke-width="1.1" d="M34.5 259.8c0 .9-.8 1.6-1.7 1.6-1 0-1.8-.7-1.8-1.6v-11.3c0-1 .8-1.7 1.8-1.7s1.7.8 1.7 1.7v11.3z" clip-rule="evenodd" />
                    <path fill="#806346" fill-rule="evenodd" d="M40.2 240.3c.4.7.1 1.5-.5 1.9-.7.4-1.5.1-1.9-.5l-5.4-9.6c-.4-.7-.2-1.5.4-1.9.7-.4 1.5-.1 1.9.5l5.5 9.6z" clip-rule="evenodd" />
                    <path fill-rule="evenodd" stroke="#262626" stroke-width="1.1" d="M40.2 240.3c.4.7.1 1.5-.5 1.9-.7.4-1.5.1-1.9-.5l-5.4-9.6c-.4-.7-.2-1.5.4-1.9.7-.4 1.5-.1 1.9.5l5.5 9.6z" clip-rule="evenodd" />
                    <path fill="#FB6045" fill-rule="evenodd" d="M35.6 231.5c0-2.7-2.6-3.4-5.8-1.6-3.2 1.7-5.8 5.4-5.8 8v13l3 1.5 8.7-4.8v-16.1z" clip-rule="evenodd" />
                    <path fill-rule="evenodd" stroke="#262626" stroke-width="1.1" d="M35.6 231.5c0-2.7-2.6-3.4-5.8-1.6-3.2 1.7-5.8 5.4-5.8 8v13l3 1.5 8.7-4.8v-16.1h0z" clip-rule="evenodd" />
                    <path fill="#806346" fill-rule="evenodd" d="M32 245.9c.4.7.1 1.5-.5 1.9-.6.4-1.5.1-1.8-.5l-5.5-9.6c-.4-.7-.2-1.5.5-1.9.6-.4 1.4-.1 1.8.5l5.5 9.6z" clip-rule="evenodd" />
                    <path fill-rule="evenodd" stroke="#262626" stroke-width="1.1" d="M32 245.9c.4.7.1 1.5-.5 1.9-.6.4-1.5.1-1.8-.5l-5.5-9.6c-.4-.7-.2-1.5.5-1.9.6-.4 1.4-.1 1.8.5l5.5 9.6z" clip-rule="evenodd" />
                    <path fill="#806346" fill-rule="evenodd" d="M29.8 224.4c2.6 0 4.7 2 4.7 4.5s-2 4.5-4.7 4.5c-2.5 0-4.6-2-4.6-4.5s2-4.5 4.6-4.5z" clip-rule="evenodd" />
                    <path fill-rule="evenodd" stroke="#262626" stroke-width="1.7" d="M29.8 224.4c2.6 0 4.7 2 4.7 4.5s-2 4.5-4.7 4.5c-2.5 0-4.6-2-4.6-4.5s2-4.5 4.6-4.5z" clip-rule="evenodd" />
                    <path fill="#262626" fill-rule="evenodd" d="M32.5 229c.3-.2.6 0 .8.2.1.3 0 .6-.2.8-.3.1-.7 0-.8-.2-.2-.3-.1-.7.2-.8z" clip-rule="evenodd" />
                    <path fill="#464646" fill-rule="evenodd" d="M34.5 227.5c-.7-1.8-2.4-3-4.5-3-2.7 0-4.8 2-4.8 4.6v.8c1 .2 2 .2 3-.2A4.7 4.7 0 0031 227c1 .6 2.3.8 3.5.6z" clip-rule="evenodd" />
                    <path fill-rule="evenodd" stroke="#262626" stroke-width="1.1" d="M34.5 227.5c-.7-1.8-2.4-3-4.5-3-2.7 0-4.8 2-4.8 4.6v.8c1 .2 2 .2 3-.2A4.7 4.7 0 0031 227c1 .6 2.3.8 3.5.6z" clip-rule="evenodd" />
                    <path fill="#FFCBA6" fill-rule="evenodd" d="M67.2 264.3c0 .9.8 1.6 1.8 1.6s1.7-.7 1.7-1.6v-11.4c0-.9-.7-1.6-1.7-1.6s-1.8.7-1.8 1.6v11.4z" clip-rule="evenodd" />
                    <path fill-rule="evenodd" stroke="#262626" stroke-width="1.1" d="M67.2 264.3c0 .9.8 1.6 1.8 1.6s1.7-.7 1.7-1.6v-11.4c0-.9-.7-1.6-1.7-1.6s-1.8.7-1.8 1.6v11.4z" clip-rule="evenodd" />
                    <path fill="#FFCBA6" fill-rule="evenodd" d="M62.6 262c0 1 .7 1.6 1.7 1.6s1.8-.7 1.8-1.6v-11.3c0-.9-.8-1.6-1.8-1.6s-1.7.7-1.7 1.6V262z" clip-rule="evenodd" />
                    <path fill-rule="evenodd" stroke="#262626" stroke-width="1.7" d="M62.6 262c0 1 .7 1.6 1.7 1.6s1.8-.7 1.8-1.6v-11.3c0-.9-.8-1.6-1.8-1.6s-1.7.7-1.7 1.6V262z" clip-rule="evenodd" />
                    <path fill="#FFCBA6" fill-rule="evenodd" d="M61.9 238.5l-4.4 2.4c-.8.4-1 1.2-.6 1.9s1.3.9 2 .5l6-3.3v-6.4c0-.7-.7-1.3-1.5-1.3s-1.4.6-1.4 1.3v4.9h-.1z" clip-rule="evenodd" />
                    <path fill-rule="evenodd" stroke="#262626" stroke-width="1.1" d="M61.9 238.5l-4.4 2.4c-.8.4-1 1.2-.6 1.9s1.3.9 2 .5l6-3.3v-6.4c0-.7-.7-1.3-1.5-1.3s-1.4.6-1.4 1.3v4.9h-.1z" clip-rule="evenodd" />
                    <path fill="#6C75E1" fill-rule="evenodd" d="M61.4 233.7c0-2.6 2.6-3.4 5.8-1.6 3.2 1.8 5.9 5.4 5.9 8v13l-3 1.6-8.7-4.9v-16z" clip-rule="evenodd" />
                    <path fill-rule="evenodd" stroke="#262626" stroke-width="1.1" d="M61.4 233.7c0-2.6 2.6-3.4 5.8-1.6 3.2 1.8 5.9 5.4 5.9 8v13l-3 1.6-8.7-4.9v-16z" clip-rule="evenodd" />
                    <path fill="#FFCBA6" fill-rule="evenodd" d="M70 243l-4.4 2.4c-.7.3-1 1.2-.5 1.9.4.7 1.3.9 2 .5l6-3.3v-6.4c0-.8-.7-1.3-1.5-1.3s-1.4.6-1.4 1.3v4.8H70z" clip-rule="evenodd" />
                    <path fill-rule="evenodd" stroke="#262626" stroke-width="1.1" d="M70 243l-4.4 2.4c-.7.3-1 1.2-.5 1.9.4.7 1.3.9 2 .5l6-3.3v-6.4c0-.8-.7-1.3-1.5-1.3s-1.4.6-1.4 1.3v4.8H70z" clip-rule="evenodd" />
                    <path fill="#FFCBA6" fill-rule="evenodd" d="M66 225.6c2.6 0 4.7 2 4.7 4.4 0 2.5-2 4.5-4.6 4.5-2.6 0-4.7-2-4.7-4.5 0-2.4 2-4.4 4.7-4.4z" clip-rule="evenodd" />
                    <path fill-rule="evenodd" stroke="#262626" stroke-width="1.1" d="M66 225.6c2.6 0 4.7 2 4.7 4.4 0 2.5-2 4.5-4.6 4.5-2.6 0-4.7-2-4.7-4.5 0-2.4 2-4.4 4.7-4.4z" clip-rule="evenodd" />
                    <path fill-rule="evenodd" stroke="#262626" stroke-width=".9" d="M63.8 230.4c0-.3.4-.4.7-.3.3 0 .5.4.4.7-.1.3-.5.4-.8.3a.6.6 0 01-.3-.7z" clip-rule="evenodd" />
                    <path stroke="#262626" stroke-width=".9" d="M66 232.3c.1-.5 0-1-.3-1.1-.3-.1-.7 0-.8.5" />
                    <path fill-rule="evenodd" stroke="#262626" stroke-width=".9" d="M66.1 231.5c.1-.3.4-.4.8-.3.3 0 .4.4.3.7-.1.3-.4.4-.7.3a.6.6 0 01-.4-.7z" clip-rule="evenodd" />
                    <path fill="#B79F57" fill-rule="evenodd" d="M62.6 228.6c.7-1.8 2.4-3 4.5-3 2.6 0 4.8 2 4.8 4.6v.8c-1 .2-2 .2-3-.2A4.7 4.7 0 0166 228c-1 .6-2.2.9-3.4.6z" clip-rule="evenodd" />
                    <path fill-rule="evenodd" stroke="#262626" stroke-linecap="round" stroke-linejoin="round" stroke-width="1.1" d="M62.6 228.6c.7-1.8 2.4-3 4.5-3 2.6 0 4.8 2 4.8 4.6v.8c-1 .2-2 .2-3-.2A4.7 4.7 0 0166 228c-1 .6-2.2.9-3.4.6z" clip-rule="evenodd" />
                    <path fill="#CC9E70" fill-rule="evenodd" d="M89.4 276.6c0 .9.8 1.6 1.8 1.6s1.7-.7 1.7-1.6v-11.3c0-1-.7-1.7-1.7-1.7s-1.8.8-1.8 1.7v11.3z" clip-rule="evenodd" />
                    <path fill-rule="evenodd" stroke="#262626" stroke-width="1.7" d="M89.4 276.6c0 .9.8 1.6 1.8 1.6s1.7-.7 1.7-1.6v-11.3c0-1-.7-1.7-1.7-1.7s-1.8.8-1.8 1.7v11.3z" clip-rule="evenodd" />
                    <path fill="#CC9E70" fill-rule="evenodd" d="M83.6 273.2c0 1 .8 1.6 1.7 1.6 1 0 1.8-.7 1.8-1.6V262c0-.9-.8-1.6-1.8-1.6s-1.7.7-1.7 1.6v11.3z" clip-rule="evenodd" />
                    <path fill-rule="evenodd" stroke="#262626" stroke-width="1.1" d="M83.6 273.2c0 1 .8 1.6 1.7 1.6 1 0 1.8-.7 1.8-1.6V262c0-.9-.8-1.6-1.8-1.6s-1.7.7-1.7 1.6v11.3z" clip-rule="evenodd" />
                    <path fill="#CC9E70" fill-rule="evenodd" d="M78 253.7c-.4.7-.2 1.5.4 2 .7.3 1.5 0 1.9-.6l5.4-9.6c.4-.6.2-1.5-.4-1.8-.7-.4-1.5-.2-1.9.4l-5.5 9.6z" clip-rule="evenodd" />
                    <path fill-rule="evenodd" stroke="#262626" stroke-width="1.1" d="M78 253.7c-.4.7-.2 1.5.4 2 .7.3 1.5 0 1.9-.6l5.4-9.6c.4-.6.2-1.5-.4-1.8-.7-.4-1.5-.2-1.9.4l-5.5 9.6z" clip-rule="evenodd" />
                    <path fill="#23B2A7" fill-rule="evenodd" d="M82.5 246c0-2.6 2.6-3.3 5.8-1.6 3.2 1.8 5.8 5.4 5.8 8.1v12.9l-3 1.6-8.7-4.8V246z" clip-rule="evenodd" />
                    <path fill-rule="evenodd" stroke="#262626" stroke-width="1.1" d="M82.5 246c0-2.6 2.6-3.3 5.8-1.6 3.2 1.8 5.8 5.4 5.8 8.1v12.9l-3 1.6-8.7-4.8V246h0z" clip-rule="evenodd" />
                    <path fill="#CC9E70" fill-rule="evenodd" d="M92.3 255.3l-4.5 2.4c-.7.4-.9 1.2-.5 1.9s1.3.9 2 .5l6-3.2v-6.5c0-.7-.7-1.3-1.5-1.3s-1.4.6-1.4 1.3v4.9h-.1z" clip-rule="evenodd" />
                    <path fill-rule="evenodd" stroke="#262626" stroke-width="1.1" d="M92.3 255.3l-4.5 2.4c-.7.4-.9 1.2-.5 1.9s1.3.9 2 .5l6-3.2v-6.5c0-.7-.7-1.3-1.5-1.3s-1.4.6-1.4 1.3v4.9h-.1z" clip-rule="evenodd" />
                    <path fill="#CC9E70" fill-rule="evenodd" d="M88.3 237.9c2.6 0 4.6 2 4.6 4.5 0 2.4-2 4.4-4.6 4.4-2.6 0-4.7-2-4.7-4.4 0-2.5 2-4.5 4.7-4.5z" clip-rule="evenodd" />
                    <path fill-rule="evenodd" stroke="#262626" stroke-width="1.1" d="M88.3 237.9c2.6 0 4.6 2 4.6 4.5 0 2.4-2 4.4-4.6 4.4-2.6 0-4.7-2-4.7-4.4 0-2.5 2-4.5 4.7-4.5z" clip-rule="evenodd" />
                    <path fill="#262626" fill-rule="evenodd" d="M84.8 242.7c.1-.3.4-.4.7-.3.4.1.5.4.4.7-.1.3-.4.4-.8.3a.6.6 0 01-.3-.7z" clip-rule="evenodd" />
                    <path fill="#262626" fill-rule="evenodd" d="M88.3 243.8c.1-.2.5-.4.8-.3.3.1.4.4.3.7-.1.3-.4.5-.7.4a.6.6 0 01-.4-.8z" clip-rule="evenodd" />
                    <path fill="#71603F" fill-rule="evenodd" d="M89.4 246.8a4.4 4.4 0 001.5-4.2h-.2c-2 0-3.6-1-4.3-2.7a4.6 4.6 0 00-2.6 4l-.2-1.5c0-2.5 2-4.5 4.7-4.5 2.5 0 4.6 2 4.6 4.5 0 2.2-1.4 4-3.5 4.4z" clip-rule="evenodd" />
                    <path fill-rule="evenodd" stroke="#262626" stroke-linecap="round" stroke-linejoin="round" stroke-width="1.1" d="M89.4 246.8a4.4 4.4 0 001.5-4.2h-.2c-2 0-3.6-1-4.3-2.7a4.6 4.6 0 00-2.6 4l-.2-1.5c0-2.5 2-4.5 4.7-4.5 2.5 0 4.6 2 4.6 4.5 0 2.2-1.4 4-3.5 4.4z" clip-rule="evenodd" />
                    <path fill="#fff" fill-rule="evenodd" d="M86.1 282.7l12.7-6.7-8.4-4.5-12.6 6.7 8.3 4.5z" clip-rule="evenodd" />
                    <path fill-rule="evenodd" stroke="#262626" stroke-linecap="round" stroke-linejoin="round" stroke-width="1.1" d="M86.1 282.7l12.7-6.7-8.4-4.5-12.6 6.7 8.3 4.5z" clip-rule="evenodd" />
                    <path fill="#fff" fill-rule="evenodd" d="M86.1 281.6l12.7-6.7-8.4-4.5-12.6 6.7 8.3 4.5z" clip-rule="evenodd" />
                    <path fill-rule="evenodd" stroke="#262626" stroke-linecap="round" stroke-linejoin="round" stroke-width="1.1" d="M86.1 281.6l12.7-6.7-8.4-4.5-12.6 6.7 8.3 4.5z" clip-rule="evenodd" />
                    <path fill="#fff" fill-rule="evenodd" d="M86.1 280.4l12.7-6.7-8.4-4.5-12.6 6.7 8.3 4.5z" clip-rule="evenodd" />
                    <path fill-rule="evenodd" stroke="#262626" stroke-linecap="round" stroke-linejoin="round" stroke-width="1.1" d="M86.1 280.4l12.7-6.7-8.4-4.5-12.6 6.7 8.3 4.5z" clip-rule="evenodd" />
                    <path fill="#fff" fill-rule="evenodd" d="M86.1 279.3l12.7-6.7-8.4-4.5-12.6 6.7 8.3 4.5z" clip-rule="evenodd" />
                    <path fill-rule="evenodd" stroke="#262626" stroke-linecap="round" stroke-linejoin="round" stroke-width="1.1" d="M86.1 279.3l12.7-6.7-8.4-4.5-12.6 6.7 8.3 4.5z" clip-rule="evenodd" />
                    <path fill="#fff" fill-rule="evenodd" d="M86.1 278.2l12.7-6.7-8.4-4.5-12.6 6.7 8.3 4.5z" clip-rule="evenodd" />
                    <path fill-rule="evenodd" stroke="#262626" stroke-linecap="round" stroke-linejoin="round" stroke-width="1.1" d="M86.1 278.2l12.7-6.7-8.4-4.5-12.6 6.7 8.3 4.5z" clip-rule="evenodd" />
                    <path fill="#fff" fill-rule="evenodd" d="M57.4 273.7l-28.7-16 21.5-12 28.7 16-21.5 12z" clip-rule="evenodd" />
                    <path fill-rule="evenodd" stroke="#262626" stroke-linecap="round" stroke-linejoin="round" stroke-width="1.1" d="M57.4 273.7l-28.7-16 21.5-12 28.7 16-21.5 12z" clip-rule="evenodd" />
                    <path stroke="#262626" stroke-linecap="round" stroke-linejoin="round" stroke-width="1.1" d="M62.6 258l-14-7.8" />
                    <path stroke="#262626" stroke-linecap="round" stroke-linejoin="round" stroke-width="1.1" d="M60.2 259.2l-14-7.9" />
                    <path stroke="#262626" stroke-linecap="round" stroke-linejoin="round" stroke-width="1.1" d="M57.9 260.3l-14-7.9" />
                    <path stroke="#262626" stroke-linecap="round" stroke-linejoin="round" stroke-width="1.1" d="M55.6 261.4l-14-7.8" />
                    <path stroke="#262626" stroke-linecap="round" stroke-linejoin="round" stroke-width="1.1" d="M52 263.6l-14-7.8" />
                    <path stroke="#262626" stroke-linecap="round" stroke-linejoin="round" stroke-width="1.1" d="M49.7 264.8l-14-7.9" />
                    <path fill="#262626" fill-rule="evenodd" d="M55.5 266.6l2.6 1.4c1 .5 2.4.4 3.4-.1l4.4-2.4c.8-.4-.2-1-1-.6l-4 2.2-.3-.2 10.9-5.9c1.1-.6-.3-1.3-1.4-.8l-6.3 3.5-.3-.1 6.3-3.5c1.1-.5-.3-1.3-1.4-.7l-11 5.9-.2-.2 4-2.1c.8-.5-.2-1-1-.6l-4.4 2.3c-1 .5-1.2 1.4-.3 1.9zm1 .9c-.6-.4-1.8-.4-2.6 0-.8.5-1 1.1-.2 1.5.6.4 1.8.3 2.6-.1s1-1 .2-1.4z" clip-rule="evenodd" />
                </g>
                <path id="Set reform goals and secure buy-in" fill="#000" d="M50.2 139.7c0 .9-.4 1.6-1 2-.7.6-1.6.9-2.7.9-1 0-2-.2-2.9-.6v-2l1.8.6c.4.2.8.2 1.2.2.5 0 .9 0 1.1-.2.3-.2.4-.5.4-.8 0-.2 0-.4-.2-.6l-.5-.4a12 12 0 00-1.3-.7l-1.3-.8-.8-1-.2-1.2c0-.8.3-1.5.9-2 .6-.6 1.4-.8 2.4-.8.6 0 1 0 1.5.2l1.5.5-.7 1.6-1.3-.4-1-.1c-.4 0-.7 0-1 .2a1 1 0 00-.3.8c0 .2 0 .3.2.5l.4.4 1.3.7c1 .4 1.6.9 2 1.3.3.5.5 1 .5 1.7zM55 136c-.5 0-.8.2-1 .5a2 2 0 00-.5 1.1h3c0-.5-.2-.9-.5-1.1-.2-.3-.6-.5-1-.5zm.3 6.5a4 4 0 01-3-1c-.6-.7-1-1.7-1-3 0-1.2.4-2.2 1-2.9.6-.7 1.5-1 2.7-1 1 0 1.9.3 2.5.9.6.6.9 1.4.9 2.5v1h-5c0 .6.3 1 .6 1.4.3.3.8.5 1.4.5a5.7 5.7 0 002.6-.6v1.6l-1.2.4-1.5.2zm8-1.7c.4 0 .8 0 1.3-.2v1.5c-.5.3-1.1.4-2 .4-.7 0-1.3-.2-1.7-.7-.4-.4-.6-1-.6-1.9v-3.6h-1v-1l1.2-.6.6-1.6h1.3v1.6h2.1v1.6h-2.1v3.6c0 .3 0 .6.2.7l.7.2zm10.8-6.3l.7.1-.2 2-.6-.1c-.7 0-1.2.2-1.6.5-.3.3-.5.8-.5 1.4v4h-2.1v-7.7h1.6l.3 1.3c.3-.5.6-.8 1-1 .4-.3.9-.5 1.4-.5zm5.2 1.5c-.4 0-.8.2-1 .5a2 2 0 00-.5 1.1h3c0-.5-.2-.9-.4-1.1-.3-.3-.6-.5-1-.5zm.3 6.5a4 4 0 01-2.9-1c-.7-.7-1-1.7-1-3 0-1.2.3-2.2 1-2.9.6-.7 1.5-1 2.6-1 1 0 2 .3 2.5.9.6.6 1 1.4 1 2.5v1h-5c0 .6.2 1 .5 1.4.4.3.8.5 1.4.5a5.7 5.7 0 002.6-.6v1.6l-1.2.4-1.5.2zm9-6.2h-1.8v6h-2v-6h-1.2v-1l1.2-.6v-.6c0-.8.2-1.5.6-1.9.4-.4 1.1-.6 2-.6.8 0 1.4.1 2 .3l-.6 1.6c-.4-.2-.8-.2-1.1-.2-.3 0-.5 0-.7.2a1 1 0 00-.2.7v.5h1.9v1.6zm3 2.2c0 .8 0 1.3.3 1.7.2.4.6.6 1.2.6s1-.2 1.2-.6c.2-.4.4-1 .4-1.7 0-.8-.2-1.3-.4-1.7-.2-.4-.7-.6-1.2-.6-.6 0-1 .2-1.2.6-.3.4-.4 1-.4 1.7zm5.2 0c0 1.2-.3 2.2-1 3-.6.6-1.6 1-2.7 1-.8 0-1.4-.2-2-.5-.5-.3-1-.8-1.3-1.4-.3-.6-.4-1.3-.4-2.1a4 4 0 011-3c.6-.6 1.5-1 2.7-1 .7 0 1.4.2 2 .5.5.3 1 .8 1.2 1.4.3.6.5 1.3.5 2.1zm6-4l.7.1-.2 2-.6-.1c-.6 0-1.2.2-1.5.5-.4.3-.6.8-.6 1.4v4h-2v-7.7h1.5l.3 1.3h.1c.2-.5.6-.8 1-1 .4-.3.8-.5 1.3-.5zm9 7.8h-2.2V138c0-.6 0-1-.2-1.3-.2-.2-.5-.4-1-.4-.4 0-.8.2-1 .6-.3.4-.4 1-.4 2v3.5h-2.1v-7.6h1.6l.3 1c.3-.4.6-.7 1-.9.3-.2.8-.3 1.3-.3 1.1 0 2 .4 2.3 1.2h.2c.2-.4.5-.7.9-.9a3 3 0 011.4-.3c.8 0 1.5.3 2 .7.4.5.6 1.2.6 2.1v5h-2.1V138c0-.6-.1-1-.3-1.3-.2-.2-.5-.4-.9-.4-.5 0-.8.2-1.1.6-.3.3-.4.9-.4 1.7v3.8zm-61 11.4v1l-1.3.4c.3.3.4.7.4 1.1 0 .8-.3 1.5-.9 2-.6.4-1.3.6-2.4.6H46c-.3.1-.4.3-.4.5 0 .3.4.5 1.2.5H48c.8 0 1.5.1 1.9.5.4.4.7.9.7 1.6 0 .9-.4 1.6-1.2 2-.7.5-1.8.8-3.2.8-1 0-1.9-.2-2.4-.6-.6-.3-.9-.9-.9-1.5 0-.5.2-.9.5-1.2.3-.3.7-.5 1.2-.6l-.5-.5a1 1 0 01-.3-.7c0-.2.1-.5.3-.7l.7-.5a2 2 0 01-1-.9c-.2-.4-.3-.8-.3-1.3 0-.9.3-1.5.8-2 .6-.4 1.3-.7 2.4-.7l.7.1h3.2zm-6 8.7c0 .3.2.5.5.7.2.2.6.2 1.1.2.8 0 1.4 0 1.8-.3.4-.2.6-.5.6-.8 0-.3-.1-.5-.4-.6a3 3 0 00-1.1-.2h-1.1c-.4 0-.7.1-1 .3-.2.2-.4.4-.4.7zm.8-6.2c0 .4.1.7.3 1 .2.2.5.3.9.3.3 0 .6 0 .8-.3.2-.3.3-.6.3-1 0-1-.4-1.4-1.1-1.4-.8 0-1.2.5-1.2 1.4zm8 1.3c0 .8.2 1.3.4 1.7.3.4.7.6 1.3.6.5 0 1-.2 1.2-.6.2-.4.3-1 .3-1.7 0-.8-.1-1.3-.3-1.7-.3-.4-.7-.6-1.3-.6-.5 0-1 .2-1.2.6-.2.4-.3 1-.3 1.7zm5.4 0c0 1.2-.4 2.2-1 3-.7.6-1.6 1-2.8 1-.7 0-1.4-.2-2-.5-.5-.3-.9-.8-1.2-1.4-.3-.6-.5-1.3-.5-2.1a4 4 0 011-3c.7-.6 1.6-1 2.8-1 .7 0 1.4.2 2 .5.5.3.9.8 1.2 1.4.3.6.5 1.3.5 2.1zm6.5 3.8l-.4-1-1.1 1-1.5.2c-.7 0-1.3-.2-1.7-.7-.4-.4-.6-1-.6-1.8s.3-1.4.8-1.7a5 5 0 012.6-.7h1.3v-.4c0-.7-.4-1.1-1.2-1.1-.6 0-1.3.2-2.1.5l-.7-1.4c.9-.4 1.8-.7 3-.7 1 0 1.7.3 2.3.7.5.4.8 1.1.8 2v5.1h-1.5zM65 158h-.8c-.6 0-1 .1-1.3.3-.3.2-.5.6-.5 1 0 .6.3.8 1 .8.5 0 .9 0 1.2-.4.3-.3.4-.6.4-1v-.7zm6.3 3.5h-2v-10.6h2v10.6zm7.6-2.2c0 .7-.3 1.3-.9 1.8-.5.4-1.3.6-2.4.6l-1.4-.1-1.1-.4v-1.7a7.2 7.2 0 002.6.6c.7 0 1-.2 1-.6v-.4a11.8 11.8 0 00-1.5-.8l-1.4-.7a2 2 0 01-.6-.7l-.1-1c0-.7.2-1.2.7-1.6.6-.4 1.3-.6 2.3-.6.9 0 1.8.2 2.7.6l-.7 1.6-1-.5-1-.1c-.7 0-1 .2-1 .5 0 .2.1.3.3.5l1.3.6c.6.2 1 .4 1.3.7l.7.7.2 1zm10 2.2l-.3-1-1.2 1-1.4.2c-.8 0-1.3-.2-1.8-.7-.4-.4-.6-1-.6-1.8s.3-1.4.9-1.7a5 5 0 012.5-.7h1.4v-.4c0-.7-.4-1.1-1.2-1.1-.6 0-1.4.2-2.2.5l-.7-1.4c.9-.4 1.9-.7 3-.7 1 0 1.8.3 2.3.7.6.4.8 1.1.8 2v5.1H89zm-.5-3.5h-.9c-.6 0-1 .1-1.3.3-.3.2-.5.6-.5 1 0 .6.4.8 1 .8.5 0 1 0 1.2-.4.3-.3.5-.6.5-1v-.7zm11.2 3.5h-2V157c0-.6-.1-1-.3-1.3-.2-.2-.6-.4-1-.4-.6 0-1 .2-1.2.6-.3.4-.4 1-.4 2v3.5h-2.1v-7.6H94l.3 1c.3-.4.6-.7 1-.9.4-.2.9-.3 1.4-.3 1 0 1.6.3 2 .8.5.4.7 1.1.7 2v5zm4.6.2c-.9 0-1.6-.4-2.1-1-.5-.8-.8-1.7-.8-3 0-1.2.3-2.2.8-2.9.5-.7 1.2-1 2.2-1 1 0 1.6.3 2.2 1l-.1-1.5v-2.4h2v10.6h-1.5l-.4-1h-.1c-.5.8-1.2 1.2-2.2 1.2zm.7-1.7c.6 0 1-.1 1.2-.5.3-.3.4-.8.4-1.5v-.3c0-.8-.1-1.4-.4-1.7-.2-.4-.6-.6-1.2-.6-.5 0-.8.2-1 .6-.3.4-.5 1-.5 1.8 0 .7.2 1.3.4 1.6.3.4.6.6 1.1.6zm-55.4 18.3c0 .7-.2 1.3-.8 1.8-.5.4-1.4.6-2.4.6l-1.5-.1-1-.4v-1.7a7.2 7.2 0 002.5.6c.8 0 1.2-.2 1.2-.6 0-.2 0-.3-.2-.4a11.8 11.8 0 00-1.5-.8l-1.3-.7a2 2 0 01-.6-.7l-.2-1c0-.7.3-1.2.8-1.6.5-.4 1.3-.6 2.3-.6.9 0 1.8.2 2.6.6l-.6 1.6-1-.5-1-.1c-.7 0-1 .2-1 .5 0 .2.1.3.3.5l1.3.6c.6.2 1 .4 1.3.7.3.2.5.4.6.7.2.3.2.6.2 1zm4.8-4c-.4 0-.8 0-1 .4a2 2 0 00-.5 1.1h3c0-.5-.2-.9-.4-1.1-.3-.3-.6-.5-1-.5zm.3 6.4a4 4 0 01-2.9-1c-.7-.7-1-1.7-1-3 0-1.2.3-2.2 1-2.9.6-.7 1.5-1 2.6-1 1 0 2 .3 2.5.9.6.6 1 1.4 1 2.5v1h-5c0 .6.2 1 .5 1.4.4.3.8.5 1.4.5a5.7 5.7 0 002.6-.6v1.6l-1.2.4-1.5.2zm8 0c-2.5 0-3.6-1.3-3.6-4 0-1.2.3-2.2 1-3 .6-.6 1.5-1 2.7-1 .9 0 1.7.2 2.4.6l-.6 1.6-1-.3-.8-.2c-1 0-1.6.8-1.6 2.3 0 1.5.5 2.3 1.6 2.3.4 0 .8 0 1.1-.2.4 0 .7-.3 1-.5v1.8c-.3.2-.6.4-1 .4l-1.3.2zm9.4-.2l-.2-1h-.1c-.3.4-.6.7-1 .9-.4.2-.9.3-1.4.3-.9 0-1.6-.3-2-.7-.5-.5-.7-1.2-.7-2.1v-5h2v4.5c0 .5.2 1 .4 1.2.2.3.5.4.9.4.6 0 1-.2 1.3-.6.2-.4.4-1 .4-2v-3.5h2v7.6H72zm8.1-7.8l.7.1-.2 2-.6-.1c-.6 0-1.2.2-1.5.5-.4.3-.6.8-.6 1.4v4h-2v-7.7h1.5l.3 1.3h.1c.3-.5.6-.8 1-1 .4-.3.8-.5 1.3-.5zm5.3 1.5c-.5 0-.8.2-1 .5a2 2 0 00-.5 1.1h3c-.1-.5-.2-.9-.5-1.1-.3-.3-.6-.5-1-.5zm.2 6.5a4 4 0 01-2.8-1c-.7-.7-1-1.7-1-3 0-1.2.2-2.2.9-2.9.6-.7 1.5-1 2.6-1s2 .3 2.6.9c.6.6.9 1.4.9 2.5v1h-5c0 .6.2 1 .6 1.4.3.3.8.5 1.3.5a5.7 5.7 0 002.6-.6v1.6l-1.1.4-1.6.2zm-37.2 11c1 0 1.7.4 2.2 1.1.5.7.7 1.7.7 2.9 0 1.3-.2 2.2-.8 3-.5.6-1.2 1-2.1 1-1 0-1.6-.4-2.1-1H46l-.3.8H44v-10.6h2v4c.6-.8 1.3-1.2 2.2-1.2zm-.6 1.7c-.5 0-1 .2-1.2.5-.2.3-.3.8-.3 1.6v.2c0 .8.1 1.4.3 1.7.3.4.7.6 1.2.6.4 0 .8-.2 1-.6.3-.4.4-1 .4-1.7a3 3 0 00-.4-1.7c-.2-.4-.6-.6-1-.6zm10.7 6.1l-.3-1H58c-.2.4-.6.7-1 .9-.4.2-.8.3-1.4.3-.9 0-1.5-.3-2-.7-.5-.5-.7-1.2-.7-2.1v-5H55v4.5c0 .5.1 1 .3 1.2.2.3.5.4 1 .4s1-.2 1.2-.6c.3-.4.4-1 .4-2v-3.5h2v7.6h-1.5zm2.7-7.6h2.2l1.5 4.3.2 1.3.4-1.3 1.4-4.3H69l-3.2 8.6c-.3.8-.7 1.4-1.3 1.8-.5.4-1.2.6-1.9.6l-1-.1V201l.8.1 1-.3.6-1 .1-.4-3-7.6zm8.3 4.7v-1.7h3.7v1.7h-3.7zm5.1-6.7c0-.7.4-1 1.2-1 .7 0 1.1.3 1.1 1 0 .3 0 .6-.3.8-.2.2-.4.2-.8.2-.8 0-1.2-.3-1.2-1zm2.2 9.6h-2v-7.6h2v7.6zm9.3 0h-2.1V195c0-.6-.1-1-.3-1.3-.2-.2-.5-.4-1-.4s-1 .2-1.2.6c-.3.4-.4 1-.4 2v3.5h-2v-7.6h1.5l.3 1h.1c.2-.4.6-.7 1-.9.4-.2.8-.3 1.4-.3.8 0 1.5.3 2 .8.4.4.7 1.1.7 2v5z" />
            </g>
            <g data-section="measure">
                <path class="background" fill="transparent" d="M278.2 360.4a121.4 121.4 0 01-141-58.6L30.5 361.2a243.3 243.3 0 00283.8 116l-36.1-116.7z" />
                <path class="arrow" id="arrow_2" fill="#fff" d="M317 412.4l33.8 20.6-8.2 4.5-33.8-20.7.2-41.1 8.3-4.5-.3 41.2z" />
                <g id="icon_2">
                    <path fill="#806346" fill-rule="evenodd" d="M274.4 443.9c0 .7-.6 1.3-1.4 1.3-.7 0-1.4-.6-1.4-1.3v-9.3c0-.7.7-1.3 1.4-1.3.8 0 1.4.6 1.4 1.3v9.3z" clip-rule="evenodd" />
                    <path fill-rule="evenodd" stroke="#262626" stroke-width="1.1" d="M274.4 443.9c0 .7-.6 1.3-1.4 1.3-.7 0-1.4-.6-1.4-1.3v-9.3c0-.7.7-1.3 1.4-1.3.8 0 1.4.6 1.4 1.3v9.3z" clip-rule="evenodd" />
                    <path fill="#806346" fill-rule="evenodd" d="M270.4 446.1c0 .8-.6 1.4-1.4 1.4-.8 0-1.4-.6-1.4-1.4V437c0-.8.6-1.4 1.4-1.4.8 0 1.4.6 1.4 1.4v9.2z" clip-rule="evenodd" />
                    <path fill-rule="evenodd" stroke="#262626" stroke-width="1.1" d="M270.4 446.1c0 .8-.6 1.4-1.4 1.4-.8 0-1.4-.6-1.4-1.4V437c0-.8.6-1.4 1.4-1.4.8 0 1.4.6 1.4 1.4v9.2z" clip-rule="evenodd" />
                    <path fill="#806346" fill-rule="evenodd" d="M276.2 421.1c-.2.6-.9.9-1.4.7-.7-.2-1-.9-.7-1.4l3.1-8.5c.3-.6 1-.9 1.5-.7.6.2 1 .9.7 1.4l-3.2 8.5z" clip-rule="evenodd" />
                    <path fill-rule="evenodd" stroke="#262626" stroke-width="1.1" d="M276.2 421.1c-.2.6-.9.9-1.4.7-.7-.2-1-.9-.7-1.4l3.1-8.5c.3-.6 1-.9 1.5-.7.6.2 1 .9.7 1.4l-3.2 8.5z" clip-rule="evenodd" />
                    <path fill="#6C75E1" fill-rule="evenodd" d="M275.6 421.1c0-2.1-2-2.7-4.6-1.3-2.6 1.4-4.6 4.3-4.6 6.5v10.2l2.3 1.3 7-3.8V421z" clip-rule="evenodd" />
                    <path fill-rule="evenodd" stroke="#262626" stroke-width="1.1" d="M275.6 421.1c0-2.1-2-2.7-4.6-1.3-2.6 1.4-4.6 4.3-4.6 6.5v10.2l2.3 1.3 7-3.8V421h0z" clip-rule="evenodd" />
                    <path fill="#806346" fill-rule="evenodd" d="M271.1 415c2.2 0 4 1.6 4 3.7s-1.8 3.8-4 3.8-4-1.7-4-3.8c0-2 1.8-3.7 4-3.7z" clip-rule="evenodd" />
                    <path fill-rule="evenodd" stroke="#262626" stroke-width="1.7" d="M271.1 415c2.2 0 4 1.6 4 3.7s-1.8 3.8-4 3.8-4-1.7-4-3.8c0-2 1.8-3.7 4-3.7z" clip-rule="evenodd" />
                    <path fill="#464646" fill-rule="evenodd" d="M271.4 415h.3c1.9.3 3.3 1.8 3.3 3.7 0 2-1.4 3.5-3.3 3.7a3.9 3.9 0 01-3.4-3.7l.2-1.2-1.2-.1.2-.3v-.2l.2-.3s0-.2.2-.2l.2-.2.2-.2.4-.4c.2 0 .2-.1.3-.2h.2v-.1l.3-.2h.2l.3-.1H271.4z" clip-rule="evenodd" />
                    <path fill-rule="evenodd" stroke="#262626" stroke-linecap="round" stroke-linejoin="round" stroke-width="1.1" d="M271.4 415h.3c1.9.3 3.3 1.8 3.3 3.7 0 2-1.4 3.5-3.3 3.7a3.9 3.9 0 01-3.4-3.7l.2-1.2-1.2-.1.2-.3v-.2 0l.2-.3v0s0-.2.2-.2c0 0 0 0 0 0l.2-.2.2-.2h0l.4-.4h0c.2 0 .2-.1.3-.2h.2v-.1l.3-.2h.2l.3-.1H271.4z" clip-rule="evenodd" />
                    <path fill="#806346" fill-rule="evenodd" d="M269.3 424.2a1 1 0 01-.7 1.4c-.6.2-1.3 0-1.5-.6l-3.2-8.5a1 1 0 01.7-1.4c.6-.2 1.3 0 1.5.6l3.2 8.5z" clip-rule="evenodd" />
                    <path fill-rule="evenodd" stroke="#262626" stroke-width="1.1" d="M269.3 424.2a1 1 0 01-.7 1.4c-.6.2-1.3 0-1.5-.6l-3.2-8.5a1 1 0 01.7-1.4c.6-.2 1.3 0 1.5.6l3.2 8.5z" clip-rule="evenodd" />
                    <path fill="#FFCBA6" fill-rule="evenodd" d="M257 440.7c0 .7-.6 1.3-1.4 1.3-.7 0-1.4-.6-1.4-1.3v-9.3c0-.7.7-1.3 1.4-1.3.8 0 1.4.6 1.4 1.3v9.3z" clip-rule="evenodd" />
                    <path fill-rule="evenodd" stroke="#262626" stroke-width="1.1" d="M257 440.7c0 .7-.6 1.3-1.4 1.3-.7 0-1.4-.6-1.4-1.3v-9.3c0-.7.7-1.3 1.4-1.3.8 0 1.4.6 1.4 1.3v9.3z" clip-rule="evenodd" />
                    <path fill="#FFCBA6" fill-rule="evenodd" d="M253 442.9c0 .7-.6 1.3-1.4 1.3-.8 0-1.4-.6-1.4-1.3v-9.3c0-.7.6-1.3 1.4-1.3.8 0 1.4.6 1.4 1.3v9.3z" clip-rule="evenodd" />
                    <path fill-rule="evenodd" stroke="#262626" stroke-width="1.1" d="M253 442.9c0 .7-.6 1.3-1.4 1.3-.8 0-1.4-.6-1.4-1.3v-9.3c0-.7.6-1.3 1.4-1.3.8 0 1.4.6 1.4 1.3v9.3z" clip-rule="evenodd" />
                    <path fill="#FFCBA6" fill-rule="evenodd" d="M258.8 417.9c-.2.6-.9.9-1.4.7-.7-.2-1-.9-.7-1.5l3.1-8.4c.3-.6 1-.9 1.5-.7.6.2 1 .9.7 1.4l-3.2 8.5z" clip-rule="evenodd" />
                    <path fill-rule="evenodd" stroke="#262626" stroke-width="1.1" d="M258.8 417.9c-.2.6-.9.9-1.4.7-.7-.2-1-.9-.7-1.5l3.1-8.4c.3-.6 1-.9 1.5-.7.6.2 1 .9.7 1.4l-3.2 8.5z" clip-rule="evenodd" />
                    <path fill="#23B2A7" fill-rule="evenodd" d="M258.2 417.9c0-2.1-2.1-2.7-4.7-1.3-2.5 1.4-4.6 4.3-4.6 6.4v10.3l2.3 1.3 7-3.8v-13z" clip-rule="evenodd" />
                    <path fill-rule="evenodd" stroke="#262626" stroke-width="1.1" d="M258.2 417.9c0-2.1-2.1-2.7-4.7-1.3-2.5 1.4-4.6 4.3-4.6 6.4v10.3l2.3 1.3 7-3.8v-13h0z" clip-rule="evenodd" />
                    <path fill="#FFCBA6" fill-rule="evenodd" d="M253.7 411.7c2.2 0 4 1.7 4 3.8 0 2-1.8 3.8-4 3.8s-4-1.7-4-3.8c0-2 1.8-3.8 4-3.8z" clip-rule="evenodd" />
                    <path fill-rule="evenodd" stroke="#262626" stroke-width="1.7" d="M253.7 411.7c2.2 0 4 1.7 4 3.8 0 2-1.8 3.8-4 3.8s-4-1.7-4-3.8c0-2 1.8-3.8 4-3.8z" clip-rule="evenodd" />
                    <path fill="#98760F" fill-rule="evenodd" d="M254 411.7h.3c1.9.3 3.3 2 3.3 3.8 0 1.9-1.4 3.5-3.3 3.7a3.9 3.9 0 01-3.4-3.7l.2-1.3H250l.2-.3v-.2l.2-.3c0-.1 0-.2.2-.2l.2-.3.2-.1.4-.4c.2 0 .2-.1.3-.2l.2-.1.3-.2h.2l.3-.1h.3l.3-.1H254z" clip-rule="evenodd" />
                    <path fill-rule="evenodd" stroke="#262626" stroke-linecap="round" stroke-linejoin="round" stroke-width="1.1" d="M254 411.7h.3c1.9.3 3.3 2 3.3 3.8 0 1.9-1.4 3.5-3.3 3.7a3.9 3.9 0 01-3.4-3.7l.2-1.3H250l.2-.3v-.2 0l.2-.3v0c0-.1 0-.2.2-.2 0 0 0 0 0 0l.2-.3.2-.1h0l.4-.4h0c.2 0 .2-.1.3-.2l.2-.1s0 0 0 0l.3-.2h.2l.3-.1h.3l.3-.1H254z" clip-rule="evenodd" />
                    <path fill="#FFCBA6" fill-rule="evenodd" d="M251.9 421a1 1 0 01-.7 1.4c-.6.2-1.3 0-1.5-.7l-3.2-8.4a1 1 0 01.7-1.5c.6-.1 1.3.1 1.5.7l3.2 8.5z" clip-rule="evenodd" />
                    <path fill-rule="evenodd" stroke="#262626" stroke-width="1.1" d="M251.9 421a1 1 0 01-.7 1.4c-.6.2-1.3 0-1.5-.7l-3.2-8.4a1 1 0 01.7-1.5c.6-.1 1.3.1 1.5.7l3.2 8.5z" clip-rule="evenodd" />
                    <path fill="#fff" fill-rule="evenodd" d="M239.6 413.1L199 435.6v-25.7l40.6-22.5v25.7z" clip-rule="evenodd" />
                    <path fill-rule="evenodd" stroke="#262626" stroke-linecap="round" stroke-linejoin="round" stroke-width="1.1" d="M239.6 413.1L199 435.6v-25.7l40.6-22.5v25.7z" clip-rule="evenodd" />
                    <g id="Group 66">
                        <path fill="#fff" fill-rule="evenodd" d="M204.9 429.1l5.3-12.8 6.2.2 5.8-9.8h5.8l5.8-12.8" clip-rule="evenodd" />
                        <path stroke="#262626" stroke-linecap="round" stroke-linejoin="round" stroke-width="1.1" d="M204.9 429.1l5.3-12.8 6.2.2 5.8-9.8h5.8l5.8-12.8" />
                    </g>
                    <path fill="#515151" fill-rule="evenodd" d="M207.8 409c.3.3.5.7.5 1.4 0 1.8-1.6 4.2-3.5 5.2-1.3.7-2.4.7-3 0l6-6.7z" clip-rule="evenodd" />
                    <path fill-rule="evenodd" stroke="#333" stroke-linecap="round" stroke-linejoin="round" stroke-width="1.1" d="M207.8 409c.3.3.5.7.5 1.4 0 1.8-1.6 4.2-3.5 5.2-1.3.7-2.4.7-3 0l6-6.7z" clip-rule="evenodd" />
                    <path fill="#8B8B8B" fill-rule="evenodd" d="M207.8 409c-.6-.7-1.7-.8-3 0v3.3l3-3.4z" clip-rule="evenodd" />
                    <path fill-rule="evenodd" stroke="#333" stroke-linecap="round" stroke-linejoin="round" stroke-width="1.1" d="M207.8 409c-.6-.7-1.7-.8-3 0v3.3l3-3.4z" clip-rule="evenodd" />
                    <path fill-rule="evenodd" stroke="#333" stroke-linecap="round" stroke-linejoin="round" stroke-width="1.1" d="M201.8 415.6a2 2 0 01-.5-1.4c0-1.9 1.6-4.2 3.5-5.3v3.3l-3 3.4z" clip-rule="evenodd" />
                    <path fill="#515151" fill-rule="evenodd" d="M218.2 449.3c0 .8-.6 1.4-1.4 1.4-.8 0-1.4-.6-1.4-1.4v-9.2c0-.8.6-1.4 1.4-1.4.8 0 1.4.6 1.4 1.4v9.2z" clip-rule="evenodd" />
                    <path fill-rule="evenodd" stroke="#262626" stroke-width="1.1" d="M218.2 449.3c0 .8-.6 1.4-1.4 1.4-.8 0-1.4-.6-1.4-1.4v-9.2c0-.8.6-1.4 1.4-1.4.8 0 1.4.6 1.4 1.4v9.2z" clip-rule="evenodd" />
                    <path fill="#515151" fill-rule="evenodd" d="M222.2 447.1c0 .7-.6 1.3-1.4 1.3-.8 0-1.4-.6-1.4-1.3v-9.3c0-.7.6-1.3 1.4-1.3.8 0 1.4.6 1.4 1.3v9.3z" clip-rule="evenodd" />
                    <path fill-rule="evenodd" stroke="#262626" stroke-width="1.1" d="M222.2 447.1c0 .7-.6 1.3-1.4 1.3-.8 0-1.4-.6-1.4-1.3v-9.3c0-.7.6-1.3 1.4-1.3.8 0 1.4.6 1.4 1.3v9.3z" clip-rule="evenodd" />
                    <path fill="#CC9E70" fill-rule="evenodd" d="M225.6 425.4l3.5-2c.5-.3 1.2 0 1.6.4.3.6 0 1.2-.5 1.6l-4.6 2.5-4.7-2.5a1 1 0 01-.4-1.6c.4-.5 1-.7 1.6-.4l3.5 2z" clip-rule="evenodd" />
                    <path fill-rule="evenodd" stroke="#262626" stroke-width="1.1" d="M225.6 425.4l3.5-2c.5-.3 1.2 0 1.6.4.3.6 0 1.2-.5 1.6l-4.6 2.5-4.7-2.5a1 1 0 01-.4-1.6c.4-.5 1-.7 1.6-.4l3.5 2z" clip-rule="evenodd" />
                    <path fill="#FB6045" fill-rule="evenodd" d="M223.4 424.3c0-2-2.1-2.7-4.7-1.3-2.5 1.4-4.6 4.4-4.6 6.5v10.3l2.3 1.3 7-3.9v-12.9z" clip-rule="evenodd" />
                    <path fill-rule="evenodd" stroke="#262626" stroke-width="1.1" d="M223.4 424.3c0-2-2.1-2.7-4.7-1.3-2.5 1.4-4.6 4.4-4.6 6.5v10.3l2.3 1.3 7-3.9v-12.9h0z" clip-rule="evenodd" />
                    <path fill="#CC9E70" fill-rule="evenodd" d="M215.7 432.1l3.5 2c.6.2.7 1 .4 1.5-.3.5-1 .7-1.6.4l-4.6-2.6v-5.2c0-.6.5-1 1.1-1 .7 0 1.2.4 1.2 1v4z" clip-rule="evenodd" />
                    <path fill-rule="evenodd" stroke="#262626" stroke-width="1.1" d="M215.7 432.1l3.5 2c.6.2.7 1 .4 1.5-.3.5-1 .7-1.6.4l-4.6-2.6v-5.2c0-.6.5-1 1.1-1 .7 0 1.2.4 1.2 1v4h0z" clip-rule="evenodd" />
                    <path fill="#CC9E70" fill-rule="evenodd" d="M218.7 418c2.2 0 4 1.7 4 3.7 0 2.1-1.8 3.8-4 3.8-2.1 0-3.9-1.7-3.9-3.8 0-2 1.8-3.7 4-3.7z" clip-rule="evenodd" />
                    <path fill-rule="evenodd" stroke="#262626" stroke-width="1.1" d="M218.7 418c2.2 0 4 1.7 4 3.7 0 2.1-1.8 3.8-4 3.8-2.1 0-3.9-1.7-3.9-3.8 0-2 1.8-3.7 4-3.7z" clip-rule="evenodd" />
                    <path fill="#262626" fill-rule="evenodd" d="M220.6 421.7c.2-.1.4 0 .6.1.1.2 0 .5-.2.6-.2.2-.5 0-.6-.1-.1-.2 0-.5.2-.6z" clip-rule="evenodd" />
                    <path fill="#262626" fill-rule="evenodd" d="M218.1 423c.2 0 .5 0 .6.2.2.2 0 .5-.1.6-.2.1-.5 0-.6-.2-.2-.2 0-.5.1-.6z" clip-rule="evenodd" />
                    <path fill="#464646" fill-rule="evenodd" d="M217.8 425.4a3.7 3.7 0 01-1.3-3.5h.2c1.6 0 3-.9 3.6-2.2 1.3.6 2.1 1.8 2.2 3.3l.2-1.3c0-2-1.8-3.7-4-3.7-2.1 0-3.9 1.7-3.9 3.7 0 1.8 1.2 3.3 3 3.7z" clip-rule="evenodd" />
                    <path fill-rule="evenodd" stroke="#262626" stroke-linecap="round" stroke-linejoin="round" stroke-width="1.1" d="M217.8 425.4a3.7 3.7 0 01-1.3-3.5h.2c1.6 0 3-.9 3.6-2.2 1.3.6 2.1 1.8 2.2 3.3l.2-1.3c0-2-1.8-3.7-4-3.7-2.1 0-3.9 1.7-3.9 3.7 0 1.8 1.2 3.3 3 3.7z" clip-rule="evenodd" />
                </g>
                <path id="Measure, adapt &amp; institutionalize reforms" fill="#000" d="M99.5 374.4l-2.4-7.8v7.8h-1.8v-10H98l2.4 7.7 2.6-7.7h2.8v10h-2v-4.7a45.1 45.1 0 01.2-3.1l-2.7 7.8h-2zm12-6.3c-.5 0-.8.2-1 .5a2 2 0 00-.5 1.1h3c0-.5-.2-.9-.5-1.1-.2-.3-.6-.5-1-.5zm.3 6.5a4 4 0 01-3-1c-.6-.7-1-1.7-1-3 0-1.2.4-2.2 1-2.9.6-.7 1.5-1 2.7-1 1 0 1.9.3 2.5.9.6.6.9 1.4.9 2.5v1h-5c0 .6.2 1 .6 1.4.3.4.8.5 1.4.5a5.7 5.7 0 002.5-.6v1.6l-1.1.4-1.5.2zm9.6-.2l-.4-1a3 3 0 01-1.1 1l-1.5.2c-.7 0-1.3-.2-1.7-.7-.4-.4-.6-1-.6-1.8s.2-1.4.8-1.7a5 5 0 012.6-.7h1.3v-.4c0-.7-.4-1.1-1.2-1.1-.6 0-1.3.2-2.1.5l-.7-1.4c.9-.4 1.8-.7 2.9-.7 1 0 1.8.3 2.4.7.5.4.8 1.1.8 2v5.1h-1.5zm-.6-3.5h-.8c-.6 0-1 .1-1.3.3-.3.2-.5.6-.5 1 0 .6.3.8 1 .8.5 0 .9-.1 1.2-.4.3-.3.4-.6.4-1v-.7zm9.6 1.3c0 .7-.3 1.3-.9 1.8-.5.4-1.3.6-2.4.6l-1.4-.1-1.1-.4v-1.7a7.2 7.2 0 002.6.6c.7 0 1.1-.2 1.1-.6l-.1-.4a12.5 12.5 0 00-1.5-.8l-1.3-.7a2 2 0 01-.6-.7c-.2-.3-.2-.6-.2-1 0-.7.2-1.2.8-1.6.5-.4 1.2-.6 2.2-.6 1 0 1.8.2 2.7.6l-.6 1.6-1.1-.5-1-.1c-.7 0-1 .2-1 .5 0 .2.1.3.3.5l1.3.6 1.4.7.6.7.2 1zm7 2.2l-.3-1c-.3.4-.6.7-1 .9-.4.2-1 .3-1.4.3-1 0-1.6-.3-2-.8-.5-.4-.7-1.1-.7-2v-5h2v4.5c0 .5.1 1 .3 1.2.2.3.5.4 1 .4.6 0 1-.2 1.2-.6.3-.4.4-1 .4-2v-3.5h2.1v7.6h-1.6zm8-7.8l.8.1-.2 2-.6-.1c-.7 0-1.2.2-1.6.5-.3.3-.5.8-.5 1.4v4h-2.1v-7.7h1.6l.3 1.3c.3-.5.6-.8 1-1 .4-.3.9-.5 1.4-.5zm5.3 1.5c-.4 0-.8.2-1 .5a2 2 0 00-.5 1.1h3c0-.5-.2-.9-.4-1.1-.3-.3-.6-.5-1-.5zm.3 6.5a4 4 0 01-2.9-1c-.7-.7-1-1.7-1-3 0-1.2.3-2.2 1-2.9.6-.7 1.5-1 2.6-1 1 0 2 .3 2.5.9.6.6 1 1.4 1 2.5v1h-5c0 .6.2 1 .5 1.4.4.4.8.5 1.4.5a5.7 5.7 0 002.6-.6v1.6l-1.2.4-1.5.2zm6.9-1.6l-1.2 3.2h-1.5l.7-3.4h1.9v.2zm10.5 1.4l-.4-1a3 3 0 01-1.2 1l-1.4.2c-.8 0-1.3-.2-1.8-.7-.4-.4-.6-1-.6-1.8s.3-1.4.9-1.7a5 5 0 012.5-.7h1.4v-.4c0-.7-.4-1.1-1.2-1.1-.6 0-1.4.2-2.2.5l-.7-1.4c1-.4 1.9-.7 3-.7 1 0 1.8.3 2.3.7.6.4.8 1.1.8 2v5.1h-1.4zm-.6-3.5h-.8c-.7 0-1.1.1-1.4.3-.3.2-.4.6-.4 1 0 .6.3.8 1 .8.5 0 .8-.1 1.1-.4.3-.3.5-.6.5-1v-.7zm6.6 3.7c-.9 0-1.6-.4-2.1-1-.5-.8-.8-1.7-.8-3 0-1.2.3-2.2.8-2.9.5-.7 1.2-1 2.2-1 1 0 1.7.3 2.2 1l-.1-1.5v-2.4h2v10.6h-1.5l-.4-1h-.1c-.5.8-1.2 1.2-2.2 1.2zm.7-1.7c.6 0 1-.1 1.2-.5.3-.3.4-.8.4-1.5v-.3c0-.8-.1-1.4-.4-1.7-.2-.4-.6-.6-1.2-.6-.5 0-.8.2-1 .6-.3.4-.5 1-.5 1.8 0 .7.2 1.3.4 1.6.3.4.7.6 1.1.6zm10.6 1.5l-.4-1a3 3 0 01-1.1 1l-1.5.2c-.7 0-1.3-.2-1.7-.7-.5-.4-.7-1-.7-1.8s.3-1.4.9-1.7a5 5 0 012.6-.7h1.3v-.4c0-.7-.4-1.1-1.2-1.1-.6 0-1.3.2-2.2.5l-.7-1.4c1-.4 1.9-.7 3-.7 1 0 1.8.3 2.3.7.6.4.9 1.1.9 2v5.1h-1.5zm-.6-3.5h-.8c-.6 0-1 .1-1.4.3-.3.2-.4.6-.4 1 0 .6.3.8 1 .8.5 0 .9-.1 1.1-.4.3-.3.5-.6.5-1v-.7zm8.4 3.7c-.9 0-1.6-.4-2.1-1h-.1v4.2h-2v-11h1.7l.3 1c.6-.8 1.3-1.2 2.3-1.2.9 0 1.6.4 2 1 .6.8.8 1.8.8 3 0 .8 0 1.5-.3 2.1a2.6 2.6 0 01-2.6 1.8zm-.6-6.3c-.5 0-.9.2-1.1.5-.3.3-.4.8-.4 1.6v.2c0 .8.1 1.4.4 1.7.2.4.6.6 1.1.6 1 0 1.4-.8 1.4-2.3 0-.8-.1-1.3-.3-1.7-.3-.4-.6-.6-1.1-.6zm8.5 4.6c.3 0 .8 0 1.3-.2v1.5c-.5.3-1.2.4-2 .4s-1.4-.2-1.7-.7c-.4-.4-.6-1-.6-1.9v-3.6h-1v-1l1.1-.6.6-1.6h1.4v1.6h2.1v1.6h-2.1v3.6c0 .3 0 .6.2.7l.7.2zm15.9 1.5h-2.6l-.8-.7a5 5 0 01-3 .9c-1 0-2-.3-2.6-.8-.6-.5-1-1.2-1-2 0-.7.2-1.2.5-1.7a4 4 0 011.4-1.2l-.8-1.1a3 3 0 01-.2-1.2c0-.7.3-1.2.8-1.7.5-.4 1.2-.6 2.1-.6.9 0 1.6.2 2 .6.6.4.8 1 .8 1.6 0 .5-.1 1-.4 1.5-.4.4-.9.8-1.6 1.2l2 2 .8-2.1h2.2a10 10 0 01-1.7 3.3l2 2zm-7.8-2.9c0 .4.2.7.5 1 .3.2.7.3 1.1.3.6 0 1.1-.1 1.6-.4l-2.3-2.3a3 3 0 00-.6.7c-.2.2-.3.4-.3.7zm2.5-4.8c0-.3 0-.4-.2-.6a1 1 0 00-.7-.2c-.3 0-.5 0-.7.2l-.3.6c0 .4.3.9.7 1.4l.9-.7c.2-.2.3-.4.3-.7zM95 383.8c0-.7.4-1 1.1-1 .8 0 1.2.3 1.2 1 0 .3-.1.6-.3.8l-.9.2c-.7 0-1.1-.3-1.1-1zm2.2 9.6H95v-7.6h2v7.6zm9.2 0h-2V389c0-.6-.2-1-.4-1.3-.1-.2-.5-.4-.9-.4-.6 0-1 .2-1.3.6-.2.4-.3 1-.3 2v3.5h-2.1v-7.6h1.6l.2 1h.2c.2-.4.5-.7 1-.9.3-.2.8-.3 1.3-.3.9 0 1.6.3 2 .8.5.4.7 1.1.7 2v5zm7.5-2.2c0 .7-.3 1.3-.8 1.8-.6.4-1.4.6-2.5.6l-1.4-.1-1-.4v-1.7a7.2 7.2 0 002.5.6c.8 0 1.1-.2 1.1-.6l-.1-.4a12.3 12.3 0 00-1.5-.8l-1.3-.7a2 2 0 01-.6-.7l-.2-1c0-.7.3-1.2.8-1.6.5-.4 1.3-.6 2.2-.6 1 0 1.9.2 2.7.6l-.6 1.6-1-.5-1.1-.1c-.6 0-1 .2-1 .5 0 .2.2.3.4.5l1.3.6c.6.2 1 .4 1.3.7.3.2.5.4.6.7l.2 1zm4.9.7c.3 0 .8 0 1.3-.2v1.5c-.6.3-1.2.4-2 .4s-1.4-.2-1.8-.7c-.4-.4-.5-1-.5-1.9v-3.6h-1v-1l1.1-.6.6-1.6h1.3v1.6h2.2v1.6h-2.2v3.6c0 .3.1.6.3.7l.7.2zm2.7-8c0-.8.4-1.1 1.2-1.1.7 0 1.1.3 1.1 1 0 .3-.1.6-.3.8l-.8.2c-.8 0-1.2-.3-1.2-1zm2.2 9.5h-2v-7.6h2v7.6zm5.4-1.5c.4 0 .8 0 1.3-.2v1.5c-.5.3-1.1.4-1.9.4-.8 0-1.4-.2-1.8-.7-.4-.4-.6-1-.6-1.9v-3.6h-1v-1l1.2-.6.6-1.6h1.3v1.6h2.1v1.6h-2v3.6c0 .3 0 .6.2.7l.6.2zm8.3 1.5l-.3-1c-.3.4-.6.7-1 .9l-1.4.3c-1 0-1.6-.3-2-.8-.5-.4-.8-1.1-.8-2v-5h2.1v4.5c0 .5.1 1 .3 1.2.2.3.5.4 1 .4s1-.2 1.2-.6c.3-.4.4-1 .4-2v-3.5h2v7.6h-1.5zm7-1.5c.4 0 .8 0 1.3-.2v1.5c-.5.3-1.1.4-1.9.4-.8 0-1.4-.2-1.8-.7-.4-.4-.6-1-.6-1.9v-3.6h-1v-1l1.2-.6.6-1.6h1.3v1.6h2.1v1.6h-2.1v3.6c0 .3 0 .6.2.7l.7.2zm2.8-8c0-.8.4-1.1 1.1-1.1.8 0 1.1.3 1.1 1 0 .3 0 .6-.2.8l-.9.2c-.7 0-1.1-.3-1.1-1zm2.2 9.5h-2.1v-7.6h2v7.6zm3.8-3.8c0 .8.1 1.3.4 1.7.2.4.6.6 1.2.6.5 0 1-.2 1.2-.6.2-.4.4-1 .4-1.7 0-.8-.2-1.3-.4-1.7-.3-.4-.7-.6-1.2-.6-.6 0-1 .2-1.2.6-.3.4-.4 1-.4 1.7zm5.3 0c0 1.2-.3 2.2-1 3-.7.6-1.6 1-2.7 1-.8 0-1.4-.2-2-.5-.5-.3-1-.8-1.3-1.4-.3-.6-.4-1.3-.4-2.1a4 4 0 011-3c.6-.6 1.5-1 2.7-1 .7 0 1.4.2 2 .5.5.3 1 .8 1.2 1.4.3.6.5 1.3.5 2.1zm8.8 3.8h-2.1V389c0-.6-.1-1-.3-1.3-.2-.2-.5-.4-1-.4s-1 .2-1.2.6c-.3.4-.4 1-.4 2v3.5h-2v-7.6h1.5l.3 1h.1c.2-.4.6-.7 1-.9.4-.2.8-.3 1.4-.3.8 0 1.5.3 2 .8.4.4.7 1.1.7 2v5zm7 0l-.4-1-1.2 1-1.4.2c-.8 0-1.3-.2-1.8-.7-.4-.4-.6-1-.6-1.8s.3-1.4.9-1.7a5 5 0 012.5-.7h1.4v-.4c0-.7-.4-1.1-1.2-1.1-.6 0-1.4.2-2.2.5l-.7-1.4c.9-.4 1.9-.7 3-.7 1 0 1.8.3 2.3.7.5.4.8 1.1.8 2v5.1h-1.4zm-.6-3.5h-.9c-.6 0-1 .1-1.3.3-.3.2-.5.6-.5 1 0 .6.4.8 1 .8.5 0 1-.1 1.2-.4.3-.3.5-.6.5-1v-.7zm6.3 3.5h-2.1v-10.6h2v10.6zm2-9.6c0-.7.4-1 1.2-1 .8 0 1.1.3 1.1 1 0 .3 0 .6-.3.8l-.8.2c-.8 0-1.1-.3-1.1-1zm2.2 9.6h-2v-7.6h2v7.6zm7.6 0h-6v-1.2l3.5-4.8h-3.4v-1.6h5.7v1.3l-3.4 4.7h3.6v1.6zm4.6-6.3c-.4 0-.8.2-1 .5a2 2 0 00-.4 1.1h2.9c0-.5-.2-.9-.4-1.1-.3-.3-.6-.5-1-.5zm.3 6.5a4 4 0 01-2.9-1c-.6-.7-1-1.7-1-3 0-1.2.3-2.2 1-2.9.6-.7 1.5-1 2.6-1s2 .3 2.5.9c.6.6 1 1.4 1 2.5v1h-5c0 .6.2 1 .5 1.4.4.4.8.5 1.4.5a5.7 5.7 0 002.6-.6v1.6l-1.2.4-1.5.2zm-97.3 11l.7.1-.2 2-.6-.1c-.7 0-1.2.2-1.6.5-.3.3-.5.8-.5 1.4v4H95v-7.7h1.6l.3 1.3c.3-.5.6-.8 1-1 .4-.3.9-.5 1.4-.5zm5.2 1.5c-.4 0-.8.2-1 .5a2 2 0 00-.5 1.1h3c0-.5-.2-.9-.4-1.1-.3-.3-.6-.5-1-.5zm.3 6.5a4 4 0 01-2.9-1c-.7-.7-1-1.7-1-3 0-1.2.3-2.2 1-2.9.6-.7 1.5-1 2.6-1 1 0 2 .3 2.5.9.6.6 1 1.4 1 2.5v1h-5c0 .6.2 1 .5 1.4.4.4.8.5 1.4.5a5.7 5.7 0 002.6-.6v1.6l-1.2.4-1.5.2zm9-6.2h-1.8v6h-2v-6h-1.2v-1l1.2-.6v-.6c0-.8.2-1.5.6-1.9.4-.4 1.1-.6 2-.6.8 0 1.4.1 2 .3l-.6 1.6c-.4-.2-.8-.2-1.1-.2-.3 0-.5 0-.7.2a1 1 0 00-.2.7v.5h1.8v1.6zm3 2.2c0 .8 0 1.3.3 1.7.2.4.6.6 1.2.6s1-.2 1.2-.6c.2-.4.4-1 .4-1.7 0-.8-.2-1.3-.4-1.7-.3-.4-.7-.6-1.2-.6-.6 0-1 .2-1.2.6-.3.4-.4 1-.4 1.7zm5.2 0c0 1.2-.3 2.2-1 3-.6.6-1.6 1-2.7 1-.8 0-1.4-.2-2-.5-.5-.3-1-.8-1.3-1.4-.3-.6-.4-1.3-.4-2.1a4 4 0 011-3c.6-.6 1.5-1 2.7-1 .7 0 1.4.2 2 .5.5.3 1 .8 1.2 1.4.3.6.5 1.3.5 2.1zm6-4l.7.1-.2 2-.6-.1c-.7 0-1.2.2-1.5.5-.4.3-.6.8-.6 1.4v4h-2v-7.7h1.5l.3 1.3h.1c.2-.5.6-.8 1-1 .4-.3.8-.5 1.3-.5zm9 7.8h-2.2V408c0-.6 0-1-.2-1.3-.2-.2-.5-.4-1-.4-.4 0-.8.2-1 .6-.3.4-.4 1-.4 2v3.5h-2.1v-7.6h1.6l.2 1h.2c.2-.4.5-.7.9-.9.3-.2.8-.3 1.3-.3 1.1 0 2 .4 2.3 1.2h.2c.2-.4.5-.7.9-.9a3 3 0 011.4-.3c.8 0 1.5.3 2 .7.4.5.6 1.2.6 2.1v5h-2.1V408c0-.6-.1-1-.3-1.3-.2-.2-.5-.4-.9-.4-.5 0-.8.2-1.1.6-.3.3-.4.9-.4 1.7v3.8zm12.2-2.2c0 .7-.3 1.3-.9 1.8-.5.4-1.3.6-2.4.6l-1.4-.1-1.1-.4v-1.7a7.2 7.2 0 002.6.6c.7 0 1.1-.2 1.1-.6l-.1-.4a12.5 12.5 0 00-1.5-.8l-1.3-.7a2 2 0 01-.7-.7l-.1-1c0-.7.2-1.2.8-1.6.5-.4 1.2-.6 2.2-.6 1 0 1.8.2 2.7.6l-.6 1.6-1.1-.5-1-.1c-.7 0-1 .2-1 .5 0 .2.1.3.3.5l1.3.6c.6.2 1 .4 1.3.7l.7.7.2 1z" />
            </g>
            <g data-section="engagement">
                <path class="background" fill="transparent" d="M362 217.8a121.4 121.4 0 01-68.2 136.6L345.5 465a243.3 243.3 0 00135.3-275.1L362 217.8z" />
                <path class="arrow" id="arrow_3" fill="#fff" d="M417.7 170.7L440 138l4 8.4-22.3 32.7-41.1-2.3-4-8.4 41 2.3z" />
                <g id="icon_3">
                    <path fill="#515151" fill-rule="evenodd" d="M404.2 300.5c0 .7.5 1.3 1.2 1.3.6 0 1.1-.6 1.1-1.3V292c0-.8-.5-1.3-1.1-1.3-.7 0-1.2.5-1.2 1.3v8.6z" clip-rule="evenodd" />
                    <path fill-rule="evenodd" stroke="#262626" stroke-width="1.1" d="M404.2 300.5c0 .7.5 1.3 1.2 1.3.6 0 1.1-.6 1.1-1.3V292c0-.8-.5-1.3-1.1-1.3-.7 0-1.2.5-1.2 1.3v8.6z" clip-rule="evenodd" />
                    <path fill="#515151" fill-rule="evenodd" d="M400.7 298.3c0 .7.5 1.3 1.2 1.3.6 0 1.1-.6 1.1-1.3v-8.7c0-.7-.5-1.2-1.1-1.2-.7 0-1.2.5-1.2 1.2v8.7z" clip-rule="evenodd" />
                    <path fill-rule="evenodd" stroke="#262626" stroke-width="1.1" d="M400.7 298.3c0 .7.5 1.3 1.2 1.3.6 0 1.1-.6 1.1-1.3v-8.7c0-.7-.5-1.2-1.1-1.2-.7 0-1.2.5-1.2 1.2v8.7z" clip-rule="evenodd" />
                    <path fill="#FFCBA6" fill-rule="evenodd" d="M396.6 277l-3.5-2c-.6-.2-1.3 0-1.6.4-.3.6-.1 1.2.4 1.5l4.7 2.5 4.7-2.5c.6-.3.7-1 .4-1.5-.3-.5-1-.6-1.6-.3l-3.5 1.8z" clip-rule="evenodd" />
                    <path fill-rule="evenodd" stroke="#262626" stroke-width="1.1" d="M396.6 277l-3.5-2c-.6-.2-1.3 0-1.6.4-.3.6-.1 1.2.4 1.5l4.7 2.5 4.7-2.5c.6-.3.7-1 .4-1.5-.3-.5-1-.6-1.6-.3l-3.5 1.8z" clip-rule="evenodd" />
                    <path fill="#6C75E1" fill-rule="evenodd" d="M390.2 276l1.7-3.3 1.8 1.1-1.8 3.4-1.7-1.2z" clip-rule="evenodd" />
                    <path fill-rule="evenodd" stroke="#262626" stroke-linecap="round" stroke-linejoin="round" stroke-width="1.1" d="M390.2 276l1.7-3.3 1.8 1.1-1.8 3.4-1.7-1.2z" clip-rule="evenodd" />
                    <path stroke="#262626" stroke-linecap="round" stroke-linejoin="round" stroke-width="1.1" d="M393.7 271.6a2 2 0 00-1.8-1.2 2 2 0 00-1.7 1.2" />
                    <path stroke="#262626" stroke-linecap="round" stroke-linejoin="round" stroke-width="1.1" d="M391.3 271.9l.6-.3c.2 0 .4 0 .5.3" />
                    <path stroke="#262626" stroke-linecap="round" stroke-linejoin="round" stroke-width="1.1" d="M393.7 271.3c-.3-.5-.7-.9-1.2-.9s-1 .4-1.2.9" />
                    <path fill="#FB6045" fill-rule="evenodd" d="M399.6 275.8c0-2 2-2.6 4.6-1.3 2.6 1.4 4.7 4.1 4.7 6.2v9.8l-2.4 1.2-7-3.7v-12.2z" clip-rule="evenodd" />
                    <path fill-rule="evenodd" stroke="#262626" stroke-width="1.1" d="M399.6 275.8c0-2 2-2.6 4.6-1.3 2.6 1.4 4.7 4.1 4.7 6.2v9.8l-2.4 1.2-7-3.7v-12.2h0z" clip-rule="evenodd" />
                    <path fill="#FFCBA6" fill-rule="evenodd" d="M406.5 288.4c0 .6.6 1 1.2 1 .7 0 1.2-.4 1.2-1v-9c0-.7-.6-1.1-1.2-1.1-.7 0-1.2.5-1.2 1v9z" clip-rule="evenodd" />
                    <path fill-rule="evenodd" stroke="#262626" stroke-width="1.1" d="M406.5 288.4c0 .6.6 1 1.2 1 .7 0 1.2-.4 1.2-1v-9c0-.7-.6-1.1-1.2-1.1-.7 0-1.2.5-1.2 1v9z" clip-rule="evenodd" />
                    <path fill="#FFCBA6" fill-rule="evenodd" d="M403.6 270.4a4 4 0 014.1 4 4 4 0 01-4 3.9 4 4 0 01-4.2-4 4 4 0 014.1-3.9z" clip-rule="evenodd" />
                    <path fill-rule="evenodd" stroke="#262626" stroke-width="1.7" d="M403.6 270.4a4 4 0 014.1 4 4 4 0 01-4 3.9 4 4 0 01-4.2-4 4 4 0 014.1-3.9z" clip-rule="evenodd" />
                    <path fill-rule="evenodd" stroke="#262626" stroke-width=".9" d="M400.7 274.2c.1-.3.5-.5.8-.4.3.1.4.5.3.7 0 .3-.4.5-.7.4a.6.6 0 01-.4-.7z" clip-rule="evenodd" />
                    <path stroke="#262626" stroke-width=".9" d="M403 275c.1-.5 0-1-.4-1.2-.3-.1-.6 0-.7.5" />
                    <path fill-rule="evenodd" stroke="#262626" stroke-width=".9" d="M403 275.3c.2-.3.5-.5.8-.4.3.2.5.5.4.8-.1.3-.5.4-.8.3a.6.6 0 01-.3-.7z" clip-rule="evenodd" />
                    <path fill="#A2A2A2" fill-rule="evenodd" d="M404.6 278.3a3.9 3.9 0 001.3-3.7h-.2a4 4 0 01-3.7-2.4 4 4 0 00-2.3 3.5l-.2-1.3a4 4 0 014.1-4 4 4 0 011 7.8z" clip-rule="evenodd" />
                    <path fill-rule="evenodd" stroke="#262626" stroke-linecap="round" stroke-linejoin="round" stroke-width="1.1" d="M404.6 278.3a3.9 3.9 0 001.3-3.7h-.2a4 4 0 01-3.7-2.4 4 4 0 00-2.3 3.5l-.2-1.3a4 4 0 014.1-4 4 4 0 011 7.8z" clip-rule="evenodd" />
                    <path fill="#CC9E70" fill-rule="evenodd" d="M383.2 307.3c0 .7.5 1.2 1.1 1.2.7 0 1.2-.5 1.2-1.2v-8.7c0-.7-.5-1.3-1.2-1.3-.6 0-1.1.6-1.1 1.3v8.7z" clip-rule="evenodd" />
                    <path fill-rule="evenodd" stroke="#262626" stroke-width="1.1" d="M383.2 307.3c0 .7.5 1.2 1.1 1.2.7 0 1.2-.5 1.2-1.2v-8.7c0-.7-.5-1.3-1.2-1.3-.6 0-1.1.6-1.1 1.3v8.7z" clip-rule="evenodd" />
                    <path fill="#CC9E70" fill-rule="evenodd" d="M387.8 309.5c0 .7.6 1.3 1.2 1.3.7 0 1.2-.6 1.2-1.3v-8.7c0-.7-.5-1.2-1.2-1.2-.6 0-1.2.5-1.2 1.2v8.7z" clip-rule="evenodd" />
                    <path fill-rule="evenodd" stroke="#262626" stroke-width="1.1" d="M387.8 309.5c0 .7.6 1.3 1.2 1.3.7 0 1.2-.6 1.2-1.3v-8.7c0-.7-.5-1.2-1.2-1.2-.6 0-1.2.5-1.2 1.2v8.7z" clip-rule="evenodd" />
                    <path fill="#CC9E70" fill-rule="evenodd" d="M382 294c0 .6.5 1 1.2 1 .6 0 1.1-.4 1.1-1v-9c0-.7-.5-1.1-1.1-1.1-.7 0-1.2.5-1.2 1v9z" clip-rule="evenodd" />
                    <path fill-rule="evenodd" stroke="#262626" stroke-width="1.7" d="M382 294c0 .6.5 1 1.2 1 .6 0 1.1-.4 1.1-1v-9c0-.7-.5-1.1-1.1-1.1-.7 0-1.2.5-1.2 1v9z" clip-rule="evenodd" />
                    <path fill="#23B2A7" fill-rule="evenodd" d="M382 285.8c0-2 2.1-2.5 4.7-1.2 2.5 1.4 4.6 4.1 4.6 6.2v9.8l-2.3 1.2-7-3.7v-12.3z" clip-rule="evenodd" />
                    <path fill-rule="evenodd" stroke="#262626" stroke-width="1.1" d="M382 285.8c0-2 2.1-2.5 4.7-1.2 2.5 1.4 4.6 4.1 4.6 6.2v9.8l-2.3 1.2-7-3.7v-12.3h0z" clip-rule="evenodd" />
                    <path fill="#CC9E70" fill-rule="evenodd" d="M387.3 279.4a4 4 0 014 4 4 4 0 01-4 3.8 4 4 0 01-4.1-3.9 4 4 0 014-4z" clip-rule="evenodd" />
                    <path fill-rule="evenodd" stroke="#262626" stroke-width="1.1" d="M387.3 279.4a4 4 0 014 4 4 4 0 01-4 3.8 4 4 0 01-4.1-3.9 4 4 0 014-4z" clip-rule="evenodd" />
                    <path fill="#92613C" fill-rule="evenodd" d="M386.4 279.4h-.2c-1.7.4-3 2-3 4s1.3 3.6 3 3.8c1.7-.2 3-1.9 3-3.8l-.1-1.4h1v-.3l-.1-.3-.2-.2-.1-.3-.2-.2-.2-.2-.4-.4c-.1 0-.2 0-.2-.2l-.2-.1-.3-.2h-.2l-.2-.1h-.3l-.3-.1h-.8z" clip-rule="evenodd" />
                    <path fill-rule="evenodd" stroke="#262626" stroke-linecap="round" stroke-linejoin="round" stroke-width="1.1" d="M386.4 279.4h-.2c-1.7.4-3 2-3 4s1.3 3.6 3 3.8c1.7-.2 3-1.9 3-3.8l-.1-1.4h1v-.3 0l-.1-.3v0l-.2-.2v0l-.1-.3s0 0 0 0l-.2-.2-.2-.2h0l-.4-.4h0c-.1 0-.2 0-.2-.2l-.2-.1s0 0 0 0l-.3-.2h-.2 0l-.2-.1h0-.3 0l-.3-.1h0-.8z" clip-rule="evenodd" />
                    <path fill="#FFDC00" fill-rule="evenodd" d="M391.1 281.3l.2-1a4 4 0 00-.9-.2 4.6 4.6 0 00-3.7-1.8 4.8 4.8 0 00-4.4 6.5 4 4 0 00-.2 1l1 .2 1.3.1a7 7 0 006.7-4.8z" clip-rule="evenodd" />
                    <path fill-rule="evenodd" stroke="#262626" stroke-linecap="round" stroke-linejoin="round" stroke-width="1.1" d="M391.1 281.3l.2-1a4 4 0 00-.9-.2 4.6 4.6 0 00-3.7-1.8 4.8 4.8 0 00-4.4 6.5 4 4 0 00-.2 1l1 .2 1.3.1a7 7 0 006.7-4.8z" clip-rule="evenodd" />
                    <path fill="#CC9E70" fill-rule="evenodd" d="M393.1 290.4l3.5-1.9c.6-.3 1.3-.1 1.6.4.3.5.1 1.2-.4 1.5l-4.7 2.4-4.7-2.4a1 1 0 01-.4-1.5c.3-.5 1-.7 1.6-.4l3.5 1.9z" clip-rule="evenodd" />
                    <path fill-rule="evenodd" stroke="#262626" stroke-width="1.1" d="M393.1 290.4l3.5-1.9c.6-.3 1.3-.1 1.6.4.3.5.1 1.2-.4 1.5l-4.7 2.4-4.7-2.4a1 1 0 01-.4-1.5c.3-.5 1-.7 1.6-.4l3.5 1.9z" clip-rule="evenodd" />
                    <path fill="#fff" fill-rule="evenodd" d="M424 309.8l-9.6 5.4-16-9 9.6-5.5 16 9.1z" clip-rule="evenodd" />
                    <path fill-rule="evenodd" stroke="#333" stroke-linecap="round" stroke-linejoin="round" stroke-width="1.1" d="M424 309.8l-9.6 5.4-16-9 9.6-5.5 16 9.1z" clip-rule="evenodd" />
                    <path fill="#fff" fill-rule="evenodd" d="M424 308.7l-9.6 5.4-16-9 9.6-5.5 16 9z" clip-rule="evenodd" />
                    <path fill-rule="evenodd" stroke="#333" stroke-linecap="round" stroke-linejoin="round" stroke-width="1.1" d="M424 308.7l-9.6 5.4-16-9 9.6-5.5 16 9z" clip-rule="evenodd" />
                    <path fill="#fff" fill-rule="evenodd" d="M424 307.5l-9.6 5.5-16-9.1 9.6-5.5 16 9.1z" clip-rule="evenodd" />
                    <path fill-rule="evenodd" stroke="#333" stroke-linecap="round" stroke-linejoin="round" stroke-width="1.1" d="M424 307.5l-9.6 5.5-16-9.1 9.6-5.5 16 9.1z" clip-rule="evenodd" />
                    <path fill="#fff" fill-rule="evenodd" d="M424 306.5l-9.6 5.4-16-9.1 9.6-5.5 16 9.2z" clip-rule="evenodd" />
                    <path fill-rule="evenodd" stroke="#333" stroke-linecap="round" stroke-linejoin="round" stroke-width="1.1" d="M424 306.5l-9.6 5.4-16-9.1 9.6-5.5 16 9.2z" clip-rule="evenodd" />
                    <path fill="#FB6045" fill-rule="evenodd" d="M410 300.7l-1.6.2-.3.9-3.9-2.3 2-1 3.8 2.2z" clip-rule="evenodd" />
                    <path fill-rule="evenodd" stroke="#333" stroke-linecap="round" stroke-linejoin="round" stroke-width="1.1" d="M410 300.7l-1.6.2-.3.9-3.9-2.3 2-1 3.8 2.2z" clip-rule="evenodd" />
                    <path stroke="#333" stroke-linecap="round" stroke-linejoin="round" stroke-width="1.7" d="M414.7 309.6l5.9-3.3" />
                    <path stroke="#333" stroke-linecap="round" stroke-linejoin="round" stroke-width="1.1" d="M413.6 309.6l5.8-3.3" />
                    <path stroke="#333" stroke-linecap="round" stroke-linejoin="round" stroke-width="1.1" d="M412.4 308.5l5.8-3.3" />
                    <path stroke="#333" stroke-linecap="round" stroke-linejoin="round" stroke-width="1.1" d="M411.2 308.5l5.9-3.3" />
                    <path stroke="#333" stroke-linecap="round" stroke-linejoin="round" stroke-width="1.1" d="M410 307.4l5.9-3.4" />
                    <path stroke="#333" stroke-linecap="round" stroke-linejoin="round" stroke-width="1.1" d="M408.9 307.4l5.8-3.4" />
                    <path fill="#806346" fill-rule="evenodd" d="M422.8 266.7c0 .9-.7 1.6-1.7 1.6-.9 0-1.7-.7-1.7-1.6v-11.3c0-1 .8-1.6 1.7-1.6 1 0 1.7.7 1.7 1.6v11.3z" clip-rule="evenodd" />
                    <path fill-rule="evenodd" stroke="#262626" stroke-width="1.7" d="M422.8 266.7c0 .9-.7 1.6-1.7 1.6-.9 0-1.7-.7-1.7-1.6v-11.3c0-1 .8-1.6 1.7-1.6 1 0 1.7.7 1.7 1.6v11.3z" clip-rule="evenodd" />
                    <path fill="#806346" fill-rule="evenodd" d="M427.8 264c0 .9-.8 1.6-1.7 1.6-1 0-1.7-.7-1.7-1.6v-11.3c0-1 .7-1.7 1.7-1.7s1.7.8 1.7 1.7V264z" clip-rule="evenodd" />
                    <path fill-rule="evenodd" stroke="#262626" stroke-width="1.7" d="M427.8 264c0 .9-.8 1.6-1.7 1.6-1 0-1.7-.7-1.7-1.6v-11.3c0-1 .7-1.7 1.7-1.7s1.7.8 1.7 1.7V264z" clip-rule="evenodd" />
                    <path fill="#806346" fill-rule="evenodd" d="M431.9 237.4l4.2-2.3c.7-.4 1.6-.2 2 .5.4.6.1 1.5-.5 1.8l-5.7 3.2-5.7-3.2c-.7-.3-.9-1.2-.5-1.8.4-.7 1.3-.9 2-.5l4.2 2.3z" clip-rule="evenodd" />
                    <path fill-rule="evenodd" stroke="#262626" stroke-width="1.7" d="M431.9 237.4l4.2-2.3c.7-.4 1.6-.2 2 .5.4.6.1 1.5-.5 1.8l-5.7 3.2-5.7-3.2c-.7-.3-.9-1.2-.5-1.8.4-.7 1.3-.9 2-.5l4.2 2.3z" clip-rule="evenodd" />
                    <path fill="#BDC733" fill-rule="evenodd" d="M429.2 236.2c0-2.6-2.6-3.3-5.7-1.6-3 1.7-5.6 5.3-5.6 7.9V255l2.8 1.6 8.5-4.7v-15.7z" clip-rule="evenodd" />
                    <path fill-rule="evenodd" stroke="#262626" stroke-width="1.1" d="M429.2 236.2c0-2.6-2.6-3.3-5.7-1.6-3 1.7-5.6 5.3-5.6 7.9V255l2.8 1.6 8.5-4.7v-15.7h0z" clip-rule="evenodd" />
                    <path fill="#806346" fill-rule="evenodd" d="M419.8 245.7l4.3 2.3c.7.4.9 1.2.5 1.9s-1.3.8-2 .5l-5.6-3.2V241c0-.8.6-1.4 1.4-1.4.8 0 1.4.7 1.4 1.4v4.7z" clip-rule="evenodd" />
                    <path fill-rule="evenodd" stroke="#262626" stroke-width="1.1" d="M419.8 245.7l4.3 2.3c.7.4.9 1.2.5 1.9s-1.3.8-2 .5l-5.6-3.2V241c0-.8.6-1.4 1.4-1.4.8 0 1.4.7 1.4 1.4v4.7h0z" clip-rule="evenodd" />
                    <path fill="#806346" fill-rule="evenodd" d="M423.5 228.5c2.7 0 4.8 2 4.8 4.6 0 2.5-2.1 4.6-4.8 4.6-2.6 0-4.8-2-4.8-4.6 0-2.6 2.2-4.6 4.8-4.6z" clip-rule="evenodd" />
                    <path fill-rule="evenodd" stroke="#262626" stroke-width="1.1" d="M423.5 228.5c2.7 0 4.8 2 4.8 4.6 0 2.5-2.1 4.6-4.8 4.6-2.6 0-4.8-2-4.8-4.6 0-2.6 2.2-4.6 4.8-4.6z" clip-rule="evenodd" />
                    <path fill="#262626" fill-rule="evenodd" d="M425.8 233c.2-.1.6 0 .7.2.2.3 0 .6-.2.7-.2.2-.6 0-.7-.2-.2-.2 0-.5.2-.7z" clip-rule="evenodd" />
                    <path fill="#262626" fill-rule="evenodd" d="M422.9 234.6c.2-.1.6 0 .7.2.2.3 0 .6-.2.7-.2.2-.6 0-.7-.2-.2-.2 0-.5.2-.7z" clip-rule="evenodd" />
                    <path fill="#262626" fill-rule="evenodd" d="M422.3 237.5c-1-.8-1.6-2-1.6-3.4l.1-.8h.2c2 0 3.7-1.2 4.4-2.8 1.6.8 2.6 2.2 2.7 4l.2-1.5c0-2.5-2.1-4.6-4.8-4.6-2.6 0-4.8 2-4.8 4.6 0 2.2 1.5 4 3.6 4.5z" clip-rule="evenodd" />
                    <path fill-rule="evenodd" stroke="#262626" stroke-linecap="round" stroke-linejoin="round" stroke-width="1.1" d="M422.3 237.5c-1-.8-1.6-2-1.6-3.4l.1-.8h.2c2 0 3.7-1.2 4.4-2.8 1.6.8 2.6 2.2 2.7 4l.2-1.5c0-2.5-2.1-4.6-4.8-4.6-2.6 0-4.8 2-4.8 4.6 0 2.2 1.5 4 3.6 4.5z" clip-rule="evenodd" />
                    <path fill="#fff" fill-rule="evenodd" d="M438.3 272.8l28.3-15.7-21.2-11.8L417 261l21.2 11.8z" clip-rule="evenodd" />
                    <path fill-rule="evenodd" stroke="#262626" stroke-linecap="round" stroke-linejoin="round" stroke-width="1.1" d="M438.3 272.8l28.3-15.7-21.2-11.8L417 261l21.2 11.8z" clip-rule="evenodd" />
                    <path fill="#DAD933" fill-rule="evenodd" d="M443.3 264.7l1.7-11.3-6.4 1.2-5 9.6 9.7.5z" clip-rule="evenodd" />
                    <path fill="#DAD933" fill-rule="evenodd" d="M452 259.8l-20.4 1 2.5-3.7 17.2-2.6.7 5.3z" clip-rule="evenodd" />
                    <path fill="#C1C42E" fill-rule="evenodd" d="M445 253.4l-6.4 1.2-1 2 7-1.1.4-2z" clip-rule="evenodd" />
                    <path fill="#AFAF2F" fill-rule="evenodd" d="M435.5 260.6l8.5-.4.7-4.7-7.1 1-2.1 4.1z" clip-rule="evenodd" />
                    <path fill="#C1C42E" fill-rule="evenodd" d="M434 257.1l3.6-.5 6.5 3.6-12.5.6 2.5-3.7z" clip-rule="evenodd" />
                    <path fill="#919431" fill-rule="evenodd" d="M437.6 256.6l-2.1 4 8.5-.4-6.4-3.6z" clip-rule="evenodd" />
                    <path fill="#515151" fill-rule="evenodd" d="M458.8 281.1c0 1-.7 1.6-1.7 1.6s-1.7-.7-1.7-1.6v-11.3c0-1 .8-1.6 1.7-1.6 1 0 1.7.7 1.7 1.6v11.3z" clip-rule="evenodd" />
                    <path fill-rule="evenodd" stroke="#262626" stroke-width="1.1" d="M458.8 281.1c0 1-.7 1.6-1.7 1.6s-1.7-.7-1.7-1.6v-11.3c0-1 .8-1.6 1.7-1.6 1 0 1.7.7 1.7 1.6v11.3z" clip-rule="evenodd" />
                    <path fill="#515151" fill-rule="evenodd" d="M453.9 283.8c0 1-.8 1.7-1.7 1.7-1 0-1.7-.8-1.7-1.7v-11.3c0-.9.7-1.6 1.7-1.6s1.7.7 1.7 1.6v11.3z" clip-rule="evenodd" />
                    <path fill-rule="evenodd" stroke="#262626" stroke-width="1.1" d="M453.9 283.8c0 1-.8 1.7-1.7 1.7-1 0-1.7-.8-1.7-1.7v-11.3c0-.9.7-1.6 1.7-1.6s1.7.7 1.7 1.6v11.3z" clip-rule="evenodd" />
                    <path fill="#FFCBA6" fill-rule="evenodd" d="M452.7 261.7c-.4.7-.1 1.5.5 1.9.7.4 1.6.1 2-.5l5.7-9.5c.4-.7.1-1.5-.5-1.9-.7-.4-1.5-.1-2 .5l-5.7 9.5z" clip-rule="evenodd" />
                    <path fill-rule="evenodd" stroke="#262626" stroke-width="1.7" d="M452.7 261.7c-.4.7-.1 1.5.5 1.9.7.4 1.6.1 2-.5l5.7-9.5c.4-.7.1-1.5-.5-1.9-.7-.4-1.5-.1-2 .5l-5.7 9.5z" clip-rule="evenodd" />
                    <path fill="#6C75E1" fill-rule="evenodd" d="M460.3 253.3c0-2.6-2.6-3.3-5.7-1.6-3 1.8-5.6 5.3-5.6 7.9v12.5l2.8 1.6 8.5-4.7v-15.7z" clip-rule="evenodd" />
                    <path fill-rule="evenodd" stroke="#262626" stroke-width="1.1" d="M460.3 253.3c0-2.6-2.6-3.3-5.7-1.6-3 1.8-5.6 5.3-5.6 7.9v12.5l2.8 1.6 8.5-4.7v-15.7h0z" clip-rule="evenodd" />
                    <path fill="#FFCBA6" fill-rule="evenodd" d="M454.8 245.8c2.6 0 4.8 2 4.8 4.6 0 2.5-2.2 4.6-4.8 4.6-2.7 0-4.8-2-4.8-4.6 0-2.5 2.1-4.6 4.8-4.6z" clip-rule="evenodd" />
                    <path fill-rule="evenodd" stroke="#262626" stroke-width="1.1" d="M454.8 245.8c2.6 0 4.8 2 4.8 4.6 0 2.5-2.2 4.6-4.8 4.6-2.7 0-4.8-2-4.8-4.6 0-2.5 2.1-4.6 4.8-4.6z" clip-rule="evenodd" />
                    <path fill="#98760F" fill-rule="evenodd" d="M455.2 245.8h.3c2.3.4 4 2.3 4 4.6s-1.7 4.2-4 4.6a4.7 4.7 0 01-4.1-4.6c0-.5 0-1 .2-1.5l-1.4-.1.1-.3.2-.3.1-.3c0-.2.1-.3.2-.3l.3-.3.2-.2.6-.5.3-.2.2-.2.4-.1.3-.1.3-.1h.4l.4-.1h1z" clip-rule="evenodd" />
                    <path fill-rule="evenodd" stroke="#262626" stroke-linecap="round" stroke-linejoin="round" stroke-width="1.1" d="M455.2 245.8h.3c2.3.4 4 2.3 4 4.6s-1.7 4.2-4 4.6a4.7 4.7 0 01-4.1-4.6c0-.5 0-1 .2-1.5l-1.4-.1.1-.3v0l.2-.3v0l.1-.3v0c0-.2.1-.3.2-.3 0 0 0 0 0 0l.3-.3.2-.2h0l.6-.5h0l.3-.2.2-.2s0 0 0 0l.4-.1h0l.3-.1h0l.3-.1h.4l.4-.1h1z" clip-rule="evenodd" />
                    <path fill="#FFCBA6" fill-rule="evenodd" d="M444.2 266.4c-.4.7-.1 1.5.5 1.9.7.4 1.6.1 2-.5l5.7-9.5c.4-.7.2-1.5-.5-2-.7-.3-1.5 0-2 .6l-5.7 9.5z" clip-rule="evenodd" />
                    <path fill-rule="evenodd" stroke="#262626" stroke-width="1.1" d="M444.2 266.4c-.4.7-.1 1.5.5 1.9.7.4 1.6.1 2-.5l5.7-9.5c.4-.7.2-1.5-.5-2-.7-.3-1.5 0-2 .6l-5.7 9.5z" clip-rule="evenodd" />
                </g>
                <path id="Improve stakeholder engagement &amp; oversight" fill="#000" d="M338.3 343.4v-10h2v10h-2zm11.3 0h-2.1V339c0-.6-.1-1-.3-1.3-.2-.2-.5-.4-.9-.4-.5 0-.9.2-1.1.6-.3.4-.4 1-.4 2v3.5h-2v-7.6h1.5l.3 1h.1c.2-.4.5-.7 1-.9.3-.2.7-.3 1.2-.3 1.2 0 2 .4 2.4 1.2h.1c.3-.4.6-.7 1-.9a3 3 0 011.3-.3c.9 0 1.5.3 2 .7.4.5.6 1.2.6 2.1v5h-2V339c0-.6-.1-1-.3-1.3-.2-.2-.5-.4-.9-.4-.5 0-.9.2-1.2.6-.2.3-.3.9-.3 1.7v3.8zm11 .2c-.8 0-1.5-.4-2-1h-.1v4.2h-2v-11h1.7l.3 1c.6-.8 1.3-1.2 2.2-1.2 1 0 1.6.4 2.2 1 .5.8.7 1.8.7 3 0 .8-.1 1.5-.3 2.1a3 3 0 01-1 1.4c-.5.3-1 .5-1.6.5zm-.5-6.3c-.6 0-1 .2-1.2.5-.2.3-.3.8-.3 1.6v.2c0 .8 0 1.4.3 1.7.3.4.7.6 1.2.6 1 0 1.4-.8 1.4-2.3 0-.8-.1-1.3-.4-1.7-.2-.4-.5-.6-1-.6zm9.5-1.7l.7.1-.1 2-.7-.1c-.6 0-1.1.2-1.5.5-.4.3-.6.8-.6 1.4v4h-2v-7.7h1.5l.3 1.3h.1c.3-.5.6-.8 1-1 .4-.3.8-.5 1.3-.5zm3.8 4c0 .8 0 1.3.3 1.7.3.4.7.6 1.2.6.6 0 1-.2 1.2-.6.3-.4.4-1 .4-1.7 0-.8-.1-1.3-.4-1.7-.2-.4-.6-.6-1.2-.6-.5 0-1 .2-1.2.6-.2.4-.3 1-.3 1.7zm5.2 0c0 1.2-.3 2.2-1 3-.6.6-1.5 1-2.7 1-.7 0-1.4-.2-2-.5-.5-.3-1-.8-1.2-1.4-.3-.6-.5-1.3-.5-2.1a4 4 0 011-3c.7-.6 1.6-1 2.8-1 .7 0 1.3.2 1.9.5.6.3 1 .8 1.3 1.4.3.6.4 1.3.4 2.1zm3.6 3.8l-3-7.6h2.3l1.4 4.3.3 1.6.4-1.6 1.5-4.3h2.1l-2.9 7.6h-2.1zm9.3-6.3c-.4 0-.8.2-1 .5a2 2 0 00-.5 1.1h3c0-.5-.2-.9-.4-1.1-.3-.3-.7-.5-1.1-.5zm.3 6.5a4 4 0 01-2.9-1c-.7-.7-1-1.7-1-3 0-1.2.3-2.2 1-2.9.6-.7 1.5-1 2.6-1 1 0 2 .3 2.5.9.6.6 1 1.4 1 2.5v1h-5c0 .6.2 1 .5 1.4.3.4.8.5 1.4.5a5.7 5.7 0 002.6-.6v1.6l-1.2.4-1.5.2zm-48.4 16.6c0 .7-.2 1.3-.8 1.8-.5.4-1.4.6-2.4.6l-1.5-.1-1-.4v-1.7a7.2 7.2 0 002.5.6c.8 0 1.2-.2 1.2-.6 0-.2 0-.3-.2-.4a11.8 11.8 0 00-1.5-.8l-1.3-.7a2 2 0 01-.6-.7l-.2-1c0-.7.3-1.2.8-1.6.5-.4 1.3-.6 2.3-.6.9 0 1.8.2 2.6.6l-.6 1.6-1-.5-1-.1c-.7 0-1 .2-1 .5 0 .2.1.3.3.5l1.3.6c.6.2 1 .4 1.3.7.3.2.5.4.6.7.2.3.2.6.2 1zm4.9.7c.3 0 .8 0 1.3-.2v1.5c-.5.3-1.2.4-2 .4s-1.4-.2-1.8-.7c-.3-.4-.5-1-.5-1.9v-3.6h-1v-1l1.1-.6.6-1.6h1.4v1.6h2.1v1.6h-2.1v3.6c0 .3 0 .6.2.7l.7.2zm7.7 1.5l-.4-1-1.2 1-1.4.2c-.7 0-1.3-.2-1.7-.7-.5-.4-.7-1-.7-1.8s.3-1.4.9-1.7a5 5 0 012.5-.7h1.4v-.4c0-.7-.4-1.1-1.2-1.1-.6 0-1.3.2-2.2.5l-.7-1.4c1-.4 1.9-.7 3-.7 1 0 1.8.3 2.3.7.6.4.8 1.1.8 2v5.1H356zm-.6-3.5h-.8c-.6 0-1 .1-1.4.3-.3.2-.4.6-.4 1 0 .6.3.8 1 .8.5 0 .9-.1 1.1-.4.3-.3.5-.6.5-1v-.7zm6.2-.6l1-1.2 2-2.3h2.4l-3 3.3 3.2 4.3h-2.4l-2.2-3-1 .7v2.3h-2v-10.6h2v6.5zm9.8-2.2c-.4 0-.7.2-1 .5a2 2 0 00-.4 1.1h2.9c0-.5-.1-.9-.4-1.1-.3-.3-.6-.5-1-.5zm.3 6.5a4 4 0 01-2.8-1c-.7-.7-1-1.7-1-3 0-1.2.2-2.2.9-2.9.6-.7 1.5-1 2.6-1s2 .3 2.6.9c.6.6.9 1.4.9 2.5v1h-5c0 .6.2 1 .6 1.4.3.4.7.5 1.3.5a5.7 5.7 0 002.6-.6v1.6l-1.1.4-1.6.2zm12-.2h-2.2V358c0-1.1-.4-1.7-1.2-1.7-.6 0-1 .2-1.3.6-.2.4-.4 1-.4 2v3.5h-2v-10.6h2v4c.5-.8 1.3-1.2 2.3-1.2.9 0 1.5.3 2 .8s.7 1.1.7 2v5zm3.7-3.8c0 .8.1 1.3.4 1.7.2.4.6.6 1.2.6s1-.2 1.2-.6c.2-.4.4-1 .4-1.7 0-.8-.2-1.3-.4-1.7-.2-.4-.7-.6-1.2-.6-.6 0-1 .2-1.2.6-.3.4-.4 1-.4 1.7zm5.3 0c0 1.2-.3 2.2-1 3-.6.6-1.6 1-2.7 1-.8 0-1.4-.2-2-.5-.5-.3-1-.8-1.3-1.4-.3-.6-.4-1.3-.4-2.1a4 4 0 011-3c.6-.6 1.5-1 2.7-1 .7 0 1.4.2 2 .5.5.3 1 .8 1.2 1.4.3.6.5 1.3.5 2.1zm3.8 3.8h-2v-10.6h2v10.6zm4.6.2c-.9 0-1.6-.4-2.1-1-.5-.8-.8-1.7-.8-3 0-1.2.3-2.2.8-2.9.5-.7 1.3-1 2.2-1 1 0 1.7.3 2.2 1l-.1-1.5v-2.4h2v10.6h-1.5l-.4-1h-.1c-.5.8-1.2 1.2-2.2 1.2zm.8-1.7c.5 0 .9-.1 1.1-.5.3-.3.4-.8.4-1.5v-.3c0-.8-.1-1.4-.4-1.7-.2-.4-.6-.6-1.2-.6-.4 0-.8.2-1 .6-.3.4-.5 1-.5 1.8 0 .7.2 1.3.4 1.6.3.4.7.6 1.2.6zm8.8-4.8c-.4 0-.8.2-1 .5a2 2 0 00-.4 1.1h2.9c0-.5-.2-.9-.4-1.1-.3-.3-.6-.5-1-.5zm.3 6.5a4 4 0 01-2.9-1c-.7-.7-1-1.7-1-3 0-1.2.3-2.2 1-2.9.6-.7 1.5-1 2.6-1 1 0 2 .3 2.5.9.6.6 1 1.4 1 2.5v1h-5c0 .6.2 1 .5 1.4.4.4.8.5 1.4.5a5.7 5.7 0 002.6-.6v1.6l-1.2.4-1.5.2zm9.1-8l.7.1-.2 2-.6-.1c-.6 0-1.2.2-1.5.5-.4.3-.6.8-.6 1.4v4h-2v-7.7h1.5l.3 1.3h.1c.3-.5.6-.8 1-1 .4-.3.8-.5 1.3-.5zm-78.8 20.5c-.5 0-.8.2-1 .5a2 2 0 00-.5 1.1h3c0-.5-.2-.9-.5-1.1-.2-.3-.6-.5-1-.5zm.3 6.5a4 4 0 01-3-1c-.6-.7-1-1.7-1-3 0-1.2.3-2.2 1-2.9.6-.7 1.5-1 2.6-1s2 .3 2.6.9c.6.6.9 1.4.9 2.5v1h-5c0 .6.2 1 .6 1.4.3.4.8.5 1.3.5a5.7 5.7 0 002.6-.6v1.6l-1.1.4-1.5.2zm11.8-.2h-2V377c0-.6-.2-1-.4-1.3-.2-.2-.5-.4-.9-.4-.6 0-1 .2-1.3.6-.2.4-.4 1-.4 2v3.5h-2v-7.6h1.6l.2 1h.2c.2-.4.5-.7 1-.9.3-.2.8-.3 1.3-.3.9 0 1.6.3 2 .8.5.4.7 1.1.7 2v5zm8.8-7.6v1l-1.2.4c.2.3.4.7.4 1.1 0 .8-.3 1.5-1 2-.5.4-1.3.6-2.3.6h-.7c-.2.1-.3.3-.3.5 0 .3.4.5 1.2.5h1.3c.8 0 1.4.1 1.9.5.4.4.6.9.6 1.6 0 .9-.3 1.6-1 2-.8.5-1.9.8-3.3.8-1 0-1.9-.2-2.4-.6-.6-.3-.9-.9-.9-1.5 0-.5.2-.9.4-1.2.3-.3.8-.5 1.3-.6l-.6-.5a1 1 0 01-.2-.6c0-.3 0-.6.3-.8.1-.2.4-.4.7-.5a2 2 0 01-1-.9c-.2-.4-.3-.8-.3-1.3 0-.9.3-1.5.8-2 .5-.4 1.3-.7 2.3-.7l.8.1h3.2zm-5.9 8.7c0 .3.2.5.4.7.3.2.7.2 1.2.2.7 0 1.3 0 1.7-.3.5-.2.7-.5.7-.8 0-.3-.1-.5-.4-.6a3 3 0 00-1.2-.2h-1c-.4 0-.7.1-1 .3-.3.2-.4.4-.4.7zm.8-6.2c0 .4 0 .7.3 1 .1.2.4.3.8.3s.7 0 .9-.3c.2-.3.3-.6.3-1 0-1-.4-1.4-1.2-1.4-.7 0-1.1.5-1.1 1.4zm11.2 5.1l-.4-1-1.1 1-1.5.2c-.7 0-1.3-.2-1.7-.7-.4-.4-.6-1-.6-1.8s.3-1.4.8-1.7a5 5 0 012.6-.7h1.3v-.4c0-.7-.4-1.1-1.2-1.1-.6 0-1.3.2-2.1.5l-.7-1.4c.9-.4 1.8-.7 3-.7 1 0 1.7.3 2.3.7.5.4.8 1.1.8 2v5.1h-1.5zm-.6-3.5h-.8c-.6 0-1 .1-1.3.3-.3.2-.5.6-.5 1 0 .6.4.8 1 .8.5 0 .9-.1 1.2-.4.3-.3.4-.6.4-1v-.7zm10.9-4.1v1l-1.2.4c.2.3.3.7.3 1.1 0 .8-.3 1.5-.8 2-.6.4-1.4.6-2.4.6h-.7c-.2.1-.3.3-.3.5 0 .3.4.5 1.1.5h1.3c.9 0 1.5.1 2 .5.4.4.6.9.6 1.6 0 .9-.4 1.6-1.1 2-.8.5-1.8.8-3.2.8-1 0-1.9-.2-2.5-.6-.5-.3-.8-.9-.8-1.5 0-.5.1-.9.4-1.2.3-.3.7-.5 1.3-.6l-.6-.5a1 1 0 01-.2-.6c0-.3 0-.6.2-.8l.8-.5a2 2 0 01-1-.9c-.2-.4-.3-.8-.3-1.3 0-.9.2-1.5.8-2 .5-.4 1.3-.7 2.3-.7l.8.1h3.2zm-5.9 8.7c0 .3.1.5.4.7.3.2.7.2 1.2.2.7 0 1.3 0 1.7-.3.4-.2.7-.5.7-.8 0-.3-.2-.5-.4-.6a3 3 0 00-1.2-.2h-1c-.4 0-.8.1-1 .3-.3.2-.4.4-.4.7zm.8-6.2c0 .4 0 .7.2 1 .2.2.5.3 1 .3.3 0 .6 0 .8-.3l.2-1c0-1-.3-1.4-1-1.4-.9 0-1.2.5-1.2 1.4zm9.5-1.2c-.4 0-.8.2-1 .5a2 2 0 00-.4 1.1h2.9c0-.5-.2-.9-.4-1.1-.3-.3-.6-.5-1-.5zm.3 6.5a4 4 0 01-2.9-1c-.7-.7-1-1.7-1-3 0-1.2.3-2.2 1-2.9.6-.7 1.5-1 2.6-1 1 0 2 .3 2.5.9.6.6 1 1.4 1 2.5v1h-5c0 .6.2 1 .5 1.4.4.4.8.5 1.4.5a5.7 5.7 0 002.6-.6v1.6l-1.2.4-1.5.2zm11.7-.2h-2.1V377c0-.6-.1-1-.3-1.3-.2-.2-.5-.4-.9-.4-.5 0-.9.2-1.1.6-.3.4-.4 1-.4 2v3.5h-2v-7.6h1.5l.3 1h.1c.2-.4.5-.7 1-.9.3-.2.7-.3 1.2-.3 1.2 0 2 .4 2.4 1.2h.2c.2-.4.5-.7.9-.9a3 3 0 011.3-.3c.9 0 1.5.3 2 .7.4.5.6 1.2.6 2.1v5h-2V377c0-.6-.1-1-.3-1.3-.2-.2-.5-.4-.9-.4-.5 0-.9.2-1.1.6-.3.3-.4.9-.4 1.7v3.8zm10-6.3c-.4 0-.7.2-1 .5a2 2 0 00-.4 1.1h3c-.1-.5-.2-.9-.5-1.1-.3-.3-.6-.5-1-.5zm.3 6.5a4 4 0 01-2.8-1c-.7-.7-1-1.7-1-3 0-1.2.2-2.2.9-2.9.6-.7 1.5-1 2.6-1s2 .3 2.6.9c.6.6.9 1.4.9 2.5v1h-5c0 .6.2 1 .6 1.4.3.4.7.5 1.3.5a5.7 5.7 0 002.6-.6v1.6l-1.1.4-1.6.2zm12-.2H415V377c0-.6 0-1-.3-1.3-.2-.2-.5-.4-.9-.4-.6 0-1 .2-1.3.6-.2.4-.4 1-.4 2v3.5h-2v-7.6h1.6l.2 1h.1c.3-.4.6-.7 1-.9.4-.2.9-.3 1.4-.3.9 0 1.6.3 2 .8.5.4.7 1.1.7 2v5zm5.3-1.5c.3 0 .8 0 1.3-.2v1.5c-.5.3-1.2.4-2 .4s-1.4-.2-1.7-.7c-.4-.4-.6-1-.6-1.9v-3.6h-1v-1l1.1-.6.6-1.6h1.4v1.6h2.1v1.6h-2.1v3.6c0 .3 0 .6.2.7l.7.2zm-75.1 20.5h-2.6l-.8-.7a5 5 0 01-3 .9c-1 0-2-.3-2.6-.8-.6-.5-1-1.2-1-2 0-.7.2-1.2.5-1.7a4 4 0 011.4-1.2l-.8-1.1a3 3 0 01-.2-1.2c0-.7.3-1.2.8-1.7.5-.4 1.3-.6 2.1-.6.9 0 1.6.2 2 .6.6.4.8 1 .8 1.6 0 .5-.1 1-.4 1.5-.3.4-.9.8-1.6 1.2l2 2 .8-2.1h2.2a10 10 0 01-1.7 3.3l2.1 2zm-7.7-2.9c0 .4.1.7.4 1 .3.2.7.3 1.1.3.6 0 1.1-.1 1.6-.4l-2.3-2.3a3 3 0 00-.6.7c-.2.2-.2.4-.2.7zm2.4-4.8c0-.3 0-.4-.2-.6a1 1 0 00-.7-.2c-.3 0-.5 0-.7.2l-.3.6c0 .4.3.9.7 1.4l.9-.7c.2-.2.3-.4.3-.7zm11.7 3.9c0 .8.1 1.3.4 1.7.2.4.6.6 1.2.6.5 0 1-.2 1.2-.6.2-.4.3-1 .3-1.7 0-.8 0-1.3-.3-1.7-.3-.4-.7-.6-1.2-.6-.6 0-1 .2-1.2.6-.3.4-.4 1-.4 1.7zm5.3 0c0 1.2-.4 2.2-1 3-.7.6-1.6 1-2.8 1-.7 0-1.3-.2-1.9-.5-.6-.3-1-.8-1.3-1.4-.3-.6-.4-1.3-.4-2.1a4 4 0 011-3c.6-.6 1.5-1 2.7-1 .7 0 1.4.2 2 .5.5.3 1 .8 1.2 1.4.3.6.5 1.3.5 2.1zm3.5 3.8l-2.9-7.6h2.2l1.5 4.3.3 1.6.3-1.6 1.5-4.3h2.2l-3 7.6h-2zm9.3-6.3c-.4 0-.8.2-1 .5a2 2 0 00-.4 1.1h2.9c0-.5-.2-.9-.4-1.1-.3-.3-.6-.5-1-.5zm.3 6.5a4 4 0 01-2.9-1c-.6-.7-1-1.7-1-3 0-1.2.3-2.2 1-2.9.6-.7 1.5-1 2.6-1s2 .3 2.5.9c.6.6 1 1.4 1 2.5v1h-5c0 .6.2 1 .5 1.4.4.4.8.5 1.4.5a5.7 5.7 0 002.6-.6v1.6l-1.2.4-1.5.2zm9.1-8l.7.1-.1 2-.7-.1c-.6 0-1.1.2-1.5.5-.4.3-.6.8-.6 1.4v4h-2v-7.7h1.5l.3 1.3h.1c.3-.5.6-.8 1-1 .4-.3.8-.5 1.3-.5zm7.4 5.6c0 .7-.2 1.3-.8 1.8-.5.4-1.3.6-2.4.6l-1.5-.1-1-.4v-1.7a7.2 7.2 0 002.5.6c.8 0 1.2-.2 1.2-.6 0-.2 0-.3-.2-.4a11.8 11.8 0 00-1.5-.8l-1.3-.7a2 2 0 01-.6-.7l-.2-1c0-.7.3-1.2.8-1.6.5-.4 1.3-.6 2.3-.6.9 0 1.8.2 2.6.6l-.6 1.6-1-.5-1-.1c-.7 0-1 .2-1 .5 0 .2.1.3.3.5l1.3.6c.6.2 1 .4 1.3.7.3.2.5.4.6.7.2.3.2.6.2 1zm1.6-7.4c0-.7.3-1 1.1-1s1.1.3 1.1 1c0 .3 0 .6-.2.8l-.9.2c-.8 0-1.1-.3-1.1-1zm2.1 9.6h-2v-7.6h2v7.6zm8.9-7.6v1l-1.2.4c.2.3.3.7.3 1.1 0 .8-.3 1.5-.8 2-.6.4-1.4.6-2.4.6h-.7c-.2.1-.3.3-.3.5 0 .3.4.5 1.1.5h1.3c.9 0 1.5.1 2 .5.4.4.6.9.6 1.6 0 .9-.4 1.6-1.1 2-.8.5-1.8.8-3.2.8-1.1 0-2-.2-2.5-.6-.5-.3-.8-.9-.8-1.5 0-.5.1-.9.4-1.2.3-.3.7-.5 1.3-.6l-.6-.5a1 1 0 01-.2-.6c0-.3 0-.6.2-.8.2-.2.4-.4.8-.5a2 2 0 01-1-.9c-.2-.4-.3-.8-.3-1.3 0-.9.2-1.5.8-2 .5-.4 1.3-.7 2.3-.7l.8.1h3.2zm-6 8.7c0 .3.2.5.5.7.3.2.7.2 1.2.2.7 0 1.3 0 1.7-.3.4-.2.7-.5.7-.8 0-.3-.2-.5-.4-.6a3 3 0 00-1.2-.2h-1c-.4 0-.8.1-1 .3-.3.2-.4.4-.4.7zm.8-6.2c0 .4.1.7.3 1 .2.2.5.3.9.3s.7 0 .9-.3l.2-1c0-1-.3-1.4-1.1-1.4s-1.2.5-1.2 1.4zm13.5 5.1h-2V396c0-1.1-.5-1.7-1.3-1.7-.6 0-1 .2-1.3.6-.2.4-.4 1-.4 2v3.5h-2v-10.6h2v4c.5-.8 1.3-1.2 2.3-1.2.9 0 1.5.3 2 .8s.7 1.1.7 2v5zm5.4-1.5c.3 0 .8 0 1.3-.2v1.5c-.5.3-1.2.4-2 .4s-1.4-.2-1.8-.7c-.3-.4-.5-1-.5-1.9v-3.6h-1v-1l1.1-.6.6-1.6h1.4v1.6h2.1v1.6h-2.1v3.6c0 .3 0 .6.2.7l.7.2z" />
            </g>
            <g data-section="publish">
                <path class="background" fill="transparent" d="M199 130.4a121.4 121.4 0 01145.6 46l101-68.4a243.3 243.3 0 00-292.8-90.6l46.1 113z" />
                <path class="arrow" id="arrow_4" fill="#fff" d="M159.6 81.6L128 57.8l8.6-3.6L168.3 78l-4.3 41-8.6 3.6 4.2-41z" />
                <g id="icon_4">
                    <path fill="#A2A2A2" fill-rule="evenodd" d="M223.7 65.7c3.2 1.8 3.2 4.6 0 6.4a13 13 0 01-11.3 0c-3.1-1.8-3.1-4.6 0-6.4a13 13 0 0111.3 0z" clip-rule="evenodd" />
                    <path fill-rule="evenodd" stroke="#262626" stroke-linecap="round" stroke-linejoin="round" stroke-width="1.1" d="M223.7 65.7c3.2 1.8 3.2 4.6 0 6.4a13 13 0 01-11.3 0c-3.1-1.8-3.1-4.6 0-6.4a13 13 0 0111.3 0z" clip-rule="evenodd" />
                    <path fill="#A2A2A2" fill-rule="evenodd" d="M219.4 66.5c0 1-1 1.7-2 1.7-1.1 0-2-.8-2-1.7v-6.8c0-1 1-1.7 2-1.7 1.1 0 2 .8 2 1.7v6.8z" clip-rule="evenodd" />
                    <path fill-rule="evenodd" stroke="#262626" stroke-linecap="round" stroke-linejoin="round" stroke-width="1.7" d="M219.4 66.5c0 1-1 1.7-2 1.7-1.1 0-2-.8-2-1.7v-6.8c0-1 1-1.7 2-1.7 1.1 0 2 .8 2 1.7v6.8z" clip-rule="evenodd" />
                    <path fill="#515151" fill-rule="evenodd" d="M217.4 67L206 60.7v-4.1l11.4-6.3 11.4 6.3v4.1L217.4 67z" clip-rule="evenodd" />
                    <path fill-rule="evenodd" stroke="#262626" stroke-linecap="round" stroke-linejoin="round" stroke-width="1.1" d="M217.4 67L206 60.7v-4.1l11.4-6.3 11.4 6.3v4.1L217.4 67z" clip-rule="evenodd" />
                    <path fill="#515151" fill-rule="evenodd" d="M220.7 51.9l-11 6L206 56V39.7l11-6 3.7 2v16.2z" clip-rule="evenodd" />
                    <path fill-rule="evenodd" stroke="#262626" stroke-linecap="round" stroke-linejoin="round" stroke-width="1.1" d="M220.7 51.9l-11 6L206 56V39.7l11-6 3.7 2v16.2z" clip-rule="evenodd" />
                    <path fill="#FFCBA6" fill-rule="evenodd" d="M223.4 75c0 1.3-1 2.2-2.1 2.2-1.2 0-2.2-1-2.2-2.1V63.8l-5.3-3.1c-1-.6-1.4-2-.8-3a2 2 0 013-.7l6.3 3.8c.7.3 1.1 1 1.1 1.8V75z" clip-rule="evenodd" />
                    <path fill-rule="evenodd" stroke="#262626" stroke-width="1.1" d="M223.4 75c0 1.3-1 2.2-2.1 2.2-1.2 0-2.2-1-2.2-2.1V63.8l-5.3-3.1c-1-.6-1.4-2-.8-3a2 2 0 013-.7l6.3 3.8c.7.3 1.1 1 1.1 1.8V75z" clip-rule="evenodd" />
                    <path fill="#FFCBA6" fill-rule="evenodd" d="M230.1 71.2c0 1.2-1 2.2-2.1 2.2-1.2 0-2.2-1-2.2-2.2V60l-5.3-3c-1-.6-1.4-2-.8-3a2 2 0 013-.7l6.3 3.7c.7.4 1.1 1 1.1 1.8v12.5z" clip-rule="evenodd" />
                    <path fill-rule="evenodd" stroke="#262626" stroke-width="1.1" d="M230.1 71.2c0 1.2-1 2.2-2.1 2.2-1.2 0-2.2-1-2.2-2.2V60l-5.3-3c-1-.6-1.4-2-.8-3a2 2 0 013-.7l6.3 3.7c.7.4 1.1 1 1.1 1.8v12.5z" clip-rule="evenodd" />
                    <path fill="#FFCBA6" fill-rule="evenodd" d="M227.4 35.8l5.4-3.2c.8-.5 1.9-.2 2.4.7.5.9.2 2-.6 2.5l-7.2 4.2-7.1-4.2a1.8 1.8 0 01-.6-2.5c.5-1 1.5-1.2 2.4-.7l5.3 3.2z" clip-rule="evenodd" />
                    <path fill-rule="evenodd" stroke="#262626" stroke-width="1.1" d="M227.4 35.8l5.4-3.2c.8-.5 1.9-.2 2.4.7.5.9.2 2-.6 2.5l-7.2 4.2-7.1-4.2a1.8 1.8 0 01-.6-2.5c.5-1 1.5-1.2 2.4-.7l5.3 3.2z" clip-rule="evenodd" />
                    <path fill="#23B2A7" fill-rule="evenodd" d="M224.7 33.2c0-3.5-3.3-4.5-7.3-2.2-4 2.4-7.4 7.1-7.4 10.6v16.8l3.7 2.2 11-6.3V33.2z" clip-rule="evenodd" />
                    <path fill-rule="evenodd" stroke="#262626" stroke-width="1.1" d="M224.7 33.2c0-3.5-3.3-4.5-7.3-2.2-4 2.4-7.4 7.1-7.4 10.6v16.8l3.7 2.2 11-6.3V33.2h0z" clip-rule="evenodd" />
                    <path fill="#FFCBA6" fill-rule="evenodd" d="M217.4 23.4c3.3 0 6 2.6 6 5.7 0 3.2-2.7 5.8-6 5.8s-6-2.6-6-5.8c0-3.1 2.7-5.7 6-5.7z" clip-rule="evenodd" />
                    <path fill-rule="evenodd" stroke="#262626" stroke-width="1.1" d="M217.4 23.4c3.3 0 6 2.6 6 5.7 0 3.2-2.7 5.8-6 5.8s-6-2.6-6-5.8c0-3.1 2.7-5.7 6-5.7z" clip-rule="evenodd" />
                    <path fill-rule="evenodd" stroke="#262626" stroke-width=".9" d="M220 28.7c.7-.4 1.5-.2 1.9.4.4.7.1 1.4-.5 1.8-.6.4-1.4.1-1.8-.5-.4-.6-.2-1.4.5-1.7z" clip-rule="evenodd" />
                    <path stroke="#262626" stroke-width=".9" d="M218.3 31c-.5-.3-.2-.9.5-1 .7-.3 1.6-.2 2 .2" />
                    <path fill-rule="evenodd" stroke="#262626" stroke-width=".9" d="M216 31.2c.7-.3 1.5-.1 1.9.5.4.6.1 1.4-.5 1.8-.6.3-1.5.1-1.8-.5-.4-.6-.2-1.4.5-1.8z" clip-rule="evenodd" />
                    <path fill="#98760F" fill-rule="evenodd" d="M223.4 27.6a6.3 6.3 0 00-5.8-4.2 6.3 6.3 0 00-6.2 6.4v1c1.2.4 2.6.4 3.8-.2a6.2 6.2 0 003.8-3.9c1.2 1 2.9 1.2 4.4.9z" clip-rule="evenodd" />
                    <path fill-rule="evenodd" stroke="#262626" stroke-linecap="round" stroke-linejoin="round" stroke-width="1.1" d="M223.4 27.6a6.3 6.3 0 00-5.8-4.2 6.3 6.3 0 00-6.2 6.4v1c1.2.4 2.6.4 3.8-.2a6.2 6.2 0 003.8-3.9c1.2 1 2.9 1.2 4.4.9z" clip-rule="evenodd" />
                    <path fill="#FFCBA6" fill-rule="evenodd" d="M219.2 55.2c.5 1 .2 2-.7 2.5-.8.6-1.9.2-2.4-.6L209 44a2 2 0 01.7-2.5c.8-.5 1.9-.2 2.4.6l7.2 13z" clip-rule="evenodd" />
                    <path fill-rule="evenodd" stroke="#262626" stroke-width="1.1" d="M219.2 55.2c.5 1 .2 2-.7 2.5-.8.6-1.9.2-2.4-.6L209 44a2 2 0 01.7-2.5c.8-.5 1.9-.2 2.4.6l7.2 13z" clip-rule="evenodd" />
                    <path fill="#F2F2F2" fill-rule="evenodd" d="M231.3 51.6l-14.6 8.3 12.3 7 14.5-8.3-12.2-7z" clip-rule="evenodd" />
                    <path fill-rule="evenodd" stroke="#262626" stroke-linecap="round" stroke-linejoin="round" stroke-width="1.1" d="M231.3 51.6l-14.6 8.3 12.3 7 14.5-8.3-12.2-7z" clip-rule="evenodd" />
                    <path fill="#515151" fill-rule="evenodd" d="M242.1 59.7l-11 6-7.7-4.3 11-6 7.7 4.3z" clip-rule="evenodd" />
                    <path fill-rule="evenodd" stroke="#262626" stroke-linecap="round" stroke-linejoin="round" stroke-width="1.7" d="M242.1 59.7l-11 6-7.7-4.3 11-6 7.7 4.3z" clip-rule="evenodd" />
                    <path fill="#F2F2F2" fill-rule="evenodd" d="M233.8 53.3l15-8.1-3.8 13.6-14.9 8.2 3.7-13.7z" clip-rule="evenodd" />
                    <path fill-rule="evenodd" stroke="#262626" stroke-linecap="round" stroke-linejoin="round" stroke-width="1.1" d="M233.8 53.3l15-8.1-3.8 13.6-14.9 8.2 3.7-13.7z" clip-rule="evenodd" />
                    <path fill="#D1D871" fill-rule="evenodd" d="M223.8 7l-2.4-1.6.2 2.8-2.2 1.7 2.7.6 1 2.6 1.5-2.3 2.8-.1-1.7-2.1.7-2.7-2.6 1z" clip-rule="evenodd" />
                    <path fill-rule="evenodd" stroke="#333" stroke-linecap="round" stroke-linejoin="round" stroke-width="1.1" d="M223.8 7l-2.4-1.6.2 2.8-2.2 1.7 2.7.6 1 2.6 1.5-2.3 2.8-.1-1.7-2.1.7-2.7-2.6 1z" clip-rule="evenodd" />
                    <path fill="#D1D871" fill-rule="evenodd" d="M217.1 9.6L214.7 8l.2 2.8-2.2 1.7 2.7.7 1 2.5 1.5-2.3 2.8-.1-1.8-2.1.8-2.7-2.6 1z" clip-rule="evenodd" />
                    <path fill-rule="evenodd" stroke="#333" stroke-linecap="round" stroke-linejoin="round" stroke-width="1.1" d="M217.1 9.6L214.7 8l.2 2.8-2.2 1.7 2.7.7 1 2.5 1.5-2.3 2.8-.1-1.8-2.1.8-2.7-2.6 1z" clip-rule="evenodd" />
                    <path fill="#D1D871" fill-rule="evenodd" d="M210.4 13.3l-2.3-1.5.2 2.8-2.3 1.7 2.8.6 1 2.6 1.5-2.3 2.8-.1-1.9-2.1.8-2.6-2.6 1z" clip-rule="evenodd" />
                    <path fill-rule="evenodd" stroke="#333" stroke-linecap="round" stroke-linejoin="round" stroke-width="1.1" d="M210.4 13.3l-2.3-1.5.2 2.8-2.3 1.7 2.8.6 1 2.6 1.5-2.3 2.8-.1-1.9-2.1.8-2.6-2.6 1z" clip-rule="evenodd" />
                    <path fill="#D1D871" fill-rule="evenodd" d="M203.7 17.2l-2.3-1.5.2 2.7-2.3 1.7 2.8.7 1 2.6 1.5-2.3 2.8-.2-1.8-2 .7-2.7-2.6 1z" clip-rule="evenodd" />
                    <path fill-rule="evenodd" stroke="#333" stroke-linecap="round" stroke-linejoin="round" stroke-width="1.1" d="M203.7 17.2l-2.3-1.5.2 2.7-2.3 1.7 2.8.7 1 2.6 1.5-2.3 2.8-.2-1.8-2 .7-2.7-2.6 1z" clip-rule="evenodd" />
                    <path fill="#D1D871" fill-rule="evenodd" d="M198.3 21l-2.3-1.5.2 2.8L194 24l2.7.7 1 2.5 1.5-2.3 2.8-.1-1.8-2.1.8-2.6-2.7 1z" clip-rule="evenodd" />
                    <path fill-rule="evenodd" stroke="#333" stroke-linecap="round" stroke-linejoin="round" stroke-width="1.1" d="M198.3 21l-2.3-1.5.2 2.8L194 24l2.7.7 1 2.5 1.5-2.3 2.8-.1-1.8-2.1.8-2.6-2.7 1z" clip-rule="evenodd" />
                </g>
                <path fill="#000" d="M261.4 59.1h.7c.6 0 1.1 0 1.4-.3.4-.3.5-.7.5-1.2s-.1-.8-.4-1c-.3-.3-.7-.4-1.3-.4h-1v3zm4.8-1.5c0 1-.4 1.9-1 2.4-.7.6-1.7.9-3 .9h-.8v3.5h-2.1v-10h3.1c1.3 0 2.2.3 2.8.8.6.5 1 1.3 1 2.4zm7.1 6.8l-.3-1c-.3.4-.6.7-1 .9l-1.4.3c-1 0-1.6-.3-2-.7-.5-.5-.8-1.2-.8-2.1v-5h2.1v4.5c0 .5.1 1 .3 1.2.2.3.5.4 1 .4s1-.2 1.2-.6c.3-.4.4-1 .4-2v-3.5h2.1v7.6h-1.6zm8-7.8c1 0 1.6.4 2.2 1.1.5.7.7 1.7.7 2.9 0 1.3-.2 2.2-.8 3-.5.6-1.2 1-2.1 1-1 0-1.6-.4-2.1-1h-.2l-.3.8H277V53.8h2v4c.6-.8 1.3-1.2 2.2-1.2zm-.6 1.7c-.5 0-1 .2-1.2.5-.2.3-.3.8-.3 1.6v.2c0 .8 0 1.4.3 1.7.3.4.7.6 1.2.6.4 0 .8-.2 1-.6.3-.4.4-1 .4-1.7a3 3 0 00-.4-1.7c-.2-.4-.6-.6-1-.6zm7.3 6.1h-2V53.8h2v10.6zm2.1-9.6c0-.7.4-1 1.2-1 .7 0 1.1.3 1.1 1 0 .3 0 .6-.3.8l-.8.2c-.8 0-1.2-.3-1.2-1zm2.2 9.6h-2v-7.6h2v7.6zm7.5-2.2c0 .7-.2 1.3-.8 1.8-.5.4-1.3.6-2.4.6l-1.4-.1-1.1-.4v-1.7a7.3 7.3 0 002.5.6c.8 0 1.2-.2 1.2-.6 0-.2 0-.3-.2-.4a12.3 12.3 0 00-1.5-.8l-1.3-.7a2 2 0 01-.6-.7l-.2-1c0-.7.3-1.2.8-1.6.6-.4 1.3-.6 2.3-.6.9 0 1.8.2 2.7.6l-.7 1.6-1-.5-1-.1c-.7 0-1 .2-1 .5 0 .2.1.3.3.5l1.3.6c.6.2 1 .5 1.3.7.3.2.5.4.6.7.2.3.2.6.2 1zm8.7 2.2h-2V60c0-1.1-.5-1.7-1.3-1.7-.6 0-1 .2-1.3.6-.2.4-.4 1-.4 2v3.5h-2V53.8h2v4c.5-.8 1.3-1.2 2.3-1.2.9 0 1.6.3 2 .8.5.5.7 1.1.7 2v5zm4.2-1.4c-.2.9-.6 2-1.2 3.2H310l.7-3.4h2v.2zm-48.2 20.4l-.3-1c-.3.4-.6.7-1 .9-.4.2-1 .3-1.4.3-1 0-1.6-.3-2-.7-.5-.5-.7-1.2-.7-2.1v-5h2v4.5c0 .5.1 1 .3 1.2.2.3.5.4 1 .4.6 0 1-.2 1.2-.6.3-.4.4-1 .4-2v-3.5h2.1v7.6h-1.6zm9.1-2.2c0 .7-.2 1.3-.8 1.8-.5.4-1.3.6-2.4.6l-1.5-.1-1-.4v-1.7a7.3 7.3 0 002.5.6c.8 0 1.2-.2 1.2-.6 0-.2 0-.3-.2-.4a12.3 12.3 0 00-1.5-.8l-1.3-.7a2 2 0 01-.6-.7l-.2-1c0-.7.3-1.2.8-1.6.5-.4 1.3-.6 2.3-.6.9 0 1.8.2 2.6.6l-.6 1.6-1-.5-1-.1c-.7 0-1 .2-1 .5 0 .2.1.3.3.5l1.3.6c.6.2 1 .5 1.3.7.3.2.5.4.6.7.2.3.2.6.2 1zm4.8-4c-.4 0-.8 0-1 .4a2 2 0 00-.5 1.1h3c0-.5-.2-.9-.4-1.1-.3-.3-.6-.5-1-.5zm.3 6.4a4 4 0 01-2.9-1c-.7-.7-1-1.7-1-3 0-1.2.3-2.2 1-2.9.6-.7 1.5-1 2.6-1 1 0 2 .3 2.5.9.6.6 1 1.4 1 2.5v1h-5c0 .6.2 1 .5 1.4.4.4.8.5 1.4.5a5.7 5.7 0 002.6-.6V83l-1.2.4-1.5.2zm17.9-.2H294l-.8-.7a5 5 0 01-3 .9c-1 0-2-.3-2.6-.8-.6-.5-1-1.2-1-2 0-.7.2-1.2.4-1.7a4 4 0 011.5-1.2l-.8-1.1a3 3 0 01-.2-1.2c0-.7.2-1.2.8-1.7.5-.4 1.2-.6 2.1-.6.9 0 1.5.2 2 .6.6.4.8 1 .8 1.6 0 .5-.2 1-.5 1.5-.3.4-.8.8-1.5 1.2l2 2 .8-2.1h2.2a9.9 9.9 0 01-1.7 3.3l2 2zm-7.8-2.9c0 .4.2.7.5 1 .3.2.6.3 1.1.3.6 0 1-.1 1.5-.4l-2.2-2.3a3 3 0 00-.7.7l-.2.7zm2.5-4.8c0-.3-.1-.4-.3-.6a1 1 0 00-.6-.2c-.3 0-.6 0-.7.2l-.3.6c0 .4.2.9.7 1.4l.9-.7c.2-.2.3-.4.3-.7zm10-1.9c0-.7.3-1 1-1 .8 0 1.2.3 1.2 1 0 .3-.1.6-.3.8-.2.2-.5.2-.9.2-.7 0-1-.3-1-1zm2 9.6h-2v-7.6h2v7.6zm9.1 0h-2V79c0-.6-.2-1-.3-1.3-.2-.2-.5-.4-1-.4-.4 0-.8.2-1 .6-.3.4-.4 1-.4 2v3.5h-2.1v-7.6h1.6l.3 1c.3-.4.6-.7 1-.9.3-.2.8-.3 1.3-.3 1.1 0 2 .4 2.3 1.2h.2c.2-.4.5-.7.9-.9a3 3 0 011.4-.3c.8 0 1.5.3 2 .7.4.5.6 1.2.6 2.1v5H315V79c0-.6-.1-1-.3-1.3-.2-.2-.5-.4-.9-.4-.5 0-.8.2-1.1.6-.3.3-.4.9-.4 1.7v3.8zm11.1.2c-.9 0-1.6-.4-2-1h-.2l.1 1.1v3h-2v-11h1.6l.3 1h.1c.5-.7 1.2-1 2.2-1 .9 0 1.6.3 2.1 1s.8 1.7.8 2.9c0 .8-.2 1.5-.4 2.1a3 3 0 01-1 1.4c-.5.3-1 .5-1.6.5zm-.6-6.3c-.5 0-.9.2-1.1.5-.3.3-.4.8-.4 1.6v.2c0 .8.1 1.4.4 1.7.2.4.6.6 1.1.6 1 0 1.4-.8 1.4-2.3 0-.8 0-1.3-.3-1.7-.2-.4-.6-.6-1-.6zm9.6-1.7l.7.1-.2 2-.6-.1c-.7 0-1.2.2-1.6.5-.3.3-.5.8-.5 1.4v4h-2.1v-7.7h1.6l.3 1.3c.3-.5.6-.8 1-1 .4-.3.9-.5 1.4-.5zm3.7 4c0 .8.1 1.3.4 1.7.2.4.6.6 1.2.6s1-.2 1.2-.6c.2-.4.4-1 .4-1.7 0-.8-.2-1.3-.4-1.7-.3-.4-.7-.6-1.2-.6-.6 0-1 .2-1.2.6-.3.4-.4 1-.4 1.7zm5.3 0c0 1.2-.3 2.2-1 3-.6.6-1.6 1-2.7 1-.8 0-1.4-.2-2-.5-.5-.3-1-.8-1.3-1.4-.3-.6-.4-1.3-.4-2.1a4 4 0 011-3c.6-.6 1.5-1 2.7-1 .7 0 1.4.2 2 .5.5.3 1 .8 1.2 1.4.3.6.5 1.3.5 2.1zm3.5 3.8l-2.9-7.6h2.2l1.5 4.3.3 1.6.3-1.6 1.5-4.3h2.2l-3 7.6h-2zm9.4-6.3c-.5 0-.8.2-1 .5a2 2 0 00-.5 1.1h3c-.1-.5-.2-.9-.5-1.1-.3-.3-.6-.5-1-.5zm.2 6.5a4 4 0 01-2.8-1c-.7-.7-1-1.7-1-3 0-1.2.2-2.2.9-2.9.6-.7 1.5-1 2.6-1s2 .3 2.6.9c.6.6.9 1.4.9 2.5v1h-5c0 .6.2 1 .6 1.4.3.4.8.5 1.3.5a5.7 5.7 0 002.6-.6V83l-1.1.4-1.6.2zm10.2-4c0 .8 0 1.3.3 1.7.3.4.7.6 1.2.6.6 0 1-.2 1.2-.6.3-.4.4-1 .4-1.7 0-.8-.1-1.3-.4-1.7-.2-.4-.6-.6-1.2-.6-.5 0-1 .2-1.2.6-.2.4-.3 1-.3 1.7zm5.2 0c0 1.2-.3 2.2-1 3-.6.6-1.5 1-2.7 1-.7 0-1.4-.2-2-.5-.5-.3-1-.8-1.2-1.4-.3-.6-.5-1.3-.5-2.1a4 4 0 011-3c.7-.6 1.6-1 2.8-1 .7 0 1.3.2 1.9.5.6.3 1 .8 1.3 1.4.3.6.4 1.3.4 2.1zm6 4c-1 0-1.6-.4-2.2-1v4.1h-2v-11h1.7l.3 1c.5-.7 1.3-1 2.2-1 1 0 1.6.3 2.1 1s.8 1.7.8 2.9c0 .8-.1 1.5-.4 2.1a3 3 0 01-1 1.4c-.4.3-1 .5-1.5.5zm-.7-6.3c-.5 0-.8.2-1 .5-.3.3-.4.8-.5 1.6v.2c0 .8.2 1.4.4 1.7.3.4.6.6 1.2.6 1 0 1.4-.8 1.4-2.3 0-.8-.1-1.3-.4-1.7-.2-.4-.6-.6-1-.6zm8.5-.2c-.5 0-.8.2-1 .5a2 2 0 00-.5 1.1h3c0-.5-.2-.9-.5-1.1-.2-.3-.6-.5-1-.5zm.3 6.5a4 4 0 01-2.9-1c-.7-.7-1-1.7-1-3 0-1.2.3-2.2 1-2.9.6-.7 1.4-1 2.6-1 1 0 1.9.3 2.5.9.6.6.9 1.4.9 2.5v1h-5c0 .6.3 1 .6 1.4.3.4.8.5 1.4.5a5.7 5.7 0 002.6-.6V83l-1.2.4-1.5.2zm11.8-.2h-2V79c0-.6-.1-1-.3-1.3-.2-.2-.5-.4-1-.4s-1 .2-1.2.6c-.3.4-.4 1-.4 2v3.5h-2.1v-7.6h1.6l.3 1c.3-.4.6-.7 1-.9l1.4-.3c1 0 1.6.3 2 .8.5.4.7 1.1.7 2v5zm-133.7 19.2c-2.4 0-3.6-1.3-3.6-4 0-1.2.4-2.2 1-3 .6-.6 1.6-1 2.8-1 .9 0 1.7.2 2.4.6l-.7 1.6-.9-.3-.8-.2c-1.1 0-1.6.8-1.6 2.3 0 1.5.5 2.3 1.6 2.3.4 0 .8 0 1.1-.2.3 0 .7-.3 1-.5v1.8c-.3.2-.7.4-1 .4l-1.3.2zm5.8-4c0 .8 0 1.3.3 1.7.3.4.7.6 1.2.6.6 0 1-.2 1.2-.6.3-.4.4-1 .4-1.7 0-.8-.1-1.3-.4-1.7-.2-.4-.6-.6-1.2-.6-.5 0-1 .2-1.2.6-.2.4-.3 1-.3 1.7zm5.2 0c0 1.2-.3 2.2-1 3-.6.6-1.5 1-2.7 1-.7 0-1.4-.2-2-.5-.5-.3-1-.8-1.2-1.4-.3-.6-.5-1.3-.5-2.1a4 4 0 011-3c.7-.6 1.6-1 2.8-1 .7 0 1.3.2 1.9.5.6.3 1 .8 1.3 1.4.3.6.4 1.3.4 2.1zm8.8 3.8h-2V98c0-.6-.2-1-.4-1.3-.2-.2-.5-.4-.9-.4-.6 0-1 .2-1.3.6-.2.4-.3 1-.3 2v3.5H275v-7.6h1.6l.2 1h.2c.2-.4.5-.7 1-.9.3-.2.8-.3 1.3-.3.9 0 1.6.3 2 .8.5.4.7 1.1.7 2v5zm5.4-1.5c.4 0 .8 0 1.3-.2v1.5c-.5.3-1.2.4-2 .4-.7 0-1.4-.2-1.7-.7-.4-.4-.6-1-.6-1.9v-3.6h-1v-1l1.1-.6.6-1.6h1.4v1.6h2.1v1.6h-2.1v3.6c0 .3 0 .6.2.7l.7.2zm7.1-6.3l.7.1-.1 2-.7-.1c-.6 0-1.1.2-1.5.5-.4.3-.6.8-.6 1.4v4h-2v-7.7h1.5l.3 1.3h.1c.3-.5.6-.8 1-1 .4-.3.8-.5 1.3-.5zm7 7.8l-.4-1h-.1l-1 1-1.5.2c-.8 0-1.3-.2-1.8-.7-.4-.4-.6-1-.6-1.8s.3-1.4.9-1.7a5 5 0 012.5-.7h1.3v-.4c0-.7-.3-1.1-1.1-1.1-.7 0-1.4.2-2.2.5l-.7-1.4c.9-.4 1.9-.7 3-.7 1 0 1.8.3 2.3.7.5.4.8 1.1.8 2v5.1h-1.4zm-.7-3.5h-.8c-.6 0-1 .1-1.3.3-.3.2-.5.6-.5 1 0 .5.4.8 1 .8.5 0 1 0 1.2-.4.3-.3.4-.6.4-1v-.7zm7.4 3.7c-2.4 0-3.6-1.3-3.6-4 0-1.2.3-2.2 1-3 .6-.6 1.6-1 2.8-1 .8 0 1.6.2 2.3.6l-.6 1.6-.9-.3-.8-.2c-1.1 0-1.7.8-1.7 2.3 0 1.5.6 2.3 1.7 2.3.4 0 .7 0 1-.2.4 0 .8-.3 1.1-.5v1.8c-.3.2-.7.4-1 .4l-1.3.2zm7.3-1.7c.4 0 .8 0 1.3-.2v1.5c-.5.3-1.1.4-1.9.4-.8 0-1.4-.2-1.8-.7-.4-.4-.6-1-.6-1.9v-3.6h-1v-1l1.2-.6.6-1.6h1.3v1.6h2.1v1.6h-2.1v3.6c0 .3 0 .6.2.7l.7.2zm2.8-8c0-.8.4-1.1 1.1-1.1.8 0 1.1.3 1.1 1 0 .3 0 .6-.2.8-.2.2-.5.2-.9.2-.7 0-1.1-.3-1.1-1zm2.1 9.5h-2v-7.6h2v7.6zm9.3 0h-2V98c0-.6-.2-1-.4-1.3-.2-.2-.5-.4-1-.4s-1 .2-1.2.6c-.2.4-.4 1-.4 2v3.5h-2v-7.6h1.5l.3 1h.1c.3-.4.6-.7 1-.9.4-.2.9-.3 1.4-.3.9 0 1.5.3 2 .8.5.4.7 1.1.7 2v5zm8.8-7.6v1l-1.2.4c.2.3.3.7.3 1.1 0 .8-.3 1.5-.8 2-.6.4-1.4.6-2.4.6h-.7c-.2.1-.3.3-.3.5 0 .3.4.5 1.1.5h1.3c.9 0 1.5.1 2 .5.4.4.6.9.6 1.6 0 .9-.4 1.6-1.1 2-.8.5-1.8.8-3.2.8-1 0-2-.2-2.5-.6-.5-.3-.8-.9-.8-1.5 0-.5.1-.9.4-1.2.3-.3.7-.5 1.3-.6l-.6-.5a1 1 0 01-.2-.7c0-.2 0-.5.2-.7l.8-.5a2 2 0 01-1-.9c-.2-.4-.3-.8-.3-1.3 0-.9.2-1.5.8-2 .5-.4 1.3-.7 2.3-.7l.8.1h3.2zm-6 8.7c0 .3.2.5.5.7.3.2.7.2 1.2.2.7 0 1.3 0 1.7-.3.4-.2.7-.5.7-.8 0-.3-.2-.5-.4-.6a3 3 0 00-1.2-.2h-1c-.4 0-.8.1-1 .3-.3.2-.4.4-.4.7zm.9-6.2c0 .4 0 .7.2 1 .2.2.5.3.9.3s.7 0 .9-.3l.2-1c0-1-.3-1.4-1.1-1.4s-1.1.5-1.1 1.4zm12.4 5.3c-.9 0-1.6-.4-2.1-1-.5-.8-.8-1.7-.8-3 0-1.2.3-2.2.8-2.9.5-.7 1.3-1 2.2-1 1 0 1.7.3 2.2 1l-.1-1.5v-2.4h2v10.6h-1.5l-.4-1h-.1c-.5.8-1.2 1.2-2.2 1.2zm.7-1.7c.6 0 1-.1 1.2-.5.3-.3.4-.8.4-1.5v-.3c0-.8-.1-1.4-.4-1.7-.2-.4-.6-.6-1.2-.6-.5 0-.8.2-1 .6-.3.4-.5 1-.5 1.8 0 .7.2 1.3.4 1.6.3.4.7.6 1.1.6zm10.6 1.5l-.4-1-1.1 1-1.5.2c-.7 0-1.3-.2-1.7-.7-.4-.4-.7-1-.7-1.8s.3-1.4.9-1.7a5 5 0 012.6-.7h1.3v-.4c0-.7-.4-1.1-1.2-1.1-.6 0-1.3.2-2.2.5l-.6-1.4c.8-.4 1.8-.7 2.9-.7 1 0 1.8.3 2.3.7.6.4.9 1.1.9 2v5.1H357zm-.6-3.5h-.8c-.6 0-1 .1-1.4.3-.3.2-.4.6-.4 1 0 .5.3.8 1 .8.5 0 .9 0 1.2-.4.2-.3.4-.6.4-1v-.7zm7.4 2c.4 0 .8 0 1.3-.2v1.5c-.5.3-1.1.4-1.9.4-.8 0-1.4-.2-1.8-.7-.4-.4-.6-1-.6-1.9v-3.6h-1v-1l1.2-.6.6-1.6h1.3v1.6h2.2v1.6H363v3.6c0 .3.1.6.3.7l.6.2zm7.8 1.5l-.4-1h-.1l-1 1-1.5.2c-.8 0-1.4-.2-1.8-.7-.4-.4-.6-1-.6-1.8s.3-1.4.8-1.7a5 5 0 012.6-.7h1.3v-.4c0-.7-.4-1.1-1.1-1.1-.7 0-1.4.2-2.2.5l-.7-1.4c.9-.4 1.9-.7 3-.7 1 0 1.7.3 2.3.7.5.4.8 1.1.8 2v5.1h-1.4zM371 99h-.8c-.6 0-1 .1-1.3.3-.3.2-.5.6-.5 1 0 .5.4.8 1 .8.5 0 1 0 1.2-.4.3-.3.4-.6.4-1v-.7z" />
            </g>
        </g>
    </g>
</svg>
